<?xml version="1.0" encoding="UTF-8" standalone="no"?>
<svg
   xmlns:dc="http://purl.org/dc/elements/1.1/"
   xmlns:cc="http://creativecommons.org/ns#"
   xmlns:rdf="http://www.w3.org/1999/02/22-rdf-syntax-ns#"
   xmlns:svg="http://www.w3.org/2000/svg"
   xmlns="http://www.w3.org/2000/svg"
   xmlns:sodipodi="http://sodipodi.sourceforge.net/DTD/sodipodi-0.dtd"
   xmlns:inkscape="http://www.inkscape.org/namespaces/inkscape"
   width="210mm"
   height="297mm"
   viewBox="0 0 210 297"
   version="1.1"
   id="svg7301"
   inkscape:version="1.0.2 (e86c870879, 2021-01-15)"
   sodipodi:docname="logo.svg">
  <defs
     id="defs7295" />
  <sodipodi:namedview
     id="base"
     pagecolor="#ffffff"
     bordercolor="#666666"
     borderopacity="1.0"
     inkscape:pageopacity="0.0"
     inkscape:pageshadow="2"
     inkscape:zoom="1.5711538"
     inkscape:cx="246.61748"
     inkscape:cy="160.66509"
     inkscape:document-units="mm"
     inkscape:current-layer="layer1"
     inkscape:document-rotation="0"
     showgrid="false"
     inkscape:window-width="1833"
     inkscape:window-height="981"
     inkscape:window-x="0"
     inkscape:window-y="0"
     inkscape:window-maximized="0" />
  <metadata
     id="metadata7298">
    <rdf:RDF>
      <cc:Work
         rdf:about="">
        <dc:format>image/svg+xml</dc:format>
        <dc:type
           rdf:resource="http://purl.org/dc/dcmitype/StillImage" />
        <dc:title></dc:title>
      </cc:Work>
    </rdf:RDF>
  </metadata>
  <g
     inkscape:label="Layer 1"
     inkscape:groupmode="layer"
     id="layer1">
    <path
       d="M 99.913336,45.695572 H 123.72549 V 26.771217 H 99.913336 Z"
       style="fill:#393536;fill-opacity:1;fill-rule:nonzero;stroke:none;stroke-width:0.352778"
       id="path865" />
    <g
       id="g887"
       transform="matrix(0.35277777,0,0,-0.35277777,30.449577,35.402976)">
      <path
         d="m 0,0 v -0.886 l 16.627,-9.34 16.802,9.34 V 0 L 16.715,-9.34 Z"
         style="fill:#c8c7c7;fill-opacity:1;fill-rule:nonzero;stroke:none"
         id="path889" />
    </g>
    <g
       id="g891"
       transform="matrix(0.35277777,0,0,-0.35277777,36.315248,39.010341)">
      <path
         d="m 0,0 16.802,9.34 v 0.886 L 0.087,0.886 Z"
         style="fill:#231f20;fill-opacity:1;fill-rule:nonzero;stroke:none"
         id="path893" />
    </g>
    <g
       id="g895"
       transform="matrix(0.35277777,0,0,-0.35277777,30.449577,37.042158)">
      <path
         d="m 0,0 v -0.885 l 16.627,-9.34 16.802,9.34 V 0 L 16.715,-9.34 Z"
         style="fill:#c8c7c7;fill-opacity:1;fill-rule:nonzero;stroke:none"
         id="path897" />
    </g>
    <g
       id="g899"
       transform="matrix(0.35277777,0,0,-0.35277777,36.315248,40.64917)">
      <path
         d="m 0,0 16.802,9.34 v 0.885 L 0.087,0.885 Z"
         style="fill:#231f20;fill-opacity:1;fill-rule:nonzero;stroke:none"
         id="path901" />
    </g>
    <g
       id="g903"
       transform="matrix(0.35277777,0,0,-0.35277777,30.449577,38.680987)">
      <path
         d="m 0,0 v -0.886 l 16.627,-9.34 16.802,9.34 V 0 L 16.715,-9.34 Z"
         style="fill:#c8c7c7;fill-opacity:1;fill-rule:nonzero;stroke:none"
         id="path905" />
    </g>
    <g
       id="g907"
       transform="matrix(0.35277777,0,0,-0.35277777,36.315248,42.288352)">
      <path
         d="m 0,0 16.802,9.34 v 0.886 L 0.087,0.886 Z"
         style="fill:#231f20;fill-opacity:1;fill-rule:nonzero;stroke:none"
         id="path909" />
    </g>
    <g
       id="g911"
       transform="matrix(0.35277777,0,0,-0.35277777,39.294421,35.451871)">
      <path
         d="M 0,0 -4.179,2.335 0,4.67 4.179,2.335 Z"
         style="fill:#c8c7c7;fill-opacity:1;fill-rule:nonzero;stroke:none"
         id="path913" />
    </g>
    <g
       id="g915"
       transform="matrix(0.35277777,0,0,-0.35277777,37.820268,36.226783)">
      <path
         d="M 0,0 -4.178,2.335 0,4.67 4.179,2.335 Z"
         style="fill:#231f20;fill-opacity:1;fill-rule:nonzero;stroke:none"
         id="path917" />
    </g>
    <g
       id="g919"
       transform="matrix(0.35277777,0,0,-0.35277777,39.224183,33.755539)">
      <path
         d="M 0,0 -4.179,2.335 0,4.67 4.179,2.335 Z"
         style="fill:#656263;fill-opacity:1;fill-rule:nonzero;stroke:none"
         id="path921" />
    </g>
    <g
       id="g923"
       transform="matrix(0.35277777,0,0,-0.35277777,36.346081,37.050448)">
      <path
         d="M 0,0 -4.179,2.335 0,4.67 4.179,2.335 Z"
         style="fill:#231f20;fill-opacity:1;fill-rule:nonzero;stroke:none"
         id="path925" />
    </g>
    <g
       id="g927"
       transform="matrix(0.35277777,0,0,-0.35277777,34.871999,36.226783)">
      <path
         d="M 0,0 -4.179,2.335 0,4.67 4.179,2.335 Z"
         style="fill:#c8c7c7;fill-opacity:1;fill-rule:nonzero;stroke:none"
         id="path929" />
    </g>
    <g
       id="g931"
       transform="matrix(0.35277777,0,0,-0.35277777,36.346151,35.403011)">
      <path
         d="M 0,0 -4.179,2.335 0,4.67 4.178,2.335 Z"
         style="fill:#7b7979;fill-opacity:1;fill-rule:nonzero;stroke:none"
         id="path933" />
    </g>
    <g
       id="g935"
       transform="matrix(0.35277777,0,0,-0.35277777,36.346081,33.755539)">
      <path
         d="M 0,0 -4.179,2.335 0,4.67 4.179,2.335 Z"
         style="fill:#7b7979;fill-opacity:1;fill-rule:nonzero;stroke:none"
         id="path937" />
    </g>
    <g
       id="g939"
       transform="matrix(0.35277777,0,0,-0.35277777,34.871999,32.931803)">
      <path
         d="M 0,0 -4.179,2.335 0,4.67 4.179,2.335 Z"
         style="fill:#7b7979;fill-opacity:1;fill-rule:nonzero;stroke:none"
         id="path941" />
    </g>
    <g
       id="g943"
       transform="matrix(0.35277777,0,0,-0.35277777,33.397881,35.402976)">
      <path
         d="M 0,0 -4.179,2.335 0,4.67 4.179,2.335 Z"
         style="fill:#c8c7c7;fill-opacity:1;fill-rule:nonzero;stroke:none"
         id="path945" />
    </g>
    <g
       id="g947"
       transform="matrix(0.35277777,0,0,-0.35277777,42.172452,32.108067)">
      <path
         d="M 0,0 -4.178,2.335 0,4.67 4.179,2.335 Z"
         style="fill:#231f20;fill-opacity:1;fill-rule:nonzero;stroke:none"
         id="path949" />
    </g>
    <g
       id="g951"
       transform="matrix(0.35277777,0,0,-0.35277777,39.294421,37.050484)">
      <path
         d="M 0,0 -4.179,2.335 0,4.67 4.179,2.335 Z"
         style="fill:#c8c7c7;fill-opacity:1;fill-rule:nonzero;stroke:none"
         id="path953" />
    </g>
    <g
       id="g955"
       transform="matrix(0.35277777,0,0,-0.35277777,37.820268,37.87422)">
      <path
         d="M 0,0 -4.179,2.335 0,4.67 4.179,2.335 Z"
         style="fill:#c8c7c7;fill-opacity:1;fill-rule:nonzero;stroke:none"
         id="path957" />
    </g>
    <g
       id="g959"
       transform="matrix(0.35277777,0,0,-0.35277777,33.397811,37.050484)">
      <path
         d="M 0,0 -4.178,2.335 0,4.67 4.179,2.335 Z"
         style="fill:#231f20;fill-opacity:1;fill-rule:nonzero;stroke:none"
         id="path961" />
    </g>
    <g
       id="g5421"
       transform="matrix(0.35277777,0,0,-0.35277777,105.64017,35.581709)">
      <path
         d="m 0,0 v -0.876 l 16.627,-9.241 16.802,9.241 V 0 L 16.715,-9.241 Z"
         style="fill:#656263;fill-opacity:1;fill-rule:nonzero;stroke:none"
         id="path5423" />
    </g>
    <g
       id="g5425"
       transform="matrix(0.35277777,0,0,-0.35277777,111.50585,39.150833)">
      <path
         d="m 0,0 16.802,9.241 v 0.876 L 0.087,0.876 Z"
         style="fill:#ffffff;fill-opacity:1;fill-rule:nonzero;stroke:none"
         id="path5427" />
    </g>
    <g
       id="g5429"
       transform="matrix(0.35277777,0,0,-0.35277777,105.64017,37.203323)">
      <path
         d="m 0,0 v -0.876 l 16.627,-9.241 16.802,9.241 V 0 L 16.715,-9.241 Z"
         style="fill:#656263;fill-opacity:1;fill-rule:nonzero;stroke:none"
         id="path5431" />
    </g>
    <g
       id="g5433"
       transform="matrix(0.35277777,0,0,-0.35277777,111.50585,40.772446)">
      <path
         d="m 0,0 16.802,9.241 v 0.876 L 0.087,0.876 Z"
         style="fill:#ffffff;fill-opacity:1;fill-rule:nonzero;stroke:none"
         id="path5435" />
    </g>
    <g
       id="g5437"
       transform="matrix(0.35277777,0,0,-0.35277777,105.64017,38.824937)">
      <path
         d="m 0,0 v -0.876 l 16.627,-9.242 16.802,9.242 V 0 L 16.715,-9.242 Z"
         style="fill:#656263;fill-opacity:1;fill-rule:nonzero;stroke:none"
         id="path5439" />
    </g>
    <g
       id="g5441"
       transform="matrix(0.35277777,0,0,-0.35277777,111.50585,42.394413)">
      <path
         d="m 0,0 16.802,9.242 v 0.876 L 0.087,0.876 Z"
         style="fill:#ffffff;fill-opacity:1;fill-rule:nonzero;stroke:none"
         id="path5443" />
    </g>
    <g
       id="g5445"
       transform="matrix(0.35277777,0,0,-0.35277777,114.48498,35.629934)">
      <path
         d="M 0,0 -4.179,2.31 0,4.621 4.179,2.31 Z"
         style="fill:#656263;fill-opacity:1;fill-rule:nonzero;stroke:none"
         id="path5447" />
    </g>
    <g
       id="g5449"
       transform="matrix(0.35277777,0,0,-0.35277777,113.01087,36.396626)">
      <path
         d="M 0,0 -4.179,2.31 0,4.621 4.179,2.31 Z"
         style="fill:#ffffff;fill-opacity:1;fill-rule:nonzero;stroke:none"
         id="path5451" />
    </g>
    <g
       id="g5453"
       transform="matrix(0.35277777,0,0,-0.35277777,114.41474,33.951417)">
      <path
         d="M 0,0 -4.179,2.31 0,4.621 4.179,2.31 Z"
         style="fill:#a7a5a6;fill-opacity:1;fill-rule:nonzero;stroke:none"
         id="path5455" />
    </g>
    <g
       id="g5457"
       transform="matrix(0.35277777,0,0,-0.35277777,111.53668,37.211684)">
      <path
         d="M 0,0 -4.179,2.31 0,4.621 4.179,2.31 Z"
         style="fill:#a7a5a6;fill-opacity:1;fill-rule:nonzero;stroke:none"
         id="path5459" />
    </g>
    <g
       id="g5461"
       transform="matrix(0.35277777,0,0,-0.35277777,110.06253,36.396661)">
      <path
         d="M 0,0 -4.179,2.311 0,4.621 4.179,2.311 Z"
         style="fill:#656263;fill-opacity:1;fill-rule:nonzero;stroke:none"
         id="path5463" />
    </g>
    <g
       id="g5465"
       transform="matrix(0.35277777,0,0,-0.35277777,111.53664,35.581533)">
      <path
         d="M 0,0 -4.179,2.311 0,4.621 4.179,2.31 Z"
         style="fill:#656263;fill-opacity:1;fill-rule:nonzero;stroke:none"
         id="path5467" />
    </g>
    <g
       id="g5469"
       transform="matrix(0.35277777,0,0,-0.35277777,111.53664,33.951417)">
      <path
         d="M 0,0 -4.179,2.31 0,4.621 4.179,2.31 Z"
         style="fill:#656263;fill-opacity:1;fill-rule:nonzero;stroke:none"
         id="path5471" />
    </g>
    <g
       id="g5473"
       transform="matrix(0.35277777,0,0,-0.35277777,110.0626,33.13636)">
      <path
         d="M 0,0 -4.179,2.31 0,4.621 4.178,2.311 Z"
         style="fill:#656263;fill-opacity:1;fill-rule:nonzero;stroke:none"
         id="path5475" />
    </g>
    <g
       id="g5477"
       transform="matrix(0.35277777,0,0,-0.35277777,108.58837,35.581498)">
      <path
         d="M 0,0 -4.179,2.31 0,4.621 4.179,2.31 Z"
         style="fill:#a7a5a6;fill-opacity:1;fill-rule:nonzero;stroke:none"
         id="path5479" />
    </g>
    <g
       id="g5481"
       transform="matrix(0.35277777,0,0,-0.35277777,117.36298,32.321267)">
      <path
         d="M 0,0 -4.179,2.31 0,4.621 4.179,2.31 Z"
         style="fill:#ffffff;fill-opacity:1;fill-rule:nonzero;stroke:none"
         id="path5483" />
    </g>
    <g
       id="g5485"
       transform="matrix(0.35277777,0,0,-0.35277777,114.48498,37.211684)">
      <path
         d="M 0,0 -4.179,2.31 0,4.621 4.179,2.31 Z"
         style="fill:#656263;fill-opacity:1;fill-rule:nonzero;stroke:none"
         id="path5487" />
    </g>
    <g
       id="g5489"
       transform="matrix(0.35277777,0,0,-0.35277777,113.01083,38.026706)">
      <path
         d="M 0,0 -4.178,2.31 0,4.621 4.179,2.31 Z"
         style="fill:#656263;fill-opacity:1;fill-rule:nonzero;stroke:none"
         id="path5491" />
    </g>
    <g
       id="g5493"
       transform="matrix(0.35277777,0,0,-0.35277777,108.58841,37.211719)">
      <path
         d="M 0,0 -4.179,2.311 0,4.621 4.179,2.311 Z"
         style="fill:#656263;fill-opacity:1;fill-rule:nonzero;stroke:none"
         id="path5495" />
    </g>
  </g>
</svg>
