<?xml version="1.0" encoding="UTF-8" standalone="no"?>
<!-- Created with Inkscape (http://www.inkscape.org/) -->

<svg
   version="1.1"
   id="svg9"
   xml:space="preserve"
   width="620"
   height="1054.6667"
   viewBox="0 0 620 1054.6667"
   sodipodi:docname="DBP-UI-Design_page_15.svg"
   inkscape:version="1.1.2 (0a00cf5, 2022-02-04)"
   xmlns:inkscape="http://www.inkscape.org/namespaces/inkscape"
   xmlns:sodipodi="http://sodipodi.sourceforge.net/DTD/sodipodi-0.dtd"
   xmlns="http://www.w3.org/2000/svg"
   xmlns:svg="http://www.w3.org/2000/svg"><defs
     id="defs13"><clipPath
       clipPathUnits="userSpaceOnUse"
       id="clipPath27"><path
         d="M 0,0 H 1860 V 3164 H 0 Z"
         clip-rule="evenodd"
         id="path25" /></clipPath></defs><sodipodi:namedview
     id="namedview11"
     pagecolor="#ffffff"
     bordercolor="#666666"
     borderopacity="1.0"
     inkscape:pageshadow="2"
     inkscape:pageopacity="0.0"
     inkscape:pagecheckerboard="0"
     showgrid="false"
     inkscape:zoom="0.74525911"
     inkscape:cx="19.45632"
     inkscape:cy="527.33337"
     inkscape:window-width="1920"
     inkscape:window-height="1001"
     inkscape:window-x="1920"
     inkscape:window-y="0"
     inkscape:window-maximized="1"
     inkscape:current-layer="g15" /><g
     id="g15"
     inkscape:groupmode="layer"
     inkscape:label="DBP-UI-Design-source"
     transform="matrix(0.33333333,0,0,0.33333333,0,5.97e-5)"><path
       d="M 0,0 H 1860 V 3164 H 0 Z"
       style="fill:#ffffff;fill-opacity:1;fill-rule:nonzero;stroke:none;stroke-width:4"
       id="path19" /><g
       id="g29"
       transform="matrix(4,0,0,4,0,2948)"><path
         d="M 0,0 H 465 V 54 H 0 Z"
         style="fill:#ebebeb;fill-opacity:1;fill-rule:nonzero;stroke:none"
         id="path31" /></g><g
       id="g33"
       transform="matrix(4,0,0,4,732,2980)"><path
         d="M 0,0 H 280 V 38 H 0 Z"
         style="fill:#ffffff;fill-opacity:1;fill-rule:nonzero;stroke:none"
         id="path35" /></g><g
       id="g37"
       transform="matrix(4,0,0,4,-600,2980)"><g
         aria-label="Slot „footer"
         transform="translate(152.46001,30)"
         id="text41"
         style="font-weight:900;font-size:30px;font-family:SourceSansPro;-inkscape-font-specification:SourceSansPro-Black;fill:#707070"><path
           d="m 16.32,-6.51 q 0,1.74 -0.9,3.3 -0.87,1.56 -2.73,2.55 Q 10.86,0.3 7.92,0.3 6.45,0.3 5.34,0.15 4.26,0.03 3.3,-0.27 2.34,-0.57 1.32,-1.05 v -5.16 q 1.74,0.87 3.51,1.35 1.77,0.45 3.21,0.45 1.29,0 1.89,-0.45 0.6,-0.45 0.6,-1.14 0,-0.84 -0.9,-1.35 -0.87,-0.54 -2.97,-1.47 -1.59,-0.75 -2.76,-1.56 -1.17,-0.84 -1.8,-2.04 -0.63,-1.2 -0.63,-3.03 0,-2.07 1.02,-3.45 1.02,-1.41 2.82,-2.1 1.83,-0.72 4.23,-0.72 2.1,0 3.78,0.48 1.68,0.45 3,1.05 l -1.77,4.47 q -1.38,-0.63 -2.73,-0.99 -1.32,-0.39 -2.46,-0.39 -1.11,0 -1.65,0.39 -0.51,0.39 -0.51,0.99 0,0.51 0.39,0.9 0.39,0.39 1.29,0.87 0.93,0.45 2.52,1.17 1.56,0.69 2.64,1.53 1.11,0.81 1.68,1.95 0.6,1.11 0.6,2.79 z"
           id="path7912" /><path
           d="m 24.629998,0 h -5.73 v -22.8 h 5.73 z"
           id="path7914" /><path
           d="m 43.680001,-8.34 q 0,4.17 -2.22,6.42 -2.22,2.22 -6.09,2.22 -2.4,0 -4.26,-0.99 -1.86,-1.02 -2.94,-2.94 -1.05,-1.95 -1.05,-4.71 0,-4.11 2.22,-6.33 2.22,-2.22 6.12,-2.22 2.4,0 4.23,0.99 1.86,0.99 2.91,2.91 1.08,1.89 1.08,4.65 z m -10.74,0 q 0,2.13 0.57,3.27 0.57,1.11 1.92,1.11 1.32,0 1.86,-1.11 0.57,-1.14 0.57,-3.27 0,-2.13 -0.57,-3.21 -0.54,-1.08 -1.89,-1.08 -1.29,0 -1.89,1.08 -0.57,1.08 -0.57,3.21 z"
           id="path7916" /><path
           d="m 51.869995,-4.23 q 0.78,0 1.41,-0.15 0.66,-0.18 1.35,-0.42 v 4.17 q -0.93,0.39 -1.98,0.66 -1.05,0.27 -2.67,0.27 -1.62,0 -2.85,-0.51 -1.2,-0.51 -1.89,-1.74 -0.69,-1.26 -0.69,-3.51 v -6.84 h -2.01 v -2.34 l 2.55,-1.8 1.47,-3.48 h 3.75 v 3.33 h 4.08 v 4.29 h -4.08 v 6.45 q 0,1.62 1.56,1.62 z"
           id="path7918" /><path
           d="m 74.549995,-4.35 0.21,0.33 q -0.27,1.08 -0.69,2.58 -0.42,1.5 -0.9,3 -0.48,1.53 -0.99,2.64 h -4.08 q 0.3,-1.38 0.57,-2.91 0.27,-1.5 0.51,-2.97 0.24,-1.47 0.36,-2.67 z m -7.47,0 0.21,0.33 q -0.27,1.08 -0.69,2.58 -0.42,1.5 -0.9,3 -0.48,1.53 -0.99,2.64 h -4.08 q 0.3,-1.38 0.57,-2.91 0.27,-1.5 0.51,-2.97 0.24,-1.47 0.36,-2.67 z"
           id="path7920" /><path
           d="m 89.280004,-12.3 h -3.54 V 0 h -5.73 v -12.3 h -2.19 v -2.82 l 2.31,-1.41 v -0.27 q 0,-3.21 1.32,-4.68 1.32,-1.47 4.32,-1.47 1.29,0 2.34,0.21 1.05,0.18 2.19,0.57 l -1.23,3.72 q -0.42,-0.12 -0.96,-0.21 -0.51,-0.09 -1.11,-0.09 -1.26,0 -1.26,1.71 v 0.45 h 3.54 z"
           id="path7922" /><path
           d="m 105.48,-8.34 q 0,4.17 -2.22,6.42 -2.22,2.22 -6.089996,2.22 -2.4,0 -4.26,-0.99 -1.86,-1.02 -2.94,-2.94 -1.05,-1.95 -1.05,-4.71 0,-4.11 2.22,-6.33 2.22,-2.22 6.12,-2.22 2.4,0 4.229996,0.99 1.86,0.99 2.91,2.91 1.08,1.89 1.08,4.65 z m -10.739996,0 q 0,2.13 0.57,3.27 0.57,1.11 1.92,1.11 1.32,0 1.86,-1.11 0.57,-1.14 0.57,-3.27 0,-2.13 -0.57,-3.21 -0.54,-1.08 -1.89,-1.08 -1.29,0 -1.89,1.08 -0.57,1.08 -0.57,3.21 z"
           id="path7924" /><path
           d="m 122.28001,-8.34 q 0,4.17 -2.22,6.42 -2.22,2.22 -6.09,2.22 -2.4,0 -4.26,-0.99 -1.86,-1.02 -2.94,-2.94 -1.05,-1.95 -1.05,-4.71 0,-4.11 2.22,-6.33 2.22,-2.22 6.12,-2.22 2.4,0 4.23,0.99 1.86,0.99 2.91,2.91 1.08,1.89 1.08,4.65 z m -10.74,0 q 0,2.13 0.57,3.27 0.57,1.11 1.92,1.11 1.32,0 1.86,-1.11 0.57,-1.14 0.57,-3.27 0,-2.13 -0.57,-3.21 -0.54,-1.08 -1.89,-1.08 -1.29,0 -1.89,1.08 -0.57,1.08 -0.57,3.21 z"
           id="path7926" /><path
           d="m 130.47,-4.23 q 0.78,0 1.41,-0.15 0.66,-0.18 1.35,-0.42 v 4.17 q -0.93,0.39 -1.98,0.66 -1.05,0.27 -2.67,0.27 -1.62,0 -2.85,-0.51 -1.2,-0.51 -1.89,-1.74 -0.69,-1.26 -0.69,-3.51 v -6.84 h -2.01 v -2.34 l 2.55,-1.8 1.47,-3.48 h 3.75 v 3.33 h 4.08 v 4.29 h -4.08 v 6.45 q 0,1.62 1.56,1.62 z"
           id="path7928" /><path
           d="m 141.20999,-16.89 q 3.63,0 5.73,1.89 2.1,1.89 2.1,5.7 v 2.55 h -10.23 q 0.06,1.29 0.96,2.13 0.93,0.84 2.67,0.84 1.56,0 2.85,-0.3 1.29,-0.3 2.67,-0.96 v 4.11 q -1.2,0.63 -2.64,0.93 -1.41,0.3 -3.57,0.3 -2.52,0 -4.5,-0.87 -1.95,-0.9 -3.09,-2.79 -1.14,-1.89 -1.14,-4.83 0,-3 1.02,-4.92 1.05,-1.92 2.88,-2.85 1.86,-0.93 4.29,-0.93 z m 0.21,3.9 q -1.02,0 -1.71,0.63 -0.66,0.63 -0.78,2.01 h 4.92 q -0.03,-1.11 -0.66,-1.86 -0.6,-0.78 -1.77,-0.78 z"
           id="path7930" /><path
           d="m 159.53999,-16.89 q 0.48,0 0.99,0.06 0.51,0.06 0.75,0.12 l -0.51,5.4 q -0.3,-0.06 -0.75,-0.12 -0.42,-0.06 -1.2,-0.06 -0.72,0 -1.56,0.21 -0.81,0.21 -1.41,0.93 -0.6,0.69 -0.6,2.19 V 0 h -5.73 v -16.59 h 4.26 l 0.9,2.64 h 0.27 q 0.69,-1.23 1.92,-2.07 1.26,-0.87 2.67,-0.87 z"
           id="path7932" /></g></g><g
       id="g43"
       transform="matrix(4,0,0,4,756,3008)"><g
         aria-label="Slot „footer-links“"
         transform="translate(93.660004,20)"
         id="text47"
         style="font-size:20px;font-family:SourceSansPro;-inkscape-font-specification:SourceSansPro-Regular;fill:#707070"><path
           d="m 10.04,-3.82 q 0,1.9 -1.38,2.96 Q 7.28,0.2 4.94,0.2 3.74,0.2 2.72,0.02 1.7,-0.16 1.02,-0.48 V -2.2 q 0.72,0.32 1.78,0.58 1.08,0.26 2.22,0.26 1.6,0 2.4,-0.62 0.82,-0.62 0.82,-1.68 0,-0.7 -0.3,-1.18 Q 7.64,-5.32 6.9,-5.72 6.18,-6.14 4.88,-6.6 3.06,-7.26 2.12,-8.22 1.2,-9.18 1.2,-10.84 q 0,-1.14 0.58,-1.94 0.58,-0.82 1.6,-1.26 1.04,-0.44 2.38,-0.44 1.18,0 2.16,0.22 0.98,0.22 1.78,0.58 l -0.56,1.54 q -0.74,-0.32 -1.62,-0.54 -0.86,-0.22 -1.8,-0.22 -1.34,0 -2.02,0.58 -0.68,0.56 -0.68,1.5 0,0.72 0.3,1.2 0.3,0.48 0.98,0.86 0.68,0.38 1.84,0.82 1.26,0.46 2.12,1 0.88,0.52 1.32,1.26 0.46,0.74 0.46,1.86 z"
           id="path7972" /><path
           d="m 14.14,0 h -1.76 v -15.2 h 1.76 z"
           id="path7974" /><path
           d="m 26.799999,-5.38 q 0,2.66 -1.36,4.12 -1.34,1.46 -3.64,1.46 -1.42,0 -2.54,-0.64 -1.1,-0.66 -1.74,-1.9 -0.64,-1.26 -0.64,-3.04 0,-2.66 1.34,-4.1 1.34,-1.44 3.64,-1.44 1.46,0 2.56,0.66 1.12,0.64 1.74,1.88 0.64,1.22 0.64,3 z m -8.1,0 q 0,1.9 0.74,3.02 0.76,1.1 2.4,1.1 1.62,0 2.38,-1.1 0.76,-1.12 0.76,-3.02 0,-1.9 -0.76,-2.98 -0.76,-1.08 -2.4,-1.08 -1.64,0 -2.38,1.08 -0.74,1.08 -0.74,2.98 z"
           id="path7976" /><path
           d="m 31.559999,-1.24 q 0.4,0 0.82,-0.06 0.42,-0.08 0.68,-0.16 v 1.34 q -0.28,0.14 -0.8,0.22 -0.52,0.1 -1,0.1 -0.84,0 -1.56,-0.28 -0.7,-0.3 -1.14,-1.02 -0.44,-0.72 -0.44,-2.02 v -6.24 h -1.52 v -0.84 l 1.54,-0.7 0.7,-2.28 h 1.04 v 2.46 h 3.1 v 1.36 h -3.1 v 6.2 q 0,0.98 0.46,1.46 0.48,0.46 1.22,0.46 z"
           id="path7978" /><path
           d="m 44.220009,-2.32 0.14,0.22 q -0.26,1.06 -0.76,2.34 -0.48,1.28 -0.96,2.34 h -1.32 q 0.2,-0.76 0.38,-1.64 0.2,-0.86 0.36,-1.7 0.18,-0.86 0.28,-1.56 z m -3.7,0 0.14,0.22 q -0.26,1.06 -0.76,2.34 -0.48,1.28 -0.96,2.34 h -1.28 q 0.2,-0.76 0.38,-1.64 0.18,-0.86 0.34,-1.7 0.16,-0.86 0.26,-1.56 z"
           id="path7980" /><path
           d="m 52.180009,-9.36 h -2.7 V 0 h -1.76 v -9.36 h -1.88 v -0.82 l 1.88,-0.6 v -0.62 q 0,-2.08 0.92,-2.98 0.92,-0.92 2.56,-0.92 0.64,0 1.16,0.12 0.54,0.1 0.92,0.24 l -0.46,1.38 q -0.32,-0.1 -0.74,-0.2 -0.42,-0.1 -0.86,-0.1 -0.88,0 -1.32,0.6 -0.42,0.58 -0.42,1.84 v 0.7 h 2.7 z"
           id="path7982" /><path
           d="m 62.199993,-5.38 q 0,2.66 -1.36,4.12 -1.34,1.46 -3.64,1.46 -1.42,0 -2.54,-0.64 -1.1,-0.66 -1.74,-1.9 -0.64,-1.26 -0.64,-3.04 0,-2.66 1.34,-4.1 1.34,-1.44 3.64,-1.44 1.46,0 2.56,0.66 1.12,0.64 1.74,1.88 0.64,1.22 0.64,3 z m -8.1,0 q 0,1.9 0.74,3.02 0.76,1.1 2.4,1.1 1.62,0 2.38,-1.1 0.76,-1.12 0.76,-3.02 0,-1.9 -0.76,-2.98 -0.76,-1.08 -2.4,-1.08 -1.64,0 -2.38,1.08 -0.74,1.08 -0.74,2.98 z"
           id="path7984" /><path
           d="m 73.040004,-5.38 q 0,2.66 -1.36,4.12 -1.34,1.46 -3.64,1.46 -1.42,0 -2.54,-0.64 -1.1,-0.66 -1.74,-1.9 -0.64,-1.26 -0.64,-3.04 0,-2.66 1.34,-4.1 1.34,-1.44 3.64,-1.44 1.46,0 2.56,0.66 1.12,0.64 1.74,1.88 0.64,1.22 0.64,3 z m -8.1,0 q 0,1.9 0.74,3.02 0.76,1.1 2.4,1.1 1.62,0 2.38,-1.1 0.76,-1.12 0.76,-3.02 0,-1.9 -0.76,-2.98 -0.76,-1.08 -2.4,-1.08 -1.64,0 -2.38,1.08 -0.74,1.08 -0.74,2.98 z"
           id="path7986" /><path
           d="m 77.799989,-1.24 q 0.4,0 0.82,-0.06 0.42,-0.08 0.68,-0.16 v 1.34 q -0.28,0.14 -0.8,0.22 -0.52,0.1 -1,0.1 -0.84,0 -1.56,-0.28 -0.7,-0.3 -1.14,-1.02 -0.44,-0.72 -0.44,-2.02 v -6.24 h -1.52 v -0.84 l 1.54,-0.7 0.7,-2.28 h 1.04 v 2.46 h 3.1 v 1.36 h -3.1 v 6.2 q 0,0.98 0.46,1.46 0.48,0.46 1.22,0.46 z"
           id="path7988" /><path
           d="m 84.84,-10.92 q 1.38,0 2.36,0.6 1,0.6 1.52,1.7 0.54,1.08 0.54,2.54 v 1.06 h -7.34 q 0.04,1.82 0.92,2.78 0.9,0.94 2.5,0.94 1.02,0 1.8,-0.18 0.8,-0.2 1.64,-0.56 v 1.54 q -0.82,0.36 -1.62,0.52 -0.8,0.18 -1.9,0.18 -1.52,0 -2.7,-0.62 -1.16,-0.62 -1.82,-1.84 -0.64,-1.24 -0.64,-3.02 0,-1.76 0.58,-3.02 0.6,-1.26 1.66,-1.94 1.08,-0.68 2.5,-0.68 z m -0.02,1.44 q -1.26,0 -2,0.82 -0.72,0.8 -0.86,2.24 h 5.46 q -0.02,-1.36 -0.64,-2.2 -0.62,-0.86 -1.96,-0.86 z"
           id="path7990" /><path
           d="m 95.619998,-10.92 q 0.3,0 0.64,0.04 0.36,0.02 0.62,0.08 l -0.22,1.62 q -0.26,-0.06 -0.58,-0.1 -0.3,-0.04 -0.58,-0.04 -0.82,0 -1.54,0.46 -0.72,0.44 -1.16,1.26 -0.42,0.8 -0.42,1.88 V 0 h -1.76 v -10.72 h 1.44 l 0.2,1.96 h 0.08 q 0.52,-0.88 1.34,-1.52 0.82,-0.64 1.94,-0.64 z"
           id="path7992" /><path
           d="M 96.180005,-4.58 V -6.14 H 101.02 v 1.56 z"
           id="path7994" /><path
           d="m 105.06001,0 h -1.76 v -15.2 h 1.76 z"
           id="path7996" /><path
           d="m 109.3,-14.74 q 0.4,0 0.7,0.28 0.32,0.26 0.32,0.84 0,0.56 -0.32,0.84 -0.3,0.28 -0.7,0.28 -0.44,0 -0.74,-0.28 -0.3,-0.28 -0.3,-0.84 0,-0.58 0.3,-0.84 0.3,-0.28 0.74,-0.28 z m 0.86,4.02 V 0 h -1.76 v -10.72 z"
           id="path7998" /><path
           d="m 118.48,-10.92 q 1.92,0 2.9,0.94 0.98,0.92 0.98,3 V 0 h -1.74 v -6.86 q 0,-2.58 -2.4,-2.58 -1.78,0 -2.46,1 -0.68,1 -0.68,2.88 V 0 h -1.76 v -10.72 h 1.42 l 0.26,1.46 h 0.1 q 0.52,-0.84 1.44,-1.24 0.92,-0.42 1.94,-0.42 z"
           id="path8000" /><path
           d="m 126,-15.2 v 7.94 q 0,0.32 -0.04,0.84 -0.02,0.52 -0.04,0.9 H 126 q 0.12,-0.16 0.36,-0.46 0.24,-0.3 0.48,-0.6 0.26,-0.32 0.44,-0.52 l 3.42,-3.62 h 2.06 l -4.34,4.58 4.64,6.14 h -2.12 L 127.22,-5 126,-3.94 V 0 h -1.74 v -15.2 z"
           id="path8002" /><path
           d="m 141.14001,-2.96 q 0,1.56 -1.16,2.36 -1.16,0.8 -3.12,0.8 -1.12,0 -1.94,-0.18 -0.8,-0.18 -1.42,-0.5 v -1.6 q 0.64,0.32 1.54,0.6 0.92,0.26 1.86,0.26 1.34,0 1.94,-0.42 0.6,-0.44 0.6,-1.16 0,-0.4 -0.22,-0.72 -0.22,-0.32 -0.8,-0.64 -0.56,-0.32 -1.62,-0.72 -1.04,-0.4 -1.78,-0.8 -0.74,-0.4 -1.14,-0.96 -0.4,-0.56 -0.4,-1.44 0,-1.36 1.1,-2.1 1.12,-0.74 2.92,-0.74 0.98,0 1.82,0.2 0.86,0.18 1.6,0.52 l -0.6,1.4 q -0.68,-0.28 -1.42,-0.48 -0.74,-0.2 -1.52,-0.2 -1.08,0 -1.66,0.36 -0.56,0.34 -0.56,0.94 0,0.44 0.26,0.76 0.26,0.3 0.86,0.6 0.62,0.28 1.64,0.68 1.02,0.38 1.74,0.78 0.72,0.4 1.1,0.98 0.38,0.56 0.38,1.42 z"
           id="path8004" /><path
           d="m 147.78,-14.28 q -0.28,1.16 -0.56,2.52 -0.28,1.34 -0.44,2.38 h -1.9 l -0.14,-0.22 q 0.28,-1.06 0.76,-2.32 0.48,-1.28 0.98,-2.36 z m -3.7,0 q -0.28,1.16 -0.56,2.52 -0.28,1.34 -0.44,2.38 h -1.88 l -0.12,-0.22 q 0.28,-1.06 0.74,-2.32 0.48,-1.28 0.98,-2.36 z"
           id="path8006" /></g></g><g
       id="g49"
       transform="scale(4)"><path
         d="M 0,0 H 464 V 196 H 0 Z"
         style="fill:#ebebeb;fill-opacity:1;fill-rule:nonzero;stroke:none"
         id="path51" /></g><g
       id="g53"
       transform="matrix(4,0,0,4,0,316)"><g
         aria-label="H1 Slot “title“"
         transform="translate(146.64,30)"
         id="text57"
         style="font-size:30px;font-family:SourceSansPro;-inkscape-font-specification:SourceSansPro-Regular;fill:#707070"><path
           d="m 19.29,0 h -2.7 V -9.99 H 5.61 V 0 h -2.7 v -21.42 h 2.7 v 9.06 h 10.98 v -9.06 h 2.7 z"
           id="path8086" /><path
           d="m 30.209998,0 h -2.58 v -14.97 q 0,-1.29 0.03,-2.07 0.03,-0.78 0.09,-1.62 -0.48,0.48 -0.87,0.81 -0.39,0.33 -0.99,0.84 l -2.28,1.86 -1.38,-1.77 5.79,-4.5 h 2.19 z"
           id="path8088" /><path
           d="m 55.530001,-5.73 q 0,2.85 -2.07,4.44 -2.07,1.59 -5.58,1.59 -1.8,0 -3.33,-0.27 -1.53,-0.27 -2.55,-0.75 V -3.3 q 1.08,0.48 2.67,0.87 1.62,0.39 3.33,0.39 2.4,0 3.6,-0.93 1.23,-0.93 1.23,-2.52 0,-1.05 -0.45,-1.77 -0.45,-0.72 -1.56,-1.32 -1.08,-0.63 -3.03,-1.32 -2.73,-0.99 -4.14,-2.43 -1.38,-1.44 -1.38,-3.93 0,-1.71 0.87,-2.91 0.87,-1.23 2.4,-1.89 1.56,-0.66 3.57,-0.66 1.77,0 3.24,0.33 1.47,0.33 2.67,0.87 l -0.84,2.31 q -1.11,-0.48 -2.43,-0.81 -1.29,-0.33 -2.7,-0.33 -2.01,0 -3.03,0.87 -1.02,0.84 -1.02,2.25 0,1.08 0.45,1.8 0.45,0.72 1.47,1.29 1.02,0.57 2.76,1.23 1.89,0.69 3.18,1.5 1.32,0.78 1.98,1.89 0.69,1.11 0.69,2.79 z"
           id="path8090" /><path
           d="m 61.680005,0 h -2.64 v -22.8 h 2.64 z"
           id="path8092" /><path
           d="m 80.669999,-8.07 q 0,3.99 -2.04,6.18 -2.01,2.19 -5.46,2.19 -2.13,0 -3.81,-0.96 -1.65,-0.99 -2.61,-2.85 -0.96,-1.89 -0.96,-4.56 0,-3.99 2.01,-6.15 2.01,-2.16 5.46,-2.16 2.19,0 3.84,0.99 1.68,0.96 2.61,2.82 0.96,1.83 0.96,4.5 z m -12.15,0 q 0,2.85 1.11,4.53 1.14,1.65 3.6,1.65 2.43,0 3.57,-1.65 1.14,-1.68 1.14,-4.53 0,-2.85 -1.14,-4.47 -1.14,-1.62 -3.6,-1.62 -2.46,0 -3.57,1.62 -1.11,1.62 -1.11,4.47 z"
           id="path8094" /><path
           d="m 87.809999,-1.86 q 0.6,0 1.23,-0.09 0.63,-0.12 1.02,-0.24 v 2.01 q -0.42,0.21 -1.2,0.33 -0.78,0.15 -1.5,0.15 -1.26,0 -2.34,-0.42 -1.05,-0.45 -1.71,-1.53 -0.66,-1.08 -0.66,-3.03 v -9.36 h -2.28 v -1.26 l 2.31,-1.05 1.05,-3.42 h 1.56 v 3.69 h 4.65 v 2.04 h -4.65 v 9.3 q 0,1.47 0.69,2.19 0.72,0.69 1.83,0.69 z"
           id="path8096" /><path
           d="m 106.44,-21.42 q -0.42,1.74 -0.84,3.78 -0.42,2.01 -0.66,3.57 h -2.85 l -0.21,-0.33 q 0.42,-1.59 1.14,-3.48 0.72,-1.92 1.47,-3.54 z m -5.55,0 q -0.42,1.74 -0.84,3.78 -0.420001,2.01 -0.660001,3.57 h -2.82 l -0.18,-0.33 q 0.42,-1.59 1.11,-3.48 0.72,-1.92 1.47,-3.54 z"
           id="path8098" /><path
           d="m 116.7,-1.86 q 0.6,0 1.23,-0.09 0.63,-0.12 1.02,-0.24 v 2.01 q -0.42,0.21 -1.2,0.33 -0.78,0.15 -1.5,0.15 -1.26,0 -2.34,-0.42 -1.05,-0.45 -1.71,-1.53 -0.66,-1.08 -0.66,-3.03 v -9.36 h -2.28 v -1.26 l 2.31,-1.05 1.05,-3.42 h 1.56 v 3.69 h 4.65 v 2.04 h -4.65 v 9.3 q 0,1.47 0.69,2.19 0.72,0.69 1.83,0.69 z"
           id="path8100" /><path
           d="m 122.82,-22.11 q 0.6,0 1.05,0.42 0.48,0.39 0.48,1.26 0,0.84 -0.48,1.26 -0.45,0.42 -1.05,0.42 -0.66,0 -1.11,-0.42 -0.45,-0.42 -0.45,-1.26 0,-0.87 0.45,-1.26 0.45,-0.42 1.11,-0.42 z m 1.29,6.03 V 0 h -2.64 v -16.08 z"
           id="path8102" /><path
           d="m 134.22,-1.86 q 0.6,0 1.23,-0.09 0.63,-0.12 1.02,-0.24 v 2.01 q -0.42,0.21 -1.2,0.33 -0.78,0.15 -1.5,0.15 -1.26,0 -2.34,-0.42 -1.05,-0.45 -1.71,-1.53 -0.66,-1.08 -0.66,-3.03 v -9.36 h -2.28 v -1.26 l 2.31,-1.05 1.05,-3.42 h 1.56 v 3.69 h 4.65 v 2.04 h -4.65 v 9.3 q 0,1.47 0.69,2.19 0.72,0.69 1.83,0.69 z"
           id="path8104" /><path
           d="m 141.63002,0 h -2.64 v -22.8 h 2.64 z"
           id="path8106" /><path
           d="m 152.84998,-16.38 q 2.07,0 3.54,0.9 1.5,0.9 2.28,2.55 0.81,1.62 0.81,3.81 v 1.59 h -11.01 q 0.06,2.73 1.38,4.17 1.35,1.41 3.75,1.41 1.53,0 2.7,-0.27 1.2,-0.3 2.46,-0.84 v 2.31 q -1.23,0.54 -2.43,0.78 -1.2,0.27 -2.85,0.27 -2.28,0 -4.05,-0.93 -1.74,-0.93 -2.73,-2.76 -0.96,-1.86 -0.96,-4.53 0,-2.64 0.87,-4.53 0.9,-1.89 2.49,-2.91 1.62,-1.02 3.75,-1.02 z m -0.03,2.16 q -1.89,0 -3,1.23 -1.08,1.2 -1.29,3.36 h 8.19 q -0.03,-2.04 -0.96,-3.3 -0.93,-1.29 -2.94,-1.29 z"
           id="path8108" /><path
           d="m 169.37999,-21.42 q -0.42,1.74 -0.84,3.78 -0.42,2.01 -0.66,3.57 h -2.85 l -0.21,-0.33 q 0.42,-1.59 1.14,-3.48 0.72,-1.92 1.47,-3.54 z m -5.55,0 q -0.42,1.74 -0.84,3.78 -0.42,2.01 -0.66,3.57 h -2.82 l -0.18,-0.33 q 0.42,-1.59 1.11,-3.48 0.72,-1.92 1.47,-3.54 z"
           id="path8110" /></g></g><g
       id="g59"
       transform="matrix(4,0,0,4,0,48)"><g
         aria-label="Slot „header“"
         transform="translate(105.4,39)"
         id="text63"
         style="font-weight:900;font-size:40px;font-family:SourceSansPro;-inkscape-font-specification:SourceSansPro-Black;fill:#707070"><path
           d="m 21.76,-8.68 q 0,2.32 -1.2,4.4 -1.16,2.08 -3.64,3.4 Q 14.48,0.4 10.56,0.4 8.6,0.4 7.12,0.2 5.68,0.04 4.4,-0.36 3.12,-0.76 1.76,-1.4 v -6.88 q 2.32,1.16 4.68,1.8 2.36,0.6 4.28,0.6 1.72,0 2.52,-0.6 0.8,-0.6 0.8,-1.52 0,-1.12 -1.2,-1.8 -1.16,-0.72 -3.96,-1.96 -2.12,-1 -3.68,-2.08 -1.56,-1.12 -2.4,-2.72 -0.84,-1.6 -0.84,-4.04 0,-2.76 1.36,-4.6 1.36,-1.88 3.76,-2.8 2.44,-0.96 5.64,-0.96 2.8,0 5.04,0.64 2.24,0.6 4,1.4 l -2.36,5.96 q -1.84,-0.84 -3.64,-1.32 -1.76,-0.52 -3.28,-0.52 -1.48,0 -2.2,0.52 -0.68,0.52 -0.68,1.32 0,0.68 0.52,1.2 0.52,0.52 1.72,1.16 1.24,0.6 3.36,1.56 2.08,0.92 3.52,2.04 1.48,1.08 2.24,2.6 0.8,1.48 0.8,3.72 z"
           id="path8113" /><path
           d="m 32.839998,0 h -7.64 v -30.4 h 7.64 z"
           id="path8115" /><path
           d="m 58.240003,-11.12 q 0,5.56 -2.96,8.56 -2.96,2.96 -8.12,2.96 -3.2,0 -5.68,-1.32 -2.48,-1.36 -3.92,-3.92 -1.4,-2.6 -1.4,-6.28 0,-5.48 2.96,-8.44 2.96,-2.96 8.16,-2.96 3.2,0 5.64,1.32 2.48,1.32 3.88,3.88 1.44,2.52 1.44,6.2 z m -14.32,0 q 0,2.84 0.76,4.36 0.76,1.48 2.56,1.48 1.76,0 2.48,-1.48 0.76,-1.52 0.76,-4.36 0,-2.84 -0.76,-4.28 -0.72,-1.44 -2.52,-1.44 -1.72,0 -2.52,1.44 -0.76,1.44 -0.76,4.28 z"
           id="path8117" /><path
           d="m 69.16,-5.64 q 1.04,0 1.88,-0.2 0.88,-0.24 1.8,-0.56 v 5.56 Q 71.6,-0.32 70.2,0.04 68.8,0.4 66.64,0.4 64.48,0.4 62.84,-0.28 61.24,-0.96 60.32,-2.6 59.4,-4.28 59.4,-7.28 v -9.12 h -2.68 v -3.12 l 3.4,-2.4 1.96,-4.64 h 5 v 4.44 h 5.44 v 5.72 h -5.44 v 8.6 q 0,2.16 2.08,2.16 z"
           id="path8119" /><path
           d="m 99.4,-5.8 0.28,0.44 q -0.36,1.44 -0.92,3.44 -0.56,2 -1.2,4 -0.64,2.04 -1.32,3.52 H 90.8 q 0.4,-1.84 0.76,-3.88 0.36,-2 0.68,-3.96 0.32,-1.96 0.48,-3.56 z m -9.96,0 0.28,0.44 q -0.36,1.44 -0.92,3.44 -0.56,2 -1.2,4 -0.64,2.04 -1.32,3.52 h -5.44 q 0.4,-1.84 0.76,-3.88 0.36,-2 0.68,-3.96 0.32,-1.96 0.48,-3.56 z"
           id="path8121" /><path
           d="m 113.16,-30.4 v 4.32 q 0,2.44 -0.12,4.12 -0.12,1.68 -0.2,2.56 h 0.36 q 1.08,-1.72 2.6,-2.4 1.52,-0.72 3.48,-0.72 2.2,0 3.96,0.84 1.76,0.84 2.8,2.64 1.08,1.76 1.08,4.64 V 0 h -7.68 v -12.08 q 0,-4.44 -2.64,-4.44 -2.08,0 -2.88,1.76 -0.76,1.76 -0.76,5.04 V 0 h -7.64 v -30.4 z"
           id="path8123" /><path
           d="m 138.76,-22.52 q 4.84,0 7.64,2.52 2.8,2.52 2.8,7.6 V -9 h -13.64 q 0.08,1.72 1.28,2.84 1.24,1.12 3.56,1.12 2.08,0 3.8,-0.4 1.72,-0.4 3.56,-1.28 v 5.48 q -1.6,0.84 -3.52,1.24 -1.88,0.4 -4.76,0.4 -3.36,0 -6,-1.16 -2.6,-1.2 -4.12,-3.72 -1.52,-2.52 -1.52,-6.44 0,-4 1.36,-6.56 1.4,-2.56 3.84,-3.8 2.48,-1.24 5.72,-1.24 z m 0.28,5.2 q -1.36,0 -2.28,0.84 -0.88,0.84 -1.04,2.68 h 6.56 q -0.04,-1.48 -0.88,-2.48 -0.8,-1.04 -2.36,-1.04 z"
           id="path8125" /><path
           d="m 160.24002,-22.52 q 4.2,0 6.56,2.08 2.36,2.08 2.36,5.92 V 0 h -5.28 l -1.48,-2.92 h -0.16 q -0.92,1.16 -1.92,1.92 -0.96,0.72 -2.24,1.04 -1.28,0.36 -3.12,0.36 -2.88,0 -4.8,-1.76 -1.92,-1.76 -1.92,-5.4 0,-3.56 2.44,-5.28 2.48,-1.72 7.16,-1.92 l 3.68,-0.12 v -0.32 q 0,-1.48 -0.72,-2.08 -0.72,-0.64 -1.96,-0.64 -1.32,0 -2.92,0.48 -1.6,0.44 -3.24,1.16 l -2.2,-5.04 q 1.92,-1 4.32,-1.48 2.44,-0.52 5.44,-0.52 z m 1.32,12.64 -1.76,0.08 q -2.08,0.08 -2.96,0.76 -0.84,0.64 -0.84,1.84 0,1.12 0.6,1.68 0.6,0.52 1.6,0.52 1.4,0 2.36,-0.88 1,-0.88 1,-2.28 z"
           id="path8127" /><path
           d="m 177.76001,0.4 q -3.4,0 -5.64,-2.92 -2.2,-2.92 -2.2,-8.52 0,-5.68 2.24,-8.56 2.28,-2.92 5.88,-2.92 2.24,0 3.56,0.92 1.36,0.92 2.24,2.32 h 0.16 q -0.16,-0.84 -0.28,-2.32 -0.08,-1.48 -0.08,-2.88 v -5.92 h 7.68 V 0 h -5.76 l -1.64,-2.8 h -0.28 q -0.8,1.32 -2.2,2.28 -1.4,0.92 -3.68,0.92 z m 3.12,-6.04 q 1.84,0 2.6,-1.16 0.76,-1.16 0.8,-3.56 v -0.6 q 0,-2.6 -0.76,-4 -0.72,-1.4 -2.72,-1.4 -1.36,0 -2.28,1.32 -0.88,1.32 -0.88,4.12 0,2.76 0.88,4.04 0.92,1.24 2.36,1.24 z"
           id="path8129" /><path
           d="m 204.03999,-22.52 q 4.84,0 7.64,2.52 2.8,2.52 2.8,7.6 V -9 h -13.64 q 0.08,1.72 1.28,2.84 1.24,1.12 3.56,1.12 2.08,0 3.8,-0.4 1.72,-0.4 3.56,-1.28 v 5.48 q -1.6,0.84 -3.52,1.24 -1.88,0.4 -4.76,0.4 -3.36,0 -6,-1.16 -2.6,-1.2 -4.12,-3.72 -1.52,-2.52 -1.52,-6.44 0,-4 1.36,-6.56 1.4,-2.56 3.84,-3.8 2.48,-1.24 5.72,-1.24 z m 0.28,5.2 q -1.36,0 -2.28,0.84 -0.88,0.84 -1.04,2.68 h 6.56 q -0.04,-1.48 -0.88,-2.48 -0.8,-1.04 -2.36,-1.04 z"
           id="path8131" /><path
           d="m 228.48001,-22.52 q 0.64,0 1.32,0.08 0.68,0.08 1,0.16 l -0.68,7.2 q -0.4,-0.08 -1,-0.16 -0.56,-0.08 -1.6,-0.08 -0.96,0 -2.08,0.28 -1.08,0.28 -1.88,1.24 -0.8,0.92 -0.8,2.92 V 0 h -7.64 v -22.12 h 5.68 l 1.2,3.52 h 0.36 q 0.92,-1.64 2.56,-2.76 1.68,-1.16 3.56,-1.16 z"
           id="path8133" /><path
           d="m 249.24,-28.52 q -0.36,1.8 -0.76,3.84 -0.36,2.04 -0.68,4 -0.28,1.96 -0.48,3.56 h -6.68 l -0.28,-0.44 q 0.36,-1.44 0.92,-3.44 0.56,-2 1.2,-4 0.68,-2.04 1.32,-3.52 z m -9.96,0 q -0.36,1.8 -0.76,3.84 -0.36,2.04 -0.68,4 -0.28,1.96 -0.48,3.56 h -6.68 l -0.28,-0.44 q 0.36,-1.44 0.92,-3.44 0.56,-2 1.2,-4 0.68,-2.04 1.32,-3.52 z"
           id="path8135" /></g></g><g
       id="g65"
       transform="matrix(4,0,0,4,0,600)"><path
         d="M 0,0 H 465 V 46 H 0 Z"
         style="fill:#d8d8d8;fill-opacity:1;fill-rule:nonzero;stroke:none"
         id="path67" /></g><g
       id="g69"
       transform="matrix(4,0,0,4,595.72986,652)"><g
         aria-label="Activity Menulink"
         transform="translate(0,16)"
         id="text73"
         style="font-size:16px;font-family:SourceSansPro;-inkscape-font-specification:SourceSansPro-Regular;fill:#707070"><path
           d="M 8.72,0 7.344,-3.536 H 2.816 L 1.456,0 H 0 L 4.464,-11.472 H 5.76 L 10.208,0 Z M 6.912,-4.816 5.632,-8.272 Q 5.584,-8.4 5.472,-8.736 5.36,-9.072 5.248,-9.424 5.152,-9.792 5.088,-9.984 4.976,-9.488 4.832,-9.008 4.688,-8.544 4.592,-8.272 l -1.296,3.456 z"
           id="path8040" /><path
           d="m 13.504,0.16 q -1.136,0 -2.032,-0.464 -0.88,-0.464 -1.392,-1.44 -0.4959995,-0.976 -0.4959995,-2.496 0,-1.584 0.5279995,-2.576 0.528,-0.992 1.424,-1.456 0.912,-0.464 2.064,-0.464 0.656,0 1.264,0.144 0.608,0.128 0.992,0.32 l -0.432,1.168 q -0.384,-0.144 -0.896,-0.272 -0.512,-0.128 -0.96,-0.128 -2.528,0 -2.528,3.248 0,1.552 0.608,2.384 0.624,0.816 1.84,0.816 0.704,0 1.232,-0.144 0.544,-0.144 0.992,-0.352 v 1.248 Q 15.28,-0.08 14.752,0.032 14.24,0.16 13.504,0.16 Z"
           id="path8042" /><path
           d="m 20.064,-0.992 q 0.32,0 0.656,-0.048 0.336,-0.064 0.544,-0.128 v 1.072 q -0.224,0.112 -0.64,0.176 -0.416,0.08 -0.8,0.08 -0.672,0 -1.248,-0.224 -0.56,-0.24 -0.912,-0.816 -0.352,-0.576 -0.352,-1.616 V -7.488 H 16.096 V -8.16 l 1.232,-0.56 0.56,-1.824 h 0.832 v 1.968 h 2.48 v 1.088 h -2.48 v 4.96 q 0,0.784 0.368,1.168 0.384,0.368 0.976,0.368 z"
           id="path8044" /><path
           d="m 23.327999,-11.792 q 0.32,0 0.56,0.224 0.256,0.208 0.256,0.672 0,0.448 -0.256,0.672 -0.24,0.224 -0.56,0.224 -0.352,0 -0.592,-0.224 -0.24,-0.224 -0.24,-0.672 0,-0.464 0.24,-0.672 0.24,-0.224 0.592,-0.224 z m 0.688,3.216 V 0 h -1.408 v -8.576 z"
           id="path8046" /><path
           d="m 28.432,0 -3.248,-8.576 h 1.504 l 1.824,5.056 q 0.128,0.352 0.272,0.784 0.144,0.432 0.256,0.832 0.112,0.384 0.16,0.656 h 0.064 q 0.064,-0.272 0.176,-0.672 0.128,-0.4 0.272,-0.832 0.16,-0.432 0.272,-0.768 l 1.824,-5.056 h 1.504 L 30.048,0 Z"
           id="path8048" /><path
           d="m 34.735998,-11.792 q 0.32,0 0.56,0.224 0.256,0.208 0.256,0.672 0,0.448 -0.256,0.672 -0.24,0.224 -0.56,0.224 -0.352,0 -0.592,-0.224 -0.24,-0.224 -0.24,-0.672 0,-0.464 0.24,-0.672 0.24,-0.224 0.592,-0.224 z m 0.688,3.216 V 0 h -1.408 v -8.576 z"
           id="path8050" /><path
           d="m 40.815999,-0.992 q 0.32,0 0.656,-0.048 0.336,-0.064 0.544,-0.128 v 1.072 q -0.224,0.112 -0.64,0.176 -0.416,0.08 -0.8,0.08 -0.672,0 -1.248,-0.224 -0.56,-0.24 -0.912,-0.816 -0.352,-0.576 -0.352,-1.616 v -4.992 h -1.216 V -8.16 l 1.232,-0.56 0.56,-1.824 h 0.832 v 1.968 h 2.48 v 1.088 h -2.48 v 4.96 q 0,0.784 0.368,1.168 0.384,0.368 0.976,0.368 z"
           id="path8052" /><path
           d="m 42.016,-8.576 h 1.504 l 1.856,4.88 q 0.24,0.64 0.432,1.232 0.192,0.576 0.288,1.104 h 0.064 q 0.096,-0.4 0.304,-1.04 0.208,-0.656 0.432,-1.312 l 1.744,-4.864 h 1.52 l -3.696,9.76 Q 46.016,2.4 45.296,3.12 44.592,3.84 43.344,3.84 42.96,3.84 42.672,3.792 42.384,3.76 42.176,3.712 v -1.12 q 0.176,0.032 0.416,0.064 0.256,0.032 0.528,0.032 0.736,0 1.184,-0.416 0.464,-0.416 0.72,-1.104 l 0.448,-1.136 z"
           id="path8054" /><path
           d="m 59.264001,0 -3.76,-10.016 h -0.064 q 0.048,0.496 0.08,1.344 0.032,0.832 0.032,1.744 V 0 h -1.328 v -11.424 h 2.128 l 3.52,9.36 h 0.064 l 3.584,-9.36 h 2.112 V 0 h -1.424 v -7.024 q 0,-0.832 0.032,-1.648 0.048,-0.816 0.08,-1.328 h -0.064 l -3.808,10 z"
           id="path8056" /><path
           d="m 68.976001,-8.736 q 1.104,0 1.888,0.48 0.8,0.48 1.216,1.36 0.432,0.864 0.432,2.032 v 0.848 h -5.872 q 0.032,1.456 0.736,2.224 0.72,0.752 2,0.752 0.816,0 1.44,-0.144 0.64,-0.16 1.312,-0.448 V -0.4 q -0.656,0.288 -1.296,0.416 -0.64,0.144 -1.52,0.144 -1.216,0 -2.16,-0.496 -0.928,-0.496 -1.456,-1.472 -0.512,-0.992 -0.512,-2.416 0,-1.408 0.464,-2.416 0.48,-1.008 1.328,-1.552 0.864,-0.544 2,-0.544 z m -0.016,1.152 q -1.008,0 -1.6,0.656 -0.576,0.64 -0.688,1.792 h 4.368 q -0.016,-1.088 -0.512,-1.76 -0.496,-0.688 -1.568,-0.688 z"
           id="path8058" /><path
           d="m 77.727998,-8.736 q 1.536,0 2.32,0.752 0.784,0.736 0.784,2.4 V 0 h -1.392 v -5.488 q 0,-2.064 -1.92,-2.064 -1.424,0 -1.968,0.8 -0.544,0.8 -0.544,2.304 V 0 h -1.408 v -8.576 h 1.136 l 0.208,1.168 h 0.08 q 0.416,-0.672 1.152,-0.992 0.736,-0.336 1.552,-0.336 z"
           id="path8060" /><path
           d="M 89.519997,-8.576 V 0 h -1.152 l -0.208,-1.136 h -0.064 q -0.416,0.672 -1.152,0.992 -0.736,0.304 -1.568,0.304 -1.552,0 -2.336,-0.736 -0.784,-0.752 -0.784,-2.384 v -5.616 h 1.424 v 5.52 q 0,2.048 1.904,2.048 1.424,0 1.968,-0.8 0.56,-0.8 0.56,-2.304 v -4.464 z"
           id="path8062" /><path
           d="m 92.463999,0 h -1.408 v -12.16 h 1.408 z"
           id="path8064" /><path
           d="m 95.856001,-11.792 q 0.32,0 0.56,0.224 0.256,0.208 0.256,0.672 0,0.448 -0.256,0.672 -0.24,0.224 -0.56,0.224 -0.352,0 -0.592,-0.224 -0.24,-0.224 -0.24,-0.672 0,-0.464 0.24,-0.672 0.24,-0.224 0.592,-0.224 z m 0.688,3.216 V 0 h -1.408 v -8.576 z"
           id="path8066" /><path
           d="m 103.2,-8.736 q 1.536,0 2.32,0.752 0.784,0.736 0.784,2.4 V 0 h -1.392 v -5.488 q 0,-2.064 -1.92,-2.064 -1.424,0 -1.968,0.8 -0.544,0.8 -0.544,2.304 V 0 H 99.071998 V -8.576 H 100.208 l 0.208,1.168 h 0.08 q 0.416,-0.672 1.152,-0.992 0.736,-0.336 1.552,-0.336 z"
           id="path8068" /><path
           d="m 109.216,-12.16 v 6.352 q 0,0.256 -0.032,0.672 -0.016,0.416 -0.032,0.72 h 0.064 q 0.096,-0.128 0.288,-0.368 0.192,-0.24 0.384,-0.48 0.208,-0.256 0.352,-0.416 l 2.736,-2.896 h 1.648 l -3.472,3.664 3.712,4.912 h -1.696 l -2.976,-4 -0.976,0.848 V 0 h -1.392 v -12.16 z"
           id="path8070" /></g></g><g
       id="g75"
       transform="matrix(4,0,0,4,299.72986,-3744)"><path
         d="m 214.9377,1101.8954 13.09868,13.0986 13.09869,-13.0986"
         style="fill:none;stroke:#707070;stroke-width:1;stroke-linecap:butt;stroke-linejoin:miter;stroke-miterlimit:10;stroke-dasharray:none;stroke-opacity:1"
         id="path77" /></g><g
       id="g79"
       transform="matrix(4,0,0,4,-772,632)"><g
         aria-label="Sticky"
         transform="translate(204.45999,20)"
         id="text83"
         style="font-weight:900;font-size:20px;font-family:SourceSansPro;-inkscape-font-specification:SourceSansPro-Black;fill:#ffffff"><path
           d="m 10.88,-4.34 q 0,1.16 -0.6,2.2 Q 9.7,-1.1 8.46,-0.44 7.24,0.2 5.28,0.2 4.3,0.2 3.56,0.1 2.84,0.02 2.2,-0.18 1.56,-0.38 0.88,-0.7 v -3.44 q 1.16,0.58 2.34,0.9 1.18,0.3 2.14,0.3 0.86,0 1.26,-0.3 0.4,-0.3 0.4,-0.76 0,-0.56 -0.6,-0.9 Q 5.84,-5.26 4.44,-5.88 3.38,-6.38 2.6,-6.92 1.82,-7.48 1.4,-8.28 0.98,-9.08 0.98,-10.3 q 0,-1.38 0.68,-2.3 0.68,-0.94 1.88,-1.4 1.22,-0.48 2.82,-0.48 1.4,0 2.52,0.32 1.12,0.3 2,0.7 L 9.7,-10.48 Q 8.78,-10.9 7.88,-11.14 7,-11.4 6.24,-11.4 q -0.74,0 -1.1,0.26 -0.34,0.26 -0.34,0.66 0,0.34 0.26,0.6 0.26,0.26 0.86,0.58 0.62,0.3 1.68,0.78 1.04,0.46 1.76,1.02 0.74,0.54 1.12,1.3 0.4,0.74 0.4,1.86 z"
           id="path8073" /><path
           d="m 17.419993,-2.82 q 0.52,0 0.94,-0.1 0.44,-0.12 0.9,-0.28 v 2.78 q -0.62,0.26 -1.32,0.44 -0.7,0.18 -1.78,0.18 -1.08,0 -1.9,-0.34 -0.8,-0.34 -1.26,-1.16 -0.46,-0.84 -0.46,-2.34 V -8.2 h -1.34 v -1.56 l 1.7,-1.2 0.98,-2.32 h 2.5 v 2.22 h 2.72 v 2.86 h -2.72 v 4.3 q 0,1.08 1.04,1.08 z"
           id="path8075" /><path
           d="m 21.939993,-15.52 q 0.82,0 1.42,0.34 0.62,0.34 0.62,1.36 0,0.98 -0.62,1.34 -0.6,0.34 -1.42,0.34 -0.84,0 -1.44,-0.34 -0.58,-0.36 -0.58,-1.34 0,-1.02 0.58,-1.36 0.6,-0.34 1.44,-0.34 z m 1.9,4.46 V 0 h -3.82 v -11.06 z"
           id="path8077" /><path
           d="m 30.800002,0.2 q -2.52,0 -4.02,-1.36 -1.5,-1.36 -1.5,-4.32 0,-2.02 0.76,-3.28 0.76,-1.28 2.06,-1.88 1.32,-0.62 3,-0.62 1.02,0 1.92,0.22 0.92,0.22 1.7,0.62 l -1.12,2.82 q -0.68,-0.3 -1.28,-0.48 -0.58,-0.18 -1.22,-0.18 -0.86,0 -1.4,0.68 -0.54,0.68 -0.54,2.08 0,1.44 0.54,2.06 0.56,0.6 1.42,0.6 0.82,0 1.64,-0.26 0.84,-0.26 1.58,-0.72 v 3.04 q -0.68,0.44 -1.54,0.72 -0.86,0.26 -2,0.26 z"
           id="path8079" /><path
           d="m 39.040005,-15.2 v 5.98 q 0,0.68 -0.06,1.5 -0.06,0.82 -0.16,1.5 h 0.08 q 0.22,-0.34 0.56,-0.86 0.36,-0.52 0.62,-0.86 l 2.48,-3.12 h 4.26 l -3.84,4.7 4.08,6.36 h -4.36 l -2.42,-3.96 -1.24,0.94 V 0 h -3.84 v -15.2 z"
           id="path8081" /><path
           d="m 45.220005,-11.06 h 4.02 l 1.88,6.34 q 0.06,0.2 0.1,0.54 0.06,0.34 0.08,0.66 h 0.08 q 0.04,-0.4 0.1,-0.68 0.08,-0.3 0.14,-0.5 l 1.92,-6.36 h 3.9 l -4.38,11.76 q -0.5,1.34 -1.18,2.26 -0.66,0.92 -1.64,1.38 -0.98,0.46 -2.44,0.46 -0.52,0 -0.9,-0.06 -0.38,-0.04 -0.66,-0.1 v -3 q 0.22,0.04 0.52,0.08 0.32,0.04 0.66,0.04 0.94,0 1.38,-0.56 0.46,-0.54 0.74,-1.26 l 0.04,-0.1 z"
           id="path8083" /></g></g><g
       id="g85"
       transform="matrix(4,0,0,4,625.07913,1627.1408)"><g
         aria-label="Activity Content"
         id="text89"
         style="font-size:20px;font-family:SourceSansPro;-inkscape-font-specification:SourceSansPro-Regular;fill:#707070"><path
           d="m 10.71229,19.622799 -1.72,-4.42 h -5.66 l -1.7,4.42 H -0.18770999 L 5.39229,5.2827989 h 1.62 l 5.56,14.3400001 z m -2.26,-6.02 -1.6,-4.3200001 q -0.06,-0.16 -0.2,-0.58 -0.14,-0.42 -0.28,-0.86 -0.12,-0.46 -0.2,-0.7 -0.14,0.62 -0.32,1.22 -0.18,0.58 -0.3,0.92 l -1.62,4.3200001 z"
           id="path8009" /><path
           d="m 18.592289,19.822799 q -1.42,0 -2.54,-0.58 -1.1,-0.58 -1.74,-1.8 -0.62,-1.22 -0.62,-3.12 0,-1.98 0.66,-3.22 0.66,-1.2400001 1.78,-1.8200001 1.14,-0.58 2.58,-0.58 0.82,0 1.58,0.18 0.76,0.16 1.24,0.4 l -0.54,1.4600001 q -0.48,-0.18 -1.12,-0.34 -0.64,-0.16 -1.2,-0.16 -3.16,0 -3.16,4.06 0,1.94 0.76,2.98 0.78,1.02 2.3,1.02 0.88,0 1.54,-0.18 0.68,-0.18 1.24,-0.44 v 1.56 q -0.54,0.28 -1.2,0.42 -0.64,0.16 -1.56,0.16 z"
           id="path8011" /><path
           d="m 27.47228,18.382799 q 0.4,0 0.82,-0.06 0.42,-0.08 0.68,-0.16 v 1.34 q -0.28,0.14 -0.8,0.22 -0.52,0.1 -1,0.1 -0.84,0 -1.56,-0.28 -0.7,-0.3 -1.14,-1.02 -0.44,-0.72 -0.44,-2.02 v -6.24 h -1.52 V 9.4227989 l 1.54,-0.7 0.7,-2.28 h 1.04 v 2.46 h 3.1 v 1.3600001 h -3.1 v 6.2 q 0,0.98 0.46,1.46 0.48,0.46 1.22,0.46 z"
           id="path8013" /><path
           d="m 32.012243,4.8827989 q 0.4,0 0.7,0.28 0.32,0.26 0.32,0.84 0,0.56 -0.32,0.84 -0.3,0.28 -0.7,0.28 -0.44,0 -0.74,-0.28 -0.3,-0.28 -0.3,-0.84 0,-0.58 0.3,-0.84 0.3,-0.28 0.74,-0.28 z m 0.86,4.02 V 19.622799 h -1.76 V 8.9027989 Z"
           id="path8015" /><path
           d="m 38.632231,19.622799 -4.06,-10.7200001 h 1.88 l 2.28,6.3200001 q 0.16,0.44 0.34,0.98 0.18,0.54 0.32,1.04 0.14,0.48 0.2,0.82 h 0.08 q 0.08,-0.34 0.22,-0.84 0.16,-0.5 0.34,-1.04 0.2,-0.54 0.34,-0.96 l 2.28,-6.3200001 h 1.88 l -4.08,10.7200001 z"
           id="path8017" /><path
           d="m 47.33222,4.8827989 q 0.4,0 0.7,0.28 0.32,0.26 0.32,0.84 0,0.56 -0.32,0.84 -0.3,0.28 -0.7,0.28 -0.44,0 -0.74,-0.28 -0.3,-0.28 -0.3,-0.84 0,-0.58 0.3,-0.84 0.3,-0.28 0.74,-0.28 z m 0.86,4.02 V 19.622799 h -1.76 V 8.9027989 Z"
           id="path8019" /><path
           d="m 55.172208,18.382799 q 0.4,0 0.82,-0.06 0.42,-0.08 0.68,-0.16 v 1.34 q -0.28,0.14 -0.8,0.22 -0.52,0.1 -1,0.1 -0.84,0 -1.56,-0.28 -0.7,-0.3 -1.14,-1.02 -0.44,-0.72 -0.44,-2.02 v -6.24 h -1.52 V 9.4227989 l 1.54,-0.7 0.7,-2.28 h 1.04 v 2.46 h 3.1 v 1.3600001 h -3.1 v 6.2 q 0,0.98 0.46,1.46 0.48,0.46 1.22,0.46 z"
           id="path8021" /><path
           d="m 57.132171,8.9027989 h 1.88 l 2.32,6.1000001 q 0.3,0.8 0.54,1.54 0.24,0.72 0.36,1.38 h 0.08 q 0.12,-0.5 0.38,-1.3 0.26,-0.82 0.54,-1.64 l 2.18,-6.0800001 h 1.9 l -4.62,12.2000001 q -0.56,1.52 -1.46,2.42 -0.88,0.9 -2.44,0.9 -0.48,0 -0.84,-0.06 -0.36,-0.04 -0.62,-0.1 v -1.4 q 0.22,0.04 0.52,0.08 0.32,0.04 0.66,0.04 0.92,0 1.48,-0.52 0.58,-0.52 0.9,-1.38 l 0.56,-1.42 z"
           id="path8023" /><path
           d="m 80.572104,6.7227989 q -2.3,0 -3.62,1.54 -1.32,1.54 -1.32,4.2200001 0,2.66 1.22,4.22 1.24,1.54 3.7,1.54 0.94,0 1.78,-0.16 0.84,-0.16 1.64,-0.4 v 1.56 q -0.8,0.3 -1.66,0.44 -0.84,0.14 -2.02,0.14 -2.18,0 -3.64,-0.9 -1.46,-0.9 -2.2,-2.56 -0.72,-1.66 -0.72,-3.9 0,-2.16 0.78,-3.8000001 0.8,-1.66 2.34,-2.58 1.54,-0.94 3.74,-0.94 2.26,0 3.94,0.84 l -0.72,1.52 q -0.66,-0.3 -1.48,-0.54 -0.8,-0.24 -1.76,-0.24 z"
           id="path8025" /><path
           d="m 96.172103,14.242799 q 0,2.66 -1.36,4.12 -1.34,1.46 -3.64,1.46 -1.42,0 -2.54,-0.64 -1.1,-0.66 -1.74,-1.9 -0.64,-1.26 -0.64,-3.04 0,-2.66 1.34,-4.1 1.34,-1.4400001 3.64,-1.4400001 1.46,0 2.56,0.66 1.12,0.6400001 1.74,1.8800001 0.64,1.22 0.64,3 z m -8.1,0 q 0,1.9 0.74,3.02 0.76,1.1 2.4,1.1 1.62,0 2.38,-1.1 0.76,-1.12 0.76,-3.02 0,-1.9 -0.76,-2.98 -0.76,-1.08 -2.4,-1.08 -1.64,0 -2.38,1.08 -0.74,1.08 -0.74,2.98 z"
           id="path8027" /><path
           d="m 104.11209,8.7027989 q 1.92,0 2.9,0.94 0.98,0.9200001 0.98,3.0000001 v 6.98 h -1.74 v -6.86 q 0,-2.58 -2.4,-2.58 -1.78,0 -2.46,1 -0.68,1 -0.68,2.88 v 5.56 H 98.952094 V 8.9027989 h 1.419996 l 0.26,1.4600001 h 0.1 q 0.52,-0.8400001 1.44,-1.2400001 0.92,-0.42 1.94,-0.42 z"
           id="path8029" /><path
           d="m 114.89206,18.382799 q 0.4,0 0.82,-0.06 0.42,-0.08 0.68,-0.16 v 1.34 q -0.28,0.14 -0.8,0.22 -0.52,0.1 -1,0.1 -0.84,0 -1.56,-0.28 -0.7,-0.3 -1.14,-1.02 -0.44,-0.72 -0.44,-2.02 v -6.24 h -1.52 V 9.4227989 l 1.54,-0.7 0.7,-2.28 h 1.04 v 2.46 h 3.1 v 1.3600001 h -3.1 v 6.2 q 0,0.98 0.46,1.46 0.48,0.46 1.22,0.46 z"
           id="path8031" /><path
           d="m 122.67202,8.7027989 q 1.38,0 2.36,0.6 1,0.6 1.52,1.7000001 0.54,1.08 0.54,2.54 v 1.06 h -7.34 q 0.04,1.82 0.92,2.78 0.9,0.94 2.5,0.94 1.02,0 1.8,-0.18 0.8,-0.2 1.64,-0.56 v 1.54 q -0.82,0.36 -1.62,0.52 -0.8,0.18 -1.9,0.18 -1.52,0 -2.7,-0.62 -1.16,-0.62 -1.82,-1.84 -0.64,-1.24 -0.64,-3.02 0,-1.76 0.58,-3.02 0.6,-1.26 1.66,-1.9400001 1.08,-0.68 2.5,-0.68 z m -0.02,1.4400001 q -1.26,0 -2,0.82 -0.72,0.8 -0.86,2.24 h 5.46 q -0.02,-1.36 -0.64,-2.2 -0.62,-0.86 -1.96,-0.86 z"
           id="path8033" /><path
           d="m 134.972,8.7027989 q 1.92,0 2.9,0.94 0.98,0.9200001 0.98,3.0000001 v 6.98 h -1.74 v -6.86 q 0,-2.58 -2.4,-2.58 -1.78,0 -2.46,1 -0.68,1 -0.68,2.88 v 5.56 h -1.76 V 8.9027989 h 1.42 l 0.26,1.4600001 h 0.1 q 0.52,-0.8400001 1.44,-1.2400001 0.92,-0.42 1.94,-0.42 z"
           id="path8035" /><path
           d="m 145.75196,18.382799 q 0.4,0 0.82,-0.06 0.42,-0.08 0.68,-0.16 v 1.34 q -0.28,0.14 -0.8,0.22 -0.52,0.1 -1,0.1 -0.84,0 -1.56,-0.28 -0.7,-0.3 -1.14,-1.02 -0.44,-0.72 -0.44,-2.02 v -6.24 h -1.52 V 9.4227989 l 1.54,-0.7 0.7,-2.28 h 1.04 v 2.46 h 3.1 v 1.3600001 h -3.1 v 6.2 q 0,0.98 0.46,1.46 0.48,0.46 1.22,0.46 z"
           id="path8037" /></g></g><g
       id="g129"
       transform="matrix(4,0,0,4,72,1728)"><text
         transform="translate(41.384003,16)"
         style="font-variant:normal;font-weight:normal;font-size:16px;font-family:SourceSansPro;-inkscape-font-specification:SourceSansPro-Regular;writing-mode:lr-tb;fill:#ffffff;fill-opacity:1;fill-rule:nonzero;stroke:none"
         id="text133"><tspan
           x="0 9.1360016 17.200001 21.279999 25.360001 28.559998 33.744003 42.416 45.615997 54.32 61.456001 66.863998 70.800003 79.472 88.223999 91.424011 100.832 109.53601 114.62399 119.808 128.48"
           y="0"
           sodipodi:role="line"
           id="tspan131">Call to Action Button</tspan></text></g></g></svg>
