<?xml version="1.0" encoding="UTF-8"?>
<svg id="Ebene_1" data-name="Ebene 1" xmlns="http://www.w3.org/2000/svg" xmlns:xlink="http://www.w3.org/1999/xlink" viewBox="0 0 465 791">
  <defs>
    <clipPath id="clippath">
      <rect width="465" height="791" style="fill: none;"/>
    </clipPath>
    <clipPath id="clippath-1">
      <rect width="465" height="791" style="fill: none;"/>
    </clipPath>
  </defs>
  <g style="clip-path: url(#clippath);">
    <rect width="465" height="791" style="fill: #fff;"/>
    <g style="clip-path: url(#clippath-1);">
      <rect y="737" width="465" height="54" style="fill: #ebebeb;"/>
      <rect x="183" y="745" width="280" height="38" style="fill: #fff;"/>
      <path d="M11.5,775.36c-.96,0-1.98-.19-3.04-.57-1.07-.38-2-.89-2.78-1.53l2.28-3.18c1.36,1,2.58,1.5,3.66,1.5,.54,0,.92-.08,1.15-.22,.23-.15,.35-.38,.35-.68,0-.2-.08-.38-.24-.52-.16-.15-.38-.29-.65-.42-.27-.13-.58-.25-.92-.38s-.7-.26-1.08-.42c-.44-.18-.88-.4-1.33-.65-.45-.25-.85-.55-1.21-.92-.36-.36-.66-.77-.88-1.25-.23-.47-.34-1.01-.34-1.63,0-.74,.14-1.41,.43-2.01,.29-.6,.69-1.11,1.21-1.53s1.14-.75,1.88-.97c.73-.23,1.54-.35,2.42-.35,1.24,0,2.3,.21,3.2,.62,.89,.41,1.67,.87,2.33,1.37l-2.28,3.06c-.54-.4-1.07-.71-1.59-.93-.52-.22-1.01-.33-1.47-.33-.88,0-1.32,.28-1.32,.84,0,.2,.08,.37,.22,.51,.15,.14,.36,.27,.62,.39s.56,.24,.9,.34c.34,.11,.7,.24,1.08,.38,.44,.16,.89,.36,1.35,.6,.46,.24,.88,.54,1.25,.88s.67,.77,.9,1.26c.23,.49,.35,1.08,.35,1.75s-.14,1.36-.42,1.96c-.28,.61-.69,1.14-1.23,1.59-.54,.45-1.21,.8-2.01,1.05-.8,.25-1.72,.38-2.76,.38Z" style="fill: #707070;"/>
      <path d="M25.06,775.36c-.88,0-1.62-.14-2.21-.41-.59-.27-1.07-.66-1.42-1.16-.36-.5-.62-1.09-.77-1.79-.15-.69-.22-1.46-.22-2.29v-15.6h5.16v15.78c0,.52,.09,.87,.28,1.05,.19,.18,.38,.27,.56,.27h.25c.07,0,.17-.02,.29-.06l.6,3.78c-.28,.12-.62,.22-1.04,.3-.41,.08-.91,.12-1.48,.12Z" style="fill: #707070;"/>
      <path d="M36.04,775.36c-.96,0-1.89-.18-2.79-.53-.9-.35-1.7-.86-2.39-1.53-.69-.67-1.24-1.49-1.65-2.47-.41-.98-.62-2.09-.62-3.33s.21-2.35,.62-3.33c.41-.98,.96-1.8,1.65-2.47,.69-.67,1.49-1.18,2.39-1.53,.9-.35,1.83-.53,2.79-.53s1.88,.18,2.77,.53c.89,.35,1.68,.86,2.37,1.53,.69,.67,1.25,1.5,1.67,2.47,.42,.98,.63,2.09,.63,3.33s-.21,2.35-.63,3.33c-.42,.98-.97,1.8-1.67,2.47-.69,.67-1.48,1.18-2.37,1.53s-1.81,.53-2.77,.53Zm0-4.14c.78,0,1.33-.33,1.67-1,.33-.67,.49-1.58,.49-2.71s-.17-2.04-.49-2.71c-.33-.67-.89-1-1.67-1s-1.33,.33-1.67,1-.5,1.58-.5,2.71,.17,2.04,.5,2.71c.33,.67,.88,1,1.67,1Z" style="fill: #707070;"/>
      <g>
        <path d="M51.46,775.36c-.98,0-1.81-.15-2.5-.44-.69-.29-1.26-.71-1.71-1.25s-.78-1.18-.99-1.93-.31-1.58-.31-2.5v-5.22h-1.98v-3.84l2.28-.18,.6-3.9h4.26v3.9h3.42v4.02h-3.42v5.13c0,.84,.18,1.42,.54,1.72,.36,.31,.78,.46,1.26,.46,.24,0,.47-.02,.71-.08,.23-.05,.43-.1,.61-.17l.78,3.72c-.4,.12-.88,.24-1.44,.36-.56,.12-1.26,.18-2.1,.18Z" style="fill: #707070;"/>
        <path d="M64.84,780.31l-1.08-2.22c.96-.42,1.68-.93,2.16-1.54,.48-.61,.72-1.37,.72-2.26-.06,.02-.16,.03-.3,.03-.72,0-1.33-.22-1.83-.66-.5-.44-.75-1.04-.75-1.8,0-.84,.24-1.51,.72-2.01,.48-.5,1.1-.75,1.86-.75,1.06,0,1.86,.39,2.38,1.16,.53,.77,.8,1.84,.8,3.22,0,1.5-.38,2.83-1.14,3.98-.76,1.15-1.94,2.1-3.54,2.86Zm7.8,0l-1.08-2.22c.96-.42,1.68-.93,2.16-1.54,.48-.61,.72-1.37,.72-2.26-.06,.02-.16,.03-.3,.03-.72,0-1.33-.22-1.83-.66-.5-.44-.75-1.04-.75-1.8,0-.84,.24-1.51,.72-2.01,.48-.5,1.1-.75,1.86-.75,1.06,0,1.86,.39,2.39,1.16,.53,.77,.79,1.84,.79,3.22,0,1.5-.38,2.83-1.14,3.98-.76,1.15-1.94,2.1-3.54,2.86Z" style="fill: #707070;"/>
      </g>
      <path d="M81.58,775v-10.98h-1.98v-3.84l1.98-.15v-.21c0-.8,.1-1.57,.3-2.29,.2-.73,.53-1.38,1-1.94,.47-.56,1.08-1,1.83-1.33s1.68-.5,2.8-.5c.7,0,1.32,.06,1.86,.18,.54,.12,.98,.24,1.32,.36l-.9,3.78c-.24-.1-.49-.17-.75-.22-.26-.05-.51-.08-.75-.08-.48,0-.86,.13-1.14,.4-.28,.27-.42,.76-.42,1.46v.36h2.52v4.02h-2.52v10.98h-5.16Z" style="fill: #707070;"/>
      <path d="M97.84,775.36c-.96,0-1.89-.18-2.79-.53-.9-.35-1.7-.86-2.39-1.53-.69-.67-1.24-1.49-1.65-2.47-.41-.98-.62-2.09-.62-3.33s.21-2.35,.62-3.33c.41-.98,.96-1.8,1.65-2.47,.69-.67,1.49-1.18,2.39-1.53,.9-.35,1.83-.53,2.79-.53s1.88,.18,2.77,.53c.89,.35,1.68,.86,2.37,1.53,.69,.67,1.25,1.5,1.67,2.47,.42,.98,.63,2.09,.63,3.33s-.21,2.35-.63,3.33c-.42,.98-.97,1.8-1.67,2.47-.69,.67-1.48,1.18-2.37,1.53s-1.81,.53-2.77,.53Zm0-4.14c.78,0,1.33-.33,1.67-1,.33-.67,.49-1.58,.49-2.71s-.17-2.04-.49-2.71c-.33-.67-.89-1-1.67-1s-1.33,.33-1.67,1-.5,1.58-.5,2.71,.17,2.04,.5,2.71c.33,.67,.88,1,1.67,1Z" style="fill: #707070;"/>
      <path d="M114.64,775.36c-.96,0-1.89-.18-2.79-.53-.9-.35-1.7-.86-2.39-1.53-.69-.67-1.24-1.49-1.65-2.47-.41-.98-.62-2.09-.62-3.33s.21-2.35,.62-3.33c.41-.98,.96-1.8,1.65-2.47,.69-.67,1.49-1.18,2.39-1.53,.9-.35,1.83-.53,2.79-.53s1.88,.18,2.77,.53c.89,.35,1.68,.86,2.37,1.53,.69,.67,1.25,1.5,1.67,2.47,.42,.98,.63,2.09,.63,3.33s-.21,2.35-.63,3.33c-.42,.98-.97,1.8-1.67,2.47-.69,.67-1.48,1.18-2.37,1.53s-1.81,.53-2.77,.53Zm0-4.14c.78,0,1.33-.33,1.67-1,.33-.67,.49-1.58,.49-2.71s-.17-2.04-.49-2.71c-.33-.67-.89-1-1.67-1s-1.33,.33-1.67,1-.5,1.58-.5,2.71,.17,2.04,.5,2.71c.33,.67,.88,1,1.67,1Z" style="fill: #707070;"/>
      <path d="M130.06,775.36c-.98,0-1.81-.15-2.5-.44-.69-.29-1.26-.71-1.71-1.25s-.78-1.18-.99-1.93-.31-1.58-.31-2.5v-5.22h-1.98v-3.84l2.28-.18,.6-3.9h4.26v3.9h3.42v4.02h-3.42v5.13c0,.84,.18,1.42,.54,1.72,.36,.31,.78,.46,1.26,.46,.24,0,.47-.02,.71-.08,.23-.05,.43-.1,.61-.17l.78,3.72c-.4,.12-.88,.24-1.44,.36-.56,.12-1.26,.18-2.1,.18Z" style="fill: #707070;"/>
      <path d="M142.24,775.36c-1.1,0-2.12-.18-3.06-.53s-1.75-.86-2.44-1.53c-.69-.67-1.24-1.49-1.64-2.47-.4-.98-.6-2.09-.6-3.33s.21-2.31,.62-3.29c.41-.97,.95-1.79,1.62-2.47,.67-.68,1.43-1.2,2.29-1.56,.86-.36,1.75-.54,2.67-.54,1.1,0,2.06,.19,2.88,.57,.82,.38,1.5,.9,2.04,1.56,.54,.66,.95,1.43,1.21,2.31,.27,.88,.41,1.82,.41,2.82,0,.46-.03,.89-.08,1.29-.05,.4-.09,.69-.13,.87h-8.55c.24,.9,.67,1.53,1.29,1.88,.62,.35,1.35,.53,2.19,.53,.52,0,1.02-.08,1.51-.22,.49-.15,1.01-.38,1.55-.68l1.68,3.06c-.82,.58-1.73,1.02-2.71,1.3-.99,.29-1.91,.44-2.75,.44Zm-2.82-9.66h4.44c0-.58-.15-1.08-.44-1.52-.29-.43-.83-.64-1.6-.64-.58,0-1.08,.17-1.52,.51-.43,.34-.72,.89-.88,1.65Z" style="fill: #707070;"/>
      <path d="M151.06,775v-15h4.2l.36,2.58h.12c.56-1.02,1.22-1.76,2-2.24,.77-.47,1.52-.71,2.26-.71,.46,0,.83,.03,1.11,.08,.28,.05,.53,.12,.75,.23l-.84,4.44c-.28-.06-.54-.11-.79-.17-.25-.05-.55-.08-.89-.08-.54,0-1.1,.19-1.69,.56-.59,.37-1.07,1.02-1.42,1.96v8.34h-5.16Z" style="fill: #707070;"/>
      <path d="M167.26,765.88c-1.06,0-1.86-.38-2.38-1.16-.53-.77-.79-1.84-.79-3.22,0-1.5,.38-2.82,1.14-3.97s1.94-2.11,3.54-2.87l1.08,2.22c-.96,.42-1.68,.94-2.16,1.54-.48,.61-.72,1.37-.72,2.27,.06-.02,.16-.03,.3-.03,.72,0,1.33,.22,1.83,.66,.5,.44,.75,1.04,.75,1.8,0,.84-.24,1.51-.72,2.01-.48,.5-1.1,.75-1.86,.75Zm7.8,0c-1.06,0-1.85-.38-2.38-1.16-.53-.77-.79-1.84-.79-3.22,0-1.5,.38-2.82,1.14-3.97,.76-1.15,1.94-2.11,3.54-2.87l1.08,2.22c-.96,.42-1.68,.94-2.16,1.54-.48,.61-.72,1.37-.72,2.27,.06-.02,.16-.03,.3-.03,.72,0,1.33,.22,1.83,.66,.5,.44,.75,1.04,.75,1.8,0,.84-.24,1.51-.72,2.01-.48,.5-1.1,.75-1.86,.75Z" style="fill: #707070;"/>
      <path d="M289.14,772.24c-.69,0-1.35-.13-1.98-.38-.63-.25-1.17-.57-1.64-.96l.82-1.1c.43,.35,.86,.63,1.31,.84,.45,.21,.96,.32,1.55,.32,.64,0,1.12-.15,1.44-.44,.32-.29,.48-.65,.48-1.08,0-.25-.07-.47-.2-.66-.13-.19-.3-.35-.51-.49-.21-.14-.44-.26-.71-.37-.27-.11-.53-.21-.8-.32-.35-.12-.69-.26-1.04-.41-.35-.15-.66-.34-.93-.56s-.5-.48-.67-.77c-.17-.29-.26-.65-.26-1.06,0-.39,.08-.75,.23-1.09s.37-.63,.66-.88c.29-.25,.64-.44,1.05-.58,.41-.14,.88-.21,1.4-.21,.61,0,1.18,.11,1.69,.32,.51,.21,.96,.47,1.33,.78l-.78,1.04c-.33-.25-.68-.46-1.04-.62-.36-.16-.75-.24-1.18-.24-.61,0-1.06,.14-1.35,.42-.29,.28-.43,.61-.43,.98,0,.23,.06,.42,.18,.59,.12,.17,.28,.31,.48,.44s.43,.24,.69,.34c.26,.1,.53,.2,.81,.31,.35,.13,.7,.27,1.05,.42s.67,.33,.95,.55c.28,.22,.51,.49,.69,.81,.18,.32,.27,.71,.27,1.16,0,.4-.08,.77-.23,1.12s-.38,.65-.68,.92-.67,.48-1.12,.63c-.45,.15-.96,.23-1.53,.23Z" style="fill: #707070;"/>
      <path d="M296.72,772.24c-.63,0-1.07-.19-1.34-.56s-.4-.92-.4-1.64v-12.28h1.64v12.4c0,.27,.05,.45,.14,.56,.09,.11,.2,.16,.32,.16h.15s.12-.01,.21-.04l.22,1.24c-.11,.05-.23,.09-.38,.12-.15,.03-.33,.04-.56,.04Z" style="fill: #707070;"/>
      <path d="M303.86,772.24c-.6,0-1.17-.11-1.71-.34s-1.02-.56-1.43-.99c-.41-.43-.74-.97-.99-1.6-.25-.63-.37-1.35-.37-2.15s.12-1.54,.37-2.17c.25-.63,.58-1.17,.99-1.61,.41-.44,.89-.77,1.43-1s1.11-.34,1.71-.34,1.17,.11,1.71,.34,1.02,.56,1.43,1c.41,.44,.74,.98,.99,1.61,.25,.63,.37,1.36,.37,2.17s-.12,1.52-.37,2.15c-.25,.63-.58,1.17-.99,1.6s-.89,.76-1.43,.99-1.11,.34-1.71,.34Zm0-1.36c.41,0,.79-.09,1.14-.27,.35-.18,.64-.43,.89-.76,.25-.33,.44-.72,.57-1.17,.13-.45,.2-.96,.2-1.52s-.07-1.07-.2-1.53c-.13-.46-.32-.86-.57-1.19-.25-.33-.54-.59-.89-.77s-.73-.27-1.14-.27-.79,.09-1.14,.27-.64,.44-.89,.77c-.25,.33-.44,.73-.57,1.19-.13,.46-.2,.97-.2,1.53s.07,1.07,.2,1.52c.13,.45,.32,.84,.57,1.17,.25,.33,.54,.58,.89,.76,.35,.18,.73,.27,1.14,.27Z" style="fill: #707070;"/>
      <path d="M313.64,772.24c-.52,0-.96-.08-1.31-.24s-.64-.38-.86-.66c-.22-.28-.38-.62-.47-1.02-.09-.4-.14-.84-.14-1.32v-5.38h-1.44v-1.24l1.52-.1,.2-2.72h1.38v2.72h2.62v1.34h-2.62v5.4c0,.6,.11,1.06,.33,1.39s.61,.49,1.17,.49c.17,0,.36-.03,.56-.08,.2-.05,.38-.11,.54-.18l.32,1.24c-.27,.09-.56,.18-.87,.25s-.62,.11-.93,.11Z" style="fill: #707070;"/>
      <g>
        <path d="M321.42,774.88l-.46-.76c.51-.33,.88-.69,1.13-1.07,.25-.38,.37-.86,.37-1.43-.04,.01-.09,.02-.16,.02-.28,0-.53-.09-.74-.26-.21-.17-.32-.42-.32-.74,0-.35,.1-.62,.3-.82,.2-.2,.45-.3,.76-.3,.39,0,.69,.16,.92,.47s.34,.76,.34,1.35c0,.8-.18,1.49-.55,2.07-.37,.58-.9,1.07-1.59,1.47Zm3.52,0l-.46-.76c.51-.33,.88-.69,1.13-1.07,.25-.38,.37-.86,.37-1.43-.04,.01-.09,.02-.16,.02-.28,0-.53-.09-.74-.26-.21-.17-.32-.42-.32-.74,0-.35,.1-.62,.3-.82,.2-.2,.45-.3,.76-.3,.39,0,.69,.16,.92,.47s.34,.76,.34,1.35c0,.8-.18,1.49-.55,2.07-.37,.58-.9,1.07-1.59,1.47Z" style="fill: #707070;"/>
        <path d="M330.12,772v-8.38h-1.32v-1.24l1.32-.1v-1.54c0-1,.23-1.79,.69-2.36s1.18-.86,2.15-.86c.31,0,.6,.03,.87,.09,.27,.06,.52,.14,.75,.23l-.36,1.26c-.36-.16-.73-.24-1.1-.24-.91,0-1.36,.63-1.36,1.88v1.54h2.06v1.34h-2.06v8.38h-1.64Z" style="fill: #707070;"/>
      </g>
      <path d="M339.26,772.24c-.6,0-1.17-.11-1.71-.34s-1.02-.56-1.43-.99c-.41-.43-.74-.97-.99-1.6-.25-.63-.37-1.35-.37-2.15s.12-1.54,.37-2.17c.25-.63,.58-1.17,.99-1.61,.41-.44,.89-.77,1.43-1s1.11-.34,1.71-.34,1.17,.11,1.71,.34,1.02,.56,1.43,1c.41,.44,.74,.98,.99,1.61,.25,.63,.37,1.36,.37,2.17s-.12,1.52-.37,2.15c-.25,.63-.58,1.17-.99,1.6s-.89,.76-1.43,.99-1.11,.34-1.71,.34Zm0-1.36c.41,0,.79-.09,1.14-.27,.35-.18,.64-.43,.89-.76,.25-.33,.44-.72,.57-1.17,.13-.45,.2-.96,.2-1.52s-.07-1.07-.2-1.53c-.13-.46-.32-.86-.57-1.19-.25-.33-.54-.59-.89-.77s-.73-.27-1.14-.27-.79,.09-1.14,.27-.64,.44-.89,.77c-.25,.33-.44,.73-.57,1.19-.13,.46-.2,.97-.2,1.53s.07,1.07,.2,1.52c.13,.45,.32,.84,.57,1.17,.25,.33,.54,.58,.89,.76,.35,.18,.73,.27,1.14,.27Z" style="fill: #707070;"/>
      <path d="M350.1,772.24c-.6,0-1.17-.11-1.71-.34s-1.02-.56-1.43-.99c-.41-.43-.74-.97-.99-1.6-.25-.63-.37-1.35-.37-2.15s.12-1.54,.37-2.17c.25-.63,.58-1.17,.99-1.61,.41-.44,.89-.77,1.43-1s1.11-.34,1.71-.34,1.17,.11,1.71,.34,1.02,.56,1.43,1c.41,.44,.74,.98,.99,1.61,.25,.63,.37,1.36,.37,2.17s-.12,1.52-.37,2.15c-.25,.63-.58,1.17-.99,1.6s-.89,.76-1.43,.99-1.11,.34-1.71,.34Zm0-1.36c.41,0,.79-.09,1.14-.27,.35-.18,.64-.43,.89-.76,.25-.33,.44-.72,.57-1.17,.13-.45,.2-.96,.2-1.52s-.07-1.07-.2-1.53c-.13-.46-.32-.86-.57-1.19-.25-.33-.54-.59-.89-.77s-.73-.27-1.14-.27-.79,.09-1.14,.27-.64,.44-.89,.77c-.25,.33-.44,.73-.57,1.19-.13,.46-.2,.97-.2,1.53s.07,1.07,.2,1.52c.13,.45,.32,.84,.57,1.17,.25,.33,.54,.58,.89,.76,.35,.18,.73,.27,1.14,.27Z" style="fill: #707070;"/>
      <path d="M359.88,772.24c-.52,0-.96-.08-1.31-.24s-.64-.38-.86-.66c-.22-.28-.38-.62-.47-1.02-.09-.4-.14-.84-.14-1.32v-5.38h-1.44v-1.24l1.52-.1,.2-2.72h1.38v2.72h2.62v1.34h-2.62v5.4c0,.6,.11,1.06,.33,1.39s.61,.49,1.17,.49c.17,0,.36-.03,.56-.08,.2-.05,.38-.11,.54-.18l.32,1.24c-.27,.09-.56,.18-.87,.25s-.62,.11-.93,.11Z" style="fill: #707070;"/>
      <path d="M367.24,772.24c-.65,0-1.26-.12-1.83-.35-.57-.23-1.06-.57-1.48-1-.42-.43-.75-.96-.99-1.59-.24-.63-.36-1.34-.36-2.14s.12-1.52,.37-2.15c.25-.63,.57-1.17,.98-1.61,.41-.44,.87-.78,1.39-1.01,.52-.23,1.06-.35,1.62-.35,.61,0,1.16,.11,1.65,.32,.49,.21,.89,.52,1.22,.92,.33,.4,.58,.88,.75,1.44,.17,.56,.26,1.19,.26,1.88,0,.17,0,.34,0,.51,0,.17-.02,.31-.05,.43h-6.56c.07,1.04,.39,1.86,.97,2.47,.58,.61,1.34,.91,2.27,.91,.47,0,.9-.07,1.29-.21,.39-.14,.77-.32,1.13-.55l.58,1.08c-.43,.27-.9,.5-1.42,.7-.52,.2-1.11,.3-1.78,.3Zm-3.06-5.88h5.2c0-.99-.21-1.74-.63-2.25-.42-.51-1.01-.77-1.77-.77-.35,0-.68,.07-.99,.2-.31,.13-.6,.33-.85,.59-.25,.26-.46,.58-.63,.95-.17,.37-.28,.8-.33,1.28Z" style="fill: #707070;"/>
      <path d="M373.22,772v-9.72h1.36l.14,1.76h.06c.33-.61,.74-1.1,1.21-1.46,.47-.36,.99-.54,1.55-.54,.39,0,.73,.07,1.04,.2l-.32,1.44c-.16-.05-.31-.09-.44-.12-.13-.03-.3-.04-.5-.04-.41,0-.84,.17-1.29,.5-.45,.33-.84,.91-1.17,1.74v6.24h-1.64Z" style="fill: #707070;"/>
      <path d="M378.86,767.62v-1.26h4.6v1.26h-4.6Z" style="fill: #707070;"/>
      <path d="M387.64,772.24c-.63,0-1.07-.19-1.34-.56s-.4-.92-.4-1.64v-12.28h1.64v12.4c0,.27,.05,.45,.14,.56,.09,.11,.2,.16,.32,.16h.15s.12-.01,.21-.04l.22,1.24c-.11,.05-.23,.09-.38,.12-.15,.03-.33,.04-.56,.04Z" style="fill: #707070;"/>
      <path d="M391.84,760.28c-.32,0-.59-.1-.81-.3-.22-.2-.33-.45-.33-.76s.11-.58,.33-.77,.49-.29,.81-.29,.59,.1,.81,.29,.33,.45,.33,.77-.11,.56-.33,.76c-.22,.2-.49,.3-.81,.3Zm-.84,11.72v-9.72h1.64v9.72h-1.64Z" style="fill: #707070;"/>
      <path d="M395.92,772v-9.72h1.36l.14,1.4h.06c.47-.47,.96-.86,1.47-1.17,.51-.31,1.11-.47,1.79-.47,1.03,0,1.78,.32,2.25,.96s.71,1.59,.71,2.84v6.16h-1.64v-5.94c0-.92-.15-1.58-.44-1.99-.29-.41-.76-.61-1.4-.61-.51,0-.95,.13-1.34,.38-.39,.25-.83,.63-1.32,1.12v7.04h-1.64Z" style="fill: #707070;"/>
      <path d="M406.86,772v-14.24h1.62v9.64h.06l4.14-5.12h1.82l-3.26,3.9,3.7,5.82h-1.8l-2.84-4.68-1.82,2.12v2.56h-1.62Z" style="fill: #707070;"/>
      <path d="M419.3,772.24c-.69,0-1.35-.13-1.98-.38-.63-.25-1.17-.57-1.64-.96l.82-1.1c.43,.35,.86,.63,1.31,.84,.45,.21,.96,.32,1.55,.32,.64,0,1.12-.15,1.44-.44,.32-.29,.48-.65,.48-1.08,0-.25-.07-.47-.2-.66-.13-.19-.3-.35-.51-.49-.21-.14-.44-.26-.71-.37-.27-.11-.53-.21-.8-.32-.35-.12-.69-.26-1.04-.41-.35-.15-.66-.34-.93-.56s-.5-.48-.67-.77c-.17-.29-.26-.65-.26-1.06,0-.39,.08-.75,.23-1.09s.37-.63,.66-.88c.29-.25,.64-.44,1.05-.58,.41-.14,.88-.21,1.4-.21,.61,0,1.18,.11,1.69,.32,.51,.21,.96,.47,1.33,.78l-.78,1.04c-.33-.25-.68-.46-1.04-.62-.36-.16-.75-.24-1.18-.24-.61,0-1.06,.14-1.35,.42-.29,.28-.43,.61-.43,.98,0,.23,.06,.42,.18,.59,.12,.17,.28,.31,.48,.44s.43,.24,.69,.34c.26,.1,.53,.2,.81,.31,.35,.13,.7,.27,1.05,.42s.67,.33,.95,.55c.28,.22,.51,.49,.69,.81,.18,.32,.27,.71,.27,1.16,0,.4-.08,.77-.23,1.12s-.38,.65-.68,.92-.67,.48-1.12,.63c-.45,.15-.96,.23-1.53,.23Z" style="fill: #707070;"/>
      <path d="M425.9,763.44c-.4,0-.71-.15-.93-.46-.22-.31-.33-.75-.33-1.34,0-.8,.18-1.49,.54-2.08,.36-.59,.89-1.08,1.58-1.48l.48,.78c-.51,.33-.89,.69-1.14,1.07-.25,.38-.38,.85-.38,1.41,.04-.01,.1-.02,.18-.02,.27,0,.51,.09,.73,.26,.22,.17,.33,.43,.33,.76s-.1,.62-.3,.81-.45,.29-.76,.29Zm3.52,0c-.4,0-.71-.15-.93-.46-.22-.31-.33-.75-.33-1.34,0-.8,.18-1.49,.54-2.08,.36-.59,.89-1.08,1.58-1.48l.48,.78c-.51,.33-.89,.69-1.14,1.07-.25,.38-.38,.85-.38,1.41,.04-.01,.1-.02,.18-.02,.27,0,.51,.09,.73,.26,.22,.17,.33,.43,.33,.76s-.1,.62-.3,.81c-.2,.19-.45,.29-.76,.29Z" style="fill: #707070;"/>
      <rect width="464" height="196" style="fill: #ebebeb;"/>
      <path d="M151.07,109v-19.68h2.49v8.25h9.15v-8.25h2.52v19.68h-2.52v-9.27h-9.15v9.27h-2.49Z" style="fill: #707070;"/>
      <path d="M170.29,109v-2.04h4.38v-14.1h-3.48v-1.59c.88-.16,1.65-.35,2.3-.58,.65-.23,1.23-.5,1.75-.82h1.89v17.1h3.96v2.04h-10.8Z" style="fill: #707070;"/>
      <path d="M195.1,109.36c-1.04,0-2.03-.19-2.97-.57s-1.76-.86-2.46-1.44l1.23-1.65c.64,.52,1.29,.94,1.96,1.26,.67,.32,1.44,.48,2.33,.48,.96,0,1.68-.22,2.16-.66,.48-.44,.72-.98,.72-1.62,0-.38-.1-.71-.3-.99-.2-.28-.46-.53-.77-.74-.31-.21-.67-.39-1.06-.55-.4-.16-.8-.32-1.2-.48-.52-.18-1.04-.38-1.56-.62-.52-.23-.99-.51-1.39-.84-.41-.33-.75-.71-1-1.16-.26-.44-.39-.97-.39-1.59,0-.58,.12-1.12,.35-1.63,.23-.51,.56-.95,.99-1.32,.43-.37,.96-.66,1.58-.87s1.32-.32,2.1-.32c.92,0,1.76,.16,2.54,.48,.77,.32,1.43,.71,1.99,1.17l-1.17,1.56c-.5-.38-1.02-.69-1.56-.93s-1.13-.36-1.77-.36c-.92,0-1.59,.21-2.02,.63-.43,.42-.65,.91-.65,1.47,0,.34,.09,.63,.27,.88,.18,.25,.42,.47,.72,.66,.3,.19,.65,.36,1.04,.51,.39,.15,.79,.31,1.21,.46,.52,.2,1.04,.41,1.58,.63,.53,.22,1,.49,1.42,.82s.76,.74,1.04,1.21c.27,.48,.41,1.06,.41,1.74,0,.6-.12,1.16-.35,1.68-.23,.52-.57,.98-1.02,1.38s-1.01,.71-1.68,.94c-.67,.23-1.44,.35-2.3,.35Z" style="fill: #707070;"/>
      <path d="M206.48,109.36c-.94,0-1.61-.28-2.01-.84-.4-.56-.6-1.38-.6-2.46v-18.42h2.46v18.6c0,.4,.07,.68,.21,.84s.3,.24,.48,.24h.22c.07,0,.17-.02,.32-.06l.33,1.86c-.16,.08-.35,.14-.57,.18-.22,.04-.5,.06-.84,.06Z" style="fill: #707070;"/>
      <path d="M217.18,109.36c-.9,0-1.75-.17-2.56-.51-.81-.34-1.53-.83-2.15-1.48s-1.12-1.45-1.49-2.4c-.37-.95-.55-2.02-.55-3.22s.18-2.3,.55-3.25,.87-1.75,1.49-2.42,1.33-1.16,2.15-1.5c.81-.34,1.67-.51,2.56-.51s1.75,.17,2.57,.51c.81,.34,1.52,.84,2.14,1.5s1.12,1.46,1.49,2.42,.55,2.04,.55,3.25-.18,2.28-.55,3.22c-.37,.95-.87,1.75-1.49,2.4s-1.33,1.14-2.14,1.48c-.81,.34-1.67,.51-2.57,.51Zm0-2.04c.62,0,1.19-.14,1.71-.41,.52-.27,.96-.65,1.33-1.14s.66-1.08,.86-1.76c.2-.68,.3-1.44,.3-2.28s-.1-1.61-.3-2.29c-.2-.69-.49-1.29-.86-1.79s-.82-.88-1.33-1.16c-.52-.27-1.09-.41-1.71-.41s-1.19,.14-1.71,.41c-.52,.27-.96,.66-1.33,1.16s-.66,1.09-.85,1.79c-.2,.69-.3,1.46-.3,2.29s.1,1.6,.3,2.28c.2,.68,.48,1.27,.85,1.76s.81,.87,1.33,1.14c.52,.27,1.09,.41,1.71,.41Z" style="fill: #707070;"/>
      <g>
        <path d="M231.85,109.36c-.78,0-1.44-.12-1.96-.36-.53-.24-.96-.57-1.29-.99s-.57-.93-.71-1.53c-.14-.6-.21-1.26-.21-1.98v-8.07h-2.16v-1.86l2.28-.15,.3-4.08h2.07v4.08h3.93v2.01h-3.93v8.1c0,.9,.17,1.59,.5,2.08s.92,.73,1.75,.73c.26,0,.54-.04,.84-.12s.57-.17,.81-.27l.48,1.86c-.4,.14-.83,.26-1.3,.38-.47,.11-.94,.17-1.4,.17Z" style="fill: #707070;"/>
        <path d="M244.54,96.16c-.6,0-1.06-.23-1.39-.69-.33-.46-.5-1.13-.5-2.01,0-1.2,.27-2.24,.81-3.12,.54-.88,1.33-1.62,2.37-2.22l.72,1.17c-.76,.5-1.33,1.04-1.71,1.6-.38,.57-.57,1.28-.57,2.12,.06-.02,.15-.03,.27-.03,.4,0,.77,.13,1.1,.39s.5,.64,.5,1.14-.15,.93-.45,1.21c-.3,.29-.68,.44-1.14,.44Zm5.28,0c-.6,0-1.06-.23-1.39-.69-.33-.46-.5-1.13-.5-2.01,0-1.2,.27-2.24,.81-3.12,.54-.88,1.33-1.62,2.37-2.22l.72,1.17c-.76,.5-1.33,1.04-1.71,1.6-.38,.57-.57,1.28-.57,2.12,.06-.02,.15-.03,.27-.03,.4,0,.76,.13,1.09,.39s.5,.64,.5,1.14-.15,.93-.45,1.21c-.3,.29-.68,.44-1.14,.44Z" style="fill: #707070;"/>
        <path d="M260.74,109.36c-.78,0-1.44-.12-1.96-.36-.53-.24-.96-.57-1.29-.99s-.57-.93-.71-1.53c-.14-.6-.21-1.26-.21-1.98v-8.07h-2.16v-1.86l2.28-.15,.3-4.08h2.07v4.08h3.93v2.01h-3.93v8.1c0,.9,.17,1.59,.5,2.08s.92,.73,1.75,.73c.26,0,.54-.04,.84-.12s.57-.17,.81-.27l.48,1.86c-.4,.14-.83,.26-1.3,.38-.47,.11-.94,.17-1.4,.17Z" style="fill: #707070;"/>
        <path d="M267.55,91.42c-.48,0-.88-.15-1.21-.45s-.5-.68-.5-1.14,.17-.87,.5-1.16c.33-.29,.74-.43,1.21-.43s.89,.15,1.21,.43c.33,.29,.5,.67,.5,1.16s-.17,.84-.5,1.14c-.33,.3-.73,.45-1.21,.45Zm-1.26,17.58v-14.58h2.46v14.58h-2.46Z" style="fill: #707070;"/>
      </g>
      <path d="M278.26,109.36c-.78,0-1.44-.12-1.96-.36-.53-.24-.96-.57-1.29-.99s-.57-.93-.71-1.53c-.14-.6-.21-1.26-.21-1.98v-8.07h-2.16v-1.86l2.28-.15,.3-4.08h2.07v4.08h3.93v2.01h-3.93v8.1c0,.9,.17,1.59,.5,2.08s.92,.73,1.75,.73c.26,0,.54-.04,.84-.12s.57-.17,.81-.27l.48,1.86c-.4,.14-.83,.26-1.3,.38-.47,.11-.94,.17-1.4,.17Z" style="fill: #707070;"/>
      <path d="M286.43,109.36c-.94,0-1.61-.28-2.01-.84-.4-.56-.6-1.38-.6-2.46v-18.42h2.46v18.6c0,.4,.07,.68,.21,.84s.3,.24,.48,.24h.22c.07,0,.17-.02,.32-.06l.33,1.86c-.16,.08-.35,.14-.57,.18-.22,.04-.5,.06-.84,.06Z" style="fill: #707070;"/>
      <path d="M297.38,109.36c-.98,0-1.9-.18-2.75-.53-.85-.35-1.59-.85-2.22-1.5-.63-.65-1.12-1.44-1.49-2.38s-.54-2.01-.54-3.21,.18-2.28,.55-3.23c.37-.95,.86-1.75,1.47-2.42,.61-.66,1.3-1.16,2.08-1.51,.78-.35,1.59-.53,2.43-.53,.92,0,1.75,.16,2.47,.48,.73,.32,1.34,.78,1.83,1.38s.87,1.32,1.12,2.16,.39,1.78,.39,2.82c0,.26,0,.51-.02,.76s-.04,.46-.07,.64h-9.84c.1,1.56,.58,2.8,1.46,3.71,.87,.91,2,1.37,3.41,1.37,.7,0,1.34-.1,1.94-.31,.59-.21,1.15-.49,1.69-.83l.87,1.62c-.64,.4-1.35,.75-2.13,1.05s-1.67,.45-2.67,.45Zm-4.59-8.82h7.8c0-1.48-.32-2.6-.95-3.38-.63-.77-1.51-1.16-2.65-1.16-.52,0-1.02,.1-1.49,.3-.47,.2-.9,.5-1.28,.89-.38,.39-.7,.87-.94,1.42-.25,.56-.42,1.2-.5,1.92Z" style="fill: #707070;"/>
      <path d="M307.48,96.16c-.6,0-1.06-.23-1.39-.69-.33-.46-.5-1.13-.5-2.01,0-1.2,.27-2.24,.81-3.12,.54-.88,1.33-1.62,2.37-2.22l.72,1.17c-.76,.5-1.33,1.04-1.71,1.6-.38,.57-.57,1.28-.57,2.12,.06-.02,.15-.03,.27-.03,.4,0,.77,.13,1.1,.39s.5,.64,.5,1.14-.15,.93-.45,1.21c-.3,.29-.68,.44-1.14,.44Zm5.28,0c-.6,0-1.06-.23-1.39-.69-.33-.46-.5-1.13-.5-2.01,0-1.2,.27-2.24,.81-3.12,.54-.88,1.33-1.62,2.37-2.22l.72,1.17c-.76,.5-1.33,1.04-1.71,1.6-.38,.57-.57,1.28-.57,2.12,.06-.02,.15-.03,.27-.03,.4,0,.76,.13,1.09,.39s.5,.64,.5,1.14-.15,.93-.45,1.21c-.3,.29-.68,.44-1.14,.44Z" style="fill: #707070;"/>
      <path d="M116.12,51.48c-1.28,0-2.63-.25-4.06-.76-1.43-.51-2.66-1.19-3.7-2.04l3.04-4.24c1.81,1.33,3.44,2,4.88,2,.72,0,1.23-.1,1.54-.3,.31-.2,.46-.5,.46-.9,0-.27-.11-.5-.32-.7-.21-.2-.5-.39-.86-.56-.36-.17-.77-.34-1.22-.5-.45-.16-.93-.35-1.44-.56-.59-.24-1.18-.53-1.78-.86-.6-.33-1.14-.74-1.62-1.22-.48-.48-.87-1.03-1.18-1.66-.31-.63-.46-1.35-.46-2.18,0-.99,.19-1.88,.58-2.68,.39-.8,.93-1.48,1.62-2.04,.69-.56,1.53-.99,2.5-1.3s2.05-.46,3.22-.46c1.65,0,3.07,.27,4.26,.82,1.19,.55,2.22,1.15,3.1,1.82l-3.04,4.08c-.72-.53-1.43-.95-2.12-1.24-.69-.29-1.35-.44-1.96-.44-1.17,0-1.76,.37-1.76,1.12,0,.27,.1,.49,.3,.68s.47,.36,.82,.52c.35,.16,.75,.31,1.2,.46,.45,.15,.93,.31,1.44,.5,.59,.21,1.19,.48,1.8,.8,.61,.32,1.17,.71,1.66,1.18s.89,1.03,1.2,1.68,.46,1.43,.46,2.34-.19,1.81-.56,2.62c-.37,.81-.92,1.52-1.64,2.12s-1.61,1.07-2.68,1.4c-1.07,.33-2.29,.5-3.68,.5Z" style="fill: #707070;"/>
      <path d="M134.2,51.48c-1.17,0-2.15-.18-2.94-.54-.79-.36-1.42-.87-1.9-1.54-.48-.67-.82-1.46-1.02-2.38-.2-.92-.3-1.94-.3-3.06V23.16h6.88v21.04c0,.69,.13,1.16,.38,1.4,.25,.24,.5,.36,.74,.36h.34c.09,0,.22-.03,.38-.08l.8,5.04c-.37,.16-.83,.29-1.38,.4-.55,.11-1.21,.16-1.98,.16Z" style="fill: #707070;"/>
      <path d="M148.84,51.48c-1.28,0-2.52-.23-3.72-.7-1.2-.47-2.26-1.15-3.18-2.04s-1.65-1.99-2.2-3.3-.82-2.79-.82-4.44,.27-3.13,.82-4.44c.55-1.31,1.28-2.41,2.2-3.3,.92-.89,1.98-1.57,3.18-2.04,1.2-.47,2.44-.7,3.72-.7s2.51,.23,3.7,.7c1.19,.47,2.24,1.15,3.16,2.04,.92,.89,1.66,1.99,2.22,3.3,.56,1.31,.84,2.79,.84,4.44s-.28,3.13-.84,4.44c-.56,1.31-1.3,2.41-2.22,3.3-.92,.89-1.97,1.57-3.16,2.04-1.19,.47-2.42,.7-3.7,.7Zm0-5.52c1.04,0,1.78-.45,2.22-1.34,.44-.89,.66-2.1,.66-3.62s-.22-2.73-.66-3.62c-.44-.89-1.18-1.34-2.22-1.34s-1.78,.45-2.22,1.34c-.44,.89-.66,2.1-.66,3.62s.22,2.73,.66,3.62c.44,.89,1.18,1.34,2.22,1.34Z" style="fill: #707070;"/>
      <g>
        <path d="M169.4,51.48c-1.31,0-2.42-.19-3.34-.58-.92-.39-1.68-.94-2.28-1.66-.6-.72-1.04-1.58-1.32-2.58s-.42-2.11-.42-3.34v-6.96h-2.64v-5.12l3.04-.24,.8-5.2h5.68v5.2h4.56v5.36h-4.56v6.84c0,1.12,.24,1.89,.72,2.3,.48,.41,1.04,.62,1.68,.62,.32,0,.63-.03,.94-.1,.31-.07,.58-.14,.82-.22l1.04,4.96c-.53,.16-1.17,.32-1.92,.48-.75,.16-1.68,.24-2.8,.24Z" style="fill: #707070;"/>
        <path d="M187.24,58.08l-1.44-2.96c1.28-.56,2.24-1.25,2.88-2.06,.64-.81,.96-1.82,.96-3.02-.08,.03-.21,.04-.4,.04-.96,0-1.77-.29-2.44-.88-.67-.59-1-1.39-1-2.4,0-1.12,.32-2.01,.96-2.68,.64-.67,1.47-1,2.48-1,1.41,0,2.47,.51,3.18,1.54,.71,1.03,1.06,2.46,1.06,4.3,0,2-.51,3.77-1.52,5.3-1.01,1.53-2.59,2.81-4.72,3.82Zm10.4,0l-1.44-2.96c1.28-.56,2.24-1.25,2.88-2.06,.64-.81,.96-1.82,.96-3.02-.08,.03-.21,.04-.4,.04-.96,0-1.77-.29-2.44-.88-.67-.59-1-1.39-1-2.4,0-1.12,.32-2.01,.96-2.68,.64-.67,1.47-1,2.48-1,1.41,0,2.47,.51,3.18,1.54,.71,1.03,1.06,2.46,1.06,4.3,0,2-.51,3.77-1.52,5.3s-2.59,2.81-4.72,3.82Z" style="fill: #707070;"/>
      </g>
      <g>
        <path d="M208.36,51V23.16h6.88v6.48l-.32,3.44c.69-.61,1.53-1.19,2.5-1.74,.97-.55,2.14-.82,3.5-.82,2.19,0,3.77,.74,4.76,2.22,.99,1.48,1.48,3.46,1.48,5.94v12.32h-6.88v-11.44c0-1.28-.16-2.13-.48-2.56-.32-.43-.83-.64-1.52-.64-.64,0-1.17,.13-1.6,.4-.43,.27-.91,.64-1.44,1.12v13.12h-6.88Z" style="fill: #707070;"/>
        <path d="M240.92,51.48c-1.47,0-2.83-.23-4.08-.7-1.25-.47-2.34-1.15-3.26-2.04s-1.65-1.99-2.18-3.3c-.53-1.31-.8-2.79-.8-4.44s.27-3.09,.82-4.38c.55-1.29,1.27-2.39,2.16-3.3s1.91-1.6,3.06-2.08c1.15-.48,2.33-.72,3.56-.72,1.47,0,2.75,.25,3.84,.76s2,1.2,2.72,2.08c.72,.88,1.26,1.91,1.62,3.08,.36,1.17,.54,2.43,.54,3.76,0,.61-.03,1.19-.1,1.72-.07,.53-.13,.92-.18,1.16h-11.4c.32,1.2,.89,2.03,1.72,2.5s1.8,.7,2.92,.7c.69,0,1.37-.1,2.02-.3,.65-.2,1.34-.5,2.06-.9l2.24,4.08c-1.09,.77-2.3,1.35-3.62,1.74-1.32,.39-2.54,.58-3.66,.58Zm-3.76-12.88h5.92c0-.77-.19-1.45-.58-2.02s-1.1-.86-2.14-.86c-.77,0-1.45,.23-2.02,.68s-.97,1.19-1.18,2.2Z" style="fill: #707070;"/>
      </g>
      <path d="M257.48,51.48c-.93,0-1.77-.17-2.52-.5-.75-.33-1.38-.78-1.9-1.34-.52-.56-.91-1.21-1.18-1.96-.27-.75-.4-1.53-.4-2.36,0-2.08,.85-3.71,2.56-4.9,1.71-1.19,4.48-1.98,8.32-2.38-.16-1.39-1.09-2.08-2.8-2.08-.72,0-1.48,.14-2.28,.42-.8,.28-1.72,.7-2.76,1.26l-2.4-4.48c1.41-.85,2.84-1.51,4.28-1.96,1.44-.45,2.95-.68,4.52-.68,2.59,0,4.62,.74,6.1,2.22,1.48,1.48,2.22,3.86,2.22,7.14v11.12h-5.6l-.48-1.92h-.16c-.8,.72-1.65,1.3-2.54,1.74-.89,.44-1.89,.66-2.98,.66Zm2.4-5.28c.56,0,1.02-.13,1.38-.38,.36-.25,.73-.58,1.1-.98v-2.72c-1.65,.24-2.79,.6-3.4,1.08-.61,.48-.92,1-.92,1.56,0,.96,.61,1.44,1.84,1.44Z" style="fill: #707070;"/>
      <path d="M281,51.48c-1.25,0-2.38-.24-3.38-.72-1-.48-1.85-1.17-2.56-2.08-.71-.91-1.25-2.01-1.64-3.3-.39-1.29-.58-2.75-.58-4.38s.23-3.09,.7-4.4c.47-1.31,1.08-2.41,1.84-3.3,.76-.89,1.63-1.58,2.62-2.06,.99-.48,1.99-.72,3-.72,1.09,0,1.99,.18,2.68,.54,.69,.36,1.35,.85,1.96,1.46l-.24-2.88v-6.48h6.88v27.84h-5.6l-.48-1.84h-.16c-.69,.69-1.49,1.25-2.38,1.68-.89,.43-1.78,.64-2.66,.64Zm1.84-5.6c.53,0,1-.1,1.4-.3,.4-.2,.79-.58,1.16-1.14v-7.36c-.4-.37-.84-.63-1.32-.76-.48-.13-.95-.2-1.4-.2-.72,0-1.37,.36-1.94,1.08s-.86,1.96-.86,3.72,.26,3.09,.78,3.84c.52,.75,1.25,1.12,2.18,1.12Z" style="fill: #707070;"/>
      <path d="M306.2,51.48c-1.47,0-2.83-.23-4.08-.7-1.25-.47-2.34-1.15-3.26-2.04s-1.65-1.99-2.18-3.3c-.53-1.31-.8-2.79-.8-4.44s.27-3.09,.82-4.38c.55-1.29,1.27-2.39,2.16-3.3s1.91-1.6,3.06-2.08c1.15-.48,2.33-.72,3.56-.72,1.47,0,2.75,.25,3.84,.76s2,1.2,2.72,2.08c.72,.88,1.26,1.91,1.62,3.08,.36,1.17,.54,2.43,.54,3.76,0,.61-.03,1.19-.1,1.72-.07,.53-.13,.92-.18,1.16h-11.4c.32,1.2,.89,2.03,1.72,2.5s1.8,.7,2.92,.7c.69,0,1.37-.1,2.02-.3,.65-.2,1.34-.5,2.06-.9l2.24,4.08c-1.09,.77-2.3,1.35-3.62,1.74-1.32,.39-2.54,.58-3.66,.58Zm-3.76-12.88h5.92c0-.77-.19-1.45-.58-2.02s-1.1-.86-2.14-.86c-.77,0-1.45,.23-2.02,.68s-.97,1.19-1.18,2.2Z" style="fill: #707070;"/>
      <path d="M317.96,51V31h5.6l.48,3.44h.16c.75-1.36,1.63-2.35,2.66-2.98,1.03-.63,2.03-.94,3.02-.94,.61,0,1.11,.03,1.48,.1s.71,.17,1,.3l-1.12,5.92c-.37-.08-.73-.15-1.06-.22-.33-.07-.73-.1-1.18-.1-.72,0-1.47,.25-2.26,.74-.79,.49-1.42,1.37-1.9,2.62v11.12h-6.88Z" style="fill: #707070;"/>
      <path d="M339.56,38.84c-1.41,0-2.47-.51-3.18-1.54-.71-1.03-1.06-2.46-1.06-4.3,0-2,.51-3.77,1.52-5.3s2.59-2.81,4.72-3.82l1.44,2.96c-1.28,.56-2.24,1.25-2.88,2.06s-.96,1.82-.96,3.02c.08-.03,.21-.04,.4-.04,.96,0,1.77,.29,2.44,.88,.67,.59,1,1.39,1,2.4,0,1.12-.32,2.01-.96,2.68-.64,.67-1.47,1-2.48,1Zm10.4,0c-1.41,0-2.47-.51-3.18-1.54-.71-1.03-1.06-2.46-1.06-4.3,0-2,.51-3.77,1.52-5.3,1.01-1.53,2.59-2.81,4.72-3.82l1.44,2.96c-1.28,.56-2.24,1.25-2.88,2.06-.64,.81-.96,1.82-.96,3.02,.08-.03,.21-.04,.4-.04,.96,0,1.77,.29,2.44,.88,.67,.59,1,1.39,1,2.4,0,1.12-.32,2.01-.96,2.68-.64,.67-1.47,1-2.48,1Z" style="fill: #707070;"/>
      <rect y="150" width="465" height="46" style="fill: #d8d8d8;"/>
      <g>
        <path d="M148.98,179l3.55-10.5h1.5l3.55,10.5h-1.42l-.99-3.2h-3.82l-1.01,3.2h-1.36Zm3.2-5.87l-.5,1.6h3.15l-.5-1.6c-.19-.59-.37-1.17-.54-1.75-.17-.58-.34-1.18-.51-1.78h-.06c-.16,.61-.33,1.2-.5,1.78s-.35,1.17-.54,1.75Z" style="fill: #707070;"/>
        <path d="M162.02,179.19c-.51,0-.99-.09-1.44-.27-.45-.18-.83-.45-1.16-.79s-.58-.77-.77-1.28c-.19-.51-.28-1.08-.28-1.72s.1-1.23,.3-1.74c.2-.51,.47-.94,.82-1.29,.34-.35,.74-.62,1.19-.8,.45-.18,.93-.27,1.43-.27s.95,.09,1.31,.27c.36,.18,.68,.4,.96,.64l-.67,.86c-.22-.2-.46-.37-.71-.5-.25-.13-.53-.19-.84-.19-.35,0-.68,.07-.98,.22-.3,.14-.55,.35-.77,.62-.21,.27-.38,.58-.5,.95-.12,.37-.18,.78-.18,1.22s.06,.85,.18,1.22c.12,.36,.28,.67,.49,.94,.21,.26,.46,.46,.76,.61,.3,.14,.62,.22,.98,.22s.7-.08,1-.23,.58-.34,.82-.55l.58,.88c-.35,.31-.74,.55-1.17,.73s-.87,.26-1.34,.26Z" style="fill: #707070;"/>
      </g>
      <path d="M168.53,179.19c-.42,0-.77-.06-1.05-.19s-.51-.3-.69-.53c-.18-.22-.3-.5-.38-.82-.08-.32-.11-.67-.11-1.06v-4.3h-1.15v-.99l1.22-.08,.16-2.18h1.1v2.18h2.1v1.07h-2.1v4.32c0,.48,.09,.85,.26,1.11,.18,.26,.49,.39,.94,.39,.14,0,.29-.02,.45-.06,.16-.04,.3-.09,.43-.14l.26,.99c-.21,.07-.45,.14-.7,.2s-.5,.09-.74,.09Z" style="fill: #707070;"/>
      <path d="M172.17,169.62c-.26,0-.47-.08-.65-.24s-.26-.36-.26-.61,.09-.46,.26-.62,.39-.23,.65-.23,.47,.08,.65,.23,.26,.36,.26,.62-.09,.45-.26,.61-.39,.24-.65,.24Zm-.67,9.38v-7.78h1.31v7.78h-1.31Z" style="fill: #707070;"/>
      <path d="M177.11,179l-2.8-7.78h1.36l1.47,4.42c.12,.38,.24,.77,.36,1.15,.12,.38,.24,.76,.36,1.14h.06c.12-.37,.24-.75,.35-1.14s.23-.77,.35-1.15l1.47-4.42h1.3l-2.75,7.78h-1.54Z" style="fill: #707070;"/>
      <path d="M183.57,169.62c-.26,0-.47-.08-.65-.24s-.26-.36-.26-.61,.09-.46,.26-.62,.39-.23,.65-.23,.47,.08,.65,.23,.26,.36,.26,.62-.09,.45-.26,.61-.39,.24-.65,.24Zm-.67,9.38v-7.78h1.31v7.78h-1.31Z" style="fill: #707070;"/>
      <path d="M189.28,179.19c-.42,0-.77-.06-1.05-.19s-.51-.3-.69-.53c-.18-.22-.3-.5-.38-.82-.08-.32-.11-.67-.11-1.06v-4.3h-1.15v-.99l1.22-.08,.16-2.18h1.1v2.18h2.1v1.07h-2.1v4.32c0,.48,.09,.85,.26,1.11,.18,.26,.49,.39,.94,.39,.14,0,.29-.02,.45-.06,.16-.04,.3-.09,.43-.14l.26,.99c-.21,.07-.45,.14-.7,.2s-.5,.09-.74,.09Z" style="fill: #707070;"/>
      <path d="M192.37,182.34c-.18,0-.35-.01-.5-.04-.15-.03-.29-.07-.42-.12l.26-1.04c.08,.02,.18,.05,.29,.07,.11,.03,.21,.04,.3,.04,.45,0,.81-.16,1.1-.47,.28-.31,.5-.71,.66-1.19l.18-.58-3.12-7.79h1.36l1.58,4.3c.12,.34,.24,.7,.38,1.08,.13,.38,.26,.75,.38,1.11h.06c.12-.35,.23-.72,.34-1.1s.21-.75,.32-1.09l1.39-4.3h1.28l-2.93,8.42c-.14,.38-.29,.74-.46,1.07s-.37,.62-.61,.86c-.24,.24-.5,.43-.8,.57-.3,.14-.65,.21-1.04,.21Z" style="fill: #707070;"/>
      <path d="M202.92,179v-7.78h1.09l.11,1.12h.05c.34-.37,.71-.68,1.11-.94,.4-.25,.83-.38,1.3-.38,.6,0,1.06,.13,1.4,.39,.34,.26,.58,.63,.74,1.1,.41-.45,.81-.81,1.22-1.08,.41-.27,.86-.41,1.34-.41,.8,0,1.39,.26,1.78,.77s.58,1.27,.58,2.27v4.93h-1.31v-4.75c0-.74-.12-1.27-.35-1.59s-.6-.49-1.09-.49c-.59,0-1.24,.4-1.95,1.2v5.63h-1.31v-4.75c0-.74-.12-1.27-.35-1.59s-.6-.49-1.1-.49c-.59,0-1.24,.4-1.95,1.2v5.63h-1.31Z" style="fill: #707070;"/>
      <path d="M219.33,179.19c-.52,0-1.01-.09-1.46-.28s-.85-.45-1.18-.8-.6-.77-.79-1.27c-.19-.5-.29-1.07-.29-1.71s.1-1.21,.3-1.72,.46-.94,.78-1.29c.33-.35,.7-.62,1.11-.81,.42-.19,.85-.28,1.3-.28,.49,0,.93,.08,1.32,.26s.71,.42,.98,.74c.26,.32,.46,.7,.6,1.15s.21,.95,.21,1.5c0,.14,0,.28,0,.41,0,.13-.02,.25-.04,.34h-5.25c.05,.83,.31,1.49,.78,1.98,.46,.49,1.07,.73,1.82,.73,.37,0,.72-.06,1.03-.17,.31-.11,.62-.26,.9-.44l.46,.86c-.34,.21-.72,.4-1.14,.56s-.89,.24-1.42,.24Zm-2.45-4.7h4.16c0-.79-.17-1.39-.5-1.8-.34-.41-.81-.62-1.42-.62-.28,0-.54,.05-.79,.16s-.48,.26-.68,.47c-.2,.21-.37,.46-.5,.76-.13,.3-.22,.64-.26,1.02Z" style="fill: #707070;"/>
      <path d="M224.12,179v-7.78h1.09l.11,1.12h.05c.37-.37,.77-.68,1.18-.94,.41-.25,.89-.38,1.43-.38,.82,0,1.42,.26,1.8,.77s.57,1.27,.57,2.27v4.93h-1.31v-4.75c0-.74-.12-1.27-.35-1.59s-.61-.49-1.12-.49c-.41,0-.76,.1-1.07,.3-.31,.2-.66,.5-1.06,.9v5.63h-1.31Z" style="fill: #707070;"/>
      <path d="M235.14,179.19c-.83,0-1.44-.26-1.82-.77-.38-.51-.57-1.27-.57-2.27v-4.93h1.33v4.75c0,.74,.11,1.27,.34,1.59s.6,.49,1.11,.49c.41,0,.76-.1,1.07-.31s.65-.54,1.02-1v-5.52h1.31v7.78h-1.09l-.11-1.22h-.05c-.36,.43-.74,.77-1.14,1.02-.4,.26-.87,.38-1.42,.38Z" style="fill: #707070;"/>
      <path d="M242.96,179.19c-.5,0-.86-.15-1.07-.45-.21-.3-.32-.74-.32-1.31v-9.82h1.31v9.92c0,.21,.04,.36,.11,.45,.07,.09,.16,.13,.26,.13h.12s.09,0,.17-.03l.18,.99c-.09,.04-.19,.07-.3,.1-.12,.02-.27,.03-.45,.03Z" style="fill: #707070;"/>
      <path d="M246.33,169.62c-.26,0-.47-.08-.65-.24s-.26-.36-.26-.61,.09-.46,.26-.62,.39-.23,.65-.23,.47,.08,.65,.23,.26,.36,.26,.62-.09,.45-.26,.61-.39,.24-.65,.24Zm-.67,9.38v-7.78h1.31v7.78h-1.31Z" style="fill: #707070;"/>
      <path d="M249.59,179v-7.78h1.09l.11,1.12h.05c.37-.37,.77-.68,1.18-.94,.41-.25,.89-.38,1.43-.38,.82,0,1.42,.26,1.8,.77s.57,1.27,.57,2.27v4.93h-1.31v-4.75c0-.74-.12-1.27-.35-1.59s-.61-.49-1.12-.49c-.41,0-.76,.1-1.07,.3-.31,.2-.66,.5-1.06,.9v5.63h-1.31Z" style="fill: #707070;"/>
      <path d="M258.34,179v-11.39h1.3v7.71h.05l3.31-4.1h1.46l-2.61,3.12,2.96,4.66h-1.44l-2.27-3.74-1.46,1.7v2.05h-1.3Z" style="fill: #707070;"/>
      <polyline points="289.87 165.9 302.97 178.99 316.07 165.9" style="fill: none; stroke: #707070;"/>
      <path d="M16.72,178.24c-.64,0-1.32-.13-2.03-.38-.71-.25-1.33-.59-1.85-1.02l1.52-2.12c.91,.67,1.72,1,2.44,1,.36,0,.62-.05,.77-.15,.15-.1,.23-.25,.23-.45,0-.13-.05-.25-.16-.35-.11-.1-.25-.19-.43-.28-.18-.09-.38-.17-.61-.25s-.47-.17-.72-.28c-.29-.12-.59-.26-.89-.43s-.57-.37-.81-.61-.44-.52-.59-.83c-.15-.31-.23-.68-.23-1.09,0-.49,.1-.94,.29-1.34,.19-.4,.46-.74,.81-1.02,.35-.28,.76-.5,1.25-.65,.49-.15,1.02-.23,1.61-.23,.83,0,1.54,.14,2.13,.41,.59,.27,1.11,.58,1.55,.91l-1.52,2.04c-.36-.27-.71-.47-1.06-.62-.35-.15-.67-.22-.98-.22-.59,0-.88,.19-.88,.56,0,.13,.05,.25,.15,.34,.1,.09,.24,.18,.41,.26,.17,.08,.37,.16,.6,.23,.23,.07,.47,.16,.72,.25,.29,.11,.59,.24,.9,.4,.31,.16,.58,.36,.83,.59,.25,.23,.45,.51,.6,.84,.15,.33,.23,.72,.23,1.17s-.09,.9-.28,1.31c-.19,.41-.46,.76-.82,1.06s-.81,.53-1.34,.7c-.53,.17-1.15,.25-1.84,.25Z" style="fill: #fff;"/>
      <g>
        <path d="M26.4,178.24c-.65,0-1.21-.1-1.67-.29s-.84-.47-1.14-.83-.52-.79-.66-1.29c-.14-.5-.21-1.06-.21-1.67v-3.48h-1.32v-2.56l1.52-.12,.4-2.6h2.84v2.6h2.28v2.68h-2.28v3.42c0,.56,.12,.94,.36,1.15,.24,.21,.52,.31,.84,.31,.16,0,.32-.02,.47-.05s.29-.07,.41-.11l.52,2.48c-.27,.08-.59,.16-.96,.24s-.84,.12-1.4,.12Z" style="fill: #fff;"/>
        <path d="M32,166.76c-.56,0-1.02-.16-1.38-.48-.36-.32-.54-.73-.54-1.24s.18-.92,.54-1.24c.36-.32,.82-.48,1.38-.48s1.02,.16,1.38,.48c.36,.32,.54,.73,.54,1.24s-.18,.92-.54,1.24c-.36,.32-.82,.48-1.38,.48Zm-1.72,11.24v-10h3.44v10h-3.44Z" style="fill: #fff;"/>
      </g>
      <path d="M40.56,178.24c-.71,0-1.37-.12-1.98-.35-.61-.23-1.15-.57-1.6-1.02s-.81-1-1.07-1.65c-.26-.65-.39-1.39-.39-2.22s.15-1.57,.44-2.22c.29-.65,.69-1.2,1.18-1.65,.49-.45,1.06-.79,1.71-1.02s1.32-.35,2.03-.35c.6,0,1.14,.09,1.62,.28,.48,.19,.91,.44,1.3,.76l-1.6,2.2c-.23-.19-.42-.31-.59-.38-.17-.07-.34-.1-.53-.1-.64,0-1.14,.22-1.5,.67-.36,.45-.54,1.05-.54,1.81s.18,1.36,.55,1.81c.37,.45,.82,.67,1.37,.67,.28,0,.56-.06,.83-.18s.53-.27,.77-.46l1.32,2.24c-.51,.44-1.06,.74-1.65,.91-.59,.17-1.15,.25-1.67,.25Z" style="fill: #fff;"/>
      <path d="M45.48,178v-13.92h3.36v7.4h.08l2.76-3.48h3.72l-3.56,4.16,3.76,5.84h-3.72l-2-3.56-1.04,1.16v2.4h-3.36Z" style="fill: #fff;"/>
      <path d="M58.32,181.76c-.35,0-.63-.02-.85-.05s-.44-.08-.67-.15l.6-2.6c.09,.03,.2,.05,.31,.08,.11,.03,.22,.04,.33,.04,.47,0,.82-.09,1.05-.27,.23-.18,.4-.42,.51-.73l.12-.44-3.8-9.64h3.44l1.2,3.84c.15,.47,.27,.93,.38,1.39,.11,.46,.22,.94,.34,1.45h.08c.11-.48,.21-.95,.31-1.42,.1-.47,.21-.94,.33-1.42l1-3.84h3.28l-3.36,9.84c-.27,.68-.54,1.27-.81,1.76s-.59,.9-.95,1.22c-.36,.32-.77,.56-1.23,.71s-1,.23-1.61,.23Z" style="fill: #fff;"/>
      <g>
        <path d="M152.88,416.24c-.81,0-1.49-.24-2.03-.72-.54-.48-.81-1.16-.81-2.04,0-1.07,.47-1.88,1.42-2.45,.95-.57,2.46-.96,4.54-1.19,0-.31-.03-.61-.09-.9-.06-.29-.16-.55-.31-.78s-.35-.41-.61-.55c-.26-.14-.59-.21-.99-.21-.56,0-1.09,.11-1.58,.32-.49,.21-.93,.45-1.32,.72l-.64-1.14c.45-.29,1.01-.58,1.66-.85s1.37-.41,2.16-.41c1.19,0,2.05,.36,2.58,1.09,.53,.73,.8,1.7,.8,2.91v5.96h-1.36l-.14-1.16h-.06c-.47,.39-.97,.72-1.5,.99s-1.11,.41-1.72,.41Zm.48-1.32c.47,0,.91-.11,1.32-.33s.85-.54,1.32-.97v-2.7c-.81,.11-1.5,.23-2.05,.38-.55,.15-1,.32-1.34,.52-.34,.2-.59,.43-.74,.69s-.23,.54-.23,.85c0,.56,.17,.96,.5,1.2,.33,.24,.74,.36,1.22,.36Z" style="fill: #707070;"/>
        <path d="M164.56,416.24c-.64,0-1.24-.11-1.8-.34-.56-.23-1.04-.56-1.45-.99-.41-.43-.73-.97-.96-1.6-.23-.63-.35-1.35-.35-2.15s.13-1.54,.38-2.17c.25-.63,.59-1.17,1.02-1.61,.43-.44,.92-.77,1.49-1,.57-.23,1.16-.34,1.79-.34s1.19,.11,1.64,.34c.45,.23,.85,.49,1.2,.8l-.84,1.08c-.28-.25-.58-.46-.89-.62-.31-.16-.66-.24-1.05-.24-.44,0-.85,.09-1.22,.27-.37,.18-.69,.44-.96,.77-.27,.33-.48,.73-.63,1.19s-.23,.97-.23,1.53,.07,1.07,.22,1.52c.15,.45,.35,.84,.61,1.17,.26,.33,.58,.58,.95,.76,.37,.18,.78,.27,1.22,.27s.87-.1,1.25-.29,.72-.42,1.03-.69l.72,1.1c-.44,.39-.93,.69-1.46,.91s-1.09,.33-1.68,.33Z" style="fill: #707070;"/>
      </g>
      <path d="M172.7,416.24c-.52,0-.96-.08-1.31-.24s-.64-.38-.86-.66c-.22-.28-.38-.62-.47-1.02-.09-.4-.14-.84-.14-1.32v-5.38h-1.44v-1.24l1.52-.1,.2-2.72h1.38v2.72h2.62v1.34h-2.62v5.4c0,.6,.11,1.06,.33,1.39s.61,.49,1.17,.49c.17,0,.36-.03,.56-.08,.2-.05,.38-.11,.54-.18l.32,1.24c-.27,.09-.56,.18-.87,.25s-.62,.11-.93,.11Z" style="fill: #707070;"/>
      <g>
        <path d="M177.24,404.28c-.32,0-.59-.1-.81-.3-.22-.2-.33-.45-.33-.76s.11-.58,.33-.77,.49-.29,.81-.29,.59,.1,.81,.29,.33,.45,.33,.77-.11,.56-.33,.76c-.22,.2-.49,.3-.81,.3Zm-.84,11.72v-9.72h1.64v9.72h-1.64Z" style="fill: #707070;"/>
        <path d="M183.42,416l-3.5-9.72h1.7l1.84,5.52c.15,.48,.3,.96,.45,1.44,.15,.48,.3,.95,.45,1.42h.08c.15-.47,.29-.94,.44-1.42,.15-.48,.29-.96,.44-1.44l1.84-5.52h1.62l-3.44,9.72h-1.92Z" style="fill: #707070;"/>
        <path d="M191.5,404.28c-.32,0-.59-.1-.81-.3-.22-.2-.33-.45-.33-.76s.11-.58,.33-.77,.49-.29,.81-.29,.59,.1,.81,.29,.33,.45,.33,.77-.11,.56-.33,.76c-.22,.2-.49,.3-.81,.3Zm-.84,11.72v-9.72h1.64v9.72h-1.64Z" style="fill: #707070;"/>
      </g>
      <path d="M198.64,416.24c-.52,0-.96-.08-1.31-.24s-.64-.38-.86-.66c-.22-.28-.38-.62-.47-1.02-.09-.4-.14-.84-.14-1.32v-5.38h-1.44v-1.24l1.52-.1,.2-2.72h1.38v2.72h2.62v1.34h-2.62v5.4c0,.6,.11,1.06,.33,1.39s.61,.49,1.17,.49c.17,0,.36-.03,.56-.08,.2-.05,.38-.11,.54-.18l.32,1.24c-.27,.09-.56,.18-.87,.25s-.62,.11-.93,.11Z" style="fill: #707070;"/>
      <g>
        <path d="M202.5,420.18c-.23,0-.43-.02-.62-.05s-.36-.08-.52-.15l.32-1.3c.11,.03,.23,.06,.36,.09s.26,.05,.38,.05c.56,0,1.02-.2,1.37-.59,.35-.39,.63-.89,.83-1.49l.22-.72-3.9-9.74h1.7l1.98,5.38c.15,.43,.3,.88,.47,1.35,.17,.47,.32,.94,.47,1.39h.08c.15-.44,.29-.9,.42-1.38,.13-.48,.27-.93,.4-1.36l1.74-5.38h1.6l-3.66,10.52c-.17,.48-.37,.93-.58,1.34-.21,.41-.47,.77-.76,1.07-.29,.3-.63,.54-1,.71-.37,.17-.81,.26-1.3,.26Z" style="fill: #707070;"/>
        <path d="M219.52,416.24c-.64,0-1.24-.11-1.8-.34-.56-.23-1.04-.56-1.45-.99-.41-.43-.73-.97-.96-1.6-.23-.63-.35-1.35-.35-2.15s.13-1.54,.38-2.17c.25-.63,.59-1.17,1.02-1.61,.43-.44,.92-.77,1.49-1,.57-.23,1.16-.34,1.79-.34s1.19,.11,1.64,.34c.45,.23,.85,.49,1.2,.8l-.84,1.08c-.28-.25-.58-.46-.89-.62-.31-.16-.66-.24-1.05-.24-.44,0-.85,.09-1.22,.27-.37,.18-.69,.44-.96,.77-.27,.33-.48,.73-.63,1.19s-.23,.97-.23,1.53,.07,1.07,.22,1.52c.15,.45,.35,.84,.61,1.17,.26,.33,.58,.58,.95,.76,.37,.18,.78,.27,1.22,.27s.87-.1,1.25-.29,.72-.42,1.03-.69l.72,1.1c-.44,.39-.93,.69-1.46,.91s-1.09,.33-1.68,.33Z" style="fill: #707070;"/>
      </g>
      <path d="M228.16,416.24c-.6,0-1.17-.11-1.71-.34s-1.02-.56-1.43-.99c-.41-.43-.74-.97-.99-1.6-.25-.63-.37-1.35-.37-2.15s.12-1.54,.37-2.17c.25-.63,.58-1.17,.99-1.61,.41-.44,.89-.77,1.43-1s1.11-.34,1.71-.34,1.17,.11,1.71,.34,1.02,.56,1.43,1c.41,.44,.74,.98,.99,1.61,.25,.63,.37,1.36,.37,2.17s-.12,1.52-.37,2.15c-.25,.63-.58,1.17-.99,1.6s-.89,.76-1.43,.99-1.11,.34-1.71,.34Zm0-1.36c.41,0,.79-.09,1.14-.27,.35-.18,.64-.43,.89-.76,.25-.33,.44-.72,.57-1.17,.13-.45,.2-.96,.2-1.52s-.07-1.07-.2-1.53c-.13-.46-.32-.86-.57-1.19-.25-.33-.54-.59-.89-.77s-.73-.27-1.14-.27-.79,.09-1.14,.27-.64,.44-.89,.77c-.25,.33-.44,.73-.57,1.19-.13,.46-.2,.97-.2,1.53s.07,1.07,.2,1.52c.13,.45,.32,.84,.57,1.17,.25,.33,.54,.58,.89,.76,.35,.18,.73,.27,1.14,.27Z" style="fill: #707070;"/>
      <path d="M235.22,416v-9.72h1.36l.14,1.4h.06c.47-.47,.96-.86,1.47-1.17,.51-.31,1.11-.47,1.79-.47,1.03,0,1.78,.32,2.25,.96s.71,1.59,.71,2.84v6.16h-1.64v-5.94c0-.92-.15-1.58-.44-1.99-.29-.41-.76-.61-1.4-.61-.51,0-.95,.13-1.34,.38-.39,.25-.83,.63-1.32,1.12v7.04h-1.64Z" style="fill: #707070;"/>
      <path d="M249.22,416.24c-.52,0-.96-.08-1.31-.24s-.64-.38-.86-.66c-.22-.28-.38-.62-.47-1.02-.09-.4-.14-.84-.14-1.32v-5.38h-1.44v-1.24l1.52-.1,.2-2.72h1.38v2.72h2.62v1.34h-2.62v5.4c0,.6,.11,1.06,.33,1.39s.61,.49,1.17,.49c.17,0,.36-.03,.56-.08,.2-.05,.38-.11,.54-.18l.32,1.24c-.27,.09-.56,.18-.87,.25s-.62,.11-.93,.11Z" style="fill: #707070;"/>
      <path d="M256.58,416.24c-.65,0-1.26-.12-1.83-.35-.57-.23-1.06-.57-1.48-1-.42-.43-.75-.96-.99-1.59-.24-.63-.36-1.34-.36-2.14s.12-1.52,.37-2.15c.25-.63,.57-1.17,.98-1.61,.41-.44,.87-.78,1.39-1.01,.52-.23,1.06-.35,1.62-.35,.61,0,1.16,.11,1.65,.32,.49,.21,.89,.52,1.22,.92,.33,.4,.58,.88,.75,1.44,.17,.56,.26,1.19,.26,1.88,0,.17,0,.34,0,.51,0,.17-.02,.31-.05,.43h-6.56c.07,1.04,.39,1.86,.97,2.47,.58,.61,1.34,.91,2.27,.91,.47,0,.9-.07,1.29-.21,.39-.14,.77-.32,1.13-.55l.58,1.08c-.43,.27-.9,.5-1.42,.7-.52,.2-1.11,.3-1.78,.3Zm-3.06-5.88h5.2c0-.99-.21-1.74-.63-2.25-.42-.51-1.01-.77-1.77-.77-.35,0-.68,.07-.99,.2-.31,.13-.6,.33-.85,.59-.25,.26-.46,.58-.63,.95-.17,.37-.28,.8-.33,1.28Z" style="fill: #707070;"/>
      <path d="M262.56,416v-9.72h1.36l.14,1.4h.06c.47-.47,.96-.86,1.47-1.17,.51-.31,1.11-.47,1.79-.47,1.03,0,1.78,.32,2.25,.96s.71,1.59,.71,2.84v6.16h-1.64v-5.94c0-.92-.15-1.58-.44-1.99-.29-.41-.76-.61-1.4-.61-.51,0-.95,.13-1.34,.38-.39,.25-.83,.63-1.32,1.12v7.04h-1.64Z" style="fill: #707070;"/>
      <path d="M276.56,416.24c-.52,0-.96-.08-1.31-.24s-.64-.38-.86-.66c-.22-.28-.38-.62-.47-1.02-.09-.4-.14-.84-.14-1.32v-5.38h-1.44v-1.24l1.52-.1,.2-2.72h1.38v2.72h2.62v1.34h-2.62v5.4c0,.6,.11,1.06,.33,1.39s.61,.49,1.17,.49c.17,0,.36-.03,.56-.08,.2-.05,.38-.11,.54-.18l.32,1.24c-.27,.09-.56,.18-.87,.25s-.62,.11-.93,.11Z" style="fill: #707070;"/>
    </g>
  </g>
</svg>