<?xml version="1.0" encoding="UTF-8"?>
<svg id="Ebene_1" data-name="Ebene 1" xmlns="http://www.w3.org/2000/svg" xmlns:xlink="http://www.w3.org/1999/xlink" viewBox="0 0 1366 768">
  <defs>
    <style>
      .cls-1 {
        fill: none;
      }

      .cls-2 {
        fill: #ebebeb;
      }

      .cls-3 {
        fill: #fff;
      }

      .cls-4 {
        fill: #d8d8d8;
      }

      .cls-5 {
        fill: #707070;
      }

      .cls-6 {
        clip-path: url(#clippath-1);
      }

      .cls-7 {
        clip-path: url(#clippath);
      }
    </style>
    <clipPath id="clippath">
      <rect width="1366" height="768" style="fill: none;"/>
    </clipPath>
    <clipPath id="clippath-1">
      <rect width="1366" height="768" style="fill: none;"/>
    </clipPath>
  </defs>
  <g style="clip-path: url(#clippath);">
    <rect width="1366" height="768" style="fill: #fff;"/>
    <g style="clip-path: url(#clippath-1);">
      <rect y="196" width="282" height="572" style="fill: #d8d8d8;"/>
      <g>
        <path d="M21.05,228l3.55-10.5h1.5l3.55,10.5h-1.42l-.99-3.2h-3.82l-1.01,3.2h-1.36Zm3.2-5.87l-.5,1.6h3.15l-.5-1.6c-.19-.59-.37-1.17-.54-1.75-.17-.58-.34-1.18-.51-1.78h-.06c-.16,.61-.33,1.2-.5,1.78s-.35,1.17-.54,1.75Z" style="fill: #707070;"/>
        <path d="M34.09,228.19c-.51,0-.99-.09-1.44-.27-.45-.18-.83-.45-1.16-.79s-.58-.77-.77-1.28c-.19-.51-.28-1.08-.28-1.72s.1-1.23,.3-1.74c.2-.51,.47-.94,.82-1.29,.34-.35,.74-.62,1.19-.8,.45-.18,.93-.27,1.43-.27s.95,.09,1.31,.27c.36,.18,.68,.4,.96,.64l-.67,.86c-.22-.2-.46-.37-.71-.5-.25-.13-.53-.19-.84-.19-.35,0-.68,.07-.98,.22-.3,.14-.55,.35-.77,.62-.21,.27-.38,.58-.5,.95-.12,.37-.18,.78-.18,1.22s.06,.85,.18,1.22c.12,.36,.28,.67,.49,.94,.21,.26,.46,.46,.76,.61,.3,.14,.62,.22,.98,.22s.7-.08,1-.23,.58-.34,.82-.55l.58,.88c-.35,.31-.74,.55-1.17,.73s-.87,.26-1.34,.26Z" style="fill: #707070;"/>
      </g>
      <path d="M40.6,228.19c-.42,0-.77-.06-1.05-.19s-.51-.3-.69-.53c-.18-.22-.3-.5-.38-.82-.08-.32-.11-.67-.11-1.06v-4.3h-1.15v-.99l1.22-.08,.16-2.18h1.1v2.18h2.1v1.07h-2.1v4.32c0,.48,.09,.85,.26,1.11,.18,.26,.49,.39,.94,.39,.14,0,.29-.02,.45-.06,.16-.04,.3-.09,.43-.14l.26,.99c-.21,.07-.45,.14-.7,.2s-.5,.09-.74,.09Z" style="fill: #707070;"/>
      <path d="M44.23,218.62c-.26,0-.47-.08-.65-.24s-.26-.36-.26-.61,.09-.46,.26-.62,.39-.23,.65-.23,.47,.08,.65,.23,.26,.36,.26,.62-.09,.45-.26,.61-.39,.24-.65,.24Zm-.67,9.38v-7.78h1.31v7.78h-1.31Z" style="fill: #707070;"/>
      <path d="M49.18,228l-2.8-7.78h1.36l1.47,4.42c.12,.38,.24,.77,.36,1.15,.12,.38,.24,.76,.36,1.14h.06c.12-.37,.24-.75,.35-1.14s.23-.77,.35-1.15l1.47-4.42h1.3l-2.75,7.78h-1.54Z" style="fill: #707070;"/>
      <path d="M55.64,218.62c-.26,0-.47-.08-.65-.24s-.26-.36-.26-.61,.09-.46,.26-.62,.39-.23,.65-.23,.47,.08,.65,.23,.26,.36,.26,.62-.09,.45-.26,.61-.39,.24-.65,.24Zm-.67,9.38v-7.78h1.31v7.78h-1.31Z" style="fill: #707070;"/>
      <path d="M61.35,228.19c-.42,0-.77-.06-1.05-.19s-.51-.3-.69-.53c-.18-.22-.3-.5-.38-.82-.08-.32-.11-.67-.11-1.06v-4.3h-1.15v-.99l1.22-.08,.16-2.18h1.1v2.18h2.1v1.07h-2.1v4.32c0,.48,.09,.85,.26,1.11,.18,.26,.49,.39,.94,.39,.14,0,.29-.02,.45-.06,.16-.04,.3-.09,.43-.14l.26,.99c-.21,.07-.45,.14-.7,.2s-.5,.09-.74,.09Z" style="fill: #707070;"/>
      <path d="M64.44,231.34c-.18,0-.35-.01-.5-.04-.15-.03-.29-.07-.42-.12l.26-1.04c.08,.02,.18,.05,.29,.07,.11,.03,.21,.04,.3,.04,.45,0,.81-.16,1.1-.47,.28-.31,.5-.71,.66-1.19l.18-.58-3.12-7.79h1.36l1.58,4.3c.12,.34,.24,.7,.38,1.08,.13,.38,.26,.75,.38,1.11h.06c.12-.35,.23-.72,.34-1.1s.21-.75,.32-1.09l1.39-4.3h1.28l-2.93,8.42c-.14,.38-.29,.74-.46,1.07s-.37,.62-.61,.86c-.24,.24-.5,.43-.8,.57-.3,.14-.65,.21-1.04,.21Z" style="fill: #707070;"/>
      <path d="M75.11,228v-10.5h1.6l2.02,5.6c.13,.36,.25,.73,.38,1.1,.12,.37,.25,.73,.38,1.1h.06c.13-.36,.25-.73,.36-1.1,.11-.37,.23-.73,.36-1.1l1.98-5.6h1.62v10.5h-1.25v-5.78c0-.47,.02-.99,.06-1.55s.08-1.08,.11-1.55h-.06l-.83,2.38-1.98,5.44h-.88l-1.98-5.44-.83-2.38h-.06c.03,.47,.07,.99,.1,1.55s.06,1.08,.06,1.55v5.78h-1.2Z" style="fill: #707070;"/>
      <path d="M89.77,228.19c-.52,0-1.01-.09-1.46-.28s-.85-.45-1.18-.8-.6-.77-.79-1.27c-.19-.5-.29-1.07-.29-1.71s.1-1.21,.3-1.72,.46-.94,.78-1.29c.33-.35,.7-.62,1.11-.81,.42-.19,.85-.28,1.3-.28,.49,0,.93,.08,1.32,.26s.71,.42,.98,.74c.26,.32,.46,.7,.6,1.15s.21,.95,.21,1.5c0,.14,0,.28,0,.41,0,.13-.02,.25-.04,.34h-5.25c.05,.83,.31,1.49,.78,1.98,.46,.49,1.07,.73,1.82,.73,.37,0,.72-.06,1.03-.17,.31-.11,.62-.26,.9-.44l.46,.86c-.34,.21-.72,.4-1.14,.56s-.89,.24-1.42,.24Zm-2.45-4.7h4.16c0-.79-.17-1.39-.5-1.8-.34-.41-.81-.62-1.42-.62-.28,0-.54,.05-.79,.16s-.48,.26-.68,.47c-.2,.21-.37,.46-.5,.76-.13,.3-.22,.64-.26,1.02Z" style="fill: #707070;"/>
      <path d="M94.55,228v-7.78h1.09l.11,1.12h.05c.37-.37,.77-.68,1.18-.94,.41-.25,.89-.38,1.43-.38,.82,0,1.42,.26,1.8,.77s.57,1.27,.57,2.27v4.93h-1.31v-4.75c0-.74-.12-1.27-.35-1.59s-.61-.49-1.12-.49c-.41,0-.76,.1-1.07,.3-.31,.2-.66,.5-1.06,.9v5.63h-1.31Z" style="fill: #707070;"/>
      <path d="M105.58,228.19c-.83,0-1.44-.26-1.82-.77-.38-.51-.57-1.27-.57-2.27v-4.93h1.33v4.75c0,.74,.11,1.27,.34,1.59s.6,.49,1.11,.49c.41,0,.76-.1,1.07-.31s.65-.54,1.02-1v-5.52h1.31v7.78h-1.09l-.11-1.22h-.05c-.36,.43-.74,.77-1.14,1.02-.4,.26-.87,.38-1.42,.38Z" style="fill: #707070;"/>
      <path d="M113.4,228.19c-.5,0-.86-.15-1.07-.45-.21-.3-.32-.74-.32-1.31v-9.82h1.31v9.92c0,.21,.04,.36,.11,.45,.07,.09,.16,.13,.26,.13h.12s.09,0,.17-.03l.18,.99c-.09,.04-.19,.07-.3,.1-.12,.02-.27,.03-.45,.03Z" style="fill: #707070;"/>
      <path d="M116.76,218.62c-.26,0-.47-.08-.65-.24s-.26-.36-.26-.61,.09-.46,.26-.62,.39-.23,.65-.23,.47,.08,.65,.23,.26,.36,.26,.62-.09,.45-.26,.61-.39,.24-.65,.24Zm-.67,9.38v-7.78h1.31v7.78h-1.31Z" style="fill: #707070;"/>
      <path d="M120.02,228v-7.78h1.09l.11,1.12h.05c.37-.37,.77-.68,1.18-.94,.41-.25,.89-.38,1.43-.38,.82,0,1.42,.26,1.8,.77s.57,1.27,.57,2.27v4.93h-1.31v-4.75c0-.74-.12-1.27-.35-1.59s-.61-.49-1.12-.49c-.41,0-.76,.1-1.07,.3-.31,.2-.66,.5-1.06,.9v5.63h-1.31Z" style="fill: #707070;"/>
      <path d="M128.78,228v-11.39h1.3v7.71h.05l3.31-4.1h1.46l-2.61,3.12,2.96,4.66h-1.44l-2.27-3.74-1.46,1.7v2.05h-1.3Z" style="fill: #707070;"/>
      <g>
        <path d="M21.05,276l3.55-10.5h1.5l3.55,10.5h-1.42l-.99-3.2h-3.82l-1.01,3.2h-1.36Zm3.2-5.87l-.5,1.6h3.15l-.5-1.6c-.19-.59-.37-1.17-.54-1.75-.17-.58-.34-1.18-.51-1.78h-.06c-.16,.61-.33,1.2-.5,1.78s-.35,1.17-.54,1.75Z" style="fill: #707070;"/>
        <path d="M34.09,276.19c-.51,0-.99-.09-1.44-.27-.45-.18-.83-.45-1.16-.79s-.58-.77-.77-1.28c-.19-.51-.28-1.08-.28-1.72s.1-1.23,.3-1.74c.2-.51,.47-.94,.82-1.29,.34-.35,.74-.62,1.19-.8,.45-.18,.93-.27,1.43-.27s.95,.09,1.31,.27c.36,.18,.68,.4,.96,.64l-.67,.86c-.22-.2-.46-.37-.71-.5-.25-.13-.53-.19-.84-.19-.35,0-.68,.07-.98,.22-.3,.14-.55,.35-.77,.62-.21,.27-.38,.58-.5,.95-.12,.37-.18,.78-.18,1.22s.06,.85,.18,1.22c.12,.36,.28,.67,.49,.94,.21,.26,.46,.46,.76,.61,.3,.14,.62,.22,.98,.22s.7-.08,1-.23,.58-.34,.82-.55l.58,.88c-.35,.31-.74,.55-1.17,.73s-.87,.26-1.34,.26Z" style="fill: #707070;"/>
      </g>
      <path d="M40.6,276.19c-.42,0-.77-.06-1.05-.19s-.51-.3-.69-.53c-.18-.22-.3-.5-.38-.82-.08-.32-.11-.67-.11-1.06v-4.3h-1.15v-.99l1.22-.08,.16-2.18h1.1v2.18h2.1v1.07h-2.1v4.32c0,.48,.09,.85,.26,1.11,.18,.26,.49,.39,.94,.39,.14,0,.29-.02,.45-.06,.16-.04,.3-.09,.43-.14l.26,.99c-.21,.07-.45,.14-.7,.2s-.5,.09-.74,.09Z" style="fill: #707070;"/>
      <path d="M44.23,266.62c-.26,0-.47-.08-.65-.24s-.26-.36-.26-.61,.09-.46,.26-.62,.39-.23,.65-.23,.47,.08,.65,.23,.26,.36,.26,.62-.09,.45-.26,.61-.39,.24-.65,.24Zm-.67,9.38v-7.78h1.31v7.78h-1.31Z" style="fill: #707070;"/>
      <path d="M49.18,276l-2.8-7.78h1.36l1.47,4.42c.12,.38,.24,.77,.36,1.15,.12,.38,.24,.76,.36,1.14h.06c.12-.37,.24-.75,.35-1.14s.23-.77,.35-1.15l1.47-4.42h1.3l-2.75,7.78h-1.54Z" style="fill: #707070;"/>
      <path d="M55.64,266.62c-.26,0-.47-.08-.65-.24s-.26-.36-.26-.61,.09-.46,.26-.62,.39-.23,.65-.23,.47,.08,.65,.23,.26,.36,.26,.62-.09,.45-.26,.61-.39,.24-.65,.24Zm-.67,9.38v-7.78h1.31v7.78h-1.31Z" style="fill: #707070;"/>
      <path d="M61.35,276.19c-.42,0-.77-.06-1.05-.19s-.51-.3-.69-.53c-.18-.22-.3-.5-.38-.82-.08-.32-.11-.67-.11-1.06v-4.3h-1.15v-.99l1.22-.08,.16-2.18h1.1v2.18h2.1v1.07h-2.1v4.32c0,.48,.09,.85,.26,1.11,.18,.26,.49,.39,.94,.39,.14,0,.29-.02,.45-.06,.16-.04,.3-.09,.43-.14l.26,.99c-.21,.07-.45,.14-.7,.2s-.5,.09-.74,.09Z" style="fill: #707070;"/>
      <path d="M64.44,279.34c-.18,0-.35-.01-.5-.04-.15-.03-.29-.07-.42-.12l.26-1.04c.08,.02,.18,.05,.29,.07,.11,.03,.21,.04,.3,.04,.45,0,.81-.16,1.1-.47,.28-.31,.5-.71,.66-1.19l.18-.58-3.12-7.79h1.36l1.58,4.3c.12,.34,.24,.7,.38,1.08,.13,.38,.26,.75,.38,1.11h.06c.12-.35,.23-.72,.34-1.1s.21-.75,.32-1.09l1.39-4.3h1.28l-2.93,8.42c-.14,.38-.29,.74-.46,1.07s-.37,.62-.61,.86c-.24,.24-.5,.43-.8,.57-.3,.14-.65,.21-1.04,.21Z" style="fill: #707070;"/>
      <path d="M75.11,276v-10.5h1.6l2.02,5.6c.13,.36,.25,.73,.38,1.1,.12,.37,.25,.73,.38,1.1h.06c.13-.36,.25-.73,.36-1.1,.11-.37,.23-.73,.36-1.1l1.98-5.6h1.62v10.5h-1.25v-5.78c0-.47,.02-.99,.06-1.55s.08-1.08,.11-1.55h-.06l-.83,2.38-1.98,5.44h-.88l-1.98-5.44-.83-2.38h-.06c.03,.47,.07,.99,.1,1.55s.06,1.08,.06,1.55v5.78h-1.2Z" style="fill: #707070;"/>
      <path d="M89.77,276.19c-.52,0-1.01-.09-1.46-.28s-.85-.45-1.18-.8-.6-.77-.79-1.27c-.19-.5-.29-1.07-.29-1.71s.1-1.21,.3-1.72,.46-.94,.78-1.29c.33-.35,.7-.62,1.11-.81,.42-.19,.85-.28,1.3-.28,.49,0,.93,.08,1.32,.26s.71,.42,.98,.74c.26,.32,.46,.7,.6,1.15s.21,.95,.21,1.5c0,.14,0,.28,0,.41,0,.13-.02,.25-.04,.34h-5.25c.05,.83,.31,1.49,.78,1.98,.46,.49,1.07,.73,1.82,.73,.37,0,.72-.06,1.03-.17,.31-.11,.62-.26,.9-.44l.46,.86c-.34,.21-.72,.4-1.14,.56s-.89,.24-1.42,.24Zm-2.45-4.7h4.16c0-.79-.17-1.39-.5-1.8-.34-.41-.81-.62-1.42-.62-.28,0-.54,.05-.79,.16s-.48,.26-.68,.47c-.2,.21-.37,.46-.5,.76-.13,.3-.22,.64-.26,1.02Z" style="fill: #707070;"/>
      <path d="M94.55,276v-7.78h1.09l.11,1.12h.05c.37-.37,.77-.68,1.18-.94,.41-.25,.89-.38,1.43-.38,.82,0,1.42,.26,1.8,.77s.57,1.27,.57,2.27v4.93h-1.31v-4.75c0-.74-.12-1.27-.35-1.59s-.61-.49-1.12-.49c-.41,0-.76,.1-1.07,.3-.31,.2-.66,.5-1.06,.9v5.63h-1.31Z" style="fill: #707070;"/>
      <path d="M105.58,276.19c-.83,0-1.44-.26-1.82-.77-.38-.51-.57-1.27-.57-2.27v-4.93h1.33v4.75c0,.74,.11,1.27,.34,1.59s.6,.49,1.11,.49c.41,0,.76-.1,1.07-.31s.65-.54,1.02-1v-5.52h1.31v7.78h-1.09l-.11-1.22h-.05c-.36,.43-.74,.77-1.14,1.02-.4,.26-.87,.38-1.42,.38Z" style="fill: #707070;"/>
      <path d="M113.4,276.19c-.5,0-.86-.15-1.07-.45-.21-.3-.32-.74-.32-1.31v-9.82h1.31v9.92c0,.21,.04,.36,.11,.45,.07,.09,.16,.13,.26,.13h.12s.09,0,.17-.03l.18,.99c-.09,.04-.19,.07-.3,.1-.12,.02-.27,.03-.45,.03Z" style="fill: #707070;"/>
      <path d="M116.76,266.62c-.26,0-.47-.08-.65-.24s-.26-.36-.26-.61,.09-.46,.26-.62,.39-.23,.65-.23,.47,.08,.65,.23,.26,.36,.26,.62-.09,.45-.26,.61-.39,.24-.65,.24Zm-.67,9.38v-7.78h1.31v7.78h-1.31Z" style="fill: #707070;"/>
      <path d="M120.02,276v-7.78h1.09l.11,1.12h.05c.37-.37,.77-.68,1.18-.94,.41-.25,.89-.38,1.43-.38,.82,0,1.42,.26,1.8,.77s.57,1.27,.57,2.27v4.93h-1.31v-4.75c0-.74-.12-1.27-.35-1.59s-.61-.49-1.12-.49c-.41,0-.76,.1-1.07,.3-.31,.2-.66,.5-1.06,.9v5.63h-1.31Z" style="fill: #707070;"/>
      <path d="M128.78,276v-11.39h1.3v7.71h.05l3.31-4.1h1.46l-2.61,3.12,2.96,4.66h-1.44l-2.27-3.74-1.46,1.7v2.05h-1.3Z" style="fill: #707070;"/>
      <g>
        <path d="M21.05,325l3.55-10.5h1.5l3.55,10.5h-1.42l-.99-3.2h-3.82l-1.01,3.2h-1.36Zm3.2-5.87l-.5,1.6h3.15l-.5-1.6c-.19-.59-.37-1.17-.54-1.75-.17-.58-.34-1.18-.51-1.78h-.06c-.16,.61-.33,1.2-.5,1.78s-.35,1.17-.54,1.75Z" style="fill: #707070;"/>
        <path d="M34.09,325.19c-.51,0-.99-.09-1.44-.27-.45-.18-.83-.45-1.16-.79s-.58-.77-.77-1.28c-.19-.51-.28-1.08-.28-1.72s.1-1.23,.3-1.74c.2-.51,.47-.94,.82-1.29,.34-.35,.74-.62,1.19-.8,.45-.18,.93-.27,1.43-.27s.95,.09,1.31,.27c.36,.18,.68,.4,.96,.64l-.67,.86c-.22-.2-.46-.37-.71-.5-.25-.13-.53-.19-.84-.19-.35,0-.68,.07-.98,.22-.3,.14-.55,.35-.77,.62-.21,.27-.38,.58-.5,.95-.12,.37-.18,.78-.18,1.22s.06,.85,.18,1.22c.12,.36,.28,.67,.49,.94,.21,.26,.46,.46,.76,.61,.3,.14,.62,.22,.98,.22s.7-.08,1-.23,.58-.34,.82-.55l.58,.88c-.35,.31-.74,.55-1.17,.73s-.87,.26-1.34,.26Z" style="fill: #707070;"/>
      </g>
      <path d="M40.6,325.19c-.42,0-.77-.06-1.05-.19s-.51-.3-.69-.53c-.18-.22-.3-.5-.38-.82-.08-.32-.11-.67-.11-1.06v-4.3h-1.15v-.99l1.22-.08,.16-2.18h1.1v2.18h2.1v1.07h-2.1v4.32c0,.48,.09,.85,.26,1.11,.18,.26,.49,.39,.94,.39,.14,0,.29-.02,.45-.06,.16-.04,.3-.09,.43-.14l.26,.99c-.21,.07-.45,.14-.7,.2s-.5,.09-.74,.09Z" style="fill: #707070;"/>
      <path d="M44.23,315.62c-.26,0-.47-.08-.65-.24s-.26-.36-.26-.61,.09-.46,.26-.62,.39-.23,.65-.23,.47,.08,.65,.23,.26,.36,.26,.62-.09,.45-.26,.61-.39,.24-.65,.24Zm-.67,9.38v-7.78h1.31v7.78h-1.31Z" style="fill: #707070;"/>
      <path d="M49.18,325l-2.8-7.78h1.36l1.47,4.42c.12,.38,.24,.77,.36,1.15,.12,.38,.24,.76,.36,1.14h.06c.12-.37,.24-.75,.35-1.14s.23-.77,.35-1.15l1.47-4.42h1.3l-2.75,7.78h-1.54Z" style="fill: #707070;"/>
      <path d="M55.64,315.62c-.26,0-.47-.08-.65-.24s-.26-.36-.26-.61,.09-.46,.26-.62,.39-.23,.65-.23,.47,.08,.65,.23,.26,.36,.26,.62-.09,.45-.26,.61-.39,.24-.65,.24Zm-.67,9.38v-7.78h1.31v7.78h-1.31Z" style="fill: #707070;"/>
      <path d="M61.35,325.19c-.42,0-.77-.06-1.05-.19s-.51-.3-.69-.53c-.18-.22-.3-.5-.38-.82-.08-.32-.11-.67-.11-1.06v-4.3h-1.15v-.99l1.22-.08,.16-2.18h1.1v2.18h2.1v1.07h-2.1v4.32c0,.48,.09,.85,.26,1.11,.18,.26,.49,.39,.94,.39,.14,0,.29-.02,.45-.06,.16-.04,.3-.09,.43-.14l.26,.99c-.21,.07-.45,.14-.7,.2s-.5,.09-.74,.09Z" style="fill: #707070;"/>
      <path d="M64.44,328.34c-.18,0-.35-.01-.5-.04-.15-.03-.29-.07-.42-.12l.26-1.04c.08,.02,.18,.05,.29,.07,.11,.03,.21,.04,.3,.04,.45,0,.81-.16,1.1-.47,.28-.31,.5-.71,.66-1.19l.18-.58-3.12-7.79h1.36l1.58,4.3c.12,.34,.24,.7,.38,1.08,.13,.38,.26,.75,.38,1.11h.06c.12-.35,.23-.72,.34-1.1s.21-.75,.32-1.09l1.39-4.3h1.28l-2.93,8.42c-.14,.38-.29,.74-.46,1.07s-.37,.62-.61,.86c-.24,.24-.5,.43-.8,.57-.3,.14-.65,.21-1.04,.21Z" style="fill: #707070;"/>
      <path d="M75.11,325v-10.5h1.6l2.02,5.6c.13,.36,.25,.73,.38,1.1,.12,.37,.25,.73,.38,1.1h.06c.13-.36,.25-.73,.36-1.1,.11-.37,.23-.73,.36-1.1l1.98-5.6h1.62v10.5h-1.25v-5.78c0-.47,.02-.99,.06-1.55s.08-1.08,.11-1.55h-.06l-.83,2.38-1.98,5.44h-.88l-1.98-5.44-.83-2.38h-.06c.03,.47,.07,.99,.1,1.55s.06,1.08,.06,1.55v5.78h-1.2Z" style="fill: #707070;"/>
      <path d="M89.77,325.19c-.52,0-1.01-.09-1.46-.28s-.85-.45-1.18-.8-.6-.77-.79-1.27c-.19-.5-.29-1.07-.29-1.71s.1-1.21,.3-1.72,.46-.94,.78-1.29c.33-.35,.7-.62,1.11-.81,.42-.19,.85-.28,1.3-.28,.49,0,.93,.08,1.32,.26s.71,.42,.98,.74c.26,.32,.46,.7,.6,1.15s.21,.95,.21,1.5c0,.14,0,.28,0,.41,0,.13-.02,.25-.04,.34h-5.25c.05,.83,.31,1.49,.78,1.98,.46,.49,1.07,.73,1.82,.73,.37,0,.72-.06,1.03-.17,.31-.11,.62-.26,.9-.44l.46,.86c-.34,.21-.72,.4-1.14,.56s-.89,.24-1.42,.24Zm-2.45-4.7h4.16c0-.79-.17-1.39-.5-1.8-.34-.41-.81-.62-1.42-.62-.28,0-.54,.05-.79,.16s-.48,.26-.68,.47c-.2,.21-.37,.46-.5,.76-.13,.3-.22,.64-.26,1.02Z" style="fill: #707070;"/>
      <path d="M94.55,325v-7.78h1.09l.11,1.12h.05c.37-.37,.77-.68,1.18-.94,.41-.25,.89-.38,1.43-.38,.82,0,1.42,.26,1.8,.77s.57,1.27,.57,2.27v4.93h-1.31v-4.75c0-.74-.12-1.27-.35-1.59s-.61-.49-1.12-.49c-.41,0-.76,.1-1.07,.3-.31,.2-.66,.5-1.06,.9v5.63h-1.31Z" style="fill: #707070;"/>
      <path d="M105.58,325.19c-.83,0-1.44-.26-1.82-.77-.38-.51-.57-1.27-.57-2.27v-4.93h1.33v4.75c0,.74,.11,1.27,.34,1.59s.6,.49,1.11,.49c.41,0,.76-.1,1.07-.31s.65-.54,1.02-1v-5.52h1.31v7.78h-1.09l-.11-1.22h-.05c-.36,.43-.74,.77-1.14,1.02-.4,.26-.87,.38-1.42,.38Z" style="fill: #707070;"/>
      <path d="M113.4,325.19c-.5,0-.86-.15-1.07-.45-.21-.3-.32-.74-.32-1.31v-9.82h1.31v9.92c0,.21,.04,.36,.11,.45,.07,.09,.16,.13,.26,.13h.12s.09,0,.17-.03l.18,.99c-.09,.04-.19,.07-.3,.1-.12,.02-.27,.03-.45,.03Z" style="fill: #707070;"/>
      <path d="M116.76,315.62c-.26,0-.47-.08-.65-.24s-.26-.36-.26-.61,.09-.46,.26-.62,.39-.23,.65-.23,.47,.08,.65,.23,.26,.36,.26,.62-.09,.45-.26,.61-.39,.24-.65,.24Zm-.67,9.38v-7.78h1.31v7.78h-1.31Z" style="fill: #707070;"/>
      <path d="M120.02,325v-7.78h1.09l.11,1.12h.05c.37-.37,.77-.68,1.18-.94,.41-.25,.89-.38,1.43-.38,.82,0,1.42,.26,1.8,.77s.57,1.27,.57,2.27v4.93h-1.31v-4.75c0-.74-.12-1.27-.35-1.59s-.61-.49-1.12-.49c-.41,0-.76,.1-1.07,.3-.31,.2-.66,.5-1.06,.9v5.63h-1.31Z" style="fill: #707070;"/>
      <path d="M128.78,325v-11.39h1.3v7.71h.05l3.31-4.1h1.46l-2.61,3.12,2.96,4.66h-1.44l-2.27-3.74-1.46,1.7v2.05h-1.3Z" style="fill: #707070;"/>
      <g>
        <path d="M21.05,373l3.55-10.5h1.5l3.55,10.5h-1.42l-.99-3.2h-3.82l-1.01,3.2h-1.36Zm3.2-5.87l-.5,1.6h3.15l-.5-1.6c-.19-.59-.37-1.17-.54-1.75-.17-.58-.34-1.18-.51-1.78h-.06c-.16,.61-.33,1.2-.5,1.78s-.35,1.17-.54,1.75Z" style="fill: #707070;"/>
        <path d="M34.09,373.19c-.51,0-.99-.09-1.44-.27-.45-.18-.83-.45-1.16-.79s-.58-.77-.77-1.28c-.19-.51-.28-1.08-.28-1.72s.1-1.23,.3-1.74c.2-.51,.47-.94,.82-1.29,.34-.35,.74-.62,1.19-.8,.45-.18,.93-.27,1.43-.27s.95,.09,1.31,.27c.36,.18,.68,.4,.96,.64l-.67,.86c-.22-.2-.46-.37-.71-.5-.25-.13-.53-.19-.84-.19-.35,0-.68,.07-.98,.22-.3,.14-.55,.35-.77,.62-.21,.27-.38,.58-.5,.95-.12,.37-.18,.78-.18,1.22s.06,.85,.18,1.22c.12,.36,.28,.67,.49,.94,.21,.26,.46,.46,.76,.61,.3,.14,.62,.22,.98,.22s.7-.08,1-.23,.58-.34,.82-.55l.58,.88c-.35,.31-.74,.55-1.17,.73s-.87,.26-1.34,.26Z" style="fill: #707070;"/>
      </g>
      <path d="M40.6,373.19c-.42,0-.77-.06-1.05-.19s-.51-.3-.69-.53c-.18-.22-.3-.5-.38-.82-.08-.32-.11-.67-.11-1.06v-4.3h-1.15v-.99l1.22-.08,.16-2.18h1.1v2.18h2.1v1.07h-2.1v4.32c0,.48,.09,.85,.26,1.11,.18,.26,.49,.39,.94,.39,.14,0,.29-.02,.45-.06,.16-.04,.3-.09,.43-.14l.26,.99c-.21,.07-.45,.14-.7,.2s-.5,.09-.74,.09Z" style="fill: #707070;"/>
      <path d="M44.23,363.62c-.26,0-.47-.08-.65-.24s-.26-.36-.26-.61,.09-.46,.26-.62,.39-.23,.65-.23,.47,.08,.65,.23,.26,.36,.26,.62-.09,.45-.26,.61-.39,.24-.65,.24Zm-.67,9.38v-7.78h1.31v7.78h-1.31Z" style="fill: #707070;"/>
      <path d="M49.18,373l-2.8-7.78h1.36l1.47,4.42c.12,.38,.24,.77,.36,1.15,.12,.38,.24,.76,.36,1.14h.06c.12-.37,.24-.75,.35-1.14s.23-.77,.35-1.15l1.47-4.42h1.3l-2.75,7.78h-1.54Z" style="fill: #707070;"/>
      <path d="M55.64,363.62c-.26,0-.47-.08-.65-.24s-.26-.36-.26-.61,.09-.46,.26-.62,.39-.23,.65-.23,.47,.08,.65,.23,.26,.36,.26,.62-.09,.45-.26,.61-.39,.24-.65,.24Zm-.67,9.38v-7.78h1.31v7.78h-1.31Z" style="fill: #707070;"/>
      <path d="M61.35,373.19c-.42,0-.77-.06-1.05-.19s-.51-.3-.69-.53c-.18-.22-.3-.5-.38-.82-.08-.32-.11-.67-.11-1.06v-4.3h-1.15v-.99l1.22-.08,.16-2.18h1.1v2.18h2.1v1.07h-2.1v4.32c0,.48,.09,.85,.26,1.11,.18,.26,.49,.39,.94,.39,.14,0,.29-.02,.45-.06,.16-.04,.3-.09,.43-.14l.26,.99c-.21,.07-.45,.14-.7,.2s-.5,.09-.74,.09Z" style="fill: #707070;"/>
      <path d="M64.44,376.34c-.18,0-.35-.01-.5-.04-.15-.03-.29-.07-.42-.12l.26-1.04c.08,.02,.18,.05,.29,.07,.11,.03,.21,.04,.3,.04,.45,0,.81-.16,1.1-.47,.28-.31,.5-.71,.66-1.19l.18-.58-3.12-7.79h1.36l1.58,4.3c.12,.34,.24,.7,.38,1.08,.13,.38,.26,.75,.38,1.11h.06c.12-.35,.23-.72,.34-1.1s.21-.75,.32-1.09l1.39-4.3h1.28l-2.93,8.42c-.14,.38-.29,.74-.46,1.07s-.37,.62-.61,.86c-.24,.24-.5,.43-.8,.57-.3,.14-.65,.21-1.04,.21Z" style="fill: #707070;"/>
      <path d="M75.11,373v-10.5h1.6l2.02,5.6c.13,.36,.25,.73,.38,1.1,.12,.37,.25,.73,.38,1.1h.06c.13-.36,.25-.73,.36-1.1,.11-.37,.23-.73,.36-1.1l1.98-5.6h1.62v10.5h-1.25v-5.78c0-.47,.02-.99,.06-1.55s.08-1.08,.11-1.55h-.06l-.83,2.38-1.98,5.44h-.88l-1.98-5.44-.83-2.38h-.06c.03,.47,.07,.99,.1,1.55s.06,1.08,.06,1.55v5.78h-1.2Z" style="fill: #707070;"/>
      <path d="M89.77,373.19c-.52,0-1.01-.09-1.46-.28s-.85-.45-1.18-.8-.6-.77-.79-1.27c-.19-.5-.29-1.07-.29-1.71s.1-1.21,.3-1.72,.46-.94,.78-1.29c.33-.35,.7-.62,1.11-.81,.42-.19,.85-.28,1.3-.28,.49,0,.93,.08,1.32,.26s.71,.42,.98,.74c.26,.32,.46,.7,.6,1.15s.21,.95,.21,1.5c0,.14,0,.28,0,.41,0,.13-.02,.25-.04,.34h-5.25c.05,.83,.31,1.49,.78,1.98,.46,.49,1.07,.73,1.82,.73,.37,0,.72-.06,1.03-.17,.31-.11,.62-.26,.9-.44l.46,.86c-.34,.21-.72,.4-1.14,.56s-.89,.24-1.42,.24Zm-2.45-4.7h4.16c0-.79-.17-1.39-.5-1.8-.34-.41-.81-.62-1.42-.62-.28,0-.54,.05-.79,.16s-.48,.26-.68,.47c-.2,.21-.37,.46-.5,.76-.13,.3-.22,.64-.26,1.02Z" style="fill: #707070;"/>
      <path d="M94.55,373v-7.78h1.09l.11,1.12h.05c.37-.37,.77-.68,1.18-.94,.41-.25,.89-.38,1.43-.38,.82,0,1.42,.26,1.8,.77s.57,1.27,.57,2.27v4.93h-1.31v-4.75c0-.74-.12-1.27-.35-1.59s-.61-.49-1.12-.49c-.41,0-.76,.1-1.07,.3-.31,.2-.66,.5-1.06,.9v5.63h-1.31Z" style="fill: #707070;"/>
      <path d="M105.58,373.19c-.83,0-1.44-.26-1.82-.77-.38-.51-.57-1.27-.57-2.27v-4.93h1.33v4.75c0,.74,.11,1.27,.34,1.59s.6,.49,1.11,.49c.41,0,.76-.1,1.07-.31s.65-.54,1.02-1v-5.52h1.31v7.78h-1.09l-.11-1.22h-.05c-.36,.43-.74,.77-1.14,1.02-.4,.26-.87,.38-1.42,.38Z" style="fill: #707070;"/>
      <path d="M113.4,373.19c-.5,0-.86-.15-1.07-.45-.21-.3-.32-.74-.32-1.31v-9.82h1.31v9.92c0,.21,.04,.36,.11,.45,.07,.09,.16,.13,.26,.13h.12s.09,0,.17-.03l.18,.99c-.09,.04-.19,.07-.3,.1-.12,.02-.27,.03-.45,.03Z" style="fill: #707070;"/>
      <path d="M116.76,363.62c-.26,0-.47-.08-.65-.24s-.26-.36-.26-.61,.09-.46,.26-.62,.39-.23,.65-.23,.47,.08,.65,.23,.26,.36,.26,.62-.09,.45-.26,.61-.39,.24-.65,.24Zm-.67,9.38v-7.78h1.31v7.78h-1.31Z" style="fill: #707070;"/>
      <path d="M120.02,373v-7.78h1.09l.11,1.12h.05c.37-.37,.77-.68,1.18-.94,.41-.25,.89-.38,1.43-.38,.82,0,1.42,.26,1.8,.77s.57,1.27,.57,2.27v4.93h-1.31v-4.75c0-.74-.12-1.27-.35-1.59s-.61-.49-1.12-.49c-.41,0-.76,.1-1.07,.3-.31,.2-.66,.5-1.06,.9v5.63h-1.31Z" style="fill: #707070;"/>
      <path d="M128.78,373v-11.39h1.3v7.71h.05l3.31-4.1h1.46l-2.61,3.12,2.96,4.66h-1.44l-2.27-3.74-1.46,1.7v2.05h-1.3Z" style="fill: #707070;"/>
      <rect y="714" width="1366" height="54" style="fill: #ebebeb;"/>
      <rect x="1077" y="722" width="280" height="38" style="fill: #fff;"/>
      <path d="M602.6,752.36c-1.24,0-2.52-.23-3.83-.68-1.31-.45-2.5-1.15-3.55-2.11l2.94-3.54c.7,.56,1.46,1.01,2.26,1.36,.81,.35,1.58,.53,2.29,.53,.78,0,1.34-.12,1.7-.36,.35-.24,.52-.58,.52-1.02,0-.24-.06-.44-.18-.6s-.29-.31-.53-.45c-.23-.14-.5-.28-.82-.41-.32-.13-.69-.27-1.11-.43l-2.43-1.02c-.52-.2-1.02-.46-1.5-.79-.48-.33-.9-.72-1.26-1.17-.36-.45-.64-.96-.85-1.54s-.32-1.22-.32-1.92c0-.84,.18-1.62,.54-2.36,.36-.73,.86-1.37,1.5-1.92,.64-.55,1.41-.98,2.29-1.3,.89-.32,1.87-.48,2.93-.48,1.12,0,2.25,.21,3.4,.63,1.15,.42,2.17,1.08,3.08,1.98l-2.58,3.24c-.66-.46-1.29-.81-1.91-1.05-.61-.24-1.27-.36-1.99-.36-.64,0-1.14,.11-1.5,.33-.36,.22-.54,.55-.54,.99s.25,.81,.76,1.06,1.21,.54,2.12,.88l2.37,.93c1.22,.48,2.16,1.15,2.82,2.01,.66,.86,.99,1.97,.99,3.33,0,.82-.17,1.61-.51,2.37-.34,.76-.84,1.42-1.49,2-.65,.57-1.45,1.02-2.38,1.36-.94,.34-2.02,.51-3.24,.51Z" style="fill: #707070;"/>
      <path d="M617.54,752.36c-.88,0-1.62-.14-2.21-.41-.59-.27-1.07-.66-1.42-1.16-.36-.5-.62-1.09-.77-1.79-.15-.69-.22-1.46-.22-2.29v-15.6h5.16v15.78c0,.52,.09,.87,.28,1.05,.19,.18,.38,.27,.56,.27h.25c.07,0,.17-.02,.29-.06l.6,3.78c-.28,.12-.62,.22-1.04,.3-.41,.08-.91,.12-1.48,.12Z" style="fill: #707070;"/>
      <path d="M628.52,752.36c-.96,0-1.89-.18-2.79-.53-.9-.35-1.7-.86-2.39-1.53-.69-.67-1.24-1.49-1.65-2.47-.41-.98-.62-2.09-.62-3.33s.21-2.35,.62-3.33c.41-.98,.96-1.8,1.65-2.47,.69-.67,1.49-1.18,2.39-1.53,.9-.35,1.83-.53,2.79-.53s1.88,.18,2.77,.53c.89,.35,1.68,.86,2.37,1.53,.69,.67,1.25,1.5,1.67,2.47,.42,.98,.63,2.09,.63,3.33s-.21,2.35-.63,3.33c-.42,.98-.97,1.8-1.67,2.47-.69,.67-1.48,1.18-2.37,1.53s-1.81,.53-2.77,.53Zm0-4.14c.78,0,1.33-.33,1.67-1,.33-.67,.49-1.58,.49-2.71s-.17-2.04-.49-2.71c-.33-.67-.89-1-1.67-1s-1.33,.33-1.67,1-.5,1.58-.5,2.71,.17,2.04,.5,2.71c.33,.67,.88,1,1.67,1Z" style="fill: #707070;"/>
      <g>
        <path d="M643.94,752.36c-.98,0-1.81-.15-2.5-.44-.69-.29-1.26-.71-1.71-1.25s-.78-1.18-.99-1.93-.31-1.58-.31-2.5v-5.22h-1.98v-3.84l2.28-.18,.6-3.9h4.26v3.9h3.42v4.02h-3.42v5.13c0,.84,.18,1.42,.54,1.72,.36,.31,.78,.46,1.26,.46,.24,0,.47-.02,.71-.08,.23-.05,.43-.1,.61-.17l.78,3.72c-.4,.12-.88,.24-1.44,.36-.56,.12-1.26,.18-2.1,.18Z" style="fill: #707070;"/>
        <path d="M658.82,742.88c-1.06,0-1.86-.38-2.38-1.16-.53-.77-.79-1.84-.79-3.22,0-1.5,.38-2.82,1.14-3.97s1.94-2.11,3.54-2.87l1.08,2.22c-.96,.42-1.68,.94-2.16,1.54-.48,.61-.72,1.37-.72,2.27,.06-.02,.16-.03,.3-.03,.72,0,1.33,.22,1.83,.66,.5,.44,.75,1.04,.75,1.8,0,.84-.24,1.51-.72,2.01-.48,.5-1.1,.75-1.86,.75Zm7.8,0c-1.06,0-1.85-.38-2.38-1.16-.53-.77-.79-1.84-.79-3.22,0-1.5,.38-2.82,1.14-3.97,.76-1.15,1.94-2.11,3.54-2.87l1.08,2.22c-.96,.42-1.68,.94-2.16,1.54-.48,.61-.72,1.37-.72,2.27,.06-.02,.16-.03,.3-.03,.72,0,1.33,.22,1.83,.66,.5,.44,.75,1.04,.75,1.8,0,.84-.24,1.51-.72,2.01-.48,.5-1.1,.75-1.86,.75Z" style="fill: #707070;"/>
      </g>
      <path d="M673.46,752v-10.98h-1.98v-3.84l1.98-.15v-.21c0-.8,.1-1.57,.3-2.29,.2-.73,.53-1.38,1-1.94,.47-.56,1.08-1,1.83-1.33s1.68-.5,2.8-.5c.7,0,1.32,.06,1.86,.18,.54,.12,.98,.24,1.32,.36l-.9,3.78c-.24-.1-.49-.17-.75-.22-.26-.05-.51-.08-.75-.08-.48,0-.86,.13-1.14,.4-.28,.27-.42,.76-.42,1.46v.36h2.52v4.02h-2.52v10.98h-5.16Z" style="fill: #707070;"/>
      <path d="M689.72,752.36c-.96,0-1.89-.18-2.79-.53-.9-.35-1.7-.86-2.39-1.53-.69-.67-1.24-1.49-1.65-2.47-.41-.98-.62-2.09-.62-3.33s.21-2.35,.62-3.33c.41-.98,.96-1.8,1.65-2.47,.69-.67,1.49-1.18,2.39-1.53,.9-.35,1.83-.53,2.79-.53s1.88,.18,2.77,.53c.89,.35,1.68,.86,2.37,1.53,.69,.67,1.25,1.5,1.67,2.47,.42,.98,.63,2.09,.63,3.33s-.21,2.35-.63,3.33c-.42,.98-.97,1.8-1.67,2.47-.69,.67-1.48,1.18-2.37,1.53s-1.81,.53-2.77,.53Zm0-4.14c.78,0,1.33-.33,1.67-1,.33-.67,.49-1.58,.49-2.71s-.17-2.04-.49-2.71c-.33-.67-.89-1-1.67-1s-1.33,.33-1.67,1-.5,1.58-.5,2.71,.17,2.04,.5,2.71c.33,.67,.88,1,1.67,1Z" style="fill: #707070;"/>
      <path d="M706.52,752.36c-.96,0-1.89-.18-2.79-.53-.9-.35-1.7-.86-2.39-1.53-.69-.67-1.24-1.49-1.65-2.47-.41-.98-.62-2.09-.62-3.33s.21-2.35,.62-3.33c.41-.98,.96-1.8,1.65-2.47,.69-.67,1.49-1.18,2.39-1.53,.9-.35,1.83-.53,2.79-.53s1.88,.18,2.77,.53c.89,.35,1.68,.86,2.37,1.53,.69,.67,1.25,1.5,1.67,2.47,.42,.98,.63,2.09,.63,3.33s-.21,2.35-.63,3.33c-.42,.98-.97,1.8-1.67,2.47-.69,.67-1.48,1.18-2.37,1.53s-1.81,.53-2.77,.53Zm0-4.14c.78,0,1.33-.33,1.67-1,.33-.67,.49-1.58,.49-2.71s-.17-2.04-.49-2.71c-.33-.67-.89-1-1.67-1s-1.33,.33-1.67,1-.5,1.58-.5,2.71,.17,2.04,.5,2.71c.33,.67,.88,1,1.67,1Z" style="fill: #707070;"/>
      <path d="M721.94,752.36c-.98,0-1.81-.15-2.5-.44-.69-.29-1.26-.71-1.71-1.25s-.78-1.18-.99-1.93-.31-1.58-.31-2.5v-5.22h-1.98v-3.84l2.28-.18,.6-3.9h4.26v3.9h3.42v4.02h-3.42v5.13c0,.84,.18,1.42,.54,1.72,.36,.31,.78,.46,1.26,.46,.24,0,.47-.02,.71-.08,.23-.05,.43-.1,.61-.17l.78,3.72c-.4,.12-.88,.24-1.44,.36-.56,.12-1.26,.18-2.1,.18Z" style="fill: #707070;"/>
      <path d="M734.12,752.36c-1.1,0-2.12-.18-3.06-.53s-1.75-.86-2.44-1.53c-.69-.67-1.24-1.49-1.64-2.47-.4-.98-.6-2.09-.6-3.33s.21-2.31,.62-3.29c.41-.97,.95-1.79,1.62-2.47,.67-.68,1.43-1.2,2.29-1.56,.86-.36,1.75-.54,2.67-.54,1.1,0,2.06,.19,2.88,.57,.82,.38,1.5,.9,2.04,1.56,.54,.66,.95,1.43,1.21,2.31,.27,.88,.41,1.82,.41,2.82,0,.46-.03,.89-.08,1.29-.05,.4-.09,.69-.13,.87h-8.55c.24,.9,.67,1.53,1.29,1.88,.62,.35,1.35,.53,2.19,.53,.52,0,1.02-.08,1.51-.22,.49-.15,1.01-.38,1.55-.68l1.68,3.06c-.82,.58-1.73,1.02-2.71,1.3-.99,.29-1.91,.44-2.75,.44Zm-2.82-9.66h4.44c0-.58-.15-1.08-.44-1.52-.29-.43-.83-.64-1.6-.64-.58,0-1.08,.17-1.52,.51-.43,.34-.72,.89-.88,1.65Z" style="fill: #707070;"/>
      <path d="M742.94,752v-15h4.2l.36,2.58h.12c.56-1.02,1.22-1.76,2-2.24,.77-.47,1.52-.71,2.26-.71,.46,0,.83,.03,1.11,.08,.28,.05,.53,.12,.75,.23l-.84,4.44c-.28-.06-.54-.11-.79-.17-.25-.05-.55-.08-.89-.08-.54,0-1.1,.19-1.69,.56-.59,.37-1.07,1.02-1.42,1.96v8.34h-5.16Z" style="fill: #707070;"/>
      <path d="M759.14,742.88c-1.06,0-1.86-.38-2.38-1.16-.53-.77-.79-1.84-.79-3.22,0-1.5,.38-2.82,1.14-3.97s1.94-2.11,3.54-2.87l1.08,2.22c-.96,.42-1.68,.94-2.16,1.54-.48,.61-.72,1.37-.72,2.27,.06-.02,.16-.03,.3-.03,.72,0,1.33,.22,1.83,.66,.5,.44,.75,1.04,.75,1.8,0,.84-.24,1.51-.72,2.01-.48,.5-1.1,.75-1.86,.75Zm7.8,0c-1.06,0-1.85-.38-2.38-1.16-.53-.77-.79-1.84-.79-3.22,0-1.5,.38-2.82,1.14-3.97,.76-1.15,1.94-2.11,3.54-2.87l1.08,2.22c-.96,.42-1.68,.94-2.16,1.54-.48,.61-.72,1.37-.72,2.27,.06-.02,.16-.03,.3-.03,.72,0,1.33,.22,1.83,.66,.5,.44,.75,1.04,.75,1.8,0,.84-.24,1.51-.72,2.01-.48,.5-1.1,.75-1.86,.75Z" style="fill: #707070;"/>
      <path d="M1189.38,749.24c-.92,0-1.77-.17-2.56-.52s-1.47-.82-2.04-1.42l1-1.16c.47,.49,1.02,.89,1.65,1.19,.63,.3,1.29,.45,1.97,.45,.87,0,1.54-.2,2.02-.59,.48-.39,.72-.91,.72-1.55,0-.33-.06-.62-.17-.85s-.27-.43-.46-.6c-.19-.17-.42-.32-.69-.45-.27-.13-.55-.27-.86-.42l-1.88-.82c-.31-.13-.62-.29-.94-.48-.32-.19-.61-.41-.86-.68s-.46-.58-.62-.95c-.16-.37-.24-.79-.24-1.27s.1-.95,.31-1.38c.21-.43,.49-.8,.86-1.11,.37-.31,.8-.56,1.3-.73,.5-.17,1.05-.26,1.65-.26,.79,0,1.51,.15,2.18,.45,.67,.3,1.23,.69,1.7,1.17l-.9,1.08c-.4-.39-.84-.69-1.33-.91-.49-.22-1.04-.33-1.65-.33-.73,0-1.32,.17-1.77,.51-.45,.34-.67,.81-.67,1.41,0,.32,.06,.59,.19,.81s.3,.41,.51,.58c.21,.17,.45,.31,.7,.44,.25,.13,.51,.24,.78,.35l1.86,.8c.37,.16,.73,.34,1.06,.55,.33,.21,.62,.45,.86,.72,.24,.27,.43,.59,.57,.96,.14,.37,.21,.79,.21,1.27,0,.52-.1,1.01-.31,1.46s-.5,.85-.89,1.19c-.39,.34-.85,.61-1.4,.8s-1.17,.29-1.86,.29Z" style="fill: #707070;"/>
      <path d="M1198,749.24c-.63,0-1.07-.19-1.34-.56s-.4-.92-.4-1.64v-12.28h1.64v12.4c0,.27,.05,.45,.14,.56,.09,.11,.2,.16,.32,.16h.15s.12-.01,.21-.04l.22,1.24c-.11,.05-.23,.09-.38,.12-.15,.03-.33,.04-.56,.04Z" style="fill: #707070;"/>
      <path d="M1205.14,749.24c-.6,0-1.17-.11-1.71-.34s-1.02-.56-1.43-.99c-.41-.43-.74-.97-.99-1.6-.25-.63-.37-1.35-.37-2.15s.12-1.54,.37-2.17c.25-.63,.58-1.17,.99-1.61,.41-.44,.89-.77,1.43-1s1.11-.34,1.71-.34,1.17,.11,1.71,.34,1.02,.56,1.43,1c.41,.44,.74,.98,.99,1.61,.25,.63,.37,1.36,.37,2.17s-.12,1.52-.37,2.15c-.25,.63-.58,1.17-.99,1.6s-.89,.76-1.43,.99-1.11,.34-1.71,.34Zm0-1.36c.41,0,.79-.09,1.14-.27,.35-.18,.64-.43,.89-.76,.25-.33,.44-.72,.57-1.17,.13-.45,.2-.96,.2-1.52s-.07-1.07-.2-1.53c-.13-.46-.32-.86-.57-1.19-.25-.33-.54-.59-.89-.77s-.73-.27-1.14-.27-.79,.09-1.14,.27-.64,.44-.89,.77c-.25,.33-.44,.73-.57,1.19-.13,.46-.2,.97-.2,1.53s.07,1.07,.2,1.52c.13,.45,.32,.84,.57,1.17,.25,.33,.54,.58,.89,.76,.35,.18,.73,.27,1.14,.27Z" style="fill: #707070;"/>
      <path d="M1214.92,749.24c-.52,0-.96-.08-1.31-.24s-.64-.38-.86-.66c-.22-.28-.38-.62-.47-1.02-.09-.4-.14-.84-.14-1.32v-5.38h-1.44v-1.24l1.52-.1,.2-2.72h1.38v2.72h2.62v1.34h-2.62v5.4c0,.6,.11,1.06,.33,1.39s.61,.49,1.17,.49c.17,0,.36-.03,.56-.08,.2-.05,.38-.11,.54-.18l.32,1.24c-.27,.09-.56,.18-.87,.25s-.62,.11-.93,.11Z" style="fill: #707070;"/>
      <g/>
      <path d="M1223.38,740.44c-.4,0-.71-.15-.93-.46-.22-.31-.33-.75-.33-1.34,0-.8,.18-1.49,.54-2.08,.36-.59,.89-1.08,1.58-1.48l.48,.78c-.51,.33-.89,.69-1.14,1.07-.25,.38-.38,.85-.38,1.41,.04-.01,.1-.02,.18-.02,.27,0,.51,.09,.73,.26,.22,.17,.33,.43,.33,.76s-.1,.62-.3,.81-.45,.29-.76,.29Zm3.52,0c-.4,0-.71-.15-.93-.46-.22-.31-.33-.75-.33-1.34,0-.8,.18-1.49,.54-2.08,.36-.59,.89-1.08,1.58-1.48l.48,.78c-.51,.33-.89,.69-1.14,1.07-.25,.38-.38,.85-.38,1.41,.04-.01,.1-.02,.18-.02,.27,0,.51,.09,.73,.26,.22,.17,.33,.43,.33,.76s-.1,.62-.3,.81c-.2,.19-.45,.29-.76,.29Z" style="fill: #707070;"/>
      <path d="M1231.12,749v-8.38h-1.32v-1.24l1.32-.1v-1.54c0-1,.23-1.79,.69-2.36s1.18-.86,2.15-.86c.31,0,.6,.03,.87,.09,.27,.06,.52,.14,.75,.23l-.36,1.26c-.36-.16-.73-.24-1.1-.24-.91,0-1.36,.63-1.36,1.88v1.54h2.06v1.34h-2.06v8.38h-1.64Z" style="fill: #707070;"/>
      <path d="M1240.26,749.24c-.6,0-1.17-.11-1.71-.34s-1.02-.56-1.43-.99c-.41-.43-.74-.97-.99-1.6-.25-.63-.37-1.35-.37-2.15s.12-1.54,.37-2.17c.25-.63,.58-1.17,.99-1.61,.41-.44,.89-.77,1.43-1s1.11-.34,1.71-.34,1.17,.11,1.71,.34,1.02,.56,1.43,1c.41,.44,.74,.98,.99,1.61,.25,.63,.37,1.36,.37,2.17s-.12,1.52-.37,2.15c-.25,.63-.58,1.17-.99,1.6s-.89,.76-1.43,.99-1.11,.34-1.71,.34Zm0-1.36c.41,0,.79-.09,1.14-.27,.35-.18,.64-.43,.89-.76,.25-.33,.44-.72,.57-1.17,.13-.45,.2-.96,.2-1.52s-.07-1.07-.2-1.53c-.13-.46-.32-.86-.57-1.19-.25-.33-.54-.59-.89-.77s-.73-.27-1.14-.27-.79,.09-1.14,.27-.64,.44-.89,.77c-.25,.33-.44,.73-.57,1.19-.13,.46-.2,.97-.2,1.53s.07,1.07,.2,1.52c.13,.45,.32,.84,.57,1.17,.25,.33,.54,.58,.89,.76,.35,.18,.73,.27,1.14,.27Z" style="fill: #707070;"/>
      <path d="M1251.1,749.24c-.6,0-1.17-.11-1.71-.34s-1.02-.56-1.43-.99c-.41-.43-.74-.97-.99-1.6-.25-.63-.37-1.35-.37-2.15s.12-1.54,.37-2.17c.25-.63,.58-1.17,.99-1.61,.41-.44,.89-.77,1.43-1s1.11-.34,1.71-.34,1.17,.11,1.71,.34,1.02,.56,1.43,1c.41,.44,.74,.98,.99,1.61,.25,.63,.37,1.36,.37,2.17s-.12,1.52-.37,2.15c-.25,.63-.58,1.17-.99,1.6s-.89,.76-1.43,.99-1.11,.34-1.71,.34Zm0-1.36c.41,0,.79-.09,1.14-.27,.35-.18,.64-.43,.89-.76,.25-.33,.44-.72,.57-1.17,.13-.45,.2-.96,.2-1.52s-.07-1.07-.2-1.53c-.13-.46-.32-.86-.57-1.19-.25-.33-.54-.59-.89-.77s-.73-.27-1.14-.27-.79,.09-1.14,.27-.64,.44-.89,.77c-.25,.33-.44,.73-.57,1.19-.13,.46-.2,.97-.2,1.53s.07,1.07,.2,1.52c.13,.45,.32,.84,.57,1.17,.25,.33,.54,.58,.89,.76,.35,.18,.73,.27,1.14,.27Z" style="fill: #707070;"/>
      <path d="M1260.88,749.24c-.52,0-.96-.08-1.31-.24s-.64-.38-.86-.66c-.22-.28-.38-.62-.47-1.02-.09-.4-.14-.84-.14-1.32v-5.38h-1.44v-1.24l1.52-.1,.2-2.72h1.38v2.72h2.62v1.34h-2.62v5.4c0,.6,.11,1.06,.33,1.39s.61,.49,1.17,.49c.17,0,.36-.03,.56-.08,.2-.05,.38-.11,.54-.18l.32,1.24c-.27,.09-.56,.18-.87,.25s-.62,.11-.93,.11Z" style="fill: #707070;"/>
      <path d="M1268.24,749.24c-.65,0-1.26-.12-1.83-.35-.57-.23-1.06-.57-1.48-1-.42-.43-.75-.96-.99-1.59-.24-.63-.36-1.34-.36-2.14s.12-1.52,.37-2.15c.25-.63,.57-1.17,.98-1.61,.41-.44,.87-.78,1.39-1.01,.52-.23,1.06-.35,1.62-.35,.61,0,1.16,.11,1.65,.32,.49,.21,.89,.52,1.22,.92,.33,.4,.58,.88,.75,1.44,.17,.56,.26,1.19,.26,1.88,0,.17,0,.34,0,.51,0,.17-.02,.31-.05,.43h-6.56c.07,1.04,.39,1.86,.97,2.47,.58,.61,1.34,.91,2.27,.91,.47,0,.9-.07,1.29-.21,.39-.14,.77-.32,1.13-.55l.58,1.08c-.43,.27-.9,.5-1.42,.7-.52,.2-1.11,.3-1.78,.3Zm-3.06-5.88h5.2c0-.99-.21-1.74-.63-2.25-.42-.51-1.01-.77-1.77-.77-.35,0-.68,.07-.99,.2-.31,.13-.6,.33-.85,.59-.25,.26-.46,.58-.63,.95-.17,.37-.28,.8-.33,1.28Z" style="fill: #707070;"/>
      <path d="M1274.22,749v-9.72h1.36l.14,1.76h.06c.33-.61,.74-1.1,1.21-1.46,.47-.36,.99-.54,1.55-.54,.39,0,.73,.07,1.04,.2l-.32,1.44c-.16-.05-.31-.09-.44-.12-.13-.03-.3-.04-.5-.04-.41,0-.84,.17-1.29,.5-.45,.33-.84,.91-1.17,1.74v6.24h-1.64Z" style="fill: #707070;"/>
      <path d="M1279.86,744.62v-1.26h4.6v1.26h-4.6Z" style="fill: #707070;"/>
      <path d="M1288.64,749.24c-.63,0-1.07-.19-1.34-.56s-.4-.92-.4-1.64v-12.28h1.64v12.4c0,.27,.05,.45,.14,.56,.09,.11,.2,.16,.32,.16h.15s.12-.01,.21-.04l.22,1.24c-.11,.05-.23,.09-.38,.12-.15,.03-.33,.04-.56,.04Z" style="fill: #707070;"/>
      <path d="M1292.84,737.28c-.32,0-.59-.1-.81-.3-.22-.2-.33-.45-.33-.76s.11-.58,.33-.77,.49-.29,.81-.29,.59,.1,.81,.29,.33,.45,.33,.77-.11,.56-.33,.76c-.22,.2-.49,.3-.81,.3Zm-.84,11.72v-9.72h1.64v9.72h-1.64Z" style="fill: #707070;"/>
      <path d="M1296.92,749v-9.72h1.36l.14,1.4h.06c.47-.47,.96-.86,1.47-1.17,.51-.31,1.11-.47,1.79-.47,1.03,0,1.78,.32,2.25,.96s.71,1.59,.71,2.84v6.16h-1.64v-5.94c0-.92-.15-1.58-.44-1.99-.29-.41-.76-.61-1.4-.61-.51,0-.95,.13-1.34,.38-.39,.25-.83,.63-1.32,1.12v7.04h-1.64Z" style="fill: #707070;"/>
      <path d="M1307.86,749v-14.24h1.62v9.64h.06l4.14-5.12h1.82l-3.26,3.9,3.7,5.82h-1.8l-2.84-4.68-1.82,2.12v2.56h-1.62Z" style="fill: #707070;"/>
      <path d="M1320.3,749.24c-.69,0-1.35-.13-1.98-.38-.63-.25-1.17-.57-1.64-.96l.82-1.1c.43,.35,.86,.63,1.31,.84,.45,.21,.96,.32,1.55,.32,.64,0,1.12-.15,1.44-.44,.32-.29,.48-.65,.48-1.08,0-.25-.07-.47-.2-.66-.13-.19-.3-.35-.51-.49-.21-.14-.44-.26-.71-.37-.27-.11-.53-.21-.8-.32-.35-.12-.69-.26-1.04-.41-.35-.15-.66-.34-.93-.56s-.5-.48-.67-.77c-.17-.29-.26-.65-.26-1.06,0-.39,.08-.75,.23-1.09s.37-.63,.66-.88c.29-.25,.64-.44,1.05-.58,.41-.14,.88-.21,1.4-.21,.61,0,1.18,.11,1.69,.32,.51,.21,.96,.47,1.33,.78l-.78,1.04c-.33-.25-.68-.46-1.04-.62-.36-.16-.75-.24-1.18-.24-.61,0-1.06,.14-1.35,.42-.29,.28-.43,.61-.43,.98,0,.23,.06,.42,.18,.59,.12,.17,.28,.31,.48,.44s.43,.24,.69,.34c.26,.1,.53,.2,.81,.31,.35,.13,.7,.27,1.05,.42s.67,.33,.95,.55c.28,.22,.51,.49,.69,.81,.18,.32,.27,.71,.27,1.16,0,.4-.08,.77-.23,1.12s-.38,.65-.68,.92-.67,.48-1.12,.63c-.45,.15-.96,.23-1.53,.23Z" style="fill: #707070;"/>
      <path d="M1326.9,740.44c-.4,0-.71-.15-.93-.46-.22-.31-.33-.75-.33-1.34,0-.8,.18-1.49,.54-2.08,.36-.59,.89-1.08,1.58-1.48l.48,.78c-.51,.33-.89,.69-1.14,1.07-.25,.38-.38,.85-.38,1.41,.04-.01,.1-.02,.18-.02,.27,0,.51,.09,.73,.26,.22,.17,.33,.43,.33,.76s-.1,.62-.3,.81-.45,.29-.76,.29Zm3.52,0c-.4,0-.71-.15-.93-.46-.22-.31-.33-.75-.33-1.34,0-.8,.18-1.49,.54-2.08,.36-.59,.89-1.08,1.58-1.48l.48,.78c-.51,.33-.89,.69-1.14,1.07-.25,.38-.38,.85-.38,1.41,.04-.01,.1-.02,.18-.02,.27,0,.51,.09,.73,.26,.22,.17,.33,.43,.33,.76s-.1,.62-.3,.81c-.2,.19-.45,.29-.76,.29Z" style="fill: #707070;"/>
      <rect width="1366" height="196" style="fill: #ebebeb;"/>
      <rect x="62" y="148" width="1242" height="38" style="fill: #fff;"/>
      <path d="M599.84,178v-19.68h2.49v8.25h9.15v-8.25h2.52v19.68h-2.52v-9.27h-9.15v9.27h-2.49Z" style="fill: #707070;"/>
      <path d="M619.07,178v-2.04h4.38v-14.1h-3.48v-1.59c.88-.16,1.65-.35,2.3-.58,.65-.23,1.23-.5,1.75-.82h1.89v17.1h3.96v2.04h-10.8Z" style="fill: #707070;"/>
      <path d="M645.77,178.36c-1.38,0-2.66-.26-3.84-.78-1.18-.52-2.2-1.23-3.06-2.13l1.5-1.74c.7,.74,1.53,1.33,2.48,1.79,.95,.45,1.93,.67,2.96,.67,1.3,0,2.31-.29,3.03-.88,.72-.59,1.08-1.37,1.08-2.33,0-.5-.08-.92-.25-1.28-.17-.35-.4-.65-.69-.9-.29-.25-.64-.47-1.04-.67-.4-.2-.83-.41-1.29-.63l-2.82-1.23c-.46-.2-.93-.44-1.41-.72-.48-.28-.91-.62-1.29-1.02-.38-.4-.69-.87-.93-1.42-.24-.55-.36-1.18-.36-1.91s.16-1.43,.46-2.07c.31-.64,.74-1.2,1.29-1.67s1.2-.83,1.95-1.1c.75-.26,1.58-.39,2.48-.39,1.18,0,2.27,.22,3.27,.67s1.85,1.04,2.55,1.75l-1.35,1.62c-.6-.58-1.27-1.04-2-1.37-.73-.33-1.56-.49-2.47-.49-1.1,0-1.99,.25-2.66,.76-.67,.51-1,1.21-1,2.12,0,.48,.09,.88,.29,1.21,.19,.33,.44,.62,.76,.87,.32,.25,.67,.47,1.05,.66,.38,.19,.77,.37,1.17,.52l2.79,1.2c.56,.24,1.09,.52,1.59,.83,.5,.31,.93,.67,1.29,1.08,.36,.41,.65,.89,.86,1.44,.21,.55,.31,1.19,.31,1.91,0,.78-.15,1.51-.46,2.19s-.75,1.27-1.33,1.78c-.58,.51-1.28,.91-2.1,1.2-.82,.29-1.75,.44-2.79,.44Z" style="fill: #707070;"/>
      <path d="M658.7,178.36c-.94,0-1.61-.28-2.01-.84-.4-.56-.6-1.38-.6-2.46v-18.42h2.46v18.6c0,.4,.07,.68,.21,.84s.3,.24,.48,.24h.22c.07,0,.17-.02,.32-.06l.33,1.86c-.16,.08-.35,.14-.57,.18-.22,.04-.5,.06-.84,.06Z" style="fill: #707070;"/>
      <path d="M669.41,178.36c-.9,0-1.75-.17-2.56-.51-.81-.34-1.53-.83-2.15-1.48s-1.12-1.45-1.49-2.4c-.37-.95-.55-2.02-.55-3.22s.18-2.3,.55-3.25,.87-1.75,1.49-2.42,1.33-1.16,2.15-1.5c.81-.34,1.67-.51,2.56-.51s1.75,.17,2.57,.51c.81,.34,1.52,.84,2.14,1.5s1.12,1.46,1.49,2.42,.55,2.04,.55,3.25-.18,2.28-.55,3.22c-.37,.95-.87,1.75-1.49,2.4s-1.33,1.14-2.14,1.48c-.81,.34-1.67,.51-2.57,.51Zm0-2.04c.62,0,1.19-.14,1.71-.41,.52-.27,.96-.65,1.33-1.14s.66-1.08,.86-1.76c.2-.68,.3-1.44,.3-2.28s-.1-1.61-.3-2.29c-.2-.69-.49-1.29-.86-1.79s-.82-.88-1.33-1.16c-.52-.27-1.09-.41-1.71-.41s-1.19,.14-1.71,.41c-.52,.27-.96,.66-1.33,1.16s-.66,1.09-.85,1.79c-.2,.69-.3,1.46-.3,2.29s.1,1.6,.3,2.28c.2,.68,.48,1.27,.85,1.76s.81,.87,1.33,1.14c.52,.27,1.09,.41,1.71,.41Z" style="fill: #707070;"/>
      <path d="M684.08,178.36c-.78,0-1.44-.12-1.96-.36-.53-.24-.96-.57-1.29-.99s-.57-.93-.71-1.53c-.14-.6-.21-1.26-.21-1.98v-8.07h-2.16v-1.86l2.28-.15,.3-4.08h2.07v4.08h3.93v2.01h-3.93v8.1c0,.9,.17,1.59,.5,2.08s.92,.73,1.75,.73c.26,0,.54-.04,.84-.12s.57-.17,.81-.27l.48,1.86c-.4,.14-.83,.26-1.3,.38-.47,.11-.94,.17-1.4,.17Z" style="fill: #707070;"/>
      <g>
        <path d="M696.77,165.16c-.6,0-1.06-.23-1.39-.69-.33-.46-.5-1.13-.5-2.01,0-1.2,.27-2.24,.81-3.12,.54-.88,1.33-1.62,2.37-2.22l.72,1.17c-.76,.5-1.33,1.04-1.71,1.6-.38,.57-.57,1.28-.57,2.12,.06-.02,.15-.03,.27-.03,.4,0,.77,.13,1.1,.39s.5,.64,.5,1.14-.15,.93-.45,1.21c-.3,.29-.68,.44-1.14,.44Zm5.28,0c-.6,0-1.06-.23-1.39-.69-.33-.46-.5-1.13-.5-2.01,0-1.2,.27-2.24,.81-3.12,.54-.88,1.33-1.62,2.37-2.22l.72,1.17c-.76,.5-1.33,1.04-1.71,1.6-.38,.57-.57,1.28-.57,2.12,.06-.02,.15-.03,.27-.03,.4,0,.76,.13,1.09,.39s.5,.64,.5,1.14-.15,.93-.45,1.21c-.3,.29-.68,.44-1.14,.44Z" style="fill: #707070;"/>
        <path d="M712.97,178.36c-.78,0-1.44-.12-1.96-.36-.53-.24-.96-.57-1.29-.99s-.57-.93-.71-1.53c-.14-.6-.21-1.26-.21-1.98v-8.07h-2.16v-1.86l2.28-.15,.3-4.08h2.07v4.08h3.93v2.01h-3.93v8.1c0,.9,.17,1.59,.5,2.08s.92,.73,1.75,.73c.26,0,.54-.04,.84-.12s.57-.17,.81-.27l.48,1.86c-.4,.14-.83,.26-1.3,.38-.47,.11-.94,.17-1.4,.17Z" style="fill: #707070;"/>
      </g>
      <path d="M719.78,160.42c-.48,0-.88-.15-1.21-.45s-.5-.68-.5-1.14,.17-.87,.5-1.16c.33-.29,.74-.43,1.21-.43s.89,.15,1.21,.43c.33,.29,.5,.67,.5,1.16s-.17,.84-.5,1.14c-.33,.3-.73,.45-1.21,.45Zm-1.26,17.58v-14.58h2.46v14.58h-2.46Z" style="fill: #707070;"/>
      <path d="M730.49,178.36c-.78,0-1.44-.12-1.96-.36-.53-.24-.96-.57-1.29-.99s-.57-.93-.71-1.53c-.14-.6-.21-1.26-.21-1.98v-8.07h-2.16v-1.86l2.28-.15,.3-4.08h2.07v4.08h3.93v2.01h-3.93v8.1c0,.9,.17,1.59,.5,2.08s.92,.73,1.75,.73c.26,0,.54-.04,.84-.12s.57-.17,.81-.27l.48,1.86c-.4,.14-.83,.26-1.3,.38-.47,.11-.94,.17-1.4,.17Z" style="fill: #707070;"/>
      <path d="M738.65,178.36c-.94,0-1.61-.28-2.01-.84-.4-.56-.6-1.38-.6-2.46v-18.42h2.46v18.6c0,.4,.07,.68,.21,.84s.3,.24,.48,.24h.22c.07,0,.17-.02,.32-.06l.33,1.86c-.16,.08-.35,.14-.57,.18-.22,.04-.5,.06-.84,.06Z" style="fill: #707070;"/>
      <path d="M749.6,178.36c-.98,0-1.9-.18-2.75-.53-.85-.35-1.59-.85-2.22-1.5-.63-.65-1.12-1.44-1.49-2.38s-.54-2.01-.54-3.21,.18-2.28,.55-3.23c.37-.95,.86-1.75,1.47-2.42,.61-.66,1.3-1.16,2.08-1.51,.78-.35,1.59-.53,2.43-.53,.92,0,1.75,.16,2.47,.48,.73,.32,1.34,.78,1.83,1.38s.87,1.32,1.12,2.16,.39,1.78,.39,2.82c0,.26,0,.51-.02,.76s-.04,.46-.07,.64h-9.84c.1,1.56,.58,2.8,1.46,3.71,.87,.91,2,1.37,3.41,1.37,.7,0,1.34-.1,1.94-.31,.59-.21,1.15-.49,1.69-.83l.87,1.62c-.64,.4-1.35,.75-2.13,1.05s-1.67,.45-2.67,.45Zm-4.59-8.82h7.8c0-1.48-.32-2.6-.95-3.38-.63-.77-1.51-1.16-2.65-1.16-.52,0-1.02,.1-1.49,.3-.47,.2-.9,.5-1.28,.89-.38,.39-.7,.87-.94,1.42-.25,.56-.42,1.2-.5,1.92Z" style="fill: #707070;"/>
      <path d="M759.71,165.16c-.6,0-1.06-.23-1.39-.69-.33-.46-.5-1.13-.5-2.01,0-1.2,.27-2.24,.81-3.12,.54-.88,1.33-1.62,2.37-2.22l.72,1.17c-.76,.5-1.33,1.04-1.71,1.6-.38,.57-.57,1.28-.57,2.12,.06-.02,.15-.03,.27-.03,.4,0,.77,.13,1.1,.39s.5,.64,.5,1.14-.15,.93-.45,1.21c-.3,.29-.68,.44-1.14,.44Zm5.28,0c-.6,0-1.06-.23-1.39-.69-.33-.46-.5-1.13-.5-2.01,0-1.2,.27-2.24,.81-3.12,.54-.88,1.33-1.62,2.37-2.22l.72,1.17c-.76,.5-1.33,1.04-1.71,1.6-.38,.57-.57,1.28-.57,2.12,.06-.02,.15-.03,.27-.03,.4,0,.76,.13,1.09,.39s.5,.64,.5,1.14-.15,.93-.45,1.21c-.3,.29-.68,.44-1.14,.44Z" style="fill: #707070;"/>
      <rect x="693" y="64" width="611" height="77" style="fill: #fff;"/>
      <rect x="62" y="64" width="611" height="77" style="fill: #fff;"/>
      <path d="M1108.77,110.24c-.92,0-1.77-.17-2.56-.52s-1.47-.82-2.04-1.42l1-1.16c.47,.49,1.02,.89,1.65,1.19,.63,.3,1.29,.45,1.97,.45,.87,0,1.54-.2,2.02-.59,.48-.39,.72-.91,.72-1.55,0-.33-.06-.62-.17-.85s-.27-.43-.46-.6c-.19-.17-.42-.32-.69-.45-.27-.13-.55-.27-.86-.42l-1.88-.82c-.31-.13-.62-.29-.94-.48-.32-.19-.61-.41-.86-.68s-.46-.58-.62-.95c-.16-.37-.24-.79-.24-1.27s.1-.95,.31-1.38c.21-.43,.49-.8,.86-1.11,.37-.31,.8-.56,1.3-.73,.5-.17,1.05-.26,1.65-.26,.79,0,1.51,.15,2.18,.45,.67,.3,1.23,.69,1.7,1.17l-.9,1.08c-.4-.39-.84-.69-1.33-.91-.49-.22-1.04-.33-1.65-.33-.73,0-1.32,.17-1.77,.51-.45,.34-.67,.81-.67,1.41,0,.32,.06,.59,.19,.81s.3,.41,.51,.58c.21,.17,.45,.31,.7,.44,.25,.13,.51,.24,.78,.35l1.86,.8c.37,.16,.73,.34,1.06,.55,.33,.21,.62,.45,.86,.72,.24,.27,.43,.59,.57,.96,.14,.37,.21,.79,.21,1.27,0,.52-.1,1.01-.31,1.46s-.5,.85-.89,1.19c-.39,.34-.85,.61-1.4,.8s-1.17,.29-1.86,.29Z" style="fill: #707070;"/>
      <path d="M1117.39,110.24c-.63,0-1.07-.19-1.34-.56s-.4-.92-.4-1.64v-12.28h1.64v12.4c0,.27,.05,.45,.14,.56,.09,.11,.2,.16,.32,.16h.15s.12-.01,.21-.04l.22,1.24c-.11,.05-.23,.09-.38,.12-.15,.03-.33,.04-.56,.04Z" style="fill: #707070;"/>
      <path d="M1124.53,110.24c-.6,0-1.17-.11-1.71-.34s-1.02-.56-1.43-.99c-.41-.43-.74-.97-.99-1.6-.25-.63-.37-1.35-.37-2.15s.12-1.54,.37-2.17c.25-.63,.58-1.17,.99-1.61,.41-.44,.89-.77,1.43-1s1.11-.34,1.71-.34,1.17,.11,1.71,.34,1.02,.56,1.43,1c.41,.44,.74,.98,.99,1.61,.25,.63,.37,1.36,.37,2.17s-.12,1.52-.37,2.15c-.25,.63-.58,1.17-.99,1.6s-.89,.76-1.43,.99-1.11,.34-1.71,.34Zm0-1.36c.41,0,.79-.09,1.14-.27,.35-.18,.64-.43,.89-.76,.25-.33,.44-.72,.57-1.17,.13-.45,.2-.96,.2-1.52s-.07-1.07-.2-1.53c-.13-.46-.32-.86-.57-1.19-.25-.33-.54-.59-.89-.77s-.73-.27-1.14-.27-.79,.09-1.14,.27-.64,.44-.89,.77c-.25,.33-.44,.73-.57,1.19-.13,.46-.2,.97-.2,1.53s.07,1.07,.2,1.52c.13,.45,.32,.84,.57,1.17,.25,.33,.54,.58,.89,.76,.35,.18,.73,.27,1.14,.27Z" style="fill: #707070;"/>
      <path d="M1134.31,110.24c-.52,0-.96-.08-1.31-.24s-.64-.38-.86-.66c-.22-.28-.38-.62-.47-1.02-.09-.4-.14-.84-.14-1.32v-5.38h-1.44v-1.24l1.52-.1,.2-2.72h1.38v2.72h2.62v1.34h-2.62v5.4c0,.6,.11,1.06,.33,1.39s.61,.49,1.17,.49c.17,0,.36-.03,.56-.08,.2-.05,.38-.11,.54-.18l.32,1.24c-.27,.09-.56,.18-.87,.25s-.62,.11-.93,.11Z" style="fill: #707070;"/>
      <g>
        <path d="M1142.77,101.44c-.4,0-.71-.15-.93-.46-.22-.31-.33-.75-.33-1.34,0-.8,.18-1.49,.54-2.08,.36-.59,.89-1.08,1.58-1.48l.48,.78c-.51,.33-.89,.69-1.14,1.07-.25,.38-.38,.85-.38,1.41,.04-.01,.1-.02,.18-.02,.27,0,.51,.09,.73,.26,.22,.17,.33,.43,.33,.76s-.1,.62-.3,.81-.45,.29-.76,.29Zm3.52,0c-.4,0-.71-.15-.93-.46-.22-.31-.33-.75-.33-1.34,0-.8,.18-1.49,.54-2.08,.36-.59,.89-1.08,1.58-1.48l.48,.78c-.51,.33-.89,.69-1.14,1.07-.25,.38-.38,.85-.38,1.41,.04-.01,.1-.02,.18-.02,.27,0,.51,.09,.73,.26,.22,.17,.33,.43,.33,.76s-.1,.62-.3,.81c-.2,.19-.45,.29-.76,.29Z" style="fill: #707070;"/>
        <path d="M1152.25,110.24c-.63,0-1.07-.19-1.34-.56s-.4-.92-.4-1.64v-12.28h1.64v12.4c0,.27,.05,.45,.14,.56,.09,.11,.2,.16,.32,.16h.15s.12-.01,.21-.04l.22,1.24c-.11,.05-.23,.09-.38,.12-.15,.03-.33,.04-.56,.04Z" style="fill: #707070;"/>
      </g>
      <path d="M1159.39,110.24c-.6,0-1.17-.11-1.71-.34s-1.02-.56-1.43-.99c-.41-.43-.74-.97-.99-1.6-.25-.63-.37-1.35-.37-2.15s.12-1.54,.37-2.17c.25-.63,.58-1.17,.99-1.61,.41-.44,.89-.77,1.43-1s1.11-.34,1.71-.34,1.17,.11,1.71,.34,1.02,.56,1.43,1c.41,.44,.74,.98,.99,1.61,.25,.63,.37,1.36,.37,2.17s-.12,1.52-.37,2.15c-.25,.63-.58,1.17-.99,1.6s-.89,.76-1.43,.99-1.11,.34-1.71,.34Zm0-1.36c.41,0,.79-.09,1.14-.27,.35-.18,.64-.43,.89-.76,.25-.33,.44-.72,.57-1.17,.13-.45,.2-.96,.2-1.52s-.07-1.07-.2-1.53c-.13-.46-.32-.86-.57-1.19-.25-.33-.54-.59-.89-.77s-.73-.27-1.14-.27-.79,.09-1.14,.27-.64,.44-.89,.77c-.25,.33-.44,.73-.57,1.19-.13,.46-.2,.97-.2,1.53s.07,1.07,.2,1.52c.13,.45,.32,.84,.57,1.17,.25,.33,.54,.58,.89,.76,.35,.18,.73,.27,1.14,.27Z" style="fill: #707070;"/>
      <path d="M1169.73,114.48c-.6,0-1.15-.06-1.64-.17-.49-.11-.92-.28-1.27-.51s-.63-.5-.82-.82c-.19-.32-.29-.69-.29-1.12s.13-.81,.38-1.18c.25-.37,.6-.71,1.04-1.02v-.08c-.24-.15-.44-.35-.61-.61-.17-.26-.25-.58-.25-.97,0-.41,.11-.77,.34-1.08s.47-.55,.72-.72v-.08c-.32-.27-.61-.62-.87-1.07-.26-.45-.39-.96-.39-1.55,0-.53,.1-1.01,.29-1.44,.19-.43,.46-.79,.79-1.09s.72-.53,1.17-.69c.45-.16,.92-.24,1.41-.24,.27,0,.52,.02,.75,.07s.44,.1,.63,.17h3.38v1.26h-2c.23,.23,.42,.51,.57,.86s.23,.73,.23,1.14c0,.52-.09,.99-.28,1.41-.19,.42-.44,.77-.76,1.06-.32,.29-.7,.51-1.13,.67-.43,.16-.9,.24-1.39,.24-.24,0-.49-.03-.74-.09-.25-.06-.49-.14-.72-.25-.17,.15-.32,.31-.44,.49-.12,.18-.18,.4-.18,.67,0,.31,.12,.56,.36,.76s.69,.3,1.36,.3h1.88c1.13,0,1.98,.18,2.55,.55,.57,.37,.85,.96,.85,1.77,0,.45-.11,.88-.34,1.29-.23,.41-.55,.76-.98,1.07-.43,.31-.94,.55-1.55,.73s-1.29,.27-2.05,.27Zm.24-1.14c.47,0,.89-.06,1.27-.17s.7-.26,.97-.44c.27-.18,.47-.39,.62-.63,.15-.24,.22-.49,.22-.74,0-.45-.17-.77-.5-.94-.33-.17-.82-.26-1.46-.26h-1.68c-.19,0-.39,0-.61-.03-.22-.02-.44-.06-.65-.13-.35,.25-.6,.52-.76,.8s-.24,.56-.24,.84c0,.52,.25,.93,.75,1.24s1.19,.46,2.07,.46Zm-.24-7.52c.28,0,.54-.05,.79-.16s.47-.26,.66-.46,.34-.44,.45-.73c.11-.29,.16-.61,.16-.97,0-.72-.2-1.28-.6-1.67-.4-.39-.89-.59-1.46-.59s-1.06,.2-1.46,.59-.6,.95-.6,1.67c0,.36,.05,.68,.16,.97,.11,.29,.26,.53,.45,.73s.41,.35,.66,.46,.51,.16,.79,.16Z" style="fill: #707070;"/>
      <path d="M1180.03,110.24c-.6,0-1.17-.11-1.71-.34s-1.02-.56-1.43-.99c-.41-.43-.74-.97-.99-1.6-.25-.63-.37-1.35-.37-2.15s.12-1.54,.37-2.17c.25-.63,.58-1.17,.99-1.61,.41-.44,.89-.77,1.43-1s1.11-.34,1.71-.34,1.17,.11,1.71,.34,1.02,.56,1.43,1c.41,.44,.74,.98,.99,1.61,.25,.63,.37,1.36,.37,2.17s-.12,1.52-.37,2.15c-.25,.63-.58,1.17-.99,1.6s-.89,.76-1.43,.99-1.11,.34-1.71,.34Zm0-1.36c.41,0,.79-.09,1.14-.27,.35-.18,.64-.43,.89-.76,.25-.33,.44-.72,.57-1.17,.13-.45,.2-.96,.2-1.52s-.07-1.07-.2-1.53c-.13-.46-.32-.86-.57-1.19-.25-.33-.54-.59-.89-.77s-.73-.27-1.14-.27-.79,.09-1.14,.27-.64,.44-.89,.77c-.25,.33-.44,.73-.57,1.19-.13,.46-.2,.97-.2,1.53s.07,1.07,.2,1.52c.13,.45,.32,.84,.57,1.17,.25,.33,.54,.58,.89,.76,.35,.18,.73,.27,1.14,.27Z" style="fill: #707070;"/>
      <path d="M1187.57,101.44c-.4,0-.71-.15-.93-.46-.22-.31-.33-.75-.33-1.34,0-.8,.18-1.49,.54-2.08,.36-.59,.89-1.08,1.58-1.48l.48,.78c-.51,.33-.89,.69-1.14,1.07-.25,.38-.38,.85-.38,1.41,.04-.01,.1-.02,.18-.02,.27,0,.51,.09,.73,.26,.22,.17,.33,.43,.33,.76s-.1,.62-.3,.81-.45,.29-.76,.29Zm3.52,0c-.4,0-.71-.15-.93-.46-.22-.31-.33-.75-.33-1.34,0-.8,.18-1.49,.54-2.08,.36-.59,.89-1.08,1.58-1.48l.48,.78c-.51,.33-.89,.69-1.14,1.07-.25,.38-.38,.85-.38,1.41,.04-.01,.1-.02,.18-.02,.27,0,.51,.09,.73,.26,.22,.17,.33,.43,.33,.76s-.1,.62-.3,.81c-.2,.19-.45,.29-.76,.29Z" style="fill: #707070;"/>
      <path d="M131.59,110.24c-.92,0-1.77-.17-2.56-.52s-1.47-.82-2.04-1.42l1-1.16c.47,.49,1.02,.89,1.65,1.19,.63,.3,1.29,.45,1.97,.45,.87,0,1.54-.2,2.02-.59,.48-.39,.72-.91,.72-1.55,0-.33-.06-.62-.17-.85s-.27-.43-.46-.6c-.19-.17-.42-.32-.69-.45-.27-.13-.55-.27-.86-.42l-1.88-.82c-.31-.13-.62-.29-.94-.48-.32-.19-.61-.41-.86-.68s-.46-.58-.62-.95c-.16-.37-.24-.79-.24-1.27s.1-.95,.31-1.38c.21-.43,.49-.8,.86-1.11,.37-.31,.8-.56,1.3-.73,.5-.17,1.05-.26,1.65-.26,.79,0,1.51,.15,2.18,.45,.67,.3,1.23,.69,1.7,1.17l-.9,1.08c-.4-.39-.84-.69-1.33-.91-.49-.22-1.04-.33-1.65-.33-.73,0-1.32,.17-1.77,.51-.45,.34-.67,.81-.67,1.41,0,.32,.06,.59,.19,.81s.3,.41,.51,.58c.21,.17,.45,.31,.7,.44,.25,.13,.51,.24,.78,.35l1.86,.8c.37,.16,.73,.34,1.06,.55,.33,.21,.62,.45,.86,.72,.24,.27,.43,.59,.57,.96,.14,.37,.21,.79,.21,1.27,0,.52-.1,1.01-.31,1.46s-.5,.85-.89,1.19c-.39,.34-.85,.61-1.4,.8s-1.17,.29-1.86,.29Z" style="fill: #707070;"/>
      <path d="M138.47,110v-14.24h1.64v3.88l-.06,2c.47-.44,.95-.82,1.46-1.13,.51-.31,1.1-.47,1.78-.47,1.03,0,1.78,.32,2.25,.96s.71,1.59,.71,2.84v6.16h-1.64v-5.94c0-.92-.15-1.58-.44-1.99-.29-.41-.76-.61-1.4-.61-.51,0-.95,.13-1.34,.38-.39,.25-.83,.63-1.32,1.12v7.04h-1.64Z" style="fill: #707070;"/>
      <path d="M153.29,110.24c-.65,0-1.26-.12-1.83-.35-.57-.23-1.06-.57-1.48-1-.42-.43-.75-.96-.99-1.59-.24-.63-.36-1.34-.36-2.14s.12-1.52,.37-2.15c.25-.63,.57-1.17,.98-1.61,.41-.44,.87-.78,1.39-1.01,.52-.23,1.06-.35,1.62-.35,.61,0,1.16,.11,1.65,.32,.49,.21,.89,.52,1.22,.92,.33,.4,.58,.88,.75,1.44,.17,.56,.26,1.19,.26,1.88,0,.17,0,.34,0,.51,0,.17-.02,.31-.05,.43h-6.56c.07,1.04,.39,1.86,.97,2.47,.58,.61,1.34,.91,2.27,.91,.47,0,.9-.07,1.29-.21,.39-.14,.77-.32,1.13-.55l.58,1.08c-.43,.27-.9,.5-1.42,.7-.52,.2-1.11,.3-1.78,.3Zm-3.06-5.88h5.2c0-.99-.21-1.74-.63-2.25-.42-.51-1.01-.77-1.77-.77-.35,0-.68,.07-.99,.2-.31,.13-.6,.33-.85,.59-.25,.26-.46,.58-.63,.95-.17,.37-.28,.8-.33,1.28Z" style="fill: #707070;"/>
      <path d="M161.01,110.24c-.63,0-1.07-.19-1.34-.56s-.4-.92-.4-1.64v-12.28h1.64v12.4c0,.27,.05,.45,.14,.56,.09,.11,.2,.16,.32,.16h.15s.12-.01,.21-.04l.22,1.24c-.11,.05-.23,.09-.38,.12-.15,.03-.33,.04-.56,.04Z" style="fill: #707070;"/>
      <path d="M166.11,110.24c-.63,0-1.07-.19-1.34-.56s-.4-.92-.4-1.64v-12.28h1.64v12.4c0,.27,.05,.45,.14,.56,.09,.11,.2,.16,.32,.16h.15s.12-.01,.21-.04l.22,1.24c-.11,.05-.23,.09-.38,.12-.15,.03-.33,.04-.56,.04Z" style="fill: #707070;"/>
      <path d="M176.53,110.24c-.52,0-.96-.08-1.31-.24s-.64-.38-.86-.66c-.22-.28-.38-.62-.47-1.02-.09-.4-.14-.84-.14-1.32v-5.38h-1.44v-1.24l1.52-.1,.2-2.72h1.38v2.72h2.62v1.34h-2.62v5.4c0,.6,.11,1.06,.33,1.39s.61,.49,1.17,.49c.17,0,.36-.03,.56-.08,.2-.05,.38-.11,.54-.18l.32,1.24c-.27,.09-.56,.18-.87,.25s-.62,.11-.93,.11Z" style="fill: #707070;"/>
      <path d="M181.07,98.28c-.32,0-.59-.1-.81-.3-.22-.2-.33-.45-.33-.76s.11-.58,.33-.77,.49-.29,.81-.29,.59,.1,.81,.29,.33,.45,.33,.77-.11,.56-.33,.76c-.22,.2-.49,.3-.81,.3Zm-.84,11.72v-9.72h1.64v9.72h-1.64Z" style="fill: #707070;"/>
      <path d="M188.21,110.24c-.52,0-.96-.08-1.31-.24s-.64-.38-.86-.66c-.22-.28-.38-.62-.47-1.02-.09-.4-.14-.84-.14-1.32v-5.38h-1.44v-1.24l1.52-.1,.2-2.72h1.38v2.72h2.62v1.34h-2.62v5.4c0,.6,.11,1.06,.33,1.39s.61,.49,1.17,.49c.17,0,.36-.03,.56-.08,.2-.05,.38-.11,.54-.18l.32,1.24c-.27,.09-.56,.18-.87,.25s-.62,.11-.93,.11Z" style="fill: #707070;"/>
      <path d="M193.65,110.24c-.63,0-1.07-.19-1.34-.56s-.4-.92-.4-1.64v-12.28h1.64v12.4c0,.27,.05,.45,.14,.56,.09,.11,.2,.16,.32,.16h.15s.12-.01,.21-.04l.22,1.24c-.11,.05-.23,.09-.38,.12-.15,.03-.33,.04-.56,.04Z" style="fill: #707070;"/>
      <path d="M200.95,110.24c-.65,0-1.26-.12-1.83-.35-.57-.23-1.06-.57-1.48-1-.42-.43-.75-.96-.99-1.59-.24-.63-.36-1.34-.36-2.14s.12-1.52,.37-2.15c.25-.63,.57-1.17,.98-1.61,.41-.44,.87-.78,1.39-1.01,.52-.23,1.06-.35,1.62-.35,.61,0,1.16,.11,1.65,.32,.49,.21,.89,.52,1.22,.92,.33,.4,.58,.88,.75,1.44,.17,.56,.26,1.19,.26,1.88,0,.17,0,.34,0,.51,0,.17-.02,.31-.05,.43h-6.56c.07,1.04,.39,1.86,.97,2.47,.58,.61,1.34,.91,2.27,.91,.47,0,.9-.07,1.29-.21,.39-.14,.77-.32,1.13-.55l.58,1.08c-.43,.27-.9,.5-1.42,.7-.52,.2-1.11,.3-1.78,.3Zm-3.06-5.88h5.2c0-.99-.21-1.74-.63-2.25-.42-.51-1.01-.77-1.77-.77-.35,0-.68,.07-.99,.2-.31,.13-.6,.33-.85,.59-.25,.26-.46,.58-.63,.95-.17,.37-.28,.8-.33,1.28Z" style="fill: #707070;"/>
      <path d="M214.73,110.24c-.92,0-1.77-.17-2.56-.52s-1.47-.82-2.04-1.42l1-1.16c.47,.49,1.02,.89,1.65,1.19,.63,.3,1.29,.45,1.97,.45,.87,0,1.54-.2,2.02-.59,.48-.39,.72-.91,.72-1.55,0-.33-.06-.62-.17-.85s-.27-.43-.46-.6c-.19-.17-.42-.32-.69-.45-.27-.13-.55-.27-.86-.42l-1.88-.82c-.31-.13-.62-.29-.94-.48-.32-.19-.61-.41-.86-.68s-.46-.58-.62-.95c-.16-.37-.24-.79-.24-1.27s.1-.95,.31-1.38c.21-.43,.49-.8,.86-1.11,.37-.31,.8-.56,1.3-.73,.5-.17,1.05-.26,1.65-.26,.79,0,1.51,.15,2.18,.45,.67,.3,1.23,.69,1.7,1.17l-.9,1.08c-.4-.39-.84-.69-1.33-.91-.49-.22-1.04-.33-1.65-.33-.73,0-1.32,.17-1.77,.51-.45,.34-.67,.81-.67,1.41,0,.32,.06,.59,.19,.81s.3,.41,.51,.58c.21,.17,.45,.31,.7,.44,.25,.13,.51,.24,.78,.35l1.86,.8c.37,.16,.73,.34,1.06,.55,.33,.21,.62,.45,.86,.72,.24,.27,.43,.59,.57,.96,.14,.37,.21,.79,.21,1.27,0,.52-.1,1.01-.31,1.46s-.5,.85-.89,1.19c-.39,.34-.85,.61-1.4,.8s-1.17,.29-1.86,.29Z" style="fill: #707070;"/>
      <path d="M223.35,110.24c-.63,0-1.07-.19-1.34-.56s-.4-.92-.4-1.64v-12.28h1.64v12.4c0,.27,.05,.45,.14,.56,.09,.11,.2,.16,.32,.16h.15s.12-.01,.21-.04l.22,1.24c-.11,.05-.23,.09-.38,.12-.15,.03-.33,.04-.56,.04Z" style="fill: #707070;"/>
      <path d="M230.49,110.24c-.6,0-1.17-.11-1.71-.34s-1.02-.56-1.43-.99c-.41-.43-.74-.97-.99-1.6-.25-.63-.37-1.35-.37-2.15s.12-1.54,.37-2.17c.25-.63,.58-1.17,.99-1.61,.41-.44,.89-.77,1.43-1s1.11-.34,1.71-.34,1.17,.11,1.71,.34,1.02,.56,1.43,1c.41,.44,.74,.98,.99,1.61,.25,.63,.37,1.36,.37,2.17s-.12,1.52-.37,2.15c-.25,.63-.58,1.17-.99,1.6s-.89,.76-1.43,.99-1.11,.34-1.71,.34Zm0-1.36c.41,0,.79-.09,1.14-.27,.35-.18,.64-.43,.89-.76,.25-.33,.44-.72,.57-1.17,.13-.45,.2-.96,.2-1.52s-.07-1.07-.2-1.53c-.13-.46-.32-.86-.57-1.19-.25-.33-.54-.59-.89-.77s-.73-.27-1.14-.27-.79,.09-1.14,.27-.64,.44-.89,.77c-.25,.33-.44,.73-.57,1.19-.13,.46-.2,.97-.2,1.53s.07,1.07,.2,1.52c.13,.45,.32,.84,.57,1.17,.25,.33,.54,.58,.89,.76,.35,.18,.73,.27,1.14,.27Z" style="fill: #707070;"/>
      <path d="M240.27,110.24c-.52,0-.96-.08-1.31-.24s-.64-.38-.86-.66c-.22-.28-.38-.62-.47-1.02-.09-.4-.14-.84-.14-1.32v-5.38h-1.44v-1.24l1.52-.1,.2-2.72h1.38v2.72h2.62v1.34h-2.62v5.4c0,.6,.11,1.06,.33,1.39s.61,.49,1.17,.49c.17,0,.36-.03,.56-.08,.2-.05,.38-.11,.54-.18l.32,1.24c-.27,.09-.56,.18-.87,.25s-.62,.11-.93,.11Z" style="fill: #707070;"/>
      <path d="M248.73,101.44c-.4,0-.71-.15-.93-.46-.22-.31-.33-.75-.33-1.34,0-.8,.18-1.49,.54-2.08,.36-.59,.89-1.08,1.58-1.48l.48,.78c-.51,.33-.89,.69-1.14,1.07-.25,.38-.38,.85-.38,1.41,.04-.01,.1-.02,.18-.02,.27,0,.51,.09,.73,.26,.22,.17,.33,.43,.33,.76s-.1,.62-.3,.81-.45,.29-.76,.29Zm3.52,0c-.4,0-.71-.15-.93-.46-.22-.31-.33-.75-.33-1.34,0-.8,.18-1.49,.54-2.08,.36-.59,.89-1.08,1.58-1.48l.48,.78c-.51,.33-.89,.69-1.14,1.07-.25,.38-.38,.85-.38,1.41,.04-.01,.1-.02,.18-.02,.27,0,.51,.09,.73,.26,.22,.17,.33,.43,.33,.76s-.1,.62-.3,.81c-.2,.19-.45,.29-.76,.29Z" style="fill: #707070;"/>
      <path d="M256.47,110v-9.72h1.36l.14,1.4h.06c.47-.47,.96-.86,1.47-1.17,.51-.31,1.11-.47,1.79-.47,1.03,0,1.78,.32,2.25,.96s.71,1.59,.71,2.84v6.16h-1.64v-5.94c0-.92-.15-1.58-.44-1.99-.29-.41-.76-.61-1.4-.61-.51,0-.95,.13-1.34,.38-.39,.25-.83,.63-1.32,1.12v7.04h-1.64Z" style="fill: #707070;"/>
      <path d="M269.65,110.24c-.81,0-1.49-.24-2.03-.72-.54-.48-.81-1.16-.81-2.04,0-1.07,.47-1.88,1.42-2.45,.95-.57,2.46-.96,4.54-1.19,0-.31-.03-.61-.09-.9-.06-.29-.16-.55-.31-.78s-.35-.41-.61-.55c-.26-.14-.59-.21-.99-.21-.56,0-1.09,.11-1.58,.32-.49,.21-.93,.45-1.32,.72l-.64-1.14c.45-.29,1.01-.58,1.66-.85s1.37-.41,2.16-.41c1.19,0,2.05,.36,2.58,1.09,.53,.73,.8,1.7,.8,2.91v5.96h-1.36l-.14-1.16h-.06c-.47,.39-.97,.72-1.5,.99s-1.11,.41-1.72,.41Zm.48-1.32c.47,0,.91-.11,1.32-.33s.85-.54,1.32-.97v-2.7c-.81,.11-1.5,.23-2.05,.38-.55,.15-1,.32-1.34,.52-.34,.2-.59,.43-.74,.69s-.23,.54-.23,.85c0,.56,.17,.96,.5,1.2,.33,.24,.74,.36,1.22,.36Z" style="fill: #707070;"/>
      <path d="M277.49,110v-9.72h1.36l.14,1.4h.06c.43-.47,.89-.86,1.39-1.17,.5-.31,1.04-.47,1.63-.47,.75,0,1.33,.16,1.75,.49,.42,.33,.73,.78,.93,1.37,.51-.56,1.02-1.01,1.53-1.35,.51-.34,1.07-.51,1.67-.51,1,0,1.74,.32,2.23,.96,.49,.64,.73,1.59,.73,2.84v6.16h-1.64v-5.94c0-.92-.15-1.58-.44-1.99-.29-.41-.75-.61-1.36-.61-.73,0-1.55,.5-2.44,1.5v7.04h-1.64v-5.94c0-.92-.15-1.58-.44-1.99-.29-.41-.75-.61-1.38-.61-.73,0-1.55,.5-2.44,1.5v7.04h-1.64Z" style="fill: #707070;"/>
      <path d="M298.01,110.24c-.65,0-1.26-.12-1.83-.35-.57-.23-1.06-.57-1.48-1-.42-.43-.75-.96-.99-1.59-.24-.63-.36-1.34-.36-2.14s.12-1.52,.37-2.15c.25-.63,.57-1.17,.98-1.61,.41-.44,.87-.78,1.39-1.01,.52-.23,1.06-.35,1.62-.35,.61,0,1.16,.11,1.65,.32,.49,.21,.89,.52,1.22,.92,.33,.4,.58,.88,.75,1.44,.17,.56,.26,1.19,.26,1.88,0,.17,0,.34,0,.51,0,.17-.02,.31-.05,.43h-6.56c.07,1.04,.39,1.86,.97,2.47,.58,.61,1.34,.91,2.27,.91,.47,0,.9-.07,1.29-.21,.39-.14,.77-.32,1.13-.55l.58,1.08c-.43,.27-.9,.5-1.42,.7-.52,.2-1.11,.3-1.78,.3Zm-3.06-5.88h5.2c0-.99-.21-1.74-.63-2.25-.42-.51-1.01-.77-1.77-.77-.35,0-.68,.07-.99,.2-.31,.13-.6,.33-.85,.59-.25,.26-.46,.58-.63,.95-.17,.37-.28,.8-.33,1.28Z" style="fill: #707070;"/>
      <path d="M304.75,101.44c-.4,0-.71-.15-.93-.46-.22-.31-.33-.75-.33-1.34,0-.8,.18-1.49,.54-2.08,.36-.59,.89-1.08,1.58-1.48l.48,.78c-.51,.33-.89,.69-1.14,1.07-.25,.38-.38,.85-.38,1.41,.04-.01,.1-.02,.18-.02,.27,0,.51,.09,.73,.26,.22,.17,.33,.43,.33,.76s-.1,.62-.3,.81-.45,.29-.76,.29Zm3.52,0c-.4,0-.71-.15-.93-.46-.22-.31-.33-.75-.33-1.34,0-.8,.18-1.49,.54-2.08,.36-.59,.89-1.08,1.58-1.48l.48,.78c-.51,.33-.89,.69-1.14,1.07-.25,.38-.38,.85-.38,1.41,.04-.01,.1-.02,.18-.02,.27,0,.51,.09,.73,.26,.22,.17,.33,.43,.33,.76s-.1,.62-.3,.81c-.2,.19-.45,.29-.76,.29Z" style="fill: #707070;"/>
      <path d="M567.52,44.48c-1.65,0-3.35-.3-5.1-.9-1.75-.6-3.33-1.54-4.74-2.82l3.92-4.72c.93,.75,1.94,1.35,3.02,1.82s2.1,.7,3.06,.7c1.04,0,1.79-.16,2.26-.48,.47-.32,.7-.77,.7-1.36,0-.32-.08-.59-.24-.8-.16-.21-.39-.41-.7-.6s-.67-.37-1.1-.54c-.43-.17-.92-.37-1.48-.58l-3.24-1.36c-.69-.27-1.36-.62-2-1.06-.64-.44-1.2-.96-1.68-1.56-.48-.6-.86-1.29-1.14-2.06s-.42-1.63-.42-2.56c0-1.12,.24-2.17,.72-3.14,.48-.97,1.15-1.83,2-2.56s1.87-1.31,3.06-1.74,2.49-.64,3.9-.64c1.49,0,3.01,.28,4.54,.84,1.53,.56,2.9,1.44,4.1,2.64l-3.44,4.32c-.88-.61-1.73-1.08-2.54-1.4s-1.7-.48-2.66-.48c-.85,0-1.52,.15-2,.44-.48,.29-.72,.73-.72,1.32s.34,1.09,1.02,1.42c.68,.33,1.62,.73,2.82,1.18l3.16,1.24c1.63,.64,2.88,1.53,3.76,2.68,.88,1.15,1.32,2.63,1.32,4.44,0,1.09-.23,2.15-.68,3.16s-1.11,1.9-1.98,2.66c-.87,.76-1.93,1.37-3.18,1.82-1.25,.45-2.69,.68-4.32,.68Z" style="fill: #707070;"/>
      <path d="M587.44,44.48c-1.17,0-2.15-.18-2.94-.54-.79-.36-1.42-.87-1.9-1.54-.48-.67-.82-1.46-1.02-2.38-.2-.92-.3-1.94-.3-3.06V16.16h6.88v21.04c0,.69,.13,1.16,.38,1.4,.25,.24,.5,.36,.74,.36h.34c.09,0,.22-.03,.38-.08l.8,5.04c-.37,.16-.83,.29-1.38,.4-.55,.11-1.21,.16-1.98,.16Z" style="fill: #707070;"/>
      <path d="M602.08,44.48c-1.28,0-2.52-.23-3.72-.7-1.2-.47-2.26-1.15-3.18-2.04s-1.65-1.99-2.2-3.3-.82-2.79-.82-4.44,.27-3.13,.82-4.44c.55-1.31,1.28-2.41,2.2-3.3,.92-.89,1.98-1.57,3.18-2.04,1.2-.47,2.44-.7,3.72-.7s2.51,.23,3.7,.7c1.19,.47,2.24,1.15,3.16,2.04,.92,.89,1.66,1.99,2.22,3.3,.56,1.31,.84,2.79,.84,4.44s-.28,3.13-.84,4.44c-.56,1.31-1.3,2.41-2.22,3.3-.92,.89-1.97,1.57-3.16,2.04-1.19,.47-2.42,.7-3.7,.7Zm0-5.52c1.04,0,1.78-.45,2.22-1.34,.44-.89,.66-2.1,.66-3.62s-.22-2.73-.66-3.62c-.44-.89-1.18-1.34-2.22-1.34s-1.78,.45-2.22,1.34c-.44,.89-.66,2.1-.66,3.62s.22,2.73,.66,3.62c.44,.89,1.18,1.34,2.22,1.34Z" style="fill: #707070;"/>
      <g>
        <path d="M622.64,44.48c-1.31,0-2.42-.19-3.34-.58-.92-.39-1.68-.94-2.28-1.66-.6-.72-1.04-1.58-1.32-2.58s-.42-2.11-.42-3.34v-6.96h-2.64v-5.12l3.04-.24,.8-5.2h5.68v5.2h4.56v5.36h-4.56v6.84c0,1.12,.24,1.89,.72,2.3,.48,.41,1.04,.62,1.68,.62,.32,0,.63-.03,.94-.1,.31-.07,.58-.14,.82-.22l1.04,4.96c-.53,.16-1.17,.32-1.92,.48-.75,.16-1.68,.24-2.8,.24Z" style="fill: #707070;"/>
        <path d="M642.48,31.84c-1.41,0-2.47-.51-3.18-1.54-.71-1.03-1.06-2.46-1.06-4.3,0-2,.51-3.77,1.52-5.3s2.59-2.81,4.72-3.82l1.44,2.96c-1.28,.56-2.24,1.25-2.88,2.06s-.96,1.82-.96,3.02c.08-.03,.21-.04,.4-.04,.96,0,1.77,.29,2.44,.88,.67,.59,1,1.39,1,2.4,0,1.12-.32,2.01-.96,2.68-.64,.67-1.47,1-2.48,1Zm10.4,0c-1.41,0-2.47-.51-3.18-1.54-.71-1.03-1.06-2.46-1.06-4.3,0-2,.51-3.77,1.52-5.3,1.01-1.53,2.59-2.81,4.72-3.82l1.44,2.96c-1.28,.56-2.24,1.25-2.88,2.06-.64,.81-.96,1.82-.96,3.02,.08-.03,.21-.04,.4-.04,.96,0,1.77,.29,2.44,.88,.67,.59,1,1.39,1,2.4,0,1.12-.32,2.01-.96,2.68-.64,.67-1.47,1-2.48,1Z" style="fill: #707070;"/>
      </g>
      <path d="M661.6,44V16.16h6.88v6.48l-.32,3.44c.69-.61,1.53-1.19,2.5-1.74,.97-.55,2.14-.82,3.5-.82,2.19,0,3.77,.74,4.76,2.22,.99,1.48,1.48,3.46,1.48,5.94v12.32h-6.88v-11.44c0-1.28-.16-2.13-.48-2.56-.32-.43-.83-.64-1.52-.64-.64,0-1.17,.13-1.6,.4-.43,.27-.91,.64-1.44,1.12v13.12h-6.88Z" style="fill: #707070;"/>
      <path d="M694.16,44.48c-1.47,0-2.83-.23-4.08-.7-1.25-.47-2.34-1.15-3.26-2.04s-1.65-1.99-2.18-3.3c-.53-1.31-.8-2.79-.8-4.44s.27-3.09,.82-4.38c.55-1.29,1.27-2.39,2.16-3.3s1.91-1.6,3.06-2.08c1.15-.48,2.33-.72,3.56-.72,1.47,0,2.75,.25,3.84,.76s2,1.2,2.72,2.08c.72,.88,1.26,1.91,1.62,3.08,.36,1.17,.54,2.43,.54,3.76,0,.61-.03,1.19-.1,1.72-.07,.53-.13,.92-.18,1.16h-11.4c.32,1.2,.89,2.03,1.72,2.5s1.8,.7,2.92,.7c.69,0,1.37-.1,2.02-.3,.65-.2,1.34-.5,2.06-.9l2.24,4.08c-1.09,.77-2.3,1.35-3.62,1.74-1.32,.39-2.54,.58-3.66,.58Zm-3.76-12.88h5.92c0-.77-.19-1.45-.58-2.02s-1.1-.86-2.14-.86c-.77,0-1.45,.23-2.02,.68s-.97,1.19-1.18,2.2Z" style="fill: #707070;"/>
      <path d="M710.72,44.48c-.93,0-1.77-.17-2.52-.5-.75-.33-1.38-.78-1.9-1.34-.52-.56-.91-1.21-1.18-1.96-.27-.75-.4-1.53-.4-2.36,0-2.08,.85-3.71,2.56-4.9,1.71-1.19,4.48-1.98,8.32-2.38-.16-1.39-1.09-2.08-2.8-2.08-.72,0-1.48,.14-2.28,.42-.8,.28-1.72,.7-2.76,1.26l-2.4-4.48c1.41-.85,2.84-1.51,4.28-1.96,1.44-.45,2.95-.68,4.52-.68,2.59,0,4.62,.74,6.1,2.22,1.48,1.48,2.22,3.86,2.22,7.14v11.12h-5.6l-.48-1.92h-.16c-.8,.72-1.65,1.3-2.54,1.74-.89,.44-1.89,.66-2.98,.66Zm2.4-5.28c.56,0,1.02-.13,1.38-.38,.36-.25,.73-.58,1.1-.98v-2.72c-1.65,.24-2.79,.6-3.4,1.08-.61,.48-.92,1-.92,1.56,0,.96,.61,1.44,1.84,1.44Z" style="fill: #707070;"/>
      <path d="M734.24,44.48c-1.25,0-2.38-.24-3.38-.72-1-.48-1.85-1.17-2.56-2.08-.71-.91-1.25-2.01-1.64-3.3-.39-1.29-.58-2.75-.58-4.38s.23-3.09,.7-4.4c.47-1.31,1.08-2.41,1.84-3.3,.76-.89,1.63-1.58,2.62-2.06,.99-.48,1.99-.72,3-.72,1.09,0,1.99,.18,2.68,.54,.69,.36,1.35,.85,1.96,1.46l-.24-2.88v-6.48h6.88v27.84h-5.6l-.48-1.84h-.16c-.69,.69-1.49,1.25-2.38,1.68-.89,.43-1.78,.64-2.66,.64Zm1.84-5.6c.53,0,1-.1,1.4-.3,.4-.2,.79-.58,1.16-1.14v-7.36c-.4-.37-.84-.63-1.32-.76-.48-.13-.95-.2-1.4-.2-.72,0-1.37,.36-1.94,1.08s-.86,1.96-.86,3.72,.26,3.09,.78,3.84c.52,.75,1.25,1.12,2.18,1.12Z" style="fill: #707070;"/>
      <path d="M759.44,44.48c-1.47,0-2.83-.23-4.08-.7-1.25-.47-2.34-1.15-3.26-2.04s-1.65-1.99-2.18-3.3c-.53-1.31-.8-2.79-.8-4.44s.27-3.09,.82-4.38c.55-1.29,1.27-2.39,2.16-3.3s1.91-1.6,3.06-2.08c1.15-.48,2.33-.72,3.56-.72,1.47,0,2.75,.25,3.84,.76s2,1.2,2.72,2.08c.72,.88,1.26,1.91,1.62,3.08,.36,1.17,.54,2.43,.54,3.76,0,.61-.03,1.19-.1,1.72-.07,.53-.13,.92-.18,1.16h-11.4c.32,1.2,.89,2.03,1.72,2.5s1.8,.7,2.92,.7c.69,0,1.37-.1,2.02-.3,.65-.2,1.34-.5,2.06-.9l2.24,4.08c-1.09,.77-2.3,1.35-3.62,1.74-1.32,.39-2.54,.58-3.66,.58Zm-3.76-12.88h5.92c0-.77-.19-1.45-.58-2.02s-1.1-.86-2.14-.86c-.77,0-1.45,.23-2.02,.68s-.97,1.19-1.18,2.2Z" style="fill: #707070;"/>
      <path d="M771.2,44V24h5.6l.48,3.44h.16c.75-1.36,1.63-2.35,2.66-2.98,1.03-.63,2.03-.94,3.02-.94,.61,0,1.11,.03,1.48,.1s.71,.17,1,.3l-1.12,5.92c-.37-.08-.73-.15-1.06-.22-.33-.07-.73-.1-1.18-.1-.72,0-1.47,.25-2.26,.74-.79,.49-1.42,1.37-1.9,2.62v11.12h-6.88Z" style="fill: #707070;"/>
      <path d="M792.8,31.84c-1.41,0-2.47-.51-3.18-1.54-.71-1.03-1.06-2.46-1.06-4.3,0-2,.51-3.77,1.52-5.3s2.59-2.81,4.72-3.82l1.44,2.96c-1.28,.56-2.24,1.25-2.88,2.06s-.96,1.82-.96,3.02c.08-.03,.21-.04,.4-.04,.96,0,1.77,.29,2.44,.88,.67,.59,1,1.39,1,2.4,0,1.12-.32,2.01-.96,2.68-.64,.67-1.47,1-2.48,1Zm10.4,0c-1.41,0-2.47-.51-3.18-1.54-.71-1.03-1.06-2.46-1.06-4.3,0-2,.51-3.77,1.52-5.3,1.01-1.53,2.59-2.81,4.72-3.82l1.44,2.96c-1.28,.56-2.24,1.25-2.88,2.06-.64,.81-.96,1.82-.96,3.02,.08-.03,.21-.04,.4-.04,.96,0,1.77,.29,2.44,.88,.67,.59,1,1.39,1,2.4,0,1.12-.32,2.01-.96,2.68-.64,.67-1.47,1-2.48,1Z" style="fill: #707070;"/>
      <path d="M604.23,450l6.66-19.68h2.82l6.66,19.68h-2.67l-1.86-6h-7.17l-1.89,6h-2.55Zm6-11.01l-.93,3h5.91l-.93-3c-.36-1.1-.7-2.2-1.02-3.29-.32-1.09-.64-2.21-.96-3.34h-.12c-.3,1.14-.61,2.25-.93,3.34-.32,1.09-.66,2.19-1.02,3.29Z" style="fill: #707070;"/>
      <path d="M628.68,450.36c-.96,0-1.86-.17-2.7-.51-.84-.34-1.56-.83-2.17-1.48s-1.09-1.45-1.44-2.4c-.35-.95-.53-2.02-.53-3.22s.19-2.3,.57-3.25,.89-1.75,1.53-2.42c.64-.66,1.38-1.16,2.23-1.5,.85-.34,1.75-.51,2.69-.51s1.78,.17,2.46,.51c.68,.34,1.28,.74,1.8,1.2l-1.26,1.62c-.42-.38-.87-.69-1.33-.93-.47-.24-1-.36-1.58-.36-.66,0-1.27,.14-1.83,.41-.56,.27-1.04,.66-1.44,1.16s-.71,1.09-.94,1.79c-.23,.69-.35,1.46-.35,2.29s.11,1.6,.33,2.28c.22,.68,.53,1.27,.92,1.76,.39,.49,.87,.87,1.42,1.14,.56,.27,1.17,.41,1.83,.41s1.31-.15,1.88-.44c.57-.29,1.08-.63,1.54-1.04l1.08,1.65c-.66,.58-1.39,1.04-2.19,1.37-.8,.33-1.64,.5-2.52,.5Z" style="fill: #707070;"/>
      <path d="M640.89,450.36c-.78,0-1.44-.12-1.96-.36-.53-.24-.96-.57-1.29-.99s-.57-.93-.71-1.53c-.14-.6-.21-1.26-.21-1.98v-8.07h-2.16v-1.86l2.28-.15,.3-4.08h2.07v4.08h3.93v2.01h-3.93v8.1c0,.9,.17,1.59,.5,2.08s.92,.73,1.75,.73c.26,0,.54-.04,.84-.12s.57-.17,.81-.27l.48,1.86c-.4,.14-.83,.26-1.3,.38-.47,.11-.94,.17-1.4,.17Z" style="fill: #707070;"/>
      <path d="M647.71,432.42c-.48,0-.88-.15-1.21-.45s-.5-.68-.5-1.14,.17-.87,.5-1.16c.33-.29,.74-.43,1.21-.43s.89,.15,1.21,.43c.33,.29,.5,.67,.5,1.16s-.17,.84-.5,1.14c-.33,.3-.73,.45-1.21,.45Zm-1.26,17.58v-14.58h2.46v14.58h-2.46Z" style="fill: #707070;"/>
      <path d="M656.98,450l-5.25-14.58h2.55l2.76,8.28c.22,.72,.45,1.44,.67,2.16,.23,.72,.46,1.43,.67,2.13h.12c.22-.7,.44-1.41,.66-2.13,.22-.72,.44-1.44,.66-2.16l2.76-8.28h2.43l-5.16,14.58h-2.88Z" style="fill: #707070;"/>
      <path d="M669.09,432.42c-.48,0-.88-.15-1.21-.45s-.5-.68-.5-1.14,.17-.87,.5-1.16c.33-.29,.74-.43,1.21-.43s.89,.15,1.21,.43c.33,.29,.5,.67,.5,1.16s-.17,.84-.5,1.14c-.33,.3-.73,.45-1.21,.45Zm-1.26,17.58v-14.58h2.46v14.58h-2.46Z" style="fill: #707070;"/>
      <path d="M679.8,450.36c-.78,0-1.44-.12-1.96-.36-.53-.24-.96-.57-1.29-.99s-.57-.93-.71-1.53c-.14-.6-.21-1.26-.21-1.98v-8.07h-2.16v-1.86l2.28-.15,.3-4.08h2.07v4.08h3.93v2.01h-3.93v8.1c0,.9,.17,1.59,.5,2.08s.92,.73,1.75,.73c.26,0,.54-.04,.84-.12s.57-.17,.81-.27l.48,1.86c-.4,.14-.83,.26-1.3,.38-.47,.11-.94,.17-1.4,.17Z" style="fill: #707070;"/>
      <path d="M685.59,456.27c-.34,0-.65-.02-.93-.07-.28-.05-.54-.12-.78-.23l.48-1.95c.16,.04,.34,.08,.54,.14,.2,.05,.39,.08,.57,.08,.84,0,1.52-.3,2.05-.89s.95-1.33,1.25-2.23l.33-1.08-5.85-14.61h2.55l2.97,8.07c.22,.64,.46,1.32,.71,2.02,.25,.71,.48,1.41,.71,2.08h.12c.22-.66,.43-1.35,.63-2.07,.2-.72,.4-1.4,.6-2.04l2.61-8.07h2.4l-5.49,15.78c-.26,.72-.55,1.39-.87,2.01-.32,.62-.7,1.16-1.14,1.61-.44,.45-.94,.8-1.5,1.06-.56,.26-1.21,.39-1.95,.39Z" style="fill: #707070;"/>
      <path d="M713.04,450.36c-1.24,0-2.38-.23-3.42-.69s-1.95-1.12-2.71-2c-.77-.87-1.37-1.94-1.8-3.21-.43-1.27-.65-2.7-.65-4.3s.22-3,.66-4.26c.44-1.26,1.05-2.33,1.83-3.21s1.7-1.56,2.76-2.03c1.06-.47,2.22-.71,3.48-.71s2.25,.25,3.17,.74,1.65,1.05,2.24,1.69l-1.35,1.62c-.52-.56-1.11-1.01-1.77-1.35s-1.41-.51-2.25-.51c-.94,0-1.79,.18-2.55,.55-.76,.37-1.41,.9-1.95,1.59-.54,.69-.96,1.53-1.25,2.5-.29,.98-.44,2.08-.44,3.3s.15,2.36,.44,3.35c.29,.99,.69,1.83,1.21,2.54,.52,.7,1.16,1.24,1.91,1.62,.75,.38,1.59,.57,2.54,.57s1.8-.2,2.52-.58,1.4-.93,2.04-1.63l1.38,1.56c-.78,.9-1.66,1.6-2.64,2.1-.98,.5-2.11,.75-3.39,.75Z" style="fill: #707070;"/>
      <path d="M728.17,450.36c-.9,0-1.75-.17-2.56-.51-.81-.34-1.53-.83-2.15-1.48s-1.12-1.45-1.49-2.4c-.37-.95-.55-2.02-.55-3.22s.18-2.3,.55-3.25,.87-1.75,1.49-2.42,1.33-1.16,2.15-1.5c.81-.34,1.67-.51,2.56-.51s1.75,.17,2.57,.51c.81,.34,1.52,.84,2.14,1.5s1.12,1.46,1.49,2.42,.55,2.04,.55,3.25-.18,2.28-.55,3.22c-.37,.95-.87,1.75-1.49,2.4s-1.33,1.14-2.14,1.48c-.81,.34-1.67,.51-2.57,.51Zm0-2.04c.62,0,1.19-.14,1.71-.41,.52-.27,.96-.65,1.33-1.14s.66-1.08,.86-1.76c.2-.68,.3-1.44,.3-2.28s-.1-1.61-.3-2.29c-.2-.69-.49-1.29-.86-1.79s-.82-.88-1.33-1.16c-.52-.27-1.09-.41-1.71-.41s-1.19,.14-1.71,.41c-.52,.27-.96,.66-1.33,1.16s-.66,1.09-.85,1.79c-.2,.69-.3,1.46-.3,2.29s.1,1.6,.3,2.28c.2,.68,.48,1.27,.85,1.76s.81,.87,1.33,1.14c.52,.27,1.09,.41,1.71,.41Z" style="fill: #707070;"/>
      <path d="M738.75,450v-14.58h2.04l.21,2.1h.09c.7-.7,1.43-1.28,2.21-1.75,.77-.47,1.67-.71,2.69-.71,1.54,0,2.66,.48,3.38,1.44,.71,.96,1.06,2.38,1.06,4.26v9.24h-2.46v-8.91c0-1.38-.22-2.38-.66-2.98-.44-.61-1.14-.92-2.1-.92-.76,0-1.43,.19-2.01,.57-.58,.38-1.24,.94-1.98,1.68v10.56h-2.46Z" style="fill: #707070;"/>
      <path d="M759.75,450.36c-.78,0-1.44-.12-1.96-.36-.53-.24-.96-.57-1.29-.99s-.57-.93-.71-1.53c-.14-.6-.21-1.26-.21-1.98v-8.07h-2.16v-1.86l2.28-.15,.3-4.08h2.07v4.08h3.93v2.01h-3.93v8.1c0,.9,.17,1.59,.5,2.08s.92,.73,1.75,.73c.26,0,.54-.04,.84-.12s.57-.17,.81-.27l.48,1.86c-.4,.14-.83,.26-1.3,.38-.47,.11-.94,.17-1.4,.17Z" style="fill: #707070;"/>
      <path d="M770.79,450.36c-.98,0-1.9-.18-2.75-.53-.85-.35-1.59-.85-2.22-1.5-.63-.65-1.12-1.44-1.49-2.38s-.54-2.01-.54-3.21,.18-2.28,.55-3.23c.37-.95,.86-1.75,1.47-2.42,.61-.66,1.3-1.16,2.08-1.51,.78-.35,1.59-.53,2.43-.53,.92,0,1.75,.16,2.47,.48,.73,.32,1.34,.78,1.83,1.38s.87,1.32,1.12,2.16,.39,1.78,.39,2.82c0,.26,0,.51-.02,.76s-.04,.46-.07,.64h-9.84c.1,1.56,.58,2.8,1.46,3.71,.87,.91,2,1.37,3.41,1.37,.7,0,1.34-.1,1.94-.31,.59-.21,1.15-.49,1.69-.83l.87,1.62c-.64,.4-1.35,.75-2.13,1.05s-1.67,.45-2.67,.45Zm-4.59-8.82h7.8c0-1.48-.32-2.6-.95-3.38-.63-.77-1.51-1.16-2.65-1.16-.52,0-1.02,.1-1.49,.3-.47,.2-.9,.5-1.28,.89-.38,.39-.7,.87-.94,1.42-.25,.56-.42,1.2-.5,1.92Z" style="fill: #707070;"/>
      <path d="M779.76,450v-14.58h2.04l.21,2.1h.09c.7-.7,1.43-1.28,2.21-1.75,.77-.47,1.67-.71,2.69-.71,1.54,0,2.66,.48,3.38,1.44,.71,.96,1.06,2.38,1.06,4.26v9.24h-2.46v-8.91c0-1.38-.22-2.38-.66-2.98-.44-.61-1.14-.92-2.1-.92-.76,0-1.43,.19-2.01,.57-.58,.38-1.24,.94-1.98,1.68v10.56h-2.46Z" style="fill: #707070;"/>
      <path d="M800.76,450.36c-.78,0-1.44-.12-1.96-.36-.53-.24-.96-.57-1.29-.99s-.57-.93-.71-1.53c-.14-.6-.21-1.26-.21-1.98v-8.07h-2.16v-1.86l2.28-.15,.3-4.08h2.07v4.08h3.93v2.01h-3.93v8.1c0,.9,.17,1.59,.5,2.08s.92,.73,1.75,.73c.26,0,.54-.04,.84-.12s.57-.17,.81-.27l.48,1.86c-.4,.14-.83,.26-1.3,.38-.47,.11-.94,.17-1.4,.17Z" style="fill: #707070;"/>
    </g>
  </g>
</svg>