<svg width="179" height="28" viewBox="0 0 179 28" fill="none" xmlns="http://www.w3.org/2000/svg">
<mask id="path-1-inside-1_66_296" fill="white">
<path d="M0 0H179V28H0V0Z"/>
</mask>
<path d="M0 28H3V0H0H-3V28H0Z" fill="#9E1E4D" mask="url(#path-1-inside-1_66_296)"/>
<path d="M12.24 19L17.232 7.72H18.496L23.488 19H21.968L20.592 15.8L21.28 16.184H14.432L15.12 15.8L13.76 19H12.24ZM17.84 9.4L15.344 15.304L14.96 14.968H20.752L20.384 15.304L17.872 9.4H17.84ZM28.2003 19.144C27.4109 19.144 26.7283 18.9787 26.1523 18.648C25.5763 18.3067 25.1336 17.832 24.8243 17.224C24.5149 16.6053 24.3603 15.88 24.3603 15.048C24.3603 14.2267 24.5149 13.5173 24.8243 12.92C25.1336 12.3227 25.5763 11.864 26.1523 11.544C26.7283 11.224 27.4109 11.064 28.2003 11.064C28.6909 11.064 29.1709 11.1493 29.6403 11.32C30.1203 11.4907 30.5149 11.7307 30.8243 12.04L30.3443 13.064C30.0349 12.7867 29.6989 12.5787 29.3363 12.44C28.9736 12.3013 28.6269 12.232 28.2963 12.232C27.5176 12.232 26.9149 12.4773 26.4883 12.968C26.0616 13.4587 25.8483 14.1573 25.8483 15.064C25.8483 15.9707 26.0616 16.6853 26.4883 17.208C26.9149 17.72 27.5176 17.976 28.2963 17.976C28.6269 17.976 28.9736 17.9067 29.3363 17.768C29.6989 17.6293 30.0349 17.416 30.3443 17.128L30.8243 18.168C30.5149 18.4773 30.1149 18.7173 29.6243 18.888C29.1443 19.0587 28.6696 19.144 28.2003 19.144ZM35.5094 19.144C34.56 19.144 33.8507 18.8987 33.3814 18.408C32.912 17.9067 32.6774 17.192 32.6774 16.264V12.328H31.1574V11.208H32.6774V8.84H34.1334V11.208H36.5814V12.328H34.1334V16.136C34.1334 16.7227 34.256 17.1653 34.5014 17.464C34.7467 17.7627 35.152 17.912 35.7174 17.912C35.888 17.912 36.0534 17.896 36.2134 17.864C36.384 17.8213 36.544 17.7787 36.6934 17.736L36.9334 18.824C36.784 18.92 36.5707 18.9947 36.2934 19.048C36.0267 19.112 35.7654 19.144 35.5094 19.144ZM37.8678 9.336V7.768H39.6118V9.336H37.8678ZM38.0118 19V11.208H39.4678V19H38.0118ZM44.1126 19L40.7526 11.208H42.3206L45.0246 17.864H44.5766L47.3286 11.208H48.8326L45.4406 19H44.1126ZM53.5649 19.144C52.7222 19.144 51.9969 18.984 51.3889 18.664C50.7915 18.3333 50.3275 17.8693 49.9969 17.272C49.6662 16.664 49.5009 15.9493 49.5009 15.128C49.5009 14.3173 49.6609 13.608 49.9809 13C50.3115 12.392 50.7595 11.9173 51.3249 11.576C51.9009 11.2347 52.5569 11.064 53.2929 11.064C54.0075 11.064 54.6155 11.2187 55.1169 11.528C55.6289 11.8373 56.0182 12.28 56.2849 12.856C56.5622 13.4213 56.7009 14.104 56.7009 14.904V15.432H50.6369V14.504H55.7409L55.4689 14.728C55.4689 13.896 55.2875 13.256 54.9249 12.808C54.5622 12.3493 54.0289 12.12 53.3249 12.12C52.8129 12.12 52.3755 12.2427 52.0129 12.488C51.6502 12.7227 51.3729 13.0587 51.1809 13.496C50.9889 13.9227 50.8929 14.4187 50.8929 14.984V15.08C50.8929 15.72 50.9942 16.2587 51.1969 16.696C51.4102 17.1227 51.7142 17.448 52.1089 17.672C52.5035 17.8853 52.9889 17.992 53.5649 17.992C54.0235 17.992 54.4662 17.9227 54.8929 17.784C55.3302 17.6347 55.7409 17.4053 56.1249 17.096L56.5729 18.104C56.2209 18.424 55.7675 18.68 55.2129 18.872C54.6689 19.0533 54.1195 19.144 53.5649 19.144ZM61.74 19L66.732 7.72H67.996L72.988 19H71.468L70.092 15.8L70.78 16.184H63.932L64.62 15.8L63.26 19H61.74ZM67.34 9.4L64.844 15.304L64.46 14.968H70.252L69.884 15.304L67.372 9.4H67.34ZM77.7003 19.144C76.9109 19.144 76.2283 18.9787 75.6523 18.648C75.0763 18.3067 74.6336 17.832 74.3243 17.224C74.0149 16.6053 73.8603 15.88 73.8603 15.048C73.8603 14.2267 74.0149 13.5173 74.3243 12.92C74.6336 12.3227 75.0763 11.864 75.6523 11.544C76.2283 11.224 76.9109 11.064 77.7003 11.064C78.1909 11.064 78.6709 11.1493 79.1403 11.32C79.6203 11.4907 80.0149 11.7307 80.3243 12.04L79.8443 13.064C79.5349 12.7867 79.1989 12.5787 78.8363 12.44C78.4736 12.3013 78.1269 12.232 77.7963 12.232C77.0176 12.232 76.4149 12.4773 75.9883 12.968C75.5616 13.4587 75.3483 14.1573 75.3483 15.064C75.3483 15.9707 75.5616 16.6853 75.9883 17.208C76.4149 17.72 77.0176 17.976 77.7963 17.976C78.1269 17.976 78.4736 17.9067 78.8363 17.768C79.1989 17.6293 79.5349 17.416 79.8443 17.128L80.3243 18.168C80.0149 18.4773 79.6149 18.7173 79.1243 18.888C78.6443 19.0587 78.1696 19.144 77.7003 19.144ZM85.0094 19.144C84.06 19.144 83.3507 18.8987 82.8814 18.408C82.412 17.9067 82.1774 17.192 82.1774 16.264V12.328H80.6574V11.208H82.1774V8.84H83.6334V11.208H86.0814V12.328H83.6334V16.136C83.6334 16.7227 83.756 17.1653 84.0014 17.464C84.2467 17.7627 84.652 17.912 85.2174 17.912C85.388 17.912 85.5534 17.896 85.7134 17.864C85.884 17.8213 86.044 17.7787 86.1934 17.736L86.4334 18.824C86.284 18.92 86.0707 18.9947 85.7934 19.048C85.5267 19.112 85.2654 19.144 85.0094 19.144ZM87.3678 9.336V7.768H89.1118V9.336H87.3678ZM87.5118 19V11.208H88.9678V19H87.5118ZM93.6126 19L90.2526 11.208H91.8206L94.5246 17.864H94.0766L96.8286 11.208H98.3326L94.9406 19H93.6126ZM99.4459 9.336V7.768H101.19V9.336H99.4459ZM99.5899 19V11.208H101.046V19H99.5899ZM106.619 19.144C105.669 19.144 104.96 18.8987 104.491 18.408C104.021 17.9067 103.787 17.192 103.787 16.264V12.328H102.267V11.208H103.787V8.84H105.243V11.208H107.691V12.328H105.243V16.136C105.243 16.7227 105.365 17.1653 105.611 17.464C105.856 17.7627 106.261 17.912 106.827 17.912C106.997 17.912 107.163 17.896 107.323 17.864C107.493 17.8213 107.653 17.7787 107.803 17.736L108.043 18.824C107.893 18.92 107.68 18.9947 107.403 19.048C107.136 19.112 106.875 19.144 106.619 19.144ZM110.095 21.88L111.583 18.536V19.144L108.175 11.208H109.743L112.447 17.864H111.999L114.751 11.208H116.255L111.615 21.88H110.095Z" fill="black"/>
</svg>
