<svg width="101" height="32" viewBox="0 0 101 32" fill="none" xmlns="http://www.w3.org/2000/svg">
<path d="M26.632 21.144C26.088 21.144 25.5973 21.0373 25.16 20.824C24.7333 20.6107 24.3973 20.3227 24.152 19.96C23.9067 19.5973 23.784 19.1867 23.784 18.728C23.784 18.152 23.928 17.6987 24.216 17.368C24.5147 17.0267 25 16.7867 25.672 16.648C26.3547 16.4987 27.272 16.424 28.424 16.424H29.176V17.416H28.44C27.864 17.416 27.3787 17.4373 26.984 17.48C26.5893 17.5227 26.2747 17.592 26.04 17.688C25.8053 17.7733 25.6347 17.896 25.528 18.056C25.432 18.216 25.384 18.408 25.384 18.632C25.384 19.0373 25.5227 19.368 25.8 19.624C26.0773 19.8693 26.4613 19.992 26.952 19.992C27.3467 19.992 27.6933 19.9013 27.992 19.72C28.2907 19.528 28.5253 19.272 28.696 18.952C28.8773 18.632 28.968 18.264 28.968 17.848V16.008C28.968 15.4 28.84 14.9627 28.584 14.696C28.328 14.4293 27.9067 14.296 27.32 14.296C26.872 14.296 26.424 14.3653 25.976 14.504C25.528 14.632 25.0693 14.84 24.6 15.128L24.104 13.992C24.3813 13.8 24.7013 13.6347 25.064 13.496C25.4267 13.3573 25.8053 13.2507 26.2 13.176C26.6053 13.0907 26.9947 13.048 27.368 13.048C28.0827 13.048 28.6693 13.16 29.128 13.384C29.5973 13.608 29.944 13.9493 30.168 14.408C30.392 14.8667 30.504 15.4587 30.504 16.184V21H28.984V19.256H29.128C29.0427 19.6507 28.8827 19.992 28.648 20.28C28.424 20.5573 28.1413 20.7707 27.8 20.92C27.4587 21.0693 27.0693 21.144 26.632 21.144ZM36.1698 21.144C35.3698 21.144 34.6764 20.9787 34.0898 20.648C33.5138 20.3067 33.0658 19.832 32.7458 19.224C32.4258 18.6053 32.2658 17.88 32.2658 17.048C32.2658 16.2267 32.4258 15.5173 32.7458 14.92C33.0658 14.3227 33.5138 13.864 34.0898 13.544C34.6764 13.2133 35.3698 13.048 36.1698 13.048C36.6604 13.048 37.1458 13.1333 37.6258 13.304C38.1058 13.464 38.5004 13.6987 38.8098 14.008L38.2978 15.144C38.0098 14.8667 37.6844 14.664 37.3218 14.536C36.9591 14.3973 36.6178 14.328 36.2977 14.328C35.5404 14.328 34.9538 14.568 34.5378 15.048C34.1324 15.5173 33.9298 16.1893 33.9298 17.064C33.9298 17.9387 34.1324 18.6267 34.5378 19.128C34.9538 19.6187 35.5404 19.864 36.2977 19.864C36.6178 19.864 36.9591 19.8 37.3218 19.672C37.6844 19.5333 38.0098 19.3253 38.2978 19.048L38.8098 20.2C38.5004 20.488 38.1004 20.7173 37.6098 20.888C37.1298 21.0587 36.6498 21.144 36.1698 21.144ZM43.5421 21.144C42.5715 21.144 41.8408 20.8933 41.3501 20.392C40.8701 19.8907 40.6301 19.1653 40.6301 18.216V14.44H39.1101V13.192H40.6301V10.84H42.2461V13.192H44.6621V14.44H42.2461V18.088C42.2461 18.6533 42.3635 19.08 42.5981 19.368C42.8435 19.656 43.2381 19.8 43.7821 19.8C43.9421 19.8 44.1021 19.7787 44.2621 19.736C44.4328 19.6933 44.5981 19.6507 44.7581 19.608L45.0141 20.824C44.8541 20.92 44.6301 20.9947 44.3421 21.048C44.0648 21.112 43.7981 21.144 43.5421 21.144ZM45.9139 11.384V9.704H47.8019V11.384H45.9139ZM46.0579 21V13.192H47.6739V21H46.0579ZM52.2365 21L48.8765 13.192H50.6205L53.2285 19.672H52.7805L55.4525 13.192H57.1005L53.6925 21H52.2365ZM61.7844 21.144C60.931 21.144 60.195 20.984 59.5764 20.664C58.9684 20.3333 58.4937 19.8693 58.1524 19.272C57.8217 18.664 57.6564 17.944 57.6564 17.112C57.6564 16.3013 57.8217 15.592 58.1524 14.984C58.483 14.376 58.9364 13.9013 59.5124 13.56C60.0884 13.2187 60.7444 13.048 61.4804 13.048C62.2057 13.048 62.8244 13.208 63.3364 13.528C63.859 13.8373 64.259 14.28 64.5364 14.856C64.8137 15.432 64.9524 16.12 64.9524 16.92V17.464H58.9364V16.472H63.8644L63.5924 16.696C63.5924 15.896 63.4164 15.2773 63.0644 14.84C62.7124 14.4027 62.2057 14.184 61.5444 14.184C61.043 14.184 60.6164 14.3013 60.2644 14.536C59.923 14.7707 59.6617 15.096 59.4804 15.512C59.299 15.928 59.2084 16.4133 59.2084 16.968V17.064C59.2084 17.6827 59.3044 18.2053 59.4964 18.632C59.699 19.048 59.9924 19.3627 60.3764 19.576C60.7604 19.7893 61.235 19.896 61.8004 19.896C62.2484 19.896 62.6857 19.8267 63.1124 19.688C63.5497 19.5387 63.9604 19.3093 64.3444 19L64.8244 20.12C64.4724 20.44 64.019 20.6907 63.4644 20.872C62.9097 21.0533 62.3497 21.144 61.7844 21.144ZM71.0933 21V9.72H72.7573V19.576H78.3413V21H71.0933ZM79.6014 11.384V9.704H81.4894V11.384H79.6014ZM79.7454 21V13.192H81.3614V21H79.7454ZM83.636 21V13.192H85.204V14.856H85.028C85.2627 14.2587 85.6307 13.8107 86.132 13.512C86.6333 13.2027 87.2093 13.048 87.86 13.048C88.4787 13.048 88.9907 13.1653 89.396 13.4C89.812 13.624 90.1213 13.9707 90.324 14.44C90.5267 14.8987 90.628 15.48 90.628 16.184V21H89.012V16.28C89.012 15.832 88.9533 15.4693 88.836 15.192C88.7187 14.904 88.5427 14.6907 88.308 14.552C88.0733 14.4133 87.7693 14.344 87.396 14.344C86.9693 14.344 86.5907 14.4347 86.26 14.616C85.94 14.7973 85.6893 15.0587 85.508 15.4C85.3373 15.7413 85.252 16.136 85.252 16.584V21H83.636ZM92.8548 21V9.72H94.4708V16.6H94.5028L97.8948 13.192H99.8948L95.7828 17.32V16.568L100.183 21H98.1668L94.5028 17.432H94.4708V21H92.8548Z" fill="black"/>
<line x1="2.5" y1="32" x2="2.5" y2="-1.09278e-07" stroke="#9E1E4D" stroke-width="5"/>
</svg>
