<svg width="147" height="215" viewBox="0 0 147 215" fill="none" xmlns="http://www.w3.org/2000/svg">
<mask id="path-1-inside-1_946_18380" fill="white">
<path d="M0 0H147V215H0V0Z"/>
</mask>
<path d="M0 0H147V215H0V0Z" fill="white"/>
<path d="M147 0H146V215H147H148V0H147Z" fill="black" mask="url(#path-1-inside-1_946_18380)"/>
<rect x="64" y="20.5" width="19" height="19" stroke="#9E1E4D"/>
<g clip-path="url(#clip0_946_18380)">
<path d="M74.28 30L82.88 21.38C83.1 21.16 83.1 20.82 82.88 20.6C82.66 20.38 82.32 20.38 82.1 20.6L73.5 29.22L64.88 20.62C64.68 20.4 64.32 20.4 64.12 20.62C63.9 20.82 63.9 21.18 64.12 21.38L72.72 30L64.12 38.62C63.9 38.84 63.9 39.18 64.12 39.4C64.22 39.5 64.36 39.56 64.5 39.56C64.64 39.56 64.78 39.5 64.88 39.4L73.5 30.78L82.12 39.4C82.22 39.5 82.36 39.56 82.5 39.56C82.64 39.56 82.78 39.5 82.88 39.4C83.1 39.18 83.1 38.84 82.88 38.62L74.28 30Z" fill="#9E1E4D"/>
</g>
<rect x="64" y="20.5" width="19" height="19" stroke="#9E1E4D"/>
<path d="M55.632 55.144C55.088 55.144 54.5973 55.0373 54.16 54.824C53.7333 54.6107 53.3973 54.3227 53.152 53.96C52.9067 53.5973 52.784 53.1867 52.784 52.728C52.784 52.152 52.928 51.6987 53.216 51.368C53.5147 51.0267 54 50.7867 54.672 50.648C55.3547 50.4987 56.272 50.424 57.424 50.424H58.176V51.416H57.44C56.864 51.416 56.3787 51.4373 55.984 51.48C55.5893 51.5227 55.2747 51.592 55.04 51.688C54.8053 51.7733 54.6347 51.896 54.528 52.056C54.432 52.216 54.384 52.408 54.384 52.632C54.384 53.0373 54.5227 53.368 54.8 53.624C55.0773 53.8693 55.4613 53.992 55.952 53.992C56.3467 53.992 56.6933 53.9013 56.992 53.72C57.2907 53.528 57.5253 53.272 57.696 52.952C57.8773 52.632 57.968 52.264 57.968 51.848V50.008C57.968 49.4 57.84 48.9627 57.584 48.696C57.328 48.4293 56.9067 48.296 56.32 48.296C55.872 48.296 55.424 48.3653 54.976 48.504C54.528 48.632 54.0693 48.84 53.6 49.128L53.104 47.992C53.3813 47.8 53.7013 47.6347 54.064 47.496C54.4267 47.3573 54.8053 47.2507 55.2 47.176C55.6053 47.0907 55.9947 47.048 56.368 47.048C57.0827 47.048 57.6693 47.16 58.128 47.384C58.5973 47.608 58.944 47.9493 59.168 48.408C59.392 48.8667 59.504 49.4587 59.504 50.184V55H57.984V53.256H58.128C58.0427 53.6507 57.8827 53.992 57.648 54.28C57.424 54.5573 57.1413 54.7707 56.8 54.92C56.4587 55.0693 56.0693 55.144 55.632 55.144ZM65.1698 55.144C64.3698 55.144 63.6764 54.9787 63.0898 54.648C62.5138 54.3067 62.0658 53.832 61.7458 53.224C61.4258 52.6053 61.2658 51.88 61.2658 51.048C61.2658 50.2267 61.4258 49.5173 61.7458 48.92C62.0658 48.3227 62.5138 47.864 63.0898 47.544C63.6764 47.2133 64.3698 47.048 65.1698 47.048C65.6604 47.048 66.1458 47.1333 66.6258 47.304C67.1058 47.464 67.5004 47.6987 67.8098 48.008L67.2978 49.144C67.0098 48.8667 66.6844 48.664 66.3218 48.536C65.9591 48.3973 65.6178 48.328 65.2977 48.328C64.5404 48.328 63.9538 48.568 63.5378 49.048C63.1324 49.5173 62.9298 50.1893 62.9298 51.064C62.9298 51.9387 63.1324 52.6267 63.5378 53.128C63.9538 53.6187 64.5404 53.864 65.2977 53.864C65.6178 53.864 65.9591 53.8 66.3218 53.672C66.6844 53.5333 67.0098 53.3253 67.2978 53.048L67.8098 54.2C67.5004 54.488 67.1004 54.7173 66.6098 54.888C66.1298 55.0587 65.6498 55.144 65.1698 55.144ZM72.5421 55.144C71.5715 55.144 70.8408 54.8933 70.3501 54.392C69.8701 53.8907 69.6301 53.1653 69.6301 52.216V48.44H68.1101V47.192H69.6301V44.84H71.2461V47.192H73.6621V48.44H71.2461V52.088C71.2461 52.6533 71.3635 53.08 71.5981 53.368C71.8435 53.656 72.2381 53.8 72.7821 53.8C72.9421 53.8 73.1021 53.7787 73.2621 53.736C73.4328 53.6933 73.5981 53.6507 73.7581 53.608L74.0141 54.824C73.8541 54.92 73.6301 54.9947 73.3421 55.048C73.0648 55.112 72.7981 55.144 72.5421 55.144ZM74.9139 45.384V43.704H76.8019V45.384H74.9139ZM75.0579 55V47.192H76.6739V55H75.0579ZM81.2365 55L77.8765 47.192H79.6205L82.2285 53.672H81.7805L84.4525 47.192H86.1005L82.6925 55H81.2365ZM90.7844 55.144C89.931 55.144 89.195 54.984 88.5764 54.664C87.9684 54.3333 87.4937 53.8693 87.1524 53.272C86.8217 52.664 86.6564 51.944 86.6564 51.112C86.6564 50.3013 86.8217 49.592 87.1524 48.984C87.483 48.376 87.9364 47.9013 88.5124 47.56C89.0884 47.2187 89.7444 47.048 90.4804 47.048C91.2057 47.048 91.8244 47.208 92.3364 47.528C92.859 47.8373 93.259 48.28 93.5364 48.856C93.8137 49.432 93.9524 50.12 93.9524 50.92V51.464H87.9364V50.472H92.8644L92.5924 50.696C92.5924 49.896 92.4164 49.2773 92.0644 48.84C91.7124 48.4027 91.2057 48.184 90.5444 48.184C90.043 48.184 89.6164 48.3013 89.2644 48.536C88.923 48.7707 88.6617 49.096 88.4804 49.512C88.299 49.928 88.2084 50.4133 88.2084 50.968V51.064C88.2084 51.6827 88.3044 52.2053 88.4964 52.632C88.699 53.048 88.9924 53.3627 89.3764 53.576C89.7604 53.7893 90.235 53.896 90.8004 53.896C91.2484 53.896 91.6857 53.8267 92.1124 53.688C92.5497 53.5387 92.9604 53.3093 93.3444 53L93.8244 54.12C93.4724 54.44 93.019 54.6907 92.4644 54.872C91.9097 55.0533 91.3497 55.144 90.7844 55.144Z" fill="black"/>
<rect x="64" y="79.5" width="19" height="19" stroke="#222120"/>
<g clip-path="url(#clip1_946_18380)">
<path d="M74.28 89L82.88 80.38C83.1 80.16 83.1 79.82 82.88 79.6C82.66 79.38 82.32 79.38 82.1 79.6L73.5 88.22L64.88 79.62C64.68 79.4 64.32 79.4 64.12 79.62C63.9 79.82 63.9 80.18 64.12 80.38L72.72 89L64.12 97.62C63.9 97.84 63.9 98.18 64.12 98.4C64.22 98.5 64.36 98.56 64.5 98.56C64.64 98.56 64.78 98.5 64.88 98.4L73.5 89.78L82.12 98.4C82.22 98.5 82.36 98.56 82.5 98.56C82.64 98.56 82.78 98.5 82.88 98.4C83.1 98.18 83.1 97.84 82.88 97.62L74.28 89Z" fill="#222120"/>
</g>
<rect x="64" y="79.5" width="19" height="19" stroke="#222120"/>
<path d="M49.05 103.805V102.65H50.28V103.805H49.05ZM49.2 113V105.725H50.115V113H49.2ZM52.5252 113V105.725H53.4252V107.42H53.2602C53.4602 106.82 53.8002 106.365 54.2802 106.055C54.7702 105.745 55.3302 105.59 55.9602 105.59C56.5402 105.59 57.0202 105.695 57.4002 105.905C57.7902 106.105 58.0802 106.415 58.2702 106.835C58.4602 107.255 58.5552 107.78 58.5552 108.41V113H57.6402V108.485C57.6402 108.005 57.5752 107.61 57.4452 107.3C57.3252 106.99 57.1302 106.76 56.8602 106.61C56.5902 106.46 56.2452 106.385 55.8252 106.385C55.3452 106.385 54.9252 106.485 54.5652 106.685C54.2152 106.885 53.9402 107.17 53.7402 107.54C53.5402 107.91 53.4402 108.345 53.4402 108.845V113H52.5252ZM63.1688 113.12C62.6788 113.12 62.2388 113.025 61.8488 112.835C61.4688 112.645 61.1638 112.385 60.9338 112.055C60.7138 111.725 60.6038 111.355 60.6038 110.945C60.6038 110.405 60.7388 109.98 61.0088 109.67C61.2788 109.36 61.7338 109.145 62.3738 109.025C63.0138 108.895 63.8938 108.83 65.0138 108.83H65.6588V109.505H65.0288C64.3588 109.505 63.7938 109.525 63.3338 109.565C62.8838 109.605 62.5288 109.68 62.2688 109.79C62.0088 109.89 61.8238 110.03 61.7138 110.21C61.6138 110.39 61.5638 110.61 61.5638 110.87C61.5638 111.32 61.7188 111.685 62.0288 111.965C62.3388 112.245 62.7588 112.385 63.2888 112.385C63.7188 112.385 64.0938 112.285 64.4138 112.085C64.7438 111.875 65.0038 111.59 65.1938 111.23C65.3838 110.87 65.4788 110.46 65.4788 110V108.29C65.4788 107.62 65.3438 107.135 65.0738 106.835C64.8038 106.525 64.3738 106.37 63.7838 106.37C63.3438 106.37 62.9188 106.435 62.5088 106.565C62.1088 106.695 61.6938 106.9 61.2638 107.18L60.9038 106.475C61.1638 106.295 61.4488 106.14 61.7588 106.01C62.0788 105.88 62.4088 105.78 62.7488 105.71C63.0988 105.63 63.4388 105.59 63.7688 105.59C64.3588 105.59 64.8438 105.69 65.2238 105.89C65.6138 106.09 65.8988 106.39 66.0788 106.79C66.2688 107.19 66.3638 107.705 66.3638 108.335V113H65.4938V111.245H65.6438C65.5538 111.635 65.3938 111.97 65.1638 112.25C64.9338 112.53 64.6488 112.745 64.3088 112.895C63.9688 113.045 63.5888 113.12 63.1688 113.12ZM71.7257 113.12C71.0157 113.12 70.4057 112.965 69.8957 112.655C69.3857 112.335 68.9907 111.89 68.7107 111.32C68.4407 110.74 68.3057 110.07 68.3057 109.31C68.3057 108.54 68.4407 107.88 68.7107 107.33C68.9907 106.78 69.3857 106.355 69.8957 106.055C70.4057 105.745 71.0157 105.59 71.7257 105.59C72.1757 105.59 72.6107 105.675 73.0307 105.845C73.4607 106.015 73.8207 106.25 74.1107 106.55L73.7507 107.24C73.4407 106.94 73.1107 106.725 72.7607 106.595C72.4107 106.455 72.0757 106.385 71.7557 106.385C70.9457 106.385 70.3207 106.64 69.8807 107.15C69.4507 107.65 69.2357 108.375 69.2357 109.325C69.2357 110.265 69.4507 111.005 69.8807 111.545C70.3207 112.075 70.9457 112.34 71.7557 112.34C72.0757 112.34 72.4107 112.275 72.7607 112.145C73.1107 112.005 73.4407 111.785 73.7507 111.485L74.1107 112.175C73.8207 112.465 73.4557 112.695 73.0157 112.865C72.5857 113.035 72.1557 113.12 71.7257 113.12ZM78.3854 113.12C77.5754 113.12 76.9654 112.9 76.5554 112.46C76.1554 112.02 75.9554 111.39 75.9554 110.57V106.46H74.5154V105.725H75.9554V103.475H76.8704V105.725H79.2254V106.46H76.8704V110.45C76.8704 111.06 76.9954 111.525 77.2454 111.845C77.4954 112.165 77.9104 112.325 78.4904 112.325C78.6604 112.325 78.8254 112.305 78.9854 112.265C79.1454 112.215 79.2854 112.17 79.4054 112.13L79.5854 112.85C79.4754 112.92 79.3004 112.98 79.0604 113.03C78.8204 113.09 78.5954 113.12 78.3854 113.12ZM80.5148 103.805V102.65H81.7448V103.805H80.5148ZM80.6648 113V105.725H81.5798V113H80.6648ZM86.15 113L83.03 105.725H84.05L86.81 112.445H86.435L89.225 105.725H90.185L87.065 113H86.15ZM94.699 113.12C93.949 113.12 93.304 112.97 92.764 112.67C92.224 112.37 91.809 111.94 91.519 111.38C91.229 110.82 91.084 110.155 91.084 109.385C91.084 108.625 91.229 107.965 91.519 107.405C91.809 106.835 92.209 106.39 92.719 106.07C93.239 105.75 93.834 105.59 94.504 105.59C95.154 105.59 95.704 105.735 96.154 106.025C96.614 106.305 96.964 106.71 97.204 107.24C97.454 107.76 97.579 108.39 97.579 109.13V109.55H91.744V108.875H97.009L96.769 109.07C96.769 108.21 96.579 107.54 96.199 107.06C95.819 106.57 95.259 106.325 94.519 106.325C93.969 106.325 93.504 106.455 93.124 106.715C92.744 106.965 92.459 107.315 92.269 107.765C92.079 108.205 91.984 108.715 91.984 109.295V109.37C91.984 110.01 92.084 110.555 92.284 111.005C92.494 111.445 92.804 111.78 93.214 112.01C93.624 112.24 94.109 112.355 94.669 112.355C95.119 112.355 95.539 112.285 95.929 112.145C96.329 112.005 96.719 111.77 97.099 111.44L97.459 112.13C97.139 112.43 96.729 112.67 96.229 112.85C95.729 113.03 95.219 113.12 94.699 113.12Z" fill="black"/>
<rect x="64" y="137.5" width="19" height="19" stroke="#222120"/>
<g clip-path="url(#clip2_946_18380)">
<path d="M74.28 147L82.88 138.38C83.1 138.16 83.1 137.82 82.88 137.6C82.66 137.38 82.32 137.38 82.1 137.6L73.5 146.22L64.88 137.62C64.68 137.4 64.32 137.4 64.12 137.62C63.9 137.82 63.9 138.18 64.12 138.38L72.72 147L64.12 155.62C63.9 155.84 63.9 156.18 64.12 156.4C64.22 156.5 64.36 156.56 64.5 156.56C64.64 156.56 64.78 156.5 64.88 156.4L73.5 147.78L82.12 156.4C82.22 156.5 82.36 156.56 82.5 156.56C82.64 156.56 82.78 156.5 82.88 156.4C83.1 156.18 83.1 155.84 82.88 155.62L74.28 147Z" fill="#222120"/>
</g>
<rect x="64" y="137.5" width="19" height="19" stroke="#222120"/>
<path d="M49.05 161.805V160.65H50.28V161.805H49.05ZM49.2 171V163.725H50.115V171H49.2ZM52.5252 171V163.725H53.4252V165.42H53.2602C53.4602 164.82 53.8002 164.365 54.2802 164.055C54.7702 163.745 55.3302 163.59 55.9602 163.59C56.5402 163.59 57.0202 163.695 57.4002 163.905C57.7902 164.105 58.0802 164.415 58.2702 164.835C58.4602 165.255 58.5552 165.78 58.5552 166.41V171H57.6402V166.485C57.6402 166.005 57.5752 165.61 57.4452 165.3C57.3252 164.99 57.1302 164.76 56.8602 164.61C56.5902 164.46 56.2452 164.385 55.8252 164.385C55.3452 164.385 54.9252 164.485 54.5652 164.685C54.2152 164.885 53.9402 165.17 53.7402 165.54C53.5402 165.91 53.4402 166.345 53.4402 166.845V171H52.5252ZM63.1688 171.12C62.6788 171.12 62.2388 171.025 61.8488 170.835C61.4688 170.645 61.1638 170.385 60.9338 170.055C60.7138 169.725 60.6038 169.355 60.6038 168.945C60.6038 168.405 60.7388 167.98 61.0088 167.67C61.2788 167.36 61.7338 167.145 62.3738 167.025C63.0138 166.895 63.8938 166.83 65.0138 166.83H65.6588V167.505H65.0288C64.3588 167.505 63.7938 167.525 63.3338 167.565C62.8838 167.605 62.5288 167.68 62.2688 167.79C62.0088 167.89 61.8238 168.03 61.7138 168.21C61.6138 168.39 61.5638 168.61 61.5638 168.87C61.5638 169.32 61.7188 169.685 62.0288 169.965C62.3388 170.245 62.7588 170.385 63.2888 170.385C63.7188 170.385 64.0938 170.285 64.4138 170.085C64.7438 169.875 65.0038 169.59 65.1938 169.23C65.3838 168.87 65.4788 168.46 65.4788 168V166.29C65.4788 165.62 65.3438 165.135 65.0738 164.835C64.8038 164.525 64.3738 164.37 63.7838 164.37C63.3438 164.37 62.9188 164.435 62.5088 164.565C62.1088 164.695 61.6938 164.9 61.2638 165.18L60.9038 164.475C61.1638 164.295 61.4488 164.14 61.7588 164.01C62.0788 163.88 62.4088 163.78 62.7488 163.71C63.0988 163.63 63.4388 163.59 63.7688 163.59C64.3588 163.59 64.8438 163.69 65.2238 163.89C65.6138 164.09 65.8988 164.39 66.0788 164.79C66.2688 165.19 66.3638 165.705 66.3638 166.335V171H65.4938V169.245H65.6438C65.5538 169.635 65.3938 169.97 65.1638 170.25C64.9338 170.53 64.6488 170.745 64.3088 170.895C63.9688 171.045 63.5888 171.12 63.1688 171.12ZM71.7257 171.12C71.0157 171.12 70.4057 170.965 69.8957 170.655C69.3857 170.335 68.9907 169.89 68.7107 169.32C68.4407 168.74 68.3057 168.07 68.3057 167.31C68.3057 166.54 68.4407 165.88 68.7107 165.33C68.9907 164.78 69.3857 164.355 69.8957 164.055C70.4057 163.745 71.0157 163.59 71.7257 163.59C72.1757 163.59 72.6107 163.675 73.0307 163.845C73.4607 164.015 73.8207 164.25 74.1107 164.55L73.7507 165.24C73.4407 164.94 73.1107 164.725 72.7607 164.595C72.4107 164.455 72.0757 164.385 71.7557 164.385C70.9457 164.385 70.3207 164.64 69.8807 165.15C69.4507 165.65 69.2357 166.375 69.2357 167.325C69.2357 168.265 69.4507 169.005 69.8807 169.545C70.3207 170.075 70.9457 170.34 71.7557 170.34C72.0757 170.34 72.4107 170.275 72.7607 170.145C73.1107 170.005 73.4407 169.785 73.7507 169.485L74.1107 170.175C73.8207 170.465 73.4557 170.695 73.0157 170.865C72.5857 171.035 72.1557 171.12 71.7257 171.12ZM78.3854 171.12C77.5754 171.12 76.9654 170.9 76.5554 170.46C76.1554 170.02 75.9554 169.39 75.9554 168.57V164.46H74.5154V163.725H75.9554V161.475H76.8704V163.725H79.2254V164.46H76.8704V168.45C76.8704 169.06 76.9954 169.525 77.2454 169.845C77.4954 170.165 77.9104 170.325 78.4904 170.325C78.6604 170.325 78.8254 170.305 78.9854 170.265C79.1454 170.215 79.2854 170.17 79.4054 170.13L79.5854 170.85C79.4754 170.92 79.3004 170.98 79.0604 171.03C78.8204 171.09 78.5954 171.12 78.3854 171.12ZM80.5148 161.805V160.65H81.7448V161.805H80.5148ZM80.6648 171V163.725H81.5798V171H80.6648ZM86.15 171L83.03 163.725H84.05L86.81 170.445H86.435L89.225 163.725H90.185L87.065 171H86.15ZM94.699 171.12C93.949 171.12 93.304 170.97 92.764 170.67C92.224 170.37 91.809 169.94 91.519 169.38C91.229 168.82 91.084 168.155 91.084 167.385C91.084 166.625 91.229 165.965 91.519 165.405C91.809 164.835 92.209 164.39 92.719 164.07C93.239 163.75 93.834 163.59 94.504 163.59C95.154 163.59 95.704 163.735 96.154 164.025C96.614 164.305 96.964 164.71 97.204 165.24C97.454 165.76 97.579 166.39 97.579 167.13V167.55H91.744V166.875H97.009L96.769 167.07C96.769 166.21 96.579 165.54 96.199 165.06C95.819 164.57 95.259 164.325 94.519 164.325C93.969 164.325 93.504 164.455 93.124 164.715C92.744 164.965 92.459 165.315 92.269 165.765C92.079 166.205 91.984 166.715 91.984 167.295V167.37C91.984 168.01 92.084 168.555 92.284 169.005C92.494 169.445 92.804 169.78 93.214 170.01C93.624 170.24 94.109 170.355 94.669 170.355C95.119 170.355 95.539 170.285 95.929 170.145C96.329 170.005 96.719 169.77 97.099 169.44L97.459 170.13C97.139 170.43 96.729 170.67 96.229 170.85C95.729 171.03 95.219 171.12 94.699 171.12Z" fill="black"/>
<defs>
<clipPath id="clip0_946_18380">
<rect x="63.5" y="20" width="20" height="20" fill="white"/>
</clipPath>
<clipPath id="clip1_946_18380">
<rect x="63.5" y="79" width="20" height="20" fill="white"/>
</clipPath>
<clipPath id="clip2_946_18380">
<rect x="63.5" y="137" width="20" height="20" fill="white"/>
</clipPath>
</defs>
</svg>
