<svg width="1108" height="52" viewBox="0 0 1108 52" fill="none" xmlns="http://www.w3.org/2000/svg">
<g filter="url(#filter0_d_1208_2826)">
<mask id="path-1-inside-1_1208_2826" fill="white">
<path d="M1 5H554.5V42H1V5Z"/>
</mask>
<path d="M1 5H554.5V42H1V5Z" fill="white" shape-rendering="crispEdges"/>
<path d="M1 42H4V5H1H-2V42H1Z" fill="#9E1E4D" mask="url(#path-1-inside-1_1208_2826)"/>
<path d="M21.198 29L26.85 16.31H28.398L34.068 29H32.16L30.612 25.4L31.458 25.904H23.79L24.618 25.4L23.088 29H21.198ZM27.606 18.38L24.888 24.824L24.438 24.392H30.792L30.378 24.824L27.642 18.38H27.606ZM39.314 29.162C38.414 29.162 37.634 28.976 36.974 28.604C36.326 28.22 35.822 27.686 35.462 27.002C35.102 26.306 34.922 25.49 34.922 24.554C34.922 23.63 35.102 22.832 35.462 22.16C35.822 21.488 36.326 20.972 36.974 20.612C37.634 20.24 38.414 20.054 39.314 20.054C39.866 20.054 40.412 20.15 40.952 20.342C41.492 20.522 41.936 20.786 42.284 21.134L41.708 22.412C41.384 22.1 41.018 21.872 40.61 21.728C40.202 21.572 39.818 21.494 39.458 21.494C38.606 21.494 37.946 21.764 37.478 22.304C37.022 22.832 36.794 23.588 36.794 24.572C36.794 25.556 37.022 26.33 37.478 26.894C37.946 27.446 38.606 27.722 39.458 27.722C39.818 27.722 40.202 27.65 40.61 27.506C41.018 27.35 41.384 27.116 41.708 26.804L42.284 28.1C41.936 28.424 41.486 28.682 40.934 28.874C40.394 29.066 39.854 29.162 39.314 29.162ZM47.6079 29.162C46.5159 29.162 45.6939 28.88 45.1419 28.316C44.6019 27.752 44.3319 26.936 44.3319 25.868V21.62H42.6219V20.216H44.3319V17.57H46.1499V20.216H48.8679V21.62H46.1499V25.724C46.1499 26.36 46.2819 26.84 46.5459 27.164C46.8219 27.488 47.2659 27.65 47.8779 27.65C48.0579 27.65 48.2379 27.626 48.4179 27.578C48.6099 27.53 48.7959 27.482 48.9759 27.434L49.2639 28.802C49.0839 28.91 48.8319 28.994 48.5079 29.054C48.1959 29.126 47.8959 29.162 47.6079 29.162ZM50.2762 18.182V16.292H52.4002V18.182H50.2762ZM50.4382 29V20.216H52.2562V29H50.4382ZM57.3891 29L53.6091 20.216H55.5711L58.5051 27.506H58.0011L61.0071 20.216H62.8611L59.0271 29H57.3891ZM68.1305 29.162C67.1705 29.162 66.3425 28.982 65.6465 28.622C64.9625 28.25 64.4285 27.728 64.0445 27.056C63.6725 26.372 63.4865 25.562 63.4865 24.626C63.4865 23.714 63.6725 22.916 64.0445 22.232C64.4165 21.548 64.9265 21.014 65.5745 20.63C66.2225 20.246 66.9605 20.054 67.7885 20.054C68.6045 20.054 69.3005 20.234 69.8765 20.594C70.4645 20.942 70.9145 21.44 71.2265 22.088C71.5385 22.736 71.6945 23.51 71.6945 24.41V25.022H64.9265V23.906H70.4705L70.1645 24.158C70.1645 23.258 69.9665 22.562 69.5705 22.07C69.1745 21.578 68.6045 21.332 67.8605 21.332C67.2965 21.332 66.8165 21.464 66.4205 21.728C66.0365 21.992 65.7425 22.358 65.5385 22.826C65.3345 23.294 65.2325 23.84 65.2325 24.464V24.572C65.2325 25.268 65.3405 25.856 65.5565 26.336C65.7845 26.804 66.1145 27.158 66.5465 27.398C66.9785 27.638 67.5125 27.758 68.1485 27.758C68.6525 27.758 69.1445 27.68 69.6245 27.524C70.1165 27.356 70.5785 27.098 71.0105 26.75L71.5505 28.01C71.1545 28.37 70.6445 28.652 70.0205 28.856C69.3965 29.06 68.7665 29.162 68.1305 29.162ZM81.483 29.162C81.015 29.162 80.559 29.12 80.115 29.036C79.671 28.952 79.263 28.832 78.891 28.676C78.519 28.52 78.189 28.328 77.901 28.1L78.423 26.876C78.723 27.08 79.041 27.26 79.377 27.416C79.713 27.56 80.061 27.668 80.421 27.74C80.793 27.812 81.153 27.848 81.501 27.848C82.137 27.848 82.617 27.734 82.941 27.506C83.265 27.278 83.427 26.972 83.427 26.588C83.427 26.276 83.319 26.036 83.103 25.868C82.887 25.688 82.563 25.55 82.131 25.454L80.421 25.112C79.677 24.956 79.113 24.68 78.729 24.284C78.345 23.888 78.153 23.384 78.153 22.772C78.153 22.22 78.303 21.74 78.603 21.332C78.903 20.924 79.323 20.612 79.863 20.396C80.403 20.168 81.027 20.054 81.735 20.054C82.143 20.054 82.539 20.096 82.923 20.18C83.307 20.264 83.667 20.384 84.003 20.54C84.351 20.696 84.645 20.894 84.885 21.134L84.363 22.358C84.135 22.154 83.871 21.98 83.571 21.836C83.283 21.692 82.983 21.584 82.671 21.512C82.359 21.428 82.047 21.386 81.735 21.386C81.099 21.386 80.619 21.506 80.295 21.746C79.983 21.974 79.827 22.286 79.827 22.682C79.827 22.982 79.923 23.228 80.115 23.42C80.307 23.612 80.607 23.75 81.015 23.834L82.725 24.176C83.505 24.332 84.093 24.596 84.489 24.968C84.897 25.34 85.101 25.844 85.101 26.48C85.101 27.032 84.951 27.512 84.651 27.92C84.351 28.328 83.925 28.64 83.373 28.856C82.833 29.06 82.203 29.162 81.483 29.162ZM90.2557 29.162C89.5477 29.162 88.9537 29.03 88.4737 28.766C88.0057 28.502 87.6517 28.112 87.4117 27.596C87.1837 27.068 87.0697 26.408 87.0697 25.616V20.216H88.8877V25.634C88.8877 26.102 88.9477 26.492 89.0677 26.804C89.1997 27.116 89.3977 27.344 89.6617 27.488C89.9377 27.632 90.2797 27.704 90.6877 27.704C91.1437 27.704 91.5457 27.602 91.8937 27.398C92.2417 27.194 92.5117 26.9 92.7037 26.516C92.8957 26.132 92.9917 25.688 92.9917 25.184V20.216H94.8097V29H93.0457V27.074H93.2797C93.0397 27.746 92.6557 28.262 92.1277 28.622C91.5997 28.982 90.9757 29.162 90.2557 29.162ZM102.088 29.162C101.32 29.162 100.654 28.97 100.09 28.586C99.5258 28.19 99.1478 27.668 98.9558 27.02H99.1538V29H97.3718V16.31H99.1898V22.142H98.9738C99.1658 21.506 99.5438 21.002 100.108 20.63C100.672 20.246 101.332 20.054 102.088 20.054C102.88 20.054 103.564 20.24 104.14 20.612C104.716 20.984 105.16 21.506 105.472 22.178C105.796 22.85 105.958 23.66 105.958 24.608C105.958 25.532 105.796 26.342 105.472 27.038C105.16 27.722 104.71 28.25 104.122 28.622C103.546 28.982 102.868 29.162 102.088 29.162ZM101.638 27.758C102.394 27.758 102.994 27.488 103.438 26.948C103.894 26.408 104.122 25.628 104.122 24.608C104.122 23.576 103.894 22.796 103.438 22.268C102.994 21.74 102.394 21.476 101.638 21.476C100.894 21.476 100.294 21.74 99.8378 22.268C99.3818 22.796 99.1538 23.576 99.1538 24.608C99.1538 25.628 99.3818 26.408 99.8378 26.948C100.294 27.488 100.894 27.758 101.638 27.758ZM111.663 29.162C110.571 29.162 109.749 28.88 109.197 28.316C108.657 27.752 108.387 26.936 108.387 25.868V21.62H106.677V20.216H108.387V17.57H110.205V20.216H112.923V21.62H110.205V25.724C110.205 26.36 110.337 26.84 110.601 27.164C110.877 27.488 111.321 27.65 111.933 27.65C112.113 27.65 112.293 27.626 112.473 27.578C112.665 27.53 112.851 27.482 113.031 27.434L113.319 28.802C113.139 28.91 112.887 28.994 112.563 29.054C112.251 29.126 111.951 29.162 111.663 29.162ZM117.301 29.162C116.689 29.162 116.137 29.042 115.645 28.802C115.165 28.562 114.787 28.238 114.511 27.83C114.235 27.422 114.097 26.96 114.097 26.444C114.097 25.796 114.259 25.286 114.583 24.914C114.919 24.53 115.465 24.26 116.221 24.104C116.989 23.936 118.021 23.852 119.317 23.852H120.163V24.968H119.335C118.687 24.968 118.141 24.992 117.697 25.04C117.253 25.088 116.899 25.166 116.635 25.274C116.371 25.37 116.179 25.508 116.059 25.688C115.951 25.868 115.897 26.084 115.897 26.336C115.897 26.792 116.053 27.164 116.365 27.452C116.677 27.728 117.109 27.866 117.661 27.866C118.105 27.866 118.495 27.764 118.831 27.56C119.167 27.344 119.431 27.056 119.623 26.696C119.827 26.336 119.929 25.922 119.929 25.454V23.384C119.929 22.7 119.785 22.208 119.497 21.908C119.209 21.608 118.735 21.458 118.075 21.458C117.571 21.458 117.067 21.536 116.563 21.692C116.059 21.836 115.543 22.07 115.015 22.394L114.457 21.116C114.769 20.9 115.129 20.714 115.537 20.558C115.945 20.402 116.371 20.282 116.815 20.198C117.271 20.102 117.709 20.054 118.129 20.054C118.933 20.054 119.593 20.18 120.109 20.432C120.637 20.684 121.027 21.068 121.279 21.584C121.531 22.1 121.657 22.766 121.657 23.582V29H119.947V27.038H120.109C120.013 27.482 119.833 27.866 119.569 28.19C119.317 28.502 118.999 28.742 118.615 28.91C118.231 29.078 117.793 29.162 117.301 29.162ZM128.877 29.162C128.109 29.162 127.443 28.97 126.879 28.586C126.315 28.19 125.937 27.668 125.745 27.02H125.943V29H124.161V16.31H125.979V22.142H125.763C125.955 21.506 126.333 21.002 126.897 20.63C127.461 20.246 128.121 20.054 128.877 20.054C129.669 20.054 130.353 20.24 130.929 20.612C131.505 20.984 131.949 21.506 132.261 22.178C132.585 22.85 132.747 23.66 132.747 24.608C132.747 25.532 132.585 26.342 132.261 27.038C131.949 27.722 131.499 28.25 130.911 28.622C130.335 28.982 129.657 29.162 128.877 29.162ZM128.427 27.758C129.183 27.758 129.783 27.488 130.227 26.948C130.683 26.408 130.911 25.628 130.911 24.608C130.911 23.576 130.683 22.796 130.227 22.268C129.783 21.74 129.183 21.476 128.427 21.476C127.683 21.476 127.083 21.74 126.627 22.268C126.171 22.796 125.943 23.576 125.943 24.608C125.943 25.628 126.171 26.408 126.627 26.948C127.083 27.488 127.683 27.758 128.427 27.758Z" fill="#222120"/>
</g>
<g filter="url(#filter1_i_1208_2826)">
<rect width="553.5" height="37" transform="translate(554.5 5)" fill="white"/>
<path d="M576.156 29V16.31H577.254V29H576.156ZM580.352 29V20.27H581.432V22.304H581.234C581.474 21.584 581.882 21.038 582.458 20.666C583.046 20.294 583.718 20.108 584.474 20.108C585.17 20.108 585.746 20.234 586.202 20.486C586.67 20.726 587.018 21.098 587.246 21.602C587.474 22.106 587.588 22.736 587.588 23.492V29H586.49V23.582C586.49 23.006 586.412 22.532 586.256 22.16C586.112 21.788 585.878 21.512 585.554 21.332C585.23 21.152 584.816 21.062 584.312 21.062C583.736 21.062 583.232 21.182 582.8 21.422C582.38 21.662 582.05 22.004 581.81 22.448C581.57 22.892 581.45 23.414 581.45 24.014V29H580.352ZM593.124 29.144C592.536 29.144 592.008 29.03 591.54 28.802C591.084 28.574 590.718 28.262 590.442 27.866C590.178 27.47 590.046 27.026 590.046 26.534C590.046 25.886 590.208 25.376 590.532 25.004C590.856 24.632 591.402 24.374 592.17 24.23C592.938 24.074 593.994 23.996 595.338 23.996H596.112V24.806H595.356C594.552 24.806 593.874 24.83 593.322 24.878C592.782 24.926 592.356 25.016 592.044 25.148C591.732 25.268 591.51 25.436 591.378 25.652C591.258 25.868 591.198 26.132 591.198 26.444C591.198 26.984 591.384 27.422 591.756 27.758C592.128 28.094 592.632 28.262 593.268 28.262C593.784 28.262 594.234 28.142 594.618 27.902C595.014 27.65 595.326 27.308 595.554 26.876C595.782 26.444 595.896 25.952 595.896 25.4V23.348C595.896 22.544 595.734 21.962 595.41 21.602C595.086 21.23 594.57 21.044 593.862 21.044C593.334 21.044 592.824 21.122 592.332 21.278C591.852 21.434 591.354 21.68 590.838 22.016L590.406 21.17C590.718 20.954 591.06 20.768 591.432 20.612C591.816 20.456 592.212 20.336 592.62 20.252C593.04 20.156 593.448 20.108 593.844 20.108C594.552 20.108 595.134 20.228 595.59 20.468C596.058 20.708 596.4 21.068 596.616 21.548C596.844 22.028 596.958 22.646 596.958 23.402V29H595.914V26.894H596.094C595.986 27.362 595.794 27.764 595.518 28.1C595.242 28.436 594.9 28.694 594.492 28.874C594.084 29.054 593.628 29.144 593.124 29.144ZM603.393 29.144C602.541 29.144 601.809 28.958 601.197 28.586C600.585 28.202 600.111 27.668 599.775 26.984C599.451 26.288 599.289 25.484 599.289 24.572C599.289 23.648 599.451 22.856 599.775 22.196C600.111 21.536 600.585 21.026 601.197 20.666C601.809 20.294 602.541 20.108 603.393 20.108C603.933 20.108 604.455 20.21 604.959 20.414C605.475 20.618 605.907 20.9 606.255 21.26L605.823 22.088C605.451 21.728 605.055 21.47 604.635 21.314C604.215 21.146 603.813 21.062 603.429 21.062C602.457 21.062 601.707 21.368 601.179 21.98C600.663 22.58 600.405 23.45 600.405 24.59C600.405 25.718 600.663 26.606 601.179 27.254C601.707 27.89 602.457 28.208 603.429 28.208C603.813 28.208 604.215 28.13 604.635 27.974C605.055 27.806 605.451 27.542 605.823 27.182L606.255 28.01C605.907 28.358 605.469 28.634 604.941 28.838C604.425 29.042 603.909 29.144 603.393 29.144ZM611.384 29.144C610.412 29.144 609.68 28.88 609.188 28.352C608.708 27.824 608.468 27.068 608.468 26.084V21.152H606.74V20.27H608.468V17.57H609.566V20.27H612.392V21.152H609.566V25.94C609.566 26.672 609.716 27.23 610.016 27.614C610.316 27.998 610.814 28.19 611.51 28.19C611.714 28.19 611.912 28.166 612.104 28.118C612.296 28.058 612.464 28.004 612.608 27.956L612.824 28.82C612.692 28.904 612.482 28.976 612.194 29.036C611.906 29.108 611.636 29.144 611.384 29.144ZM613.94 17.966V16.58H615.416V17.966H613.94ZM614.12 29V20.27H615.218V29H614.12ZM620.702 29L616.958 20.27H618.182L621.494 28.334H621.044L624.392 20.27H625.544L621.8 29H620.702ZM630.961 29.144C630.061 29.144 629.287 28.964 628.639 28.604C627.991 28.244 627.493 27.728 627.145 27.056C626.797 26.384 626.623 25.586 626.623 24.662C626.623 23.75 626.797 22.958 627.145 22.286C627.493 21.602 627.973 21.068 628.585 20.684C629.209 20.3 629.923 20.108 630.727 20.108C631.507 20.108 632.167 20.282 632.707 20.63C633.259 20.966 633.679 21.452 633.967 22.088C634.267 22.712 634.417 23.468 634.417 24.356V24.86H627.415V24.05H633.733L633.445 24.284C633.445 23.252 633.217 22.448 632.761 21.872C632.305 21.284 631.633 20.99 630.745 20.99C630.085 20.99 629.527 21.146 629.071 21.458C628.615 21.758 628.273 22.178 628.045 22.718C627.817 23.246 627.703 23.858 627.703 24.554V24.644C627.703 25.412 627.823 26.066 628.063 26.606C628.315 27.134 628.687 27.536 629.179 27.812C629.671 28.088 630.253 28.226 630.925 28.226C631.465 28.226 631.969 28.142 632.437 27.974C632.917 27.806 633.385 27.524 633.841 27.128L634.273 27.956C633.889 28.316 633.397 28.604 632.797 28.82C632.197 29.036 631.585 29.144 630.961 29.144ZM644.016 29.144C643.584 29.144 643.158 29.102 642.738 29.018C642.33 28.934 641.946 28.808 641.586 28.64C641.238 28.472 640.938 28.268 640.686 28.028L641.082 27.218C641.382 27.458 641.694 27.656 642.018 27.812C642.342 27.956 642.672 28.064 643.008 28.136C643.356 28.208 643.704 28.244 644.052 28.244C644.784 28.244 645.342 28.106 645.726 27.83C646.11 27.554 646.302 27.182 646.302 26.714C646.302 26.33 646.176 26.036 645.924 25.832C645.684 25.616 645.288 25.442 644.736 25.31L643.17 24.95C642.414 24.782 641.856 24.512 641.496 24.14C641.136 23.756 640.956 23.264 640.956 22.664C640.956 22.148 641.088 21.698 641.352 21.314C641.628 20.93 642.012 20.636 642.504 20.432C643.008 20.216 643.584 20.108 644.232 20.108C644.628 20.108 645.012 20.156 645.384 20.252C645.756 20.336 646.098 20.462 646.41 20.63C646.722 20.798 646.992 21.008 647.22 21.26L646.788 22.07C646.56 21.842 646.302 21.65 646.014 21.494C645.738 21.338 645.45 21.224 645.15 21.152C644.85 21.068 644.538 21.026 644.214 21.026C643.518 21.026 642.978 21.17 642.594 21.458C642.222 21.746 642.036 22.136 642.036 22.628C642.036 23 642.15 23.3 642.378 23.528C642.618 23.756 642.99 23.93 643.494 24.05L645.06 24.41C645.84 24.59 646.422 24.86 646.806 25.22C647.19 25.568 647.382 26.042 647.382 26.642C647.382 27.158 647.244 27.608 646.968 27.992C646.692 28.364 646.302 28.652 645.798 28.856C645.294 29.048 644.7 29.144 644.016 29.144ZM652.846 29.144C652.15 29.144 651.568 29.018 651.1 28.766C650.644 28.514 650.302 28.136 650.074 27.632C649.846 27.128 649.732 26.504 649.732 25.76V20.27H650.83V25.706C650.83 26.27 650.902 26.738 651.046 27.11C651.202 27.482 651.442 27.758 651.766 27.938C652.09 28.118 652.498 28.208 652.99 28.208C653.53 28.208 654.004 28.088 654.412 27.848C654.82 27.596 655.138 27.248 655.366 26.804C655.606 26.36 655.726 25.838 655.726 25.238V20.27H656.824V29H655.762V26.894H655.978C655.75 27.626 655.354 28.184 654.79 28.568C654.226 28.952 653.578 29.144 652.846 29.144ZM663.875 29.144C663.059 29.144 662.363 28.934 661.787 28.514C661.211 28.094 660.821 27.53 660.617 26.822H660.815V29H659.717V16.31H660.815V22.43H660.617C660.821 21.722 661.211 21.158 661.787 20.738C662.363 20.318 663.059 20.108 663.875 20.108C664.667 20.108 665.351 20.294 665.927 20.666C666.503 21.038 666.947 21.56 667.259 22.232C667.583 22.904 667.745 23.702 667.745 24.626C667.745 25.55 667.583 26.354 667.259 27.038C666.947 27.71 666.497 28.232 665.909 28.604C665.333 28.964 664.655 29.144 663.875 29.144ZM663.713 28.226C664.601 28.226 665.309 27.914 665.837 27.29C666.365 26.666 666.629 25.778 666.629 24.626C666.629 23.486 666.365 22.604 665.837 21.98C665.309 21.356 664.601 21.044 663.713 21.044C662.825 21.044 662.117 21.356 661.589 21.98C661.061 22.604 660.797 23.486 660.797 24.626C660.797 25.778 661.061 26.666 661.589 27.29C662.117 27.914 662.825 28.226 663.713 28.226ZM673.277 29.144C672.305 29.144 671.573 28.88 671.081 28.352C670.601 27.824 670.361 27.068 670.361 26.084V21.152H668.633V20.27H670.361V17.57H671.459V20.27H674.285V21.152H671.459V25.94C671.459 26.672 671.609 27.23 671.909 27.614C672.209 27.998 672.707 28.19 673.403 28.19C673.607 28.19 673.805 28.166 673.997 28.118C674.189 28.058 674.357 28.004 674.501 27.956L674.717 28.82C674.585 28.904 674.375 28.976 674.087 29.036C673.799 29.108 673.529 29.144 673.277 29.144ZM678.712 29.144C678.124 29.144 677.596 29.03 677.128 28.802C676.672 28.574 676.306 28.262 676.03 27.866C675.766 27.47 675.634 27.026 675.634 26.534C675.634 25.886 675.796 25.376 676.12 25.004C676.444 24.632 676.99 24.374 677.758 24.23C678.526 24.074 679.582 23.996 680.926 23.996H681.7V24.806H680.944C680.14 24.806 679.462 24.83 678.91 24.878C678.37 24.926 677.944 25.016 677.632 25.148C677.32 25.268 677.098 25.436 676.966 25.652C676.846 25.868 676.786 26.132 676.786 26.444C676.786 26.984 676.972 27.422 677.344 27.758C677.716 28.094 678.22 28.262 678.856 28.262C679.372 28.262 679.822 28.142 680.206 27.902C680.602 27.65 680.914 27.308 681.142 26.876C681.37 26.444 681.484 25.952 681.484 25.4V23.348C681.484 22.544 681.322 21.962 680.998 21.602C680.674 21.23 680.158 21.044 679.45 21.044C678.922 21.044 678.412 21.122 677.92 21.278C677.44 21.434 676.942 21.68 676.426 22.016L675.994 21.17C676.306 20.954 676.648 20.768 677.02 20.612C677.404 20.456 677.8 20.336 678.208 20.252C678.628 20.156 679.036 20.108 679.432 20.108C680.14 20.108 680.722 20.228 681.178 20.468C681.646 20.708 681.988 21.068 682.204 21.548C682.432 22.028 682.546 22.646 682.546 23.402V29H681.502V26.894H681.682C681.574 27.362 681.382 27.764 681.106 28.1C680.83 28.436 680.488 28.694 680.08 28.874C679.672 29.054 679.216 29.144 678.712 29.144ZM689.575 29.144C688.759 29.144 688.063 28.934 687.487 28.514C686.911 28.094 686.521 27.53 686.317 26.822H686.515V29H685.417V16.31H686.515V22.43H686.317C686.521 21.722 686.911 21.158 687.487 20.738C688.063 20.318 688.759 20.108 689.575 20.108C690.367 20.108 691.051 20.294 691.627 20.666C692.203 21.038 692.647 21.56 692.959 22.232C693.283 22.904 693.445 23.702 693.445 24.626C693.445 25.55 693.283 26.354 692.959 27.038C692.647 27.71 692.197 28.232 691.609 28.604C691.033 28.964 690.355 29.144 689.575 29.144ZM689.413 28.226C690.301 28.226 691.009 27.914 691.537 27.29C692.065 26.666 692.329 25.778 692.329 24.626C692.329 23.486 692.065 22.604 691.537 21.98C691.009 21.356 690.301 21.044 689.413 21.044C688.525 21.044 687.817 21.356 687.289 21.98C686.761 22.604 686.497 23.486 686.497 24.626C686.497 25.778 686.761 26.666 687.289 27.29C687.817 27.914 688.525 28.226 689.413 28.226Z" fill="#222120"/>
</g>
<defs>
<filter id="filter0_d_1208_2826" x="0" y="0" width="559.5" height="43" filterUnits="userSpaceOnUse" color-interpolation-filters="sRGB">
<feFlood flood-opacity="0" result="BackgroundImageFix"/>
<feColorMatrix in="SourceAlpha" type="matrix" values="0 0 0 0 0 0 0 0 0 0 0 0 0 0 0 0 0 0 127 0" result="hardAlpha"/>
<feOffset dx="2" dy="-2"/>
<feGaussianBlur stdDeviation="1.5"/>
<feComposite in2="hardAlpha" operator="out"/>
<feColorMatrix type="matrix" values="0 0 0 0 0 0 0 0 0 0 0 0 0 0 0 0 0 0 0.2 0"/>
<feBlend mode="normal" in2="BackgroundImageFix" result="effect1_dropShadow_1208_2826"/>
<feBlend mode="normal" in="SourceGraphic" in2="effect1_dropShadow_1208_2826" result="shape"/>
</filter>
<filter id="filter1_i_1208_2826" x="554.5" y="2" width="557.5" height="40" filterUnits="userSpaceOnUse" color-interpolation-filters="sRGB">
<feFlood flood-opacity="0" result="BackgroundImageFix"/>
<feBlend mode="normal" in="SourceGraphic" in2="BackgroundImageFix" result="shape"/>
<feColorMatrix in="SourceAlpha" type="matrix" values="0 0 0 0 0 0 0 0 0 0 0 0 0 0 0 0 0 0 127 0" result="hardAlpha"/>
<feOffset dx="4" dy="-3"/>
<feGaussianBlur stdDeviation="2"/>
<feComposite in2="hardAlpha" operator="arithmetic" k2="-1" k3="1"/>
<feColorMatrix type="matrix" values="0 0 0 0 0 0 0 0 0 0 0 0 0 0 0 0 0 0 0.2 0"/>
<feBlend mode="normal" in2="shape" result="effect1_innerShadow_1208_2826"/>
</filter>
</defs>
</svg>
