<svg width="185" height="230" viewBox="0 0 185 230" fill="none" xmlns="http://www.w3.org/2000/svg">
<rect width="185" height="230" fill="white"/>
<path d="M19.464 34L15.544 22.72H16.568L20.2 33.296H19.688L23.352 22.72H24.184L27.832 33.296H27.352L31 22.72H31.992L28.072 34H27.144L23.608 23.744H23.928L20.36 34H19.464ZM36.281 34.128C35.481 34.128 34.793 33.968 34.217 33.648C33.641 33.328 33.1983 32.8693 32.889 32.272C32.5797 31.6747 32.425 30.9653 32.425 30.144C32.425 29.3333 32.5797 28.6293 32.889 28.032C33.1983 27.424 33.625 26.9493 34.169 26.608C34.7237 26.2667 35.3583 26.096 36.073 26.096C36.7663 26.096 37.353 26.2507 37.833 26.56C38.3237 26.8587 38.697 27.2907 38.953 27.856C39.2197 28.4107 39.353 29.0827 39.353 29.872V30.32H33.129V29.6H38.745L38.489 29.808C38.489 28.8907 38.2863 28.176 37.881 27.664C37.4757 27.1413 36.8783 26.88 36.089 26.88C35.5023 26.88 35.0063 27.0187 34.601 27.296C34.1957 27.5627 33.8917 27.936 33.689 28.416C33.4863 28.8853 33.385 29.4293 33.385 30.048V30.128C33.385 30.8107 33.4917 31.392 33.705 31.872C33.929 32.3413 34.2597 32.6987 34.697 32.944C35.1343 33.1893 35.6517 33.312 36.249 33.312C36.729 33.312 37.177 33.2373 37.593 33.088C38.0197 32.9387 38.4357 32.688 38.841 32.336L39.225 33.072C38.8837 33.392 38.4463 33.648 37.913 33.84C37.3797 34.032 36.8357 34.128 36.281 34.128ZM43.5985 34.128C42.8732 34.128 42.3132 33.904 41.9185 33.456C41.5345 33.008 41.3425 32.3733 41.3425 31.552V22.72H42.3185V31.44C42.3185 31.8453 42.3718 32.1867 42.4785 32.464C42.5958 32.7307 42.7612 32.9333 42.9745 33.072C43.1878 33.2107 43.4492 33.28 43.7585 33.28C43.8972 33.28 44.0252 33.2747 44.1425 33.264C44.2705 33.2427 44.3878 33.216 44.4945 33.184L44.4625 34.032C44.3025 34.064 44.1532 34.0853 44.0145 34.096C43.8758 34.1173 43.7372 34.128 43.5985 34.128ZM48.9949 34.128C48.2375 34.128 47.5869 33.9627 47.0429 33.632C46.4989 33.2907 46.0775 32.816 45.7789 32.208C45.4909 31.5893 45.3469 30.8747 45.3469 30.064C45.3469 29.2427 45.4909 28.5387 45.7789 27.952C46.0775 27.3653 46.4989 26.912 47.0429 26.592C47.5869 26.2613 48.2375 26.096 48.9949 26.096C49.4749 26.096 49.9389 26.1867 50.3869 26.368C50.8455 26.5493 51.2295 26.8 51.5389 27.12L51.1549 27.856C50.8242 27.536 50.4722 27.3067 50.0989 27.168C49.7255 27.0187 49.3682 26.944 49.0269 26.944C48.1629 26.944 47.4962 27.216 47.0269 27.76C46.5682 28.2933 46.3389 29.0667 46.3389 30.08C46.3389 31.0827 46.5682 31.872 47.0269 32.448C47.4962 33.0133 48.1629 33.296 49.0269 33.296C49.3682 33.296 49.7255 33.2267 50.0989 33.088C50.4722 32.9387 50.8242 32.704 51.1549 32.384L51.5389 33.12C51.2295 33.4293 50.8402 33.6747 50.3709 33.856C49.9122 34.0373 49.4535 34.128 48.9949 34.128ZM56.1024 34.128C55.377 34.128 54.7477 33.9627 54.2144 33.632C53.681 33.3013 53.265 32.8373 52.9664 32.24C52.6784 31.6427 52.5344 30.9333 52.5344 30.112C52.5344 29.3013 52.6784 28.5973 52.9664 28C53.265 27.392 53.681 26.9227 54.2144 26.592C54.7477 26.2613 55.377 26.096 56.1024 26.096C56.8384 26.096 57.473 26.2613 58.0064 26.592C58.5397 26.9227 58.9504 27.392 59.2384 28C59.537 28.5973 59.6864 29.3013 59.6864 30.112C59.6864 30.9333 59.537 31.6427 59.2384 32.24C58.9504 32.8373 58.5397 33.3013 58.0064 33.632C57.473 33.9627 56.8384 34.128 56.1024 34.128ZM56.1024 33.312C56.9024 33.312 57.5317 33.0347 57.9904 32.48C58.4597 31.9253 58.6944 31.136 58.6944 30.112C58.6944 29.0987 58.4597 28.3147 57.9904 27.76C57.5317 27.2053 56.9024 26.928 56.1024 26.928C55.3237 26.928 54.6997 27.2053 54.2304 27.76C53.761 28.3147 53.5264 29.0987 53.5264 30.112C53.5264 31.136 53.761 31.9253 54.2304 32.48C54.6997 33.0347 55.3237 33.312 56.1024 33.312ZM61.7964 34V26.24H62.7564V28.048H62.5804C62.7084 27.632 62.895 27.28 63.1404 26.992C63.3964 26.704 63.7004 26.4853 64.0524 26.336C64.4044 26.176 64.7884 26.096 65.2044 26.096C65.887 26.096 66.431 26.2613 66.8364 26.592C67.2524 26.9227 67.5244 27.4187 67.6524 28.08H67.4124C67.5937 27.4827 67.9297 27.0027 68.4204 26.64C68.9217 26.2773 69.5084 26.096 70.1804 26.096C70.7564 26.096 71.231 26.208 71.6044 26.432C71.9884 26.656 72.2764 26.992 72.4684 27.44C72.6604 27.8773 72.7564 28.432 72.7564 29.104V34H71.7804V29.184C71.7804 28.4053 71.6417 27.84 71.3644 27.488C71.0977 27.1253 70.6444 26.944 70.0044 26.944C69.5564 26.944 69.1617 27.0507 68.8204 27.264C68.479 27.4773 68.2177 27.7813 68.0364 28.176C67.855 28.5707 67.7644 29.04 67.7644 29.584V34H66.7884V29.184C66.7884 28.4053 66.6497 27.84 66.3724 27.488C66.1057 27.1253 65.6577 26.944 65.0284 26.944C64.5697 26.944 64.1697 27.0507 63.8284 27.264C63.4977 27.4773 63.2364 27.7813 63.0444 28.176C62.863 28.5707 62.7724 29.04 62.7724 29.584V34H61.7964ZM78.6873 34.128C77.8873 34.128 77.1993 33.968 76.6233 33.648C76.0473 33.328 75.6046 32.8693 75.2953 32.272C74.9859 31.6747 74.8313 30.9653 74.8313 30.144C74.8313 29.3333 74.9859 28.6293 75.2953 28.032C75.6046 27.424 76.0313 26.9493 76.5753 26.608C77.1299 26.2667 77.7646 26.096 78.4793 26.096C79.1726 26.096 79.7593 26.2507 80.2393 26.56C80.7299 26.8587 81.1033 27.2907 81.3593 27.856C81.6259 28.4107 81.7593 29.0827 81.7593 29.872V30.32H75.5353V29.6H81.1513L80.8953 29.808C80.8953 28.8907 80.6926 28.176 80.2873 27.664C79.8819 27.1413 79.2846 26.88 78.4953 26.88C77.9086 26.88 77.4126 27.0187 77.0073 27.296C76.6019 27.5627 76.2979 27.936 76.0953 28.416C75.8926 28.8853 75.7913 29.4293 75.7913 30.048V30.128C75.7913 30.8107 75.8979 31.392 76.1113 31.872C76.3353 32.3413 76.6659 32.6987 77.1033 32.944C77.5406 33.1893 78.0579 33.312 78.6553 33.312C79.1353 33.312 79.5833 33.2373 79.9993 33.088C80.4259 32.9387 80.8419 32.688 81.2473 32.336L81.6313 33.072C81.2899 33.392 80.8526 33.648 80.3193 33.84C79.7859 34.032 79.2419 34.128 78.6873 34.128Z" fill="black"/>
<mask id="path-2-inside-1_4_162" fill="white">
<path d="M15 58H170V86H15V58Z"/>
</mask>
<path d="M15 86H18V58H15H12V86H15Z" fill="#9E1E4D" mask="url(#path-2-inside-1_4_162)"/>
<path d="M27.24 77L32.232 65.72H33.496L38.488 77H36.968L35.592 73.8L36.28 74.184H29.432L30.12 73.8L28.76 77H27.24ZM32.84 67.4L30.344 73.304L29.96 72.968H35.752L35.384 73.304L32.872 67.4H32.84ZM43.2003 77.144C42.4109 77.144 41.7283 76.9787 41.1523 76.648C40.5763 76.3067 40.1336 75.832 39.8243 75.224C39.5149 74.6053 39.3603 73.88 39.3603 73.048C39.3603 72.2267 39.5149 71.5173 39.8243 70.92C40.1336 70.3227 40.5763 69.864 41.1523 69.544C41.7283 69.224 42.4109 69.064 43.2003 69.064C43.6909 69.064 44.1709 69.1493 44.6403 69.32C45.1203 69.4907 45.5149 69.7307 45.8243 70.04L45.3443 71.064C45.0349 70.7867 44.6989 70.5787 44.3363 70.44C43.9736 70.3013 43.6269 70.232 43.2963 70.232C42.5176 70.232 41.9149 70.4773 41.4883 70.968C41.0616 71.4587 40.8483 72.1573 40.8483 73.064C40.8483 73.9707 41.0616 74.6853 41.4883 75.208C41.9149 75.72 42.5176 75.976 43.2963 75.976C43.6269 75.976 43.9736 75.9067 44.3363 75.768C44.6989 75.6293 45.0349 75.416 45.3443 75.128L45.8243 76.168C45.5149 76.4773 45.1149 76.7173 44.6243 76.888C44.1443 77.0587 43.6696 77.144 43.2003 77.144ZM50.5094 77.144C49.56 77.144 48.8507 76.8987 48.3814 76.408C47.912 75.9067 47.6774 75.192 47.6774 74.264V70.328H46.1574V69.208H47.6774V66.84H49.1334V69.208H51.5814V70.328H49.1334V74.136C49.1334 74.7227 49.256 75.1653 49.5014 75.464C49.7467 75.7627 50.152 75.912 50.7174 75.912C50.888 75.912 51.0534 75.896 51.2134 75.864C51.384 75.8213 51.544 75.7787 51.6934 75.736L51.9334 76.824C51.784 76.92 51.5707 76.9947 51.2934 77.048C51.0267 77.112 50.7654 77.144 50.5094 77.144ZM52.8678 67.336V65.768H54.6118V67.336H52.8678ZM53.0118 77V69.208H54.4678V77H53.0118ZM59.1126 77L55.7526 69.208H57.3206L60.0246 75.864H59.5766L62.3286 69.208H63.8326L60.4406 77H59.1126ZM64.9459 67.336V65.768H66.6899V67.336H64.9459ZM65.0899 77V69.208H66.5459V77H65.0899ZM72.1188 77.144C71.1694 77.144 70.4601 76.8987 69.9908 76.408C69.5214 75.9067 69.2868 75.192 69.2868 74.264V70.328H67.7668V69.208H69.2868V66.84H70.7428V69.208H73.1908V70.328H70.7428V74.136C70.7428 74.7227 70.8654 75.1653 71.1108 75.464C71.3561 75.7627 71.7614 75.912 72.3268 75.912C72.4974 75.912 72.6628 75.896 72.8228 75.864C72.9934 75.8213 73.1534 75.7787 73.3028 75.736L73.5428 76.824C73.3934 76.92 73.1801 76.9947 72.9028 77.048C72.6361 77.112 72.3748 77.144 72.1188 77.144ZM75.5945 79.88L77.0825 76.536V77.144L73.6745 69.208H75.2425L77.9465 75.864H77.4985L80.2505 69.208H81.7545L77.1145 79.88H75.5945ZM87.1844 77V69.208H88.6084V70.904H88.4324C88.571 70.5093 88.763 70.1787 89.0084 69.912C89.2537 69.6347 89.547 69.4267 89.8884 69.288C90.2404 69.1387 90.6244 69.064 91.0404 69.064C91.7017 69.064 92.235 69.224 92.6404 69.544C93.0457 69.8533 93.3177 70.328 93.4564 70.968H93.2324C93.4244 70.3813 93.7657 69.9173 94.2564 69.576C94.7577 69.2347 95.339 69.064 96.0004 69.064C96.587 69.064 97.067 69.1813 97.4404 69.416C97.8244 69.64 98.1124 69.9813 98.3044 70.44C98.4964 70.888 98.5924 71.464 98.5924 72.168V77H97.1364V72.232C97.1364 71.5493 97.019 71.048 96.7844 70.728C96.5497 70.408 96.155 70.248 95.6004 70.248C95.195 70.248 94.843 70.344 94.5444 70.536C94.2457 70.728 94.0164 71 93.8564 71.352C93.6964 71.704 93.6164 72.1253 93.6164 72.616V77H92.1604V72.232C92.1604 71.5493 92.043 71.048 91.8084 70.728C91.5737 70.408 91.179 70.248 90.6244 70.248C90.219 70.248 89.867 70.344 89.5684 70.536C89.2697 70.728 89.0404 71 88.8804 71.352C88.7204 71.704 88.6404 72.1253 88.6404 72.616V77H87.1844ZM104.534 77.144C103.691 77.144 102.966 76.984 102.358 76.664C101.76 76.3333 101.296 75.8693 100.966 75.272C100.635 74.664 100.47 73.9493 100.47 73.128C100.47 72.3173 100.63 71.608 100.95 71C101.28 70.392 101.728 69.9173 102.294 69.576C102.87 69.2347 103.526 69.064 104.262 69.064C104.976 69.064 105.584 69.2187 106.086 69.528C106.598 69.8373 106.987 70.28 107.254 70.856C107.531 71.4213 107.67 72.104 107.67 72.904V73.432H101.606V72.504H106.71L106.438 72.728C106.438 71.896 106.256 71.256 105.894 70.808C105.531 70.3493 104.998 70.12 104.294 70.12C103.782 70.12 103.344 70.2427 102.982 70.488C102.619 70.7227 102.342 71.0587 102.15 71.496C101.958 71.9227 101.862 72.4187 101.862 72.984V73.08C101.862 73.72 101.963 74.2587 102.166 74.696C102.379 75.1227 102.683 75.448 103.078 75.672C103.472 75.8853 103.958 75.992 104.534 75.992C104.992 75.992 105.435 75.9227 105.862 75.784C106.299 75.6347 106.71 75.4053 107.094 75.096L107.542 76.104C107.19 76.424 106.736 76.68 106.182 76.872C105.638 77.0533 105.088 77.144 104.534 77.144ZM109.481 77V69.208H110.905V70.904H110.729C110.953 70.296 111.315 69.8373 111.817 69.528C112.329 69.2187 112.91 69.064 113.561 69.064C114.19 69.064 114.707 69.176 115.113 69.4C115.518 69.624 115.822 69.9707 116.025 70.44C116.227 70.8987 116.329 71.4747 116.329 72.168V77H114.873V72.248C114.873 71.7893 114.814 71.4107 114.697 71.112C114.579 70.8133 114.393 70.5947 114.137 70.456C113.891 70.3173 113.577 70.248 113.193 70.248C112.745 70.248 112.35 70.344 112.009 70.536C111.667 70.728 111.401 71 111.209 71.352C111.027 71.704 110.937 72.1147 110.937 72.584V77H109.481ZM121.421 77.144C120.791 77.144 120.263 77.0267 119.837 76.792C119.421 76.5573 119.111 76.2107 118.909 75.752C118.706 75.2933 118.605 74.7173 118.605 74.024V69.208H120.061V74.024C120.061 74.4613 120.119 74.824 120.237 75.112C120.354 75.4 120.535 75.6133 120.781 75.752C121.037 75.8907 121.357 75.96 121.741 75.96C122.167 75.96 122.541 75.864 122.861 75.672C123.181 75.48 123.431 75.208 123.613 74.856C123.794 74.504 123.885 74.0933 123.885 73.624V69.208H125.341V77H123.917V75.24H124.125C123.911 75.8587 123.565 76.3333 123.085 76.664C122.615 76.984 122.061 77.144 121.421 77.144ZM130.164 77.144C129.332 77.144 128.708 76.9093 128.292 76.44C127.886 75.96 127.684 75.272 127.684 74.376V65.72H129.14V74.264C129.14 74.6267 129.188 74.936 129.284 75.192C129.39 75.4373 129.54 75.6187 129.732 75.736C129.934 75.8533 130.185 75.912 130.484 75.912C130.601 75.912 130.718 75.9067 130.836 75.896C130.964 75.8853 131.081 75.864 131.188 75.832L131.156 77.016C130.985 77.0587 130.814 77.0907 130.644 77.112C130.484 77.1333 130.324 77.144 130.164 77.144ZM132.352 67.336V65.768H134.096V67.336H132.352ZM132.496 77V69.208H133.952V77H132.496ZM136.293 77V69.208H137.717V70.904H137.541C137.765 70.296 138.128 69.8373 138.629 69.528C139.141 69.2187 139.722 69.064 140.373 69.064C141.002 69.064 141.52 69.176 141.925 69.4C142.33 69.624 142.634 69.9707 142.837 70.44C143.04 70.8987 143.141 71.4747 143.141 72.168V77H141.685V72.248C141.685 71.7893 141.626 71.4107 141.509 71.112C141.392 70.8133 141.205 70.5947 140.949 70.456C140.704 70.3173 140.389 70.248 140.005 70.248C139.557 70.248 139.162 70.344 138.821 70.536C138.48 70.728 138.213 71 138.021 71.352C137.84 71.704 137.749 72.1147 137.749 72.584V77H136.293ZM145.449 77V65.72H146.905V72.648H146.937L150.441 69.208H152.265L148.073 73.32V72.6L152.569 77H150.745L146.937 73.384H146.905V77H145.449Z" fill="black"/>
<path d="M15.24 120L20.232 108.72H21.496L26.488 120H24.968L23.592 116.8L24.28 117.184H17.432L18.12 116.8L16.76 120H15.24ZM20.84 110.4L18.344 116.304L17.96 115.968H23.752L23.384 116.304L20.872 110.4H20.84ZM31.2003 120.144C30.4109 120.144 29.7283 119.979 29.1523 119.648C28.5763 119.307 28.1336 118.832 27.8243 118.224C27.5149 117.605 27.3603 116.88 27.3603 116.048C27.3603 115.227 27.5149 114.517 27.8243 113.92C28.1336 113.323 28.5763 112.864 29.1523 112.544C29.7283 112.224 30.4109 112.064 31.2003 112.064C31.6909 112.064 32.1709 112.149 32.6403 112.32C33.1203 112.491 33.5149 112.731 33.8243 113.04L33.3443 114.064C33.0349 113.787 32.6989 113.579 32.3363 113.44C31.9736 113.301 31.6269 113.232 31.2963 113.232C30.5176 113.232 29.9149 113.477 29.4883 113.968C29.0616 114.459 28.8483 115.157 28.8483 116.064C28.8483 116.971 29.0616 117.685 29.4883 118.208C29.9149 118.72 30.5176 118.976 31.2963 118.976C31.6269 118.976 31.9736 118.907 32.3363 118.768C32.6989 118.629 33.0349 118.416 33.3443 118.128L33.8243 119.168C33.5149 119.477 33.1149 119.717 32.6243 119.888C32.1443 120.059 31.6696 120.144 31.2003 120.144ZM38.5094 120.144C37.56 120.144 36.8507 119.899 36.3814 119.408C35.912 118.907 35.6774 118.192 35.6774 117.264V113.328H34.1574V112.208H35.6774V109.84H37.1334V112.208H39.5814V113.328H37.1334V117.136C37.1334 117.723 37.256 118.165 37.5014 118.464C37.7467 118.763 38.152 118.912 38.7174 118.912C38.888 118.912 39.0534 118.896 39.2134 118.864C39.384 118.821 39.544 118.779 39.6934 118.736L39.9334 119.824C39.784 119.92 39.5707 119.995 39.2934 120.048C39.0267 120.112 38.7654 120.144 38.5094 120.144ZM40.8678 110.336V108.768H42.6118V110.336H40.8678ZM41.0118 120V112.208H42.4678V120H41.0118ZM47.1126 120L43.7526 112.208H45.3206L48.0246 118.864H47.5766L50.3286 112.208H51.8326L48.4406 120H47.1126ZM52.9459 110.336V108.768H54.6899V110.336H52.9459ZM53.0899 120V112.208H54.5459V120H53.0899ZM60.1188 120.144C59.1694 120.144 58.4601 119.899 57.9908 119.408C57.5214 118.907 57.2868 118.192 57.2868 117.264V113.328H55.7668V112.208H57.2868V109.84H58.7428V112.208H61.1908V113.328H58.7428V117.136C58.7428 117.723 58.8654 118.165 59.1108 118.464C59.3561 118.763 59.7614 118.912 60.3268 118.912C60.4974 118.912 60.6628 118.896 60.8228 118.864C60.9934 118.821 61.1534 118.779 61.3028 118.736L61.5428 119.824C61.3934 119.92 61.1801 119.995 60.9028 120.048C60.6361 120.112 60.3748 120.144 60.1188 120.144ZM63.5945 122.88L65.0825 119.536V120.144L61.6745 112.208H63.2425L65.9465 118.864H65.4985L68.2505 112.208H69.7545L65.1145 122.88H63.5945ZM75.1844 120V112.208H76.6084V113.904H76.4324C76.571 113.509 76.763 113.179 77.0084 112.912C77.2537 112.635 77.547 112.427 77.8884 112.288C78.2404 112.139 78.6244 112.064 79.0404 112.064C79.7017 112.064 80.235 112.224 80.6404 112.544C81.0457 112.853 81.3177 113.328 81.4564 113.968H81.2324C81.4244 113.381 81.7657 112.917 82.2564 112.576C82.7577 112.235 83.339 112.064 84.0004 112.064C84.587 112.064 85.067 112.181 85.4404 112.416C85.8244 112.64 86.1124 112.981 86.3044 113.44C86.4964 113.888 86.5924 114.464 86.5924 115.168V120H85.1364V115.232C85.1364 114.549 85.019 114.048 84.7844 113.728C84.5497 113.408 84.155 113.248 83.6004 113.248C83.195 113.248 82.843 113.344 82.5444 113.536C82.2457 113.728 82.0164 114 81.8564 114.352C81.6964 114.704 81.6164 115.125 81.6164 115.616V120H80.1604V115.232C80.1604 114.549 80.043 114.048 79.8084 113.728C79.5737 113.408 79.179 113.248 78.6244 113.248C78.219 113.248 77.867 113.344 77.5684 113.536C77.2697 113.728 77.0404 114 76.8804 114.352C76.7204 114.704 76.6404 115.125 76.6404 115.616V120H75.1844ZM92.5336 120.144C91.691 120.144 90.9656 119.984 90.3576 119.664C89.7603 119.333 89.2963 118.869 88.9656 118.272C88.635 117.664 88.4696 116.949 88.4696 116.128C88.4696 115.317 88.6296 114.608 88.9496 114C89.2803 113.392 89.7283 112.917 90.2936 112.576C90.8696 112.235 91.5256 112.064 92.2616 112.064C92.9763 112.064 93.5843 112.219 94.0856 112.528C94.5976 112.837 94.987 113.28 95.2536 113.856C95.531 114.421 95.6696 115.104 95.6696 115.904V116.432H89.6056V115.504H94.7096L94.4376 115.728C94.4376 114.896 94.2563 114.256 93.8936 113.808C93.531 113.349 92.9976 113.12 92.2936 113.12C91.7816 113.12 91.3443 113.243 90.9816 113.488C90.619 113.723 90.3416 114.059 90.1496 114.496C89.9576 114.923 89.8616 115.419 89.8616 115.984V116.08C89.8616 116.72 89.963 117.259 90.1656 117.696C90.379 118.123 90.683 118.448 91.0776 118.672C91.4723 118.885 91.9576 118.992 92.5336 118.992C92.9923 118.992 93.435 118.923 93.8616 118.784C94.299 118.635 94.7096 118.405 95.0936 118.096L95.5416 119.104C95.1896 119.424 94.7363 119.68 94.1816 119.872C93.6376 120.053 93.0883 120.144 92.5336 120.144ZM97.4805 120V112.208H98.9045V113.904H98.7285C98.9525 113.296 99.3152 112.837 99.8165 112.528C100.329 112.219 100.91 112.064 101.561 112.064C102.19 112.064 102.707 112.176 103.113 112.4C103.518 112.624 103.822 112.971 104.025 113.44C104.227 113.899 104.329 114.475 104.329 115.168V120H102.873V115.248C102.873 114.789 102.814 114.411 102.697 114.112C102.579 113.813 102.393 113.595 102.137 113.456C101.891 113.317 101.577 113.248 101.193 113.248C100.745 113.248 100.35 113.344 100.009 113.536C99.6672 113.728 99.4005 114 99.2085 114.352C99.0272 114.704 98.9365 115.115 98.9365 115.584V120H97.4805ZM109.421 120.144C108.791 120.144 108.263 120.027 107.837 119.792C107.421 119.557 107.111 119.211 106.909 118.752C106.706 118.293 106.605 117.717 106.605 117.024V112.208H108.061V117.024C108.061 117.461 108.119 117.824 108.237 118.112C108.354 118.4 108.535 118.613 108.781 118.752C109.037 118.891 109.357 118.96 109.741 118.96C110.167 118.96 110.541 118.864 110.861 118.672C111.181 118.48 111.431 118.208 111.613 117.856C111.794 117.504 111.885 117.093 111.885 116.624V112.208H113.341V120H111.917V118.24H112.125C111.911 118.859 111.565 119.333 111.085 119.664C110.615 119.984 110.061 120.144 109.421 120.144ZM118.164 120.144C117.332 120.144 116.708 119.909 116.292 119.44C115.886 118.96 115.684 118.272 115.684 117.376V108.72H117.14V117.264C117.14 117.627 117.188 117.936 117.284 118.192C117.39 118.437 117.54 118.619 117.732 118.736C117.934 118.853 118.185 118.912 118.484 118.912C118.601 118.912 118.718 118.907 118.836 118.896C118.964 118.885 119.081 118.864 119.188 118.832L119.156 120.016C118.985 120.059 118.814 120.091 118.644 120.112C118.484 120.133 118.324 120.144 118.164 120.144ZM120.352 110.336V108.768H122.096V110.336H120.352ZM120.496 120V112.208H121.952V120H120.496ZM124.293 120V112.208H125.717V113.904H125.541C125.765 113.296 126.128 112.837 126.629 112.528C127.141 112.219 127.722 112.064 128.373 112.064C129.002 112.064 129.52 112.176 129.925 112.4C130.33 112.624 130.634 112.971 130.837 113.44C131.04 113.899 131.141 114.475 131.141 115.168V120H129.685V115.248C129.685 114.789 129.626 114.411 129.509 114.112C129.392 113.813 129.205 113.595 128.949 113.456C128.704 113.317 128.389 113.248 128.005 113.248C127.557 113.248 127.162 113.344 126.821 113.536C126.48 113.728 126.213 114 126.021 114.352C125.84 114.704 125.749 115.115 125.749 115.584V120H124.293ZM133.449 120V108.72H134.905V115.648H134.937L138.441 112.208H140.265L136.073 116.32V115.6L140.569 120H138.745L134.937 116.384H134.905V120H133.449Z" fill="black"/>
<path d="M15.24 163L20.232 151.72H21.496L26.488 163H24.968L23.592 159.8L24.28 160.184H17.432L18.12 159.8L16.76 163H15.24ZM20.84 153.4L18.344 159.304L17.96 158.968H23.752L23.384 159.304L20.872 153.4H20.84ZM31.2003 163.144C30.4109 163.144 29.7283 162.979 29.1523 162.648C28.5763 162.307 28.1336 161.832 27.8243 161.224C27.5149 160.605 27.3603 159.88 27.3603 159.048C27.3603 158.227 27.5149 157.517 27.8243 156.92C28.1336 156.323 28.5763 155.864 29.1523 155.544C29.7283 155.224 30.4109 155.064 31.2003 155.064C31.6909 155.064 32.1709 155.149 32.6403 155.32C33.1203 155.491 33.5149 155.731 33.8243 156.04L33.3443 157.064C33.0349 156.787 32.6989 156.579 32.3363 156.44C31.9736 156.301 31.6269 156.232 31.2963 156.232C30.5176 156.232 29.9149 156.477 29.4883 156.968C29.0616 157.459 28.8483 158.157 28.8483 159.064C28.8483 159.971 29.0616 160.685 29.4883 161.208C29.9149 161.72 30.5176 161.976 31.2963 161.976C31.6269 161.976 31.9736 161.907 32.3363 161.768C32.6989 161.629 33.0349 161.416 33.3443 161.128L33.8243 162.168C33.5149 162.477 33.1149 162.717 32.6243 162.888C32.1443 163.059 31.6696 163.144 31.2003 163.144ZM38.5094 163.144C37.56 163.144 36.8507 162.899 36.3814 162.408C35.912 161.907 35.6774 161.192 35.6774 160.264V156.328H34.1574V155.208H35.6774V152.84H37.1334V155.208H39.5814V156.328H37.1334V160.136C37.1334 160.723 37.256 161.165 37.5014 161.464C37.7467 161.763 38.152 161.912 38.7174 161.912C38.888 161.912 39.0534 161.896 39.2134 161.864C39.384 161.821 39.544 161.779 39.6934 161.736L39.9334 162.824C39.784 162.92 39.5707 162.995 39.2934 163.048C39.0267 163.112 38.7654 163.144 38.5094 163.144ZM40.8678 153.336V151.768H42.6118V153.336H40.8678ZM41.0118 163V155.208H42.4678V163H41.0118ZM47.1126 163L43.7526 155.208H45.3206L48.0246 161.864H47.5766L50.3286 155.208H51.8326L48.4406 163H47.1126ZM52.9459 153.336V151.768H54.6899V153.336H52.9459ZM53.0899 163V155.208H54.5459V163H53.0899ZM60.1188 163.144C59.1694 163.144 58.4601 162.899 57.9908 162.408C57.5214 161.907 57.2868 161.192 57.2868 160.264V156.328H55.7668V155.208H57.2868V152.84H58.7428V155.208H61.1908V156.328H58.7428V160.136C58.7428 160.723 58.8654 161.165 59.1108 161.464C59.3561 161.763 59.7614 161.912 60.3268 161.912C60.4974 161.912 60.6628 161.896 60.8228 161.864C60.9934 161.821 61.1534 161.779 61.3028 161.736L61.5428 162.824C61.3934 162.92 61.1801 162.995 60.9028 163.048C60.6361 163.112 60.3748 163.144 60.1188 163.144ZM63.5945 165.88L65.0825 162.536V163.144L61.6745 155.208H63.2425L65.9465 161.864H65.4985L68.2505 155.208H69.7545L65.1145 165.88H63.5945ZM75.1844 163V155.208H76.6084V156.904H76.4324C76.571 156.509 76.763 156.179 77.0084 155.912C77.2537 155.635 77.547 155.427 77.8884 155.288C78.2404 155.139 78.6244 155.064 79.0404 155.064C79.7017 155.064 80.235 155.224 80.6404 155.544C81.0457 155.853 81.3177 156.328 81.4564 156.968H81.2324C81.4244 156.381 81.7657 155.917 82.2564 155.576C82.7577 155.235 83.339 155.064 84.0004 155.064C84.587 155.064 85.067 155.181 85.4404 155.416C85.8244 155.64 86.1124 155.981 86.3044 156.44C86.4964 156.888 86.5924 157.464 86.5924 158.168V163H85.1364V158.232C85.1364 157.549 85.019 157.048 84.7844 156.728C84.5497 156.408 84.155 156.248 83.6004 156.248C83.195 156.248 82.843 156.344 82.5444 156.536C82.2457 156.728 82.0164 157 81.8564 157.352C81.6964 157.704 81.6164 158.125 81.6164 158.616V163H80.1604V158.232C80.1604 157.549 80.043 157.048 79.8084 156.728C79.5737 156.408 79.179 156.248 78.6244 156.248C78.219 156.248 77.867 156.344 77.5684 156.536C77.2697 156.728 77.0404 157 76.8804 157.352C76.7204 157.704 76.6404 158.125 76.6404 158.616V163H75.1844ZM92.5336 163.144C91.691 163.144 90.9656 162.984 90.3576 162.664C89.7603 162.333 89.2963 161.869 88.9656 161.272C88.635 160.664 88.4696 159.949 88.4696 159.128C88.4696 158.317 88.6296 157.608 88.9496 157C89.2803 156.392 89.7283 155.917 90.2936 155.576C90.8696 155.235 91.5256 155.064 92.2616 155.064C92.9763 155.064 93.5843 155.219 94.0856 155.528C94.5976 155.837 94.987 156.28 95.2536 156.856C95.531 157.421 95.6696 158.104 95.6696 158.904V159.432H89.6056V158.504H94.7096L94.4376 158.728C94.4376 157.896 94.2563 157.256 93.8936 156.808C93.531 156.349 92.9976 156.12 92.2936 156.12C91.7816 156.12 91.3443 156.243 90.9816 156.488C90.619 156.723 90.3416 157.059 90.1496 157.496C89.9576 157.923 89.8616 158.419 89.8616 158.984V159.08C89.8616 159.72 89.963 160.259 90.1656 160.696C90.379 161.123 90.683 161.448 91.0776 161.672C91.4723 161.885 91.9576 161.992 92.5336 161.992C92.9923 161.992 93.435 161.923 93.8616 161.784C94.299 161.635 94.7096 161.405 95.0936 161.096L95.5416 162.104C95.1896 162.424 94.7363 162.68 94.1816 162.872C93.6376 163.053 93.0883 163.144 92.5336 163.144ZM97.4805 163V155.208H98.9045V156.904H98.7285C98.9525 156.296 99.3152 155.837 99.8165 155.528C100.329 155.219 100.91 155.064 101.561 155.064C102.19 155.064 102.707 155.176 103.113 155.4C103.518 155.624 103.822 155.971 104.025 156.44C104.227 156.899 104.329 157.475 104.329 158.168V163H102.873V158.248C102.873 157.789 102.814 157.411 102.697 157.112C102.579 156.813 102.393 156.595 102.137 156.456C101.891 156.317 101.577 156.248 101.193 156.248C100.745 156.248 100.35 156.344 100.009 156.536C99.6672 156.728 99.4005 157 99.2085 157.352C99.0272 157.704 98.9365 158.115 98.9365 158.584V163H97.4805ZM109.421 163.144C108.791 163.144 108.263 163.027 107.837 162.792C107.421 162.557 107.111 162.211 106.909 161.752C106.706 161.293 106.605 160.717 106.605 160.024V155.208H108.061V160.024C108.061 160.461 108.119 160.824 108.237 161.112C108.354 161.4 108.535 161.613 108.781 161.752C109.037 161.891 109.357 161.96 109.741 161.96C110.167 161.96 110.541 161.864 110.861 161.672C111.181 161.48 111.431 161.208 111.613 160.856C111.794 160.504 111.885 160.093 111.885 159.624V155.208H113.341V163H111.917V161.24H112.125C111.911 161.859 111.565 162.333 111.085 162.664C110.615 162.984 110.061 163.144 109.421 163.144ZM118.164 163.144C117.332 163.144 116.708 162.909 116.292 162.44C115.886 161.96 115.684 161.272 115.684 160.376V151.72H117.14V160.264C117.14 160.627 117.188 160.936 117.284 161.192C117.39 161.437 117.54 161.619 117.732 161.736C117.934 161.853 118.185 161.912 118.484 161.912C118.601 161.912 118.718 161.907 118.836 161.896C118.964 161.885 119.081 161.864 119.188 161.832L119.156 163.016C118.985 163.059 118.814 163.091 118.644 163.112C118.484 163.133 118.324 163.144 118.164 163.144ZM120.352 153.336V151.768H122.096V153.336H120.352ZM120.496 163V155.208H121.952V163H120.496ZM124.293 163V155.208H125.717V156.904H125.541C125.765 156.296 126.128 155.837 126.629 155.528C127.141 155.219 127.722 155.064 128.373 155.064C129.002 155.064 129.52 155.176 129.925 155.4C130.33 155.624 130.634 155.971 130.837 156.44C131.04 156.899 131.141 157.475 131.141 158.168V163H129.685V158.248C129.685 157.789 129.626 157.411 129.509 157.112C129.392 156.813 129.205 156.595 128.949 156.456C128.704 156.317 128.389 156.248 128.005 156.248C127.557 156.248 127.162 156.344 126.821 156.536C126.48 156.728 126.213 157 126.021 157.352C125.84 157.704 125.749 158.115 125.749 158.584V163H124.293ZM133.449 163V151.72H134.905V158.648H134.937L138.441 155.208H140.265L136.073 159.32V158.6L140.569 163H138.745L134.937 159.384H134.905V163H133.449Z" fill="black"/>
<path d="M15.24 206L20.232 194.72H21.496L26.488 206H24.968L23.592 202.8L24.28 203.184H17.432L18.12 202.8L16.76 206H15.24ZM20.84 196.4L18.344 202.304L17.96 201.968H23.752L23.384 202.304L20.872 196.4H20.84ZM31.2003 206.144C30.4109 206.144 29.7283 205.979 29.1523 205.648C28.5763 205.307 28.1336 204.832 27.8243 204.224C27.5149 203.605 27.3603 202.88 27.3603 202.048C27.3603 201.227 27.5149 200.517 27.8243 199.92C28.1336 199.323 28.5763 198.864 29.1523 198.544C29.7283 198.224 30.4109 198.064 31.2003 198.064C31.6909 198.064 32.1709 198.149 32.6403 198.32C33.1203 198.491 33.5149 198.731 33.8243 199.04L33.3443 200.064C33.0349 199.787 32.6989 199.579 32.3363 199.44C31.9736 199.301 31.6269 199.232 31.2963 199.232C30.5176 199.232 29.9149 199.477 29.4883 199.968C29.0616 200.459 28.8483 201.157 28.8483 202.064C28.8483 202.971 29.0616 203.685 29.4883 204.208C29.9149 204.72 30.5176 204.976 31.2963 204.976C31.6269 204.976 31.9736 204.907 32.3363 204.768C32.6989 204.629 33.0349 204.416 33.3443 204.128L33.8243 205.168C33.5149 205.477 33.1149 205.717 32.6243 205.888C32.1443 206.059 31.6696 206.144 31.2003 206.144ZM38.5094 206.144C37.56 206.144 36.8507 205.899 36.3814 205.408C35.912 204.907 35.6774 204.192 35.6774 203.264V199.328H34.1574V198.208H35.6774V195.84H37.1334V198.208H39.5814V199.328H37.1334V203.136C37.1334 203.723 37.256 204.165 37.5014 204.464C37.7467 204.763 38.152 204.912 38.7174 204.912C38.888 204.912 39.0534 204.896 39.2134 204.864C39.384 204.821 39.544 204.779 39.6934 204.736L39.9334 205.824C39.784 205.92 39.5707 205.995 39.2934 206.048C39.0267 206.112 38.7654 206.144 38.5094 206.144ZM40.8678 196.336V194.768H42.6118V196.336H40.8678ZM41.0118 206V198.208H42.4678V206H41.0118ZM47.1126 206L43.7526 198.208H45.3206L48.0246 204.864H47.5766L50.3286 198.208H51.8326L48.4406 206H47.1126ZM52.9459 196.336V194.768H54.6899V196.336H52.9459ZM53.0899 206V198.208H54.5459V206H53.0899ZM60.1188 206.144C59.1694 206.144 58.4601 205.899 57.9908 205.408C57.5214 204.907 57.2868 204.192 57.2868 203.264V199.328H55.7668V198.208H57.2868V195.84H58.7428V198.208H61.1908V199.328H58.7428V203.136C58.7428 203.723 58.8654 204.165 59.1108 204.464C59.3561 204.763 59.7614 204.912 60.3268 204.912C60.4974 204.912 60.6628 204.896 60.8228 204.864C60.9934 204.821 61.1534 204.779 61.3028 204.736L61.5428 205.824C61.3934 205.92 61.1801 205.995 60.9028 206.048C60.6361 206.112 60.3748 206.144 60.1188 206.144ZM63.5945 208.88L65.0825 205.536V206.144L61.6745 198.208H63.2425L65.9465 204.864H65.4985L68.2505 198.208H69.7545L65.1145 208.88H63.5945ZM75.1844 206V198.208H76.6084V199.904H76.4324C76.571 199.509 76.763 199.179 77.0084 198.912C77.2537 198.635 77.547 198.427 77.8884 198.288C78.2404 198.139 78.6244 198.064 79.0404 198.064C79.7017 198.064 80.235 198.224 80.6404 198.544C81.0457 198.853 81.3177 199.328 81.4564 199.968H81.2324C81.4244 199.381 81.7657 198.917 82.2564 198.576C82.7577 198.235 83.339 198.064 84.0004 198.064C84.587 198.064 85.067 198.181 85.4404 198.416C85.8244 198.64 86.1124 198.981 86.3044 199.44C86.4964 199.888 86.5924 200.464 86.5924 201.168V206H85.1364V201.232C85.1364 200.549 85.019 200.048 84.7844 199.728C84.5497 199.408 84.155 199.248 83.6004 199.248C83.195 199.248 82.843 199.344 82.5444 199.536C82.2457 199.728 82.0164 200 81.8564 200.352C81.6964 200.704 81.6164 201.125 81.6164 201.616V206H80.1604V201.232C80.1604 200.549 80.043 200.048 79.8084 199.728C79.5737 199.408 79.179 199.248 78.6244 199.248C78.219 199.248 77.867 199.344 77.5684 199.536C77.2697 199.728 77.0404 200 76.8804 200.352C76.7204 200.704 76.6404 201.125 76.6404 201.616V206H75.1844ZM92.5336 206.144C91.691 206.144 90.9656 205.984 90.3576 205.664C89.7603 205.333 89.2963 204.869 88.9656 204.272C88.635 203.664 88.4696 202.949 88.4696 202.128C88.4696 201.317 88.6296 200.608 88.9496 200C89.2803 199.392 89.7283 198.917 90.2936 198.576C90.8696 198.235 91.5256 198.064 92.2616 198.064C92.9763 198.064 93.5843 198.219 94.0856 198.528C94.5976 198.837 94.987 199.28 95.2536 199.856C95.531 200.421 95.6696 201.104 95.6696 201.904V202.432H89.6056V201.504H94.7096L94.4376 201.728C94.4376 200.896 94.2563 200.256 93.8936 199.808C93.531 199.349 92.9976 199.12 92.2936 199.12C91.7816 199.12 91.3443 199.243 90.9816 199.488C90.619 199.723 90.3416 200.059 90.1496 200.496C89.9576 200.923 89.8616 201.419 89.8616 201.984V202.08C89.8616 202.72 89.963 203.259 90.1656 203.696C90.379 204.123 90.683 204.448 91.0776 204.672C91.4723 204.885 91.9576 204.992 92.5336 204.992C92.9923 204.992 93.435 204.923 93.8616 204.784C94.299 204.635 94.7096 204.405 95.0936 204.096L95.5416 205.104C95.1896 205.424 94.7363 205.68 94.1816 205.872C93.6376 206.053 93.0883 206.144 92.5336 206.144ZM97.4805 206V198.208H98.9045V199.904H98.7285C98.9525 199.296 99.3152 198.837 99.8165 198.528C100.329 198.219 100.91 198.064 101.561 198.064C102.19 198.064 102.707 198.176 103.113 198.4C103.518 198.624 103.822 198.971 104.025 199.44C104.227 199.899 104.329 200.475 104.329 201.168V206H102.873V201.248C102.873 200.789 102.814 200.411 102.697 200.112C102.579 199.813 102.393 199.595 102.137 199.456C101.891 199.317 101.577 199.248 101.193 199.248C100.745 199.248 100.35 199.344 100.009 199.536C99.6672 199.728 99.4005 200 99.2085 200.352C99.0272 200.704 98.9365 201.115 98.9365 201.584V206H97.4805ZM109.421 206.144C108.791 206.144 108.263 206.027 107.837 205.792C107.421 205.557 107.111 205.211 106.909 204.752C106.706 204.293 106.605 203.717 106.605 203.024V198.208H108.061V203.024C108.061 203.461 108.119 203.824 108.237 204.112C108.354 204.4 108.535 204.613 108.781 204.752C109.037 204.891 109.357 204.96 109.741 204.96C110.167 204.96 110.541 204.864 110.861 204.672C111.181 204.48 111.431 204.208 111.613 203.856C111.794 203.504 111.885 203.093 111.885 202.624V198.208H113.341V206H111.917V204.24H112.125C111.911 204.859 111.565 205.333 111.085 205.664C110.615 205.984 110.061 206.144 109.421 206.144ZM118.164 206.144C117.332 206.144 116.708 205.909 116.292 205.44C115.886 204.96 115.684 204.272 115.684 203.376V194.72H117.14V203.264C117.14 203.627 117.188 203.936 117.284 204.192C117.39 204.437 117.54 204.619 117.732 204.736C117.934 204.853 118.185 204.912 118.484 204.912C118.601 204.912 118.718 204.907 118.836 204.896C118.964 204.885 119.081 204.864 119.188 204.832L119.156 206.016C118.985 206.059 118.814 206.091 118.644 206.112C118.484 206.133 118.324 206.144 118.164 206.144ZM120.352 196.336V194.768H122.096V196.336H120.352ZM120.496 206V198.208H121.952V206H120.496ZM124.293 206V198.208H125.717V199.904H125.541C125.765 199.296 126.128 198.837 126.629 198.528C127.141 198.219 127.722 198.064 128.373 198.064C129.002 198.064 129.52 198.176 129.925 198.4C130.33 198.624 130.634 198.971 130.837 199.44C131.04 199.899 131.141 200.475 131.141 201.168V206H129.685V201.248C129.685 200.789 129.626 200.411 129.509 200.112C129.392 199.813 129.205 199.595 128.949 199.456C128.704 199.317 128.389 199.248 128.005 199.248C127.557 199.248 127.162 199.344 126.821 199.536C126.48 199.728 126.213 200 126.021 200.352C125.84 200.704 125.749 201.115 125.749 201.584V206H124.293ZM133.449 206V194.72H134.905V201.648H134.937L138.441 198.208H140.265L136.073 202.32V201.6L140.569 206H138.745L134.937 202.384H134.905V206H133.449Z" fill="black"/>
</svg>
