<svg width="746" height="33" viewBox="0 0 746 33" fill="none" xmlns="http://www.w3.org/2000/svg">
<g clip-path="url(#clip0_1144_48324)">
<mask id="path-1-inside-1_1144_48324" fill="white">
<path d="M0.5 0H745.5V33H0.5V0Z"/>
</mask>
<path d="M0.5 0H745.5V33H0.5V0Z" fill="white"/>
<g clip-path="url(#clip1_1144_48324)">
<path d="M26.7104 24.2744L21.8344 19.3984C21.3974 18.9614 20.7074 18.9614 20.2704 19.3754L18.1314 17.2594C19.1204 16.0634 19.7414 14.5224 19.7414 12.8434C19.7414 9.04836 16.6594 5.94336 12.8414 5.94336C9.02341 5.94336 5.94141 9.02536 5.94141 12.8434C5.94141 16.6614 9.02341 19.7434 12.8414 19.7434C14.4974 19.7434 16.0384 19.1454 17.2344 18.1564L19.3734 20.2724L19.3504 20.2954C18.9134 20.7324 18.9134 21.4684 19.3504 21.9054L24.2264 26.7584C24.6634 27.1954 25.3994 27.1954 25.8364 26.7584L26.7104 25.8844C27.1474 25.4244 27.1474 24.7114 26.7104 24.2744ZM7.22941 12.8434C7.22941 9.73836 9.75941 7.20836 12.8644 7.20836C15.9694 7.20836 18.4994 9.73836 18.4994 12.8434C18.4994 15.9484 15.9694 18.4784 12.8644 18.4784C9.75941 18.4784 7.22941 15.9254 7.22941 12.8434Z" fill="black"/>
</g>
<path d="M76.492 21.628C75.9053 21.628 75.356 21.58 74.844 21.484C74.3427 21.3773 73.8787 21.2227 73.452 21.02C73.036 20.8067 72.6573 20.556 72.316 20.268L72.7 19.452C73.0733 19.74 73.4413 19.98 73.804 20.172C74.1773 20.364 74.5827 20.508 75.02 20.604C75.468 20.6893 75.9587 20.732 76.492 20.732C77.5053 20.732 78.2627 20.5347 78.764 20.14C79.276 19.7453 79.532 19.228 79.532 18.588C79.532 18.236 79.452 17.9373 79.292 17.692C79.132 17.4467 78.876 17.2387 78.524 17.068C78.1827 16.8867 77.7293 16.7427 77.164 16.636L75.548 16.3C74.5347 16.0973 73.7827 15.756 73.292 15.276C72.8013 14.796 72.556 14.156 72.556 13.356C72.556 12.6947 72.7213 12.1187 73.052 11.628C73.3933 11.1373 73.8627 10.7587 74.46 10.492C75.068 10.2253 75.756 10.092 76.524 10.092C77.036 10.092 77.516 10.1453 77.964 10.252C78.4227 10.348 78.844 10.5027 79.228 10.716C79.612 10.9293 79.9533 11.1907 80.252 11.5L79.868 12.3C79.3773 11.8413 78.8653 11.5107 78.332 11.308C77.7987 11.0947 77.196 10.988 76.524 10.988C75.9267 10.988 75.404 11.084 74.956 11.276C74.5187 11.468 74.1773 11.74 73.932 12.092C73.6867 12.444 73.564 12.86 73.564 13.34C73.564 13.8947 73.7347 14.3373 74.076 14.668C74.4173 14.9987 74.9667 15.2387 75.724 15.388L77.356 15.724C78.4333 15.948 79.2333 16.284 79.756 16.732C80.2787 17.1693 80.54 17.772 80.54 18.54C80.54 19.148 80.3747 19.6867 80.044 20.156C79.724 20.6147 79.26 20.9773 78.652 21.244C78.044 21.5 77.324 21.628 76.492 21.628ZM85.8748 21.628C85.0748 21.628 84.3868 21.468 83.8108 21.148C83.2348 20.828 82.7921 20.3693 82.4828 19.772C82.1734 19.1747 82.0188 18.4653 82.0188 17.644C82.0188 16.8333 82.1734 16.1293 82.4828 15.532C82.7921 14.924 83.2188 14.4493 83.7628 14.108C84.3174 13.7667 84.9521 13.596 85.6668 13.596C86.3601 13.596 86.9468 13.7507 87.4268 14.06C87.9174 14.3587 88.2908 14.7907 88.5468 15.356C88.8134 15.9107 88.9468 16.5827 88.9468 17.372V17.82H82.7228V17.1H88.3388L88.0828 17.308C88.0828 16.3907 87.8801 15.676 87.4748 15.164C87.0694 14.6413 86.4721 14.38 85.6828 14.38C85.0961 14.38 84.6001 14.5187 84.1948 14.796C83.7894 15.0627 83.4854 15.436 83.2828 15.916C83.0801 16.3853 82.9788 16.9293 82.9788 17.548V17.628C82.9788 18.3107 83.0854 18.892 83.2988 19.372C83.5228 19.8413 83.8534 20.1987 84.2908 20.444C84.7281 20.6893 85.2454 20.812 85.8428 20.812C86.3228 20.812 86.7708 20.7373 87.1868 20.588C87.6134 20.4387 88.0294 20.188 88.4348 19.836L88.8188 20.572C88.4774 20.892 88.0401 21.148 87.5068 21.34C86.9734 21.532 86.4294 21.628 85.8748 21.628ZM93.3363 21.628C92.8136 21.628 92.3443 21.5267 91.9283 21.324C91.5229 21.1213 91.1976 20.844 90.9523 20.492C90.7176 20.14 90.6003 19.7453 90.6003 19.308C90.6003 18.732 90.7443 18.2787 91.0323 17.948C91.3203 17.6173 91.8056 17.388 92.4883 17.26C93.1709 17.1213 94.1096 17.052 95.3043 17.052H95.9923V17.772H95.3203C94.6056 17.772 94.0029 17.7933 93.5123 17.836C93.0323 17.8787 92.6536 17.9587 92.3763 18.076C92.0989 18.1827 91.9016 18.332 91.7843 18.524C91.6776 18.716 91.6243 18.9507 91.6243 19.228C91.6243 19.708 91.7896 20.0973 92.1203 20.396C92.4509 20.6947 92.8989 20.844 93.4643 20.844C93.9229 20.844 94.3229 20.7373 94.6643 20.524C95.0163 20.3 95.2936 19.996 95.4963 19.612C95.6989 19.228 95.8003 18.7907 95.8003 18.3V16.476C95.8003 15.7613 95.6563 15.244 95.3683 14.924C95.0803 14.5933 94.6216 14.428 93.9923 14.428C93.5229 14.428 93.0696 14.4973 92.6323 14.636C92.2056 14.7747 91.7629 14.9933 91.3043 15.292L90.9203 14.54C91.1976 14.348 91.5016 14.1827 91.8323 14.044C92.1736 13.9053 92.5256 13.7987 92.8883 13.724C93.2616 13.6387 93.6243 13.596 93.9763 13.596C94.6056 13.596 95.1229 13.7027 95.5283 13.916C95.9443 14.1293 96.2483 14.4493 96.4403 14.876C96.6429 15.3027 96.7443 15.852 96.7443 16.524V21.5H95.8163V19.628H95.9763C95.8803 20.044 95.7096 20.4013 95.4643 20.7C95.2189 20.9987 94.9149 21.228 94.5523 21.388C94.1896 21.548 93.7843 21.628 93.3363 21.628ZM99.2956 21.5V13.74H100.256V15.564H100.096C100.298 14.9347 100.624 14.46 101.072 14.14C101.53 13.82 102.128 13.6333 102.864 13.58L103.264 13.548L103.36 14.396L102.672 14.476C101.914 14.5507 101.328 14.8013 100.912 15.228C100.496 15.6547 100.288 16.2307 100.288 16.956V21.5H99.2956ZM107.839 21.628C107.081 21.628 106.431 21.4627 105.887 21.132C105.343 20.7907 104.921 20.316 104.623 19.708C104.335 19.0893 104.191 18.3747 104.191 17.564C104.191 16.7427 104.335 16.0387 104.623 15.452C104.921 14.8653 105.343 14.412 105.887 14.092C106.431 13.7613 107.081 13.596 107.839 13.596C108.319 13.596 108.783 13.6867 109.231 13.868C109.689 14.0493 110.073 14.3 110.383 14.62L109.999 15.356C109.668 15.036 109.316 14.8067 108.943 14.668C108.569 14.5187 108.212 14.444 107.871 14.444C107.007 14.444 106.34 14.716 105.871 15.26C105.412 15.7933 105.183 16.5667 105.183 17.58C105.183 18.5827 105.412 19.372 105.871 19.948C106.34 20.5133 107.007 20.796 107.871 20.796C108.212 20.796 108.569 20.7267 108.943 20.588C109.316 20.4387 109.668 20.204 109.999 19.884L110.383 20.62C110.073 20.9293 109.684 21.1747 109.215 21.356C108.756 21.5373 108.297 21.628 107.839 21.628ZM112.014 21.5V10.22H112.99V15.548H112.798C113.012 14.908 113.374 14.4227 113.886 14.092C114.409 13.7613 115.006 13.596 115.678 13.596C116.297 13.596 116.809 13.708 117.214 13.932C117.63 14.156 117.94 14.492 118.142 14.94C118.345 15.388 118.446 15.9427 118.446 16.604V21.5H117.47V16.684C117.47 16.172 117.401 15.7507 117.262 15.42C117.134 15.0893 116.926 14.844 116.638 14.684C116.35 14.524 115.982 14.444 115.534 14.444C115.022 14.444 114.574 14.5507 114.19 14.764C113.817 14.9773 113.524 15.2813 113.31 15.676C113.097 16.0707 112.99 16.5347 112.99 17.068V21.5H112.014ZM125.351 21.5V14.524H123.815V13.74H125.607L125.351 13.996V13.356C125.351 12.3533 125.596 11.596 126.087 11.084C126.578 10.5613 127.33 10.2733 128.343 10.22L128.903 10.172L128.983 10.972L128.247 11.02C127.81 11.052 127.447 11.1533 127.159 11.324C126.882 11.4947 126.674 11.7453 126.535 12.076C126.396 12.396 126.327 12.796 126.327 13.276V13.964L126.183 13.74H128.615V14.524H126.327V21.5H125.351ZM132.946 21.628C132.221 21.628 131.591 21.4627 131.058 21.132C130.525 20.8013 130.109 20.3373 129.81 19.74C129.522 19.1427 129.378 18.4333 129.378 17.612C129.378 16.8013 129.522 16.0973 129.81 15.5C130.109 14.892 130.525 14.4227 131.058 14.092C131.591 13.7613 132.221 13.596 132.946 13.596C133.682 13.596 134.317 13.7613 134.85 14.092C135.383 14.4227 135.794 14.892 136.082 15.5C136.381 16.0973 136.53 16.8013 136.53 17.612C136.53 18.4333 136.381 19.1427 136.082 19.74C135.794 20.3373 135.383 20.8013 134.85 21.132C134.317 21.4627 133.682 21.628 132.946 21.628ZM132.946 20.812C133.746 20.812 134.375 20.5347 134.834 19.98C135.303 19.4253 135.538 18.636 135.538 17.612C135.538 16.5987 135.303 15.8147 134.834 15.26C134.375 14.7053 133.746 14.428 132.946 14.428C132.167 14.428 131.543 14.7053 131.074 15.26C130.605 15.8147 130.37 16.5987 130.37 17.612C130.37 18.636 130.605 19.4253 131.074 19.98C131.543 20.5347 132.167 20.812 132.946 20.812ZM138.608 21.5V13.74H139.568V15.564H139.408C139.611 14.9347 139.936 14.46 140.384 14.14C140.843 13.82 141.44 13.6333 142.176 13.58L142.576 13.548L142.672 14.396L141.984 14.476C141.227 14.5507 140.64 14.8013 140.224 15.228C139.808 15.6547 139.6 16.2307 139.6 16.956V21.5H138.608ZM147.885 21.5V20.124H149.245V21.5H147.885ZM151.385 21.5V20.124H152.745V21.5H151.385ZM154.885 21.5V20.124H156.245V21.5H154.885Z" fill="black"/>
<path d="M283 25.875L282.05 25.6L288.4 5.9L289.35 6.175L283 25.875Z" fill="#999999"/>
<path d="M309.492 21.628C308.905 21.628 308.356 21.58 307.844 21.484C307.343 21.3773 306.879 21.2227 306.452 21.02C306.036 20.8067 305.657 20.556 305.316 20.268L305.7 19.452C306.073 19.74 306.441 19.98 306.804 20.172C307.177 20.364 307.583 20.508 308.02 20.604C308.468 20.6893 308.959 20.732 309.492 20.732C310.505 20.732 311.263 20.5347 311.764 20.14C312.276 19.7453 312.532 19.228 312.532 18.588C312.532 18.236 312.452 17.9373 312.292 17.692C312.132 17.4467 311.876 17.2387 311.524 17.068C311.183 16.8867 310.729 16.7427 310.164 16.636L308.548 16.3C307.535 16.0973 306.783 15.756 306.292 15.276C305.801 14.796 305.556 14.156 305.556 13.356C305.556 12.6947 305.721 12.1187 306.052 11.628C306.393 11.1373 306.863 10.7587 307.46 10.492C308.068 10.2253 308.756 10.092 309.524 10.092C310.036 10.092 310.516 10.1453 310.964 10.252C311.423 10.348 311.844 10.5027 312.228 10.716C312.612 10.9293 312.953 11.1907 313.252 11.5L312.868 12.3C312.377 11.8413 311.865 11.5107 311.332 11.308C310.799 11.0947 310.196 10.988 309.524 10.988C308.927 10.988 308.404 11.084 307.956 11.276C307.519 11.468 307.177 11.74 306.932 12.092C306.687 12.444 306.564 12.86 306.564 13.34C306.564 13.8947 306.735 14.3373 307.076 14.668C307.417 14.9987 307.967 15.2387 308.724 15.388L310.356 15.724C311.433 15.948 312.233 16.284 312.756 16.732C313.279 17.1693 313.54 17.772 313.54 18.54C313.54 19.148 313.375 19.6867 313.044 20.156C312.724 20.6147 312.26 20.9773 311.652 21.244C311.044 21.5 310.324 21.628 309.492 21.628ZM318.875 21.628C318.075 21.628 317.387 21.468 316.811 21.148C316.235 20.828 315.792 20.3693 315.483 19.772C315.173 19.1747 315.019 18.4653 315.019 17.644C315.019 16.8333 315.173 16.1293 315.483 15.532C315.792 14.924 316.219 14.4493 316.763 14.108C317.317 13.7667 317.952 13.596 318.667 13.596C319.36 13.596 319.947 13.7507 320.427 14.06C320.917 14.3587 321.291 14.7907 321.547 15.356C321.813 15.9107 321.947 16.5827 321.947 17.372V17.82H315.723V17.1H321.339L321.083 17.308C321.083 16.3907 320.88 15.676 320.475 15.164C320.069 14.6413 319.472 14.38 318.683 14.38C318.096 14.38 317.6 14.5187 317.195 14.796C316.789 15.0627 316.485 15.436 316.283 15.916C316.08 16.3853 315.979 16.9293 315.979 17.548V17.628C315.979 18.3107 316.085 18.892 316.299 19.372C316.523 19.8413 316.853 20.1987 317.291 20.444C317.728 20.6893 318.245 20.812 318.843 20.812C319.323 20.812 319.771 20.7373 320.187 20.588C320.613 20.4387 321.029 20.188 321.435 19.836L321.819 20.572C321.477 20.892 321.04 21.148 320.507 21.34C319.973 21.532 319.429 21.628 318.875 21.628ZM326.336 21.628C325.814 21.628 325.344 21.5267 324.928 21.324C324.523 21.1213 324.198 20.844 323.952 20.492C323.718 20.14 323.6 19.7453 323.6 19.308C323.6 18.732 323.744 18.2787 324.032 17.948C324.32 17.6173 324.806 17.388 325.488 17.26C326.171 17.1213 327.11 17.052 328.304 17.052H328.992V17.772H328.32C327.606 17.772 327.003 17.7933 326.512 17.836C326.032 17.8787 325.654 17.9587 325.376 18.076C325.099 18.1827 324.902 18.332 324.784 18.524C324.678 18.716 324.624 18.9507 324.624 19.228C324.624 19.708 324.79 20.0973 325.12 20.396C325.451 20.6947 325.899 20.844 326.464 20.844C326.923 20.844 327.323 20.7373 327.664 20.524C328.016 20.3 328.294 19.996 328.496 19.612C328.699 19.228 328.8 18.7907 328.8 18.3V16.476C328.8 15.7613 328.656 15.244 328.368 14.924C328.08 14.5933 327.622 14.428 326.992 14.428C326.523 14.428 326.07 14.4973 325.632 14.636C325.206 14.7747 324.763 14.9933 324.304 15.292L323.92 14.54C324.198 14.348 324.502 14.1827 324.832 14.044C325.174 13.9053 325.526 13.7987 325.888 13.724C326.262 13.6387 326.624 13.596 326.976 13.596C327.606 13.596 328.123 13.7027 328.528 13.916C328.944 14.1293 329.248 14.4493 329.44 14.876C329.643 15.3027 329.744 15.852 329.744 16.524V21.5H328.816V19.628H328.976C328.88 20.044 328.71 20.4013 328.464 20.7C328.219 20.9987 327.915 21.228 327.552 21.388C327.19 21.548 326.784 21.628 326.336 21.628ZM332.296 21.5V13.74H333.256V15.564H333.096C333.298 14.9347 333.624 14.46 334.072 14.14C334.53 13.82 335.128 13.6333 335.864 13.58L336.264 13.548L336.36 14.396L335.672 14.476C334.914 14.5507 334.328 14.8013 333.912 15.228C333.496 15.6547 333.288 16.2307 333.288 16.956V21.5H332.296ZM340.839 21.628C340.081 21.628 339.431 21.4627 338.887 21.132C338.343 20.7907 337.921 20.316 337.623 19.708C337.335 19.0893 337.191 18.3747 337.191 17.564C337.191 16.7427 337.335 16.0387 337.623 15.452C337.921 14.8653 338.343 14.412 338.887 14.092C339.431 13.7613 340.081 13.596 340.839 13.596C341.319 13.596 341.783 13.6867 342.231 13.868C342.689 14.0493 343.073 14.3 343.383 14.62L342.999 15.356C342.668 15.036 342.316 14.8067 341.943 14.668C341.569 14.5187 341.212 14.444 340.871 14.444C340.007 14.444 339.34 14.716 338.871 15.26C338.412 15.7933 338.183 16.5667 338.183 17.58C338.183 18.5827 338.412 19.372 338.871 19.948C339.34 20.5133 340.007 20.796 340.871 20.796C341.212 20.796 341.569 20.7267 341.943 20.588C342.316 20.4387 342.668 20.204 342.999 19.884L343.383 20.62C343.073 20.9293 342.684 21.1747 342.215 21.356C341.756 21.5373 341.297 21.628 340.839 21.628ZM345.014 21.5V10.22H345.99V15.548H345.798C346.012 14.908 346.374 14.4227 346.886 14.092C347.409 13.7613 348.006 13.596 348.678 13.596C349.297 13.596 349.809 13.708 350.214 13.932C350.63 14.156 350.94 14.492 351.142 14.94C351.345 15.388 351.446 15.9427 351.446 16.604V21.5H350.47V16.684C350.47 16.172 350.401 15.7507 350.262 15.42C350.134 15.0893 349.926 14.844 349.638 14.684C349.35 14.524 348.982 14.444 348.534 14.444C348.022 14.444 347.574 14.5507 347.19 14.764C346.817 14.9773 346.524 15.2813 346.31 15.676C346.097 16.0707 345.99 16.5347 345.99 17.068V21.5H345.014ZM357.823 11.692V10.46H359.135V11.692H357.823ZM357.983 21.5V13.74H358.959V21.5H357.983ZM361.53 21.5V13.74H362.49V15.548H362.314C362.527 14.908 362.89 14.4227 363.402 14.092C363.925 13.7613 364.522 13.596 365.194 13.596C365.813 13.596 366.325 13.708 366.73 13.932C367.146 14.1453 367.455 14.476 367.658 14.924C367.861 15.372 367.962 15.932 367.962 16.604V21.5H366.986V16.684C366.986 16.172 366.917 15.7507 366.778 15.42C366.65 15.0893 366.442 14.844 366.154 14.684C365.866 14.524 365.498 14.444 365.05 14.444C364.538 14.444 364.09 14.5507 363.706 14.764C363.333 14.9773 363.039 15.2813 362.826 15.676C362.613 16.0707 362.506 16.5347 362.506 17.068V21.5H361.53ZM377.667 21.628C376.909 21.628 376.259 21.4627 375.715 21.132C375.171 20.7907 374.749 20.316 374.451 19.708C374.163 19.0893 374.019 18.3747 374.019 17.564C374.019 16.7427 374.163 16.0387 374.451 15.452C374.749 14.8653 375.171 14.412 375.715 14.092C376.259 13.7613 376.909 13.596 377.667 13.596C378.147 13.596 378.611 13.6867 379.059 13.868C379.517 14.0493 379.901 14.3 380.211 14.62L379.827 15.356C379.496 15.036 379.144 14.8067 378.771 14.668C378.397 14.5187 378.04 14.444 377.699 14.444C376.835 14.444 376.168 14.716 375.699 15.26C375.24 15.7933 375.011 16.5667 375.011 17.58C375.011 18.5827 375.24 19.372 375.699 19.948C376.168 20.5133 376.835 20.796 377.699 20.796C378.04 20.796 378.397 20.7267 378.771 20.588C379.144 20.4387 379.496 20.204 379.827 19.884L380.211 20.62C379.901 20.9293 379.512 21.1747 379.043 21.356C378.584 21.5373 378.125 21.628 377.667 21.628ZM384.774 21.628C384.049 21.628 383.42 21.4627 382.886 21.132C382.353 20.8013 381.937 20.3373 381.638 19.74C381.35 19.1427 381.206 18.4333 381.206 17.612C381.206 16.8013 381.35 16.0973 381.638 15.5C381.937 14.892 382.353 14.4227 382.886 14.092C383.42 13.7613 384.049 13.596 384.774 13.596C385.51 13.596 386.145 13.7613 386.678 14.092C387.212 14.4227 387.622 14.892 387.91 15.5C388.209 16.0973 388.358 16.8013 388.358 17.612C388.358 18.4333 388.209 19.1427 387.91 19.74C387.622 20.3373 387.212 20.8013 386.678 21.132C386.145 21.4627 385.51 21.628 384.774 21.628ZM384.774 20.812C385.574 20.812 386.204 20.5347 386.662 19.98C387.132 19.4253 387.366 18.636 387.366 17.612C387.366 16.5987 387.132 15.8147 386.662 15.26C386.204 14.7053 385.574 14.428 384.774 14.428C383.996 14.428 383.372 14.7053 382.902 15.26C382.433 15.8147 382.198 16.5987 382.198 17.612C382.198 18.636 382.433 19.4253 382.902 19.98C383.372 20.5347 383.996 20.812 384.774 20.812ZM392.692 21.628C391.967 21.628 391.407 21.404 391.012 20.956C390.628 20.508 390.436 19.8733 390.436 19.052V10.22H391.412V18.94C391.412 19.3453 391.466 19.6867 391.572 19.964C391.69 20.2307 391.855 20.4333 392.068 20.572C392.282 20.7107 392.543 20.78 392.852 20.78C392.991 20.78 393.119 20.7747 393.236 20.764C393.364 20.7427 393.482 20.716 393.588 20.684L393.556 21.532C393.396 21.564 393.247 21.5853 393.108 21.596C392.97 21.6173 392.831 21.628 392.692 21.628ZM397.735 21.628C397.116 21.628 396.599 21.516 396.183 21.292C395.777 21.068 395.473 20.732 395.271 20.284C395.068 19.836 394.967 19.2813 394.967 18.62V13.74H395.943V18.572C395.943 19.0733 396.007 19.4893 396.135 19.82C396.273 20.1507 396.487 20.396 396.775 20.556C397.063 20.716 397.425 20.796 397.863 20.796C398.343 20.796 398.764 20.6893 399.127 20.476C399.489 20.252 399.772 19.9427 399.975 19.548C400.188 19.1533 400.295 18.6893 400.295 18.156V13.74H401.271V21.5H400.327V19.628H400.519C400.316 20.2787 399.964 20.7747 399.463 21.116C398.961 21.4573 398.385 21.628 397.735 21.628ZM403.875 21.5V13.74H404.835V15.548H404.659C404.787 15.132 404.973 14.78 405.219 14.492C405.475 14.204 405.779 13.9853 406.131 13.836C406.483 13.676 406.867 13.596 407.283 13.596C407.965 13.596 408.509 13.7613 408.915 14.092C409.331 14.4227 409.603 14.9187 409.731 15.58H409.491C409.672 14.9827 410.008 14.5027 410.499 14.14C411 13.7773 411.587 13.596 412.259 13.596C412.835 13.596 413.309 13.708 413.683 13.932C414.067 14.156 414.355 14.492 414.547 14.94C414.739 15.3773 414.835 15.932 414.835 16.604V21.5H413.859V16.684C413.859 15.9053 413.72 15.34 413.443 14.988C413.176 14.6253 412.723 14.444 412.083 14.444C411.635 14.444 411.24 14.5507 410.899 14.764C410.557 14.9773 410.296 15.2813 410.115 15.676C409.933 16.0707 409.843 16.54 409.843 17.084V21.5H408.867V16.684C408.867 15.9053 408.728 15.34 408.451 14.988C408.184 14.6253 407.736 14.444 407.107 14.444C406.648 14.444 406.248 14.5507 405.907 14.764C405.576 14.9773 405.315 15.2813 405.123 15.676C404.941 16.0707 404.851 16.54 404.851 17.084V21.5H403.875ZM417.389 21.5V13.74H418.349V15.548H418.173C418.387 14.908 418.749 14.4227 419.261 14.092C419.784 13.7613 420.381 13.596 421.053 13.596C421.672 13.596 422.184 13.708 422.589 13.932C423.005 14.1453 423.315 14.476 423.517 14.924C423.72 15.372 423.821 15.932 423.821 16.604V21.5H422.845V16.684C422.845 16.172 422.776 15.7507 422.637 15.42C422.509 15.0893 422.301 14.844 422.013 14.684C421.725 14.524 421.357 14.444 420.909 14.444C420.397 14.444 419.949 14.5507 419.565 14.764C419.192 14.9773 418.899 15.2813 418.685 15.676C418.472 16.0707 418.365 16.5347 418.365 17.068V21.5H417.389ZM428.871 21.628C428.487 21.628 428.108 21.5907 427.735 21.516C427.372 21.4413 427.031 21.3293 426.711 21.18C426.401 21.0307 426.135 20.8493 425.911 20.636L426.263 19.916C426.529 20.1293 426.807 20.3053 427.095 20.444C427.383 20.572 427.676 20.668 427.975 20.732C428.284 20.796 428.593 20.828 428.903 20.828C429.553 20.828 430.049 20.7053 430.391 20.46C430.732 20.2147 430.903 19.884 430.903 19.468C430.903 19.1267 430.791 18.8653 430.567 18.684C430.353 18.492 430.001 18.3373 429.511 18.22L428.119 17.9C427.447 17.7507 426.951 17.5107 426.631 17.18C426.311 16.8387 426.151 16.4013 426.151 15.868C426.151 15.4093 426.268 15.0093 426.503 14.668C426.748 14.3267 427.089 14.0653 427.527 13.884C427.975 13.692 428.487 13.596 429.062 13.596C429.415 13.596 429.756 13.6387 430.087 13.724C430.417 13.7987 430.721 13.9107 430.999 14.06C431.276 14.2093 431.516 14.396 431.719 14.62L431.335 15.34C431.132 15.1373 430.903 14.9667 430.647 14.828C430.401 14.6893 430.145 14.588 429.879 14.524C429.612 14.4493 429.335 14.412 429.047 14.412C428.428 14.412 427.948 14.54 427.607 14.796C427.276 15.052 427.111 15.3987 427.111 15.836C427.111 16.1667 427.212 16.4333 427.414 16.636C427.628 16.8387 427.959 16.9933 428.407 17.1L429.799 17.42C430.492 17.58 431.009 17.82 431.351 18.14C431.692 18.4493 431.863 18.8707 431.863 19.404C431.863 19.8627 431.74 20.2627 431.495 20.604C431.249 20.9347 430.903 21.1907 430.455 21.372C430.007 21.5427 429.479 21.628 428.871 21.628Z" fill="black"/>
<path d="M450 20.5L444.371 14.5L455.629 14.5L450 20.5Z" fill="black"/>
<path d="M472 25.875L471.05 25.6L477.4 5.9L478.35 6.175L472 25.875Z" fill="#999999"/>
<path d="M497.18 21.644C496.327 21.644 495.687 21.404 495.26 20.924C494.844 20.4333 494.636 19.7293 494.636 18.812V10.22H496.252V18.716C496.252 19.0573 496.3 19.3507 496.396 19.596C496.492 19.8307 496.636 20.0067 496.828 20.124C497.02 20.2413 497.26 20.3 497.548 20.3C497.676 20.3 497.799 20.2947 497.916 20.284C498.033 20.2733 498.145 20.252 498.252 20.22L498.22 21.516C498.039 21.5587 497.863 21.5907 497.692 21.612C497.521 21.6333 497.351 21.644 497.18 21.644ZM499.383 11.884V10.204H501.271V11.884H499.383ZM499.527 21.5V13.692H501.143V21.5H499.527ZM503.417 21.5V10.22H505.033V17.1H505.065L508.457 13.692H510.457L506.345 17.82V17.068L510.745 21.5H508.729L505.065 17.932H505.033V21.5H503.417ZM515.159 21.644C514.306 21.644 513.57 21.484 512.951 21.164C512.343 20.8333 511.869 20.3693 511.527 19.772C511.197 19.164 511.031 18.444 511.031 17.612C511.031 16.8013 511.197 16.092 511.527 15.484C511.858 14.876 512.311 14.4013 512.887 14.06C513.463 13.7187 514.119 13.548 514.855 13.548C515.581 13.548 516.199 13.708 516.711 14.028C517.234 14.3373 517.634 14.78 517.911 15.356C518.189 15.932 518.327 16.62 518.327 17.42V17.964H512.311V16.972H517.239L516.967 17.196C516.967 16.396 516.791 15.7773 516.439 15.34C516.087 14.9027 515.581 14.684 514.919 14.684C514.418 14.684 513.991 14.8013 513.639 15.036C513.298 15.2707 513.037 15.596 512.855 16.012C512.674 16.428 512.583 16.9133 512.583 17.468V17.564C512.583 18.1827 512.679 18.7053 512.871 19.132C513.074 19.548 513.367 19.8627 513.751 20.076C514.135 20.2893 514.61 20.396 515.175 20.396C515.623 20.396 516.061 20.3267 516.487 20.188C516.925 20.0387 517.335 19.8093 517.719 19.5L518.199 20.62C517.847 20.94 517.394 21.1907 516.839 21.372C516.285 21.5533 515.725 21.644 515.159 21.644Z" fill="black"/>
<path d="M657 20.5L651.371 14.5L662.629 14.5L657 20.5Z" fill="black"/>
<path d="M679 25.875L678.05 25.6L684.4 5.9L685.35 6.175L679 25.875Z" fill="#999999"/>
<g clip-path="url(#clip2_1144_48324)">
<path d="M717.084 16.4999L723.534 10.0349C723.699 9.86992 723.699 9.61492 723.534 9.44992C723.369 9.28492 723.114 9.28492 722.949 9.44992L716.499 15.9149L710.034 9.46492C709.884 9.29992 709.614 9.29992 709.464 9.46492C709.299 9.61492 709.299 9.88492 709.464 10.0349L715.914 16.4999L709.464 22.9649C709.299 23.1299 709.299 23.3849 709.464 23.5499C709.539 23.6249 709.644 23.6699 709.749 23.6699C709.854 23.6699 709.959 23.6249 710.034 23.5499L716.499 17.0849L722.964 23.5499C723.039 23.6249 723.144 23.6699 723.249 23.6699C723.354 23.6699 723.459 23.6249 723.534 23.5499C723.699 23.3849 723.699 23.1299 723.534 22.9649L717.084 16.4999Z" fill="black"/>
</g>
</g>
<path d="M745.5 33V32H0.5V33V34H745.5V33Z" fill="black" mask="url(#path-1-inside-1_1144_48324)"/>
<defs>
<clipPath id="clip0_1144_48324">
<path d="M0.5 0H745.5V33H0.5V0Z" fill="white"/>
</clipPath>
<clipPath id="clip1_1144_48324">
<rect width="23" height="23" fill="white" transform="translate(5 5)"/>
</clipPath>
<clipPath id="clip2_1144_48324">
<rect width="15" height="15" fill="white" transform="translate(709 9)"/>
</clipPath>
</defs>
</svg>
