<svg width="161" height="35" viewBox="0 0 161 35" fill="none" xmlns="http://www.w3.org/2000/svg">
<rect x="0.5" y="0.5" width="160" height="34" fill="white"/>
<rect x="0.5" y="0.5" width="160" height="34" stroke="black"/>
<g clip-path="url(#clip0_735_3458)">
<path d="M17.8411 11.7592C17.8411 9.56271 19.6282 7.77561 21.8247 7.77561C24.0212 7.77561 25.8083 9.56271 25.8083 11.7592V12.693H17.8411V11.7592ZM27.1469 12.7758V11.7408C27.1469 8.81521 24.7595 6.43701 21.8224 6.43701C18.8853 6.43701 16.5002 8.82441 16.5002 11.7592V12.7965C14.6234 13.1921 13.271 14.855 13.271 16.787V22.0747C13.271 24.1976 14.9983 25.9249 17.1212 25.9249H21.4245L21.4981 25.0969C21.5142 24.906 21.5602 24.7197 21.6292 24.5426H17.1212C15.7366 24.5426 14.6119 23.4179 14.6119 22.0333V16.7663C14.6119 15.2598 15.8355 14.0339 17.342 14.0339H26.2844C27.7909 14.0339 29.0168 15.2598 29.0168 16.7663V16.9181L29.6332 16.3017C29.8218 16.1154 30.0357 15.9728 30.2657 15.8785C29.9368 14.3467 28.7339 13.1162 27.1469 12.7758ZM27.8093 25.6972C28.8857 25.3085 29.739 24.4552 30.1277 23.3788L27.8093 25.6972Z" fill="black"/>
<path d="M21.8154 17.086C21.1162 17.086 20.5481 17.6541 20.5481 18.3533V20.2531C20.5481 20.5797 20.6907 20.9155 20.923 21.1386V22.2679C20.923 22.7762 21.337 23.1879 21.843 23.1879C22.349 23.1879 22.763 22.7923 22.763 22.2679V21.1386C22.9953 20.9155 23.1379 20.5797 23.1379 20.2531V18.3418C23.0735 17.638 22.4916 17.086 21.8131 17.086H21.8154Z" fill="black"/>
<path d="M33.4191 17.2654L32.4554 16.3017C31.8643 15.7106 30.9926 15.568 30.2658 15.8785C30.0358 15.9728 29.8219 16.1154 29.6333 16.3017L29.0169 16.9181L22.0732 23.8618C21.88 24.0573 21.7282 24.2896 21.6293 24.5426C21.5603 24.7197 21.5143 24.906 21.4982 25.0969L21.4246 25.9249L21.3326 26.9645C21.2981 27.3532 21.4361 27.7327 21.7121 28.0087C21.9605 28.2571 22.294 28.3951 22.6413 28.3951C22.6781 28.3951 22.7172 28.3928 22.7563 28.3882L24.6239 28.2226C25.0885 28.1835 25.5278 27.9788 25.859 27.6476L33.4191 20.0875C34.1965 19.3101 34.1965 18.0428 33.4191 17.2654ZM30.3555 21.3617L28.9134 22.8038L25.7923 25.9249L24.9643 26.7529C24.8447 26.8748 24.6837 26.9484 24.5135 26.9645L22.6459 27.1278C22.6459 27.1278 22.6229 27.1301 22.6068 27.114C22.5907 27.0979 22.593 27.0818 22.593 27.0749L22.6942 25.9249L22.7586 25.2073C22.7724 25.0371 22.8483 24.8784 22.9679 24.7565L29.0169 18.7075L29.0721 18.6523L30.3555 19.9357L31.0685 20.6487L30.3555 21.3617ZM32.5244 19.1928L31.9632 19.754L29.9668 17.7576L30.528 17.1964C30.8132 16.9112 31.2755 16.9112 31.5607 17.1964L32.5244 18.1601C32.8096 18.4453 32.8096 18.9076 32.5244 19.1928Z" fill="black"/>
</g>
<path d="M42.472 22.5V11.22H49.416V12.068H43.432V16.356H49.08V17.204H43.432V21.652H49.416V22.5H42.472ZM54.3806 22.628C53.6873 22.628 53.0793 22.468 52.5566 22.148C52.0446 21.8173 51.6446 21.3533 51.3566 20.756C51.0793 20.148 50.9406 19.4333 50.9406 18.612C50.9406 17.7907 51.0793 17.0813 51.3566 16.484C51.634 15.8867 52.0286 15.4227 52.5406 15.092C53.0633 14.7613 53.6766 14.596 54.3806 14.596C55.106 14.596 55.7246 14.7827 56.2366 15.156C56.7486 15.5293 57.09 16.0307 57.2606 16.66H57.0846V11.22H58.0606V22.5H57.1006V20.564H57.2606C57.09 21.1933 56.7486 21.6947 56.2366 22.068C55.7246 22.4413 55.106 22.628 54.3806 22.628ZM54.5086 21.812C55.3086 21.812 55.938 21.5347 56.3966 20.98C56.866 20.4253 57.1006 19.636 57.1006 18.612C57.1006 17.5987 56.866 16.8147 56.3966 16.26C55.938 15.7053 55.3086 15.428 54.5086 15.428C53.73 15.428 53.106 15.7053 52.6366 16.26C52.1673 16.8147 51.9326 17.5987 51.9326 18.612C51.9326 19.636 52.1673 20.4253 52.6366 20.98C53.106 21.5347 53.73 21.812 54.5086 21.812ZM60.4638 12.692V11.46H61.7758V12.692H60.4638ZM60.6238 22.5V14.74H61.5998V22.5H60.6238ZM67.0986 22.628C66.2346 22.628 65.584 22.3933 65.1466 21.924C64.72 21.4547 64.5066 20.7827 64.5066 19.908V15.524H62.9706V14.74H64.5066V12.34H65.4826V14.74H67.9946V15.524H65.4826V19.78C65.4826 20.4307 65.616 20.9267 65.8826 21.268C66.1493 21.6093 66.592 21.78 67.2106 21.78C67.392 21.78 67.568 21.7587 67.7386 21.716C67.9093 21.6627 68.0586 21.6147 68.1866 21.572L68.3786 22.34C68.2613 22.4147 68.0746 22.4787 67.8186 22.532C67.5626 22.596 67.3226 22.628 67.0986 22.628ZM73.5456 25.38V14.74H74.5216V16.676H74.3456C74.527 16.036 74.8736 15.5293 75.3856 15.156C75.8976 14.7827 76.5163 14.596 77.2416 14.596C77.935 14.596 78.5376 14.7613 79.0496 15.092C79.5723 15.4227 79.9723 15.8867 80.2496 16.484C80.5376 17.0813 80.6816 17.7907 80.6816 18.612C80.6816 19.4333 80.5376 20.148 80.2496 20.756C79.9723 21.3533 79.5776 21.8173 79.0656 22.148C78.5536 22.468 77.9456 22.628 77.2416 22.628C76.5163 22.628 75.8976 22.4413 75.3856 22.068C74.8736 21.6947 74.527 21.1987 74.3456 20.58H74.5216V25.38H73.5456ZM77.0976 21.812C77.887 21.812 78.5163 21.5347 78.9856 20.98C79.455 20.4253 79.6896 19.636 79.6896 18.612C79.6896 17.5987 79.455 16.8147 78.9856 16.26C78.5163 15.7053 77.887 15.428 77.0976 15.428C76.3083 15.428 75.679 15.7053 75.2096 16.26C74.7403 16.8147 74.5056 17.5987 74.5056 18.612C74.5056 19.636 74.7403 20.4253 75.2096 20.98C75.679 21.5347 76.3083 21.812 77.0976 21.812ZM86.1248 22.628C85.3248 22.628 84.6368 22.468 84.0608 22.148C83.4848 21.828 83.0421 21.3693 82.7328 20.772C82.4234 20.1747 82.2688 19.4653 82.2688 18.644C82.2688 17.8333 82.4234 17.1293 82.7328 16.532C83.0421 15.924 83.4688 15.4493 84.0128 15.108C84.5674 14.7667 85.2021 14.596 85.9168 14.596C86.6101 14.596 87.1968 14.7507 87.6768 15.06C88.1674 15.3587 88.5408 15.7907 88.7968 16.356C89.0634 16.9107 89.1968 17.5827 89.1968 18.372V18.82H82.9728V18.1H88.5888L88.3328 18.308C88.3328 17.3907 88.1301 16.676 87.7248 16.164C87.3194 15.6413 86.7221 15.38 85.9328 15.38C85.3461 15.38 84.8501 15.5187 84.4448 15.796C84.0394 16.0627 83.7354 16.436 83.5328 16.916C83.3301 17.3853 83.2288 17.9293 83.2288 18.548V18.628C83.2288 19.3107 83.3354 19.892 83.5488 20.372C83.7728 20.8413 84.1034 21.1987 84.5408 21.444C84.9781 21.6893 85.4954 21.812 86.0928 21.812C86.5728 21.812 87.0208 21.7373 87.4368 21.588C87.8634 21.4387 88.2794 21.188 88.6848 20.836L89.0688 21.572C88.7274 21.892 88.2901 22.148 87.7568 22.34C87.2234 22.532 86.6794 22.628 86.1248 22.628ZM91.1863 22.5V14.74H92.1463V16.564H91.9863C92.1889 15.9347 92.5143 15.46 92.9623 15.14C93.4209 14.82 94.0183 14.6333 94.7543 14.58L95.1543 14.548L95.2503 15.396L94.5623 15.476C93.8049 15.5507 93.2183 15.8013 92.8023 16.228C92.3863 16.6547 92.1783 17.2307 92.1783 17.956V22.5H91.1863ZM96.687 22.5V14.74H97.647V16.548H97.471C97.599 16.132 97.7857 15.78 98.031 15.492C98.287 15.204 98.591 14.9853 98.943 14.836C99.295 14.676 99.679 14.596 100.095 14.596C100.778 14.596 101.322 14.7613 101.727 15.092C102.143 15.4227 102.415 15.9187 102.543 16.58H102.303C102.484 15.9827 102.82 15.5027 103.311 15.14C103.812 14.7773 104.399 14.596 105.071 14.596C105.647 14.596 106.122 14.708 106.495 14.932C106.879 15.156 107.167 15.492 107.359 15.94C107.551 16.3773 107.647 16.932 107.647 17.604V22.5H106.671V17.684C106.671 16.9053 106.532 16.34 106.255 15.988C105.988 15.6253 105.535 15.444 104.895 15.444C104.447 15.444 104.052 15.5507 103.711 15.764C103.37 15.9773 103.108 16.2813 102.927 16.676C102.746 17.0707 102.655 17.54 102.655 18.084V22.5H101.679V17.684C101.679 16.9053 101.54 16.34 101.263 15.988C100.996 15.6253 100.548 15.444 99.919 15.444C99.4603 15.444 99.0603 15.5507 98.719 15.764C98.3883 15.9773 98.127 16.2813 97.935 16.676C97.7537 17.0707 97.663 17.54 97.663 18.084V22.5H96.687ZM110.042 12.692V11.46H111.354V12.692H110.042ZM110.202 22.5V14.74H111.178V22.5H110.202ZM116.277 22.628C115.893 22.628 115.514 22.5907 115.141 22.516C114.778 22.4413 114.437 22.3293 114.117 22.18C113.807 22.0307 113.541 21.8493 113.317 21.636L113.669 20.916C113.935 21.1293 114.213 21.3053 114.501 21.444C114.789 21.572 115.082 21.668 115.381 21.732C115.69 21.796 115.999 21.828 116.309 21.828C116.959 21.828 117.455 21.7053 117.797 21.46C118.138 21.2147 118.309 20.884 118.309 20.468C118.309 20.1267 118.197 19.8653 117.973 19.684C117.759 19.492 117.407 19.3373 116.917 19.22L115.525 18.9C114.853 18.7507 114.357 18.5107 114.037 18.18C113.717 17.8387 113.557 17.4013 113.557 16.868C113.557 16.4093 113.674 16.0093 113.909 15.668C114.154 15.3267 114.495 15.0653 114.933 14.884C115.381 14.692 115.893 14.596 116.469 14.596C116.821 14.596 117.162 14.6387 117.493 14.724C117.823 14.7987 118.127 14.9107 118.405 15.06C118.682 15.2093 118.922 15.396 119.125 15.62L118.741 16.34C118.538 16.1373 118.309 15.9667 118.053 15.828C117.807 15.6893 117.551 15.588 117.285 15.524C117.018 15.4493 116.741 15.412 116.453 15.412C115.834 15.412 115.354 15.54 115.013 15.796C114.682 16.052 114.517 16.3987 114.517 16.836C114.517 17.1667 114.618 17.4333 114.821 17.636C115.034 17.8387 115.365 17.9933 115.813 18.1L117.205 18.42C117.898 18.58 118.415 18.82 118.757 19.14C119.098 19.4493 119.269 19.8707 119.269 20.404C119.269 20.8627 119.146 21.2627 118.901 21.604C118.655 21.9347 118.309 22.1907 117.861 22.372C117.413 22.5427 116.885 22.628 116.277 22.628ZM123.917 22.628C123.533 22.628 123.155 22.5907 122.781 22.516C122.419 22.4413 122.077 22.3293 121.757 22.18C121.448 22.0307 121.181 21.8493 120.957 21.636L121.309 20.916C121.576 21.1293 121.853 21.3053 122.141 21.444C122.429 21.572 122.723 21.668 123.021 21.732C123.331 21.796 123.64 21.828 123.949 21.828C124.6 21.828 125.096 21.7053 125.437 21.46C125.779 21.2147 125.949 20.884 125.949 20.468C125.949 20.1267 125.837 19.8653 125.613 19.684C125.4 19.492 125.048 19.3373 124.557 19.22L123.165 18.9C122.493 18.7507 121.997 18.5107 121.677 18.18C121.357 17.8387 121.197 17.4013 121.197 16.868C121.197 16.4093 121.315 16.0093 121.549 15.668C121.795 15.3267 122.136 15.0653 122.573 14.884C123.021 14.692 123.533 14.596 124.109 14.596C124.461 14.596 124.803 14.6387 125.133 14.724C125.464 14.7987 125.768 14.9107 126.045 15.06C126.323 15.2093 126.563 15.396 126.765 15.62L126.381 16.34C126.179 16.1373 125.949 15.9667 125.693 15.828C125.448 15.6893 125.192 15.588 124.925 15.524C124.659 15.4493 124.381 15.412 124.093 15.412C123.475 15.412 122.995 15.54 122.653 15.796C122.323 16.052 122.157 16.3987 122.157 16.836C122.157 17.1667 122.259 17.4333 122.461 17.636C122.675 17.8387 123.005 17.9933 123.453 18.1L124.845 18.42C125.539 18.58 126.056 18.82 126.397 19.14C126.739 19.4493 126.909 19.8707 126.909 20.404C126.909 20.8627 126.787 21.2627 126.541 21.604C126.296 21.9347 125.949 22.1907 125.501 22.372C125.053 22.5427 124.525 22.628 123.917 22.628ZM128.87 12.692V11.46H130.182V12.692H128.87ZM129.03 22.5V14.74H130.006V22.5H129.03ZM135.665 22.628C134.94 22.628 134.31 22.4627 133.777 22.132C133.244 21.8013 132.828 21.3373 132.529 20.74C132.241 20.1427 132.097 19.4333 132.097 18.612C132.097 17.8013 132.241 17.0973 132.529 16.5C132.828 15.892 133.244 15.4227 133.777 15.092C134.31 14.7613 134.94 14.596 135.665 14.596C136.401 14.596 137.036 14.7613 137.569 15.092C138.102 15.4227 138.513 15.892 138.801 16.5C139.1 17.0973 139.249 17.8013 139.249 18.612C139.249 19.4333 139.1 20.1427 138.801 20.74C138.513 21.3373 138.102 21.8013 137.569 22.132C137.036 22.4627 136.401 22.628 135.665 22.628ZM135.665 21.812C136.465 21.812 137.094 21.5347 137.553 20.98C138.022 20.4253 138.257 19.636 138.257 18.612C138.257 17.5987 138.022 16.8147 137.553 16.26C137.094 15.7053 136.465 15.428 135.665 15.428C134.886 15.428 134.262 15.7053 133.793 16.26C133.324 16.8147 133.089 17.5987 133.089 18.612C133.089 19.636 133.324 20.4253 133.793 20.98C134.262 21.5347 134.886 21.812 135.665 21.812ZM141.327 22.5V14.74H142.287V16.548H142.111C142.324 15.908 142.687 15.4227 143.199 15.092C143.722 14.7613 144.319 14.596 144.991 14.596C145.61 14.596 146.122 14.708 146.527 14.932C146.943 15.1453 147.252 15.476 147.455 15.924C147.658 16.372 147.759 16.932 147.759 17.604V22.5H146.783V17.684C146.783 17.172 146.714 16.7507 146.575 16.42C146.447 16.0893 146.239 15.844 145.951 15.684C145.663 15.524 145.295 15.444 144.847 15.444C144.335 15.444 143.887 15.5507 143.503 15.764C143.13 15.9773 142.836 16.2813 142.623 16.676C142.41 17.0707 142.303 17.5347 142.303 18.068V22.5H141.327Z" fill="black"/>
<defs>
<clipPath id="clip0_735_3458">
<rect width="23" height="23" fill="white" transform="translate(11.5 6)"/>
</clipPath>
</defs>
</svg>
