<svg width="1900" height="1080" viewBox="0 0 1900 1080" fill="none" xmlns="http://www.w3.org/2000/svg">
<g clip-path="url(#clip0_163_995)">
<rect width="1900" height="1080" fill="white"/>
<rect x="200" width="1500" height="220" fill="#EBEBEB"/>
<path d="M609.521 93L611.071 85.05H608.621V79.75H612.071L613.871 70.6H609.721V65.3H614.821L616.371 57.75H622.121L620.571 65.3H624.921L626.421 57.75H632.171L630.671 65.3H633.121V70.6H629.671L627.871 79.75H632.021V85.05H626.871L625.321 93H619.571L621.121 85.05H616.821L615.271 93H609.521ZM617.821 79.75H622.121L623.921 70.6H619.621L617.821 79.75ZM638.552 93V68.4H647.202V72.7H646.652C647.118 71.7 647.735 70.85 648.502 70.15C649.268 69.4167 650.168 68.85 651.202 68.45C652.268 68.05 653.435 67.85 654.702 67.85C656.502 67.85 658.035 68.2833 659.302 69.15C660.602 70.0167 661.535 71.3333 662.102 73.1H661.402C662.168 71.4667 663.318 70.1833 664.852 69.25C666.385 68.3167 668.085 67.85 669.952 67.85C671.885 67.85 673.468 68.2333 674.702 69C675.935 69.7333 676.852 70.9 677.452 72.5C678.085 74.0667 678.402 76.05 678.402 78.45V93H669.502V78.7C669.502 77.2667 669.285 76.2333 668.852 75.6C668.418 74.9667 667.702 74.65 666.702 74.65C665.902 74.65 665.202 74.85 664.602 75.25C664.035 75.6167 663.602 76.1833 663.302 76.95C663.035 77.6833 662.902 78.5833 662.902 79.65V93H654.002V78.7C654.002 77.2667 653.785 76.2333 653.352 75.6C652.918 74.9667 652.202 74.65 651.202 74.65C650.402 74.65 649.718 74.85 649.152 75.25C648.585 75.6167 648.152 76.1833 647.852 76.95C647.585 77.6833 647.452 78.5833 647.452 79.65V93H638.552ZM692.119 93.55C690.219 93.55 688.535 93.2 687.069 92.5C685.635 91.8 684.502 90.85 683.669 89.65C682.869 88.4167 682.469 87.0167 682.469 85.45C682.469 83.65 682.935 82.2333 683.869 81.2C684.802 80.1667 686.302 79.4333 688.369 79C690.435 78.5333 693.185 78.3 696.619 78.3H699.369V82.5H696.619C695.652 82.5 694.802 82.55 694.069 82.65C693.369 82.75 692.785 82.9167 692.319 83.15C691.852 83.35 691.502 83.6167 691.269 83.95C691.035 84.2833 690.919 84.6667 690.919 85.1C690.919 85.8667 691.185 86.5 691.719 87C692.285 87.5 693.085 87.75 694.119 87.75C694.952 87.75 695.685 87.5667 696.319 87.2C696.985 86.8333 697.519 86.3333 697.919 85.7C698.319 85.0333 698.519 84.2667 698.519 83.4V77.6C698.519 76.4 698.202 75.55 697.569 75.05C696.969 74.55 695.919 74.3 694.419 74.3C693.152 74.3 691.752 74.5 690.219 74.9C688.685 75.3 687.185 75.9167 685.719 76.75L683.469 70.9C684.335 70.3 685.402 69.7667 686.669 69.3C687.969 68.8333 689.335 68.4833 690.769 68.25C692.235 67.9833 693.585 67.85 694.819 67.85C697.552 67.85 699.802 68.25 701.569 69.05C703.369 69.8167 704.702 71.0167 705.569 72.65C706.469 74.25 706.919 76.3167 706.919 78.85V93H698.619V88.35H698.919C698.752 89.4167 698.369 90.3333 697.769 91.1C697.169 91.8667 696.385 92.4667 695.419 92.9C694.452 93.3333 693.352 93.55 692.119 93.55ZM711.737 64.15V56.1H721.087V64.15H711.737ZM711.987 93V68.4H720.887V93H711.987ZM726.049 93V68.4H734.699V72.7H734.149C734.949 71.1333 736.083 69.9333 737.549 69.1C739.049 68.2667 740.749 67.85 742.649 67.85C744.616 67.85 746.233 68.2333 747.499 69C748.766 69.7333 749.716 70.9 750.349 72.5C750.983 74.0667 751.299 76.05 751.299 78.45V93H742.399V78.8C742.399 77.8 742.283 77 742.049 76.4C741.816 75.7667 741.466 75.3167 740.999 75.05C740.566 74.7833 740.016 74.65 739.349 74.65C738.449 74.65 737.666 74.85 736.999 75.25C736.333 75.6167 735.816 76.15 735.449 76.85C735.116 77.55 734.949 78.3833 734.949 79.35V93H726.049ZM782.278 102C780.011 102 778.228 101.35 776.928 100.05C775.661 98.7833 775.028 97.0167 775.028 94.75V87.1C775.028 85.8 774.811 84.8667 774.378 84.3C773.978 83.7333 773.261 83.4 772.228 83.3L769.878 83.1V76.75L772.228 76.5C773.261 76.4 773.978 76.0667 774.378 75.5C774.811 74.9333 775.028 74 775.028 72.7V65C775.028 62.7 775.661 60.9167 776.928 59.65C778.228 58.3833 780.011 57.75 782.278 57.75H789.128V64.3H785.978C785.245 64.3 784.711 64.4667 784.378 64.8C784.078 65.1333 783.928 65.6833 783.928 66.45V73.8C783.928 74.8667 783.695 75.8833 783.228 76.85C782.761 77.7833 782.128 78.55 781.328 79.15C780.561 79.75 779.728 80.05 778.828 80.05V79.85C779.728 79.85 780.561 80.1333 781.328 80.7C782.128 81.2667 782.761 82.0333 783.228 83C783.695 83.9333 783.928 84.9333 783.928 86V93.3C783.928 94.0333 784.078 94.5667 784.378 94.9C784.711 95.2667 785.245 95.45 785.978 95.45H789.128V102H782.278ZM792.702 93V68.4H801.352V72.7H800.802C801.269 71.7 801.885 70.85 802.652 70.15C803.419 69.4167 804.319 68.85 805.352 68.45C806.419 68.05 807.585 67.85 808.852 67.85C810.652 67.85 812.185 68.2833 813.452 69.15C814.752 70.0167 815.685 71.3333 816.252 73.1H815.552C816.319 71.4667 817.469 70.1833 819.002 69.25C820.535 68.3167 822.235 67.85 824.102 67.85C826.035 67.85 827.619 68.2333 828.852 69C830.085 69.7333 831.002 70.9 831.602 72.5C832.235 74.0667 832.552 76.05 832.552 78.45V93H823.652V78.7C823.652 77.2667 823.435 76.2333 823.002 75.6C822.569 74.9667 821.852 74.65 820.852 74.65C820.052 74.65 819.352 74.85 818.752 75.25C818.185 75.6167 817.752 76.1833 817.452 76.95C817.185 77.6833 817.052 78.5833 817.052 79.65V93H808.152V78.7C808.152 77.2667 807.935 76.2333 807.502 75.6C807.069 74.9667 806.352 74.65 805.352 74.65C804.552 74.65 803.869 74.85 803.302 75.25C802.735 75.6167 802.302 76.1833 802.002 76.95C801.735 77.6833 801.602 78.5833 801.602 79.65V93H792.702ZM846.269 93.55C844.369 93.55 842.686 93.2 841.219 92.5C839.786 91.8 838.652 90.85 837.819 89.65C837.019 88.4167 836.619 87.0167 836.619 85.45C836.619 83.65 837.086 82.2333 838.019 81.2C838.952 80.1667 840.452 79.4333 842.519 79C844.586 78.5333 847.336 78.3 850.769 78.3H853.519V82.5H850.769C849.802 82.5 848.952 82.55 848.219 82.65C847.519 82.75 846.936 82.9167 846.469 83.15C846.002 83.35 845.652 83.6167 845.419 83.95C845.186 84.2833 845.069 84.6667 845.069 85.1C845.069 85.8667 845.336 86.5 845.869 87C846.436 87.5 847.236 87.75 848.269 87.75C849.102 87.75 849.836 87.5667 850.469 87.2C851.136 86.8333 851.669 86.3333 852.069 85.7C852.469 85.0333 852.669 84.2667 852.669 83.4V77.6C852.669 76.4 852.352 75.55 851.719 75.05C851.119 74.55 850.069 74.3 848.569 74.3C847.302 74.3 845.902 74.5 844.369 74.9C842.836 75.3 841.336 75.9167 839.869 76.75L837.619 70.9C838.486 70.3 839.552 69.7667 840.819 69.3C842.119 68.8333 843.486 68.4833 844.919 68.25C846.386 67.9833 847.736 67.85 848.969 67.85C851.702 67.85 853.952 68.25 855.719 69.05C857.519 69.8167 858.852 71.0167 859.719 72.65C860.619 74.25 861.069 76.3167 861.069 78.85V93H852.769V88.35H853.069C852.902 89.4167 852.519 90.3333 851.919 91.1C851.319 91.8667 850.536 92.4667 849.569 92.9C848.602 93.3333 847.502 93.55 846.269 93.55ZM862.387 93L874.437 78.35V82.3L863.037 68.4H873.387L879.437 76.2H876.337L882.387 68.4H892.687L881.287 82.3V78.35L893.437 93H883.037L876.337 84.5H879.387L872.687 93H862.387ZM894.373 83.05V76.1H910.373V83.05H894.373ZM922.357 93L912.007 68.4H921.007L927.007 84.1H925.957L931.857 68.4H937.407L943.307 84.1H942.407L948.307 68.4H956.757L946.507 93H939.157L932.407 76.25H936.057L929.707 93H922.357ZM958.465 64.15V56.1H967.815V64.15H958.465ZM958.715 93V68.4H967.615V93H958.715ZM982.378 93.55C980.278 93.55 978.411 93.0333 976.778 92C975.178 90.9667 973.911 89.4833 972.978 87.55C972.078 85.6167 971.628 83.3333 971.628 80.7C971.628 78 972.078 75.7 972.978 73.8C973.911 71.9 975.178 70.4333 976.778 69.4C978.411 68.3667 980.278 67.85 982.378 67.85C984.211 67.85 985.861 68.2833 987.328 69.15C988.794 70.0167 989.778 71.1333 990.278 72.5H989.728V57.75H998.628V93H989.928V88.55H990.378C989.911 90.05 988.928 91.2667 987.428 92.2C985.961 93.1 984.278 93.55 982.378 93.55ZM985.228 87C986.561 87 987.661 86.5 988.528 85.5C989.394 84.5 989.828 82.9 989.828 80.7C989.828 78.4667 989.394 76.8667 988.528 75.9C987.661 74.9 986.561 74.4 985.228 74.4C983.861 74.4 982.744 74.9 981.878 75.9C981.011 76.8667 980.578 78.4667 980.578 80.7C980.578 82.9 981.011 84.5 981.878 85.5C982.744 86.5 983.861 87 985.228 87ZM1016.68 93.55C1012.95 93.55 1010.18 92.6833 1008.38 90.95C1006.58 89.2167 1005.68 86.6 1005.68 83.1V74.95H1001.08V68.4H1005.68V61.25H1014.58V68.4H1021.58V74.95H1014.58V82.8C1014.58 84.0333 1014.87 84.95 1015.43 85.55C1016.03 86.1167 1016.97 86.4 1018.23 86.4C1018.63 86.4 1019.07 86.35 1019.53 86.25C1020.03 86.15 1020.58 86.0333 1021.18 85.9L1022.38 92.3C1021.62 92.7 1020.72 93 1019.68 93.2C1018.68 93.4333 1017.68 93.55 1016.68 93.55ZM1025.07 93V57.75H1033.97V72.7H1033.17C1033.97 71.1333 1035.11 69.9333 1036.57 69.1C1038.07 68.2667 1039.77 67.85 1041.67 67.85C1043.64 67.85 1045.26 68.2333 1046.52 69C1047.79 69.7333 1048.74 70.9 1049.37 72.5C1050.01 74.0667 1050.32 76.05 1050.32 78.45V93H1041.42V78.8C1041.42 77.8 1041.31 77 1041.07 76.4C1040.84 75.7667 1040.49 75.3167 1040.02 75.05C1039.59 74.7833 1039.04 74.65 1038.37 74.65C1037.47 74.65 1036.69 74.85 1036.02 75.25C1035.36 75.6167 1034.84 76.15 1034.47 76.85C1034.14 77.55 1033.97 78.3833 1033.97 79.35V93H1025.07ZM1054.94 77.5V68.4H1064.19V77.5H1054.94ZM1054.94 93V83.9H1064.19V93H1054.94ZM1085.22 93V85.55H1093.07V65.4H1097.27L1087.12 71.2L1083.77 64.55L1095.77 57.75H1102.22V85.55H1109.57V93H1085.22ZM1125.46 93.55C1123.89 93.55 1122.32 93.3833 1120.76 93.05C1119.22 92.75 1117.79 92.3167 1116.46 91.75C1115.12 91.1833 1114.01 90.5333 1113.11 89.8L1115.91 82.95C1117.37 83.95 1118.89 84.7167 1120.46 85.25C1122.06 85.75 1123.66 86 1125.26 86C1126.96 86 1128.27 85.6333 1129.21 84.9C1130.14 84.1667 1130.61 83.1333 1130.61 81.8C1130.61 80.4667 1130.16 79.4167 1129.26 78.65C1128.36 77.8833 1127.16 77.5 1125.66 77.5C1124.52 77.5 1123.47 77.7 1122.51 78.1C1121.57 78.4667 1120.69 79.0333 1119.86 79.8H1114.11V57.75H1137.11V65.2H1122.76V73.05H1120.66C1121.46 72.1167 1122.49 71.4167 1123.76 70.95C1125.06 70.45 1126.49 70.2 1128.06 70.2C1130.29 70.2 1132.26 70.6833 1133.96 71.65C1135.66 72.5833 1136.97 73.9 1137.91 75.6C1138.87 77.3 1139.36 79.2833 1139.36 81.55C1139.36 83.95 1138.79 86.0667 1137.66 87.9C1136.56 89.7 1134.96 91.1 1132.86 92.1C1130.79 93.0667 1128.32 93.55 1125.46 93.55ZM1155.69 93.55C1152.79 93.55 1150.34 92.8333 1148.34 91.4C1146.34 89.9667 1144.82 87.9 1143.79 85.2C1142.75 82.4667 1142.24 79.15 1142.24 75.25C1142.24 71.3167 1142.75 68.0167 1143.79 65.35C1144.82 62.65 1146.34 60.6167 1148.34 59.25C1150.34 57.8833 1152.79 57.2 1155.69 57.2C1158.59 57.2 1161.04 57.8833 1163.04 59.25C1165.04 60.6167 1166.55 62.65 1167.59 65.35C1168.62 68.0167 1169.14 71.3 1169.14 75.2C1169.14 79.1 1168.62 82.4167 1167.59 85.15C1166.55 87.8833 1165.04 89.9667 1163.04 91.4C1161.04 92.8333 1158.59 93.55 1155.69 93.55ZM1155.69 86.25C1157.29 86.25 1158.47 85.3833 1159.24 83.65C1160.04 81.8833 1160.44 79.0667 1160.44 75.2C1160.44 71.3667 1160.04 68.6333 1159.24 67C1158.47 65.3333 1157.29 64.5 1155.69 64.5C1154.09 64.5 1152.89 65.3333 1152.09 67C1151.32 68.6333 1150.94 71.3833 1150.94 75.25C1150.94 79.0833 1151.32 81.8833 1152.09 83.65C1152.89 85.3833 1154.09 86.25 1155.69 86.25ZM1185.67 93.55C1182.77 93.55 1180.32 92.8333 1178.32 91.4C1176.32 89.9667 1174.8 87.9 1173.77 85.2C1172.73 82.4667 1172.22 79.15 1172.22 75.25C1172.22 71.3167 1172.73 68.0167 1173.77 65.35C1174.8 62.65 1176.32 60.6167 1178.32 59.25C1180.32 57.8833 1182.77 57.2 1185.67 57.2C1188.57 57.2 1191.02 57.8833 1193.02 59.25C1195.02 60.6167 1196.53 62.65 1197.57 65.35C1198.6 68.0167 1199.12 71.3 1199.12 75.2C1199.12 79.1 1198.6 82.4167 1197.57 85.15C1196.53 87.8833 1195.02 89.9667 1193.02 91.4C1191.02 92.8333 1188.57 93.55 1185.67 93.55ZM1185.67 86.25C1187.27 86.25 1188.45 85.3833 1189.22 83.65C1190.02 81.8833 1190.42 79.0667 1190.42 75.2C1190.42 71.3667 1190.02 68.6333 1189.22 67C1188.45 65.3333 1187.27 64.5 1185.67 64.5C1184.07 64.5 1182.87 65.3333 1182.07 67C1181.3 68.6333 1180.92 71.3833 1180.92 75.25C1180.92 79.0833 1181.3 81.8833 1182.07 83.65C1182.87 85.3833 1184.07 86.25 1185.67 86.25ZM1203.25 102V68.4H1211.9V72.85H1211.45C1211.91 71.35 1212.88 70.15 1214.35 69.25C1215.85 68.3167 1217.55 67.85 1219.45 67.85C1221.58 67.85 1223.45 68.3667 1225.05 69.4C1226.68 70.4333 1227.95 71.9 1228.85 73.8C1229.75 75.7 1230.2 78 1230.2 80.7C1230.2 83.3333 1229.75 85.6167 1228.85 87.55C1227.95 89.4833 1226.68 90.9667 1225.05 92C1223.45 93.0333 1221.58 93.55 1219.45 93.55C1217.61 93.55 1215.96 93.1167 1214.5 92.25C1213.03 91.3833 1212.05 90.25 1211.55 88.85H1212.15V102H1203.25ZM1216.65 87C1217.98 87 1219.08 86.5 1219.95 85.5C1220.81 84.5 1221.25 82.9 1221.25 80.7C1221.25 78.4667 1220.81 76.8667 1219.95 75.9C1219.08 74.9 1217.98 74.4 1216.65 74.4C1215.28 74.4 1214.16 74.9 1213.3 75.9C1212.43 76.8667 1212 78.4667 1212 80.7C1212 82.9 1212.43 84.5 1213.3 85.5C1214.16 86.5 1215.28 87 1216.65 87ZM1229.82 93L1241.87 78.35V82.3L1230.47 68.4H1240.82L1246.87 76.2H1243.77L1249.82 68.4H1260.12L1248.72 82.3V78.35L1260.87 93H1250.47L1243.77 84.5H1246.82L1240.12 93H1229.82ZM1265.93 100.75L1262.58 98.1C1263.45 97.2333 1264.15 96.4167 1264.68 95.65C1265.22 94.8833 1265.6 94.1 1265.83 93.3C1266.07 92.5333 1266.18 91.7167 1266.18 90.85L1268.18 93H1261.73V83.9H1270.98V89.65C1270.98 91.0167 1270.82 92.3167 1270.48 93.55C1270.18 94.7833 1269.67 95.9833 1268.93 97.15C1268.2 98.3167 1267.2 99.5167 1265.93 100.75ZM1261.73 77.5V68.4H1270.98V77.5H1261.73ZM1274.06 102V95.45H1277.21C1277.91 95.45 1278.41 95.2667 1278.71 94.9C1279.04 94.5667 1279.21 94.0333 1279.21 93.3V86C1279.21 84.9333 1279.44 83.9333 1279.91 83C1280.41 82.0333 1281.04 81.2667 1281.81 80.7C1282.61 80.1333 1283.46 79.85 1284.36 79.85V80.05C1283.46 80.05 1282.61 79.75 1281.81 79.15C1281.04 78.55 1280.41 77.7833 1279.91 76.85C1279.44 75.8833 1279.21 74.8667 1279.21 73.8V66.45C1279.21 65.6833 1279.04 65.1333 1278.71 64.8C1278.41 64.4667 1277.91 64.3 1277.21 64.3H1274.06V57.75H1280.86C1283.12 57.75 1284.89 58.3833 1286.16 59.65C1287.46 60.9167 1288.11 62.7 1288.11 65V72.7C1288.11 74 1288.32 74.9333 1288.76 75.5C1289.19 76.0667 1289.92 76.4 1290.96 76.5L1293.26 76.75V83.1L1290.96 83.3C1289.92 83.4 1289.19 83.7333 1288.76 84.3C1288.32 84.8667 1288.11 85.8 1288.11 87.1V94.75C1288.11 97.05 1287.46 98.8333 1286.16 100.1C1284.89 101.367 1283.12 102 1280.86 102H1274.06Z" fill="#5A5A5A"/>
<rect x="200" y="205" width="283" height="924" fill="#D9D9D9"/>
<path d="M275.707 275.5L251.307 265.95V259.3L275.707 249.75V256.3L253.507 264.85V260.5L275.707 269V275.5ZM289.637 277.55C287.737 277.55 286.054 277.2 284.587 276.5C283.154 275.8 282.021 274.85 281.187 273.65C280.387 272.417 279.987 271.017 279.987 269.45C279.987 267.65 280.454 266.233 281.387 265.2C282.321 264.167 283.821 263.433 285.887 263C287.954 262.533 290.704 262.3 294.137 262.3H296.887V266.5H294.137C293.171 266.5 292.321 266.55 291.587 266.65C290.887 266.75 290.304 266.917 289.837 267.15C289.371 267.35 289.021 267.617 288.787 267.95C288.554 268.283 288.437 268.667 288.437 269.1C288.437 269.867 288.704 270.5 289.237 271C289.804 271.5 290.604 271.75 291.637 271.75C292.471 271.75 293.204 271.567 293.837 271.2C294.504 270.833 295.037 270.333 295.437 269.7C295.837 269.033 296.037 268.267 296.037 267.4V261.6C296.037 260.4 295.721 259.55 295.087 259.05C294.487 258.55 293.437 258.3 291.937 258.3C290.671 258.3 289.271 258.5 287.737 258.9C286.204 259.3 284.704 259.917 283.237 260.75L280.987 254.9C281.854 254.3 282.921 253.767 284.187 253.3C285.487 252.833 286.854 252.483 288.287 252.25C289.754 251.983 291.104 251.85 292.337 251.85C295.071 251.85 297.321 252.25 299.087 253.05C300.887 253.817 302.221 255.017 303.087 256.65C303.987 258.25 304.437 260.317 304.437 262.85V277H296.137V272.35H296.437C296.271 273.417 295.887 274.333 295.287 275.1C294.687 275.867 293.904 276.467 292.937 276.9C291.971 277.333 290.871 277.55 289.637 277.55ZM319.305 277.55C317.805 277.55 316.355 277.45 314.955 277.25C313.589 277.05 312.339 276.75 311.205 276.35C310.072 275.95 309.055 275.467 308.155 274.9L310.205 269.15C311.039 269.617 311.955 270.033 312.955 270.4C313.989 270.767 315.055 271.05 316.155 271.25C317.255 271.45 318.322 271.55 319.355 271.55C320.589 271.55 321.472 271.383 322.005 271.05C322.539 270.683 322.805 270.217 322.805 269.65C322.805 269.15 322.622 268.767 322.255 268.5C321.922 268.233 321.439 268.05 320.805 267.95L315.255 267.05C313.189 266.683 311.589 265.933 310.455 264.8C309.322 263.633 308.755 262.117 308.755 260.25C308.755 258.517 309.239 257.033 310.205 255.8C311.205 254.533 312.555 253.567 314.255 252.9C315.989 252.2 317.972 251.85 320.205 251.85C321.405 251.85 322.589 251.95 323.755 252.15C324.922 252.317 326.039 252.6 327.105 253C328.172 253.367 329.139 253.867 330.005 254.5L327.805 260.15C327.172 259.683 326.422 259.283 325.555 258.95C324.689 258.617 323.789 258.35 322.855 258.15C321.955 257.917 321.122 257.8 320.355 257.8C318.989 257.8 318.022 257.983 317.455 258.35C316.889 258.717 316.605 259.183 316.605 259.75C316.605 260.183 316.755 260.55 317.055 260.85C317.355 261.117 317.822 261.3 318.455 261.4L324.005 262.35C326.139 262.683 327.772 263.417 328.905 264.55C330.072 265.65 330.655 267.15 330.655 269.05C330.655 270.85 330.189 272.383 329.255 273.65C328.322 274.917 327.005 275.883 325.305 276.55C323.605 277.217 321.605 277.55 319.305 277.55ZM334.06 248.15V240.1H343.41V248.15H334.06ZM334.31 277V252.4H343.21V277H334.31ZM357.972 277.55C355.872 277.55 354.006 277.033 352.372 276C350.772 274.967 349.506 273.483 348.572 271.55C347.672 269.617 347.222 267.333 347.222 264.7C347.222 262 347.672 259.7 348.572 257.8C349.506 255.9 350.772 254.433 352.372 253.4C354.006 252.367 355.872 251.85 357.972 251.85C359.806 251.85 361.456 252.283 362.922 253.15C364.389 254.017 365.372 255.133 365.872 256.5H365.322V241.75H374.222V277H365.522V272.55H365.972C365.506 274.05 364.522 275.267 363.022 276.2C361.556 277.1 359.872 277.55 357.972 277.55ZM360.822 271C362.156 271 363.256 270.5 364.122 269.5C364.989 268.5 365.422 266.9 365.422 264.7C365.422 262.467 364.989 260.867 364.122 259.9C363.256 258.9 362.156 258.4 360.822 258.4C359.456 258.4 358.339 258.9 357.472 259.9C356.606 260.867 356.172 262.467 356.172 264.7C356.172 266.9 356.606 268.5 357.472 269.5C358.339 270.5 359.456 271 360.822 271ZM392.778 277.55C389.778 277.55 387.178 277.033 384.978 276C382.812 274.933 381.145 273.433 379.978 271.5C378.812 269.567 378.228 267.283 378.228 264.65C378.228 262.117 378.778 259.9 379.878 258C381.012 256.067 382.545 254.567 384.478 253.5C386.445 252.4 388.678 251.85 391.178 251.85C393.678 251.85 395.828 252.367 397.628 253.4C399.428 254.433 400.812 255.917 401.778 257.85C402.778 259.75 403.278 261.983 403.278 264.55V266.5H385.678V262.3H396.778L395.978 262.95C395.978 261.15 395.595 259.817 394.828 258.95C394.062 258.05 392.978 257.6 391.578 257.6C390.545 257.6 389.645 257.85 388.878 258.35C388.145 258.817 387.578 259.517 387.178 260.45C386.778 261.383 386.578 262.55 386.578 263.95V264.4C386.578 265.967 386.795 267.233 387.228 268.2C387.695 269.167 388.412 269.883 389.378 270.35C390.345 270.783 391.562 271 393.028 271C394.295 271 395.612 270.817 396.978 270.45C398.378 270.05 399.612 269.483 400.678 268.75L402.878 274.6C401.612 275.5 400.062 276.217 398.228 276.75C396.395 277.283 394.578 277.55 392.778 277.55ZM407.313 275.5V269L429.563 260.5V264.85L407.313 256.3V249.75L431.713 259.3V265.95L407.313 275.5Z" fill="#5A5A5A"/>
<rect x="483" y="205" width="1217" height="924" fill="white"/>
<path d="M514.62 257V242.24H519.81V244.82H519.48C519.76 244.22 520.13 243.71 520.59 243.29C521.05 242.85 521.59 242.51 522.21 242.27C522.85 242.03 523.55 241.91 524.31 241.91C525.39 241.91 526.31 242.17 527.07 242.69C527.85 243.21 528.41 244 528.75 245.06H528.33C528.79 244.08 529.48 243.31 530.4 242.75C531.32 242.19 532.34 241.91 533.46 241.91C534.62 241.91 535.57 242.14 536.31 242.6C537.05 243.04 537.6 243.74 537.96 244.7C538.34 245.64 538.53 246.83 538.53 248.27V257H533.19V248.42C533.19 247.56 533.06 246.94 532.8 246.56C532.54 246.18 532.11 245.99 531.51 245.99C531.03 245.99 530.61 246.11 530.25 246.35C529.91 246.57 529.65 246.91 529.47 247.37C529.31 247.81 529.23 248.35 529.23 248.99V257H523.89V248.42C523.89 247.56 523.76 246.94 523.5 246.56C523.24 246.18 522.81 245.99 522.21 245.99C521.73 245.99 521.32 246.11 520.98 246.35C520.64 246.57 520.38 246.91 520.2 247.37C520.04 247.81 519.96 248.35 519.96 248.99V257H514.62ZM546.76 257.33C545.62 257.33 544.61 257.12 543.73 256.7C542.87 256.28 542.19 255.71 541.69 254.99C541.21 254.25 540.97 253.41 540.97 252.47C540.97 251.39 541.25 250.54 541.81 249.92C542.37 249.3 543.27 248.86 544.51 248.6C545.75 248.32 547.4 248.18 549.46 248.18H551.11V250.7H549.46C548.88 250.7 548.37 250.73 547.93 250.79C547.51 250.85 547.16 250.95 546.88 251.09C546.6 251.21 546.39 251.37 546.25 251.57C546.11 251.77 546.04 252 546.04 252.26C546.04 252.72 546.2 253.1 546.52 253.4C546.86 253.7 547.34 253.85 547.96 253.85C548.46 253.85 548.9 253.74 549.28 253.52C549.68 253.3 550 253 550.24 252.62C550.48 252.22 550.6 251.76 550.6 251.24V247.76C550.6 247.04 550.41 246.53 550.03 246.23C549.67 245.93 549.04 245.78 548.14 245.78C547.38 245.78 546.54 245.9 545.62 246.14C544.7 246.38 543.8 246.75 542.92 247.25L541.57 243.74C542.09 243.38 542.73 243.06 543.49 242.78C544.27 242.5 545.09 242.29 545.95 242.15C546.83 241.99 547.64 241.91 548.38 241.91C550.02 241.91 551.37 242.15 552.43 242.63C553.51 243.09 554.31 243.81 554.83 244.79C555.37 245.75 555.64 246.99 555.64 248.51V257H550.66V254.21H550.84C550.74 254.85 550.51 255.4 550.15 255.86C549.79 256.32 549.32 256.68 548.74 256.94C548.16 257.2 547.5 257.33 546.76 257.33ZM558.681 257V242.24H563.871V245.87H563.571C563.771 244.67 564.271 243.74 565.071 243.08C565.891 242.4 566.961 242.02 568.281 241.94L569.751 241.82L570.051 246.32L567.141 246.59C566.081 246.69 565.311 246.99 564.831 247.49C564.351 247.97 564.111 248.69 564.111 249.65V257H558.681ZM578.745 262.73C577.265 262.73 575.875 262.59 574.575 262.31C573.295 262.03 572.195 261.57 571.275 260.93L572.655 257.33C573.175 257.63 573.755 257.89 574.395 258.11C575.055 258.35 575.715 258.52 576.375 258.62C577.035 258.74 577.655 258.8 578.235 258.8C579.455 258.8 580.365 258.54 580.965 258.02C581.585 257.52 581.895 256.73 581.895 255.65V253.76H582.135C581.835 254.6 581.225 255.29 580.305 255.83C579.385 256.35 578.385 256.61 577.305 256.61C575.985 256.61 574.835 256.31 573.855 255.71C572.875 255.09 572.105 254.23 571.545 253.13C571.005 252.03 570.735 250.74 570.735 249.26C570.735 247.78 571.005 246.49 571.545 245.39C572.105 244.29 572.875 243.44 573.855 242.84C574.835 242.22 575.985 241.91 577.305 241.91C578.425 241.91 579.425 242.17 580.305 242.69C581.205 243.21 581.805 243.89 582.105 244.73H581.865V242.24H587.085V255.02C587.085 256.74 586.765 258.17 586.125 259.31C585.485 260.45 584.545 261.3 583.305 261.86C582.065 262.44 580.545 262.73 578.745 262.73ZM578.955 252.68C579.835 252.68 580.535 252.38 581.055 251.78C581.575 251.18 581.835 250.34 581.835 249.26C581.835 248.18 581.575 247.34 581.055 246.74C580.535 246.14 579.835 245.84 578.955 245.84C578.095 245.84 577.405 246.14 576.885 246.74C576.365 247.34 576.105 248.18 576.105 249.26C576.105 250.34 576.365 251.18 576.885 251.78C577.405 252.38 578.095 252.68 578.955 252.68ZM590.055 239.69V234.86H595.665V239.69H590.055ZM590.205 257V242.24H595.545V257H590.205ZM598.642 257V242.24H603.832V244.82H603.502C603.982 243.88 604.662 243.16 605.542 242.66C606.442 242.16 607.462 241.91 608.602 241.91C609.782 241.91 610.752 242.14 611.512 242.6C612.272 243.04 612.842 243.74 613.222 244.7C613.602 245.64 613.792 246.83 613.792 248.27V257H608.452V248.48C608.452 247.88 608.382 247.4 608.242 247.04C608.102 246.66 607.892 246.39 607.612 246.23C607.352 246.07 607.022 245.99 606.622 245.99C606.082 245.99 605.612 246.11 605.212 246.35C604.812 246.57 604.502 246.89 604.282 247.31C604.082 247.73 603.982 248.23 603.982 248.81V257H598.642ZM616.565 247.7V242.24H622.115V247.7H616.565ZM616.565 257V251.54H622.115V257H616.565ZM515.7 298V293.53H520.41V281.44H522.93L516.84 284.92L514.83 280.93L522.03 276.85H525.9V293.53H530.31V298H515.7ZM539.838 298.33C538.898 298.33 537.958 298.23 537.018 298.03C536.098 297.85 535.238 297.59 534.438 297.25C533.638 296.91 532.968 296.52 532.428 296.08L534.108 291.97C534.988 292.57 535.898 293.03 536.838 293.35C537.798 293.65 538.758 293.8 539.718 293.8C540.738 293.8 541.528 293.58 542.088 293.14C542.648 292.7 542.928 292.08 542.928 291.28C542.928 290.48 542.658 289.85 542.118 289.39C541.578 288.93 540.858 288.7 539.958 288.7C539.278 288.7 538.648 288.82 538.068 289.06C537.508 289.28 536.978 289.62 536.478 290.08H533.028V276.85H546.828V281.32H538.218V286.03H536.958C537.438 285.47 538.058 285.05 538.818 284.77C539.598 284.47 540.458 284.32 541.398 284.32C542.738 284.32 543.918 284.61 544.938 285.19C545.958 285.75 546.748 286.54 547.308 287.56C547.888 288.58 548.178 289.77 548.178 291.13C548.178 292.57 547.838 293.84 547.158 294.94C546.498 296.02 545.538 296.86 544.278 297.46C543.038 298.04 541.558 298.33 539.838 298.33ZM550.537 303.4V283.24H555.727V285.91H555.457C555.737 285.01 556.317 284.29 557.197 283.75C558.097 283.19 559.117 282.91 560.257 282.91C561.537 282.91 562.657 283.22 563.617 283.84C564.597 284.46 565.357 285.34 565.897 286.48C566.437 287.62 566.707 289 566.707 290.62C566.707 292.2 566.437 293.57 565.897 294.73C565.357 295.89 564.597 296.78 563.617 297.4C562.657 298.02 561.537 298.33 560.257 298.33C559.157 298.33 558.167 298.07 557.287 297.55C556.407 297.03 555.817 296.35 555.517 295.51H555.877V303.4H550.537ZM558.577 294.4C559.377 294.4 560.037 294.1 560.557 293.5C561.077 292.9 561.337 291.94 561.337 290.62C561.337 289.28 561.077 288.32 560.557 287.74C560.037 287.14 559.377 286.84 558.577 286.84C557.757 286.84 557.087 287.14 556.567 287.74C556.047 288.32 555.787 289.28 555.787 290.62C555.787 291.94 556.047 292.9 556.567 293.5C557.087 294.1 557.757 294.4 558.577 294.4ZM566.48 298L573.71 289.21V291.58L566.87 283.24H573.08L576.71 287.92H574.85L578.48 283.24H584.66L577.82 291.58V289.21L585.11 298H578.87L574.85 292.9H576.68L572.66 298H566.48Z" fill="#5A5A5A"/>
<path d="M941.76 275.5L917.36 265.95V259.3L941.76 249.75V256.3L919.56 264.85V260.5L941.76 269V275.5ZM947.24 277V252.4H955.89V256.7H955.34C955.807 255.7 956.423 254.85 957.19 254.15C957.957 253.417 958.857 252.85 959.89 252.45C960.957 252.05 962.123 251.85 963.39 251.85C965.19 251.85 966.723 252.283 967.99 253.15C969.29 254.017 970.223 255.333 970.79 257.1H970.09C970.857 255.467 972.007 254.183 973.54 253.25C975.073 252.317 976.773 251.85 978.64 251.85C980.573 251.85 982.157 252.233 983.39 253C984.623 253.733 985.54 254.9 986.14 256.5C986.773 258.067 987.09 260.05 987.09 262.45V277H978.19V262.7C978.19 261.267 977.973 260.233 977.54 259.6C977.107 258.967 976.39 258.65 975.39 258.65C974.59 258.65 973.89 258.85 973.29 259.25C972.723 259.617 972.29 260.183 971.99 260.95C971.723 261.683 971.59 262.583 971.59 263.65V277H962.69V262.7C962.69 261.267 962.473 260.233 962.04 259.6C961.607 258.967 960.89 258.65 959.89 258.65C959.09 258.65 958.407 258.85 957.84 259.25C957.273 259.617 956.84 260.183 956.54 260.95C956.273 261.683 956.14 262.583 956.14 263.65V277H947.24ZM1000.81 277.55C998.907 277.55 997.224 277.2 995.757 276.5C994.324 275.8 993.191 274.85 992.357 273.65C991.557 272.417 991.157 271.017 991.157 269.45C991.157 267.65 991.624 266.233 992.557 265.2C993.491 264.167 994.991 263.433 997.057 263C999.124 262.533 1001.87 262.3 1005.31 262.3H1008.06V266.5H1005.31C1004.34 266.5 1003.49 266.55 1002.76 266.65C1002.06 266.75 1001.47 266.917 1001.01 267.15C1000.54 267.35 1000.19 267.617 999.957 267.95C999.724 268.283 999.607 268.667 999.607 269.1C999.607 269.867 999.874 270.5 1000.41 271C1000.97 271.5 1001.77 271.75 1002.81 271.75C1003.64 271.75 1004.37 271.567 1005.01 271.2C1005.67 270.833 1006.21 270.333 1006.61 269.7C1007.01 269.033 1007.21 268.267 1007.21 267.4V261.6C1007.21 260.4 1006.89 259.55 1006.26 259.05C1005.66 258.55 1004.61 258.3 1003.11 258.3C1001.84 258.3 1000.44 258.5 998.907 258.9C997.374 259.3 995.874 259.917 994.407 260.75L992.157 254.9C993.024 254.3 994.091 253.767 995.357 253.3C996.657 252.833 998.024 252.483 999.457 252.25C1000.92 251.983 1002.27 251.85 1003.51 251.85C1006.24 251.85 1008.49 252.25 1010.26 253.05C1012.06 253.817 1013.39 255.017 1014.26 256.65C1015.16 258.25 1015.61 260.317 1015.61 262.85V277H1007.31V272.35H1007.61C1007.44 273.417 1007.06 274.333 1006.46 275.1C1005.86 275.867 1005.07 276.467 1004.11 276.9C1003.14 277.333 1002.04 277.55 1000.81 277.55ZM1020.43 248.15V240.1H1029.78V248.15H1020.43ZM1020.68 277V252.4H1029.58V277H1020.68ZM1034.74 277V252.4H1043.39V256.7H1042.84C1043.64 255.133 1044.77 253.933 1046.24 253.1C1047.74 252.267 1049.44 251.85 1051.34 251.85C1053.3 251.85 1054.92 252.233 1056.19 253C1057.45 253.733 1058.4 254.9 1059.04 256.5C1059.67 258.067 1059.99 260.05 1059.99 262.45V277H1051.09V262.8C1051.09 261.8 1050.97 261 1050.74 260.4C1050.5 259.767 1050.15 259.317 1049.69 259.05C1049.25 258.783 1048.7 258.65 1048.04 258.65C1047.14 258.65 1046.35 258.85 1045.69 259.25C1045.02 259.617 1044.5 260.15 1044.14 260.85C1043.8 261.55 1043.64 262.383 1043.64 263.35V277H1034.74ZM1065.26 275.5V269L1087.51 260.5V264.85L1065.26 256.3V249.75L1089.66 259.3V265.95L1065.26 275.5Z" fill="#5A5A5A"/>
<rect x="200" y="205" width="1500" height="15" fill="#FFF2AF"/>
<mask id="path-11-inside-1_163_995" fill="white">
<path d="M468 205H483V1144H468V205Z"/>
</mask>
<path d="M468 205H483V1144H468V205Z" fill="#FFF2AF"/>
<path d="M482 205V1144H484V205H482Z" fill="black" mask="url(#path-11-inside-1_163_995)"/>
<path d="M200 205H215V1144H200V205Z" fill="#FFF2AF"/>
<rect x="483" y="220" width="15" height="924" fill="#FFF2AF"/>
<rect x="1685" y="220" width="15" height="924" fill="#FFF2AF"/>
<line x1="201" y1="7" x2="201" y2="57" stroke="black" stroke-width="2"/>
<line x1="1699" y1="7" x2="1699" y2="57" stroke="black" stroke-width="2"/>
<line x1="200" y1="31" x2="1700" y2="31.0001" stroke="black" stroke-width="2"/>
</g>
<rect x="0.5" y="0.5" width="1899" height="1079" stroke="black"/>
<defs>
<clipPath id="clip0_163_995">
<rect width="1900" height="1080" fill="white"/>
</clipPath>
</defs>
</svg>
