<svg width="1900" height="1080" viewBox="0 0 1900 1080" fill="none" xmlns="http://www.w3.org/2000/svg">
<g clip-path="url(#clip0_226_135)">
<rect width="1900" height="1080" fill="white"/>
<rect x="200" width="1500" height="271" fill="#EBEBEB"/>
<path d="M799.887 93.55C798.387 93.55 796.937 93.45 795.537 93.25C794.171 93.05 792.921 92.75 791.787 92.35C790.654 91.95 789.637 91.4667 788.737 90.9L790.787 85.15C791.621 85.6167 792.537 86.0333 793.537 86.4C794.571 86.7667 795.637 87.05 796.737 87.25C797.837 87.45 798.904 87.55 799.937 87.55C801.171 87.55 802.054 87.3833 802.587 87.05C803.121 86.6833 803.387 86.2167 803.387 85.65C803.387 85.15 803.204 84.7667 802.837 84.5C802.504 84.2333 802.021 84.05 801.387 83.95L795.837 83.05C793.771 82.6833 792.171 81.9333 791.037 80.8C789.904 79.6333 789.337 78.1167 789.337 76.25C789.337 74.5167 789.821 73.0333 790.787 71.8C791.787 70.5333 793.137 69.5667 794.837 68.9C796.571 68.2 798.554 67.85 800.787 67.85C801.987 67.85 803.171 67.95 804.337 68.15C805.504 68.3167 806.621 68.6 807.687 69C808.754 69.3667 809.721 69.8667 810.587 70.5L808.387 76.15C807.754 75.6833 807.004 75.2833 806.137 74.95C805.271 74.6167 804.371 74.35 803.437 74.15C802.537 73.9167 801.704 73.8 800.937 73.8C799.571 73.8 798.604 73.9833 798.037 74.35C797.471 74.7167 797.187 75.1833 797.187 75.75C797.187 76.1833 797.337 76.55 797.637 76.85C797.937 77.1167 798.404 77.3 799.037 77.4L804.587 78.35C806.721 78.6833 808.354 79.4167 809.487 80.55C810.654 81.65 811.237 83.15 811.237 85.05C811.237 86.85 810.771 88.3833 809.837 89.65C808.904 90.9167 807.587 91.8833 805.887 92.55C804.187 93.2167 802.187 93.55 799.887 93.55ZM824.592 93.55C821.192 93.55 818.725 92.7 817.192 91C815.659 89.2667 814.892 86.6667 814.892 83.2V57.75H823.792V82.9C823.792 83.6333 823.892 84.2667 824.092 84.8C824.325 85.3333 824.675 85.7333 825.142 86C825.642 86.2667 826.259 86.4 826.992 86.4C827.325 86.4 827.659 86.3833 827.992 86.35C828.359 86.3167 828.709 86.2667 829.042 86.2L828.942 93C828.275 93.2 827.575 93.3333 826.842 93.4C826.142 93.5 825.392 93.55 824.592 93.55ZM844.481 93.55C841.747 93.55 839.364 93.0333 837.331 92C835.297 90.9667 833.714 89.4833 832.581 87.55C831.447 85.6167 830.881 83.3333 830.881 80.7C830.881 78.0333 831.447 75.75 832.581 73.85C833.714 71.9167 835.297 70.4333 837.331 69.4C839.364 68.3667 841.747 67.85 844.481 67.85C847.214 67.85 849.597 68.3667 851.631 69.4C853.664 70.4333 855.231 71.9167 856.331 73.85C857.464 75.75 858.031 78.0333 858.031 80.7C858.031 83.3333 857.464 85.6167 856.331 87.55C855.231 89.4833 853.664 90.9667 851.631 92C849.597 93.0333 847.214 93.55 844.481 93.55ZM844.481 87C845.814 87 846.914 86.5 847.781 85.5C848.647 84.5 849.081 82.9 849.081 80.7C849.081 78.4667 848.647 76.8667 847.781 75.9C846.914 74.9 845.814 74.4 844.481 74.4C843.114 74.4 841.997 74.9 841.131 75.9C840.264 76.8667 839.831 78.4667 839.831 80.7C839.831 82.9 840.264 84.5 841.131 85.5C841.997 86.5 843.114 87 844.481 87ZM874.765 93.55C871.031 93.55 868.265 92.6833 866.465 90.95C864.665 89.2167 863.765 86.6 863.765 83.1V74.95H859.165V68.4H863.765V61.25H872.665V68.4H879.665V74.95H872.665V82.8C872.665 84.0333 872.948 84.95 873.515 85.55C874.115 86.1167 875.048 86.4 876.315 86.4C876.715 86.4 877.148 86.35 877.615 86.25C878.115 86.15 878.665 86.0333 879.265 85.9L880.465 92.3C879.698 92.7 878.798 93 877.765 93.2C876.765 93.4333 875.765 93.55 874.765 93.55ZM897.01 74.15V68.45C897.01 67.05 897.177 65.75 897.51 64.55C897.844 63.3167 898.377 62.1167 899.11 60.95C899.844 59.75 900.827 58.5333 902.06 57.3L905.46 59.95C904.594 60.8167 903.894 61.6333 903.36 62.4C902.827 63.1667 902.427 63.95 902.16 64.75C901.927 65.5167 901.81 66.35 901.81 67.25L899.86 65.05H906.26V74.15H897.01ZM908.51 74.15V68.45C908.51 67.05 908.677 65.75 909.01 64.55C909.344 63.3167 909.877 62.1167 910.61 60.95C911.344 59.75 912.327 58.5333 913.56 57.3L916.96 59.95C916.094 60.8167 915.394 61.6333 914.86 62.4C914.327 63.1667 913.927 63.95 913.66 64.75C913.427 65.5167 913.31 66.35 913.31 67.25L911.36 65.05H917.76V74.15H908.51ZM922.558 93V57.75H931.458V72.7H930.658C931.458 71.1333 932.591 69.9333 934.058 69.1C935.558 68.2667 937.258 67.85 939.158 67.85C941.125 67.85 942.741 68.2333 944.008 69C945.275 69.7333 946.225 70.9 946.858 72.5C947.491 74.0667 947.808 76.05 947.808 78.45V93H938.908V78.8C938.908 77.8 938.791 77 938.558 76.4C938.325 75.7667 937.975 75.3167 937.508 75.05C937.075 74.7833 936.525 74.65 935.858 74.65C934.958 74.65 934.175 74.85 933.508 75.25C932.841 75.6167 932.325 76.15 931.958 76.85C931.625 77.55 931.458 78.3833 931.458 79.35V93H922.558ZM966.28 93.55C963.28 93.55 960.68 93.0333 958.48 92C956.314 90.9333 954.647 89.4333 953.48 87.5C952.314 85.5667 951.73 83.2833 951.73 80.65C951.73 78.1167 952.28 75.9 953.38 74C954.514 72.0667 956.047 70.5667 957.98 69.5C959.947 68.4 962.18 67.85 964.68 67.85C967.18 67.85 969.33 68.3667 971.13 69.4C972.93 70.4333 974.314 71.9167 975.28 73.85C976.28 75.75 976.78 77.9833 976.78 80.55V82.5H959.18V78.3H970.28L969.48 78.95C969.48 77.15 969.097 75.8167 968.33 74.95C967.564 74.05 966.48 73.6 965.08 73.6C964.047 73.6 963.147 73.85 962.38 74.35C961.647 74.8167 961.08 75.5167 960.68 76.45C960.28 77.3833 960.08 78.55 960.08 79.95V80.4C960.08 81.9667 960.297 83.2333 960.73 84.2C961.197 85.1667 961.914 85.8833 962.88 86.35C963.847 86.7833 965.064 87 966.53 87C967.797 87 969.114 86.8167 970.48 86.45C971.88 86.05 973.114 85.4833 974.18 84.75L976.38 90.6C975.114 91.5 973.564 92.2167 971.73 92.75C969.897 93.2833 968.08 93.55 966.28 93.55ZM989.165 93.55C987.265 93.55 985.581 93.2 984.115 92.5C982.681 91.8 981.548 90.85 980.715 89.65C979.915 88.4167 979.515 87.0167 979.515 85.45C979.515 83.65 979.981 82.2333 980.915 81.2C981.848 80.1667 983.348 79.4333 985.415 79C987.481 78.5333 990.231 78.3 993.665 78.3H996.415V82.5H993.665C992.698 82.5 991.848 82.55 991.115 82.65C990.415 82.75 989.831 82.9167 989.365 83.15C988.898 83.35 988.548 83.6167 988.315 83.95C988.081 84.2833 987.965 84.6667 987.965 85.1C987.965 85.8667 988.231 86.5 988.765 87C989.331 87.5 990.131 87.75 991.165 87.75C991.998 87.75 992.731 87.5667 993.365 87.2C994.031 86.8333 994.565 86.3333 994.965 85.7C995.365 85.0333 995.565 84.2667 995.565 83.4V77.6C995.565 76.4 995.248 75.55 994.615 75.05C994.015 74.55 992.965 74.3 991.465 74.3C990.198 74.3 988.798 74.5 987.265 74.9C985.731 75.3 984.231 75.9167 982.765 76.75L980.515 70.9C981.381 70.3 982.448 69.7667 983.715 69.3C985.015 68.8333 986.381 68.4833 987.815 68.25C989.281 67.9833 990.631 67.85 991.865 67.85C994.598 67.85 996.848 68.25 998.615 69.05C1000.41 69.8167 1001.75 71.0167 1002.61 72.65C1003.51 74.25 1003.96 76.3167 1003.96 78.85V93H995.665V88.35H995.965C995.798 89.4167 995.415 90.3333 994.815 91.1C994.215 91.8667 993.431 92.4667 992.465 92.9C991.498 93.3333 990.398 93.55 989.165 93.55ZM1018.63 93.55C1016.53 93.55 1014.67 93.0333 1013.03 92C1011.43 90.9667 1010.17 89.4833 1009.23 87.55C1008.33 85.6167 1007.88 83.3333 1007.88 80.7C1007.88 78 1008.33 75.7 1009.23 73.8C1010.17 71.9 1011.43 70.4333 1013.03 69.4C1014.67 68.3667 1016.53 67.85 1018.63 67.85C1020.47 67.85 1022.12 68.2833 1023.58 69.15C1025.05 70.0167 1026.03 71.1333 1026.53 72.5H1025.98V57.75H1034.88V93H1026.18V88.55H1026.63C1026.17 90.05 1025.18 91.2667 1023.68 92.2C1022.22 93.1 1020.53 93.55 1018.63 93.55ZM1021.48 87C1022.82 87 1023.92 86.5 1024.78 85.5C1025.65 84.5 1026.08 82.9 1026.08 80.7C1026.08 78.4667 1025.65 76.8667 1024.78 75.9C1023.92 74.9 1022.82 74.4 1021.48 74.4C1020.12 74.4 1019 74.9 1018.13 75.9C1017.27 76.8667 1016.83 78.4667 1016.83 80.7C1016.83 82.9 1017.27 84.5 1018.13 85.5C1019 86.5 1020.12 87 1021.48 87ZM1053.44 93.55C1050.44 93.55 1047.84 93.0333 1045.64 92C1043.47 90.9333 1041.81 89.4333 1040.64 87.5C1039.47 85.5667 1038.89 83.2833 1038.89 80.65C1038.89 78.1167 1039.44 75.9 1040.54 74C1041.67 72.0667 1043.21 70.5667 1045.14 69.5C1047.11 68.4 1049.34 67.85 1051.84 67.85C1054.34 67.85 1056.49 68.3667 1058.29 69.4C1060.09 70.4333 1061.47 71.9167 1062.44 73.85C1063.44 75.75 1063.94 77.9833 1063.94 80.55V82.5H1046.34V78.3H1057.44L1056.64 78.95C1056.64 77.15 1056.26 75.8167 1055.49 74.95C1054.72 74.05 1053.64 73.6 1052.24 73.6C1051.21 73.6 1050.31 73.85 1049.54 74.35C1048.81 74.8167 1048.24 75.5167 1047.84 76.45C1047.44 77.3833 1047.24 78.55 1047.24 79.95V80.4C1047.24 81.9667 1047.46 83.2333 1047.89 84.2C1048.36 85.1667 1049.07 85.8833 1050.04 86.35C1051.01 86.7833 1052.22 87 1053.69 87C1054.96 87 1056.27 86.8167 1057.64 86.45C1059.04 86.05 1060.27 85.4833 1061.34 84.75L1063.54 90.6C1062.27 91.5 1060.72 92.2167 1058.89 92.75C1057.06 93.2833 1055.24 93.55 1053.44 93.55ZM1067.77 93V68.4H1076.42V74.45H1075.92C1076.26 72.45 1077.09 70.9 1078.42 69.8C1079.79 68.6667 1081.57 68.0333 1083.77 67.9L1086.22 67.7L1086.72 75.2L1081.87 75.65C1080.11 75.8167 1078.82 76.3167 1078.02 77.15C1077.22 77.95 1076.82 79.15 1076.82 80.75V93H1067.77ZM1094.77 74.65L1091.42 71.95C1092.28 71.1167 1092.98 70.3167 1093.52 69.55C1094.05 68.7833 1094.43 68.0167 1094.67 67.25C1094.9 66.45 1095.02 65.6167 1095.02 64.75L1097.02 66.85H1090.57V57.75H1099.82V63.5C1099.82 64.8667 1099.65 66.1667 1099.32 67.4C1099.02 68.6333 1098.5 69.8333 1097.77 71C1097.03 72.1667 1096.03 73.3833 1094.77 74.65ZM1106.27 74.65L1102.92 71.95C1103.78 71.1167 1104.48 70.3167 1105.02 69.55C1105.55 68.7833 1105.93 68.0167 1106.17 67.25C1106.4 66.45 1106.52 65.6167 1106.52 64.75L1108.52 66.85H1102.07V57.75H1111.32V63.5C1111.32 64.8667 1111.15 66.1667 1110.82 67.4C1110.52 68.6333 1110 69.8333 1109.27 71C1108.53 72.1667 1107.53 73.3833 1106.27 74.65Z" fill="#5A5A5A"/>
<rect x="207.5" y="278.5" width="1485" height="89" fill="#D9D9D9" stroke="#DA08FF" stroke-width="15"/>
<path d="M872.707 338.5L848.307 328.95V322.3L872.707 312.75V319.3L850.507 327.85V323.5L872.707 332V338.5ZM886.637 340.55C884.737 340.55 883.054 340.2 881.587 339.5C880.154 338.8 879.021 337.85 878.187 336.65C877.387 335.417 876.987 334.017 876.987 332.45C876.987 330.65 877.454 329.233 878.387 328.2C879.321 327.167 880.821 326.433 882.887 326C884.954 325.533 887.704 325.3 891.137 325.3H893.887V329.5H891.137C890.171 329.5 889.321 329.55 888.587 329.65C887.887 329.75 887.304 329.917 886.837 330.15C886.371 330.35 886.021 330.617 885.787 330.95C885.554 331.283 885.437 331.667 885.437 332.1C885.437 332.867 885.704 333.5 886.237 334C886.804 334.5 887.604 334.75 888.637 334.75C889.471 334.75 890.204 334.567 890.837 334.2C891.504 333.833 892.037 333.333 892.437 332.7C892.837 332.033 893.037 331.267 893.037 330.4V324.6C893.037 323.4 892.721 322.55 892.087 322.05C891.487 321.55 890.437 321.3 888.937 321.3C887.671 321.3 886.271 321.5 884.737 321.9C883.204 322.3 881.704 322.917 880.237 323.75L877.987 317.9C878.854 317.3 879.921 316.767 881.187 316.3C882.487 315.833 883.854 315.483 885.287 315.25C886.754 314.983 888.104 314.85 889.337 314.85C892.071 314.85 894.321 315.25 896.087 316.05C897.887 316.817 899.221 318.017 900.087 319.65C900.987 321.25 901.437 323.317 901.437 325.85V340H893.137V335.35H893.437C893.271 336.417 892.887 337.333 892.287 338.1C891.687 338.867 890.904 339.467 889.937 339.9C888.971 340.333 887.871 340.55 886.637 340.55ZM916.305 340.55C914.805 340.55 913.355 340.45 911.955 340.25C910.589 340.05 909.339 339.75 908.205 339.35C907.072 338.95 906.055 338.467 905.155 337.9L907.205 332.15C908.039 332.617 908.955 333.033 909.955 333.4C910.989 333.767 912.055 334.05 913.155 334.25C914.255 334.45 915.322 334.55 916.355 334.55C917.589 334.55 918.472 334.383 919.005 334.05C919.539 333.683 919.805 333.217 919.805 332.65C919.805 332.15 919.622 331.767 919.255 331.5C918.922 331.233 918.439 331.05 917.805 330.95L912.255 330.05C910.189 329.683 908.589 328.933 907.455 327.8C906.322 326.633 905.755 325.117 905.755 323.25C905.755 321.517 906.239 320.033 907.205 318.8C908.205 317.533 909.555 316.567 911.255 315.9C912.989 315.2 914.972 314.85 917.205 314.85C918.405 314.85 919.589 314.95 920.755 315.15C921.922 315.317 923.039 315.6 924.105 316C925.172 316.367 926.139 316.867 927.005 317.5L924.805 323.15C924.172 322.683 923.422 322.283 922.555 321.95C921.689 321.617 920.789 321.35 919.855 321.15C918.955 320.917 918.122 320.8 917.355 320.8C915.989 320.8 915.022 320.983 914.455 321.35C913.889 321.717 913.605 322.183 913.605 322.75C913.605 323.183 913.755 323.55 914.055 323.85C914.355 324.117 914.822 324.3 915.455 324.4L921.005 325.35C923.139 325.683 924.772 326.417 925.905 327.55C927.072 328.65 927.655 330.15 927.655 332.05C927.655 333.85 927.189 335.383 926.255 336.65C925.322 337.917 924.005 338.883 922.305 339.55C920.605 340.217 918.605 340.55 916.305 340.55ZM931.06 311.15V303.1H940.41V311.15H931.06ZM931.31 340V315.4H940.21V340H931.31ZM954.972 340.55C952.872 340.55 951.006 340.033 949.372 339C947.772 337.967 946.506 336.483 945.572 334.55C944.672 332.617 944.222 330.333 944.222 327.7C944.222 325 944.672 322.7 945.572 320.8C946.506 318.9 947.772 317.433 949.372 316.4C951.006 315.367 952.872 314.85 954.972 314.85C956.806 314.85 958.456 315.283 959.922 316.15C961.389 317.017 962.372 318.133 962.872 319.5H962.322V304.75H971.222V340H962.522V335.55H962.972C962.506 337.05 961.522 338.267 960.022 339.2C958.556 340.1 956.872 340.55 954.972 340.55ZM957.822 334C959.156 334 960.256 333.5 961.122 332.5C961.989 331.5 962.422 329.9 962.422 327.7C962.422 325.467 961.989 323.867 961.122 322.9C960.256 321.9 959.156 321.4 957.822 321.4C956.456 321.4 955.339 321.9 954.472 322.9C953.606 323.867 953.172 325.467 953.172 327.7C953.172 329.9 953.606 331.5 954.472 332.5C955.339 333.5 956.456 334 957.822 334ZM989.778 340.55C986.778 340.55 984.178 340.033 981.978 339C979.812 337.933 978.145 336.433 976.978 334.5C975.812 332.567 975.228 330.283 975.228 327.65C975.228 325.117 975.778 322.9 976.878 321C978.012 319.067 979.545 317.567 981.478 316.5C983.445 315.4 985.678 314.85 988.178 314.85C990.678 314.85 992.828 315.367 994.628 316.4C996.428 317.433 997.812 318.917 998.778 320.85C999.778 322.75 1000.28 324.983 1000.28 327.55V329.5H982.678V325.3H993.778L992.978 325.95C992.978 324.15 992.595 322.817 991.828 321.95C991.062 321.05 989.978 320.6 988.578 320.6C987.545 320.6 986.645 320.85 985.878 321.35C985.145 321.817 984.578 322.517 984.178 323.45C983.778 324.383 983.578 325.55 983.578 326.95V327.4C983.578 328.967 983.795 330.233 984.228 331.2C984.695 332.167 985.412 332.883 986.378 333.35C987.345 333.783 988.562 334 990.028 334C991.295 334 992.612 333.817 993.978 333.45C995.378 333.05 996.612 332.483 997.678 331.75L999.878 337.6C998.612 338.5 997.062 339.217 995.228 339.75C993.395 340.283 991.578 340.55 989.778 340.55ZM1004.31 338.5V332L1026.56 323.5V327.85L1004.31 319.3V312.75L1028.71 322.3V328.95L1004.31 338.5Z" fill="#5A5A5A"/>
<path d="M876.76 480.5L852.36 470.95V464.3L876.76 454.75V461.3L854.56 469.85V465.5L876.76 474V480.5ZM882.24 482V457.4H890.89V461.7H890.34C890.807 460.7 891.423 459.85 892.19 459.15C892.957 458.417 893.857 457.85 894.89 457.45C895.957 457.05 897.123 456.85 898.39 456.85C900.19 456.85 901.723 457.283 902.99 458.15C904.29 459.017 905.223 460.333 905.79 462.1H905.09C905.857 460.467 907.007 459.183 908.54 458.25C910.073 457.317 911.773 456.85 913.64 456.85C915.573 456.85 917.157 457.233 918.39 458C919.623 458.733 920.54 459.9 921.14 461.5C921.773 463.067 922.09 465.05 922.09 467.45V482H913.19V467.7C913.19 466.267 912.973 465.233 912.54 464.6C912.107 463.967 911.39 463.65 910.39 463.65C909.59 463.65 908.89 463.85 908.29 464.25C907.723 464.617 907.29 465.183 906.99 465.95C906.723 466.683 906.59 467.583 906.59 468.65V482H897.69V467.7C897.69 466.267 897.473 465.233 897.04 464.6C896.607 463.967 895.89 463.65 894.89 463.65C894.09 463.65 893.407 463.85 892.84 464.25C892.273 464.617 891.84 465.183 891.54 465.95C891.273 466.683 891.14 467.583 891.14 468.65V482H882.24ZM935.807 482.55C933.907 482.55 932.224 482.2 930.757 481.5C929.324 480.8 928.191 479.85 927.357 478.65C926.557 477.417 926.157 476.017 926.157 474.45C926.157 472.65 926.624 471.233 927.557 470.2C928.491 469.167 929.991 468.433 932.057 468C934.124 467.533 936.874 467.3 940.307 467.3H943.057V471.5H940.307C939.341 471.5 938.491 471.55 937.757 471.65C937.057 471.75 936.474 471.917 936.007 472.15C935.541 472.35 935.191 472.617 934.957 472.95C934.724 473.283 934.607 473.667 934.607 474.1C934.607 474.867 934.874 475.5 935.407 476C935.974 476.5 936.774 476.75 937.807 476.75C938.641 476.75 939.374 476.567 940.007 476.2C940.674 475.833 941.207 475.333 941.607 474.7C942.007 474.033 942.207 473.267 942.207 472.4V466.6C942.207 465.4 941.891 464.55 941.257 464.05C940.657 463.55 939.607 463.3 938.107 463.3C936.841 463.3 935.441 463.5 933.907 463.9C932.374 464.3 930.874 464.917 929.407 465.75L927.157 459.9C928.024 459.3 929.091 458.767 930.357 458.3C931.657 457.833 933.024 457.483 934.457 457.25C935.924 456.983 937.274 456.85 938.507 456.85C941.241 456.85 943.491 457.25 945.257 458.05C947.057 458.817 948.391 460.017 949.257 461.65C950.157 463.25 950.607 465.317 950.607 467.85V482H942.307V477.35H942.607C942.441 478.417 942.057 479.333 941.457 480.1C940.857 480.867 940.074 481.467 939.107 481.9C938.141 482.333 937.041 482.55 935.807 482.55ZM955.425 453.15V445.1H964.775V453.15H955.425ZM955.675 482V457.4H964.575V482H955.675ZM969.738 482V457.4H978.388V461.7H977.838C978.638 460.133 979.771 458.933 981.238 458.1C982.738 457.267 984.438 456.85 986.338 456.85C988.304 456.85 989.921 457.233 991.188 458C992.454 458.733 993.404 459.9 994.038 461.5C994.671 463.067 994.988 465.05 994.988 467.45V482H986.088V467.8C986.088 466.8 985.971 466 985.738 465.4C985.504 464.767 985.154 464.317 984.688 464.05C984.254 463.783 983.704 463.65 983.038 463.65C982.138 463.65 981.354 463.85 980.688 464.25C980.021 464.617 979.504 465.15 979.138 465.85C978.804 466.55 978.638 467.383 978.638 468.35V482H969.738ZM1000.26 480.5V474L1022.51 465.5V469.85L1000.26 461.3V454.75L1024.66 464.3V470.95L1000.26 480.5Z" fill="#5A5A5A"/>
<rect x="200" y="375" width="1500" height="14.1693" fill="#FFF2AF"/>
<rect x="199" y="375" width="15" height="769" fill="#FFF2AF"/>
<rect x="1685" y="375" width="15" height="769" fill="#FFF2AF"/>
<rect x="214" y="121" width="725" height="67" fill="white"/>
<rect x="962" y="121" width="725" height="67" fill="white"/>
<path d="M302.7 164.225C301.867 164.225 301.108 164.058 300.425 163.725C299.758 163.392 299.233 162.942 298.85 162.375C298.483 161.808 298.3 161.175 298.3 160.475C298.3 159.575 298.525 158.867 298.975 158.35C299.425 157.833 300.183 157.467 301.25 157.25C302.317 157.017 303.75 156.9 305.55 156.9H306.725V158.35H305.6C304.633 158.35 303.825 158.383 303.175 158.45C302.525 158.517 302.008 158.625 301.625 158.775C301.242 158.925 300.967 159.133 300.8 159.4C300.633 159.65 300.55 159.967 300.55 160.35C300.55 161 300.775 161.533 301.225 161.95C301.692 162.367 302.325 162.575 303.125 162.575C303.758 162.575 304.317 162.425 304.8 162.125C305.283 161.808 305.667 161.392 305.95 160.875C306.233 160.342 306.375 159.733 306.375 159.05V156.175C306.375 155.192 306.175 154.483 305.775 154.05C305.375 153.6 304.7 153.375 303.75 153.375C303.05 153.375 302.35 153.483 301.65 153.7C300.967 153.917 300.258 154.25 299.525 154.7L298.8 153.075C299.233 152.775 299.725 152.517 300.275 152.3C300.842 152.067 301.425 151.892 302.025 151.775C302.642 151.658 303.233 151.6 303.8 151.6C304.883 151.6 305.775 151.775 306.475 152.125C307.175 152.458 307.7 152.983 308.05 153.7C308.4 154.4 308.575 155.3 308.575 156.4V164H306.425V161.225H306.65C306.517 161.842 306.267 162.375 305.9 162.825C305.533 163.275 305.075 163.625 304.525 163.875C303.992 164.108 303.383 164.225 302.7 164.225ZM312.155 168.5V151.825H314.38V154.625H314.13C314.397 153.708 314.922 152.975 315.705 152.425C316.488 151.875 317.43 151.6 318.53 151.6C319.613 151.6 320.555 151.858 321.355 152.375C322.155 152.875 322.78 153.6 323.23 154.55C323.68 155.483 323.905 156.6 323.905 157.9C323.905 159.183 323.68 160.308 323.23 161.275C322.797 162.225 322.172 162.958 321.355 163.475C320.555 163.975 319.613 164.225 318.53 164.225C317.447 164.225 316.513 163.95 315.73 163.4C314.947 162.85 314.422 162.125 314.155 161.225H314.43V168.5H312.155ZM318.005 162.425C319.105 162.425 319.98 162.042 320.63 161.275C321.28 160.492 321.605 159.367 321.605 157.9C321.605 156.433 321.28 155.317 320.63 154.55C319.98 153.783 319.105 153.4 318.005 153.4C316.905 153.4 316.03 153.783 315.38 154.55C314.73 155.317 314.405 156.433 314.405 157.9C314.405 159.367 314.73 160.492 315.38 161.275C316.03 162.042 316.905 162.425 318.005 162.425ZM326.828 168.5V151.825H329.053V154.625H328.803C329.07 153.708 329.595 152.975 330.378 152.425C331.161 151.875 332.103 151.6 333.203 151.6C334.286 151.6 335.228 151.858 336.028 152.375C336.828 152.875 337.453 153.6 337.903 154.55C338.353 155.483 338.578 156.6 338.578 157.9C338.578 159.183 338.353 160.308 337.903 161.275C337.47 162.225 336.845 162.958 336.028 163.475C335.228 163.975 334.286 164.225 333.203 164.225C332.12 164.225 331.186 163.95 330.403 163.4C329.62 162.85 329.095 162.125 328.828 161.225H329.103V168.5H326.828ZM332.678 162.425C333.778 162.425 334.653 162.042 335.303 161.275C335.953 160.492 336.278 159.367 336.278 157.9C336.278 156.433 335.953 155.317 335.303 154.55C334.653 153.783 333.778 153.4 332.678 153.4C331.578 153.4 330.703 153.783 330.053 154.55C329.403 155.317 329.078 156.433 329.078 157.9C329.078 159.367 329.403 160.492 330.053 161.275C330.703 162.042 331.578 162.425 332.678 162.425ZM345.701 164.225C345.067 164.225 344.442 164.167 343.826 164.05C343.226 163.933 342.667 163.767 342.151 163.55C341.651 163.317 341.209 163.042 340.826 162.725L341.501 161.15C341.901 161.45 342.334 161.708 342.801 161.925C343.267 162.125 343.751 162.275 344.251 162.375C344.751 162.475 345.251 162.525 345.751 162.525C346.667 162.525 347.359 162.358 347.826 162.025C348.292 161.692 348.526 161.25 348.526 160.7C348.526 160.233 348.367 159.875 348.051 159.625C347.751 159.358 347.276 159.158 346.626 159.025L344.301 158.55C343.267 158.317 342.484 157.933 341.951 157.4C341.434 156.85 341.176 156.15 341.176 155.3C341.176 154.55 341.376 153.9 341.776 153.35C342.192 152.783 342.767 152.35 343.501 152.05C344.234 151.75 345.076 151.6 346.026 151.6C346.592 151.6 347.142 151.658 347.676 151.775C348.209 151.892 348.709 152.058 349.176 152.275C349.642 152.492 350.034 152.775 350.351 153.125L349.651 154.675C349.334 154.375 348.976 154.125 348.576 153.925C348.176 153.725 347.759 153.575 347.326 153.475C346.892 153.358 346.459 153.3 346.026 153.3C345.126 153.3 344.442 153.475 343.976 153.825C343.526 154.175 343.301 154.633 343.301 155.2C343.301 155.633 343.434 155.992 343.701 156.275C343.984 156.558 344.426 156.767 345.026 156.9L347.351 157.375C348.434 157.608 349.251 157.983 349.801 158.5C350.351 159 350.626 159.683 350.626 160.55C350.626 161.317 350.417 161.975 350.001 162.525C349.601 163.075 349.026 163.5 348.276 163.8C347.542 164.083 346.684 164.225 345.701 164.225ZM353.586 164V146.375H355.861V154.475H355.536C355.886 153.525 356.452 152.808 357.236 152.325C358.036 151.842 358.944 151.6 359.961 151.6C360.944 151.6 361.752 151.783 362.386 152.15C363.019 152.5 363.494 153.033 363.811 153.75C364.127 154.467 364.286 155.367 364.286 156.45V164H362.011V156.575C362.011 155.858 361.919 155.267 361.736 154.8C361.552 154.333 361.261 153.992 360.861 153.775C360.477 153.558 359.986 153.45 359.386 153.45C358.686 153.45 358.069 153.6 357.536 153.9C357.002 154.2 356.586 154.625 356.286 155.175C356.002 155.725 355.861 156.367 355.861 157.1V164H353.586ZM373.517 164.225C372.201 164.225 371.067 163.975 370.117 163.475C369.184 162.958 368.459 162.233 367.942 161.3C367.426 160.35 367.167 159.233 367.167 157.95C367.167 156.683 367.417 155.575 367.917 154.625C368.434 153.675 369.134 152.933 370.017 152.4C370.917 151.867 371.942 151.6 373.092 151.6C374.209 151.6 375.159 151.842 375.942 152.325C376.742 152.808 377.351 153.5 377.767 154.4C378.201 155.283 378.417 156.35 378.417 157.6V158.425H368.942V156.975H376.917L376.492 157.325C376.492 156.025 376.209 155.025 375.642 154.325C375.076 153.608 374.242 153.25 373.142 153.25C372.342 153.25 371.659 153.442 371.092 153.825C370.526 154.192 370.092 154.717 369.792 155.4C369.492 156.067 369.342 156.842 369.342 157.725V157.875C369.342 158.875 369.501 159.717 369.817 160.4C370.151 161.067 370.626 161.575 371.242 161.925C371.859 162.258 372.617 162.425 373.517 162.425C374.234 162.425 374.926 162.317 375.592 162.1C376.276 161.867 376.917 161.508 377.517 161.025L378.217 162.6C377.667 163.1 376.959 163.5 376.092 163.8C375.242 164.083 374.384 164.225 373.517 164.225ZM385.122 164.225C383.822 164.225 382.847 163.858 382.197 163.125C381.564 162.375 381.247 161.3 381.247 159.9V146.375H383.522V159.725C383.522 160.292 383.597 160.775 383.747 161.175C383.914 161.558 384.147 161.842 384.447 162.025C384.764 162.208 385.155 162.3 385.622 162.3C385.805 162.3 385.989 162.292 386.172 162.275C386.372 162.258 386.555 162.225 386.722 162.175L386.672 164.025C386.405 164.092 386.139 164.142 385.872 164.175C385.622 164.208 385.372 164.225 385.122 164.225ZM392.641 164.225C391.341 164.225 390.366 163.858 389.716 163.125C389.083 162.375 388.766 161.3 388.766 159.9V146.375H391.041V159.725C391.041 160.292 391.116 160.775 391.266 161.175C391.433 161.558 391.666 161.842 391.966 162.025C392.283 162.208 392.675 162.3 393.141 162.3C393.325 162.3 393.508 162.292 393.691 162.275C393.891 162.258 394.075 162.225 394.241 162.175L394.191 164.025C393.925 164.092 393.658 164.142 393.391 164.175C393.141 164.208 392.891 164.225 392.641 164.225ZM407.83 164.225C406.347 164.225 405.238 163.842 404.505 163.075C403.772 162.292 403.405 161.175 403.405 159.725V153.575H401.03V151.825H403.405V148.125H405.68V151.825H409.505V153.575H405.68V159.525C405.68 160.442 405.872 161.133 406.255 161.6C406.638 162.067 407.272 162.3 408.155 162.3C408.422 162.3 408.68 162.275 408.93 162.225C409.197 162.158 409.447 162.092 409.68 162.025L410.055 163.725C409.822 163.875 409.488 163.992 409.055 164.075C408.638 164.175 408.23 164.225 407.83 164.225ZM411.515 148.9V146.45H414.24V148.9H411.515ZM411.74 164V151.825H414.015V164H411.74ZM422.723 164.225C421.239 164.225 420.131 163.842 419.398 163.075C418.664 162.292 418.298 161.175 418.298 159.725V153.575H415.923V151.825H418.298V148.125H420.573V151.825H424.398V153.575H420.573V159.525C420.573 160.442 420.764 161.133 421.148 161.6C421.531 162.067 422.164 162.3 423.048 162.3C423.314 162.3 423.573 162.275 423.823 162.225C424.089 162.158 424.339 162.092 424.573 162.025L424.948 163.725C424.714 163.875 424.381 163.992 423.948 164.075C423.531 164.175 423.123 164.225 422.723 164.225ZM430.508 164.225C429.208 164.225 428.233 163.858 427.583 163.125C426.949 162.375 426.633 161.3 426.633 159.9V146.375H428.908V159.725C428.908 160.292 428.983 160.775 429.133 161.175C429.299 161.558 429.533 161.842 429.833 162.025C430.149 162.208 430.541 162.3 431.008 162.3C431.191 162.3 431.374 162.292 431.558 162.275C431.758 162.258 431.941 162.225 432.108 162.175L432.058 164.025C431.791 164.092 431.524 164.142 431.258 164.175C431.008 164.208 430.758 164.225 430.508 164.225ZM439.655 164.225C438.338 164.225 437.205 163.975 436.255 163.475C435.322 162.958 434.597 162.233 434.08 161.3C433.563 160.35 433.305 159.233 433.305 157.95C433.305 156.683 433.555 155.575 434.055 154.625C434.572 153.675 435.272 152.933 436.155 152.4C437.055 151.867 438.08 151.6 439.23 151.6C440.347 151.6 441.297 151.842 442.08 152.325C442.88 152.808 443.488 153.5 443.905 154.4C444.338 155.283 444.555 156.35 444.555 157.6V158.425H435.08V156.975H443.055L442.63 157.325C442.63 156.025 442.347 155.025 441.78 154.325C441.213 153.608 440.38 153.25 439.28 153.25C438.48 153.25 437.797 153.442 437.23 153.825C436.663 154.192 436.23 154.717 435.93 155.4C435.63 156.067 435.48 156.842 435.48 157.725V157.875C435.48 158.875 435.638 159.717 435.955 160.4C436.288 161.067 436.763 161.575 437.38 161.925C437.997 162.258 438.755 162.425 439.655 162.425C440.372 162.425 441.063 162.317 441.73 162.1C442.413 161.867 443.055 161.508 443.655 161.025L444.355 162.6C443.805 163.1 443.097 163.5 442.23 163.8C441.38 164.083 440.522 164.225 439.655 164.225ZM458.079 164.225C457.445 164.225 456.82 164.167 456.204 164.05C455.604 163.933 455.045 163.767 454.529 163.55C454.029 163.317 453.587 163.042 453.204 162.725L453.879 161.15C454.279 161.45 454.712 161.708 455.179 161.925C455.645 162.125 456.129 162.275 456.629 162.375C457.129 162.475 457.629 162.525 458.129 162.525C459.045 162.525 459.737 162.358 460.204 162.025C460.67 161.692 460.904 161.25 460.904 160.7C460.904 160.233 460.745 159.875 460.429 159.625C460.129 159.358 459.654 159.158 459.004 159.025L456.679 158.55C455.645 158.317 454.862 157.933 454.329 157.4C453.812 156.85 453.554 156.15 453.554 155.3C453.554 154.55 453.754 153.9 454.154 153.35C454.57 152.783 455.145 152.35 455.879 152.05C456.612 151.75 457.454 151.6 458.404 151.6C458.97 151.6 459.52 151.658 460.054 151.775C460.587 151.892 461.087 152.058 461.554 152.275C462.02 152.492 462.412 152.775 462.729 153.125L462.029 154.675C461.712 154.375 461.354 154.125 460.954 153.925C460.554 153.725 460.137 153.575 459.704 153.475C459.27 153.358 458.837 153.3 458.404 153.3C457.504 153.3 456.82 153.475 456.354 153.825C455.904 154.175 455.679 154.633 455.679 155.2C455.679 155.633 455.812 155.992 456.079 156.275C456.362 156.558 456.804 156.767 457.404 156.9L459.729 157.375C460.812 157.608 461.629 157.983 462.179 158.5C462.729 159 463.004 159.683 463.004 160.55C463.004 161.317 462.795 161.975 462.379 162.525C461.979 163.075 461.404 163.5 460.654 163.8C459.92 164.083 459.062 164.225 458.079 164.225ZM469.839 164.225C468.539 164.225 467.564 163.858 466.914 163.125C466.28 162.375 465.964 161.3 465.964 159.9V146.375H468.239V159.725C468.239 160.292 468.314 160.775 468.464 161.175C468.63 161.558 468.864 161.842 469.164 162.025C469.48 162.208 469.872 162.3 470.339 162.3C470.522 162.3 470.705 162.292 470.889 162.275C471.089 162.258 471.272 162.225 471.439 162.175L471.389 164.025C471.122 164.092 470.855 164.142 470.589 164.175C470.339 164.208 470.089 164.225 469.839 164.225ZM478.536 164.225C477.336 164.225 476.294 163.967 475.411 163.45C474.528 162.933 473.844 162.2 473.361 161.25C472.878 160.3 472.636 159.183 472.636 157.9C472.636 156.617 472.878 155.508 473.361 154.575C473.844 153.625 474.528 152.892 475.411 152.375C476.294 151.858 477.336 151.6 478.536 151.6C479.736 151.6 480.778 151.858 481.661 152.375C482.544 152.892 483.228 153.625 483.711 154.575C484.194 155.508 484.436 156.617 484.436 157.9C484.436 159.183 484.194 160.3 483.711 161.25C483.228 162.2 482.544 162.933 481.661 163.45C480.778 163.967 479.736 164.225 478.536 164.225ZM478.536 162.425C479.636 162.425 480.511 162.042 481.161 161.275C481.811 160.492 482.136 159.367 482.136 157.9C482.136 156.433 481.811 155.317 481.161 154.55C480.511 153.783 479.636 153.4 478.536 153.4C477.453 153.4 476.578 153.783 475.911 154.55C475.261 155.317 474.936 156.433 474.936 157.9C474.936 159.367 475.261 160.492 475.911 161.275C476.578 162.042 477.453 162.425 478.536 162.425ZM492.278 164.225C490.795 164.225 489.687 163.842 488.953 163.075C488.22 162.292 487.853 161.175 487.853 159.725V153.575H485.478V151.825H487.853V148.125H490.128V151.825H493.953V153.575H490.128V159.525C490.128 160.442 490.32 161.133 490.703 161.6C491.087 162.067 491.72 162.3 492.603 162.3C492.87 162.3 493.128 162.275 493.378 162.225C493.645 162.158 493.895 162.092 494.128 162.025L494.503 163.725C494.27 163.875 493.937 163.992 493.503 164.075C493.087 164.175 492.678 164.225 492.278 164.225ZM502.382 151.95V150.05C502.382 149.567 502.432 149.108 502.532 148.675C502.632 148.242 502.799 147.825 503.032 147.425C503.282 147.008 503.607 146.6 504.007 146.2L505.032 147.025C504.732 147.342 504.491 147.65 504.307 147.95C504.141 148.233 504.016 148.517 503.932 148.8C503.866 149.083 503.832 149.367 503.832 149.65L503.207 149.175H505.157V151.95H502.382ZM506.682 151.95V150.05C506.682 149.567 506.732 149.108 506.832 148.675C506.932 148.242 507.099 147.825 507.332 147.425C507.582 147.008 507.907 146.6 508.307 146.2L509.332 147.025C509.032 147.342 508.791 147.65 508.607 147.95C508.441 148.233 508.316 148.517 508.232 148.8C508.166 149.083 508.132 149.367 508.132 149.65L507.507 149.175H509.457V151.95H506.682ZM512.814 164V151.825H515.039V154.475H514.764C515.114 153.525 515.681 152.808 516.464 152.325C517.264 151.842 518.173 151.6 519.189 151.6C520.173 151.6 520.981 151.775 521.614 152.125C522.248 152.475 522.723 153.017 523.039 153.75C523.356 154.467 523.514 155.367 523.514 156.45V164H521.239V156.575C521.239 155.858 521.148 155.267 520.964 154.8C520.781 154.333 520.489 153.992 520.089 153.775C519.706 153.558 519.214 153.45 518.614 153.45C517.914 153.45 517.298 153.6 516.764 153.9C516.231 154.2 515.814 154.625 515.514 155.175C515.231 155.725 515.089 156.367 515.089 157.1V164H512.814ZM530.996 164.225C530.163 164.225 529.404 164.058 528.721 163.725C528.054 163.392 527.529 162.942 527.146 162.375C526.779 161.808 526.596 161.175 526.596 160.475C526.596 159.575 526.821 158.867 527.271 158.35C527.721 157.833 528.479 157.467 529.546 157.25C530.613 157.017 532.046 156.9 533.846 156.9H535.021V158.35H533.896C532.929 158.35 532.121 158.383 531.471 158.45C530.821 158.517 530.304 158.625 529.921 158.775C529.538 158.925 529.263 159.133 529.096 159.4C528.929 159.65 528.846 159.967 528.846 160.35C528.846 161 529.071 161.533 529.521 161.95C529.988 162.367 530.621 162.575 531.421 162.575C532.054 162.575 532.613 162.425 533.096 162.125C533.579 161.808 533.963 161.392 534.246 160.875C534.529 160.342 534.671 159.733 534.671 159.05V156.175C534.671 155.192 534.471 154.483 534.071 154.05C533.671 153.6 532.996 153.375 532.046 153.375C531.346 153.375 530.646 153.483 529.946 153.7C529.263 153.917 528.554 154.25 527.821 154.7L527.096 153.075C527.529 152.775 528.021 152.517 528.571 152.3C529.138 152.067 529.721 151.892 530.321 151.775C530.938 151.658 531.529 151.6 532.096 151.6C533.179 151.6 534.071 151.775 534.771 152.125C535.471 152.458 535.996 152.983 536.346 153.7C536.696 154.4 536.871 155.3 536.871 156.4V164H534.721V161.225H534.946C534.813 161.842 534.563 162.375 534.196 162.825C533.829 163.275 533.371 163.625 532.821 163.875C532.288 164.108 531.679 164.225 530.996 164.225ZM540.501 164V151.825H542.726V154.475H542.451C542.668 153.858 542.968 153.342 543.351 152.925C543.734 152.492 544.193 152.167 544.726 151.95C545.276 151.717 545.876 151.6 546.526 151.6C547.559 151.6 548.393 151.85 549.026 152.35C549.659 152.833 550.084 153.575 550.301 154.575H549.951C550.251 153.658 550.784 152.933 551.551 152.4C552.334 151.867 553.243 151.6 554.276 151.6C555.193 151.6 555.943 151.783 556.526 152.15C557.126 152.5 557.576 153.033 557.876 153.75C558.176 154.45 558.326 155.35 558.326 156.45V164H556.051V156.55C556.051 155.483 555.868 154.7 555.501 154.2C555.134 153.7 554.518 153.45 553.651 153.45C553.018 153.45 552.468 153.6 552.001 153.9C551.534 154.2 551.176 154.625 550.926 155.175C550.676 155.725 550.551 156.383 550.551 157.15V164H548.276V156.55C548.276 155.483 548.093 154.7 547.726 154.2C547.359 153.7 546.743 153.45 545.876 153.45C545.243 153.45 544.693 153.6 544.226 153.9C543.759 154.2 543.401 154.625 543.151 155.175C542.901 155.725 542.776 156.383 542.776 157.15V164H540.501ZM567.609 164.225C566.293 164.225 565.159 163.975 564.209 163.475C563.276 162.958 562.551 162.233 562.034 161.3C561.518 160.35 561.259 159.233 561.259 157.95C561.259 156.683 561.509 155.575 562.009 154.625C562.526 153.675 563.226 152.933 564.109 152.4C565.009 151.867 566.034 151.6 567.184 151.6C568.301 151.6 569.251 151.842 570.034 152.325C570.834 152.808 571.443 153.5 571.859 154.4C572.293 155.283 572.509 156.35 572.509 157.6V158.425H563.034V156.975H571.009L570.584 157.325C570.584 156.025 570.301 155.025 569.734 154.325C569.168 153.608 568.334 153.25 567.234 153.25C566.434 153.25 565.751 153.442 565.184 153.825C564.618 154.192 564.184 154.717 563.884 155.4C563.584 156.067 563.434 156.842 563.434 157.725V157.875C563.434 158.875 563.593 159.717 563.909 160.4C564.243 161.067 564.718 161.575 565.334 161.925C565.951 162.258 566.709 162.425 567.609 162.425C568.326 162.425 569.018 162.317 569.684 162.1C570.368 161.867 571.009 161.508 571.609 161.025L572.309 162.6C571.759 163.1 571.051 163.5 570.184 163.8C569.334 164.083 568.476 164.225 567.609 164.225ZM575.481 152.1L574.456 151.325C574.756 150.992 574.99 150.683 575.156 150.4C575.34 150.117 575.465 149.833 575.531 149.55C575.598 149.25 575.631 148.958 575.631 148.675L576.281 149.15H574.306V146.375H577.081V148.275C577.081 148.758 577.031 149.217 576.931 149.65C576.831 150.083 576.665 150.5 576.431 150.9C576.198 151.3 575.881 151.7 575.481 152.1ZM579.781 152.1L578.756 151.325C579.056 150.992 579.29 150.683 579.456 150.4C579.64 150.117 579.765 149.833 579.831 149.55C579.898 149.25 579.931 148.958 579.931 148.675L580.581 149.15H578.606V146.375H581.381V148.275C581.381 148.758 581.331 149.217 581.231 149.65C581.131 150.083 580.965 150.5 580.731 150.9C580.498 151.3 580.181 151.7 579.781 152.1Z" fill="#2A2A2A"/>
<path d="M868.397 239V217.85H871.187V227.09H883.427V217.85H886.217V239H883.427V229.46H871.187V239H868.397ZM892.387 239V236.63H897.187V220.22H898.627L893.407 223.49L892.267 221.42L897.967 217.85H899.977V236.63H904.477V239H892.387ZM921.768 239.27C921.008 239.27 920.258 239.2 919.518 239.06C918.798 238.92 918.128 238.72 917.508 238.46C916.908 238.18 916.378 237.85 915.918 237.47L916.728 235.58C917.208 235.94 917.728 236.25 918.288 236.51C918.848 236.75 919.428 236.93 920.028 237.05C920.628 237.17 921.228 237.23 921.828 237.23C922.928 237.23 923.758 237.03 924.318 236.63C924.878 236.23 925.158 235.7 925.158 235.04C925.158 234.48 924.968 234.05 924.588 233.75C924.228 233.43 923.658 233.19 922.878 233.03L920.088 232.46C918.848 232.18 917.908 231.72 917.268 231.08C916.648 230.42 916.338 229.58 916.338 228.56C916.338 227.66 916.578 226.88 917.058 226.22C917.558 225.54 918.248 225.02 919.128 224.66C920.008 224.3 921.018 224.12 922.158 224.12C922.838 224.12 923.498 224.19 924.138 224.33C924.778 224.47 925.378 224.67 925.938 224.93C926.498 225.19 926.968 225.53 927.348 225.95L926.508 227.81C926.128 227.45 925.698 227.15 925.218 226.91C924.738 226.67 924.238 226.49 923.718 226.37C923.198 226.23 922.678 226.16 922.158 226.16C921.078 226.16 920.258 226.37 919.698 226.79C919.158 227.21 918.888 227.76 918.888 228.44C918.888 228.96 919.048 229.39 919.368 229.73C919.708 230.07 920.238 230.32 920.958 230.48L923.748 231.05C925.048 231.33 926.028 231.78 926.688 232.4C927.348 233 927.678 233.82 927.678 234.86C927.678 235.78 927.428 236.57 926.928 237.23C926.448 237.89 925.758 238.4 924.858 238.76C923.978 239.1 922.948 239.27 921.768 239.27ZM935.88 239.27C934.32 239.27 933.15 238.83 932.37 237.95C931.61 237.05 931.23 235.76 931.23 234.08V217.85H933.96V233.87C933.96 234.55 934.05 235.13 934.23 235.61C934.43 236.07 934.71 236.41 935.07 236.63C935.45 236.85 935.92 236.96 936.48 236.96C936.7 236.96 936.92 236.95 937.14 236.93C937.38 236.91 937.6 236.87 937.8 236.81L937.74 239.03C937.42 239.11 937.1 239.17 936.78 239.21C936.48 239.25 936.18 239.27 935.88 239.27ZM946.317 239.27C944.877 239.27 943.627 238.96 942.567 238.34C941.507 237.72 940.687 236.84 940.107 235.7C939.527 234.56 939.237 233.22 939.237 231.68C939.237 230.14 939.527 228.81 940.107 227.69C940.687 226.55 941.507 225.67 942.567 225.05C943.627 224.43 944.877 224.12 946.317 224.12C947.757 224.12 949.007 224.43 950.067 225.05C951.127 225.67 951.947 226.55 952.527 227.69C953.107 228.81 953.397 230.14 953.397 231.68C953.397 233.22 953.107 234.56 952.527 235.7C951.947 236.84 951.127 237.72 950.067 238.34C949.007 238.96 947.757 239.27 946.317 239.27ZM946.317 237.11C947.637 237.11 948.687 236.65 949.467 235.73C950.247 234.79 950.637 233.44 950.637 231.68C950.637 229.92 950.247 228.58 949.467 227.66C948.687 226.74 947.637 226.28 946.317 226.28C945.017 226.28 943.967 226.74 943.167 227.66C942.387 228.58 941.997 229.92 941.997 231.68C941.997 233.44 942.387 234.79 943.167 235.73C943.967 236.65 945.017 237.11 946.317 237.11ZM962.808 239.27C961.028 239.27 959.698 238.81 958.818 237.89C957.938 236.95 957.498 235.61 957.498 233.87V226.49H954.648V224.39H957.498V219.95H960.228V224.39H964.818V226.49H960.228V233.63C960.228 234.73 960.458 235.56 960.918 236.12C961.378 236.68 962.138 236.96 963.198 236.96C963.518 236.96 963.828 236.93 964.128 236.87C964.448 236.79 964.748 236.71 965.028 236.63L965.478 238.67C965.198 238.85 964.798 238.99 964.278 239.09C963.778 239.21 963.288 239.27 962.808 239.27ZM974.933 224.54V222.26C974.933 221.68 974.993 221.13 975.113 220.61C975.233 220.09 975.433 219.59 975.713 219.11C976.013 218.61 976.403 218.12 976.883 217.64L978.113 218.63C977.753 219.01 977.463 219.38 977.243 219.74C977.043 220.08 976.893 220.42 976.793 220.76C976.713 221.1 976.673 221.44 976.673 221.78L975.923 221.21H978.263V224.54H974.933ZM980.093 224.54V222.26C980.093 221.68 980.153 221.13 980.273 220.61C980.393 220.09 980.593 219.59 980.873 219.11C981.173 218.61 981.563 218.12 982.043 217.64L983.273 218.63C982.913 219.01 982.623 219.38 982.403 219.74C982.203 220.08 982.053 220.42 981.953 220.76C981.873 221.1 981.833 221.44 981.833 221.78L981.083 221.21H983.423V224.54H980.093ZM993.599 239.27C991.819 239.27 990.489 238.81 989.609 237.89C988.729 236.95 988.289 235.61 988.289 233.87V226.49H985.439V224.39H988.289V219.95H991.019V224.39H995.609V226.49H991.019V233.63C991.019 234.73 991.249 235.56 991.709 236.12C992.169 236.68 992.929 236.96 993.989 236.96C994.309 236.96 994.619 236.93 994.919 236.87C995.239 236.79 995.539 236.71 995.819 236.63L996.269 238.67C995.989 238.85 995.589 238.99 995.069 239.09C994.569 239.21 994.079 239.27 993.599 239.27ZM998.021 220.88V217.94H1001.29V220.88H998.021ZM998.291 239V224.39H1001.02V239H998.291ZM1011.47 239.27C1009.69 239.27 1008.36 238.81 1007.48 237.89C1006.6 236.95 1006.16 235.61 1006.16 233.87V226.49H1003.31V224.39H1006.16V219.95H1008.89V224.39H1013.48V226.49H1008.89V233.63C1008.89 234.73 1009.12 235.56 1009.58 236.12C1010.04 236.68 1010.8 236.96 1011.86 236.96C1012.18 236.96 1012.49 236.93 1012.79 236.87C1013.11 236.79 1013.41 236.71 1013.69 236.63L1014.14 238.67C1013.86 238.85 1013.46 238.99 1012.94 239.09C1012.44 239.21 1011.95 239.27 1011.47 239.27ZM1020.81 239.27C1019.25 239.27 1018.08 238.83 1017.3 237.95C1016.54 237.05 1016.16 235.76 1016.16 234.08V217.85H1018.89V233.87C1018.89 234.55 1018.98 235.13 1019.16 235.61C1019.36 236.07 1019.64 236.41 1020 236.63C1020.38 236.85 1020.85 236.96 1021.41 236.96C1021.63 236.96 1021.85 236.95 1022.07 236.93C1022.31 236.91 1022.53 236.87 1022.73 236.81L1022.67 239.03C1022.35 239.11 1022.03 239.17 1021.71 239.21C1021.41 239.25 1021.11 239.27 1020.81 239.27ZM1031.79 239.27C1030.21 239.27 1028.85 238.97 1027.71 238.37C1026.59 237.75 1025.72 236.88 1025.1 235.76C1024.48 234.62 1024.17 233.28 1024.17 231.74C1024.17 230.22 1024.47 228.89 1025.07 227.75C1025.69 226.61 1026.53 225.72 1027.59 225.08C1028.67 224.44 1029.9 224.12 1031.28 224.12C1032.62 224.12 1033.76 224.41 1034.7 224.99C1035.66 225.57 1036.39 226.4 1036.89 227.48C1037.41 228.54 1037.67 229.82 1037.67 231.32V232.31H1026.3V230.57H1035.87L1035.36 230.99C1035.36 229.43 1035.02 228.23 1034.34 227.39C1033.66 226.53 1032.66 226.1 1031.34 226.1C1030.38 226.1 1029.56 226.33 1028.88 226.79C1028.2 227.23 1027.68 227.86 1027.32 228.68C1026.96 229.48 1026.78 230.41 1026.78 231.47V231.65C1026.78 232.85 1026.97 233.86 1027.35 234.68C1027.75 235.48 1028.32 236.09 1029.06 236.51C1029.8 236.91 1030.71 237.11 1031.79 237.11C1032.65 237.11 1033.48 236.98 1034.28 236.72C1035.1 236.44 1035.87 236.01 1036.59 235.43L1037.43 237.32C1036.77 237.92 1035.92 238.4 1034.88 238.76C1033.86 239.1 1032.83 239.27 1031.79 239.27ZM1041.24 224.72L1040.01 223.79C1040.37 223.39 1040.65 223.02 1040.85 222.68C1041.07 222.34 1041.22 222 1041.3 221.66C1041.38 221.3 1041.42 220.95 1041.42 220.61L1042.2 221.18H1039.83V217.85H1043.16V220.13C1043.16 220.71 1043.1 221.26 1042.98 221.78C1042.86 222.3 1042.66 222.8 1042.38 223.28C1042.1 223.76 1041.72 224.24 1041.24 224.72ZM1046.4 224.72L1045.17 223.79C1045.53 223.39 1045.81 223.02 1046.01 222.68C1046.23 222.34 1046.38 222 1046.46 221.66C1046.54 221.3 1046.58 220.95 1046.58 220.61L1047.36 221.18H1044.99V217.85H1048.32V220.13C1048.32 220.71 1048.26 221.26 1048.14 221.78C1048.02 222.3 1047.82 222.8 1047.54 223.28C1047.26 223.76 1046.88 224.24 1046.4 224.72Z" fill="#2A2A2A"/>
<path d="M1437.76 164.225C1437.13 164.225 1436.5 164.167 1435.89 164.05C1435.29 163.933 1434.73 163.767 1434.21 163.55C1433.71 163.317 1433.27 163.042 1432.89 162.725L1433.56 161.15C1433.96 161.45 1434.4 161.708 1434.86 161.925C1435.33 162.125 1435.81 162.275 1436.31 162.375C1436.81 162.475 1437.31 162.525 1437.81 162.525C1438.73 162.525 1439.42 162.358 1439.89 162.025C1440.35 161.692 1440.59 161.25 1440.59 160.7C1440.59 160.233 1440.43 159.875 1440.11 159.625C1439.81 159.358 1439.34 159.158 1438.69 159.025L1436.36 158.55C1435.33 158.317 1434.55 157.933 1434.01 157.4C1433.5 156.85 1433.24 156.15 1433.24 155.3C1433.24 154.55 1433.44 153.9 1433.84 153.35C1434.25 152.783 1434.83 152.35 1435.56 152.05C1436.3 151.75 1437.14 151.6 1438.09 151.6C1438.65 151.6 1439.2 151.658 1439.74 151.775C1440.27 151.892 1440.77 152.058 1441.24 152.275C1441.7 152.492 1442.1 152.775 1442.41 153.125L1441.71 154.675C1441.4 154.375 1441.04 154.125 1440.64 153.925C1440.24 153.725 1439.82 153.575 1439.39 153.475C1438.95 153.358 1438.52 153.3 1438.09 153.3C1437.19 153.3 1436.5 153.475 1436.04 153.825C1435.59 154.175 1435.36 154.633 1435.36 155.2C1435.36 155.633 1435.5 155.992 1435.76 156.275C1436.05 156.558 1436.49 156.767 1437.09 156.9L1439.41 157.375C1440.5 157.608 1441.31 157.983 1441.86 158.5C1442.41 159 1442.69 159.683 1442.69 160.55C1442.69 161.317 1442.48 161.975 1442.06 162.525C1441.66 163.075 1441.09 163.5 1440.34 163.8C1439.6 164.083 1438.75 164.225 1437.76 164.225ZM1449.52 164.225C1448.22 164.225 1447.25 163.858 1446.6 163.125C1445.96 162.375 1445.65 161.3 1445.65 159.9V146.375H1447.92V159.725C1447.92 160.292 1448 160.775 1448.15 161.175C1448.31 161.558 1448.55 161.842 1448.85 162.025C1449.16 162.208 1449.56 162.3 1450.02 162.3C1450.21 162.3 1450.39 162.292 1450.57 162.275C1450.77 162.258 1450.96 162.225 1451.12 162.175L1451.07 164.025C1450.81 164.092 1450.54 164.142 1450.27 164.175C1450.02 164.208 1449.77 164.225 1449.52 164.225ZM1458.22 164.225C1457.02 164.225 1455.98 163.967 1455.1 163.45C1454.21 162.933 1453.53 162.2 1453.05 161.25C1452.56 160.3 1452.32 159.183 1452.32 157.9C1452.32 156.617 1452.56 155.508 1453.05 154.575C1453.53 153.625 1454.21 152.892 1455.1 152.375C1455.98 151.858 1457.02 151.6 1458.22 151.6C1459.42 151.6 1460.46 151.858 1461.35 152.375C1462.23 152.892 1462.91 153.625 1463.4 154.575C1463.88 155.508 1464.12 156.617 1464.12 157.9C1464.12 159.183 1463.88 160.3 1463.4 161.25C1462.91 162.2 1462.23 162.933 1461.35 163.45C1460.46 163.967 1459.42 164.225 1458.22 164.225ZM1458.22 162.425C1459.32 162.425 1460.2 162.042 1460.85 161.275C1461.5 160.492 1461.82 159.367 1461.82 157.9C1461.82 156.433 1461.5 155.317 1460.85 154.55C1460.2 153.783 1459.32 153.4 1458.22 153.4C1457.14 153.4 1456.26 153.783 1455.6 154.55C1454.95 155.317 1454.62 156.433 1454.62 157.9C1454.62 159.367 1454.95 160.492 1455.6 161.275C1456.26 162.042 1457.14 162.425 1458.22 162.425ZM1471.96 164.225C1470.48 164.225 1469.37 163.842 1468.64 163.075C1467.9 162.292 1467.54 161.175 1467.54 159.725V153.575H1465.16V151.825H1467.54V148.125H1469.81V151.825H1473.64V153.575H1469.81V159.525C1469.81 160.442 1470 161.133 1470.39 161.6C1470.77 162.067 1471.4 162.3 1472.29 162.3C1472.55 162.3 1472.81 162.275 1473.06 162.225C1473.33 162.158 1473.58 162.092 1473.81 162.025L1474.19 163.725C1473.95 163.875 1473.62 163.992 1473.19 164.075C1472.77 164.175 1472.36 164.225 1471.96 164.225ZM1482.07 151.95V150.05C1482.07 149.567 1482.12 149.108 1482.22 148.675C1482.32 148.242 1482.48 147.825 1482.72 147.425C1482.97 147.008 1483.29 146.6 1483.69 146.2L1484.72 147.025C1484.42 147.342 1484.18 147.65 1483.99 147.95C1483.83 148.233 1483.7 148.517 1483.62 148.8C1483.55 149.083 1483.52 149.367 1483.52 149.65L1482.89 149.175H1484.84V151.95H1482.07ZM1486.37 151.95V150.05C1486.37 149.567 1486.42 149.108 1486.52 148.675C1486.62 148.242 1486.78 147.825 1487.02 147.425C1487.27 147.008 1487.59 146.6 1487.99 146.2L1489.02 147.025C1488.72 147.342 1488.48 147.65 1488.29 147.95C1488.13 148.233 1488 148.517 1487.92 148.8C1487.85 149.083 1487.82 149.367 1487.82 149.65L1487.19 149.175H1489.14V151.95H1486.37ZM1496.37 164.225C1495.07 164.225 1494.1 163.858 1493.45 163.125C1492.82 162.375 1492.5 161.3 1492.5 159.9V146.375H1494.77V159.725C1494.77 160.292 1494.85 160.775 1495 161.175C1495.17 161.558 1495.4 161.842 1495.7 162.025C1496.02 162.208 1496.41 162.3 1496.87 162.3C1497.06 162.3 1497.24 162.292 1497.42 162.275C1497.62 162.258 1497.81 162.225 1497.97 162.175L1497.92 164.025C1497.66 164.092 1497.39 164.142 1497.12 164.175C1496.87 164.208 1496.62 164.225 1496.37 164.225ZM1505.07 164.225C1503.87 164.225 1502.83 163.967 1501.95 163.45C1501.06 162.933 1500.38 162.2 1499.9 161.25C1499.41 160.3 1499.17 159.183 1499.17 157.9C1499.17 156.617 1499.41 155.508 1499.9 154.575C1500.38 153.625 1501.06 152.892 1501.95 152.375C1502.83 151.858 1503.87 151.6 1505.07 151.6C1506.27 151.6 1507.31 151.858 1508.2 152.375C1509.08 152.892 1509.76 153.625 1510.25 154.575C1510.73 155.508 1510.97 156.617 1510.97 157.9C1510.97 159.183 1510.73 160.3 1510.25 161.25C1509.76 162.2 1509.08 162.933 1508.2 163.45C1507.31 163.967 1506.27 164.225 1505.07 164.225ZM1505.07 162.425C1506.17 162.425 1507.05 162.042 1507.7 161.275C1508.35 160.492 1508.67 159.367 1508.67 157.9C1508.67 156.433 1508.35 155.317 1507.7 154.55C1507.05 153.783 1506.17 153.4 1505.07 153.4C1503.99 153.4 1503.11 153.783 1502.45 154.55C1501.8 155.317 1501.47 156.433 1501.47 157.9C1501.47 159.367 1501.8 160.492 1502.45 161.275C1503.11 162.042 1503.99 162.425 1505.07 162.425ZM1519.36 168.725C1518.28 168.725 1517.27 168.592 1516.34 168.325C1515.4 168.058 1514.57 167.65 1513.84 167.1L1514.56 165.45C1515.06 165.783 1515.55 166.058 1516.04 166.275C1516.54 166.508 1517.04 166.675 1517.56 166.775C1518.09 166.875 1518.64 166.925 1519.21 166.925C1520.39 166.925 1521.28 166.617 1521.86 166C1522.46 165.4 1522.76 164.517 1522.76 163.35V160.65H1522.99C1522.75 161.583 1522.23 162.325 1521.41 162.875C1520.61 163.425 1519.68 163.7 1518.61 163.7C1517.51 163.7 1516.55 163.45 1515.74 162.95C1514.92 162.433 1514.29 161.725 1513.84 160.825C1513.39 159.908 1513.16 158.85 1513.16 157.65C1513.16 156.433 1513.39 155.375 1513.84 154.475C1514.29 153.558 1514.92 152.85 1515.74 152.35C1516.55 151.85 1517.51 151.6 1518.61 151.6C1519.69 151.6 1520.64 151.875 1521.44 152.425C1522.24 152.975 1522.75 153.717 1522.99 154.65H1522.76V151.825H1524.99V163.05C1524.99 164.3 1524.77 165.35 1524.34 166.2C1523.92 167.05 1523.29 167.683 1522.46 168.1C1521.63 168.517 1520.59 168.725 1519.36 168.725ZM1519.11 161.9C1520.23 161.9 1521.11 161.517 1521.76 160.75C1522.41 159.983 1522.74 158.95 1522.74 157.65C1522.74 156.333 1522.41 155.3 1521.76 154.55C1521.11 153.783 1520.23 153.4 1519.11 153.4C1517.99 153.4 1517.1 153.783 1516.44 154.55C1515.79 155.3 1515.46 156.333 1515.46 157.65C1515.46 158.95 1515.79 159.983 1516.44 160.75C1517.1 161.517 1517.99 161.9 1519.11 161.9ZM1533.81 164.225C1532.61 164.225 1531.56 163.967 1530.68 163.45C1529.8 162.933 1529.11 162.2 1528.63 161.25C1528.15 160.3 1527.91 159.183 1527.91 157.9C1527.91 156.617 1528.15 155.508 1528.63 154.575C1529.11 153.625 1529.8 152.892 1530.68 152.375C1531.56 151.858 1532.61 151.6 1533.81 151.6C1535.01 151.6 1536.05 151.858 1536.93 152.375C1537.81 152.892 1538.5 153.625 1538.98 154.575C1539.46 155.508 1539.71 156.617 1539.71 157.9C1539.71 159.183 1539.46 160.3 1538.98 161.25C1538.5 162.2 1537.81 162.933 1536.93 163.45C1536.05 163.967 1535.01 164.225 1533.81 164.225ZM1533.81 162.425C1534.91 162.425 1535.78 162.042 1536.43 161.275C1537.08 160.492 1537.41 159.367 1537.41 157.9C1537.41 156.433 1537.08 155.317 1536.43 154.55C1535.78 153.783 1534.91 153.4 1533.81 153.4C1532.72 153.4 1531.85 153.783 1531.18 154.55C1530.53 155.317 1530.21 156.433 1530.21 157.9C1530.21 159.367 1530.53 160.492 1531.18 161.275C1531.85 162.042 1532.72 162.425 1533.81 162.425ZM1542.57 152.1L1541.54 151.325C1541.84 150.992 1542.08 150.683 1542.24 150.4C1542.43 150.117 1542.55 149.833 1542.62 149.55C1542.68 149.25 1542.72 148.958 1542.72 148.675L1543.37 149.15H1541.39V146.375H1544.17V148.275C1544.17 148.758 1544.12 149.217 1544.02 149.65C1543.92 150.083 1543.75 150.5 1543.52 150.9C1543.28 151.3 1542.97 151.7 1542.57 152.1ZM1546.87 152.1L1545.84 151.325C1546.14 150.992 1546.38 150.683 1546.54 150.4C1546.73 150.117 1546.85 149.833 1546.92 149.55C1546.98 149.25 1547.02 148.958 1547.02 148.675L1547.67 149.15H1545.69V146.375H1548.47V148.275C1548.47 148.758 1548.42 149.217 1548.32 149.65C1548.22 150.083 1548.05 150.5 1547.82 150.9C1547.58 151.3 1547.27 151.7 1546.87 152.1Z" fill="#2A2A2A"/>
</g>
<rect x="0.5" y="0.5" width="1899" height="1079" stroke="black"/>
<defs>
<clipPath id="clip0_226_135">
<rect width="1900" height="1080" fill="white"/>
</clipPath>
</defs>
</svg>
