<svg width="1900" height="1080" viewBox="0 0 1900 1080" fill="none" xmlns="http://www.w3.org/2000/svg">
<g clip-path="url(#clip0_163_995)">
<rect width="1900" height="1080" fill="white"/>
<rect x="250" width="1400" height="220" fill="#EBEBEB"/>
<path d="M609.488 93L611.038 85.05H608.588V79.75H612.038L613.838 70.6H609.688V65.3H614.788L616.338 57.75H622.088L620.538 65.3H624.888L626.388 57.75H632.138L630.638 65.3H633.088V70.6H629.638L627.838 79.75H631.988V85.05H626.838L625.288 93H619.538L621.088 85.05H616.788L615.238 93H609.488ZM617.788 79.75H622.088L623.888 70.6H619.588L617.788 79.75ZM638.518 93V68.4H647.168V72.7H646.618C647.085 71.7 647.702 70.85 648.468 70.15C649.235 69.4167 650.135 68.85 651.168 68.45C652.235 68.05 653.402 67.85 654.668 67.85C656.468 67.85 658.002 68.2833 659.268 69.15C660.568 70.0167 661.502 71.3333 662.068 73.1H661.368C662.135 71.4667 663.285 70.1833 664.818 69.25C666.352 68.3167 668.052 67.85 669.918 67.85C671.852 67.85 673.435 68.2333 674.668 69C675.902 69.7333 676.818 70.9 677.418 72.5C678.052 74.0667 678.368 76.05 678.368 78.45V93H669.468V78.7C669.468 77.2667 669.252 76.2333 668.818 75.6C668.385 74.9667 667.668 74.65 666.668 74.65C665.868 74.65 665.168 74.85 664.568 75.25C664.002 75.6167 663.568 76.1833 663.268 76.95C663.002 77.6833 662.868 78.5833 662.868 79.65V93H653.968V78.7C653.968 77.2667 653.752 76.2333 653.318 75.6C652.885 74.9667 652.168 74.65 651.168 74.65C650.368 74.65 649.685 74.85 649.118 75.25C648.552 75.6167 648.118 76.1833 647.818 76.95C647.552 77.6833 647.418 78.5833 647.418 79.65V93H638.518ZM692.086 93.55C690.186 93.55 688.502 93.2 687.036 92.5C685.602 91.8 684.469 90.85 683.636 89.65C682.836 88.4167 682.436 87.0167 682.436 85.45C682.436 83.65 682.902 82.2333 683.836 81.2C684.769 80.1667 686.269 79.4333 688.336 79C690.402 78.5333 693.152 78.3 696.586 78.3H699.336V82.5H696.586C695.619 82.5 694.769 82.55 694.036 82.65C693.336 82.75 692.752 82.9167 692.286 83.15C691.819 83.35 691.469 83.6167 691.236 83.95C691.002 84.2833 690.886 84.6667 690.886 85.1C690.886 85.8667 691.152 86.5 691.686 87C692.252 87.5 693.052 87.75 694.086 87.75C694.919 87.75 695.652 87.5667 696.286 87.2C696.952 86.8333 697.486 86.3333 697.886 85.7C698.286 85.0333 698.486 84.2667 698.486 83.4V77.6C698.486 76.4 698.169 75.55 697.536 75.05C696.936 74.55 695.886 74.3 694.386 74.3C693.119 74.3 691.719 74.5 690.186 74.9C688.652 75.3 687.152 75.9167 685.686 76.75L683.436 70.9C684.302 70.3 685.369 69.7667 686.636 69.3C687.936 68.8333 689.302 68.4833 690.736 68.25C692.202 67.9833 693.552 67.85 694.786 67.85C697.519 67.85 699.769 68.25 701.536 69.05C703.336 69.8167 704.669 71.0167 705.536 72.65C706.436 74.25 706.886 76.3167 706.886 78.85V93H698.586V88.35H698.886C698.719 89.4167 698.336 90.3333 697.736 91.1C697.136 91.8667 696.352 92.4667 695.386 92.9C694.419 93.3333 693.319 93.55 692.086 93.55ZM711.703 64.15V56.1H721.053V64.15H711.703ZM711.953 93V68.4H720.853V93H711.953ZM726.016 93V68.4H734.666V72.7H734.116C734.916 71.1333 736.049 69.9333 737.516 69.1C739.016 68.2667 740.716 67.85 742.616 67.85C744.583 67.85 746.199 68.2333 747.466 69C748.733 69.7333 749.683 70.9 750.316 72.5C750.949 74.0667 751.266 76.05 751.266 78.45V93H742.366V78.8C742.366 77.8 742.249 77 742.016 76.4C741.783 75.7667 741.433 75.3167 740.966 75.05C740.533 74.7833 739.983 74.65 739.316 74.65C738.416 74.65 737.633 74.85 736.966 75.25C736.299 75.6167 735.783 76.15 735.416 76.85C735.083 77.55 734.916 78.3833 734.916 79.35V93H726.016ZM782.245 102C779.978 102 778.195 101.35 776.895 100.05C775.628 98.7833 774.995 97.0167 774.995 94.75V87.1C774.995 85.8 774.778 84.8667 774.345 84.3C773.945 83.7333 773.228 83.4 772.195 83.3L769.845 83.1V76.75L772.195 76.5C773.228 76.4 773.945 76.0667 774.345 75.5C774.778 74.9333 774.995 74 774.995 72.7V65C774.995 62.7 775.628 60.9167 776.895 59.65C778.195 58.3833 779.978 57.75 782.245 57.75H789.095V64.3H785.945C785.212 64.3 784.678 64.4667 784.345 64.8C784.045 65.1333 783.895 65.6833 783.895 66.45V73.8C783.895 74.8667 783.662 75.8833 783.195 76.85C782.728 77.7833 782.095 78.55 781.295 79.15C780.528 79.75 779.695 80.05 778.795 80.05V79.85C779.695 79.85 780.528 80.1333 781.295 80.7C782.095 81.2667 782.728 82.0333 783.195 83C783.662 83.9333 783.895 84.9333 783.895 86V93.3C783.895 94.0333 784.045 94.5667 784.345 94.9C784.678 95.2667 785.212 95.45 785.945 95.45H789.095V102H782.245ZM792.669 93V68.4H801.319V72.7H800.769C801.235 71.7 801.852 70.85 802.619 70.15C803.385 69.4167 804.285 68.85 805.319 68.45C806.385 68.05 807.552 67.85 808.819 67.85C810.619 67.85 812.152 68.2833 813.419 69.15C814.719 70.0167 815.652 71.3333 816.219 73.1H815.519C816.285 71.4667 817.435 70.1833 818.969 69.25C820.502 68.3167 822.202 67.85 824.069 67.85C826.002 67.85 827.585 68.2333 828.819 69C830.052 69.7333 830.969 70.9 831.569 72.5C832.202 74.0667 832.519 76.05 832.519 78.45V93H823.619V78.7C823.619 77.2667 823.402 76.2333 822.969 75.6C822.535 74.9667 821.819 74.65 820.819 74.65C820.019 74.65 819.319 74.85 818.719 75.25C818.152 75.6167 817.719 76.1833 817.419 76.95C817.152 77.6833 817.019 78.5833 817.019 79.65V93H808.119V78.7C808.119 77.2667 807.902 76.2333 807.469 75.6C807.035 74.9667 806.319 74.65 805.319 74.65C804.519 74.65 803.835 74.85 803.269 75.25C802.702 75.6167 802.269 76.1833 801.969 76.95C801.702 77.6833 801.569 78.5833 801.569 79.65V93H792.669ZM846.236 93.55C844.336 93.55 842.653 93.2 841.186 92.5C839.753 91.8 838.619 90.85 837.786 89.65C836.986 88.4167 836.586 87.0167 836.586 85.45C836.586 83.65 837.053 82.2333 837.986 81.2C838.919 80.1667 840.419 79.4333 842.486 79C844.553 78.5333 847.303 78.3 850.736 78.3H853.486V82.5H850.736C849.769 82.5 848.919 82.55 848.186 82.65C847.486 82.75 846.903 82.9167 846.436 83.15C845.969 83.35 845.619 83.6167 845.386 83.95C845.153 84.2833 845.036 84.6667 845.036 85.1C845.036 85.8667 845.303 86.5 845.836 87C846.403 87.5 847.203 87.75 848.236 87.75C849.069 87.75 849.803 87.5667 850.436 87.2C851.103 86.8333 851.636 86.3333 852.036 85.7C852.436 85.0333 852.636 84.2667 852.636 83.4V77.6C852.636 76.4 852.319 75.55 851.686 75.05C851.086 74.55 850.036 74.3 848.536 74.3C847.269 74.3 845.869 74.5 844.336 74.9C842.803 75.3 841.303 75.9167 839.836 76.75L837.586 70.9C838.453 70.3 839.519 69.7667 840.786 69.3C842.086 68.8333 843.453 68.4833 844.886 68.25C846.353 67.9833 847.703 67.85 848.936 67.85C851.669 67.85 853.919 68.25 855.686 69.05C857.486 69.8167 858.819 71.0167 859.686 72.65C860.586 74.25 861.036 76.3167 861.036 78.85V93H852.736V88.35H853.036C852.869 89.4167 852.486 90.3333 851.886 91.1C851.286 91.8667 850.503 92.4667 849.536 92.9C848.569 93.3333 847.469 93.55 846.236 93.55ZM862.354 93L874.404 78.35V82.3L863.004 68.4H873.354L879.404 76.2H876.304L882.354 68.4H892.654L881.254 82.3V78.35L893.404 93H883.004L876.304 84.5H879.354L872.654 93H862.354ZM894.339 83.05V76.1H910.339V83.05H894.339ZM922.324 93L911.974 68.4H920.974L926.974 84.1H925.924L931.824 68.4H937.374L943.274 84.1H942.374L948.274 68.4H956.724L946.474 93H939.124L932.374 76.25H936.024L929.674 93H922.324ZM958.432 64.15V56.1H967.782V64.15H958.432ZM958.682 93V68.4H967.582V93H958.682ZM982.345 93.55C980.245 93.55 978.378 93.0333 976.745 92C975.145 90.9667 973.878 89.4833 972.945 87.55C972.045 85.6167 971.595 83.3333 971.595 80.7C971.595 78 972.045 75.7 972.945 73.8C973.878 71.9 975.145 70.4333 976.745 69.4C978.378 68.3667 980.245 67.85 982.345 67.85C984.178 67.85 985.828 68.2833 987.295 69.15C988.761 70.0167 989.745 71.1333 990.245 72.5H989.695V57.75H998.595V93H989.895V88.55H990.345C989.878 90.05 988.895 91.2667 987.395 92.2C985.928 93.1 984.245 93.55 982.345 93.55ZM985.195 87C986.528 87 987.628 86.5 988.495 85.5C989.361 84.5 989.795 82.9 989.795 80.7C989.795 78.4667 989.361 76.8667 988.495 75.9C987.628 74.9 986.528 74.4 985.195 74.4C983.828 74.4 982.711 74.9 981.845 75.9C980.978 76.8667 980.545 78.4667 980.545 80.7C980.545 82.9 980.978 84.5 981.845 85.5C982.711 86.5 983.828 87 985.195 87ZM1016.65 93.55C1012.92 93.55 1010.15 92.6833 1008.35 90.95C1006.55 89.2167 1005.65 86.6 1005.65 83.1V74.95H1001.05V68.4H1005.65V61.25H1014.55V68.4H1021.55V74.95H1014.55V82.8C1014.55 84.0333 1014.83 84.95 1015.4 85.55C1016 86.1167 1016.93 86.4 1018.2 86.4C1018.6 86.4 1019.03 86.35 1019.5 86.25C1020 86.15 1020.55 86.0333 1021.15 85.9L1022.35 92.3C1021.58 92.7 1020.68 93 1019.65 93.2C1018.65 93.4333 1017.65 93.55 1016.65 93.55ZM1025.04 93V57.75H1033.94V72.7H1033.14C1033.94 71.1333 1035.07 69.9333 1036.54 69.1C1038.04 68.2667 1039.74 67.85 1041.64 67.85C1043.61 67.85 1045.22 68.2333 1046.49 69C1047.76 69.7333 1048.71 70.9 1049.34 72.5C1049.97 74.0667 1050.29 76.05 1050.29 78.45V93H1041.39V78.8C1041.39 77.8 1041.27 77 1041.04 76.4C1040.81 75.7667 1040.46 75.3167 1039.99 75.05C1039.56 74.7833 1039.01 74.65 1038.34 74.65C1037.44 74.65 1036.66 74.85 1035.99 75.25C1035.32 75.6167 1034.81 76.15 1034.44 76.85C1034.11 77.55 1033.94 78.3833 1033.94 79.35V93H1025.04ZM1054.91 77.5V68.4H1064.16V77.5H1054.91ZM1054.91 93V83.9H1064.16V93H1054.91ZM1085.19 93V85.55H1093.04V65.4H1097.24L1087.09 71.2L1083.74 64.55L1095.74 57.75H1102.19V85.55H1109.54V93H1085.19ZM1126.52 93V87.1H1112.22V80.65L1127.97 57.75H1135.37V80.15H1139.97V87.1H1135.37V93H1126.52ZM1126.52 80.15V68.65H1127.92L1118.72 82.3V80.15H1126.52ZM1155.65 93.55C1152.75 93.55 1150.3 92.8333 1148.3 91.4C1146.3 89.9667 1144.79 87.9 1143.75 85.2C1142.72 82.4667 1142.2 79.15 1142.2 75.25C1142.2 71.3167 1142.72 68.0167 1143.75 65.35C1144.79 62.65 1146.3 60.6167 1148.3 59.25C1150.3 57.8833 1152.75 57.2 1155.65 57.2C1158.55 57.2 1161 57.8833 1163 59.25C1165 60.6167 1166.52 62.65 1167.55 65.35C1168.59 68.0167 1169.1 71.3 1169.1 75.2C1169.1 79.1 1168.59 82.4167 1167.55 85.15C1166.52 87.8833 1165 89.9667 1163 91.4C1161 92.8333 1158.55 93.55 1155.65 93.55ZM1155.65 86.25C1157.25 86.25 1158.44 85.3833 1159.2 83.65C1160 81.8833 1160.4 79.0667 1160.4 75.2C1160.4 71.3667 1160 68.6333 1159.2 67C1158.44 65.3333 1157.25 64.5 1155.65 64.5C1154.05 64.5 1152.85 65.3333 1152.05 67C1151.29 68.6333 1150.9 71.3833 1150.9 75.25C1150.9 79.0833 1151.29 81.8833 1152.05 83.65C1152.85 85.3833 1154.05 86.25 1155.65 86.25ZM1185.63 93.55C1182.73 93.55 1180.28 92.8333 1178.28 91.4C1176.28 89.9667 1174.77 87.9 1173.73 85.2C1172.7 82.4667 1172.18 79.15 1172.18 75.25C1172.18 71.3167 1172.7 68.0167 1173.73 65.35C1174.77 62.65 1176.28 60.6167 1178.28 59.25C1180.28 57.8833 1182.73 57.2 1185.63 57.2C1188.53 57.2 1190.98 57.8833 1192.98 59.25C1194.98 60.6167 1196.5 62.65 1197.53 65.35C1198.57 68.0167 1199.08 71.3 1199.08 75.2C1199.08 79.1 1198.57 82.4167 1197.53 85.15C1196.5 87.8833 1194.98 89.9667 1192.98 91.4C1190.98 92.8333 1188.53 93.55 1185.63 93.55ZM1185.63 86.25C1187.23 86.25 1188.42 85.3833 1189.18 83.65C1189.98 81.8833 1190.38 79.0667 1190.38 75.2C1190.38 71.3667 1189.98 68.6333 1189.18 67C1188.42 65.3333 1187.23 64.5 1185.63 64.5C1184.03 64.5 1182.83 65.3333 1182.03 67C1181.27 68.6333 1180.88 71.3833 1180.88 75.25C1180.88 79.0833 1181.27 81.8833 1182.03 83.65C1182.83 85.3833 1184.03 86.25 1185.63 86.25ZM1203.21 102V68.4H1211.86V72.85H1211.41C1211.88 71.35 1212.85 70.15 1214.31 69.25C1215.81 68.3167 1217.51 67.85 1219.41 67.85C1221.55 67.85 1223.41 68.3667 1225.01 69.4C1226.65 70.4333 1227.91 71.9 1228.81 73.8C1229.71 75.7 1230.16 78 1230.16 80.7C1230.16 83.3333 1229.71 85.6167 1228.81 87.55C1227.91 89.4833 1226.65 90.9667 1225.01 92C1223.41 93.0333 1221.55 93.55 1219.41 93.55C1217.58 93.55 1215.93 93.1167 1214.46 92.25C1213 91.3833 1212.01 90.25 1211.51 88.85H1212.11V102H1203.21ZM1216.61 87C1217.95 87 1219.05 86.5 1219.91 85.5C1220.78 84.5 1221.21 82.9 1221.21 80.7C1221.21 78.4667 1220.78 76.8667 1219.91 75.9C1219.05 74.9 1217.95 74.4 1216.61 74.4C1215.25 74.4 1214.13 74.9 1213.26 75.9C1212.4 76.8667 1211.96 78.4667 1211.96 80.7C1211.96 82.9 1212.4 84.5 1213.26 85.5C1214.13 86.5 1215.25 87 1216.61 87ZM1229.79 93L1241.84 78.35V82.3L1230.44 68.4H1240.79L1246.84 76.2H1243.74L1249.79 68.4H1260.09L1248.69 82.3V78.35L1260.84 93H1250.44L1243.74 84.5H1246.79L1240.09 93H1229.79ZM1265.9 100.75L1262.55 98.1C1263.42 97.2333 1264.12 96.4167 1264.65 95.65C1265.18 94.8833 1265.57 94.1 1265.8 93.3C1266.03 92.5333 1266.15 91.7167 1266.15 90.85L1268.15 93H1261.7V83.9H1270.95V89.65C1270.95 91.0167 1270.78 92.3167 1270.45 93.55C1270.15 94.7833 1269.63 95.9833 1268.9 97.15C1268.17 98.3167 1267.17 99.5167 1265.9 100.75ZM1261.7 77.5V68.4H1270.95V77.5H1261.7ZM1274.02 102V95.45H1277.17C1277.87 95.45 1278.37 95.2667 1278.67 94.9C1279.01 94.5667 1279.17 94.0333 1279.17 93.3V86C1279.17 84.9333 1279.41 83.9333 1279.87 83C1280.37 82.0333 1281.01 81.2667 1281.77 80.7C1282.57 80.1333 1283.42 79.85 1284.32 79.85V80.05C1283.42 80.05 1282.57 79.75 1281.77 79.15C1281.01 78.55 1280.37 77.7833 1279.87 76.85C1279.41 75.8833 1279.17 74.8667 1279.17 73.8V66.45C1279.17 65.6833 1279.01 65.1333 1278.67 64.8C1278.37 64.4667 1277.87 64.3 1277.17 64.3H1274.02V57.75H1280.82C1283.09 57.75 1284.86 58.3833 1286.12 59.65C1287.42 60.9167 1288.07 62.7 1288.07 65V72.7C1288.07 74 1288.29 74.9333 1288.72 75.5C1289.16 76.0667 1289.89 76.4 1290.92 76.5L1293.22 76.75V83.1L1290.92 83.3C1289.89 83.4 1289.16 83.7333 1288.72 84.3C1288.29 84.8667 1288.07 85.8 1288.07 87.1V94.75C1288.07 97.05 1287.42 98.8333 1286.12 100.1C1284.86 101.367 1283.09 102 1280.82 102H1274.02Z" fill="#5A5A5A"/>
<rect x="250" y="205" width="264.133" height="924" fill="#D9D9D9"/>
<path d="M316.274 275.5L291.874 265.95V259.3L316.274 249.75V256.3L294.074 264.85V260.5L316.274 269V275.5ZM330.204 277.55C328.304 277.55 326.621 277.2 325.154 276.5C323.721 275.8 322.587 274.85 321.754 273.65C320.954 272.417 320.554 271.017 320.554 269.45C320.554 267.65 321.021 266.233 321.954 265.2C322.887 264.167 324.387 263.433 326.454 263C328.521 262.533 331.271 262.3 334.704 262.3H337.454V266.5H334.704C333.737 266.5 332.887 266.55 332.154 266.65C331.454 266.75 330.871 266.917 330.404 267.15C329.937 267.35 329.587 267.617 329.354 267.95C329.121 268.283 329.004 268.667 329.004 269.1C329.004 269.867 329.271 270.5 329.804 271C330.371 271.5 331.171 271.75 332.204 271.75C333.037 271.75 333.771 271.567 334.404 271.2C335.071 270.833 335.604 270.333 336.004 269.7C336.404 269.033 336.604 268.267 336.604 267.4V261.6C336.604 260.4 336.287 259.55 335.654 259.05C335.054 258.55 334.004 258.3 332.504 258.3C331.237 258.3 329.837 258.5 328.304 258.9C326.771 259.3 325.271 259.917 323.804 260.75L321.554 254.9C322.421 254.3 323.487 253.767 324.754 253.3C326.054 252.833 327.421 252.483 328.854 252.25C330.321 251.983 331.671 251.85 332.904 251.85C335.637 251.85 337.887 252.25 339.654 253.05C341.454 253.817 342.787 255.017 343.654 256.65C344.554 258.25 345.004 260.317 345.004 262.85V277H336.704V272.35H337.004C336.837 273.417 336.454 274.333 335.854 275.1C335.254 275.867 334.471 276.467 333.504 276.9C332.537 277.333 331.437 277.55 330.204 277.55ZM359.872 277.55C358.372 277.55 356.922 277.45 355.522 277.25C354.155 277.05 352.905 276.75 351.772 276.35C350.639 275.95 349.622 275.467 348.722 274.9L350.772 269.15C351.605 269.617 352.522 270.033 353.522 270.4C354.555 270.767 355.622 271.05 356.722 271.25C357.822 271.45 358.889 271.55 359.922 271.55C361.155 271.55 362.039 271.383 362.572 271.05C363.105 270.683 363.372 270.217 363.372 269.65C363.372 269.15 363.189 268.767 362.822 268.5C362.489 268.233 362.005 268.05 361.372 267.95L355.822 267.05C353.755 266.683 352.155 265.933 351.022 264.8C349.889 263.633 349.322 262.117 349.322 260.25C349.322 258.517 349.805 257.033 350.772 255.8C351.772 254.533 353.122 253.567 354.822 252.9C356.555 252.2 358.539 251.85 360.772 251.85C361.972 251.85 363.155 251.95 364.322 252.15C365.489 252.317 366.605 252.6 367.672 253C368.739 253.367 369.705 253.867 370.572 254.5L368.372 260.15C367.739 259.683 366.989 259.283 366.122 258.95C365.255 258.617 364.355 258.35 363.422 258.15C362.522 257.917 361.689 257.8 360.922 257.8C359.555 257.8 358.589 257.983 358.022 258.35C357.455 258.717 357.172 259.183 357.172 259.75C357.172 260.183 357.322 260.55 357.622 260.85C357.922 261.117 358.389 261.3 359.022 261.4L364.572 262.35C366.705 262.683 368.339 263.417 369.472 264.55C370.639 265.65 371.222 267.15 371.222 269.05C371.222 270.85 370.755 272.383 369.822 273.65C368.889 274.917 367.572 275.883 365.872 276.55C364.172 277.217 362.172 277.55 359.872 277.55ZM374.627 248.15V240.1H383.977V248.15H374.627ZM374.877 277V252.4H383.777V277H374.877ZM398.539 277.55C396.439 277.55 394.572 277.033 392.939 276C391.339 274.967 390.072 273.483 389.139 271.55C388.239 269.617 387.789 267.333 387.789 264.7C387.789 262 388.239 259.7 389.139 257.8C390.072 255.9 391.339 254.433 392.939 253.4C394.572 252.367 396.439 251.85 398.539 251.85C400.372 251.85 402.022 252.283 403.489 253.15C404.956 254.017 405.939 255.133 406.439 256.5H405.889V241.75H414.789V277H406.089V272.55H406.539C406.072 274.05 405.089 275.267 403.589 276.2C402.122 277.1 400.439 277.55 398.539 277.55ZM401.389 271C402.722 271 403.822 270.5 404.689 269.5C405.556 268.5 405.989 266.9 405.989 264.7C405.989 262.467 405.556 260.867 404.689 259.9C403.822 258.9 402.722 258.4 401.389 258.4C400.022 258.4 398.906 258.9 398.039 259.9C397.172 260.867 396.739 262.467 396.739 264.7C396.739 266.9 397.172 268.5 398.039 269.5C398.906 270.5 400.022 271 401.389 271ZM433.345 277.55C430.345 277.55 427.745 277.033 425.545 276C423.378 274.933 421.712 273.433 420.545 271.5C419.378 269.567 418.795 267.283 418.795 264.65C418.795 262.117 419.345 259.9 420.445 258C421.578 256.067 423.112 254.567 425.045 253.5C427.012 252.4 429.245 251.85 431.745 251.85C434.245 251.85 436.395 252.367 438.195 253.4C439.995 254.433 441.378 255.917 442.345 257.85C443.345 259.75 443.845 261.983 443.845 264.55V266.5H426.245V262.3H437.345L436.545 262.95C436.545 261.15 436.162 259.817 435.395 258.95C434.628 258.05 433.545 257.6 432.145 257.6C431.112 257.6 430.212 257.85 429.445 258.35C428.712 258.817 428.145 259.517 427.745 260.45C427.345 261.383 427.145 262.55 427.145 263.95V264.4C427.145 265.967 427.362 267.233 427.795 268.2C428.262 269.167 428.978 269.883 429.945 270.35C430.912 270.783 432.128 271 433.595 271C434.862 271 436.178 270.817 437.545 270.45C438.945 270.05 440.178 269.483 441.245 268.75L443.445 274.6C442.178 275.5 440.628 276.217 438.795 276.75C436.962 277.283 435.145 277.55 433.345 277.55ZM447.879 275.5V269L470.129 260.5V264.85L447.879 256.3V249.75L472.279 259.3V265.95L447.879 275.5Z" fill="#5A5A5A"/>
<rect x="514.133" y="205" width="1135.87" height="924" fill="white"/>
<path d="M543.753 257V242.24H548.943V244.82H548.613C548.893 244.22 549.263 243.71 549.723 243.29C550.183 242.85 550.723 242.51 551.343 242.27C551.983 242.03 552.683 241.91 553.443 241.91C554.523 241.91 555.443 242.17 556.203 242.69C556.983 243.21 557.543 244 557.883 245.06H557.463C557.923 244.08 558.613 243.31 559.533 242.75C560.453 242.19 561.473 241.91 562.593 241.91C563.753 241.91 564.703 242.14 565.443 242.6C566.183 243.04 566.733 243.74 567.093 244.7C567.473 245.64 567.663 246.83 567.663 248.27V257H562.323V248.42C562.323 247.56 562.193 246.94 561.933 246.56C561.673 246.18 561.243 245.99 560.643 245.99C560.163 245.99 559.743 246.11 559.383 246.35C559.043 246.57 558.783 246.91 558.603 247.37C558.443 247.81 558.363 248.35 558.363 248.99V257H553.023V248.42C553.023 247.56 552.893 246.94 552.633 246.56C552.373 246.18 551.943 245.99 551.343 245.99C550.863 245.99 550.453 246.11 550.113 246.35C549.773 246.57 549.513 246.91 549.333 247.37C549.173 247.81 549.093 248.35 549.093 248.99V257H543.753ZM575.894 257.33C574.754 257.33 573.744 257.12 572.864 256.7C572.004 256.28 571.324 255.71 570.824 254.99C570.344 254.25 570.104 253.41 570.104 252.47C570.104 251.39 570.384 250.54 570.944 249.92C571.504 249.3 572.404 248.86 573.644 248.6C574.884 248.32 576.534 248.18 578.594 248.18H580.244V250.7H578.594C578.014 250.7 577.504 250.73 577.064 250.79C576.644 250.85 576.294 250.95 576.014 251.09C575.734 251.21 575.524 251.37 575.384 251.57C575.244 251.77 575.174 252 575.174 252.26C575.174 252.72 575.334 253.1 575.654 253.4C575.994 253.7 576.474 253.85 577.094 253.85C577.594 253.85 578.034 253.74 578.414 253.52C578.814 253.3 579.134 253 579.374 252.62C579.614 252.22 579.734 251.76 579.734 251.24V247.76C579.734 247.04 579.544 246.53 579.164 246.23C578.804 245.93 578.174 245.78 577.274 245.78C576.514 245.78 575.674 245.9 574.754 246.14C573.834 246.38 572.934 246.75 572.054 247.25L570.704 243.74C571.224 243.38 571.864 243.06 572.624 242.78C573.404 242.5 574.224 242.29 575.084 242.15C575.964 241.99 576.774 241.91 577.514 241.91C579.154 241.91 580.504 242.15 581.564 242.63C582.644 243.09 583.444 243.81 583.964 244.79C584.504 245.75 584.774 246.99 584.774 248.51V257H579.794V254.21H579.974C579.874 254.85 579.644 255.4 579.284 255.86C578.924 256.32 578.454 256.68 577.874 256.94C577.294 257.2 576.634 257.33 575.894 257.33ZM587.814 257V242.24H593.004V245.87H592.704C592.904 244.67 593.404 243.74 594.204 243.08C595.024 242.4 596.094 242.02 597.414 241.94L598.884 241.82L599.184 246.32L596.274 246.59C595.214 246.69 594.444 246.99 593.964 247.49C593.484 247.97 593.244 248.69 593.244 249.65V257H587.814ZM607.879 262.73C606.399 262.73 605.009 262.59 603.709 262.31C602.429 262.03 601.329 261.57 600.409 260.93L601.789 257.33C602.309 257.63 602.889 257.89 603.529 258.11C604.189 258.35 604.849 258.52 605.509 258.62C606.169 258.74 606.789 258.8 607.369 258.8C608.589 258.8 609.499 258.54 610.099 258.02C610.719 257.52 611.029 256.73 611.029 255.65V253.76H611.269C610.969 254.6 610.359 255.29 609.439 255.83C608.519 256.35 607.519 256.61 606.439 256.61C605.119 256.61 603.969 256.31 602.989 255.71C602.009 255.09 601.239 254.23 600.679 253.13C600.139 252.03 599.869 250.74 599.869 249.26C599.869 247.78 600.139 246.49 600.679 245.39C601.239 244.29 602.009 243.44 602.989 242.84C603.969 242.22 605.119 241.91 606.439 241.91C607.559 241.91 608.559 242.17 609.439 242.69C610.339 243.21 610.939 243.89 611.239 244.73H610.999V242.24H616.219V255.02C616.219 256.74 615.899 258.17 615.259 259.31C614.619 260.45 613.679 261.3 612.439 261.86C611.199 262.44 609.679 262.73 607.879 262.73ZM608.089 252.68C608.969 252.68 609.669 252.38 610.189 251.78C610.709 251.18 610.969 250.34 610.969 249.26C610.969 248.18 610.709 247.34 610.189 246.74C609.669 246.14 608.969 245.84 608.089 245.84C607.229 245.84 606.539 246.14 606.019 246.74C605.499 247.34 605.239 248.18 605.239 249.26C605.239 250.34 605.499 251.18 606.019 251.78C606.539 252.38 607.229 252.68 608.089 252.68ZM619.188 239.69V234.86H624.798V239.69H619.188ZM619.338 257V242.24H624.678V257H619.338ZM627.775 257V242.24H632.965V244.82H632.635C633.115 243.88 633.795 243.16 634.675 242.66C635.575 242.16 636.595 241.91 637.735 241.91C638.915 241.91 639.885 242.14 640.645 242.6C641.405 243.04 641.975 243.74 642.355 244.7C642.735 245.64 642.925 246.83 642.925 248.27V257H637.585V248.48C637.585 247.88 637.515 247.4 637.375 247.04C637.235 246.66 637.025 246.39 636.745 246.23C636.485 246.07 636.155 245.99 635.755 245.99C635.215 245.99 634.745 246.11 634.345 246.35C633.945 246.57 633.635 246.89 633.415 247.31C633.215 247.73 633.115 248.23 633.115 248.81V257H627.775ZM645.699 247.7V242.24H651.249V247.7H645.699ZM645.699 257V251.54H651.249V257H645.699ZM544.833 298V293.53H549.543V281.44H552.063L545.973 284.92L543.963 280.93L551.163 276.85H555.033V293.53H559.443V298H544.833ZM568.972 298.33C568.032 298.33 567.092 298.23 566.152 298.03C565.232 297.85 564.372 297.59 563.572 297.25C562.772 296.91 562.102 296.52 561.562 296.08L563.242 291.97C564.122 292.57 565.032 293.03 565.972 293.35C566.932 293.65 567.892 293.8 568.852 293.8C569.872 293.8 570.662 293.58 571.222 293.14C571.782 292.7 572.062 292.08 572.062 291.28C572.062 290.48 571.792 289.85 571.252 289.39C570.712 288.93 569.992 288.7 569.092 288.7C568.412 288.7 567.782 288.82 567.202 289.06C566.642 289.28 566.112 289.62 565.612 290.08H562.162V276.85H575.962V281.32H567.352V286.03H566.092C566.572 285.47 567.192 285.05 567.952 284.77C568.732 284.47 569.592 284.32 570.532 284.32C571.872 284.32 573.052 284.61 574.072 285.19C575.092 285.75 575.882 286.54 576.442 287.56C577.022 288.58 577.312 289.77 577.312 291.13C577.312 292.57 576.972 293.84 576.292 294.94C575.632 296.02 574.672 296.86 573.412 297.46C572.172 298.04 570.692 298.33 568.972 298.33ZM579.67 303.4V283.24H584.86V285.91H584.59C584.87 285.01 585.45 284.29 586.33 283.75C587.23 283.19 588.25 282.91 589.39 282.91C590.67 282.91 591.79 283.22 592.75 283.84C593.73 284.46 594.49 285.34 595.03 286.48C595.57 287.62 595.84 289 595.84 290.62C595.84 292.2 595.57 293.57 595.03 294.73C594.49 295.89 593.73 296.78 592.75 297.4C591.79 298.02 590.67 298.33 589.39 298.33C588.29 298.33 587.3 298.07 586.42 297.55C585.54 297.03 584.95 296.35 584.65 295.51H585.01V303.4H579.67ZM587.71 294.4C588.51 294.4 589.17 294.1 589.69 293.5C590.21 292.9 590.47 291.94 590.47 290.62C590.47 289.28 590.21 288.32 589.69 287.74C589.17 287.14 588.51 286.84 587.71 286.84C586.89 286.84 586.22 287.14 585.7 287.74C585.18 288.32 584.92 289.28 584.92 290.62C584.92 291.94 585.18 292.9 585.7 293.5C586.22 294.1 586.89 294.4 587.71 294.4ZM595.613 298L602.843 289.21V291.58L596.003 283.24H602.213L605.843 287.92H603.983L607.613 283.24H613.793L606.953 291.58V289.21L614.243 298H608.003L603.983 292.9H605.813L601.793 298H595.613Z" fill="#5A5A5A"/>
<path d="M938.193 275.5L913.793 265.95V259.3L938.193 249.75V256.3L915.993 264.85V260.5L938.193 269V275.5ZM943.673 277V252.4H952.323V256.7H951.773C952.24 255.7 952.857 254.85 953.623 254.15C954.39 253.417 955.29 252.85 956.323 252.45C957.39 252.05 958.557 251.85 959.823 251.85C961.623 251.85 963.157 252.283 964.423 253.15C965.723 254.017 966.657 255.333 967.223 257.1H966.523C967.29 255.467 968.44 254.183 969.973 253.25C971.507 252.317 973.207 251.85 975.073 251.85C977.007 251.85 978.59 252.233 979.823 253C981.057 253.733 981.973 254.9 982.573 256.5C983.207 258.067 983.523 260.05 983.523 262.45V277H974.623V262.7C974.623 261.267 974.407 260.233 973.973 259.6C973.54 258.967 972.823 258.65 971.823 258.65C971.023 258.65 970.323 258.85 969.723 259.25C969.157 259.617 968.723 260.183 968.423 260.95C968.157 261.683 968.023 262.583 968.023 263.65V277H959.123V262.7C959.123 261.267 958.907 260.233 958.473 259.6C958.04 258.967 957.323 258.65 956.323 258.65C955.523 258.65 954.84 258.85 954.273 259.25C953.707 259.617 953.273 260.183 952.973 260.95C952.707 261.683 952.573 262.583 952.573 263.65V277H943.673ZM997.241 277.55C995.341 277.55 993.657 277.2 992.191 276.5C990.757 275.8 989.624 274.85 988.791 273.65C987.991 272.417 987.591 271.017 987.591 269.45C987.591 267.65 988.057 266.233 988.991 265.2C989.924 264.167 991.424 263.433 993.491 263C995.557 262.533 998.307 262.3 1001.74 262.3H1004.49V266.5H1001.74C1000.77 266.5 999.924 266.55 999.191 266.65C998.491 266.75 997.907 266.917 997.441 267.15C996.974 267.35 996.624 267.617 996.391 267.95C996.157 268.283 996.041 268.667 996.041 269.1C996.041 269.867 996.307 270.5 996.841 271C997.407 271.5 998.207 271.75 999.241 271.75C1000.07 271.75 1000.81 271.567 1001.44 271.2C1002.11 270.833 1002.64 270.333 1003.04 269.7C1003.44 269.033 1003.64 268.267 1003.64 267.4V261.6C1003.64 260.4 1003.32 259.55 1002.69 259.05C1002.09 258.55 1001.04 258.3 999.541 258.3C998.274 258.3 996.874 258.5 995.341 258.9C993.807 259.3 992.307 259.917 990.841 260.75L988.591 254.9C989.457 254.3 990.524 253.767 991.791 253.3C993.091 252.833 994.457 252.483 995.891 252.25C997.357 251.983 998.707 251.85 999.941 251.85C1002.67 251.85 1004.92 252.25 1006.69 253.05C1008.49 253.817 1009.82 255.017 1010.69 256.65C1011.59 258.25 1012.04 260.317 1012.04 262.85V277H1003.74V272.35H1004.04C1003.87 273.417 1003.49 274.333 1002.89 275.1C1002.29 275.867 1001.51 276.467 1000.54 276.9C999.574 277.333 998.474 277.55 997.241 277.55ZM1016.86 248.15V240.1H1026.21V248.15H1016.86ZM1017.11 277V252.4H1026.01V277H1017.11ZM1031.17 277V252.4H1039.82V256.7H1039.27C1040.07 255.133 1041.2 253.933 1042.67 253.1C1044.17 252.267 1045.87 251.85 1047.77 251.85C1049.74 251.85 1051.35 252.233 1052.62 253C1053.89 253.733 1054.84 254.9 1055.47 256.5C1056.1 258.067 1056.42 260.05 1056.42 262.45V277H1047.52V262.8C1047.52 261.8 1047.4 261 1047.17 260.4C1046.94 259.767 1046.59 259.317 1046.12 259.05C1045.69 258.783 1045.14 258.65 1044.47 258.65C1043.57 258.65 1042.79 258.85 1042.12 259.25C1041.45 259.617 1040.94 260.15 1040.57 260.85C1040.24 261.55 1040.07 262.383 1040.07 263.35V277H1031.17ZM1061.69 275.5V269L1083.94 260.5V264.85L1061.69 256.3V249.75L1086.09 259.3V265.95L1061.69 275.5Z" fill="#5A5A5A"/>
<rect x="250" y="205" width="1400" height="15" fill="#FFF2AF"/>
<mask id="path-11-inside-1_163_995" fill="white">
<path d="M500.133 205H514.133V1144H500.133V205Z"/>
</mask>
<path d="M500.133 205H514.133V1144H500.133V205Z" fill="#FFF2AF"/>
<path d="M514.133 205H513.133V1144H514.133H515.133V205H514.133Z" fill="black" mask="url(#path-11-inside-1_163_995)"/>
<path d="M250 205H264V1144H250V205Z" fill="#FFF2AF"/>
<rect x="514.133" y="220" width="14" height="924" fill="#FFF2AF"/>
<rect x="1636" y="220" width="14" height="924" fill="#FFF2AF"/>
<line x1="251" y1="7" x2="251" y2="57" stroke="black" stroke-width="2"/>
<line x1="1649.13" y1="7" x2="1649.13" y2="57" stroke="black" stroke-width="2"/>
<line x1="250" y1="31" x2="1650" y2="31.0001" stroke="black" stroke-width="2"/>
</g>
<rect x="0.5" y="0.5" width="1899" height="1079" stroke="black"/>
<defs>
<clipPath id="clip0_163_995">
<rect width="1900" height="1080" fill="white"/>
</clipPath>
</defs>
</svg>
