<svg width="158" height="192" viewBox="0 0 158 192" fill="none" xmlns="http://www.w3.org/2000/svg">
<path d="M8.464 21L4.544 9.72H5.568L9.2 20.296H8.688L12.352 9.72H13.184L16.832 20.296H16.352L20 9.72H20.992L17.072 21H16.144L12.608 10.744H12.928L9.36 21H8.464ZM25.281 21.128C24.481 21.128 23.793 20.968 23.217 20.648C22.641 20.328 22.1983 19.8693 21.889 19.272C21.5797 18.6747 21.425 17.9653 21.425 17.144C21.425 16.3333 21.5797 15.6293 21.889 15.032C22.1983 14.424 22.625 13.9493 23.169 13.608C23.7237 13.2667 24.3583 13.096 25.073 13.096C25.7663 13.096 26.353 13.2507 26.833 13.56C27.3237 13.8587 27.697 14.2907 27.953 14.856C28.2197 15.4107 28.353 16.0827 28.353 16.872V17.32H22.129V16.6H27.745L27.489 16.808C27.489 15.8907 27.2863 15.176 26.881 14.664C26.4757 14.1413 25.8783 13.88 25.089 13.88C24.5023 13.88 24.0063 14.0187 23.601 14.296C23.1957 14.5627 22.8917 14.936 22.689 15.416C22.4863 15.8853 22.385 16.4293 22.385 17.048V17.128C22.385 17.8107 22.4917 18.392 22.705 18.872C22.929 19.3413 23.2597 19.6987 23.697 19.944C24.1343 20.1893 24.6517 20.312 25.249 20.312C25.729 20.312 26.177 20.2373 26.593 20.088C27.0197 19.9387 27.4357 19.688 27.841 19.336L28.225 20.072C27.8837 20.392 27.4463 20.648 26.913 20.84C26.3797 21.032 25.8357 21.128 25.281 21.128ZM32.5985 21.128C31.8732 21.128 31.3132 20.904 30.9185 20.456C30.5345 20.008 30.3425 19.3733 30.3425 18.552V9.72H31.3185V18.44C31.3185 18.8453 31.3718 19.1867 31.4785 19.464C31.5958 19.7307 31.7612 19.9333 31.9745 20.072C32.1878 20.2107 32.4492 20.28 32.7585 20.28C32.8972 20.28 33.0252 20.2747 33.1425 20.264C33.2705 20.2427 33.3878 20.216 33.4945 20.184L33.4625 21.032C33.3025 21.064 33.1532 21.0853 33.0145 21.096C32.8758 21.1173 32.7372 21.128 32.5985 21.128ZM37.9949 21.128C37.2375 21.128 36.5869 20.9627 36.0429 20.632C35.4989 20.2907 35.0775 19.816 34.7789 19.208C34.4909 18.5893 34.3469 17.8747 34.3469 17.064C34.3469 16.2427 34.4909 15.5387 34.7789 14.952C35.0775 14.3653 35.4989 13.912 36.0429 13.592C36.5869 13.2613 37.2375 13.096 37.9949 13.096C38.4749 13.096 38.9389 13.1867 39.3869 13.368C39.8455 13.5493 40.2295 13.8 40.5389 14.12L40.1549 14.856C39.8242 14.536 39.4722 14.3067 39.0989 14.168C38.7255 14.0187 38.3682 13.944 38.0269 13.944C37.1629 13.944 36.4962 14.216 36.0269 14.76C35.5682 15.2933 35.3389 16.0667 35.3389 17.08C35.3389 18.0827 35.5682 18.872 36.0269 19.448C36.4962 20.0133 37.1629 20.296 38.0269 20.296C38.3682 20.296 38.7255 20.2267 39.0989 20.088C39.4722 19.9387 39.8242 19.704 40.1549 19.384L40.5389 20.12C40.2295 20.4293 39.8402 20.6747 39.3709 20.856C38.9122 21.0373 38.4535 21.128 37.9949 21.128ZM45.1024 21.128C44.377 21.128 43.7477 20.9627 43.2144 20.632C42.681 20.3013 42.265 19.8373 41.9664 19.24C41.6784 18.6427 41.5344 17.9333 41.5344 17.112C41.5344 16.3013 41.6784 15.5973 41.9664 15C42.265 14.392 42.681 13.9227 43.2144 13.592C43.7477 13.2613 44.377 13.096 45.1024 13.096C45.8384 13.096 46.473 13.2613 47.0064 13.592C47.5397 13.9227 47.9504 14.392 48.2384 15C48.537 15.5973 48.6864 16.3013 48.6864 17.112C48.6864 17.9333 48.537 18.6427 48.2384 19.24C47.9504 19.8373 47.5397 20.3013 47.0064 20.632C46.473 20.9627 45.8384 21.128 45.1024 21.128ZM45.1024 20.312C45.9024 20.312 46.5317 20.0347 46.9904 19.48C47.4597 18.9253 47.6944 18.136 47.6944 17.112C47.6944 16.0987 47.4597 15.3147 46.9904 14.76C46.5317 14.2053 45.9024 13.928 45.1024 13.928C44.3237 13.928 43.6997 14.2053 43.2304 14.76C42.761 15.3147 42.5264 16.0987 42.5264 17.112C42.5264 18.136 42.761 18.9253 43.2304 19.48C43.6997 20.0347 44.3237 20.312 45.1024 20.312ZM50.7964 21V13.24H51.7564V15.048H51.5804C51.7084 14.632 51.895 14.28 52.1404 13.992C52.3964 13.704 52.7004 13.4853 53.0524 13.336C53.4044 13.176 53.7884 13.096 54.2044 13.096C54.887 13.096 55.431 13.2613 55.8364 13.592C56.2524 13.9227 56.5244 14.4187 56.6524 15.08H56.4124C56.5937 14.4827 56.9297 14.0027 57.4204 13.64C57.9217 13.2773 58.5084 13.096 59.1804 13.096C59.7564 13.096 60.231 13.208 60.6044 13.432C60.9884 13.656 61.2764 13.992 61.4684 14.44C61.6604 14.8773 61.7564 15.432 61.7564 16.104V21H60.7804V16.184C60.7804 15.4053 60.6417 14.84 60.3644 14.488C60.0977 14.1253 59.6444 13.944 59.0044 13.944C58.5564 13.944 58.1617 14.0507 57.8204 14.264C57.479 14.4773 57.2177 14.7813 57.0364 15.176C56.855 15.5707 56.7644 16.04 56.7644 16.584V21H55.7884V16.184C55.7884 15.4053 55.6497 14.84 55.3724 14.488C55.1057 14.1253 54.6577 13.944 54.0284 13.944C53.5697 13.944 53.1697 14.0507 52.8284 14.264C52.4977 14.4773 52.2364 14.7813 52.0444 15.176C51.863 15.5707 51.7724 16.04 51.7724 16.584V21H50.7964ZM67.6873 21.128C66.8873 21.128 66.1993 20.968 65.6233 20.648C65.0473 20.328 64.6046 19.8693 64.2953 19.272C63.9859 18.6747 63.8313 17.9653 63.8313 17.144C63.8313 16.3333 63.9859 15.6293 64.2953 15.032C64.6046 14.424 65.0313 13.9493 65.5753 13.608C66.1299 13.2667 66.7646 13.096 67.4793 13.096C68.1726 13.096 68.7593 13.2507 69.2393 13.56C69.7299 13.8587 70.1033 14.2907 70.3593 14.856C70.6259 15.4107 70.7593 16.0827 70.7593 16.872V17.32H64.5353V16.6H70.1513L69.8953 16.808C69.8953 15.8907 69.6926 15.176 69.2873 14.664C68.8819 14.1413 68.2846 13.88 67.4953 13.88C66.9086 13.88 66.4126 14.0187 66.0073 14.296C65.6019 14.5627 65.2979 14.936 65.0953 15.416C64.8926 15.8853 64.7913 16.4293 64.7913 17.048V17.128C64.7913 17.8107 64.8979 18.392 65.1113 18.872C65.3353 19.3413 65.6659 19.6987 66.1033 19.944C66.5406 20.1893 67.0579 20.312 67.6553 20.312C68.1353 20.312 68.5833 20.2373 68.9993 20.088C69.4259 19.9387 69.8419 19.688 70.2473 19.336L70.6313 20.072C70.2899 20.392 69.8526 20.648 69.3193 20.84C68.7859 21.032 68.2419 21.128 67.6873 21.128ZM12.5823 53L17.6063 41.72H18.9823L24.0223 53H22.3263L20.9503 49.8L21.7023 50.248H14.8863L15.6223 49.8L14.2623 53H12.5823ZM18.2783 43.56L15.8623 49.288L15.4623 48.904H21.1103L20.7423 49.288L18.3103 43.56H18.2783ZM28.6854 53.144C27.8854 53.144 27.192 52.9787 26.6054 52.648C26.0294 52.3067 25.5814 51.832 25.2614 51.224C24.9414 50.6053 24.7814 49.88 24.7814 49.048C24.7814 48.2267 24.9414 47.5173 25.2614 46.92C25.5814 46.3227 26.0294 45.864 26.6054 45.544C27.192 45.2133 27.8854 45.048 28.6854 45.048C29.176 45.048 29.6614 45.1333 30.1414 45.304C30.6214 45.464 31.016 45.6987 31.3254 46.008L30.8134 47.144C30.5254 46.8667 30.2 46.664 29.8374 46.536C29.4747 46.3973 29.1334 46.328 28.8134 46.328C28.056 46.328 27.4694 46.568 27.0534 47.048C26.648 47.5173 26.4454 48.1893 26.4454 49.064C26.4454 49.9387 26.648 50.6267 27.0534 51.128C27.4694 51.6187 28.056 51.864 28.8134 51.864C29.1334 51.864 29.4747 51.8 29.8374 51.672C30.2 51.5333 30.5254 51.3253 30.8134 51.048L31.3254 52.2C31.016 52.488 30.616 52.7173 30.1254 52.888C29.6454 53.0587 29.1654 53.144 28.6854 53.144ZM36.0578 53.144C35.0871 53.144 34.3564 52.8933 33.8658 52.392C33.3858 51.8907 33.1458 51.1653 33.1458 50.216V46.44H31.6258V45.192H33.1458V42.84H34.7618V45.192H37.1778V46.44H34.7618V50.088C34.7618 50.6533 34.8791 51.08 35.1138 51.368C35.3591 51.656 35.7538 51.8 36.2977 51.8C36.4578 51.8 36.6178 51.7787 36.7778 51.736C36.9484 51.6933 37.1138 51.6507 37.2738 51.608L37.5298 52.824C37.3698 52.92 37.1458 52.9947 36.8578 53.048C36.5804 53.112 36.3138 53.144 36.0578 53.144ZM38.4295 43.384V41.704H40.3175V43.384H38.4295ZM38.5735 53V45.192H40.1895V53H38.5735ZM44.7521 53L41.3921 45.192H43.1361L45.7441 51.672H45.2961L47.9681 45.192H49.6161L46.2081 53H44.7521ZM50.6326 43.384V41.704H52.5206V43.384H50.6326ZM50.7766 53V45.192H52.3926V53H50.7766ZM57.9953 53.144C57.0246 53.144 56.2939 52.8933 55.8033 52.392C55.3233 51.8907 55.0833 51.1653 55.0833 50.216V46.44H53.5633V45.192H55.0833V42.84H56.6993V45.192H59.1153V46.44H56.6993V50.088C56.6993 50.6533 56.8166 51.08 57.0513 51.368C57.2966 51.656 57.6913 51.8 58.2352 51.8C58.3953 51.8 58.5553 51.7787 58.7153 51.736C58.8859 51.6933 59.0513 51.6507 59.2113 51.608L59.4673 52.824C59.3073 52.92 59.0833 52.9947 58.7953 53.048C58.5179 53.112 58.2513 53.144 57.9953 53.144ZM61.4204 55.88L62.9564 52.456V53.144L59.5484 45.192H61.2764L63.9004 51.672H63.4524L66.1084 45.192H67.7724L63.1164 55.88H61.4204ZM4.432 85L9.344 73.72H10.224L15.12 85H14.096L12.704 81.752L13.232 81.992H6.304L6.848 81.752L5.472 85H4.432ZM9.76 74.936L7.04 81.336L6.672 81.144H12.864L12.528 81.336L9.792 74.936H9.76ZM19.9168 85.128C19.1594 85.128 18.5088 84.9627 17.9648 84.632C17.4208 84.2907 16.9994 83.816 16.7008 83.208C16.4128 82.5893 16.2688 81.8747 16.2688 81.064C16.2688 80.2427 16.4128 79.5387 16.7008 78.952C16.9994 78.3653 17.4208 77.912 17.9648 77.592C18.5088 77.2613 19.1594 77.096 19.9168 77.096C20.3968 77.096 20.8608 77.1867 21.3088 77.368C21.7674 77.5493 22.1514 77.8 22.4608 78.12L22.0768 78.856C21.7461 78.536 21.3941 78.3067 21.0208 78.168C20.6474 78.0187 20.2901 77.944 19.9488 77.944C19.0848 77.944 18.4181 78.216 17.9488 78.76C17.4901 79.2933 17.2608 80.0667 17.2608 81.08C17.2608 82.0827 17.4901 82.872 17.9488 83.448C18.4181 84.0133 19.0848 84.296 19.9488 84.296C20.2901 84.296 20.6474 84.2267 21.0208 84.088C21.3941 83.9387 21.7461 83.704 22.0768 83.384L22.4608 84.12C22.1514 84.4293 21.7621 84.6747 21.2928 84.856C20.8341 85.0373 20.3754 85.128 19.9168 85.128ZM27.0205 85.128C26.1565 85.128 25.5058 84.8933 25.0685 84.424C24.6418 83.9547 24.4285 83.2827 24.4285 82.408V78.024H22.8925V77.24H24.4285V74.84H25.4045V77.24H27.9165V78.024H25.4045V82.28C25.4045 82.9307 25.5378 83.4267 25.8045 83.768C26.0712 84.1093 26.5138 84.28 27.1325 84.28C27.3138 84.28 27.4898 84.2587 27.6605 84.216C27.8312 84.1627 27.9805 84.1147 28.1085 84.072L28.3005 84.84C28.1832 84.9147 27.9965 84.9787 27.7405 85.032C27.4845 85.096 27.2445 85.128 27.0205 85.128ZM29.2919 75.192V73.96H30.6039V75.192H29.2919ZM29.4519 85V77.24H30.4279V85H29.4519ZM35.3028 85L31.9748 77.24H33.0628L36.0068 84.408H35.6068L38.5828 77.24H39.6068L36.2788 85H35.3028ZM40.9794 75.192V73.96H42.2914V75.192H40.9794ZM41.1394 85V77.24H42.1154V85H41.1394ZM47.6143 85.128C46.7503 85.128 46.0996 84.8933 45.6623 84.424C45.2356 83.9547 45.0223 83.2827 45.0223 82.408V78.024H43.4863V77.24H45.0223V74.84H45.9983V77.24H48.5103V78.024H45.9983V82.28C45.9983 82.9307 46.1316 83.4267 46.3983 83.768C46.6649 84.1093 47.1076 84.28 47.7263 84.28C47.9076 84.28 48.0836 84.2587 48.2543 84.216C48.4249 84.1627 48.5743 84.1147 48.7023 84.072L48.8943 84.84C48.7769 84.9147 48.5903 84.9787 48.3343 85.032C48.0783 85.096 47.8383 85.128 47.6143 85.128ZM51.1314 87.88L52.5074 84.744V85.192L49.1154 77.24H50.2034L53.1474 84.408H52.7474L55.7074 77.24H56.7634L52.1874 87.88H51.1314ZM4.432 117L9.344 105.72H10.224L15.12 117H14.096L12.704 113.752L13.232 113.992H6.304L6.848 113.752L5.472 117H4.432ZM9.76 106.936L7.04 113.336L6.672 113.144H12.864L12.528 113.336L9.792 106.936H9.76ZM19.9168 117.128C19.1594 117.128 18.5088 116.963 17.9648 116.632C17.4208 116.291 16.9994 115.816 16.7008 115.208C16.4128 114.589 16.2688 113.875 16.2688 113.064C16.2688 112.243 16.4128 111.539 16.7008 110.952C16.9994 110.365 17.4208 109.912 17.9648 109.592C18.5088 109.261 19.1594 109.096 19.9168 109.096C20.3968 109.096 20.8608 109.187 21.3088 109.368C21.7674 109.549 22.1514 109.8 22.4608 110.12L22.0768 110.856C21.7461 110.536 21.3941 110.307 21.0208 110.168C20.6474 110.019 20.2901 109.944 19.9488 109.944C19.0848 109.944 18.4181 110.216 17.9488 110.76C17.4901 111.293 17.2608 112.067 17.2608 113.08C17.2608 114.083 17.4901 114.872 17.9488 115.448C18.4181 116.013 19.0848 116.296 19.9488 116.296C20.2901 116.296 20.6474 116.227 21.0208 116.088C21.3941 115.939 21.7461 115.704 22.0768 115.384L22.4608 116.12C22.1514 116.429 21.7621 116.675 21.2928 116.856C20.8341 117.037 20.3754 117.128 19.9168 117.128ZM27.0205 117.128C26.1565 117.128 25.5058 116.893 25.0685 116.424C24.6418 115.955 24.4285 115.283 24.4285 114.408V110.024H22.8925V109.24H24.4285V106.84H25.4045V109.24H27.9165V110.024H25.4045V114.28C25.4045 114.931 25.5378 115.427 25.8045 115.768C26.0712 116.109 26.5138 116.28 27.1325 116.28C27.3138 116.28 27.4898 116.259 27.6605 116.216C27.8312 116.163 27.9805 116.115 28.1085 116.072L28.3005 116.84C28.1832 116.915 27.9965 116.979 27.7405 117.032C27.4845 117.096 27.2445 117.128 27.0205 117.128ZM29.2919 107.192V105.96H30.6039V107.192H29.2919ZM29.4519 117V109.24H30.4279V117H29.4519ZM35.3028 117L31.9748 109.24H33.0628L36.0068 116.408H35.6068L38.5828 109.24H39.6068L36.2788 117H35.3028ZM40.9794 107.192V105.96H42.2914V107.192H40.9794ZM41.1394 117V109.24H42.1154V117H41.1394ZM47.6143 117.128C46.7503 117.128 46.0996 116.893 45.6623 116.424C45.2356 115.955 45.0223 115.283 45.0223 114.408V110.024H43.4863V109.24H45.0223V106.84H45.9983V109.24H48.5103V110.024H45.9983V114.28C45.9983 114.931 46.1316 115.427 46.3983 115.768C46.6649 116.109 47.1076 116.28 47.7263 116.28C47.9076 116.28 48.0836 116.259 48.2543 116.216C48.4249 116.163 48.5743 116.115 48.7023 116.072L48.8943 116.84C48.7769 116.915 48.5903 116.979 48.3343 117.032C48.0783 117.096 47.8383 117.128 47.6143 117.128ZM51.1314 119.88L52.5074 116.744V117.192L49.1154 109.24H50.2034L53.1474 116.408H52.7474L55.7074 109.24H56.7634L52.1874 119.88H51.1314ZM4.432 149L9.344 137.72H10.224L15.12 149H14.096L12.704 145.752L13.232 145.992H6.304L6.848 145.752L5.472 149H4.432ZM9.76 138.936L7.04 145.336L6.672 145.144H12.864L12.528 145.336L9.792 138.936H9.76ZM19.9168 149.128C19.1594 149.128 18.5088 148.963 17.9648 148.632C17.4208 148.291 16.9994 147.816 16.7008 147.208C16.4128 146.589 16.2688 145.875 16.2688 145.064C16.2688 144.243 16.4128 143.539 16.7008 142.952C16.9994 142.365 17.4208 141.912 17.9648 141.592C18.5088 141.261 19.1594 141.096 19.9168 141.096C20.3968 141.096 20.8608 141.187 21.3088 141.368C21.7674 141.549 22.1514 141.8 22.4608 142.12L22.0768 142.856C21.7461 142.536 21.3941 142.307 21.0208 142.168C20.6474 142.019 20.2901 141.944 19.9488 141.944C19.0848 141.944 18.4181 142.216 17.9488 142.76C17.4901 143.293 17.2608 144.067 17.2608 145.08C17.2608 146.083 17.4901 146.872 17.9488 147.448C18.4181 148.013 19.0848 148.296 19.9488 148.296C20.2901 148.296 20.6474 148.227 21.0208 148.088C21.3941 147.939 21.7461 147.704 22.0768 147.384L22.4608 148.12C22.1514 148.429 21.7621 148.675 21.2928 148.856C20.8341 149.037 20.3754 149.128 19.9168 149.128ZM27.0205 149.128C26.1565 149.128 25.5058 148.893 25.0685 148.424C24.6418 147.955 24.4285 147.283 24.4285 146.408V142.024H22.8925V141.24H24.4285V138.84H25.4045V141.24H27.9165V142.024H25.4045V146.28C25.4045 146.931 25.5378 147.427 25.8045 147.768C26.0712 148.109 26.5138 148.28 27.1325 148.28C27.3138 148.28 27.4898 148.259 27.6605 148.216C27.8312 148.163 27.9805 148.115 28.1085 148.072L28.3005 148.84C28.1832 148.915 27.9965 148.979 27.7405 149.032C27.4845 149.096 27.2445 149.128 27.0205 149.128ZM29.2919 139.192V137.96H30.6039V139.192H29.2919ZM29.4519 149V141.24H30.4279V149H29.4519ZM35.3028 149L31.9748 141.24H33.0628L36.0068 148.408H35.6068L38.5828 141.24H39.6068L36.2788 149H35.3028ZM40.9794 139.192V137.96H42.2914V139.192H40.9794ZM41.1394 149V141.24H42.1154V149H41.1394ZM47.6143 149.128C46.7503 149.128 46.0996 148.893 45.6623 148.424C45.2356 147.955 45.0223 147.283 45.0223 146.408V142.024H43.4863V141.24H45.0223V138.84H45.9983V141.24H48.5103V142.024H45.9983V146.28C45.9983 146.931 46.1316 147.427 46.3983 147.768C46.6649 148.109 47.1076 148.28 47.7263 148.28C47.9076 148.28 48.0836 148.259 48.2543 148.216C48.4249 148.163 48.5743 148.115 48.7023 148.072L48.8943 148.84C48.7769 148.915 48.5903 148.979 48.3343 149.032C48.0783 149.096 47.8383 149.128 47.6143 149.128ZM51.1314 151.88L52.5074 148.744V149.192L49.1154 141.24H50.2034L53.1474 148.408H52.7474L55.7074 141.24H56.7634L52.1874 151.88H51.1314ZM4.432 181L9.344 169.72H10.224L15.12 181H14.096L12.704 177.752L13.232 177.992H6.304L6.848 177.752L5.472 181H4.432ZM9.76 170.936L7.04 177.336L6.672 177.144H12.864L12.528 177.336L9.792 170.936H9.76ZM19.9168 181.128C19.1594 181.128 18.5088 180.963 17.9648 180.632C17.4208 180.291 16.9994 179.816 16.7008 179.208C16.4128 178.589 16.2688 177.875 16.2688 177.064C16.2688 176.243 16.4128 175.539 16.7008 174.952C16.9994 174.365 17.4208 173.912 17.9648 173.592C18.5088 173.261 19.1594 173.096 19.9168 173.096C20.3968 173.096 20.8608 173.187 21.3088 173.368C21.7674 173.549 22.1514 173.8 22.4608 174.12L22.0768 174.856C21.7461 174.536 21.3941 174.307 21.0208 174.168C20.6474 174.019 20.2901 173.944 19.9488 173.944C19.0848 173.944 18.4181 174.216 17.9488 174.76C17.4901 175.293 17.2608 176.067 17.2608 177.08C17.2608 178.083 17.4901 178.872 17.9488 179.448C18.4181 180.013 19.0848 180.296 19.9488 180.296C20.2901 180.296 20.6474 180.227 21.0208 180.088C21.3941 179.939 21.7461 179.704 22.0768 179.384L22.4608 180.12C22.1514 180.429 21.7621 180.675 21.2928 180.856C20.8341 181.037 20.3754 181.128 19.9168 181.128ZM27.0205 181.128C26.1565 181.128 25.5058 180.893 25.0685 180.424C24.6418 179.955 24.4285 179.283 24.4285 178.408V174.024H22.8925V173.24H24.4285V170.84H25.4045V173.24H27.9165V174.024H25.4045V178.28C25.4045 178.931 25.5378 179.427 25.8045 179.768C26.0712 180.109 26.5138 180.28 27.1325 180.28C27.3138 180.28 27.4898 180.259 27.6605 180.216C27.8312 180.163 27.9805 180.115 28.1085 180.072L28.3005 180.84C28.1832 180.915 27.9965 180.979 27.7405 181.032C27.4845 181.096 27.2445 181.128 27.0205 181.128ZM29.2919 171.192V169.96H30.6039V171.192H29.2919ZM29.4519 181V173.24H30.4279V181H29.4519ZM35.3028 181L31.9748 173.24H33.0628L36.0068 180.408H35.6068L38.5828 173.24H39.6068L36.2788 181H35.3028ZM40.9794 171.192V169.96H42.2914V171.192H40.9794ZM41.1394 181V173.24H42.1154V181H41.1394ZM47.6143 181.128C46.7503 181.128 46.0996 180.893 45.6623 180.424C45.2356 179.955 45.0223 179.283 45.0223 178.408V174.024H43.4863V173.24H45.0223V170.84H45.9983V173.24H48.5103V174.024H45.9983V178.28C45.9983 178.931 46.1316 179.427 46.3983 179.768C46.6649 180.109 47.1076 180.28 47.7263 180.28C47.9076 180.28 48.0836 180.259 48.2543 180.216C48.4249 180.163 48.5743 180.115 48.7023 180.072L48.8943 180.84C48.7769 180.915 48.5903 180.979 48.3343 181.032C48.0783 181.096 47.8383 181.128 47.6143 181.128ZM51.1314 183.88L52.5074 180.744V181.192L49.1154 173.24H50.2034L53.1474 180.408H52.7474L55.7074 173.24H56.7634L52.1874 183.88H51.1314Z" fill="black"/>
<line x1="1.5" y1="31" x2="1.5" y2="64" stroke="#9E1E4D" stroke-width="3"/>
</svg>
