<svg width="766" height="1094" viewBox="0 0 766 1094" fill="none" xmlns="http://www.w3.org/2000/svg">
<g clip-path="url(#clip0_227_292)">
<rect width="766" height="1094" fill="white"/>
<rect x="-1" width="768" height="170" fill="#EBEBEB"/>
<path d="M147.599 107L149.149 99.05H146.699V93.75H150.149L151.949 84.6H147.799V79.3H152.899L154.449 71.75H160.199L158.649 79.3H162.999L164.499 71.75H170.249L168.749 79.3H171.199V84.6H167.749L165.949 93.75H170.099V99.05H164.949L163.399 107H157.649L159.199 99.05H154.899L153.349 107H147.599ZM155.899 93.75H160.199L161.999 84.6H157.699L155.899 93.75ZM176.63 107V82.4H185.28V86.7H184.73C185.196 85.7 185.813 84.85 186.58 84.15C187.346 83.4167 188.246 82.85 189.28 82.45C190.346 82.05 191.513 81.85 192.78 81.85C194.58 81.85 196.113 82.2833 197.38 83.15C198.68 84.0167 199.613 85.3333 200.18 87.1H199.48C200.246 85.4667 201.396 84.1833 202.93 83.25C204.463 82.3167 206.163 81.85 208.03 81.85C209.963 81.85 211.546 82.2333 212.78 83C214.013 83.7333 214.93 84.9 215.53 86.5C216.163 88.0667 216.48 90.05 216.48 92.45V107H207.58V92.7C207.58 91.2667 207.363 90.2333 206.93 89.6C206.496 88.9667 205.78 88.65 204.78 88.65C203.98 88.65 203.28 88.85 202.68 89.25C202.113 89.6167 201.68 90.1833 201.38 90.95C201.113 91.6833 200.98 92.5833 200.98 93.65V107H192.08V92.7C192.08 91.2667 191.863 90.2333 191.43 89.6C190.996 88.9667 190.28 88.65 189.28 88.65C188.48 88.65 187.796 88.85 187.23 89.25C186.663 89.6167 186.23 90.1833 185.93 90.95C185.663 91.6833 185.53 92.5833 185.53 93.65V107H176.63ZM230.197 107.55C228.297 107.55 226.614 107.2 225.147 106.5C223.714 105.8 222.58 104.85 221.747 103.65C220.947 102.417 220.547 101.017 220.547 99.45C220.547 97.65 221.014 96.2333 221.947 95.2C222.88 94.1667 224.38 93.4333 226.447 93C228.514 92.5333 231.264 92.3 234.697 92.3H237.447V96.5H234.697C233.73 96.5 232.88 96.55 232.147 96.65C231.447 96.75 230.864 96.9167 230.397 97.15C229.93 97.35 229.58 97.6167 229.347 97.95C229.114 98.2833 228.997 98.6667 228.997 99.1C228.997 99.8667 229.264 100.5 229.797 101C230.364 101.5 231.164 101.75 232.197 101.75C233.03 101.75 233.764 101.567 234.397 101.2C235.064 100.833 235.597 100.333 235.997 99.7C236.397 99.0333 236.597 98.2667 236.597 97.4V91.6C236.597 90.4 236.28 89.55 235.647 89.05C235.047 88.55 233.997 88.3 232.497 88.3C231.23 88.3 229.83 88.5 228.297 88.9C226.764 89.3 225.264 89.9167 223.797 90.75L221.547 84.9C222.414 84.3 223.48 83.7667 224.747 83.3C226.047 82.8333 227.414 82.4833 228.847 82.25C230.314 81.9833 231.664 81.85 232.897 81.85C235.63 81.85 237.88 82.25 239.647 83.05C241.447 83.8167 242.78 85.0167 243.647 86.65C244.547 88.25 244.997 90.3167 244.997 92.85V107H236.697V102.35H236.997C236.83 103.417 236.447 104.333 235.847 105.1C235.247 105.867 234.464 106.467 233.497 106.9C232.53 107.333 231.43 107.55 230.197 107.55ZM249.815 78.15V70.1H259.165V78.15H249.815ZM250.065 107V82.4H258.965V107H250.065ZM264.127 107V82.4H272.777V86.7H272.227C273.027 85.1333 274.161 83.9333 275.627 83.1C277.127 82.2667 278.827 81.85 280.727 81.85C282.694 81.85 284.311 82.2333 285.577 83C286.844 83.7333 287.794 84.9 288.427 86.5C289.061 88.0667 289.377 90.05 289.377 92.45V107H280.477V92.8C280.477 91.8 280.361 91 280.127 90.4C279.894 89.7667 279.544 89.3167 279.077 89.05C278.644 88.7833 278.094 88.65 277.427 88.65C276.527 88.65 275.744 88.85 275.077 89.25C274.411 89.6167 273.894 90.15 273.527 90.85C273.194 91.55 273.027 92.3833 273.027 93.35V107H264.127ZM315.806 107L305.456 82.4H314.456L320.456 98.1H319.406L325.306 82.4H330.856L336.756 98.1H335.856L341.756 82.4H350.206L339.956 107H332.606L325.856 90.25H329.506L323.156 107H315.806ZM351.914 78.15V70.1H361.264V78.15H351.914ZM352.164 107V82.4H361.064V107H352.164ZM375.827 107.55C373.727 107.55 371.86 107.033 370.227 106C368.627 104.967 367.36 103.483 366.427 101.55C365.527 99.6167 365.077 97.3333 365.077 94.7C365.077 92 365.527 89.7 366.427 87.8C367.36 85.9 368.627 84.4333 370.227 83.4C371.86 82.3667 373.727 81.85 375.827 81.85C377.66 81.85 379.31 82.2833 380.777 83.15C382.244 84.0167 383.227 85.1333 383.727 86.5H383.177V71.75H392.077V107H383.377V102.55H383.827C383.36 104.05 382.377 105.267 380.877 106.2C379.41 107.1 377.727 107.55 375.827 107.55ZM378.677 101C380.01 101 381.11 100.5 381.977 99.5C382.844 98.5 383.277 96.9 383.277 94.7C383.277 92.4667 382.844 90.8667 381.977 89.9C381.11 88.9 380.01 88.4 378.677 88.4C377.31 88.4 376.194 88.9 375.327 89.9C374.46 90.8667 374.027 92.4667 374.027 94.7C374.027 96.9 374.46 98.5 375.327 99.5C376.194 100.5 377.31 101 378.677 101ZM410.133 107.55C406.399 107.55 403.633 106.683 401.833 104.95C400.033 103.217 399.133 100.6 399.133 97.1V88.95H394.533V82.4H399.133V75.25H408.033V82.4H415.033V88.95H408.033V96.8C408.033 98.0333 408.316 98.95 408.883 99.55C409.483 100.117 410.416 100.4 411.683 100.4C412.083 100.4 412.516 100.35 412.983 100.25C413.483 100.15 414.033 100.033 414.633 99.9L415.833 106.3C415.066 106.7 414.166 107 413.133 107.2C412.133 107.433 411.133 107.55 410.133 107.55ZM418.522 107V71.75H427.422V86.7H426.622C427.422 85.1333 428.555 83.9333 430.022 83.1C431.522 82.2667 433.222 81.85 435.122 81.85C437.089 81.85 438.705 82.2333 439.972 83C441.239 83.7333 442.189 84.9 442.822 86.5C443.455 88.0667 443.772 90.05 443.772 92.45V107H434.872V92.8C434.872 91.8 434.755 91 434.522 90.4C434.289 89.7667 433.939 89.3167 433.472 89.05C433.039 88.7833 432.489 88.65 431.822 88.65C430.922 88.65 430.139 88.85 429.472 89.25C428.805 89.6167 428.289 90.15 427.922 90.85C427.589 91.55 427.422 92.3833 427.422 93.35V107H418.522ZM448.394 91.5V82.4H457.644V91.5H448.394ZM448.394 107V97.9H457.644V107H448.394ZM476.874 107L493.624 76.6V79.25H476.174V71.75H502.224V78.65L486.924 107H476.874ZM520.554 107.55C517.454 107.55 514.821 106.85 512.654 105.45C510.521 104.05 508.888 102.033 507.754 99.4C506.621 96.7333 506.054 93.5 506.054 89.7C506.054 85.8 506.704 82.4833 508.004 79.75C509.304 76.9833 511.154 74.8667 513.554 73.4C515.988 71.9333 518.888 71.2 522.254 71.2C523.554 71.2 524.838 71.3333 526.104 71.6C527.371 71.8667 528.571 72.2833 529.704 72.85C530.871 73.3833 531.938 74.0333 532.904 74.8L530.104 81.55C528.871 80.5833 527.571 79.8833 526.204 79.45C524.871 78.9833 523.521 78.75 522.154 78.75C520.921 78.75 519.838 78.95 518.904 79.35C517.971 79.7167 517.188 80.3 516.554 81.1C515.921 81.8667 515.438 82.8333 515.104 84C514.804 85.1667 514.654 86.5167 514.654 88.05V90.65H513.904C514.204 89.2167 514.754 88 515.554 87C516.354 85.9667 517.338 85.1833 518.504 84.65C519.704 84.1167 521.038 83.85 522.504 83.85C524.471 83.85 526.221 84.35 527.754 85.35C529.288 86.3167 530.504 87.6667 531.404 89.4C532.304 91.1333 532.754 93.1 532.754 95.3C532.754 97.7 532.238 99.8333 531.204 101.7C530.171 103.533 528.738 104.967 526.904 106C525.071 107.033 522.954 107.55 520.554 107.55ZM520.054 100.55C520.921 100.55 521.671 100.35 522.304 99.95C522.971 99.55 523.471 98.9833 523.804 98.25C524.171 97.5167 524.354 96.6667 524.354 95.7C524.354 94.7 524.171 93.85 523.804 93.15C523.471 92.4167 522.971 91.85 522.304 91.45C521.671 91.0167 520.921 90.8 520.054 90.8C519.221 90.8 518.471 91.0167 517.804 91.45C517.171 91.85 516.671 92.4167 516.304 93.15C515.938 93.85 515.754 94.7 515.754 95.7C515.754 96.6667 515.938 97.5167 516.304 98.25C516.671 98.9833 517.171 99.55 517.804 99.95C518.471 100.35 519.221 100.55 520.054 100.55ZM549.135 107.55C544.868 107.55 541.501 106.65 539.035 104.85C536.601 103.05 535.385 100.55 535.385 97.35C535.385 95.65 535.718 94.15 536.385 92.85C537.085 91.55 538.035 90.5 539.235 89.7C540.435 88.8667 541.801 88.3667 543.335 88.2V89.65C541.935 89.35 540.701 88.8 539.635 88C538.601 87.1667 537.785 86.15 537.185 84.95C536.618 83.7167 536.335 82.35 536.335 80.85C536.335 77.85 537.485 75.5 539.785 73.8C542.085 72.0667 545.201 71.2 549.135 71.2C553.101 71.2 556.218 72.0667 558.485 73.8C560.785 75.5 561.935 77.85 561.935 80.85C561.935 82.35 561.635 83.7333 561.035 85C560.468 86.2333 559.668 87.25 558.635 88.05C557.635 88.85 556.468 89.3667 555.135 89.6V88.2C556.635 88.4333 557.968 88.9667 559.135 89.8C560.301 90.6 561.218 91.65 561.885 92.95C562.551 94.2167 562.885 95.6833 562.885 97.35C562.885 100.55 561.651 103.05 559.185 104.85C556.751 106.65 553.401 107.55 549.135 107.55ZM549.135 100.65C550.901 100.65 552.251 100.317 553.185 99.65C554.118 98.95 554.585 97.95 554.585 96.65C554.585 95.3167 554.118 94.3167 553.185 93.65C552.251 92.9833 550.901 92.65 549.135 92.65C547.368 92.65 546.018 92.9833 545.085 93.65C544.151 94.3167 543.685 95.3167 543.685 96.65C543.685 97.95 544.151 98.95 545.085 99.65C546.018 100.317 547.368 100.65 549.135 100.65ZM549.135 85.7C550.568 85.7 551.668 85.3667 552.435 84.7C553.235 84 553.635 83.0667 553.635 81.9C553.635 80.7333 553.235 79.8167 552.435 79.15C551.668 78.45 550.568 78.1 549.135 78.1C547.735 78.1 546.635 78.45 545.835 79.15C545.068 79.8167 544.685 80.7333 544.685 81.9C544.685 83.0667 545.068 84 545.835 84.7C546.635 85.3667 547.735 85.7 549.135 85.7ZM566.715 116V82.4H575.365V86.85H574.915C575.382 85.35 576.349 84.15 577.815 83.25C579.315 82.3167 581.015 81.85 582.915 81.85C585.049 81.85 586.915 82.3667 588.515 83.4C590.149 84.4333 591.415 85.9 592.315 87.8C593.215 89.7 593.665 92 593.665 94.7C593.665 97.3333 593.215 99.6167 592.315 101.55C591.415 103.483 590.149 104.967 588.515 106C586.915 107.033 585.049 107.55 582.915 107.55C581.082 107.55 579.432 107.117 577.965 106.25C576.499 105.383 575.515 104.25 575.015 102.85H575.615V116H566.715ZM580.115 101C581.449 101 582.549 100.5 583.415 99.5C584.282 98.5 584.715 96.9 584.715 94.7C584.715 92.4667 584.282 90.8667 583.415 89.9C582.549 88.9 581.449 88.4 580.115 88.4C578.749 88.4 577.632 88.9 576.765 89.9C575.899 90.8667 575.465 92.4667 575.465 94.7C575.465 96.9 575.899 98.5 576.765 99.5C577.632 100.5 578.749 101 580.115 101ZM593.287 107L605.338 92.35V96.3L593.937 82.4H604.288L610.338 90.2H607.238L613.288 82.4H623.588L612.188 96.3V92.35L624.338 107H613.938L607.238 98.5H610.288L603.588 107H593.287Z" fill="#5A5A5A"/>
<rect x="6.5" y="177.5" width="753" height="89" fill="#D9D9D9" stroke="#DA08FF" stroke-width="15"/>
<rect x="6.5" y="281.5" width="751" height="805" fill="white" stroke="#FFF2AF" stroke-width="15"/>
<path d="M23.95 322V309.85H25.925V312.55H25.65C25.85 311.933 26.1417 311.408 26.525 310.975C26.925 310.525 27.3917 310.192 27.925 309.975C28.475 309.742 29.075 309.625 29.725 309.625C30.7583 309.625 31.5917 309.875 32.225 310.375C32.875 310.858 33.3083 311.617 33.525 312.65H33.15C33.45 311.717 33.9833 310.983 34.75 310.45C35.5333 309.9 36.4417 309.625 37.475 309.625C38.3917 309.625 39.1417 309.8 39.725 310.15C40.325 310.5 40.775 311.033 41.075 311.75C41.375 312.45 41.525 313.342 41.525 314.425V322H39.5V314.525C39.5 313.408 39.3083 312.592 38.925 312.075C38.5417 311.542 37.8917 311.275 36.975 311.275C36.325 311.275 35.75 311.433 35.25 311.75C34.7667 312.067 34.3917 312.517 34.125 313.1C33.875 313.667 33.75 314.342 33.75 315.125V322H31.725V314.525C31.725 313.408 31.525 312.592 31.125 312.075C30.7417 311.542 30.1 311.275 29.2 311.275C28.5333 311.275 27.9583 311.433 27.475 311.75C26.9917 312.067 26.6167 312.517 26.35 313.1C26.1 313.667 25.975 314.342 25.975 315.125V322H23.95ZM49.1361 322.225C48.3028 322.225 47.5528 322.067 46.8861 321.75C46.2361 321.417 45.7195 320.967 45.3361 320.4C44.9528 319.833 44.7611 319.2 44.7611 318.5C44.7611 317.6 44.9861 316.892 45.4361 316.375C45.9028 315.858 46.6611 315.492 47.7111 315.275C48.7778 315.058 50.2278 314.95 52.0611 314.95H53.1861V316.275H52.0861C51.0695 316.275 50.2195 316.308 49.5361 316.375C48.8528 316.442 48.3111 316.558 47.9111 316.725C47.5111 316.892 47.2278 317.108 47.0611 317.375C46.8945 317.642 46.8111 317.975 46.8111 318.375C46.8111 319.058 47.0445 319.617 47.5111 320.05C47.9945 320.483 48.6445 320.7 49.4611 320.7C50.1278 320.7 50.7111 320.542 51.2111 320.225C51.7278 319.908 52.1278 319.475 52.4111 318.925C52.7111 318.375 52.8611 317.742 52.8611 317.025V314.175C52.8611 313.142 52.6528 312.4 52.2361 311.95C51.8195 311.483 51.1361 311.25 50.1861 311.25C49.4528 311.25 48.7445 311.358 48.0611 311.575C47.3778 311.775 46.6778 312.108 45.9611 312.575L45.2611 311.1C45.6945 310.8 46.1861 310.542 46.7361 310.325C47.2861 310.092 47.8611 309.917 48.4611 309.8C49.0611 309.683 49.6361 309.625 50.1861 309.625C51.2361 309.625 52.1028 309.8 52.7861 310.15C53.4695 310.483 53.9778 311 54.3111 311.7C54.6445 312.383 54.8111 313.267 54.8111 314.35V322H52.9111V319.175H53.1361C53.0028 319.808 52.7445 320.35 52.3611 320.8C51.9945 321.25 51.5361 321.6 50.9861 321.85C50.4361 322.1 49.8195 322.225 49.1361 322.225ZM58.568 322V309.85H60.543V312.725H60.293C60.5763 311.742 61.068 311 61.768 310.5C62.468 309.983 63.393 309.683 64.543 309.6L65.268 309.525L65.418 311.275L64.143 311.425C63.0096 311.525 62.1346 311.892 61.518 312.525C60.918 313.142 60.618 313.992 60.618 315.075V322H58.568ZM72.7564 326.725C71.7064 326.725 70.7148 326.583 69.7814 326.3C68.8648 326.033 68.0481 325.625 67.3314 325.075L68.0064 323.6C68.5064 323.95 68.9981 324.233 69.4814 324.45C69.9814 324.683 70.4898 324.85 71.0064 324.95C71.5398 325.05 72.0898 325.1 72.6564 325.1C73.8398 325.1 74.7314 324.783 75.3314 324.15C75.9481 323.517 76.2564 322.6 76.2564 321.4V318.575H76.5064C76.2564 319.542 75.7231 320.308 74.9064 320.875C74.1064 321.442 73.1648 321.725 72.0814 321.725C70.9648 321.725 69.9981 321.475 69.1814 320.975C68.3648 320.458 67.7314 319.742 67.2814 318.825C66.8481 317.908 66.6314 316.85 66.6314 315.65C66.6314 314.45 66.8481 313.4 67.2814 312.5C67.7314 311.583 68.3648 310.875 69.1814 310.375C69.9981 309.875 70.9648 309.625 72.0814 309.625C73.1814 309.625 74.1314 309.908 74.9314 310.475C75.7314 311.025 76.2481 311.775 76.4814 312.725H76.2564V309.85H78.2314V321.125C78.2314 322.358 78.0231 323.392 77.6064 324.225C77.2064 325.058 76.5981 325.683 75.7814 326.1C74.9648 326.517 73.9564 326.725 72.7564 326.725ZM72.4564 320.075C73.6231 320.075 74.5481 319.675 75.2314 318.875C75.9148 318.075 76.2564 317 76.2564 315.65C76.2564 314.3 75.9148 313.233 75.2314 312.45C74.5481 311.65 73.6231 311.25 72.4564 311.25C71.3064 311.25 70.3898 311.65 69.7064 312.45C69.0231 313.233 68.6814 314.3 68.6814 315.65C68.6814 317 69.0231 318.075 69.7064 318.875C70.3898 319.675 71.3064 320.075 72.4564 320.075ZM81.7799 306.825V304.55H84.2799V306.825H81.7799ZM82.0299 322V309.85H84.0549V322H82.0299ZM87.8404 322V309.85H89.8154V312.55H89.5404C89.8904 311.583 90.4571 310.858 91.2404 310.375C92.0404 309.875 92.9571 309.625 93.9904 309.625C94.9571 309.625 95.7571 309.8 96.3904 310.15C97.0404 310.483 97.5238 311.008 97.8404 311.725C98.1571 312.442 98.3154 313.342 98.3154 314.425V322H96.2904V314.55C96.2904 313.8 96.1904 313.183 95.9904 312.7C95.8071 312.217 95.5071 311.858 95.0904 311.625C94.6904 311.392 94.1654 311.275 93.5154 311.275C92.7821 311.275 92.1404 311.433 91.5904 311.75C91.0404 312.067 90.6154 312.508 90.3154 313.075C90.0154 313.642 89.8654 314.308 89.8654 315.075V322H87.8404ZM101.724 312.4V309.85H104.274V312.4H101.724ZM101.724 322V319.45H104.274V322H101.724ZM25.1 356V354.25H29.125V340.15H30.2L25.95 342.85L25.075 341.325L29.7 338.375H31.175V354.25H34.95V356H25.1ZM44.8652 356.225C44.1152 356.225 43.3819 356.142 42.6652 355.975C41.9486 355.808 41.2736 355.567 40.6402 355.25C40.0236 354.933 39.4736 354.558 38.9902 354.125L39.7652 352.5C40.5652 353.15 41.3736 353.633 42.1902 353.95C43.0236 354.25 43.9069 354.4 44.8402 354.4C46.0736 354.4 47.0319 354.058 47.7152 353.375C48.4152 352.692 48.7652 351.792 48.7652 350.675C48.7652 349.525 48.4319 348.583 47.7652 347.85C47.0986 347.117 46.1819 346.75 45.0152 346.75C44.1652 346.75 43.4152 346.925 42.7652 347.275C42.1319 347.608 41.5569 348.133 41.0402 348.85H39.5402V338.375H49.7652V340.125H41.5652V347.15H41.0152C41.4486 346.45 42.0486 345.917 42.8152 345.55C43.5819 345.167 44.4402 344.975 45.3902 344.975C46.5069 344.975 47.4652 345.208 48.2652 345.675C49.0819 346.142 49.7069 346.8 50.1402 347.65C50.5902 348.483 50.8152 349.458 50.8152 350.575C50.8152 351.675 50.5736 352.65 50.0902 353.5C49.6069 354.35 48.9236 355.017 48.0402 355.5C47.1569 355.983 46.0986 356.225 44.8652 356.225ZM53.8805 360.5V343.85H55.8555V346.725H55.6055C55.8721 345.775 56.3971 345.025 57.1805 344.475C57.9805 343.908 58.9305 343.625 60.0305 343.625C61.1138 343.625 62.0555 343.883 62.8555 344.4C63.6721 344.9 64.2971 345.625 64.7305 346.575C65.1805 347.508 65.4055 348.625 65.4055 349.925C65.4055 351.208 65.1805 352.325 64.7305 353.275C64.2971 354.208 63.6805 354.933 62.8805 355.45C62.0805 355.967 61.1305 356.225 60.0305 356.225C58.9305 356.225 57.9888 355.95 57.2055 355.4C56.4221 354.833 55.8888 354.083 55.6055 353.15H55.9055V360.5H53.8805ZM59.6055 354.6C60.7555 354.6 61.6638 354.2 62.3305 353.4C63.0138 352.583 63.3555 351.425 63.3555 349.925C63.3555 348.408 63.0138 347.25 62.3305 346.45C61.6638 345.65 60.7555 345.25 59.6055 345.25C58.4721 345.25 57.5638 345.65 56.8805 346.45C56.1971 347.25 55.8555 348.408 55.8555 349.925C55.8555 351.425 56.1971 352.583 56.8805 353.4C57.5638 354.2 58.4721 354.6 59.6055 354.6ZM66.6371 356L72.0871 349.2V350.25L66.9371 343.85H69.3371L73.2121 348.775H72.5121L76.4121 343.85H78.7871L73.6621 350.2V349.275L79.0871 356H76.6871L72.4871 350.725H73.2121L69.0371 356H66.6371ZM82.0469 358.85L81.0969 358.125C81.3969 357.808 81.6219 357.508 81.7719 357.225C81.9385 356.958 82.0469 356.683 82.0969 356.4C82.1635 356.133 82.1969 355.858 82.1969 355.575L82.8469 356H80.9969V353.45H83.5469V355.25C83.5469 355.7 83.4969 356.125 83.3969 356.525C83.3135 356.942 83.1635 357.342 82.9469 357.725C82.7302 358.108 82.4302 358.483 82.0469 358.85ZM80.9969 346.4V343.85H83.5469V346.4H80.9969Z" fill="black"/>
<path d="M318.707 236.5L294.307 226.95V220.3L318.707 210.75V217.3L296.507 225.85V221.5L318.707 230V236.5ZM332.637 238.55C330.737 238.55 329.054 238.2 327.587 237.5C326.154 236.8 325.021 235.85 324.187 234.65C323.387 233.417 322.987 232.017 322.987 230.45C322.987 228.65 323.454 227.233 324.387 226.2C325.321 225.167 326.821 224.433 328.887 224C330.954 223.533 333.704 223.3 337.137 223.3H339.887V227.5H337.137C336.171 227.5 335.321 227.55 334.587 227.65C333.887 227.75 333.304 227.917 332.837 228.15C332.371 228.35 332.021 228.617 331.787 228.95C331.554 229.283 331.437 229.667 331.437 230.1C331.437 230.867 331.704 231.5 332.237 232C332.804 232.5 333.604 232.75 334.637 232.75C335.471 232.75 336.204 232.567 336.837 232.2C337.504 231.833 338.037 231.333 338.437 230.7C338.837 230.033 339.037 229.267 339.037 228.4V222.6C339.037 221.4 338.721 220.55 338.087 220.05C337.487 219.55 336.437 219.3 334.937 219.3C333.671 219.3 332.271 219.5 330.737 219.9C329.204 220.3 327.704 220.917 326.237 221.75L323.987 215.9C324.854 215.3 325.921 214.767 327.187 214.3C328.487 213.833 329.854 213.483 331.287 213.25C332.754 212.983 334.104 212.85 335.337 212.85C338.071 212.85 340.321 213.25 342.087 214.05C343.887 214.817 345.221 216.017 346.087 217.65C346.987 219.25 347.437 221.317 347.437 223.85V238H339.137V233.35H339.437C339.271 234.417 338.887 235.333 338.287 236.1C337.687 236.867 336.904 237.467 335.937 237.9C334.971 238.333 333.871 238.55 332.637 238.55ZM362.305 238.55C360.805 238.55 359.355 238.45 357.955 238.25C356.589 238.05 355.339 237.75 354.205 237.35C353.072 236.95 352.055 236.467 351.155 235.9L353.205 230.15C354.039 230.617 354.955 231.033 355.955 231.4C356.989 231.767 358.055 232.05 359.155 232.25C360.255 232.45 361.322 232.55 362.355 232.55C363.589 232.55 364.472 232.383 365.005 232.05C365.539 231.683 365.805 231.217 365.805 230.65C365.805 230.15 365.622 229.767 365.255 229.5C364.922 229.233 364.439 229.05 363.805 228.95L358.255 228.05C356.189 227.683 354.589 226.933 353.455 225.8C352.322 224.633 351.755 223.117 351.755 221.25C351.755 219.517 352.239 218.033 353.205 216.8C354.205 215.533 355.555 214.567 357.255 213.9C358.989 213.2 360.972 212.85 363.205 212.85C364.405 212.85 365.589 212.95 366.755 213.15C367.922 213.317 369.039 213.6 370.105 214C371.172 214.367 372.139 214.867 373.005 215.5L370.805 221.15C370.172 220.683 369.422 220.283 368.555 219.95C367.689 219.617 366.789 219.35 365.855 219.15C364.955 218.917 364.122 218.8 363.355 218.8C361.989 218.8 361.022 218.983 360.455 219.35C359.889 219.717 359.605 220.183 359.605 220.75C359.605 221.183 359.755 221.55 360.055 221.85C360.355 222.117 360.822 222.3 361.455 222.4L367.005 223.35C369.139 223.683 370.772 224.417 371.905 225.55C373.072 226.65 373.655 228.15 373.655 230.05C373.655 231.85 373.189 233.383 372.255 234.65C371.322 235.917 370.005 236.883 368.305 237.55C366.605 238.217 364.605 238.55 362.305 238.55ZM377.06 209.15V201.1H386.41V209.15H377.06ZM377.31 238V213.4H386.21V238H377.31ZM400.972 238.55C398.872 238.55 397.006 238.033 395.372 237C393.772 235.967 392.506 234.483 391.572 232.55C390.672 230.617 390.222 228.333 390.222 225.7C390.222 223 390.672 220.7 391.572 218.8C392.506 216.9 393.772 215.433 395.372 214.4C397.006 213.367 398.872 212.85 400.972 212.85C402.806 212.85 404.456 213.283 405.922 214.15C407.389 215.017 408.372 216.133 408.872 217.5H408.322V202.75H417.222V238H408.522V233.55H408.972C408.506 235.05 407.522 236.267 406.022 237.2C404.556 238.1 402.872 238.55 400.972 238.55ZM403.822 232C405.156 232 406.256 231.5 407.122 230.5C407.989 229.5 408.422 227.9 408.422 225.7C408.422 223.467 407.989 221.867 407.122 220.9C406.256 219.9 405.156 219.4 403.822 219.4C402.456 219.4 401.339 219.9 400.472 220.9C399.606 221.867 399.172 223.467 399.172 225.7C399.172 227.9 399.606 229.5 400.472 230.5C401.339 231.5 402.456 232 403.822 232ZM435.778 238.55C432.778 238.55 430.178 238.033 427.978 237C425.812 235.933 424.145 234.433 422.978 232.5C421.812 230.567 421.228 228.283 421.228 225.65C421.228 223.117 421.778 220.9 422.878 219C424.012 217.067 425.545 215.567 427.478 214.5C429.445 213.4 431.678 212.85 434.178 212.85C436.678 212.85 438.828 213.367 440.628 214.4C442.428 215.433 443.812 216.917 444.778 218.85C445.778 220.75 446.278 222.983 446.278 225.55V227.5H428.678V223.3H439.778L438.978 223.95C438.978 222.15 438.595 220.817 437.828 219.95C437.062 219.05 435.978 218.6 434.578 218.6C433.545 218.6 432.645 218.85 431.878 219.35C431.145 219.817 430.578 220.517 430.178 221.45C429.778 222.383 429.578 223.55 429.578 224.95V225.4C429.578 226.967 429.795 228.233 430.228 229.2C430.695 230.167 431.412 230.883 432.378 231.35C433.345 231.783 434.562 232 436.028 232C437.295 232 438.612 231.817 439.978 231.45C441.378 231.05 442.612 230.483 443.678 229.75L445.878 235.6C444.612 236.5 443.062 237.217 441.228 237.75C439.395 238.283 437.578 238.55 435.778 238.55ZM450.313 236.5V230L472.563 221.5V225.85L450.313 217.3V210.75L474.713 220.3V226.95L450.313 236.5Z" fill="#5A5A5A"/>
<path d="M321.76 347.5L297.36 337.95V331.3L321.76 321.75V328.3L299.56 336.85V332.5L321.76 341V347.5ZM327.24 349V324.4H335.89V328.7H335.34C335.807 327.7 336.423 326.85 337.19 326.15C337.957 325.417 338.857 324.85 339.89 324.45C340.957 324.05 342.123 323.85 343.39 323.85C345.19 323.85 346.723 324.283 347.99 325.15C349.29 326.017 350.223 327.333 350.79 329.1H350.09C350.857 327.467 352.007 326.183 353.54 325.25C355.073 324.317 356.773 323.85 358.64 323.85C360.573 323.85 362.157 324.233 363.39 325C364.623 325.733 365.54 326.9 366.14 328.5C366.773 330.067 367.09 332.05 367.09 334.45V349H358.19V334.7C358.19 333.267 357.973 332.233 357.54 331.6C357.107 330.967 356.39 330.65 355.39 330.65C354.59 330.65 353.89 330.85 353.29 331.25C352.723 331.617 352.29 332.183 351.99 332.95C351.723 333.683 351.59 334.583 351.59 335.65V349H342.69V334.7C342.69 333.267 342.473 332.233 342.04 331.6C341.607 330.967 340.89 330.65 339.89 330.65C339.09 330.65 338.407 330.85 337.84 331.25C337.273 331.617 336.84 332.183 336.54 332.95C336.273 333.683 336.14 334.583 336.14 335.65V349H327.24ZM380.807 349.55C378.907 349.55 377.224 349.2 375.757 348.5C374.324 347.8 373.191 346.85 372.357 345.65C371.557 344.417 371.157 343.017 371.157 341.45C371.157 339.65 371.624 338.233 372.557 337.2C373.491 336.167 374.991 335.433 377.057 335C379.124 334.533 381.874 334.3 385.307 334.3H388.057V338.5H385.307C384.341 338.5 383.491 338.55 382.757 338.65C382.057 338.75 381.474 338.917 381.007 339.15C380.541 339.35 380.191 339.617 379.957 339.95C379.724 340.283 379.607 340.667 379.607 341.1C379.607 341.867 379.874 342.5 380.407 343C380.974 343.5 381.774 343.75 382.807 343.75C383.641 343.75 384.374 343.567 385.007 343.2C385.674 342.833 386.207 342.333 386.607 341.7C387.007 341.033 387.207 340.267 387.207 339.4V333.6C387.207 332.4 386.891 331.55 386.257 331.05C385.657 330.55 384.607 330.3 383.107 330.3C381.841 330.3 380.441 330.5 378.907 330.9C377.374 331.3 375.874 331.917 374.407 332.75L372.157 326.9C373.024 326.3 374.091 325.767 375.357 325.3C376.657 324.833 378.024 324.483 379.457 324.25C380.924 323.983 382.274 323.85 383.507 323.85C386.241 323.85 388.491 324.25 390.257 325.05C392.057 325.817 393.391 327.017 394.257 328.65C395.157 330.25 395.607 332.317 395.607 334.85V349H387.307V344.35H387.607C387.441 345.417 387.057 346.333 386.457 347.1C385.857 347.867 385.074 348.467 384.107 348.9C383.141 349.333 382.041 349.55 380.807 349.55ZM400.425 320.15V312.1H409.775V320.15H400.425ZM400.675 349V324.4H409.575V349H400.675ZM414.738 349V324.4H423.388V328.7H422.838C423.638 327.133 424.771 325.933 426.238 325.1C427.738 324.267 429.438 323.85 431.338 323.85C433.304 323.85 434.921 324.233 436.188 325C437.454 325.733 438.404 326.9 439.038 328.5C439.671 330.067 439.988 332.05 439.988 334.45V349H431.088V334.8C431.088 333.8 430.971 333 430.738 332.4C430.504 331.767 430.154 331.317 429.688 331.05C429.254 330.783 428.704 330.65 428.038 330.65C427.138 330.65 426.354 330.85 425.688 331.25C425.021 331.617 424.504 332.15 424.138 332.85C423.804 333.55 423.638 334.383 423.638 335.35V349H414.738ZM445.26 347.5V341L467.51 332.5V336.85L445.26 328.3V321.75L469.66 331.3V337.95L445.26 347.5Z" fill="#5A5A5A"/>
<line y1="7" x2="-2.18557e-06" y2="57" stroke="black" stroke-width="2"/>
<line x1="765.976" y1="7" x2="765.976" y2="57" stroke="black" stroke-width="2"/>
<line x1="-1" y1="31" x2="767" y2="31.0001" stroke="black" stroke-width="2"/>
<path d="M25.175 218V200.375H32.15C33.4167 200.375 34.4833 200.583 35.35 201C36.2333 201.4 36.9 202 37.35 202.8C37.8 203.583 38.025 204.542 38.025 205.675C38.025 206.775 37.8 207.725 37.35 208.525C36.9 209.325 36.2333 209.933 35.35 210.35C34.4833 210.767 33.4167 210.975 32.15 210.975H27.225V218H25.175ZM27.225 209.25H31.9C33.25 209.25 34.2667 208.95 34.95 208.35C35.65 207.733 36 206.842 36 205.675C36 204.492 35.65 203.6 34.95 203C34.2667 202.383 33.25 202.075 31.9 202.075H27.225V209.25ZM43.935 218.225C43.1016 218.225 42.3516 218.067 41.685 217.75C41.035 217.417 40.5183 216.967 40.135 216.4C39.7516 215.833 39.56 215.2 39.56 214.5C39.56 213.6 39.785 212.892 40.235 212.375C40.7016 211.858 41.46 211.492 42.51 211.275C43.5766 211.058 45.0266 210.95 46.86 210.95H47.985V212.275H46.885C45.8683 212.275 45.0183 212.308 44.335 212.375C43.6516 212.442 43.11 212.558 42.71 212.725C42.31 212.892 42.0266 213.108 41.86 213.375C41.6933 213.642 41.61 213.975 41.61 214.375C41.61 215.058 41.8433 215.617 42.31 216.05C42.7933 216.483 43.4433 216.7 44.26 216.7C44.9266 216.7 45.51 216.542 46.01 216.225C46.5266 215.908 46.9266 215.475 47.21 214.925C47.51 214.375 47.66 213.742 47.66 213.025V210.175C47.66 209.142 47.4516 208.4 47.035 207.95C46.6183 207.483 45.935 207.25 44.985 207.25C44.2516 207.25 43.5433 207.358 42.86 207.575C42.1766 207.775 41.4766 208.108 40.76 208.575L40.06 207.1C40.4933 206.8 40.985 206.542 41.535 206.325C42.085 206.092 42.66 205.917 43.26 205.8C43.86 205.683 44.435 205.625 44.985 205.625C46.035 205.625 46.9016 205.8 47.585 206.15C48.2683 206.483 48.7766 207 49.11 207.7C49.4433 208.383 49.61 209.267 49.61 210.35V218H47.71V215.175H47.935C47.8016 215.808 47.5433 216.35 47.16 216.8C46.7933 217.25 46.335 217.6 45.785 217.85C45.235 218.1 44.6183 218.225 43.935 218.225ZM57.9918 218.225C56.9085 218.225 55.9585 217.967 55.1418 217.45C54.3418 216.933 53.7168 216.208 53.2668 215.275C52.8335 214.325 52.6168 213.208 52.6168 211.925C52.6168 210.625 52.8335 209.508 53.2668 208.575C53.7168 207.625 54.3418 206.9 55.1418 206.4C55.9585 205.883 56.9085 205.625 57.9918 205.625C59.0918 205.625 60.0335 205.9 60.8168 206.45C61.6001 207 62.1251 207.742 62.3918 208.675H62.1168V200.375H64.1418V218H62.1668V215.1H62.4168C62.1501 216.05 61.6168 216.808 60.8168 217.375C60.0335 217.942 59.0918 218.225 57.9918 218.225ZM58.4168 216.6C59.5668 216.6 60.4751 216.2 61.1418 215.4C61.8251 214.583 62.1668 213.425 62.1668 211.925C62.1668 210.408 61.8251 209.25 61.1418 208.45C60.4751 207.65 59.5668 207.25 58.4168 207.25C57.2835 207.25 56.3751 207.65 55.6918 208.45C55.0085 209.25 54.6668 210.408 54.6668 211.925C54.6668 213.425 55.0085 214.583 55.6918 215.4C56.3751 216.2 57.2835 216.6 58.4168 216.6ZM72.567 218.225C71.4837 218.225 70.5337 217.967 69.717 217.45C68.917 216.933 68.292 216.208 67.842 215.275C67.4087 214.325 67.192 213.208 67.192 211.925C67.192 210.625 67.4087 209.508 67.842 208.575C68.292 207.625 68.917 206.9 69.717 206.4C70.5337 205.883 71.4837 205.625 72.567 205.625C73.667 205.625 74.6087 205.9 75.392 206.45C76.1753 207 76.7003 207.742 76.967 208.675H76.692V200.375H78.717V218H76.742V215.1H76.992C76.7253 216.05 76.192 216.808 75.392 217.375C74.6087 217.942 73.667 218.225 72.567 218.225ZM72.992 216.6C74.142 216.6 75.0503 216.2 75.717 215.4C76.4003 214.583 76.742 213.425 76.742 211.925C76.742 210.408 76.4003 209.25 75.717 208.45C75.0503 207.65 74.142 207.25 72.992 207.25C71.8587 207.25 70.9503 207.65 70.267 208.45C69.5837 209.25 69.242 210.408 69.242 211.925C69.242 213.425 69.5837 214.583 70.267 215.4C70.9503 216.2 71.8587 216.6 72.992 216.6ZM82.2672 202.825V200.55H84.7672V202.825H82.2672ZM82.5172 218V205.85H84.5422V218H82.5172ZM88.3277 218V205.85H90.3027V208.55H90.0277C90.3777 207.583 90.9444 206.858 91.7277 206.375C92.5277 205.875 93.4444 205.625 94.4777 205.625C95.4444 205.625 96.2444 205.8 96.8777 206.15C97.5277 206.483 98.0111 207.008 98.3277 207.725C98.6444 208.442 98.8027 209.342 98.8027 210.425V218H96.7777V210.55C96.7777 209.8 96.6777 209.183 96.4777 208.7C96.2944 208.217 95.9944 207.858 95.5777 207.625C95.1777 207.392 94.6527 207.275 94.0027 207.275C93.2694 207.275 92.6277 207.433 92.0777 207.75C91.5277 208.067 91.1027 208.508 90.8027 209.075C90.5027 209.642 90.3527 210.308 90.3527 211.075V218H88.3277ZM107.912 222.725C106.862 222.725 105.87 222.583 104.937 222.3C104.02 222.033 103.203 221.625 102.487 221.075L103.162 219.6C103.662 219.95 104.153 220.233 104.637 220.45C105.137 220.683 105.645 220.85 106.162 220.95C106.695 221.05 107.245 221.1 107.812 221.1C108.995 221.1 109.887 220.783 110.487 220.15C111.103 219.517 111.412 218.6 111.412 217.4V214.575H111.662C111.412 215.542 110.878 216.308 110.062 216.875C109.262 217.442 108.32 217.725 107.237 217.725C106.12 217.725 105.153 217.475 104.337 216.975C103.52 216.458 102.887 215.742 102.437 214.825C102.003 213.908 101.787 212.85 101.787 211.65C101.787 210.45 102.003 209.4 102.437 208.5C102.887 207.583 103.52 206.875 104.337 206.375C105.153 205.875 106.12 205.625 107.237 205.625C108.337 205.625 109.287 205.908 110.087 206.475C110.887 207.025 111.403 207.775 111.637 208.725H111.412V205.85H113.387V217.125C113.387 218.358 113.178 219.392 112.762 220.225C112.362 221.058 111.753 221.683 110.937 222.1C110.12 222.517 109.112 222.725 107.912 222.725ZM107.612 216.075C108.778 216.075 109.703 215.675 110.387 214.875C111.07 214.075 111.412 213 111.412 211.65C111.412 210.3 111.07 209.233 110.387 208.45C109.703 207.65 108.778 207.25 107.612 207.25C106.462 207.25 105.545 207.65 104.862 208.45C104.178 209.233 103.837 210.3 103.837 211.65C103.837 213 104.178 214.075 104.862 214.875C105.545 215.675 106.462 216.075 107.612 216.075ZM116.86 208.4V205.85H119.41V208.4H116.86ZM116.86 218V215.45H119.41V218H116.86ZM134.895 218.225C132.911 218.225 131.37 217.8 130.27 216.95C129.17 216.083 128.62 214.875 128.62 213.325C128.62 212.508 128.786 211.783 129.12 211.15C129.453 210.5 129.92 209.975 130.52 209.575C131.12 209.175 131.811 208.925 132.595 208.825V209.2C131.878 209.033 131.253 208.75 130.72 208.35C130.186 207.933 129.77 207.425 129.47 206.825C129.186 206.225 129.045 205.567 129.045 204.85C129.045 203.367 129.57 202.217 130.62 201.4C131.686 200.567 133.111 200.15 134.895 200.15C136.695 200.15 138.12 200.567 139.17 201.4C140.236 202.217 140.77 203.367 140.77 204.85C140.77 205.567 140.62 206.233 140.32 206.85C140.036 207.45 139.628 207.95 139.095 208.35C138.561 208.75 137.936 209.025 137.22 209.175V208.825C138.003 208.925 138.686 209.183 139.27 209.6C139.87 210 140.336 210.517 140.67 211.15C141.003 211.783 141.17 212.508 141.17 213.325C141.17 214.875 140.62 216.083 139.52 216.95C138.42 217.8 136.878 218.225 134.895 218.225ZM134.895 216.525C136.311 216.525 137.378 216.25 138.095 215.7C138.828 215.15 139.195 214.317 139.195 213.2C139.195 212.1 138.828 211.283 138.095 210.75C137.378 210.2 136.311 209.925 134.895 209.925C133.495 209.925 132.428 210.2 131.695 210.75C130.961 211.283 130.595 212.1 130.595 213.2C130.595 214.317 130.961 215.15 131.695 215.7C132.428 216.25 133.495 216.525 134.895 216.525ZM134.895 208.225C136.128 208.225 137.086 207.942 137.77 207.375C138.453 206.808 138.795 206.025 138.795 205.025C138.795 204.025 138.453 203.25 137.77 202.7C137.086 202.133 136.128 201.85 134.895 201.85C133.678 201.85 132.728 202.133 132.045 202.7C131.361 203.25 131.02 204.025 131.02 205.025C131.02 206.025 131.361 206.808 132.045 207.375C132.728 207.942 133.678 208.225 134.895 208.225ZM144.285 222.5V205.85H146.26V208.725H146.01C146.276 207.775 146.801 207.025 147.585 206.475C148.385 205.908 149.335 205.625 150.435 205.625C151.518 205.625 152.46 205.883 153.26 206.4C154.076 206.9 154.701 207.625 155.135 208.575C155.585 209.508 155.81 210.625 155.81 211.925C155.81 213.208 155.585 214.325 155.135 215.275C154.701 216.208 154.085 216.933 153.285 217.45C152.485 217.967 151.535 218.225 150.435 218.225C149.335 218.225 148.393 217.95 147.61 217.4C146.826 216.833 146.293 216.083 146.01 215.15H146.31V222.5H144.285ZM150.01 216.6C151.16 216.6 152.068 216.2 152.735 215.4C153.418 214.583 153.76 213.425 153.76 211.925C153.76 210.408 153.418 209.25 152.735 208.45C152.068 207.65 151.16 207.25 150.01 207.25C148.876 207.25 147.968 207.65 147.285 208.45C146.601 209.25 146.26 210.408 146.26 211.925C146.26 213.425 146.601 214.583 147.285 215.4C147.968 216.2 148.876 216.6 150.01 216.6ZM157.041 218L162.491 211.2V212.25L157.341 205.85H159.741L163.616 210.775H162.916L166.816 205.85H169.191L164.066 212.2V211.275L169.491 218H167.091L162.891 212.725H163.616L159.441 218H157.041ZM181.847 222.8C180.78 220.95 180.005 219.083 179.522 217.2C179.039 215.317 178.797 213.392 178.797 211.425C178.797 209.458 179.039 207.533 179.522 205.65C180.005 203.767 180.78 201.9 181.847 200.05L183.297 200.6C182.78 201.833 182.347 203.05 181.997 204.25C181.647 205.433 181.38 206.617 181.197 207.8C181.03 208.983 180.947 210.192 180.947 211.425C180.947 212.642 181.03 213.85 181.197 215.05C181.38 216.233 181.647 217.417 181.997 218.6C182.347 219.783 182.78 221 183.297 222.25L181.847 222.8ZM191.682 218.225C190.348 218.225 189.215 217.883 188.282 217.2C187.365 216.5 186.673 215.475 186.207 214.125C185.74 212.775 185.507 211.125 185.507 209.175C185.507 207.208 185.74 205.558 186.207 204.225C186.673 202.875 187.365 201.858 188.282 201.175C189.215 200.492 190.348 200.15 191.682 200.15C193.032 200.15 194.165 200.492 195.082 201.175C195.998 201.858 196.69 202.867 197.157 204.2C197.623 205.533 197.857 207.183 197.857 209.15C197.857 211.117 197.623 212.775 197.157 214.125C196.69 215.475 195.998 216.5 195.082 217.2C194.165 217.883 193.032 218.225 191.682 218.225ZM191.682 216.45C193.082 216.45 194.115 215.858 194.782 214.675C195.465 213.492 195.807 211.65 195.807 209.15C195.807 206.65 195.473 204.825 194.807 203.675C194.14 202.508 193.098 201.925 191.682 201.925C190.298 201.925 189.265 202.508 188.582 203.675C187.898 204.842 187.557 206.667 187.557 209.15C187.557 211.65 187.89 213.492 188.557 214.675C189.24 215.858 190.282 216.45 191.682 216.45ZM201.797 220.85L200.847 220.125C201.147 219.808 201.372 219.508 201.522 219.225C201.689 218.958 201.797 218.683 201.847 218.4C201.914 218.133 201.947 217.858 201.947 217.575L202.397 218H200.747V215.45H203.297V217.25C203.297 217.7 203.247 218.125 203.147 218.525C203.064 218.942 202.914 219.342 202.697 219.725C202.48 220.108 202.18 220.483 201.797 220.85ZM212.735 218.225C211.985 218.225 211.252 218.142 210.535 217.975C209.819 217.808 209.144 217.567 208.51 217.25C207.894 216.933 207.344 216.558 206.86 216.125L207.635 214.5C208.435 215.15 209.244 215.633 210.06 215.95C210.894 216.25 211.777 216.4 212.71 216.4C213.944 216.4 214.902 216.058 215.585 215.375C216.285 214.692 216.635 213.792 216.635 212.675C216.635 211.525 216.302 210.583 215.635 209.85C214.969 209.117 214.052 208.75 212.885 208.75C212.035 208.75 211.285 208.925 210.635 209.275C210.002 209.608 209.427 210.133 208.91 210.85H207.41V200.375H217.635V202.125H209.435V209.15H208.885C209.319 208.45 209.919 207.917 210.685 207.55C211.452 207.167 212.31 206.975 213.26 206.975C214.377 206.975 215.335 207.208 216.135 207.675C216.952 208.142 217.577 208.8 218.01 209.65C218.46 210.483 218.685 211.458 218.685 212.575C218.685 213.675 218.444 214.65 217.96 215.5C217.477 216.35 216.794 217.017 215.91 217.5C215.027 217.983 213.969 218.225 212.735 218.225ZM227.226 218.225C225.942 218.225 224.834 217.975 223.901 217.475C222.984 216.958 222.267 216.233 221.751 215.3C221.251 214.367 221.001 213.25 221.001 211.95C221.001 210.683 221.251 209.583 221.751 208.65C222.251 207.7 222.934 206.958 223.801 206.425C224.684 205.892 225.701 205.625 226.851 205.625C227.951 205.625 228.892 205.867 229.676 206.35C230.459 206.833 231.059 207.517 231.476 208.4C231.909 209.283 232.126 210.342 232.126 211.575V212.35H222.551V211.025H230.776L230.376 211.35C230.376 210.017 230.076 208.983 229.476 208.25C228.892 207.5 228.034 207.125 226.901 207.125C226.051 207.125 225.326 207.325 224.726 207.725C224.142 208.108 223.701 208.65 223.401 209.35C223.101 210.033 222.951 210.833 222.951 211.75V211.9C222.951 212.917 223.109 213.775 223.426 214.475C223.759 215.175 224.251 215.708 224.901 216.075C225.551 216.425 226.326 216.6 227.226 216.6C227.942 216.6 228.634 216.492 229.301 216.275C229.984 216.042 230.626 215.667 231.226 215.15L231.926 216.575C231.376 217.075 230.676 217.475 229.826 217.775C228.976 218.075 228.109 218.225 227.226 218.225ZM235.106 218V205.85H237.081V208.55H236.806C237.006 207.933 237.298 207.408 237.681 206.975C238.081 206.525 238.548 206.192 239.081 205.975C239.631 205.742 240.231 205.625 240.881 205.625C241.915 205.625 242.748 205.875 243.381 206.375C244.031 206.858 244.465 207.617 244.681 208.65H244.306C244.606 207.717 245.14 206.983 245.906 206.45C246.69 205.9 247.598 205.625 248.631 205.625C249.548 205.625 250.298 205.8 250.881 206.15C251.481 206.5 251.931 207.033 252.231 207.75C252.531 208.45 252.681 209.342 252.681 210.425V218H250.656V210.525C250.656 209.408 250.465 208.592 250.081 208.075C249.698 207.542 249.048 207.275 248.131 207.275C247.481 207.275 246.906 207.433 246.406 207.75C245.923 208.067 245.548 208.517 245.281 209.1C245.031 209.667 244.906 210.342 244.906 211.125V218H242.881V210.525C242.881 209.408 242.681 208.592 242.281 208.075C241.898 207.542 241.256 207.275 240.356 207.275C239.69 207.275 239.115 207.433 238.631 207.75C238.148 208.067 237.773 208.517 237.506 209.1C237.256 209.667 237.131 210.342 237.131 211.125V218H235.106ZM256.892 222.8L255.442 222.25C255.976 220.983 256.409 219.75 256.742 218.55C257.092 217.367 257.351 216.192 257.517 215.025C257.684 213.842 257.767 212.642 257.767 211.425C257.767 210.208 257.684 209.017 257.517 207.85C257.351 206.667 257.092 205.475 256.742 204.275C256.409 203.075 255.976 201.85 255.442 200.6L256.892 200.05C257.959 201.9 258.734 203.775 259.217 205.675C259.701 207.558 259.942 209.475 259.942 211.425C259.942 213.392 259.701 215.317 259.217 217.2C258.734 219.083 257.959 220.95 256.892 222.8Z" fill="black"/>
</g>
<defs>
<clipPath id="clip0_227_292">
<rect width="766" height="1094" fill="white"/>
</clipPath>
</defs>
</svg>
