<svg width="870" height="1115" viewBox="0 0 870 1115" fill="none" xmlns="http://www.w3.org/2000/svg">
<g clip-path="url(#clip0_222_5327)">
<rect width="870" height="1115" fill="white"/>
<rect width="870" height="183" fill="#EBEBEB"/>
<path d="M200.165 134C197.898 134 196.115 133.35 194.815 132.05C193.548 130.783 192.915 129.017 192.915 126.75V119.1C192.915 117.8 192.698 116.867 192.265 116.3C191.865 115.733 191.148 115.4 190.115 115.3L187.765 115.1V108.75L190.115 108.5C191.148 108.4 191.865 108.067 192.265 107.5C192.698 106.933 192.915 106 192.915 104.7V97C192.915 94.7 193.548 92.9167 194.815 91.65C196.115 90.3833 197.898 89.75 200.165 89.75H207.015V96.3H203.865C203.132 96.3 202.598 96.4667 202.265 96.8C201.965 97.1333 201.815 97.6833 201.815 98.45V105.8C201.815 106.867 201.582 107.883 201.115 108.85C200.648 109.783 200.015 110.55 199.215 111.15C198.448 111.75 197.615 112.05 196.715 112.05V111.85C197.615 111.85 198.448 112.133 199.215 112.7C200.015 113.267 200.648 114.033 201.115 115C201.582 115.933 201.815 116.933 201.815 118V125.3C201.815 126.033 201.965 126.567 202.265 126.9C202.598 127.267 203.132 127.45 203.865 127.45H207.015V134H200.165ZM210.589 125V100.4H219.239V104.7H218.689C219.155 103.7 219.772 102.85 220.539 102.15C221.305 101.417 222.205 100.85 223.239 100.45C224.305 100.05 225.472 99.85 226.739 99.85C228.539 99.85 230.072 100.283 231.339 101.15C232.639 102.017 233.572 103.333 234.139 105.1H233.439C234.205 103.467 235.355 102.183 236.889 101.25C238.422 100.317 240.122 99.85 241.989 99.85C243.922 99.85 245.505 100.233 246.739 101C247.972 101.733 248.889 102.9 249.489 104.5C250.122 106.067 250.439 108.05 250.439 110.45V125H241.539V110.7C241.539 109.267 241.322 108.233 240.889 107.6C240.455 106.967 239.739 106.65 238.739 106.65C237.939 106.65 237.239 106.85 236.639 107.25C236.072 107.617 235.639 108.183 235.339 108.95C235.072 109.683 234.939 110.583 234.939 111.65V125H226.039V110.7C226.039 109.267 225.822 108.233 225.389 107.6C224.955 106.967 224.239 106.65 223.239 106.65C222.439 106.65 221.755 106.85 221.189 107.25C220.622 107.617 220.189 108.183 219.889 108.95C219.622 109.683 219.489 110.583 219.489 111.65V125H210.589ZM264.156 125.55C262.256 125.55 260.573 125.2 259.106 124.5C257.673 123.8 256.539 122.85 255.706 121.65C254.906 120.417 254.506 119.017 254.506 117.45C254.506 115.65 254.973 114.233 255.906 113.2C256.839 112.167 258.339 111.433 260.406 111C262.473 110.533 265.223 110.3 268.656 110.3H271.406V114.5H268.656C267.689 114.5 266.839 114.55 266.106 114.65C265.406 114.75 264.823 114.917 264.356 115.15C263.889 115.35 263.539 115.617 263.306 115.95C263.073 116.283 262.956 116.667 262.956 117.1C262.956 117.867 263.223 118.5 263.756 119C264.323 119.5 265.123 119.75 266.156 119.75C266.989 119.75 267.723 119.567 268.356 119.2C269.023 118.833 269.556 118.333 269.956 117.7C270.356 117.033 270.556 116.267 270.556 115.4V109.6C270.556 108.4 270.239 107.55 269.606 107.05C269.006 106.55 267.956 106.3 266.456 106.3C265.189 106.3 263.789 106.5 262.256 106.9C260.723 107.3 259.223 107.917 257.756 108.75L255.506 102.9C256.373 102.3 257.439 101.767 258.706 101.3C260.006 100.833 261.373 100.483 262.806 100.25C264.273 99.9833 265.623 99.85 266.856 99.85C269.589 99.85 271.839 100.25 273.606 101.05C275.406 101.817 276.739 103.017 277.606 104.65C278.506 106.25 278.956 108.317 278.956 110.85V125H270.656V120.35H270.956C270.789 121.417 270.406 122.333 269.806 123.1C269.206 123.867 268.423 124.467 267.456 124.9C266.489 125.333 265.389 125.55 264.156 125.55ZM280.274 125L292.324 110.35V114.3L280.924 100.4H291.274L297.324 108.2H294.224L300.274 100.4H310.574L299.174 114.3V110.35L311.324 125H300.924L294.224 116.5H297.274L290.574 125H280.274ZM312.259 115.05V108.1H328.259V115.05H312.259ZM340.244 125L329.894 100.4H338.894L344.894 116.1H343.844L349.744 100.4H355.294L361.194 116.1H360.294L366.194 100.4H374.644L364.394 125H357.044L350.294 108.25H353.944L347.594 125H340.244ZM376.352 96.15V88.1H385.702V96.15H376.352ZM376.602 125V100.4H385.502V125H376.602ZM400.264 125.55C398.164 125.55 396.298 125.033 394.664 124C393.064 122.967 391.798 121.483 390.864 119.55C389.964 117.617 389.514 115.333 389.514 112.7C389.514 110 389.964 107.7 390.864 105.8C391.798 103.9 393.064 102.433 394.664 101.4C396.298 100.367 398.164 99.85 400.264 99.85C402.098 99.85 403.748 100.283 405.214 101.15C406.681 102.017 407.664 103.133 408.164 104.5H407.614V89.75H416.514V125H407.814V120.55H408.264C407.798 122.05 406.814 123.267 405.314 124.2C403.848 125.1 402.164 125.55 400.264 125.55ZM403.114 119C404.448 119 405.548 118.5 406.414 117.5C407.281 116.5 407.714 114.9 407.714 112.7C407.714 110.467 407.281 108.867 406.414 107.9C405.548 106.9 404.448 106.4 403.114 106.4C401.748 106.4 400.631 106.9 399.764 107.9C398.898 108.867 398.464 110.467 398.464 112.7C398.464 114.9 398.898 116.5 399.764 117.5C400.631 118.5 401.748 119 403.114 119ZM434.57 125.55C430.837 125.55 428.07 124.683 426.27 122.95C424.47 121.217 423.57 118.6 423.57 115.1V106.95H418.97V100.4H423.57V93.25H432.47V100.4H439.47V106.95H432.47V114.8C432.47 116.033 432.754 116.95 433.32 117.55C433.92 118.117 434.854 118.4 436.12 118.4C436.52 118.4 436.954 118.35 437.42 118.25C437.92 118.15 438.47 118.033 439.07 117.9L440.27 124.3C439.504 124.7 438.604 125 437.57 125.2C436.57 125.433 435.57 125.55 434.57 125.55ZM442.959 125V89.75H451.859V104.7H451.059C451.859 103.133 452.993 101.933 454.459 101.1C455.959 100.267 457.659 99.85 459.559 99.85C461.526 99.85 463.143 100.233 464.409 101C465.676 101.733 466.626 102.9 467.259 104.5C467.893 106.067 468.209 108.05 468.209 110.45V125H459.309V110.8C459.309 109.8 459.193 109 458.959 108.4C458.726 107.767 458.376 107.317 457.909 107.05C457.476 106.783 456.926 106.65 456.259 106.65C455.359 106.65 454.576 106.85 453.909 107.25C453.243 107.617 452.726 108.15 452.359 108.85C452.026 109.55 451.859 110.383 451.859 111.35V125H442.959ZM472.832 109.5V100.4H482.082V109.5H472.832ZM472.832 125V115.9H482.082V125H472.832ZM513.611 125.55C509.345 125.55 505.978 124.65 503.511 122.85C501.078 121.05 499.861 118.55 499.861 115.35C499.861 113.65 500.195 112.15 500.861 110.85C501.561 109.55 502.511 108.5 503.711 107.7C504.911 106.867 506.278 106.367 507.811 106.2V107.65C506.411 107.35 505.178 106.8 504.111 106C503.078 105.167 502.261 104.15 501.661 102.95C501.095 101.717 500.811 100.35 500.811 98.85C500.811 95.85 501.961 93.5 504.261 91.8C506.561 90.0667 509.678 89.2 513.611 89.2C517.578 89.2 520.695 90.0667 522.961 91.8C525.261 93.5 526.411 95.85 526.411 98.85C526.411 100.35 526.111 101.733 525.511 103C524.945 104.233 524.145 105.25 523.111 106.05C522.111 106.85 520.945 107.367 519.611 107.6V106.2C521.111 106.433 522.445 106.967 523.611 107.8C524.778 108.6 525.695 109.65 526.361 110.95C527.028 112.217 527.361 113.683 527.361 115.35C527.361 118.55 526.128 121.05 523.661 122.85C521.228 124.65 517.878 125.55 513.611 125.55ZM513.611 118.65C515.378 118.65 516.728 118.317 517.661 117.65C518.595 116.95 519.061 115.95 519.061 114.65C519.061 113.317 518.595 112.317 517.661 111.65C516.728 110.983 515.378 110.65 513.611 110.65C511.845 110.65 510.495 110.983 509.561 111.65C508.628 112.317 508.161 113.317 508.161 114.65C508.161 115.95 508.628 116.95 509.561 117.65C510.495 118.317 511.845 118.65 513.611 118.65ZM513.611 103.7C515.045 103.7 516.145 103.367 516.911 102.7C517.711 102 518.111 101.067 518.111 99.9C518.111 98.7333 517.711 97.8167 516.911 97.15C516.145 96.45 515.045 96.1 513.611 96.1C512.211 96.1 511.111 96.45 510.311 97.15C509.545 97.8167 509.161 98.7333 509.161 99.9C509.161 101.067 509.545 102 510.311 102.7C511.111 103.367 512.211 103.7 513.611 103.7ZM531.292 125L548.042 94.6V97.25H530.592V89.75H556.642V96.65L541.342 125H531.292ZM573.572 125.55C570.672 125.55 568.222 124.833 566.222 123.4C564.222 121.967 562.706 119.9 561.672 117.2C560.639 114.467 560.122 111.15 560.122 107.25C560.122 103.317 560.639 100.017 561.672 97.35C562.706 94.65 564.222 92.6167 566.222 91.25C568.222 89.8833 570.672 89.2 573.572 89.2C576.472 89.2 578.922 89.8833 580.922 91.25C582.922 92.6167 584.439 94.65 585.472 97.35C586.506 100.017 587.022 103.3 587.022 107.2C587.022 111.1 586.506 114.417 585.472 117.15C584.439 119.883 582.922 121.967 580.922 123.4C578.922 124.833 576.472 125.55 573.572 125.55ZM573.572 118.25C575.172 118.25 576.356 117.383 577.122 115.65C577.922 113.883 578.322 111.067 578.322 107.2C578.322 103.367 577.922 100.633 577.122 99C576.356 97.3333 575.172 96.5 573.572 96.5C571.972 96.5 570.772 97.3333 569.972 99C569.206 100.633 568.822 103.383 568.822 107.25C568.822 111.083 569.206 113.883 569.972 115.65C570.772 117.383 571.972 118.25 573.572 118.25ZM591.153 134V100.4H599.803V104.85H599.353C599.819 103.35 600.786 102.15 602.253 101.25C603.753 100.317 605.453 99.85 607.353 99.85C609.486 99.85 611.353 100.367 612.953 101.4C614.586 102.433 615.853 103.9 616.753 105.8C617.653 107.7 618.103 110 618.103 112.7C618.103 115.333 617.653 117.617 616.753 119.55C615.853 121.483 614.586 122.967 612.953 124C611.353 125.033 609.486 125.55 607.353 125.55C605.519 125.55 603.869 125.117 602.403 124.25C600.936 123.383 599.953 122.25 599.453 120.85H600.053V134H591.153ZM604.553 119C605.886 119 606.986 118.5 607.853 117.5C608.719 116.5 609.153 114.9 609.153 112.7C609.153 110.467 608.719 108.867 607.853 107.9C606.986 106.9 605.886 106.4 604.553 106.4C603.186 106.4 602.069 106.9 601.203 107.9C600.336 108.867 599.903 110.467 599.903 112.7C599.903 114.9 600.336 116.5 601.203 117.5C602.069 118.5 603.186 119 604.553 119ZM617.725 125L629.775 110.35V114.3L618.375 100.4H628.725L634.775 108.2H631.675L637.725 100.4H648.025L636.625 114.3V110.35L648.775 125H638.375L631.675 116.5H634.725L628.025 125H617.725ZM653.838 132.75L650.488 130.1C651.355 129.233 652.055 128.417 652.588 127.65C653.122 126.883 653.505 126.1 653.738 125.3C653.972 124.533 654.088 123.717 654.088 122.85L656.088 125H649.638V115.9H658.888V121.65C658.888 123.017 658.722 124.317 658.388 125.55C658.088 126.783 657.572 127.983 656.838 129.15C656.105 130.317 655.105 131.517 653.838 132.75ZM649.638 109.5V100.4H658.888V109.5H649.638ZM661.961 134V127.45H665.111C665.811 127.45 666.311 127.267 666.611 126.9C666.945 126.567 667.111 126.033 667.111 125.3V118C667.111 116.933 667.345 115.933 667.811 115C668.311 114.033 668.945 113.267 669.711 112.7C670.511 112.133 671.361 111.85 672.261 111.85V112.05C671.361 112.05 670.511 111.75 669.711 111.15C668.945 110.55 668.311 109.783 667.811 108.85C667.345 107.883 667.111 106.867 667.111 105.8V98.45C667.111 97.6833 666.945 97.1333 666.611 96.8C666.311 96.4667 665.811 96.3 665.111 96.3H661.961V89.75H668.761C671.028 89.75 672.795 90.3833 674.061 91.65C675.361 92.9167 676.011 94.7 676.011 97V104.7C676.011 106 676.228 106.933 676.661 107.5C677.095 108.067 677.828 108.4 678.861 108.5L681.161 108.75V115.1L678.861 115.3C677.828 115.4 677.095 115.733 676.661 116.3C676.228 116.867 676.011 117.8 676.011 119.1V126.75C676.011 129.05 675.361 130.833 674.061 132.1C672.795 133.367 671.028 134 668.761 134H661.961Z" fill="#5A5A5A"/>
<rect x="5" y="188" width="860" height="45" fill="#D9D9D9" stroke="#DA08FF" stroke-width="10"/>
<rect y="238" width="867.734" height="877" fill="white"/>
<path d="M396.657 220.1L382.017 214.37V210.38L396.657 204.65V208.58L383.337 213.71V211.1L396.657 216.2V220.1ZM405.015 221.33C403.875 221.33 402.865 221.12 401.985 220.7C401.125 220.28 400.445 219.71 399.945 218.99C399.465 218.25 399.225 217.41 399.225 216.47C399.225 215.39 399.505 214.54 400.065 213.92C400.625 213.3 401.525 212.86 402.765 212.6C404.005 212.32 405.655 212.18 407.715 212.18H409.365V214.7H407.715C407.135 214.7 406.625 214.73 406.185 214.79C405.765 214.85 405.415 214.95 405.135 215.09C404.855 215.21 404.645 215.37 404.505 215.57C404.365 215.77 404.295 216 404.295 216.26C404.295 216.72 404.455 217.1 404.775 217.4C405.115 217.7 405.595 217.85 406.215 217.85C406.715 217.85 407.155 217.74 407.535 217.52C407.935 217.3 408.255 217 408.495 216.62C408.735 216.22 408.855 215.76 408.855 215.24V211.76C408.855 211.04 408.665 210.53 408.285 210.23C407.925 209.93 407.295 209.78 406.395 209.78C405.635 209.78 404.795 209.9 403.875 210.14C402.955 210.38 402.055 210.75 401.175 211.25L399.825 207.74C400.345 207.38 400.985 207.06 401.745 206.78C402.525 206.5 403.345 206.29 404.205 206.15C405.085 205.99 405.895 205.91 406.635 205.91C408.275 205.91 409.625 206.15 410.685 206.63C411.765 207.09 412.565 207.81 413.085 208.79C413.625 209.75 413.895 210.99 413.895 212.51V221H408.915V218.21H409.095C408.995 218.85 408.765 219.4 408.405 219.86C408.045 220.32 407.575 220.68 406.995 220.94C406.415 221.2 405.755 221.33 405.015 221.33ZM422.816 221.33C421.916 221.33 421.046 221.27 420.206 221.15C419.386 221.03 418.636 220.85 417.956 220.61C417.276 220.37 416.666 220.08 416.126 219.74L417.356 216.29C417.856 216.57 418.406 216.82 419.006 217.04C419.626 217.26 420.266 217.43 420.926 217.55C421.586 217.67 422.226 217.73 422.846 217.73C423.586 217.73 424.116 217.63 424.436 217.43C424.756 217.21 424.916 216.93 424.916 216.59C424.916 216.29 424.806 216.06 424.586 215.9C424.386 215.74 424.096 215.63 423.716 215.57L420.386 215.03C419.146 214.81 418.186 214.36 417.506 213.68C416.826 212.98 416.486 212.07 416.486 210.95C416.486 209.91 416.776 209.02 417.356 208.28C417.956 207.52 418.766 206.94 419.786 206.54C420.826 206.12 422.016 205.91 423.356 205.91C424.076 205.91 424.786 205.97 425.486 206.09C426.186 206.19 426.856 206.36 427.496 206.6C428.136 206.82 428.716 207.12 429.236 207.5L427.916 210.89C427.536 210.61 427.086 210.37 426.566 210.17C426.046 209.97 425.506 209.81 424.946 209.69C424.406 209.55 423.906 209.48 423.446 209.48C422.626 209.48 422.046 209.59 421.706 209.81C421.366 210.03 421.196 210.31 421.196 210.65C421.196 210.91 421.286 211.13 421.466 211.31C421.646 211.47 421.926 211.58 422.306 211.64L425.636 212.21C426.916 212.41 427.896 212.85 428.576 213.53C429.276 214.19 429.626 215.09 429.626 216.23C429.626 217.31 429.346 218.23 428.786 218.99C428.226 219.75 427.436 220.33 426.416 220.73C425.396 221.13 424.196 221.33 422.816 221.33ZM431.669 203.69V198.86H437.279V203.69H431.669ZM431.819 221V206.24H437.159V221H431.819ZM446.016 221.33C444.756 221.33 443.636 221.02 442.656 220.4C441.696 219.78 440.936 218.89 440.376 217.73C439.836 216.57 439.566 215.2 439.566 213.62C439.566 212 439.836 210.62 440.376 209.48C440.936 208.34 441.696 207.46 442.656 206.84C443.636 206.22 444.756 205.91 446.016 205.91C447.116 205.91 448.106 206.17 448.986 206.69C449.866 207.21 450.456 207.88 450.756 208.7H450.426V199.85H455.766V221H450.546V218.33H450.816C450.536 219.23 449.946 219.96 449.046 220.52C448.166 221.06 447.156 221.33 446.016 221.33ZM447.726 217.4C448.526 217.4 449.186 217.1 449.706 216.5C450.226 215.9 450.486 214.94 450.486 213.62C450.486 212.28 450.226 211.32 449.706 210.74C449.186 210.14 448.526 209.84 447.726 209.84C446.906 209.84 446.236 210.14 445.716 210.74C445.196 211.32 444.936 212.28 444.936 213.62C444.936 214.94 445.196 215.9 445.716 216.5C446.236 217.1 446.906 217.4 447.726 217.4ZM466.9 221.33C465.1 221.33 463.54 221.02 462.22 220.4C460.92 219.76 459.92 218.86 459.22 217.7C458.52 216.54 458.17 215.17 458.17 213.59C458.17 212.07 458.5 210.74 459.16 209.6C459.84 208.44 460.76 207.54 461.92 206.9C463.1 206.24 464.44 205.91 465.94 205.91C467.44 205.91 468.73 206.22 469.81 206.84C470.89 207.46 471.72 208.35 472.3 209.51C472.9 210.65 473.2 211.99 473.2 213.53V214.7H462.64V212.18H469.3L468.82 212.57C468.82 211.49 468.59 210.69 468.13 210.17C467.67 209.63 467.02 209.36 466.18 209.36C465.56 209.36 465.02 209.51 464.56 209.81C464.12 210.09 463.78 210.51 463.54 211.07C463.3 211.63 463.18 212.33 463.18 213.17V213.44C463.18 214.38 463.31 215.14 463.57 215.72C463.85 216.3 464.28 216.73 464.86 217.01C465.44 217.27 466.17 217.4 467.05 217.4C467.81 217.4 468.6 217.29 469.42 217.07C470.26 216.83 471 216.49 471.64 216.05L472.96 219.56C472.2 220.1 471.27 220.53 470.17 220.85C469.07 221.17 467.98 221.33 466.9 221.33ZM475.62 220.1V216.2L488.97 211.1V213.71L475.62 208.58V204.65L490.26 210.38V214.37L475.62 220.1Z" fill="#5A5A5A"/>
<path d="M373.76 306.5L349.36 296.95V290.3L373.76 280.75V287.3L351.56 295.85V291.5L373.76 300V306.5ZM379.24 308V283.4H387.89V287.7H387.34C387.807 286.7 388.423 285.85 389.19 285.15C389.957 284.417 390.857 283.85 391.89 283.45C392.957 283.05 394.123 282.85 395.39 282.85C397.19 282.85 398.723 283.283 399.99 284.15C401.29 285.017 402.223 286.333 402.79 288.1H402.09C402.857 286.467 404.007 285.183 405.54 284.25C407.073 283.317 408.773 282.85 410.64 282.85C412.573 282.85 414.157 283.233 415.39 284C416.623 284.733 417.54 285.9 418.14 287.5C418.773 289.067 419.09 291.05 419.09 293.45V308H410.19V293.7C410.19 292.267 409.973 291.233 409.54 290.6C409.107 289.967 408.39 289.65 407.39 289.65C406.59 289.65 405.89 289.85 405.29 290.25C404.723 290.617 404.29 291.183 403.99 291.95C403.723 292.683 403.59 293.583 403.59 294.65V308H394.69V293.7C394.69 292.267 394.473 291.233 394.04 290.6C393.607 289.967 392.89 289.65 391.89 289.65C391.09 289.65 390.407 289.85 389.84 290.25C389.273 290.617 388.84 291.183 388.54 291.95C388.273 292.683 388.14 293.583 388.14 294.65V308H379.24ZM432.807 308.55C430.907 308.55 429.224 308.2 427.757 307.5C426.324 306.8 425.191 305.85 424.357 304.65C423.557 303.417 423.157 302.017 423.157 300.45C423.157 298.65 423.624 297.233 424.557 296.2C425.491 295.167 426.991 294.433 429.057 294C431.124 293.533 433.874 293.3 437.307 293.3H440.057V297.5H437.307C436.341 297.5 435.491 297.55 434.757 297.65C434.057 297.75 433.474 297.917 433.007 298.15C432.541 298.35 432.191 298.617 431.957 298.95C431.724 299.283 431.607 299.667 431.607 300.1C431.607 300.867 431.874 301.5 432.407 302C432.974 302.5 433.774 302.75 434.807 302.75C435.641 302.75 436.374 302.567 437.007 302.2C437.674 301.833 438.207 301.333 438.607 300.7C439.007 300.033 439.207 299.267 439.207 298.4V292.6C439.207 291.4 438.891 290.55 438.257 290.05C437.657 289.55 436.607 289.3 435.107 289.3C433.841 289.3 432.441 289.5 430.907 289.9C429.374 290.3 427.874 290.917 426.407 291.75L424.157 285.9C425.024 285.3 426.091 284.767 427.357 284.3C428.657 283.833 430.024 283.483 431.457 283.25C432.924 282.983 434.274 282.85 435.507 282.85C438.241 282.85 440.491 283.25 442.257 284.05C444.057 284.817 445.391 286.017 446.257 287.65C447.157 289.25 447.607 291.317 447.607 293.85V308H439.307V303.35H439.607C439.441 304.417 439.057 305.333 438.457 306.1C437.857 306.867 437.074 307.467 436.107 307.9C435.141 308.333 434.041 308.55 432.807 308.55ZM452.425 279.15V271.1H461.775V279.15H452.425ZM452.675 308V283.4H461.575V308H452.675ZM466.738 308V283.4H475.388V287.7H474.838C475.638 286.133 476.771 284.933 478.238 284.1C479.738 283.267 481.438 282.85 483.338 282.85C485.304 282.85 486.921 283.233 488.188 284C489.454 284.733 490.404 285.9 491.038 287.5C491.671 289.067 491.988 291.05 491.988 293.45V308H483.088V293.8C483.088 292.8 482.971 292 482.738 291.4C482.504 290.767 482.154 290.317 481.688 290.05C481.254 289.783 480.704 289.65 480.038 289.65C479.138 289.65 478.354 289.85 477.688 290.25C477.021 290.617 476.504 291.15 476.138 291.85C475.804 292.55 475.638 293.383 475.638 294.35V308H466.738ZM497.26 306.5V300L519.51 291.5V295.85L497.26 287.3V280.75L521.66 290.3V296.95L497.26 306.5Z" fill="#5A5A5A"/>
<path d="M31.62 288V273.24H36.81V275.82H36.48C36.76 275.22 37.13 274.71 37.59 274.29C38.05 273.85 38.59 273.51 39.21 273.27C39.85 273.03 40.55 272.91 41.31 272.91C42.39 272.91 43.31 273.17 44.07 273.69C44.85 274.21 45.41 275 45.75 276.06H45.33C45.79 275.08 46.48 274.31 47.4 273.75C48.32 273.19 49.34 272.91 50.46 272.91C51.62 272.91 52.57 273.14 53.31 273.6C54.05 274.04 54.6 274.74 54.96 275.7C55.34 276.64 55.53 277.83 55.53 279.27V288H50.19V279.42C50.19 278.56 50.06 277.94 49.8 277.56C49.54 277.18 49.11 276.99 48.51 276.99C48.03 276.99 47.61 277.11 47.25 277.35C46.91 277.57 46.65 277.91 46.47 278.37C46.31 278.81 46.23 279.35 46.23 279.99V288H40.89V279.42C40.89 278.56 40.76 277.94 40.5 277.56C40.24 277.18 39.81 276.99 39.21 276.99C38.73 276.99 38.32 277.11 37.98 277.35C37.64 277.57 37.38 277.91 37.2 278.37C37.04 278.81 36.96 279.35 36.96 279.99V288H31.62ZM63.7603 288.33C62.6203 288.33 61.6103 288.12 60.7303 287.7C59.8703 287.28 59.1903 286.71 58.6903 285.99C58.2103 285.25 57.9703 284.41 57.9703 283.47C57.9703 282.39 58.2503 281.54 58.8103 280.92C59.3703 280.3 60.2703 279.86 61.5103 279.6C62.7503 279.32 64.4003 279.18 66.4603 279.18H68.1103V281.7H66.4603C65.8803 281.7 65.3703 281.73 64.9303 281.79C64.5103 281.85 64.1603 281.95 63.8803 282.09C63.6003 282.21 63.3903 282.37 63.2503 282.57C63.1103 282.77 63.0403 283 63.0403 283.26C63.0403 283.72 63.2003 284.1 63.5203 284.4C63.8603 284.7 64.3403 284.85 64.9603 284.85C65.4603 284.85 65.9003 284.74 66.2803 284.52C66.6803 284.3 67.0003 284 67.2403 283.62C67.4803 283.22 67.6003 282.76 67.6003 282.24V278.76C67.6003 278.04 67.4103 277.53 67.0303 277.23C66.6703 276.93 66.0403 276.78 65.1403 276.78C64.3803 276.78 63.5403 276.9 62.6203 277.14C61.7003 277.38 60.8003 277.75 59.9203 278.25L58.5703 274.74C59.0903 274.38 59.7303 274.06 60.4903 273.78C61.2703 273.5 62.0903 273.29 62.9503 273.15C63.8303 272.99 64.6403 272.91 65.3803 272.91C67.0203 272.91 68.3703 273.15 69.4303 273.63C70.5103 274.09 71.3103 274.81 71.8303 275.79C72.3703 276.75 72.6403 277.99 72.6403 279.51V288H67.6603V285.21H67.8403C67.7403 285.85 67.5103 286.4 67.1503 286.86C66.7903 287.32 66.3203 287.68 65.7403 287.94C65.1603 288.2 64.5003 288.33 63.7603 288.33ZM75.6811 288V273.24H80.8711V276.87H80.5711C80.7711 275.67 81.2711 274.74 82.0711 274.08C82.8911 273.4 83.9611 273.02 85.2811 272.94L86.7511 272.82L87.0511 277.32L84.1411 277.59C83.0811 277.69 82.3111 277.99 81.8311 278.49C81.3511 278.97 81.1111 279.69 81.1111 280.65V288H75.6811ZM95.7452 293.73C94.2652 293.73 92.8752 293.59 91.5752 293.31C90.2952 293.03 89.1952 292.57 88.2752 291.93L89.6552 288.33C90.1752 288.63 90.7552 288.89 91.3952 289.11C92.0552 289.35 92.7152 289.52 93.3752 289.62C94.0352 289.74 94.6552 289.8 95.2352 289.8C96.4552 289.8 97.3652 289.54 97.9652 289.02C98.5852 288.52 98.8952 287.73 98.8952 286.65V284.76H99.1352C98.8352 285.6 98.2252 286.29 97.3052 286.83C96.3852 287.35 95.3852 287.61 94.3052 287.61C92.9852 287.61 91.8352 287.31 90.8552 286.71C89.8752 286.09 89.1052 285.23 88.5452 284.13C88.0052 283.03 87.7352 281.74 87.7352 280.26C87.7352 278.78 88.0052 277.49 88.5452 276.39C89.1052 275.29 89.8752 274.44 90.8552 273.84C91.8352 273.22 92.9852 272.91 94.3052 272.91C95.4252 272.91 96.4252 273.17 97.3052 273.69C98.2052 274.21 98.8052 274.89 99.1052 275.73H98.8652V273.24H104.085V286.02C104.085 287.74 103.765 289.17 103.125 290.31C102.485 291.45 101.545 292.3 100.305 292.86C99.0652 293.44 97.5452 293.73 95.7452 293.73ZM95.9552 283.68C96.8352 283.68 97.5352 283.38 98.0552 282.78C98.5752 282.18 98.8352 281.34 98.8352 280.26C98.8352 279.18 98.5752 278.34 98.0552 277.74C97.5352 277.14 96.8352 276.84 95.9552 276.84C95.0952 276.84 94.4052 277.14 93.8852 277.74C93.3652 278.34 93.1052 279.18 93.1052 280.26C93.1052 281.34 93.3652 282.18 93.8852 282.78C94.4052 283.38 95.0952 283.68 95.9552 283.68ZM107.055 270.69V265.86H112.665V270.69H107.055ZM107.205 288V273.24H112.545V288H107.205ZM115.642 288V273.24H120.832V275.82H120.502C120.982 274.88 121.662 274.16 122.542 273.66C123.442 273.16 124.462 272.91 125.602 272.91C126.782 272.91 127.752 273.14 128.512 273.6C129.272 274.04 129.842 274.74 130.222 275.7C130.602 276.64 130.792 277.83 130.792 279.27V288H125.452V279.48C125.452 278.88 125.382 278.4 125.242 278.04C125.102 277.66 124.892 277.39 124.612 277.23C124.352 277.07 124.022 276.99 123.622 276.99C123.082 276.99 122.612 277.11 122.212 277.35C121.812 277.57 121.502 277.89 121.282 278.31C121.082 278.73 120.982 279.23 120.982 279.81V288H115.642ZM133.565 278.7V273.24H139.115V278.7H133.565ZM133.565 288V282.54H139.115V288H133.565ZM32.7 329V324.53H37.41V312.44H39.93L33.84 315.92L31.83 311.93L39.03 307.85H42.9V324.53H47.31V329H32.7ZM56.8383 329.33C55.8983 329.33 54.9583 329.23 54.0183 329.03C53.0983 328.85 52.2383 328.59 51.4383 328.25C50.6383 327.91 49.9683 327.52 49.4283 327.08L51.1083 322.97C51.9883 323.57 52.8983 324.03 53.8383 324.35C54.7983 324.65 55.7583 324.8 56.7183 324.8C57.7383 324.8 58.5283 324.58 59.0883 324.14C59.6483 323.7 59.9283 323.08 59.9283 322.28C59.9283 321.48 59.6583 320.85 59.1183 320.39C58.5783 319.93 57.8583 319.7 56.9583 319.7C56.2783 319.7 55.6483 319.82 55.0683 320.06C54.5083 320.28 53.9783 320.62 53.4783 321.08H50.0283V307.85H63.8283V312.32H55.2183V317.03H53.9583C54.4383 316.47 55.0583 316.05 55.8183 315.77C56.5983 315.47 57.4583 315.32 58.3983 315.32C59.7383 315.32 60.9183 315.61 61.9383 316.19C62.9583 316.75 63.7483 317.54 64.3083 318.56C64.8883 319.58 65.1783 320.77 65.1783 322.13C65.1783 323.57 64.8383 324.84 64.1583 325.94C63.4983 327.02 62.5383 327.86 61.2783 328.46C60.0383 329.04 58.5583 329.33 56.8383 329.33ZM67.5366 334.4V314.24H72.7266V316.91H72.4566C72.7366 316.01 73.3166 315.29 74.1966 314.75C75.0966 314.19 76.1166 313.91 77.2566 313.91C78.5366 313.91 79.6566 314.22 80.6166 314.84C81.5966 315.46 82.3566 316.34 82.8966 317.48C83.4366 318.62 83.7066 320 83.7066 321.62C83.7066 323.2 83.4366 324.57 82.8966 325.73C82.3566 326.89 81.5966 327.78 80.6166 328.4C79.6566 329.02 78.5366 329.33 77.2566 329.33C76.1566 329.33 75.1666 329.07 74.2866 328.55C73.4066 328.03 72.8166 327.35 72.5166 326.51H72.8766V334.4H67.5366ZM75.5766 325.4C76.3766 325.4 77.0366 325.1 77.5566 324.5C78.0766 323.9 78.3366 322.94 78.3366 321.62C78.3366 320.28 78.0766 319.32 77.5566 318.74C77.0366 318.14 76.3766 317.84 75.5766 317.84C74.7566 317.84 74.0866 318.14 73.5666 318.74C73.0466 319.32 72.7866 320.28 72.7866 321.62C72.7866 322.94 73.0466 323.9 73.5666 324.5C74.0866 325.1 74.7566 325.4 75.5766 325.4ZM83.4799 329L90.7099 320.21V322.58L83.8699 314.24H90.0799L93.7099 318.92H91.8499L95.4799 314.24H101.66L94.8199 322.58V320.21L102.11 329H95.8699L91.8499 323.9H93.6799L89.6599 329H83.4799Z" fill="#5A5A5A"/>
<path d="M28.56 184.4V164.24H33.75V166.91H33.48C33.76 166.01 34.34 165.29 35.22 164.75C36.12 164.19 37.14 163.91 38.28 163.91C39.56 163.91 40.68 164.22 41.64 164.84C42.62 165.46 43.38 166.34 43.92 167.48C44.46 168.62 44.73 170 44.73 171.62C44.73 173.2 44.46 174.57 43.92 175.73C43.38 176.89 42.62 177.78 41.64 178.4C40.68 179.02 39.56 179.33 38.28 179.33C37.18 179.33 36.19 179.07 35.31 178.55C34.43 178.03 33.84 177.35 33.54 176.51H33.9V184.4H28.56ZM36.6 175.4C37.4 175.4 38.06 175.1 38.58 174.5C39.1 173.9 39.36 172.94 39.36 171.62C39.36 170.28 39.1 169.32 38.58 168.74C38.06 168.14 37.4 167.84 36.6 167.84C35.78 167.84 35.11 168.14 34.59 168.74C34.07 169.32 33.81 170.28 33.81 171.62C33.81 172.94 34.07 173.9 34.59 174.5C35.11 175.1 35.78 175.4 36.6 175.4ZM52.2935 179.33C51.1535 179.33 50.1435 179.12 49.2635 178.7C48.4035 178.28 47.7235 177.71 47.2235 176.99C46.7435 176.25 46.5035 175.41 46.5035 174.47C46.5035 173.39 46.7835 172.54 47.3435 171.92C47.9035 171.3 48.8035 170.86 50.0435 170.6C51.2835 170.32 52.9335 170.18 54.9935 170.18H56.6435V172.7H54.9935C54.4135 172.7 53.9035 172.73 53.4635 172.79C53.0435 172.85 52.6935 172.95 52.4135 173.09C52.1335 173.21 51.9235 173.37 51.7835 173.57C51.6435 173.77 51.5735 174 51.5735 174.26C51.5735 174.72 51.7335 175.1 52.0535 175.4C52.3935 175.7 52.8735 175.85 53.4935 175.85C53.9935 175.85 54.4335 175.74 54.8135 175.52C55.2135 175.3 55.5335 175 55.7735 174.62C56.0135 174.22 56.1335 173.76 56.1335 173.24V169.76C56.1335 169.04 55.9435 168.53 55.5635 168.23C55.2035 167.93 54.5735 167.78 53.6735 167.78C52.9135 167.78 52.0735 167.9 51.1535 168.14C50.2335 168.38 49.3335 168.75 48.4535 169.25L47.1035 165.74C47.6235 165.38 48.2635 165.06 49.0235 164.78C49.8035 164.5 50.6235 164.29 51.4835 164.15C52.3635 163.99 53.1735 163.91 53.9135 163.91C55.5535 163.91 56.9035 164.15 57.9635 164.63C59.0435 165.09 59.8435 165.81 60.3635 166.79C60.9035 167.75 61.1735 168.99 61.1735 170.51V179H56.1935V176.21H56.3735C56.2735 176.85 56.0435 177.4 55.6835 177.86C55.3235 178.32 54.8535 178.68 54.2735 178.94C53.6935 179.2 53.0335 179.33 52.2935 179.33ZM69.9743 179.33C68.7143 179.33 67.5943 179.02 66.6143 178.4C65.6543 177.78 64.8943 176.89 64.3343 175.73C63.7943 174.57 63.5243 173.2 63.5243 171.62C63.5243 170 63.7943 168.62 64.3343 167.48C64.8943 166.34 65.6543 165.46 66.6143 164.84C67.5943 164.22 68.7143 163.91 69.9743 163.91C71.0743 163.91 72.0643 164.17 72.9443 164.69C73.8243 165.21 74.4143 165.88 74.7143 166.7H74.3843V157.85H79.7243V179H74.5043V176.33H74.7743C74.4943 177.23 73.9043 177.96 73.0043 178.52C72.1243 179.06 71.1143 179.33 69.9743 179.33ZM71.6843 175.4C72.4843 175.4 73.1443 175.1 73.6643 174.5C74.1843 173.9 74.4443 172.94 74.4443 171.62C74.4443 170.28 74.1843 169.32 73.6643 168.74C73.1443 168.14 72.4843 167.84 71.6843 167.84C70.8643 167.84 70.1943 168.14 69.6743 168.74C69.1543 169.32 68.8943 170.28 68.8943 171.62C68.8943 172.94 69.1543 173.9 69.6743 174.5C70.1943 175.1 70.8643 175.4 71.6843 175.4ZM88.5778 179.33C87.3178 179.33 86.1978 179.02 85.2178 178.4C84.2578 177.78 83.4978 176.89 82.9378 175.73C82.3978 174.57 82.1278 173.2 82.1278 171.62C82.1278 170 82.3978 168.62 82.9378 167.48C83.4978 166.34 84.2578 165.46 85.2178 164.84C86.1978 164.22 87.3178 163.91 88.5778 163.91C89.6778 163.91 90.6678 164.17 91.5478 164.69C92.4278 165.21 93.0178 165.88 93.3178 166.7H92.9878V157.85H98.3278V179H93.1078V176.33H93.3778C93.0978 177.23 92.5078 177.96 91.6078 178.52C90.7278 179.06 89.7178 179.33 88.5778 179.33ZM90.2878 175.4C91.0878 175.4 91.7478 175.1 92.2678 174.5C92.7878 173.9 93.0478 172.94 93.0478 171.62C93.0478 170.28 92.7878 169.32 92.2678 168.74C91.7478 168.14 91.0878 167.84 90.2878 167.84C89.4678 167.84 88.7978 168.14 88.2778 168.74C87.7578 169.32 87.4978 170.28 87.4978 171.62C87.4978 172.94 87.7578 173.9 88.2778 174.5C88.7978 175.1 89.4678 175.4 90.2878 175.4ZM101.271 161.69V156.86H106.881V161.69H101.271ZM101.421 179V164.24H106.761V179H101.421ZM109.859 179V164.24H115.049V166.82H114.719C115.199 165.88 115.879 165.16 116.759 164.66C117.659 164.16 118.679 163.91 119.819 163.91C120.999 163.91 121.969 164.14 122.729 164.6C123.489 165.04 124.059 165.74 124.439 166.7C124.819 167.64 125.009 168.83 125.009 170.27V179H119.669V170.48C119.669 169.88 119.599 169.4 119.459 169.04C119.319 168.66 119.109 168.39 118.829 168.23C118.569 168.07 118.239 167.99 117.839 167.99C117.299 167.99 116.829 168.11 116.429 168.35C116.029 168.57 115.719 168.89 115.499 169.31C115.299 169.73 115.199 170.23 115.199 170.81V179H109.859ZM135.372 184.73C133.892 184.73 132.502 184.59 131.202 184.31C129.922 184.03 128.822 183.57 127.902 182.93L129.282 179.33C129.802 179.63 130.382 179.89 131.022 180.11C131.682 180.35 132.342 180.52 133.002 180.62C133.662 180.74 134.282 180.8 134.862 180.8C136.082 180.8 136.992 180.54 137.592 180.02C138.212 179.52 138.522 178.73 138.522 177.65V175.76H138.762C138.462 176.6 137.852 177.29 136.932 177.83C136.012 178.35 135.012 178.61 133.932 178.61C132.612 178.61 131.462 178.31 130.482 177.71C129.502 177.09 128.732 176.23 128.172 175.13C127.632 174.03 127.362 172.74 127.362 171.26C127.362 169.78 127.632 168.49 128.172 167.39C128.732 166.29 129.502 165.44 130.482 164.84C131.462 164.22 132.612 163.91 133.932 163.91C135.052 163.91 136.052 164.17 136.932 164.69C137.832 165.21 138.432 165.89 138.732 166.73H138.492V164.24H143.712V177.02C143.712 178.74 143.392 180.17 142.752 181.31C142.112 182.45 141.172 183.3 139.932 183.86C138.692 184.44 137.172 184.73 135.372 184.73ZM135.582 174.68C136.462 174.68 137.162 174.38 137.682 173.78C138.202 173.18 138.462 172.34 138.462 171.26C138.462 170.18 138.202 169.34 137.682 168.74C137.162 168.14 136.462 167.84 135.582 167.84C134.722 167.84 134.032 168.14 133.512 168.74C132.992 169.34 132.732 170.18 132.732 171.26C132.732 172.34 132.992 173.18 133.512 173.78C134.032 174.38 134.722 174.68 135.582 174.68ZM146.561 169.7V164.24H152.111V169.7H146.561ZM146.561 179V173.54H152.111V179H146.561ZM29.7 220V215.53H34.41V203.44H36.93L30.84 206.92L28.83 202.93L36.03 198.85H39.9V215.53H44.31V220H29.7ZM53.9883 220.33C52.2483 220.33 50.7783 219.9 49.5783 219.04C48.3783 218.18 47.4683 216.94 46.8483 215.32C46.2283 213.68 45.9183 211.69 45.9183 209.35C45.9183 206.99 46.2283 205.01 46.8483 203.41C47.4683 201.79 48.3783 200.57 49.5783 199.75C50.7783 198.93 52.2483 198.52 53.9883 198.52C55.7283 198.52 57.1983 198.93 58.3983 199.75C59.5983 200.57 60.5083 201.79 61.1283 203.41C61.7483 205.01 62.0583 206.98 62.0583 209.32C62.0583 211.66 61.7483 213.65 61.1283 215.29C60.5083 216.93 59.5983 218.18 58.3983 219.04C57.1983 219.9 55.7283 220.33 53.9883 220.33ZM53.9883 215.95C54.9483 215.95 55.6583 215.43 56.1183 214.39C56.5983 213.33 56.8383 211.64 56.8383 209.32C56.8383 207.02 56.5983 205.38 56.1183 204.4C55.6583 203.4 54.9483 202.9 53.9883 202.9C53.0283 202.9 52.3083 203.4 51.8283 204.4C51.3683 205.38 51.1383 207.03 51.1383 209.35C51.1383 211.65 51.3683 213.33 51.8283 214.39C52.3083 215.43 53.0283 215.95 53.9883 215.95ZM64.5366 225.4V205.24H69.7266V207.91H69.4566C69.7366 207.01 70.3166 206.29 71.1966 205.75C72.0966 205.19 73.1166 204.91 74.2566 204.91C75.5366 204.91 76.6566 205.22 77.6166 205.84C78.5966 206.46 79.3566 207.34 79.8966 208.48C80.4366 209.62 80.7066 211 80.7066 212.62C80.7066 214.2 80.4366 215.57 79.8966 216.73C79.3566 217.89 78.5966 218.78 77.6166 219.4C76.6566 220.02 75.5366 220.33 74.2566 220.33C73.1566 220.33 72.1666 220.07 71.2866 219.55C70.4066 219.03 69.8166 218.35 69.5166 217.51H69.8766V225.4H64.5366ZM72.5766 216.4C73.3766 216.4 74.0366 216.1 74.5566 215.5C75.0766 214.9 75.3366 213.94 75.3366 212.62C75.3366 211.28 75.0766 210.32 74.5566 209.74C74.0366 209.14 73.3766 208.84 72.5766 208.84C71.7566 208.84 71.0866 209.14 70.5666 209.74C70.0466 210.32 69.7866 211.28 69.7866 212.62C69.7866 213.94 70.0466 214.9 70.5666 215.5C71.0866 216.1 71.7566 216.4 72.5766 216.4ZM80.4799 220L87.7099 211.21V213.58L80.8699 205.24H87.0799L90.7099 209.92H88.8499L92.4799 205.24H98.6599L91.8199 213.58V211.21L99.1099 220H92.8699L88.8499 214.9H90.6799L86.6599 220H80.4799Z" fill="#5A5A5A"/>
<rect y="238" width="16.9922" height="877" fill="#FFF2AF"/>
<rect y="238" width="870" height="15" fill="#FFF2AF"/>
<rect x="853.008" y="238" width="16.9922" height="877" fill="#FFF2AF"/>
<line x1="1" y1="8" x2="0.999998" y2="58" stroke="black" stroke-width="2"/>
<line x1="868.707" y1="8" x2="868.707" y2="58" stroke="black" stroke-width="2"/>
<line x1="8.74228e-08" y1="32" x2="870" y2="32.0001" stroke="black" stroke-width="2"/>
</g>
<defs>
<clipPath id="clip0_222_5327">
<rect width="870" height="1115" fill="white"/>
</clipPath>
</defs>
</svg>
