<svg width="178" height="35" viewBox="0 0 178 35" fill="none" xmlns="http://www.w3.org/2000/svg">
<rect x="0.5" y="0.5" width="177" height="34" fill="white"/>
<rect x="0.5" y="0.5" width="177" height="34" stroke="#222120"/>
<rect x="13.5" y="8" width="19" height="19" stroke="#222120"/>
<g clip-path="url(#clip0_123_3080)">
<path d="M23.7801 17.5001L32.3801 8.88006C32.6001 8.66006 32.6001 8.32006 32.3801 8.10006C32.1601 7.88006 31.8201 7.88006 31.6001 8.10006L23.0001 16.7201L14.3801 8.12006C14.1801 7.90006 13.8201 7.90006 13.6201 8.12006C13.4001 8.32006 13.4001 8.68006 13.6201 8.88006L22.2201 17.5001L13.6201 26.1201C13.4001 26.3401 13.4001 26.6801 13.6201 26.9001C13.7201 27.0001 13.8601 27.0601 14.0001 27.0601C14.1401 27.0601 14.2801 27.0001 14.3801 26.9001L23.0001 18.2801L31.6201 26.9001C31.7201 27.0001 31.8601 27.0601 32.0001 27.0601C32.1401 27.0601 32.2801 27.0001 32.3801 26.9001C32.6001 26.6801 32.6001 26.3401 32.3801 26.1201L23.7801 17.5001Z" fill="#222120"/>
</g>
<rect x="13.5" y="8" width="19" height="19" stroke="#222120"/>
<path d="M43.84 22.644C43.4347 22.644 43.04 22.6013 42.656 22.516C42.2827 22.4413 41.9307 22.3347 41.6 22.196C41.28 22.0467 41.0027 21.8707 40.768 21.668L41.184 20.756C41.44 20.9587 41.7173 21.1293 42.016 21.268C42.3147 21.396 42.6187 21.492 42.928 21.556C43.2373 21.62 43.552 21.652 43.872 21.652C44.48 21.652 44.9387 21.54 45.248 21.316C45.5573 21.092 45.712 20.788 45.712 20.404C45.712 20.1053 45.6107 19.8707 45.408 19.7C45.2053 19.5187 44.8853 19.38 44.448 19.284L42.992 18.964C42.32 18.8253 41.8187 18.5853 41.488 18.244C41.168 17.9027 41.008 17.46 41.008 16.916C41.008 16.436 41.1307 16.0253 41.376 15.684C41.632 15.332 41.9893 15.06 42.448 14.868C42.9067 14.676 43.44 14.58 44.048 14.58C44.4107 14.58 44.7573 14.6173 45.088 14.692C45.4187 14.7667 45.728 14.8787 46.016 15.028C46.3147 15.1667 46.5707 15.3427 46.784 15.556L46.352 16.468C46.1493 16.276 45.92 16.116 45.664 15.988C45.408 15.8493 45.1413 15.748 44.864 15.684C44.5973 15.6093 44.3253 15.572 44.048 15.572C43.4507 15.572 42.9973 15.6893 42.688 15.924C42.3787 16.1587 42.224 16.468 42.224 16.852C42.224 17.1507 42.32 17.396 42.512 17.588C42.704 17.78 43.0027 17.9187 43.408 18.004L44.864 18.308C45.5573 18.4573 46.0747 18.6973 46.416 19.028C46.768 19.348 46.944 19.7853 46.944 20.34C46.944 20.8093 46.816 21.22 46.56 21.572C46.304 21.9133 45.9413 22.18 45.472 22.372C45.0133 22.5533 44.4693 22.644 43.84 22.644ZM52.4231 22.644C51.6018 22.644 50.8925 22.484 50.2951 22.164C49.7085 21.8333 49.2498 21.3693 48.9191 20.772C48.5991 20.1747 48.4391 19.46 48.4391 18.628C48.4391 17.8173 48.5991 17.1133 48.9191 16.516C49.2391 15.908 49.6765 15.4333 50.2311 15.092C50.7965 14.7507 51.4471 14.58 52.1831 14.58C52.8871 14.58 53.4898 14.7347 53.9911 15.044C54.4925 15.3533 54.8765 15.7907 55.1431 16.356C55.4205 16.9213 55.5591 17.5987 55.5591 18.388V18.884H49.4311V18.036H54.6951L54.4391 18.244C54.4391 17.3907 54.2471 16.7293 53.8631 16.26C53.4898 15.78 52.9405 15.54 52.2151 15.54C51.6711 15.54 51.2071 15.668 50.8231 15.924C50.4498 16.1693 50.1671 16.516 49.9751 16.964C49.7831 17.4013 49.6871 17.9133 49.6871 18.5V18.596C49.6871 19.2467 49.7885 19.796 49.9911 20.244C50.2045 20.692 50.5191 21.0333 50.9351 21.268C51.3511 21.492 51.8471 21.604 52.4231 21.604C52.8818 21.604 53.3245 21.5347 53.7511 21.396C54.1885 21.2467 54.5991 21.0067 54.9831 20.676L55.4311 21.588C55.0791 21.908 54.6311 22.164 54.0871 22.356C53.5431 22.548 52.9885 22.644 52.4231 22.644ZM60.7308 22.644C59.9521 22.644 59.2801 22.4733 58.7148 22.132C58.1494 21.7907 57.7121 21.316 57.4028 20.708C57.1041 20.0893 56.9548 19.3747 56.9548 18.564C56.9548 17.7427 57.1041 17.0333 57.4028 16.436C57.7121 15.8387 58.1494 15.38 58.7148 15.06C59.2801 14.74 59.9521 14.58 60.7308 14.58C61.2108 14.58 61.6854 14.6653 62.1548 14.836C62.6241 15.0067 63.0134 15.2467 63.3228 15.556L62.8748 16.5C62.5654 16.2013 62.2241 15.9827 61.8508 15.844C61.4881 15.7053 61.1414 15.636 60.8108 15.636C60.0001 15.636 59.3761 15.892 58.9388 16.404C58.5014 16.9053 58.2828 17.6307 58.2828 18.58C58.2828 19.508 58.5014 20.244 58.9388 20.788C59.3761 21.3213 60.0001 21.588 60.8108 21.588C61.1414 21.588 61.4881 21.5187 61.8508 21.38C62.2241 21.2413 62.5654 21.0173 62.8748 20.708L63.3228 21.652C63.0134 21.9613 62.6188 22.2067 62.1388 22.388C61.6694 22.5587 61.2001 22.644 60.7308 22.644ZM67.9168 22.644C67.1594 22.644 66.5034 22.4787 65.9488 22.148C65.3941 21.8173 64.9621 21.3533 64.6528 20.756C64.3541 20.148 64.2048 19.4333 64.2048 18.612C64.2048 17.7907 64.3541 17.0813 64.6528 16.484C64.9621 15.876 65.3941 15.4067 65.9488 15.076C66.5034 14.7453 67.1594 14.58 67.9168 14.58C68.6741 14.58 69.3301 14.7453 69.8848 15.076C70.4394 15.4067 70.8661 15.876 71.1648 16.484C71.4741 17.0813 71.6288 17.7907 71.6288 18.612C71.6288 19.4333 71.4741 20.148 71.1648 20.756C70.8661 21.3533 70.4394 21.8173 69.8848 22.148C69.3301 22.4787 68.6741 22.644 67.9168 22.644ZM67.9168 21.604C68.6528 21.604 69.2341 21.348 69.6608 20.836C70.0981 20.3133 70.3168 19.5667 70.3168 18.596C70.3168 17.636 70.0981 16.9 69.6608 16.388C69.2341 15.876 68.6528 15.62 67.9168 15.62C67.1914 15.62 66.6101 15.876 66.1728 16.388C65.7354 16.9 65.5168 17.636 65.5168 18.596C65.5168 19.5667 65.7354 20.3133 66.1728 20.836C66.6101 21.348 67.1914 21.604 67.9168 21.604ZM73.5754 22.5V14.724H74.8394V16.452H74.6634C74.8874 15.8333 75.25 15.3693 75.7514 15.06C76.2634 14.74 76.85 14.58 77.5114 14.58C78.13 14.58 78.642 14.692 79.0474 14.916C79.4634 15.1293 79.7727 15.4653 79.9754 15.924C80.178 16.3827 80.2794 16.9587 80.2794 17.652V22.5H78.9834V17.732C78.9834 17.252 78.9194 16.8573 78.7914 16.548C78.674 16.2387 78.482 16.0093 78.2154 15.86C77.9594 15.7107 77.6234 15.636 77.2074 15.636C76.738 15.636 76.3274 15.7373 75.9754 15.94C75.6234 16.1427 75.3514 16.4253 75.1594 16.788C74.9674 17.1507 74.8714 17.5773 74.8714 18.068V22.5H73.5754ZM85.6291 22.644C84.9358 22.644 84.3278 22.4787 83.8051 22.148C83.2931 21.8173 82.8931 21.3533 82.6051 20.756C82.3278 20.148 82.1891 19.4333 82.1891 18.612C82.1891 17.78 82.3278 17.0653 82.6051 16.468C82.8931 15.86 83.2931 15.396 83.8051 15.076C84.3278 14.7453 84.9358 14.58 85.6291 14.58C86.3331 14.58 86.9358 14.756 87.4371 15.108C87.9385 15.46 88.2745 15.9347 88.4451 16.532H88.2691V11.22H89.5651V22.5H88.3011V20.644H88.4611C88.2905 21.252 87.9491 21.7373 87.4371 22.1C86.9358 22.4627 86.3331 22.644 85.6291 22.644ZM85.9011 21.604C86.6371 21.604 87.2185 21.348 87.6451 20.836C88.0825 20.3133 88.3011 19.572 88.3011 18.612C88.3011 17.6413 88.0825 16.9 87.6451 16.388C87.2185 15.876 86.6371 15.62 85.9011 15.62C85.1758 15.62 84.5945 15.876 84.1571 16.388C83.7198 16.9 83.5011 17.6413 83.5011 18.612C83.5011 19.572 83.7198 20.3133 84.1571 20.836C84.5945 21.348 85.1758 21.604 85.9011 21.604ZM94.4453 22.644C93.9119 22.644 93.4319 22.5427 93.0053 22.34C92.5893 22.1267 92.2586 21.8387 92.0133 21.476C91.7679 21.1133 91.6453 20.708 91.6453 20.26C91.6453 19.684 91.7893 19.2307 92.0773 18.9C92.3759 18.5693 92.8613 18.3347 93.5333 18.196C94.2159 18.0573 95.1439 17.988 96.3173 17.988H97.0373V18.836H96.3333C95.6826 18.836 95.1386 18.8573 94.7013 18.9C94.2639 18.9427 93.9173 19.0173 93.6613 19.124C93.4053 19.2307 93.2239 19.3693 93.1173 19.54C93.0106 19.7107 92.9573 19.924 92.9573 20.18C92.9573 20.6173 93.1066 20.9747 93.4053 21.252C93.7146 21.5293 94.1306 21.668 94.6533 21.668C95.0799 21.668 95.4533 21.5667 95.7733 21.364C96.1039 21.1613 96.3599 20.884 96.5413 20.532C96.7333 20.18 96.8293 19.7747 96.8293 19.316V17.492C96.8293 16.8307 96.6959 16.356 96.4293 16.068C96.1626 15.7693 95.7253 15.62 95.1173 15.62C94.6479 15.62 94.1946 15.6893 93.7573 15.828C93.3199 15.956 92.8719 16.1693 92.4133 16.468L91.9653 15.524C92.2426 15.332 92.5573 15.1667 92.9093 15.028C93.2613 14.8787 93.6293 14.7667 94.0133 14.692C94.3973 14.6173 94.7653 14.58 95.1173 14.58C95.7893 14.58 96.3439 14.692 96.7813 14.916C97.2186 15.1293 97.5439 15.46 97.7573 15.908C97.9706 16.3453 98.0773 16.9107 98.0773 17.604V22.5H96.8613V20.692H97.0053C96.9199 21.0973 96.7546 21.444 96.5093 21.732C96.2746 22.02 95.9813 22.244 95.6293 22.404C95.2773 22.564 94.8826 22.644 94.4453 22.644ZM100.482 22.5V14.724H101.746V16.564H101.586C101.767 15.9347 102.082 15.46 102.53 15.14C102.978 14.8093 103.57 14.6173 104.306 14.564L104.77 14.516L104.866 15.636L104.05 15.732C103.324 15.796 102.764 16.0307 102.37 16.436C101.986 16.8307 101.794 17.3747 101.794 18.068V22.5H100.482ZM107.596 25.38L109.052 22.1V22.66L105.644 14.724H107.052L109.836 21.54H109.404L112.22 14.724H113.58L108.956 25.38H107.596ZM122.965 22.644C122.261 22.644 121.653 22.4627 121.141 22.1C120.639 21.7373 120.303 21.252 120.133 20.644H120.293V22.5H119.029V11.22H120.325V16.532H120.133C120.314 15.9347 120.655 15.46 121.157 15.108C121.658 14.756 122.261 14.58 122.965 14.58C123.669 14.58 124.277 14.7453 124.789 15.076C125.301 15.396 125.695 15.86 125.973 16.468C126.261 17.0653 126.405 17.78 126.405 18.612C126.405 19.4333 126.261 20.148 125.973 20.756C125.695 21.3533 125.295 21.8173 124.773 22.148C124.261 22.4787 123.658 22.644 122.965 22.644ZM122.693 21.604C123.429 21.604 124.01 21.348 124.437 20.836C124.874 20.3133 125.093 19.572 125.093 18.612C125.093 17.6413 124.874 16.9 124.437 16.388C124.01 15.876 123.429 15.62 122.693 15.62C121.967 15.62 121.386 15.876 120.949 16.388C120.511 16.9 120.293 17.6413 120.293 18.612C120.293 19.572 120.511 20.3133 120.949 20.836C121.386 21.348 121.967 21.604 122.693 21.604ZM131.109 22.644C130.479 22.644 129.957 22.532 129.541 22.308C129.135 22.0733 128.826 21.7267 128.613 21.268C128.41 20.8093 128.309 20.2387 128.309 19.556V14.724H129.605V19.54C129.605 19.9987 129.663 20.3827 129.781 20.692C129.909 20.9907 130.106 21.2147 130.373 21.364C130.639 21.5027 130.97 21.572 131.365 21.572C131.813 21.572 132.202 21.4707 132.533 21.268C132.863 21.0653 133.125 20.7827 133.317 20.42C133.509 20.0573 133.605 19.6307 133.605 19.14V14.724H134.901V22.5H133.637V20.708H133.845C133.631 21.3373 133.279 21.8173 132.789 22.148C132.309 22.4787 131.749 22.644 131.109 22.644ZM140.445 22.644C139.528 22.644 138.84 22.3987 138.381 21.908C137.923 21.4173 137.693 20.7187 137.693 19.812V15.732H136.173V14.724H137.693V12.34H138.989V14.724H141.453V15.732H138.989V19.684C138.989 20.292 139.117 20.756 139.373 21.076C139.629 21.3853 140.045 21.54 140.621 21.54C140.792 21.54 140.963 21.5187 141.133 21.476C141.304 21.4333 141.459 21.3907 141.597 21.348L141.821 22.34C141.683 22.4147 141.48 22.484 141.213 22.548C140.947 22.612 140.691 22.644 140.445 22.644ZM145.836 22.644C144.919 22.644 144.231 22.3987 143.772 21.908C143.313 21.4173 143.084 20.7187 143.084 19.812V15.732H141.564V14.724H143.084V12.34H144.38V14.724H146.844V15.732H144.38V19.684C144.38 20.292 144.508 20.756 144.764 21.076C145.02 21.3853 145.436 21.54 146.012 21.54C146.183 21.54 146.353 21.5187 146.524 21.476C146.695 21.4333 146.849 21.3907 146.988 21.348L147.212 22.34C147.073 22.4147 146.871 22.484 146.604 22.548C146.337 22.612 146.081 22.644 145.836 22.644ZM151.464 22.644C150.706 22.644 150.05 22.4787 149.496 22.148C148.941 21.8173 148.509 21.3533 148.2 20.756C147.901 20.148 147.752 19.4333 147.752 18.612C147.752 17.7907 147.901 17.0813 148.2 16.484C148.509 15.876 148.941 15.4067 149.496 15.076C150.05 14.7453 150.706 14.58 151.464 14.58C152.221 14.58 152.877 14.7453 153.432 15.076C153.986 15.4067 154.413 15.876 154.712 16.484C155.021 17.0813 155.176 17.7907 155.176 18.612C155.176 19.4333 155.021 20.148 154.712 20.756C154.413 21.3533 153.986 21.8173 153.432 22.148C152.877 22.4787 152.221 22.644 151.464 22.644ZM151.464 21.604C152.2 21.604 152.781 21.348 153.208 20.836C153.645 20.3133 153.864 19.5667 153.864 18.596C153.864 17.636 153.645 16.9 153.208 16.388C152.781 15.876 152.2 15.62 151.464 15.62C150.738 15.62 150.157 15.876 149.72 16.388C149.282 16.9 149.064 17.636 149.064 18.596C149.064 19.5667 149.282 20.3133 149.72 20.836C150.157 21.348 150.738 21.604 151.464 21.604ZM157.122 22.5V14.724H158.386V16.452H158.21C158.434 15.8333 158.797 15.3693 159.298 15.06C159.81 14.74 160.397 14.58 161.058 14.58C161.677 14.58 162.189 14.692 162.594 14.916C163.01 15.1293 163.32 15.4653 163.522 15.924C163.725 16.3827 163.826 16.9587 163.826 17.652V22.5H162.53V17.732C162.53 17.252 162.466 16.8573 162.338 16.548C162.221 16.2387 162.029 16.0093 161.762 15.86C161.506 15.7107 161.17 15.636 160.754 15.636C160.285 15.636 159.874 15.7373 159.522 15.94C159.17 16.1427 158.898 16.4253 158.706 16.788C158.514 17.1507 158.418 17.5773 158.418 18.068V22.5H157.122Z" fill="#222120"/>
<defs>
<clipPath id="clip0_123_3080">
<rect x="13" y="7.5" width="20" height="20" fill="white"/>
</clipPath>
</defs>
</svg>
