<svg width="380" height="455" viewBox="0 0 380 455" fill="none" xmlns="http://www.w3.org/2000/svg">
<g clip-path="url(#clip0_248_2452)">
<rect width="380" height="455" fill="white"/>
<path d="M140.912 178L136.012 163.9H137.292L141.832 177.12H141.192L145.772 163.9H146.812L151.372 177.12H150.772L155.332 163.9H156.572L151.672 178H150.512L146.092 165.18H146.492L142.032 178H140.912ZM161.933 178.16C160.933 178.16 160.073 177.96 159.353 177.56C158.633 177.16 158.08 176.587 157.693 175.84C157.307 175.093 157.113 174.207 157.113 173.18C157.113 172.167 157.307 171.287 157.693 170.54C158.08 169.78 158.613 169.187 159.293 168.76C159.987 168.333 160.78 168.12 161.673 168.12C162.54 168.12 163.273 168.313 163.873 168.7C164.487 169.073 164.953 169.613 165.273 170.32C165.607 171.013 165.773 171.853 165.773 172.84V173.4H157.993V172.5H165.013L164.693 172.76C164.693 171.613 164.44 170.72 163.933 170.08C163.427 169.427 162.68 169.1 161.693 169.1C160.96 169.1 160.34 169.273 159.833 169.62C159.327 169.953 158.947 170.42 158.693 171.02C158.44 171.607 158.313 172.287 158.313 173.06V173.16C158.313 174.013 158.447 174.74 158.713 175.34C158.993 175.927 159.407 176.373 159.953 176.68C160.5 176.987 161.147 177.14 161.893 177.14C162.493 177.14 163.053 177.047 163.573 176.86C164.107 176.673 164.627 176.36 165.133 175.92L165.613 176.84C165.187 177.24 164.64 177.56 163.973 177.8C163.307 178.04 162.627 178.16 161.933 178.16ZM171.08 178.16C170.173 178.16 169.473 177.88 168.98 177.32C168.5 176.76 168.26 175.967 168.26 174.94V163.9H169.48V174.8C169.48 175.307 169.547 175.733 169.68 176.08C169.827 176.413 170.033 176.667 170.3 176.84C170.567 177.013 170.893 177.1 171.28 177.1C171.453 177.1 171.613 177.093 171.76 177.08C171.92 177.053 172.067 177.02 172.2 176.98L172.16 178.04C171.96 178.08 171.773 178.107 171.6 178.12C171.427 178.147 171.253 178.16 171.08 178.16ZM177.826 178.16C176.879 178.16 176.066 177.953 175.386 177.54C174.706 177.113 174.179 176.52 173.806 175.76C173.446 174.987 173.266 174.093 173.266 173.08C173.266 172.053 173.446 171.173 173.806 170.44C174.179 169.707 174.706 169.14 175.386 168.74C176.066 168.327 176.879 168.12 177.826 168.12C178.426 168.12 179.006 168.233 179.566 168.46C180.139 168.687 180.619 169 181.006 169.4L180.526 170.32C180.112 169.92 179.672 169.633 179.206 169.46C178.739 169.273 178.292 169.18 177.866 169.18C176.786 169.18 175.952 169.52 175.366 170.2C174.792 170.867 174.506 171.833 174.506 173.1C174.506 174.353 174.792 175.34 175.366 176.06C175.952 176.767 176.786 177.12 177.866 177.12C178.292 177.12 178.739 177.033 179.206 176.86C179.672 176.673 180.112 176.38 180.526 175.98L181.006 176.9C180.619 177.287 180.132 177.593 179.546 177.82C178.972 178.047 178.399 178.16 177.826 178.16ZM186.71 178.16C185.803 178.16 185.017 177.953 184.35 177.54C183.683 177.127 183.163 176.547 182.79 175.8C182.43 175.053 182.25 174.167 182.25 173.14C182.25 172.127 182.43 171.247 182.79 170.5C183.163 169.74 183.683 169.153 184.35 168.74C185.017 168.327 185.803 168.12 186.71 168.12C187.63 168.12 188.423 168.327 189.09 168.74C189.757 169.153 190.27 169.74 190.63 170.5C191.003 171.247 191.19 172.127 191.19 173.14C191.19 174.167 191.003 175.053 190.63 175.8C190.27 176.547 189.757 177.127 189.09 177.54C188.423 177.953 187.63 178.16 186.71 178.16ZM186.71 177.14C187.71 177.14 188.497 176.793 189.07 176.1C189.657 175.407 189.95 174.42 189.95 173.14C189.95 171.873 189.657 170.893 189.07 170.2C188.497 169.507 187.71 169.16 186.71 169.16C185.737 169.16 184.957 169.507 184.37 170.2C183.783 170.893 183.49 171.873 183.49 173.14C183.49 174.42 183.783 175.407 184.37 176.1C184.957 176.793 185.737 177.14 186.71 177.14ZM193.828 178V168.3H195.028V170.56H194.808C194.968 170.04 195.201 169.6 195.508 169.24C195.828 168.88 196.208 168.607 196.648 168.42C197.088 168.22 197.568 168.12 198.088 168.12C198.941 168.12 199.621 168.327 200.128 168.74C200.648 169.153 200.988 169.773 201.148 170.6H200.848C201.074 169.853 201.494 169.253 202.108 168.8C202.734 168.347 203.468 168.12 204.308 168.12C205.028 168.12 205.621 168.26 206.088 168.54C206.568 168.82 206.928 169.24 207.168 169.8C207.408 170.347 207.528 171.04 207.528 171.88V178H206.308V171.98C206.308 171.007 206.134 170.3 205.788 169.86C205.454 169.407 204.888 169.18 204.088 169.18C203.528 169.18 203.034 169.313 202.608 169.58C202.181 169.847 201.854 170.227 201.628 170.72C201.401 171.213 201.288 171.8 201.288 172.48V178H200.068V171.98C200.068 171.007 199.894 170.3 199.548 169.86C199.214 169.407 198.654 169.18 197.868 169.18C197.294 169.18 196.794 169.313 196.368 169.58C195.954 169.847 195.628 170.227 195.388 170.72C195.161 171.213 195.048 171.8 195.048 172.48V178H193.828ZM214.941 178.16C213.941 178.16 213.081 177.96 212.361 177.56C211.641 177.16 211.088 176.587 210.701 175.84C210.314 175.093 210.121 174.207 210.121 173.18C210.121 172.167 210.314 171.287 210.701 170.54C211.088 169.78 211.621 169.187 212.301 168.76C212.994 168.333 213.788 168.12 214.681 168.12C215.548 168.12 216.281 168.313 216.881 168.7C217.494 169.073 217.961 169.613 218.281 170.32C218.614 171.013 218.781 171.853 218.781 172.84V173.4H211.001V172.5H218.021L217.701 172.76C217.701 171.613 217.448 170.72 216.941 170.08C216.434 169.427 215.688 169.1 214.701 169.1C213.968 169.1 213.348 169.273 212.841 169.62C212.334 169.953 211.954 170.42 211.701 171.02C211.448 171.607 211.321 172.287 211.321 173.06V173.16C211.321 174.013 211.454 174.74 211.721 175.34C212.001 175.927 212.414 176.373 212.961 176.68C213.508 176.987 214.154 177.14 214.901 177.14C215.501 177.14 216.061 177.047 216.581 176.86C217.114 176.673 217.634 176.36 218.141 175.92L218.621 176.84C218.194 177.24 217.648 177.56 216.981 177.8C216.314 178.04 215.634 178.16 214.941 178.16Z" fill="black"/>
<path d="M244.592 173.856L237.044 167.668C236.891 167.542 236.687 167.486 236.483 167.486C236.279 167.486 236.075 167.556 235.922 167.668L228.408 173.856C228.221 174.01 228.221 174.248 228.408 174.402C228.493 174.472 228.612 174.514 228.731 174.514C228.85 174.514 228.969 174.472 229.054 174.402L236.483 168.298L243.929 174.402C244.116 174.556 244.405 174.556 244.592 174.402C244.779 174.248 244.779 174.01 244.592 173.856Z" fill="#9E1E4D"/>
<path d="M74.5046 110L84.3286 87.44H86.0886L95.8806 110H93.8326L91.0486 103.504L92.1046 103.984H78.2486L79.3366 103.504L76.5846 110H74.5046ZM85.1606 89.872L79.7206 102.672L78.9846 102.288H91.3686L90.6966 102.672L85.2246 89.872H85.1606ZM105.474 110.256C103.959 110.256 102.658 109.925 101.57 109.264C100.482 108.581 99.6395 107.632 99.0421 106.416C98.4661 105.179 98.1781 103.749 98.1781 102.128C98.1781 100.485 98.4661 99.0773 99.0421 97.904C99.6395 96.7307 100.482 95.824 101.57 95.184C102.658 94.5227 103.959 94.192 105.474 94.192C106.434 94.192 107.362 94.3733 108.258 94.736C109.175 95.0987 109.943 95.6 110.562 96.24L109.794 97.712C109.133 97.072 108.429 96.6133 107.682 96.336C106.935 96.0373 106.221 95.888 105.538 95.888C103.81 95.888 102.477 96.432 101.538 97.52C100.621 98.5867 100.162 100.133 100.162 102.16C100.162 104.165 100.621 105.744 101.538 106.896C102.477 108.027 103.81 108.592 105.538 108.592C106.221 108.592 106.935 108.453 107.682 108.176C108.429 107.877 109.133 107.408 109.794 106.768L110.562 108.24C109.943 108.859 109.165 109.349 108.226 109.712C107.309 110.075 106.391 110.256 105.474 110.256ZM119.682 110.256C117.954 110.256 116.652 109.787 115.778 108.848C114.924 107.909 114.498 106.565 114.498 104.816V96.048H111.426V94.48H114.498V89.68H116.45V94.48H121.474V96.048H116.45V104.56C116.45 105.861 116.716 106.853 117.25 107.536C117.783 108.219 118.668 108.56 119.906 108.56C120.268 108.56 120.62 108.517 120.962 108.432C121.303 108.325 121.602 108.229 121.858 108.144L122.242 109.68C122.007 109.829 121.634 109.957 121.122 110.064C120.61 110.192 120.13 110.256 119.682 110.256ZM124.224 90.384V87.92H126.848V90.384H124.224ZM124.544 110V94.48H126.496V110H124.544ZM136.246 110L129.59 94.48H131.766L137.654 108.816H136.854L142.806 94.48H144.854L138.198 110H136.246ZM147.599 90.384V87.92H150.223V90.384H147.599ZM147.919 110V94.48H149.871V110H147.919ZM160.869 110.256C159.141 110.256 157.84 109.787 156.965 108.848C156.112 107.909 155.685 106.565 155.685 104.816V96.048H152.613V94.48H155.685V89.68H157.637V94.48H162.661V96.048H157.637V104.56C157.637 105.861 157.904 106.853 158.437 107.536C158.97 108.219 159.856 108.56 161.093 108.56C161.456 108.56 161.808 108.517 162.149 108.432C162.49 108.325 162.789 108.229 163.045 108.144L163.429 109.68C163.194 109.829 162.821 109.957 162.309 110.064C161.797 110.192 161.317 110.256 160.869 110.256ZM167.903 115.76L170.655 109.488V110.384L163.871 94.48H166.047L171.935 108.816H171.135L177.055 94.48H179.167L170.015 115.76H167.903ZM190.616 110V87.44H192.568V97.68H206.968V87.44H208.92V110H206.968V99.44H192.568V110H190.616ZM221.171 110.256C219.571 110.256 218.195 109.936 217.043 109.296C215.891 108.656 215.006 107.739 214.387 106.544C213.769 105.349 213.459 103.931 213.459 102.288C213.459 100.667 213.769 99.2587 214.387 98.064C215.006 96.848 215.859 95.8987 216.947 95.216C218.057 94.5333 219.326 94.192 220.755 94.192C222.142 94.192 223.315 94.5013 224.275 95.12C225.257 95.7173 226.003 96.5813 226.515 97.712C227.049 98.8213 227.315 100.165 227.315 101.744V102.64H214.867V101.2H226.099L225.587 101.616C225.587 99.7813 225.182 98.352 224.371 97.328C223.561 96.2827 222.366 95.76 220.787 95.76C219.614 95.76 218.622 96.0373 217.811 96.592C217.001 97.1253 216.393 97.872 215.987 98.832C215.582 99.7707 215.379 100.859 215.379 102.096V102.256C215.379 103.621 215.593 104.784 216.019 105.744C216.467 106.683 217.129 107.397 218.003 107.888C218.878 108.379 219.913 108.624 221.107 108.624C222.067 108.624 222.963 108.475 223.795 108.176C224.649 107.877 225.481 107.376 226.291 106.672L227.059 108.144C226.377 108.784 225.502 109.296 224.435 109.68C223.369 110.064 222.281 110.256 221.171 110.256ZM236.094 110.256C235.049 110.256 234.11 110.053 233.278 109.648C232.468 109.243 231.817 108.688 231.326 107.984C230.857 107.28 230.622 106.491 230.622 105.616C230.622 104.464 230.91 103.557 231.486 102.896C232.062 102.235 233.033 101.776 234.398 101.52C235.764 101.243 237.641 101.104 240.03 101.104H241.406V102.544H240.062C238.633 102.544 237.428 102.587 236.446 102.672C235.486 102.757 234.729 102.917 234.174 103.152C233.62 103.365 233.225 103.664 232.99 104.048C232.777 104.432 232.67 104.901 232.67 105.456C232.67 106.416 233.001 107.195 233.662 107.792C234.324 108.389 235.22 108.688 236.35 108.688C237.268 108.688 238.068 108.475 238.75 108.048C239.454 107.6 240.009 106.992 240.414 106.224C240.82 105.456 241.022 104.581 241.022 103.6V99.952C241.022 98.5227 240.734 97.488 240.158 96.848C239.582 96.1867 238.665 95.856 237.406 95.856C236.468 95.856 235.561 95.9947 234.686 96.272C233.833 96.5493 232.948 96.9867 232.03 97.584L231.262 96.08C231.817 95.696 232.425 95.3653 233.086 95.088C233.769 94.8107 234.473 94.5973 235.198 94.448C235.945 94.2773 236.67 94.192 237.374 94.192C238.633 94.192 239.668 94.4053 240.478 94.832C241.31 95.2587 241.918 95.8987 242.302 96.752C242.708 97.6053 242.91 98.704 242.91 100.048V110H241.054V106.256H241.374C241.182 107.088 240.841 107.803 240.35 108.4C239.86 108.997 239.252 109.456 238.526 109.776C237.801 110.096 236.99 110.256 236.094 110.256ZM253.933 110.256C252.546 110.256 251.33 109.936 250.285 109.296C249.261 108.635 248.461 107.707 247.885 106.512C247.33 105.296 247.053 103.867 247.053 102.224C247.053 100.581 247.33 99.1627 247.885 97.968C248.44 96.7733 249.229 95.8453 250.253 95.184C251.298 94.5227 252.525 94.192 253.933 94.192C255.384 94.192 256.621 94.5653 257.645 95.312C258.669 96.0587 259.352 97.0613 259.693 98.32H259.341V87.44H261.293V110H259.373V106.128H259.693C259.352 107.387 258.669 108.389 257.645 109.136C256.621 109.883 255.384 110.256 253.933 110.256ZM254.189 108.624C255.789 108.624 257.048 108.069 257.965 106.96C258.904 105.851 259.373 104.272 259.373 102.224C259.373 100.197 258.904 98.6293 257.965 97.52C257.048 96.4107 255.789 95.856 254.189 95.856C252.632 95.856 251.384 96.4107 250.445 97.52C249.506 98.6293 249.037 100.197 249.037 102.224C249.037 104.272 249.506 105.851 250.445 106.96C251.384 108.069 252.632 108.624 254.189 108.624ZM266.099 90.384V87.92H268.723V90.384H266.099ZM266.419 110V94.48H268.371V110H266.419ZM273.513 110V94.48H275.433V98.096H275.081C275.508 96.816 276.233 95.8453 277.257 95.184C278.302 94.5227 279.497 94.192 280.841 94.192C282.078 94.192 283.102 94.416 283.913 94.864C284.745 95.2907 285.364 95.952 285.769 96.848C286.174 97.744 286.377 98.864 286.377 100.208V110H284.425V100.368C284.425 99.344 284.286 98.5013 284.009 97.84C283.753 97.1787 283.337 96.688 282.761 96.368C282.185 96.048 281.449 95.888 280.553 95.888C279.529 95.888 278.633 96.1013 277.865 96.528C277.118 96.9547 276.532 97.5627 276.105 98.352C275.678 99.1413 275.465 100.069 275.465 101.136V110H273.513ZM298.171 116.016C296.849 116.016 295.611 115.835 294.459 115.472C293.329 115.109 292.315 114.576 291.419 113.872L292.155 112.4C292.817 112.869 293.457 113.253 294.075 113.552C294.694 113.851 295.323 114.064 295.963 114.192C296.625 114.32 297.339 114.384 298.107 114.384C299.665 114.384 300.849 113.947 301.659 113.072C302.47 112.219 302.875 110.992 302.875 109.392V105.424H303.195C302.875 106.747 302.193 107.781 301.147 108.528C300.102 109.275 298.865 109.648 297.435 109.648C296.006 109.648 294.769 109.328 293.723 108.688C292.678 108.027 291.867 107.12 291.291 105.968C290.737 104.795 290.459 103.44 290.459 101.904C290.459 100.368 290.737 99.024 291.291 97.872C291.867 96.72 292.678 95.824 293.723 95.184C294.769 94.5227 296.006 94.192 297.435 94.192C298.865 94.192 300.102 94.576 301.147 95.344C302.193 96.0907 302.865 97.104 303.163 98.384H302.843V94.48H304.763V109.104C304.763 110.619 304.518 111.888 304.027 112.912C303.537 113.957 302.801 114.736 301.819 115.248C300.838 115.76 299.622 116.016 298.171 116.016ZM297.659 107.984C299.259 107.984 300.529 107.44 301.467 106.352C302.406 105.243 302.875 103.76 302.875 101.904C302.875 100.048 302.406 98.576 301.467 97.488C300.529 96.4 299.259 95.856 297.659 95.856C296.059 95.856 294.79 96.4 293.851 97.488C292.913 98.576 292.443 100.048 292.443 101.904C292.443 103.76 292.913 105.243 293.851 106.352C294.79 107.44 296.059 107.984 297.659 107.984Z" fill="black"/>
<rect width="303" height="53" transform="translate(39)" fill="white"/>
<g clip-path="url(#clip1_248_2452)">
<path d="M57.9999 19.5039C53.3199 19.5039 49.5039 23.3199 49.5039 27.9999C49.5039 32.6799 53.3199 36.4959 57.9999 36.4959C62.6799 36.4959 66.4959 32.6799 66.4959 27.9999C66.4959 23.3019 62.6799 19.5039 57.9999 19.5039ZM57.9999 35.5059C53.8599 35.5059 50.4939 32.1399 50.4939 27.9999C50.4939 23.8599 53.8599 20.4939 57.9999 20.4939C62.1399 20.4939 65.5059 23.8599 65.5059 27.9999C65.5059 32.1399 62.1399 35.5059 57.9999 35.5059Z" fill="black"/>
<path d="M58 20.4939C62.14 20.4939 65.506 23.8599 65.506 27.9999C65.506 32.1399 62.14 35.5059 58 35.5059V20.4939Z" fill="black"/>
</g>
<g clip-path="url(#clip2_248_2452)">
<path d="M102.344 18.6299H87.6559C87.0979 18.6299 86.6299 19.0979 86.6299 19.6559V34.3439C86.6299 34.9019 87.0979 35.3699 87.6559 35.3699H102.326C102.866 35.3699 103.334 34.9379 103.37 34.3799V19.6559C103.37 19.0979 102.902 18.6299 102.344 18.6299ZM87.6559 19.6199H102.344C102.362 19.6199 102.38 19.6379 102.38 19.6559V22.2839H87.6199V19.6559C87.6199 19.6379 87.6379 19.6199 87.6559 19.6199ZM92.5699 23.2739H102.38V28.3319H92.5699V23.2739ZM87.6199 34.3439V23.2739H91.5799V34.3799H87.6559C87.6379 34.3799 87.6199 34.3619 87.6199 34.3439ZM102.326 34.3799H92.5699V29.3219H102.38V34.3079C102.38 34.3439 102.344 34.3799 102.326 34.3799Z" fill="black"/>
</g>
<path d="M122.472 33V21.72H126.104C127.309 21.72 128.328 21.9333 129.16 22.36C129.992 22.7867 130.627 23.4213 131.064 24.264C131.501 25.096 131.72 26.1253 131.72 27.352C131.72 28.5787 131.501 29.6133 131.064 30.456C130.627 31.288 129.992 31.9227 129.16 32.36C128.328 32.7867 127.309 33 126.104 33H122.472ZM123.448 32.136H126.024C127.571 32.136 128.728 31.736 129.496 30.936C130.275 30.136 130.664 28.9413 130.664 27.352C130.664 25.7627 130.275 24.5733 129.496 23.784C128.728 22.984 127.571 22.584 126.024 22.584H123.448V32.136ZM134.206 33V21.72H141.15V22.568H135.166V26.856H140.814V27.704H135.166V32.152H141.15V33H134.206Z" fill="black"/>
<line x1="166.5" y1="2.18557e-08" x2="166.5" y2="53" stroke="black"/>
<path d="M195.392 31.5V20.22H196.416L203.6 29.804H203.216V20.22H204.432V31.5H203.44L196.256 21.916H196.624V31.5H195.392ZM209.508 31.644C208.974 31.644 208.494 31.5427 208.068 31.34C207.652 31.1267 207.321 30.8387 207.076 30.476C206.83 30.1133 206.708 29.708 206.708 29.26C206.708 28.684 206.852 28.2307 207.14 27.9C207.438 27.5693 207.924 27.3347 208.596 27.196C209.278 27.0573 210.206 26.988 211.38 26.988H212.1V27.836H211.396C210.745 27.836 210.201 27.8573 209.764 27.9C209.326 27.9427 208.98 28.0173 208.724 28.124C208.468 28.2307 208.286 28.3693 208.18 28.54C208.073 28.7107 208.02 28.924 208.02 29.18C208.02 29.6173 208.169 29.9747 208.468 30.252C208.777 30.5293 209.193 30.668 209.716 30.668C210.142 30.668 210.516 30.5667 210.836 30.364C211.166 30.1613 211.422 29.884 211.604 29.532C211.796 29.18 211.892 28.7747 211.892 28.316V26.492C211.892 25.8307 211.758 25.356 211.492 25.068C211.225 24.7693 210.788 24.62 210.18 24.62C209.71 24.62 209.257 24.6893 208.82 24.828C208.382 24.956 207.934 25.1693 207.476 25.468L207.028 24.524C207.305 24.332 207.62 24.1667 207.972 24.028C208.324 23.8787 208.692 23.7667 209.076 23.692C209.46 23.6173 209.828 23.58 210.18 23.58C210.852 23.58 211.406 23.692 211.844 23.916C212.281 24.1293 212.606 24.46 212.82 24.908C213.033 25.3453 213.14 25.9107 213.14 26.604V31.5H211.924V29.692H212.068C211.982 30.0973 211.817 30.444 211.572 30.732C211.337 31.02 211.044 31.244 210.692 31.404C210.34 31.564 209.945 31.644 209.508 31.644ZM215.576 31.5V23.724H216.84V25.452H216.664C216.792 25.0573 216.979 24.7213 217.224 24.444C217.48 24.156 217.779 23.9427 218.12 23.804C218.472 23.6547 218.856 23.58 219.272 23.58C219.933 23.58 220.467 23.74 220.872 24.06C221.288 24.3693 221.565 24.8547 221.704 25.516H221.464C221.656 24.9187 221.997 24.4493 222.488 24.108C222.989 23.756 223.571 23.58 224.232 23.58C224.819 23.58 225.299 23.692 225.672 23.916C226.056 24.14 226.344 24.4813 226.536 24.94C226.728 25.388 226.824 25.9587 226.824 26.652V31.5H225.528V26.716C225.528 26.0013 225.405 25.4787 225.16 25.148C224.915 24.8067 224.499 24.636 223.912 24.636C223.496 24.636 223.128 24.7373 222.808 24.94C222.499 25.1427 222.259 25.4307 222.088 25.804C221.928 26.1667 221.848 26.5987 221.848 27.1V31.5H220.552V26.716C220.552 26.0013 220.424 25.4787 220.168 25.148C219.923 24.8067 219.512 24.636 218.936 24.636C218.509 24.636 218.141 24.7373 217.832 24.94C217.523 25.1427 217.283 25.4307 217.112 25.804C216.952 26.1667 216.872 26.5987 216.872 27.1V31.5H215.576ZM232.751 31.644C231.93 31.644 231.221 31.484 230.623 31.164C230.037 30.8333 229.578 30.3693 229.247 29.772C228.927 29.1747 228.767 28.46 228.767 27.628C228.767 26.8173 228.927 26.1133 229.247 25.516C229.567 24.908 230.005 24.4333 230.559 24.092C231.125 23.7507 231.775 23.58 232.511 23.58C233.215 23.58 233.818 23.7347 234.319 24.044C234.821 24.3533 235.205 24.7907 235.471 25.356C235.749 25.9213 235.887 26.5987 235.887 27.388V27.884H229.759V27.036H235.023L234.767 27.244C234.767 26.3907 234.575 25.7293 234.191 25.26C233.818 24.78 233.269 24.54 232.543 24.54C231.999 24.54 231.535 24.668 231.151 24.924C230.778 25.1693 230.495 25.516 230.303 25.964C230.111 26.4013 230.015 26.9133 230.015 27.5V27.596C230.015 28.2467 230.117 28.796 230.319 29.244C230.533 29.692 230.847 30.0333 231.263 30.268C231.679 30.492 232.175 30.604 232.751 30.604C233.21 30.604 233.653 30.5347 234.079 30.396C234.517 30.2467 234.927 30.0067 235.311 29.676L235.759 30.588C235.407 30.908 234.959 31.164 234.415 31.356C233.871 31.548 233.317 31.644 232.751 31.644ZM242.048 31.5V20.22H243.36V30.348H249.104V31.5H242.048ZM253.008 31.644C252.474 31.644 251.994 31.5427 251.568 31.34C251.152 31.1267 250.821 30.8387 250.576 30.476C250.33 30.1133 250.208 29.708 250.208 29.26C250.208 28.684 250.352 28.2307 250.64 27.9C250.938 27.5693 251.424 27.3347 252.096 27.196C252.778 27.0573 253.706 26.988 254.88 26.988H255.6V27.836H254.896C254.245 27.836 253.701 27.8573 253.264 27.9C252.826 27.9427 252.48 28.0173 252.224 28.124C251.968 28.2307 251.786 28.3693 251.68 28.54C251.573 28.7107 251.52 28.924 251.52 29.18C251.52 29.6173 251.669 29.9747 251.968 30.252C252.277 30.5293 252.693 30.668 253.216 30.668C253.642 30.668 254.016 30.5667 254.336 30.364C254.666 30.1613 254.922 29.884 255.104 29.532C255.296 29.18 255.392 28.7747 255.392 28.316V26.492C255.392 25.8307 255.258 25.356 254.992 25.068C254.725 24.7693 254.288 24.62 253.68 24.62C253.21 24.62 252.757 24.6893 252.32 24.828C251.882 24.956 251.434 25.1693 250.976 25.468L250.528 24.524C250.805 24.332 251.12 24.1667 251.472 24.028C251.824 23.8787 252.192 23.7667 252.576 23.692C252.96 23.6173 253.328 23.58 253.68 23.58C254.352 23.58 254.906 23.692 255.344 23.916C255.781 24.1293 256.106 24.46 256.32 24.908C256.533 25.3453 256.64 25.9107 256.64 26.604V31.5H255.424V29.692H255.568C255.482 30.0973 255.317 30.444 255.072 30.732C254.837 31.02 254.544 31.244 254.192 31.404C253.84 31.564 253.445 31.644 253.008 31.644ZM261.668 31.644C261.263 31.644 260.868 31.6013 260.484 31.516C260.111 31.4413 259.759 31.3347 259.428 31.196C259.108 31.0467 258.831 30.8707 258.596 30.668L259.012 29.756C259.268 29.9587 259.545 30.1293 259.844 30.268C260.143 30.396 260.447 30.492 260.756 30.556C261.065 30.62 261.38 30.652 261.7 30.652C262.308 30.652 262.767 30.54 263.076 30.316C263.385 30.092 263.54 29.788 263.54 29.404C263.54 29.1053 263.439 28.8707 263.236 28.7C263.033 28.5187 262.713 28.38 262.276 28.284L260.82 27.964C260.148 27.8253 259.647 27.5853 259.316 27.244C258.996 26.9027 258.836 26.46 258.836 25.916C258.836 25.436 258.959 25.0253 259.204 24.684C259.46 24.332 259.817 24.06 260.276 23.868C260.735 23.676 261.268 23.58 261.876 23.58C262.239 23.58 262.585 23.6173 262.916 23.692C263.247 23.7667 263.556 23.8787 263.844 24.028C264.143 24.1667 264.399 24.3427 264.612 24.556L264.18 25.468C263.977 25.276 263.748 25.116 263.492 24.988C263.236 24.8493 262.969 24.748 262.692 24.684C262.425 24.6093 262.153 24.572 261.876 24.572C261.279 24.572 260.825 24.6893 260.516 24.924C260.207 25.1587 260.052 25.468 260.052 25.852C260.052 26.1507 260.148 26.396 260.34 26.588C260.532 26.78 260.831 26.9187 261.236 27.004L262.692 27.308C263.385 27.4573 263.903 27.6973 264.244 28.028C264.596 28.348 264.772 28.7853 264.772 29.34C264.772 29.8093 264.644 30.22 264.388 30.572C264.132 30.9133 263.769 31.18 263.3 31.372C262.841 31.5533 262.297 31.644 261.668 31.644ZM269.789 31.644C268.872 31.644 268.184 31.3987 267.725 30.908C267.266 30.4173 267.037 29.7187 267.037 28.812V24.732H265.517V23.724H267.037V21.34H268.333V23.724H270.797V24.732H268.333V28.684C268.333 29.292 268.461 29.756 268.717 30.076C268.973 30.3853 269.389 30.54 269.965 30.54C270.136 30.54 270.306 30.5187 270.477 30.476C270.648 30.4333 270.802 30.3907 270.941 30.348L271.165 31.34C271.026 31.4147 270.824 31.484 270.557 31.548C270.29 31.612 270.034 31.644 269.789 31.644ZM272.263 31.5V23.724H273.527V25.452H273.351C273.575 24.8333 273.938 24.3693 274.439 24.06C274.951 23.74 275.538 23.58 276.199 23.58C276.818 23.58 277.33 23.692 277.735 23.916C278.151 24.1293 278.46 24.4653 278.663 24.924C278.866 25.3827 278.967 25.9587 278.967 26.652V31.5H277.671V26.732C277.671 26.252 277.607 25.8573 277.479 25.548C277.362 25.2387 277.17 25.0093 276.903 24.86C276.647 24.7107 276.311 24.636 275.895 24.636C275.426 24.636 275.015 24.7373 274.663 24.94C274.311 25.1427 274.039 25.4253 273.847 25.788C273.655 26.1507 273.559 26.5773 273.559 27.068V31.5H272.263ZM283.805 31.644C283.271 31.644 282.791 31.5427 282.365 31.34C281.949 31.1267 281.618 30.8387 281.373 30.476C281.127 30.1133 281.005 29.708 281.005 29.26C281.005 28.684 281.149 28.2307 281.437 27.9C281.735 27.5693 282.221 27.3347 282.893 27.196C283.575 27.0573 284.503 26.988 285.677 26.988H286.397V27.836H285.693C285.042 27.836 284.498 27.8573 284.061 27.9C283.623 27.9427 283.277 28.0173 283.021 28.124C282.765 28.2307 282.583 28.3693 282.477 28.54C282.37 28.7107 282.317 28.924 282.317 29.18C282.317 29.6173 282.466 29.9747 282.765 30.252C283.074 30.5293 283.49 30.668 284.013 30.668C284.439 30.668 284.813 30.5667 285.133 30.364C285.463 30.1613 285.719 29.884 285.901 29.532C286.093 29.18 286.189 28.7747 286.189 28.316V26.492C286.189 25.8307 286.055 25.356 285.789 25.068C285.522 24.7693 285.085 24.62 284.477 24.62C284.007 24.62 283.554 24.6893 283.117 24.828C282.679 24.956 282.231 25.1693 281.773 25.468L281.325 24.524C281.602 24.332 281.917 24.1667 282.269 24.028C282.621 23.8787 282.989 23.7667 283.373 23.692C283.757 23.6173 284.125 23.58 284.477 23.58C285.149 23.58 285.703 23.692 286.141 23.916C286.578 24.1293 286.903 24.46 287.117 24.908C287.33 25.3453 287.437 25.9107 287.437 26.604V31.5H286.221V29.692H286.365C286.279 30.0973 286.114 30.444 285.869 30.732C285.634 31.02 285.341 31.244 284.989 31.404C284.637 31.564 284.242 31.644 283.805 31.644ZM289.873 31.5V23.724H291.137V25.452H290.961C291.089 25.0573 291.276 24.7213 291.521 24.444C291.777 24.156 292.076 23.9427 292.417 23.804C292.769 23.6547 293.153 23.58 293.569 23.58C294.23 23.58 294.764 23.74 295.169 24.06C295.585 24.3693 295.862 24.8547 296.001 25.516H295.761C295.953 24.9187 296.294 24.4493 296.785 24.108C297.286 23.756 297.868 23.58 298.529 23.58C299.116 23.58 299.596 23.692 299.969 23.916C300.353 24.14 300.641 24.4813 300.833 24.94C301.025 25.388 301.121 25.9587 301.121 26.652V31.5H299.825V26.716C299.825 26.0013 299.702 25.4787 299.457 25.148C299.212 24.8067 298.796 24.636 298.209 24.636C297.793 24.636 297.425 24.7373 297.105 24.94C296.796 25.1427 296.556 25.4307 296.385 25.804C296.225 26.1667 296.145 26.5987 296.145 27.1V31.5H294.849V26.716C294.849 26.0013 294.721 25.4787 294.465 25.148C294.22 24.8067 293.809 24.636 293.233 24.636C292.806 24.636 292.438 24.7373 292.129 24.94C291.82 25.1427 291.58 25.4307 291.409 25.804C291.249 26.1667 291.169 26.5987 291.169 27.1V31.5H289.873ZM307.048 31.644C306.227 31.644 305.517 31.484 304.92 31.164C304.333 30.8333 303.875 30.3693 303.544 29.772C303.224 29.1747 303.064 28.46 303.064 27.628C303.064 26.8173 303.224 26.1133 303.544 25.516C303.864 24.908 304.301 24.4333 304.856 24.092C305.421 23.7507 306.072 23.58 306.808 23.58C307.512 23.58 308.115 23.7347 308.616 24.044C309.117 24.3533 309.501 24.7907 309.768 25.356C310.045 25.9213 310.184 26.5987 310.184 27.388V27.884H304.056V27.036H309.32L309.064 27.244C309.064 26.3907 308.872 25.7293 308.488 25.26C308.115 24.78 307.565 24.54 306.84 24.54C306.296 24.54 305.832 24.668 305.448 24.924C305.075 25.1693 304.792 25.516 304.6 25.964C304.408 26.4013 304.312 26.9133 304.312 27.5V27.596C304.312 28.2467 304.413 28.796 304.616 29.244C304.829 29.692 305.144 30.0333 305.56 30.268C305.976 30.492 306.472 30.604 307.048 30.604C307.507 30.604 307.949 30.5347 308.376 30.396C308.813 30.2467 309.224 30.0067 309.608 29.676L310.056 30.588C309.704 30.908 309.256 31.164 308.712 31.356C308.168 31.548 307.613 31.644 307.048 31.644Z" fill="black"/>
<path d="M316.384 23.236L323.488 30.308C323.632 30.452 323.824 30.516 324.016 30.516C324.208 30.516 324.4 30.436 324.544 30.308L331.616 23.236C331.792 23.06 331.792 22.788 331.616 22.612C331.536 22.532 331.424 22.484 331.312 22.484C331.2 22.484 331.088 22.532 331.008 22.612L324.016 29.588L317.008 22.612C316.832 22.436 316.56 22.436 316.384 22.612C316.208 22.788 316.208 23.06 316.384 23.236Z" fill="black"/>
<line x1="-4.37114e-08" y1="193.5" x2="380" y2="193.5" stroke="black"/>
<mask id="path-12-inside-1_248_2452" fill="white">
<path d="M0 194H380V455H0V194Z"/>
</mask>
<path d="M0 194H380V455H0V194Z" fill="white"/>
<path d="M380 455V454H0V455V456H380V455Z" fill="black" mask="url(#path-12-inside-1_248_2452)"/>
<path d="M359.098 431.502L365.843 424.741C366.016 424.569 366.016 424.302 365.843 424.129C365.671 423.957 365.404 423.957 365.231 424.129L358.486 430.89L351.725 424.145C351.569 423.973 351.286 423.973 351.129 424.145C350.957 424.302 350.957 424.584 351.129 424.741L357.875 431.502L351.129 438.263C350.957 438.435 350.957 438.702 351.129 438.875C351.208 438.953 351.318 439 351.427 439C351.537 439 351.647 438.953 351.725 438.875L358.486 432.114L365.247 438.875C365.325 438.953 365.435 439 365.545 439C365.655 439 365.765 438.953 365.843 438.875C366.016 438.702 366.016 438.435 365.843 438.263L359.098 431.502Z" fill="#9E1E4D"/>
<path d="M28.464 228L24.544 216.72H25.568L29.2 227.296H28.688L32.352 216.72H33.184L36.832 227.296H36.352L40 216.72H40.992L37.072 228H36.144L32.608 217.744H32.928L29.36 228H28.464ZM45.281 228.128C44.481 228.128 43.793 227.968 43.217 227.648C42.641 227.328 42.1983 226.869 41.889 226.272C41.5797 225.675 41.425 224.965 41.425 224.144C41.425 223.333 41.5797 222.629 41.889 222.032C42.1983 221.424 42.625 220.949 43.169 220.608C43.7237 220.267 44.3583 220.096 45.073 220.096C45.7663 220.096 46.353 220.251 46.833 220.56C47.3237 220.859 47.697 221.291 47.953 221.856C48.2197 222.411 48.353 223.083 48.353 223.872V224.32H42.129V223.6H47.745L47.489 223.808C47.489 222.891 47.2863 222.176 46.881 221.664C46.4757 221.141 45.8783 220.88 45.089 220.88C44.5023 220.88 44.0063 221.019 43.601 221.296C43.1957 221.563 42.8917 221.936 42.689 222.416C42.4863 222.885 42.385 223.429 42.385 224.048V224.128C42.385 224.811 42.4917 225.392 42.705 225.872C42.929 226.341 43.2597 226.699 43.697 226.944C44.1343 227.189 44.6517 227.312 45.249 227.312C45.729 227.312 46.177 227.237 46.593 227.088C47.0197 226.939 47.4357 226.688 47.841 226.336L48.225 227.072C47.8837 227.392 47.4463 227.648 46.913 227.84C46.3797 228.032 45.8357 228.128 45.281 228.128ZM52.5985 228.128C51.8732 228.128 51.3132 227.904 50.9185 227.456C50.5345 227.008 50.3425 226.373 50.3425 225.552V216.72H51.3185V225.44C51.3185 225.845 51.3718 226.187 51.4785 226.464C51.5958 226.731 51.7612 226.933 51.9745 227.072C52.1878 227.211 52.4492 227.28 52.7585 227.28C52.8972 227.28 53.0252 227.275 53.1425 227.264C53.2705 227.243 53.3878 227.216 53.4945 227.184L53.4625 228.032C53.3025 228.064 53.1532 228.085 53.0145 228.096C52.8758 228.117 52.7372 228.128 52.5985 228.128ZM57.9949 228.128C57.2375 228.128 56.5869 227.963 56.0429 227.632C55.4989 227.291 55.0775 226.816 54.7789 226.208C54.4909 225.589 54.3469 224.875 54.3469 224.064C54.3469 223.243 54.4909 222.539 54.7789 221.952C55.0775 221.365 55.4989 220.912 56.0429 220.592C56.5869 220.261 57.2375 220.096 57.9949 220.096C58.4749 220.096 58.9389 220.187 59.3869 220.368C59.8455 220.549 60.2295 220.8 60.5389 221.12L60.1549 221.856C59.8242 221.536 59.4722 221.307 59.0989 221.168C58.7255 221.019 58.3682 220.944 58.0269 220.944C57.1629 220.944 56.4962 221.216 56.0269 221.76C55.5682 222.293 55.3389 223.067 55.3389 224.08C55.3389 225.083 55.5682 225.872 56.0269 226.448C56.4962 227.013 57.1629 227.296 58.0269 227.296C58.3682 227.296 58.7255 227.227 59.0989 227.088C59.4722 226.939 59.8242 226.704 60.1549 226.384L60.5389 227.12C60.2295 227.429 59.8402 227.675 59.3709 227.856C58.9122 228.037 58.4535 228.128 57.9949 228.128ZM65.1024 228.128C64.377 228.128 63.7477 227.963 63.2144 227.632C62.681 227.301 62.265 226.837 61.9664 226.24C61.6784 225.643 61.5344 224.933 61.5344 224.112C61.5344 223.301 61.6784 222.597 61.9664 222C62.265 221.392 62.681 220.923 63.2144 220.592C63.7477 220.261 64.377 220.096 65.1024 220.096C65.8384 220.096 66.473 220.261 67.0064 220.592C67.5397 220.923 67.9504 221.392 68.2384 222C68.537 222.597 68.6864 223.301 68.6864 224.112C68.6864 224.933 68.537 225.643 68.2384 226.24C67.9504 226.837 67.5397 227.301 67.0064 227.632C66.473 227.963 65.8384 228.128 65.1024 228.128ZM65.1024 227.312C65.9024 227.312 66.5317 227.035 66.9904 226.48C67.4597 225.925 67.6944 225.136 67.6944 224.112C67.6944 223.099 67.4597 222.315 66.9904 221.76C66.5317 221.205 65.9024 220.928 65.1024 220.928C64.3237 220.928 63.6997 221.205 63.2304 221.76C62.761 222.315 62.5264 223.099 62.5264 224.112C62.5264 225.136 62.761 225.925 63.2304 226.48C63.6997 227.035 64.3237 227.312 65.1024 227.312ZM70.7964 228V220.24H71.7564V222.048H71.5804C71.7084 221.632 71.895 221.28 72.1404 220.992C72.3964 220.704 72.7004 220.485 73.0524 220.336C73.4044 220.176 73.7884 220.096 74.2044 220.096C74.887 220.096 75.431 220.261 75.8364 220.592C76.2524 220.923 76.5244 221.419 76.6524 222.08H76.4124C76.5937 221.483 76.9297 221.003 77.4204 220.64C77.9217 220.277 78.5084 220.096 79.1804 220.096C79.7564 220.096 80.231 220.208 80.6044 220.432C80.9884 220.656 81.2764 220.992 81.4684 221.44C81.6604 221.877 81.7564 222.432 81.7564 223.104V228H80.7804V223.184C80.7804 222.405 80.6417 221.84 80.3644 221.488C80.0977 221.125 79.6444 220.944 79.0044 220.944C78.5564 220.944 78.1617 221.051 77.8204 221.264C77.479 221.477 77.2177 221.781 77.0364 222.176C76.855 222.571 76.7644 223.04 76.7644 223.584V228H75.7884V223.184C75.7884 222.405 75.6497 221.84 75.3724 221.488C75.1057 221.125 74.6577 220.944 74.0284 220.944C73.5697 220.944 73.1697 221.051 72.8284 221.264C72.4977 221.477 72.2364 221.781 72.0444 222.176C71.863 222.571 71.7724 223.04 71.7724 223.584V228H70.7964ZM87.6873 228.128C86.8873 228.128 86.1993 227.968 85.6233 227.648C85.0473 227.328 84.6046 226.869 84.2953 226.272C83.9859 225.675 83.8313 224.965 83.8313 224.144C83.8313 223.333 83.9859 222.629 84.2953 222.032C84.6046 221.424 85.0313 220.949 85.5753 220.608C86.1299 220.267 86.7646 220.096 87.4793 220.096C88.1726 220.096 88.7593 220.251 89.2393 220.56C89.7299 220.859 90.1033 221.291 90.3593 221.856C90.6259 222.411 90.7593 223.083 90.7593 223.872V224.32H84.5353V223.6H90.1513L89.8953 223.808C89.8953 222.891 89.6926 222.176 89.2873 221.664C88.8819 221.141 88.2846 220.88 87.4953 220.88C86.9086 220.88 86.4126 221.019 86.0073 221.296C85.6019 221.563 85.2979 221.936 85.0953 222.416C84.8926 222.885 84.7913 223.429 84.7913 224.048V224.128C84.7913 224.811 84.8979 225.392 85.1113 225.872C85.3353 226.341 85.6659 226.699 86.1033 226.944C86.5406 227.189 87.0579 227.312 87.6553 227.312C88.1353 227.312 88.5833 227.237 88.9993 227.088C89.4259 226.939 89.8419 226.688 90.2473 226.336L90.6313 227.072C90.2899 227.392 89.8526 227.648 89.3193 227.84C88.7859 228.032 88.2419 228.128 87.6873 228.128ZM32.5823 268L37.6063 256.72H38.9823L44.0223 268H42.3263L40.9503 264.8L41.7023 265.248H34.8863L35.6223 264.8L34.2623 268H32.5823ZM38.2783 258.56L35.8623 264.288L35.4623 263.904H41.1103L40.7423 264.288L38.3103 258.56H38.2783ZM48.6854 268.144C47.8854 268.144 47.192 267.979 46.6054 267.648C46.0294 267.307 45.5814 266.832 45.2614 266.224C44.9414 265.605 44.7814 264.88 44.7814 264.048C44.7814 263.227 44.9414 262.517 45.2614 261.92C45.5814 261.323 46.0294 260.864 46.6054 260.544C47.192 260.213 47.8854 260.048 48.6854 260.048C49.176 260.048 49.6614 260.133 50.1414 260.304C50.6214 260.464 51.016 260.699 51.3254 261.008L50.8134 262.144C50.5254 261.867 50.2 261.664 49.8374 261.536C49.4747 261.397 49.1334 261.328 48.8134 261.328C48.056 261.328 47.4694 261.568 47.0534 262.048C46.648 262.517 46.4454 263.189 46.4454 264.064C46.4454 264.939 46.648 265.627 47.0534 266.128C47.4694 266.619 48.056 266.864 48.8134 266.864C49.1334 266.864 49.4747 266.8 49.8374 266.672C50.2 266.533 50.5254 266.325 50.8134 266.048L51.3254 267.2C51.016 267.488 50.616 267.717 50.1254 267.888C49.6454 268.059 49.1654 268.144 48.6854 268.144ZM56.0578 268.144C55.0871 268.144 54.3564 267.893 53.8658 267.392C53.3858 266.891 53.1458 266.165 53.1458 265.216V261.44H51.6258V260.192H53.1458V257.84H54.7618V260.192H57.1778V261.44H54.7618V265.088C54.7618 265.653 54.8791 266.08 55.1138 266.368C55.3591 266.656 55.7538 266.8 56.2977 266.8C56.4578 266.8 56.6178 266.779 56.7778 266.736C56.9484 266.693 57.1138 266.651 57.2738 266.608L57.5298 267.824C57.3698 267.92 57.1458 267.995 56.8578 268.048C56.5804 268.112 56.3138 268.144 56.0578 268.144ZM58.4295 258.384V256.704H60.3175V258.384H58.4295ZM58.5735 268V260.192H60.1895V268H58.5735ZM64.7521 268L61.3921 260.192H63.1361L65.7441 266.672H65.2961L67.9681 260.192H69.6161L66.2081 268H64.7521ZM70.6326 258.384V256.704H72.5206V258.384H70.6326ZM70.7766 268V260.192H72.3926V268H70.7766ZM77.9953 268.144C77.0246 268.144 76.2939 267.893 75.8033 267.392C75.3233 266.891 75.0833 266.165 75.0833 265.216V261.44H73.5633V260.192H75.0833V257.84H76.6993V260.192H79.1153V261.44H76.6993V265.088C76.6993 265.653 76.8166 266.08 77.0513 266.368C77.2966 266.656 77.6913 266.8 78.2352 266.8C78.3953 266.8 78.5553 266.779 78.7153 266.736C78.8859 266.693 79.0513 266.651 79.2113 266.608L79.4673 267.824C79.3073 267.92 79.0833 267.995 78.7953 268.048C78.5179 268.112 78.2513 268.144 77.9953 268.144ZM81.4204 270.88L82.9564 267.456V268.144L79.5484 260.192H81.2764L83.9004 266.672H83.4524L86.1084 260.192H87.7724L83.1164 270.88H81.4204ZM24.432 308L29.344 296.72H30.224L35.12 308H34.096L32.704 304.752L33.232 304.992H26.304L26.848 304.752L25.472 308H24.432ZM29.76 297.936L27.04 304.336L26.672 304.144H32.864L32.528 304.336L29.792 297.936H29.76ZM39.9168 308.128C39.1594 308.128 38.5088 307.963 37.9648 307.632C37.4208 307.291 36.9994 306.816 36.7008 306.208C36.4128 305.589 36.2688 304.875 36.2688 304.064C36.2688 303.243 36.4128 302.539 36.7008 301.952C36.9994 301.365 37.4208 300.912 37.9648 300.592C38.5088 300.261 39.1594 300.096 39.9168 300.096C40.3968 300.096 40.8608 300.187 41.3088 300.368C41.7674 300.549 42.1514 300.8 42.4608 301.12L42.0768 301.856C41.7461 301.536 41.3941 301.307 41.0208 301.168C40.6474 301.019 40.2901 300.944 39.9488 300.944C39.0848 300.944 38.4181 301.216 37.9488 301.76C37.4901 302.293 37.2608 303.067 37.2608 304.08C37.2608 305.083 37.4901 305.872 37.9488 306.448C38.4181 307.013 39.0848 307.296 39.9488 307.296C40.2901 307.296 40.6474 307.227 41.0208 307.088C41.3941 306.939 41.7461 306.704 42.0768 306.384L42.4608 307.12C42.1514 307.429 41.7621 307.675 41.2928 307.856C40.8341 308.037 40.3754 308.128 39.9168 308.128ZM47.0205 308.128C46.1565 308.128 45.5058 307.893 45.0685 307.424C44.6418 306.955 44.4285 306.283 44.4285 305.408V301.024H42.8925V300.24H44.4285V297.84H45.4045V300.24H47.9165V301.024H45.4045V305.28C45.4045 305.931 45.5378 306.427 45.8045 306.768C46.0712 307.109 46.5138 307.28 47.1325 307.28C47.3138 307.28 47.4898 307.259 47.6605 307.216C47.8312 307.163 47.9805 307.115 48.1085 307.072L48.3005 307.84C48.1832 307.915 47.9965 307.979 47.7405 308.032C47.4845 308.096 47.2445 308.128 47.0205 308.128ZM49.2919 298.192V296.96H50.6039V298.192H49.2919ZM49.4519 308V300.24H50.4279V308H49.4519ZM55.3028 308L51.9748 300.24H53.0628L56.0068 307.408H55.6068L58.5828 300.24H59.6068L56.2788 308H55.3028ZM60.9794 298.192V296.96H62.2914V298.192H60.9794ZM61.1394 308V300.24H62.1154V308H61.1394ZM67.6143 308.128C66.7503 308.128 66.0996 307.893 65.6623 307.424C65.2356 306.955 65.0223 306.283 65.0223 305.408V301.024H63.4863V300.24H65.0223V297.84H65.9983V300.24H68.5103V301.024H65.9983V305.28C65.9983 305.931 66.1316 306.427 66.3983 306.768C66.6649 307.109 67.1076 307.28 67.7263 307.28C67.9076 307.28 68.0836 307.259 68.2543 307.216C68.4249 307.163 68.5743 307.115 68.7023 307.072L68.8943 307.84C68.7769 307.915 68.5903 307.979 68.3343 308.032C68.0783 308.096 67.8383 308.128 67.6143 308.128ZM71.1314 310.88L72.5074 307.744V308.192L69.1154 300.24H70.2034L73.1474 307.408H72.7474L75.7074 300.24H76.7634L72.1874 310.88H71.1314ZM24.432 348L29.344 336.72H30.224L35.12 348H34.096L32.704 344.752L33.232 344.992H26.304L26.848 344.752L25.472 348H24.432ZM29.76 337.936L27.04 344.336L26.672 344.144H32.864L32.528 344.336L29.792 337.936H29.76ZM39.9168 348.128C39.1594 348.128 38.5088 347.963 37.9648 347.632C37.4208 347.291 36.9994 346.816 36.7008 346.208C36.4128 345.589 36.2688 344.875 36.2688 344.064C36.2688 343.243 36.4128 342.539 36.7008 341.952C36.9994 341.365 37.4208 340.912 37.9648 340.592C38.5088 340.261 39.1594 340.096 39.9168 340.096C40.3968 340.096 40.8608 340.187 41.3088 340.368C41.7674 340.549 42.1514 340.8 42.4608 341.12L42.0768 341.856C41.7461 341.536 41.3941 341.307 41.0208 341.168C40.6474 341.019 40.2901 340.944 39.9488 340.944C39.0848 340.944 38.4181 341.216 37.9488 341.76C37.4901 342.293 37.2608 343.067 37.2608 344.08C37.2608 345.083 37.4901 345.872 37.9488 346.448C38.4181 347.013 39.0848 347.296 39.9488 347.296C40.2901 347.296 40.6474 347.227 41.0208 347.088C41.3941 346.939 41.7461 346.704 42.0768 346.384L42.4608 347.12C42.1514 347.429 41.7621 347.675 41.2928 347.856C40.8341 348.037 40.3754 348.128 39.9168 348.128ZM47.0205 348.128C46.1565 348.128 45.5058 347.893 45.0685 347.424C44.6418 346.955 44.4285 346.283 44.4285 345.408V341.024H42.8925V340.24H44.4285V337.84H45.4045V340.24H47.9165V341.024H45.4045V345.28C45.4045 345.931 45.5378 346.427 45.8045 346.768C46.0712 347.109 46.5138 347.28 47.1325 347.28C47.3138 347.28 47.4898 347.259 47.6605 347.216C47.8312 347.163 47.9805 347.115 48.1085 347.072L48.3005 347.84C48.1832 347.915 47.9965 347.979 47.7405 348.032C47.4845 348.096 47.2445 348.128 47.0205 348.128ZM49.2919 338.192V336.96H50.6039V338.192H49.2919ZM49.4519 348V340.24H50.4279V348H49.4519ZM55.3028 348L51.9748 340.24H53.0628L56.0068 347.408H55.6068L58.5828 340.24H59.6068L56.2788 348H55.3028ZM60.9794 338.192V336.96H62.2914V338.192H60.9794ZM61.1394 348V340.24H62.1154V348H61.1394ZM67.6143 348.128C66.7503 348.128 66.0996 347.893 65.6623 347.424C65.2356 346.955 65.0223 346.283 65.0223 345.408V341.024H63.4863V340.24H65.0223V337.84H65.9983V340.24H68.5103V341.024H65.9983V345.28C65.9983 345.931 66.1316 346.427 66.3983 346.768C66.6649 347.109 67.1076 347.28 67.7263 347.28C67.9076 347.28 68.0836 347.259 68.2543 347.216C68.4249 347.163 68.5743 347.115 68.7023 347.072L68.8943 347.84C68.7769 347.915 68.5903 347.979 68.3343 348.032C68.0783 348.096 67.8383 348.128 67.6143 348.128ZM71.1314 350.88L72.5074 347.744V348.192L69.1154 340.24H70.2034L73.1474 347.408H72.7474L75.7074 340.24H76.7634L72.1874 350.88H71.1314ZM24.432 388L29.344 376.72H30.224L35.12 388H34.096L32.704 384.752L33.232 384.992H26.304L26.848 384.752L25.472 388H24.432ZM29.76 377.936L27.04 384.336L26.672 384.144H32.864L32.528 384.336L29.792 377.936H29.76ZM39.9168 388.128C39.1594 388.128 38.5088 387.963 37.9648 387.632C37.4208 387.291 36.9994 386.816 36.7008 386.208C36.4128 385.589 36.2688 384.875 36.2688 384.064C36.2688 383.243 36.4128 382.539 36.7008 381.952C36.9994 381.365 37.4208 380.912 37.9648 380.592C38.5088 380.261 39.1594 380.096 39.9168 380.096C40.3968 380.096 40.8608 380.187 41.3088 380.368C41.7674 380.549 42.1514 380.8 42.4608 381.12L42.0768 381.856C41.7461 381.536 41.3941 381.307 41.0208 381.168C40.6474 381.019 40.2901 380.944 39.9488 380.944C39.0848 380.944 38.4181 381.216 37.9488 381.76C37.4901 382.293 37.2608 383.067 37.2608 384.08C37.2608 385.083 37.4901 385.872 37.9488 386.448C38.4181 387.013 39.0848 387.296 39.9488 387.296C40.2901 387.296 40.6474 387.227 41.0208 387.088C41.3941 386.939 41.7461 386.704 42.0768 386.384L42.4608 387.12C42.1514 387.429 41.7621 387.675 41.2928 387.856C40.8341 388.037 40.3754 388.128 39.9168 388.128ZM47.0205 388.128C46.1565 388.128 45.5058 387.893 45.0685 387.424C44.6418 386.955 44.4285 386.283 44.4285 385.408V381.024H42.8925V380.24H44.4285V377.84H45.4045V380.24H47.9165V381.024H45.4045V385.28C45.4045 385.931 45.5378 386.427 45.8045 386.768C46.0712 387.109 46.5138 387.28 47.1325 387.28C47.3138 387.28 47.4898 387.259 47.6605 387.216C47.8312 387.163 47.9805 387.115 48.1085 387.072L48.3005 387.84C48.1832 387.915 47.9965 387.979 47.7405 388.032C47.4845 388.096 47.2445 388.128 47.0205 388.128ZM49.2919 378.192V376.96H50.6039V378.192H49.2919ZM49.4519 388V380.24H50.4279V388H49.4519ZM55.3028 388L51.9748 380.24H53.0628L56.0068 387.408H55.6068L58.5828 380.24H59.6068L56.2788 388H55.3028ZM60.9794 378.192V376.96H62.2914V378.192H60.9794ZM61.1394 388V380.24H62.1154V388H61.1394ZM67.6143 388.128C66.7503 388.128 66.0996 387.893 65.6623 387.424C65.2356 386.955 65.0223 386.283 65.0223 385.408V381.024H63.4863V380.24H65.0223V377.84H65.9983V380.24H68.5103V381.024H65.9983V385.28C65.9983 385.931 66.1316 386.427 66.3983 386.768C66.6649 387.109 67.1076 387.28 67.7263 387.28C67.9076 387.28 68.0836 387.259 68.2543 387.216C68.4249 387.163 68.5743 387.115 68.7023 387.072L68.8943 387.84C68.7769 387.915 68.5903 387.979 68.3343 388.032C68.0783 388.096 67.8383 388.128 67.6143 388.128ZM71.1314 390.88L72.5074 387.744V388.192L69.1154 380.24H70.2034L73.1474 387.408H72.7474L75.7074 380.24H76.7634L72.1874 390.88H71.1314Z" fill="black"/>
<line x1="21.5" y1="243.232" x2="21.5" y2="279.673" stroke="#9E1E4D" stroke-width="3"/>
</g>
<defs>
<clipPath id="clip0_248_2452">
<rect width="380" height="455" fill="white"/>
</clipPath>
<clipPath id="clip1_248_2452">
<rect width="18" height="18" fill="white" transform="translate(49 19)"/>
</clipPath>
<clipPath id="clip2_248_2452">
<rect width="18" height="18" fill="white" transform="translate(86 18)"/>
</clipPath>
</defs>
</svg>
