<svg width="160" height="35" viewBox="0 0 160 35" fill="none" xmlns="http://www.w3.org/2000/svg">
<rect width="160" height="35" fill="#3775C1"/>
<rect x="13.5" y="8" width="19" height="19" stroke="white"/>
<g clip-path="url(#clip0_28_270)">
<path d="M23.7801 17.5001L32.3801 8.88006C32.6001 8.66006 32.6001 8.32006 32.3801 8.10006C32.1601 7.88006 31.8201 7.88006 31.6001 8.10006L23.0001 16.7201L14.3801 8.12006C14.1801 7.90006 13.8201 7.90006 13.6201 8.12006C13.4001 8.32006 13.4001 8.68006 13.6201 8.88006L22.2201 17.5001L13.6201 26.1201C13.4001 26.3401 13.4001 26.6801 13.6201 26.9001C13.7201 27.0001 13.8601 27.0601 14.0001 27.0601C14.1401 27.0601 14.2801 27.0001 14.3801 26.9001L23.0001 18.2801L31.6201 26.9001C31.7201 27.0001 31.8601 27.0601 32.0001 27.0601C32.1401 27.0601 32.2801 27.0001 32.3801 26.9001C32.6001 26.6801 32.6001 26.3401 32.3801 26.1201L23.7801 17.5001Z" fill="white"/>
</g>
<rect x="13.5" y="8" width="19" height="19" stroke="white"/>
<path d="M41.216 25.38V14.724H42.48V16.564H42.32C42.4907 15.956 42.8267 15.476 43.328 15.124C43.84 14.7613 44.448 14.58 45.152 14.58C45.8453 14.58 46.448 14.7453 46.96 15.076C47.4827 15.396 47.8827 15.86 48.16 16.468C48.448 17.0653 48.592 17.78 48.592 18.612C48.592 19.4333 48.448 20.148 48.16 20.756C47.8827 21.3533 47.488 21.8173 46.976 22.148C46.464 22.4787 45.856 22.644 45.152 22.644C44.448 22.644 43.8453 22.468 43.344 22.116C42.8427 21.7533 42.5013 21.2733 42.32 20.676H42.512V25.38H41.216ZM44.88 21.604C45.616 21.604 46.1973 21.348 46.624 20.836C47.0613 20.3133 47.28 19.572 47.28 18.612C47.28 17.6413 47.0613 16.9 46.624 16.388C46.1973 15.876 45.616 15.62 44.88 15.62C44.1547 15.62 43.5733 15.876 43.136 16.388C42.6987 16.9 42.48 17.6413 42.48 18.612C42.48 19.572 42.6987 20.3133 43.136 20.836C43.5733 21.348 44.1547 21.604 44.88 21.604ZM50.5441 22.5V14.724H51.8081V16.564H51.6481C51.8295 15.9347 52.1441 15.46 52.5921 15.14C53.0401 14.8093 53.6321 14.6173 54.3681 14.564L54.8321 14.516L54.9281 15.636L54.1121 15.732C53.3868 15.796 52.8268 16.0307 52.4321 16.436C52.0481 16.8307 51.8561 17.3747 51.8561 18.068V22.5H50.5441ZM56.1185 12.788V11.332H57.7185V12.788H56.1185ZM56.2785 22.5V14.724H57.5745V22.5H56.2785ZM60.0293 22.5V14.724H61.2933V16.452H61.1173C61.2453 16.0573 61.4319 15.7213 61.6773 15.444C61.9333 15.156 62.2319 14.9427 62.5733 14.804C62.9253 14.6547 63.3093 14.58 63.7253 14.58C64.3866 14.58 64.9199 14.74 65.3253 15.06C65.7413 15.3693 66.0186 15.8547 66.1573 16.516H65.9173C66.1093 15.9187 66.4506 15.4493 66.9413 15.108C67.4426 14.756 68.0239 14.58 68.6853 14.58C69.2719 14.58 69.7519 14.692 70.1253 14.916C70.5093 15.14 70.7973 15.4813 70.9893 15.94C71.1813 16.388 71.2773 16.9587 71.2773 17.652V22.5H69.9813V17.716C69.9813 17.0013 69.8586 16.4787 69.6133 16.148C69.3679 15.8067 68.9519 15.636 68.3653 15.636C67.9493 15.636 67.5813 15.7373 67.2613 15.94C66.9519 16.1427 66.7119 16.4307 66.5413 16.804C66.3813 17.1667 66.3013 17.5987 66.3013 18.1V22.5H65.0053V17.716C65.0053 17.0013 64.8773 16.4787 64.6213 16.148C64.3759 15.8067 63.9653 15.636 63.3893 15.636C62.9626 15.636 62.5946 15.7373 62.2853 15.94C61.9759 16.1427 61.7359 16.4307 61.5653 16.804C61.4053 17.1667 61.3253 17.5987 61.3253 18.1V22.5H60.0293ZM76.1484 22.644C75.615 22.644 75.135 22.5427 74.7084 22.34C74.2924 22.1267 73.9617 21.8387 73.7164 21.476C73.471 21.1133 73.3484 20.708 73.3484 20.26C73.3484 19.684 73.4924 19.2307 73.7804 18.9C74.079 18.5693 74.5644 18.3347 75.2364 18.196C75.919 18.0573 76.847 17.988 78.0204 17.988H78.7404V18.836H78.0364C77.3857 18.836 76.8417 18.8573 76.4044 18.9C75.967 18.9427 75.6204 19.0173 75.3644 19.124C75.1084 19.2307 74.927 19.3693 74.8204 19.54C74.7137 19.7107 74.6604 19.924 74.6604 20.18C74.6604 20.6173 74.8097 20.9747 75.1084 21.252C75.4177 21.5293 75.8337 21.668 76.3564 21.668C76.783 21.668 77.1564 21.5667 77.4764 21.364C77.807 21.1613 78.063 20.884 78.2444 20.532C78.4364 20.18 78.5324 19.7747 78.5324 19.316V17.492C78.5324 16.8307 78.399 16.356 78.1324 16.068C77.8657 15.7693 77.4284 15.62 76.8204 15.62C76.351 15.62 75.8977 15.6893 75.4604 15.828C75.023 15.956 74.575 16.1693 74.1164 16.468L73.6684 15.524C73.9457 15.332 74.2604 15.1667 74.6124 15.028C74.9644 14.8787 75.3324 14.7667 75.7164 14.692C76.1004 14.6173 76.4684 14.58 76.8204 14.58C77.4924 14.58 78.047 14.692 78.4844 14.916C78.9217 15.1293 79.247 15.46 79.4604 15.908C79.6737 16.3453 79.7804 16.9107 79.7804 17.604V22.5H78.5644V20.692H78.7084C78.623 21.0973 78.4577 21.444 78.2124 21.732C77.9777 22.02 77.6844 22.244 77.3324 22.404C76.9804 22.564 76.5857 22.644 76.1484 22.644ZM82.1848 22.5V14.724H83.4488V16.564H83.2888C83.4701 15.9347 83.7848 15.46 84.2328 15.14C84.6808 14.8093 85.2728 14.6173 86.0088 14.564L86.4728 14.516L86.5688 15.636L85.7528 15.732C85.0274 15.796 84.4674 16.0307 84.0728 16.436C83.6888 16.8307 83.4968 17.3747 83.4968 18.068V22.5H82.1848ZM89.2995 25.38L90.7555 22.1V22.66L87.3475 14.724H88.7555L91.5395 21.54H91.1075L93.9235 14.724H95.2835L90.6595 25.38H89.2995ZM104.668 22.644C103.964 22.644 103.356 22.4627 102.844 22.1C102.342 21.7373 102.006 21.252 101.836 20.644H101.996V22.5H100.732V11.22H102.028V16.532H101.836C102.017 15.9347 102.358 15.46 102.86 15.108C103.361 14.756 103.964 14.58 104.668 14.58C105.372 14.58 105.98 14.7453 106.492 15.076C107.004 15.396 107.398 15.86 107.676 16.468C107.964 17.0653 108.108 17.78 108.108 18.612C108.108 19.4333 107.964 20.148 107.676 20.756C107.398 21.3533 106.998 21.8173 106.476 22.148C105.964 22.4787 105.361 22.644 104.668 22.644ZM104.396 21.604C105.132 21.604 105.713 21.348 106.14 20.836C106.577 20.3133 106.796 19.572 106.796 18.612C106.796 17.6413 106.577 16.9 106.14 16.388C105.713 15.876 105.132 15.62 104.396 15.62C103.67 15.62 103.089 15.876 102.652 16.388C102.214 16.9 101.996 17.6413 101.996 18.612C101.996 19.572 102.214 20.3133 102.652 20.836C103.089 21.348 103.67 21.604 104.396 21.604ZM112.812 22.644C112.182 22.644 111.66 22.532 111.244 22.308C110.838 22.0733 110.529 21.7267 110.316 21.268C110.113 20.8093 110.012 20.2387 110.012 19.556V14.724H111.308V19.54C111.308 19.9987 111.366 20.3827 111.484 20.692C111.612 20.9907 111.809 21.2147 112.076 21.364C112.342 21.5027 112.673 21.572 113.068 21.572C113.516 21.572 113.905 21.4707 114.236 21.268C114.566 21.0653 114.828 20.7827 115.02 20.42C115.212 20.0573 115.308 19.6307 115.308 19.14V14.724H116.604V22.5H115.34V20.708H115.548C115.334 21.3373 114.982 21.8173 114.492 22.148C114.012 22.4787 113.452 22.644 112.812 22.644ZM122.149 22.644C121.231 22.644 120.543 22.3987 120.085 21.908C119.626 21.4173 119.397 20.7187 119.397 19.812V15.732H117.877V14.724H119.397V12.34H120.693V14.724H123.157V15.732H120.693V19.684C120.693 20.292 120.821 20.756 121.077 21.076C121.333 21.3853 121.749 21.54 122.325 21.54C122.495 21.54 122.666 21.5187 122.837 21.476C123.007 21.4333 123.162 21.3907 123.301 21.348L123.525 22.34C123.386 22.4147 123.183 22.484 122.917 22.548C122.65 22.612 122.394 22.644 122.149 22.644ZM127.539 22.644C126.622 22.644 125.934 22.3987 125.475 21.908C125.016 21.4173 124.787 20.7187 124.787 19.812V15.732H123.267V14.724H124.787V12.34H126.083V14.724H128.547V15.732H126.083V19.684C126.083 20.292 126.211 20.756 126.467 21.076C126.723 21.3853 127.139 21.54 127.715 21.54C127.886 21.54 128.056 21.5187 128.227 21.476C128.398 21.4333 128.552 21.3907 128.691 21.348L128.915 22.34C128.776 22.4147 128.574 22.484 128.307 22.548C128.04 22.612 127.784 22.644 127.539 22.644ZM133.167 22.644C132.409 22.644 131.753 22.4787 131.199 22.148C130.644 21.8173 130.212 21.3533 129.903 20.756C129.604 20.148 129.455 19.4333 129.455 18.612C129.455 17.7907 129.604 17.0813 129.903 16.484C130.212 15.876 130.644 15.4067 131.199 15.076C131.753 14.7453 132.409 14.58 133.167 14.58C133.924 14.58 134.58 14.7453 135.135 15.076C135.689 15.4067 136.116 15.876 136.415 16.484C136.724 17.0813 136.879 17.7907 136.879 18.612C136.879 19.4333 136.724 20.148 136.415 20.756C136.116 21.3533 135.689 21.8173 135.135 22.148C134.58 22.4787 133.924 22.644 133.167 22.644ZM133.167 21.604C133.903 21.604 134.484 21.348 134.911 20.836C135.348 20.3133 135.567 19.5667 135.567 18.596C135.567 17.636 135.348 16.9 134.911 16.388C134.484 15.876 133.903 15.62 133.167 15.62C132.441 15.62 131.86 15.876 131.423 16.388C130.985 16.9 130.767 17.636 130.767 18.596C130.767 19.5667 130.985 20.3133 131.423 20.836C131.86 21.348 132.441 21.604 133.167 21.604ZM138.825 22.5V14.724H140.089V16.452H139.913C140.137 15.8333 140.5 15.3693 141.001 15.06C141.513 14.74 142.1 14.58 142.761 14.58C143.38 14.58 143.892 14.692 144.297 14.916C144.713 15.1293 145.023 15.4653 145.225 15.924C145.428 16.3827 145.529 16.9587 145.529 17.652V22.5H144.233V17.732C144.233 17.252 144.169 16.8573 144.041 16.548C143.924 16.2387 143.732 16.0093 143.465 15.86C143.209 15.7107 142.873 15.636 142.457 15.636C141.988 15.636 141.577 15.7373 141.225 15.94C140.873 16.1427 140.601 16.4253 140.409 16.788C140.217 17.1507 140.121 17.5773 140.121 18.068V22.5H138.825Z" fill="white"/>
<defs>
<clipPath id="clip0_28_270">
<rect x="13" y="7.5" width="20" height="20" fill="white"/>
</clipPath>
</defs>
</svg>
