<svg width="303" height="53" viewBox="0 0 303 53" fill="none" xmlns="http://www.w3.org/2000/svg">
<rect width="303" height="53" fill="white"/>
<g clip-path="url(#clip0_244_1404)">
<path d="M18.9999 19.5039C14.3199 19.5039 10.5039 23.3199 10.5039 27.9999C10.5039 32.6799 14.3199 36.4959 18.9999 36.4959C23.6799 36.4959 27.4959 32.6799 27.4959 27.9999C27.4959 23.3019 23.6799 19.5039 18.9999 19.5039ZM18.9999 35.5059C14.8599 35.5059 11.4939 32.1399 11.4939 27.9999C11.4939 23.8599 14.8599 20.4939 18.9999 20.4939C23.1399 20.4939 26.5059 23.8599 26.5059 27.9999C26.5059 32.1399 23.1399 35.5059 18.9999 35.5059Z" fill="black"/>
<path d="M19 20.4939C23.14 20.4939 26.506 23.8599 26.506 27.9999C26.506 32.1399 23.14 35.5059 19 35.5059V20.4939Z" fill="black"/>
</g>
<g clip-path="url(#clip1_244_1404)">
<path d="M63.3439 19.6299H48.6559C48.0979 19.6299 47.6299 20.0979 47.6299 20.6559V35.3439C47.6299 35.9019 48.0979 36.3699 48.6559 36.3699H63.3259C63.8659 36.3699 64.3339 35.9379 64.3699 35.3799V20.6559C64.3699 20.0979 63.9019 19.6299 63.3439 19.6299ZM48.6559 20.6199H63.3439C63.3619 20.6199 63.3799 20.6379 63.3799 20.6559V23.2839H48.6199V20.6559C48.6199 20.6379 48.6379 20.6199 48.6559 20.6199ZM53.5699 24.2739H63.3799V29.3319H53.5699V24.2739ZM48.6199 35.3439V24.2739H52.5799V35.3799H48.6559C48.6379 35.3799 48.6199 35.3619 48.6199 35.3439ZM63.3259 35.3799H53.5699V30.3219H63.3799V35.3079C63.3799 35.3439 63.3439 35.3799 63.3259 35.3799Z" fill="black"/>
</g>
<path d="M83.472 33V21.72H87.104C88.3093 21.72 89.328 21.9333 90.16 22.36C90.992 22.7867 91.6267 23.4213 92.064 24.264C92.5013 25.096 92.72 26.1253 92.72 27.352C92.72 28.5787 92.5013 29.6133 92.064 30.456C91.6267 31.288 90.992 31.9227 90.16 32.36C89.328 32.7867 88.3093 33 87.104 33H83.472ZM84.448 32.136H87.024C88.5707 32.136 89.728 31.736 90.496 30.936C91.2747 30.136 91.664 28.9413 91.664 27.352C91.664 25.7627 91.2747 24.5733 90.496 23.784C89.728 22.984 88.5707 22.584 87.024 22.584H84.448V32.136ZM95.2064 33V21.72H102.15V22.568H96.1664V26.856H101.814V27.704H96.1664V32.152H102.15V33H95.2064Z" fill="black"/>
<line x1="127.5" y1="2.18557e-08" x2="127.5" y2="53" stroke="black"/>
<path d="M156.392 31.5V20.22H157.416L164.6 29.804H164.216V20.22H165.432V31.5H164.44L157.256 21.916H157.624V31.5H156.392ZM170.508 31.644C169.974 31.644 169.494 31.5427 169.068 31.34C168.652 31.1267 168.321 30.8387 168.076 30.476C167.83 30.1133 167.708 29.708 167.708 29.26C167.708 28.684 167.852 28.2307 168.14 27.9C168.438 27.5693 168.924 27.3347 169.596 27.196C170.278 27.0573 171.206 26.988 172.38 26.988H173.1V27.836H172.396C171.745 27.836 171.201 27.8573 170.764 27.9C170.326 27.9427 169.98 28.0173 169.724 28.124C169.468 28.2307 169.286 28.3693 169.18 28.54C169.073 28.7107 169.02 28.924 169.02 29.18C169.02 29.6173 169.169 29.9747 169.468 30.252C169.777 30.5293 170.193 30.668 170.716 30.668C171.142 30.668 171.516 30.5667 171.836 30.364C172.166 30.1613 172.422 29.884 172.604 29.532C172.796 29.18 172.892 28.7747 172.892 28.316V26.492C172.892 25.8307 172.758 25.356 172.492 25.068C172.225 24.7693 171.788 24.62 171.18 24.62C170.71 24.62 170.257 24.6893 169.82 24.828C169.382 24.956 168.934 25.1693 168.476 25.468L168.028 24.524C168.305 24.332 168.62 24.1667 168.972 24.028C169.324 23.8787 169.692 23.7667 170.076 23.692C170.46 23.6173 170.828 23.58 171.18 23.58C171.852 23.58 172.406 23.692 172.844 23.916C173.281 24.1293 173.606 24.46 173.82 24.908C174.033 25.3453 174.14 25.9107 174.14 26.604V31.5H172.924V29.692H173.068C172.982 30.0973 172.817 30.444 172.572 30.732C172.337 31.02 172.044 31.244 171.692 31.404C171.34 31.564 170.945 31.644 170.508 31.644ZM176.576 31.5V23.724H177.84V25.452H177.664C177.792 25.0573 177.979 24.7213 178.224 24.444C178.48 24.156 178.779 23.9427 179.12 23.804C179.472 23.6547 179.856 23.58 180.272 23.58C180.933 23.58 181.467 23.74 181.872 24.06C182.288 24.3693 182.565 24.8547 182.704 25.516H182.464C182.656 24.9187 182.997 24.4493 183.488 24.108C183.989 23.756 184.571 23.58 185.232 23.58C185.819 23.58 186.299 23.692 186.672 23.916C187.056 24.14 187.344 24.4813 187.536 24.94C187.728 25.388 187.824 25.9587 187.824 26.652V31.5H186.528V26.716C186.528 26.0013 186.405 25.4787 186.16 25.148C185.915 24.8067 185.499 24.636 184.912 24.636C184.496 24.636 184.128 24.7373 183.808 24.94C183.499 25.1427 183.259 25.4307 183.088 25.804C182.928 26.1667 182.848 26.5987 182.848 27.1V31.5H181.552V26.716C181.552 26.0013 181.424 25.4787 181.168 25.148C180.923 24.8067 180.512 24.636 179.936 24.636C179.509 24.636 179.141 24.7373 178.832 24.94C178.523 25.1427 178.283 25.4307 178.112 25.804C177.952 26.1667 177.872 26.5987 177.872 27.1V31.5H176.576ZM193.751 31.644C192.93 31.644 192.221 31.484 191.623 31.164C191.037 30.8333 190.578 30.3693 190.247 29.772C189.927 29.1747 189.767 28.46 189.767 27.628C189.767 26.8173 189.927 26.1133 190.247 25.516C190.567 24.908 191.005 24.4333 191.559 24.092C192.125 23.7507 192.775 23.58 193.511 23.58C194.215 23.58 194.818 23.7347 195.319 24.044C195.821 24.3533 196.205 24.7907 196.471 25.356C196.749 25.9213 196.887 26.5987 196.887 27.388V27.884H190.759V27.036H196.023L195.767 27.244C195.767 26.3907 195.575 25.7293 195.191 25.26C194.818 24.78 194.269 24.54 193.543 24.54C192.999 24.54 192.535 24.668 192.151 24.924C191.778 25.1693 191.495 25.516 191.303 25.964C191.111 26.4013 191.015 26.9133 191.015 27.5V27.596C191.015 28.2467 191.117 28.796 191.319 29.244C191.533 29.692 191.847 30.0333 192.263 30.268C192.679 30.492 193.175 30.604 193.751 30.604C194.21 30.604 194.653 30.5347 195.079 30.396C195.517 30.2467 195.927 30.0067 196.311 29.676L196.759 30.588C196.407 30.908 195.959 31.164 195.415 31.356C194.871 31.548 194.317 31.644 193.751 31.644ZM203.048 31.5V20.22H204.36V30.348H210.104V31.5H203.048ZM214.008 31.644C213.474 31.644 212.994 31.5427 212.568 31.34C212.152 31.1267 211.821 30.8387 211.576 30.476C211.33 30.1133 211.208 29.708 211.208 29.26C211.208 28.684 211.352 28.2307 211.64 27.9C211.938 27.5693 212.424 27.3347 213.096 27.196C213.778 27.0573 214.706 26.988 215.88 26.988H216.6V27.836H215.896C215.245 27.836 214.701 27.8573 214.264 27.9C213.826 27.9427 213.48 28.0173 213.224 28.124C212.968 28.2307 212.786 28.3693 212.68 28.54C212.573 28.7107 212.52 28.924 212.52 29.18C212.52 29.6173 212.669 29.9747 212.968 30.252C213.277 30.5293 213.693 30.668 214.216 30.668C214.642 30.668 215.016 30.5667 215.336 30.364C215.666 30.1613 215.922 29.884 216.104 29.532C216.296 29.18 216.392 28.7747 216.392 28.316V26.492C216.392 25.8307 216.258 25.356 215.992 25.068C215.725 24.7693 215.288 24.62 214.68 24.62C214.21 24.62 213.757 24.6893 213.32 24.828C212.882 24.956 212.434 25.1693 211.976 25.468L211.528 24.524C211.805 24.332 212.12 24.1667 212.472 24.028C212.824 23.8787 213.192 23.7667 213.576 23.692C213.96 23.6173 214.328 23.58 214.68 23.58C215.352 23.58 215.906 23.692 216.344 23.916C216.781 24.1293 217.106 24.46 217.32 24.908C217.533 25.3453 217.64 25.9107 217.64 26.604V31.5H216.424V29.692H216.568C216.482 30.0973 216.317 30.444 216.072 30.732C215.837 31.02 215.544 31.244 215.192 31.404C214.84 31.564 214.445 31.644 214.008 31.644ZM222.668 31.644C222.263 31.644 221.868 31.6013 221.484 31.516C221.111 31.4413 220.759 31.3347 220.428 31.196C220.108 31.0467 219.831 30.8707 219.596 30.668L220.012 29.756C220.268 29.9587 220.545 30.1293 220.844 30.268C221.143 30.396 221.447 30.492 221.756 30.556C222.065 30.62 222.38 30.652 222.7 30.652C223.308 30.652 223.767 30.54 224.076 30.316C224.385 30.092 224.54 29.788 224.54 29.404C224.54 29.1053 224.439 28.8707 224.236 28.7C224.033 28.5187 223.713 28.38 223.276 28.284L221.82 27.964C221.148 27.8253 220.647 27.5853 220.316 27.244C219.996 26.9027 219.836 26.46 219.836 25.916C219.836 25.436 219.959 25.0253 220.204 24.684C220.46 24.332 220.817 24.06 221.276 23.868C221.735 23.676 222.268 23.58 222.876 23.58C223.239 23.58 223.585 23.6173 223.916 23.692C224.247 23.7667 224.556 23.8787 224.844 24.028C225.143 24.1667 225.399 24.3427 225.612 24.556L225.18 25.468C224.977 25.276 224.748 25.116 224.492 24.988C224.236 24.8493 223.969 24.748 223.692 24.684C223.425 24.6093 223.153 24.572 222.876 24.572C222.279 24.572 221.825 24.6893 221.516 24.924C221.207 25.1587 221.052 25.468 221.052 25.852C221.052 26.1507 221.148 26.396 221.34 26.588C221.532 26.78 221.831 26.9187 222.236 27.004L223.692 27.308C224.385 27.4573 224.903 27.6973 225.244 28.028C225.596 28.348 225.772 28.7853 225.772 29.34C225.772 29.8093 225.644 30.22 225.388 30.572C225.132 30.9133 224.769 31.18 224.3 31.372C223.841 31.5533 223.297 31.644 222.668 31.644ZM230.789 31.644C229.872 31.644 229.184 31.3987 228.725 30.908C228.266 30.4173 228.037 29.7187 228.037 28.812V24.732H226.517V23.724H228.037V21.34H229.333V23.724H231.797V24.732H229.333V28.684C229.333 29.292 229.461 29.756 229.717 30.076C229.973 30.3853 230.389 30.54 230.965 30.54C231.136 30.54 231.306 30.5187 231.477 30.476C231.648 30.4333 231.802 30.3907 231.941 30.348L232.165 31.34C232.026 31.4147 231.824 31.484 231.557 31.548C231.29 31.612 231.034 31.644 230.789 31.644ZM233.263 31.5V23.724H234.527V25.452H234.351C234.575 24.8333 234.938 24.3693 235.439 24.06C235.951 23.74 236.538 23.58 237.199 23.58C237.818 23.58 238.33 23.692 238.735 23.916C239.151 24.1293 239.46 24.4653 239.663 24.924C239.866 25.3827 239.967 25.9587 239.967 26.652V31.5H238.671V26.732C238.671 26.252 238.607 25.8573 238.479 25.548C238.362 25.2387 238.17 25.0093 237.903 24.86C237.647 24.7107 237.311 24.636 236.895 24.636C236.426 24.636 236.015 24.7373 235.663 24.94C235.311 25.1427 235.039 25.4253 234.847 25.788C234.655 26.1507 234.559 26.5773 234.559 27.068V31.5H233.263ZM244.805 31.644C244.271 31.644 243.791 31.5427 243.365 31.34C242.949 31.1267 242.618 30.8387 242.373 30.476C242.127 30.1133 242.005 29.708 242.005 29.26C242.005 28.684 242.149 28.2307 242.437 27.9C242.735 27.5693 243.221 27.3347 243.893 27.196C244.575 27.0573 245.503 26.988 246.677 26.988H247.397V27.836H246.693C246.042 27.836 245.498 27.8573 245.061 27.9C244.623 27.9427 244.277 28.0173 244.021 28.124C243.765 28.2307 243.583 28.3693 243.477 28.54C243.37 28.7107 243.317 28.924 243.317 29.18C243.317 29.6173 243.466 29.9747 243.765 30.252C244.074 30.5293 244.49 30.668 245.013 30.668C245.439 30.668 245.813 30.5667 246.133 30.364C246.463 30.1613 246.719 29.884 246.901 29.532C247.093 29.18 247.189 28.7747 247.189 28.316V26.492C247.189 25.8307 247.055 25.356 246.789 25.068C246.522 24.7693 246.085 24.62 245.477 24.62C245.007 24.62 244.554 24.6893 244.117 24.828C243.679 24.956 243.231 25.1693 242.773 25.468L242.325 24.524C242.602 24.332 242.917 24.1667 243.269 24.028C243.621 23.8787 243.989 23.7667 244.373 23.692C244.757 23.6173 245.125 23.58 245.477 23.58C246.149 23.58 246.703 23.692 247.141 23.916C247.578 24.1293 247.903 24.46 248.117 24.908C248.33 25.3453 248.437 25.9107 248.437 26.604V31.5H247.221V29.692H247.365C247.279 30.0973 247.114 30.444 246.869 30.732C246.634 31.02 246.341 31.244 245.989 31.404C245.637 31.564 245.242 31.644 244.805 31.644ZM250.873 31.5V23.724H252.137V25.452H251.961C252.089 25.0573 252.276 24.7213 252.521 24.444C252.777 24.156 253.076 23.9427 253.417 23.804C253.769 23.6547 254.153 23.58 254.569 23.58C255.23 23.58 255.764 23.74 256.169 24.06C256.585 24.3693 256.862 24.8547 257.001 25.516H256.761C256.953 24.9187 257.294 24.4493 257.785 24.108C258.286 23.756 258.868 23.58 259.529 23.58C260.116 23.58 260.596 23.692 260.969 23.916C261.353 24.14 261.641 24.4813 261.833 24.94C262.025 25.388 262.121 25.9587 262.121 26.652V31.5H260.825V26.716C260.825 26.0013 260.702 25.4787 260.457 25.148C260.212 24.8067 259.796 24.636 259.209 24.636C258.793 24.636 258.425 24.7373 258.105 24.94C257.796 25.1427 257.556 25.4307 257.385 25.804C257.225 26.1667 257.145 26.5987 257.145 27.1V31.5H255.849V26.716C255.849 26.0013 255.721 25.4787 255.465 25.148C255.22 24.8067 254.809 24.636 254.233 24.636C253.806 24.636 253.438 24.7373 253.129 24.94C252.82 25.1427 252.58 25.4307 252.409 25.804C252.249 26.1667 252.169 26.5987 252.169 27.1V31.5H250.873ZM268.048 31.644C267.227 31.644 266.517 31.484 265.92 31.164C265.333 30.8333 264.875 30.3693 264.544 29.772C264.224 29.1747 264.064 28.46 264.064 27.628C264.064 26.8173 264.224 26.1133 264.544 25.516C264.864 24.908 265.301 24.4333 265.856 24.092C266.421 23.7507 267.072 23.58 267.808 23.58C268.512 23.58 269.115 23.7347 269.616 24.044C270.117 24.3533 270.501 24.7907 270.768 25.356C271.045 25.9213 271.184 26.5987 271.184 27.388V27.884H265.056V27.036H270.32L270.064 27.244C270.064 26.3907 269.872 25.7293 269.488 25.26C269.115 24.78 268.565 24.54 267.84 24.54C267.296 24.54 266.832 24.668 266.448 24.924C266.075 25.1693 265.792 25.516 265.6 25.964C265.408 26.4013 265.312 26.9133 265.312 27.5V27.596C265.312 28.2467 265.413 28.796 265.616 29.244C265.829 29.692 266.144 30.0333 266.56 30.268C266.976 30.492 267.472 30.604 268.048 30.604C268.507 30.604 268.949 30.5347 269.376 30.396C269.813 30.2467 270.224 30.0067 270.608 29.676L271.056 30.588C270.704 30.908 270.256 31.164 269.712 31.356C269.168 31.548 268.613 31.644 268.048 31.644Z" fill="black"/>
<path d="M277.384 23.236L284.488 30.308C284.632 30.452 284.824 30.516 285.016 30.516C285.208 30.516 285.4 30.436 285.544 30.308L292.616 23.236C292.792 23.06 292.792 22.788 292.616 22.612C292.536 22.532 292.424 22.484 292.312 22.484C292.2 22.484 292.088 22.532 292.008 22.612L285.016 29.588L278.008 22.612C277.832 22.436 277.56 22.436 277.384 22.612C277.208 22.788 277.208 23.06 277.384 23.236Z" fill="black"/>
<defs>
<clipPath id="clip0_244_1404">
<rect width="18" height="18" fill="white" transform="translate(10 19)"/>
</clipPath>
<clipPath id="clip1_244_1404">
<rect width="18" height="18" fill="white" transform="translate(47 19)"/>
</clipPath>
</defs>
</svg>
