<svg width="490" height="1094" viewBox="0 0 490 1094" fill="none" xmlns="http://www.w3.org/2000/svg">
<g clip-path="url(#clip0_228_307)">
<rect width="490" height="1094" fill="white"/>
<rect x="-1" width="768" height="170" fill="#EBEBEB"/>
<path d="M102.96 92L103.89 87.23H102.42V84.05H104.49L105.57 78.56H103.08V75.38H106.14L107.07 70.85H110.52L109.59 75.38H112.2L113.1 70.85H116.55L115.65 75.38H117.12V78.56H115.05L113.97 84.05H116.46V87.23H113.37L112.44 92H108.99L109.92 87.23H107.34L106.41 92H102.96ZM107.94 84.05H110.52L111.6 78.56H109.02L107.94 84.05ZM120.378 92V77.24H125.568V79.82H125.238C125.518 79.22 125.888 78.71 126.348 78.29C126.808 77.85 127.348 77.51 127.968 77.27C128.608 77.03 129.308 76.91 130.068 76.91C131.148 76.91 132.068 77.17 132.828 77.69C133.608 78.21 134.168 79 134.508 80.06H134.088C134.548 79.08 135.238 78.31 136.158 77.75C137.078 77.19 138.098 76.91 139.218 76.91C140.378 76.91 141.328 77.14 142.068 77.6C142.808 78.04 143.358 78.74 143.718 79.7C144.098 80.64 144.288 81.83 144.288 83.27V92H138.948V83.42C138.948 82.56 138.818 81.94 138.558 81.56C138.298 81.18 137.868 80.99 137.268 80.99C136.788 80.99 136.368 81.11 136.008 81.35C135.668 81.57 135.408 81.91 135.228 82.37C135.068 82.81 134.988 83.35 134.988 83.99V92H129.648V83.42C129.648 82.56 129.518 81.94 129.258 81.56C128.998 81.18 128.568 80.99 127.968 80.99C127.488 80.99 127.078 81.11 126.738 81.35C126.398 81.57 126.138 81.91 125.958 82.37C125.798 82.81 125.718 83.35 125.718 83.99V92H120.378ZM152.518 92.33C151.378 92.33 150.368 92.12 149.488 91.7C148.628 91.28 147.948 90.71 147.448 89.99C146.968 89.25 146.728 88.41 146.728 87.47C146.728 86.39 147.008 85.54 147.568 84.92C148.128 84.3 149.028 83.86 150.268 83.6C151.508 83.32 153.158 83.18 155.218 83.18H156.868V85.7H155.218C154.638 85.7 154.128 85.73 153.688 85.79C153.268 85.85 152.918 85.95 152.638 86.09C152.358 86.21 152.148 86.37 152.008 86.57C151.868 86.77 151.798 87 151.798 87.26C151.798 87.72 151.958 88.1 152.278 88.4C152.618 88.7 153.098 88.85 153.718 88.85C154.218 88.85 154.658 88.74 155.038 88.52C155.438 88.3 155.758 88 155.998 87.62C156.238 87.22 156.358 86.76 156.358 86.24V82.76C156.358 82.04 156.168 81.53 155.788 81.23C155.428 80.93 154.798 80.78 153.898 80.78C153.138 80.78 152.298 80.9 151.378 81.14C150.458 81.38 149.558 81.75 148.678 82.25L147.328 78.74C147.848 78.38 148.488 78.06 149.248 77.78C150.028 77.5 150.848 77.29 151.708 77.15C152.588 76.99 153.398 76.91 154.138 76.91C155.778 76.91 157.128 77.15 158.188 77.63C159.268 78.09 160.068 78.81 160.588 79.79C161.128 80.75 161.398 81.99 161.398 83.51V92H156.418V89.21H156.598C156.498 89.85 156.268 90.4 155.908 90.86C155.548 91.32 155.078 91.68 154.498 91.94C153.918 92.2 153.258 92.33 152.518 92.33ZM164.289 74.69V69.86H169.899V74.69H164.289ZM164.439 92V77.24H169.779V92H164.439ZM172.876 92V77.24H178.066V79.82H177.736C178.216 78.88 178.896 78.16 179.776 77.66C180.676 77.16 181.696 76.91 182.836 76.91C184.016 76.91 184.986 77.14 185.746 77.6C186.506 78.04 187.076 78.74 187.456 79.7C187.836 80.64 188.026 81.83 188.026 83.27V92H182.686V83.48C182.686 82.88 182.616 82.4 182.476 82.04C182.336 81.66 182.126 81.39 181.846 81.23C181.586 81.07 181.256 80.99 180.856 80.99C180.316 80.99 179.846 81.11 179.446 81.35C179.046 81.57 178.736 81.89 178.516 82.31C178.316 82.73 178.216 83.23 178.216 83.81V92H172.876ZM203.884 92L197.674 77.24H203.074L206.674 86.66H206.044L209.584 77.24H212.914L216.454 86.66H215.914L219.454 77.24H224.524L218.374 92H213.964L209.914 81.95H212.104L208.294 92H203.884ZM225.549 74.69V69.86H231.159V74.69H225.549ZM225.699 92V77.24H231.039V92H225.699ZM239.896 92.33C238.636 92.33 237.516 92.02 236.536 91.4C235.576 90.78 234.816 89.89 234.256 88.73C233.716 87.57 233.446 86.2 233.446 84.62C233.446 83 233.716 81.62 234.256 80.48C234.816 79.34 235.576 78.46 236.536 77.84C237.516 77.22 238.636 76.91 239.896 76.91C240.996 76.91 241.986 77.17 242.866 77.69C243.746 78.21 244.336 78.88 244.636 79.7H244.306V70.85H249.646V92H244.426V89.33H244.696C244.416 90.23 243.826 90.96 242.926 91.52C242.046 92.06 241.036 92.33 239.896 92.33ZM241.606 88.4C242.406 88.4 243.066 88.1 243.586 87.5C244.106 86.9 244.366 85.94 244.366 84.62C244.366 83.28 244.106 82.32 243.586 81.74C243.066 81.14 242.406 80.84 241.606 80.84C240.786 80.84 240.116 81.14 239.596 81.74C239.076 82.32 238.816 83.28 238.816 84.62C238.816 85.94 239.076 86.9 239.596 87.5C240.116 88.1 240.786 88.4 241.606 88.4ZM260.48 92.33C258.24 92.33 256.58 91.81 255.5 90.77C254.42 89.73 253.88 88.16 253.88 86.06V81.17H251.12V77.24H253.88V72.95H259.22V77.24H263.42V81.17H259.22V85.88C259.22 86.62 259.39 87.17 259.73 87.53C260.09 87.87 260.65 88.04 261.41 88.04C261.65 88.04 261.91 88.01 262.19 87.95C262.49 87.89 262.82 87.82 263.18 87.74L263.9 91.58C263.44 91.82 262.9 92 262.28 92.12C261.68 92.26 261.08 92.33 260.48 92.33ZM265.513 92V70.85H270.853V79.82H270.373C270.853 78.88 271.533 78.16 272.413 77.66C273.313 77.16 274.333 76.91 275.473 76.91C276.653 76.91 277.623 77.14 278.383 77.6C279.143 78.04 279.713 78.74 280.093 79.7C280.473 80.64 280.663 81.83 280.663 83.27V92H275.323V83.48C275.323 82.88 275.253 82.4 275.113 82.04C274.973 81.66 274.763 81.39 274.483 81.23C274.223 81.07 273.893 80.99 273.493 80.99C272.953 80.99 272.483 81.11 272.083 81.35C271.683 81.57 271.373 81.89 271.153 82.31C270.953 82.73 270.853 83.23 270.853 83.81V92H265.513ZM283.436 82.7V77.24H288.986V82.7H283.436ZM283.436 92V86.54H288.986V92H283.436ZM308.414 92V88.46H299.834V84.59L309.284 70.85H313.724V84.29H316.484V88.46H313.724V92H308.414ZM308.414 84.29V77.39H309.254L303.734 85.58V84.29H308.414ZM324.033 92.33C323.273 92.33 322.513 92.25 321.753 92.09C320.993 91.93 320.263 91.69 319.563 91.37C318.863 91.03 318.223 90.62 317.643 90.14L319.353 86.12C320.073 86.68 320.833 87.1 321.633 87.38C322.453 87.66 323.273 87.8 324.093 87.8C324.853 87.8 325.513 87.69 326.073 87.47C326.633 87.23 327.093 86.88 327.453 86.42C327.833 85.94 328.123 85.35 328.323 84.65C328.523 83.95 328.623 83.14 328.623 82.22V80.66H329.043C328.883 81.5 328.553 82.23 328.053 82.85C327.573 83.47 326.973 83.94 326.253 84.26C325.553 84.58 324.763 84.74 323.883 84.74C322.723 84.74 321.683 84.45 320.763 83.87C319.843 83.27 319.103 82.45 318.543 81.41C318.003 80.35 317.733 79.17 317.733 77.87C317.733 76.43 318.043 75.16 318.663 74.06C319.303 72.96 320.173 72.1 321.273 71.48C322.373 70.84 323.633 70.52 325.053 70.52C326.913 70.52 328.483 70.94 329.763 71.78C331.063 72.62 332.053 73.84 332.733 75.44C333.413 77.02 333.753 78.95 333.753 81.23C333.753 83.55 333.363 85.54 332.583 87.2C331.823 88.86 330.713 90.13 329.253 91.01C327.813 91.89 326.073 92.33 324.033 92.33ZM325.353 80.54C325.873 80.54 326.323 80.42 326.703 80.18C327.103 79.94 327.403 79.6 327.603 79.16C327.823 78.72 327.933 78.21 327.933 77.63C327.933 77.05 327.823 76.54 327.603 76.1C327.403 75.66 327.103 75.32 326.703 75.08C326.323 74.84 325.873 74.72 325.353 74.72C324.833 74.72 324.373 74.84 323.973 75.08C323.593 75.32 323.293 75.66 323.073 76.1C322.873 76.54 322.773 77.05 322.773 77.63C322.773 78.21 322.883 78.72 323.103 79.16C323.323 79.6 323.623 79.94 324.003 80.18C324.383 80.42 324.833 80.54 325.353 80.54ZM343.881 92.33C342.141 92.33 340.671 91.9 339.471 91.04C338.271 90.18 337.361 88.94 336.741 87.32C336.121 85.68 335.811 83.69 335.811 81.35C335.811 78.99 336.121 77.01 336.741 75.41C337.361 73.79 338.271 72.57 339.471 71.75C340.671 70.93 342.141 70.52 343.881 70.52C345.621 70.52 347.091 70.93 348.291 71.75C349.491 72.57 350.401 73.79 351.021 75.41C351.641 77.01 351.951 78.98 351.951 81.32C351.951 83.66 351.641 85.65 351.021 87.29C350.401 88.93 349.491 90.18 348.291 91.04C347.091 91.9 345.621 92.33 343.881 92.33ZM343.881 87.95C344.841 87.95 345.551 87.43 346.011 86.39C346.491 85.33 346.731 83.64 346.731 81.32C346.731 79.02 346.491 77.38 346.011 76.4C345.551 75.4 344.841 74.9 343.881 74.9C342.921 74.9 342.201 75.4 341.721 76.4C341.261 77.38 341.031 79.03 341.031 81.35C341.031 83.65 341.261 85.33 341.721 86.39C342.201 87.43 342.921 87.95 343.881 87.95ZM354.429 97.4V77.24H359.619V79.91H359.349C359.629 79.01 360.209 78.29 361.089 77.75C361.989 77.19 363.009 76.91 364.149 76.91C365.429 76.91 366.549 77.22 367.509 77.84C368.489 78.46 369.249 79.34 369.789 80.48C370.329 81.62 370.599 83 370.599 84.62C370.599 86.2 370.329 87.57 369.789 88.73C369.249 89.89 368.489 90.78 367.509 91.4C366.549 92.02 365.429 92.33 364.149 92.33C363.049 92.33 362.059 92.07 361.179 91.55C360.299 91.03 359.709 90.35 359.409 89.51H359.769V97.4H354.429ZM362.469 88.4C363.269 88.4 363.929 88.1 364.449 87.5C364.969 86.9 365.229 85.94 365.229 84.62C365.229 83.28 364.969 82.32 364.449 81.74C363.929 81.14 363.269 80.84 362.469 80.84C361.649 80.84 360.979 81.14 360.459 81.74C359.939 82.32 359.679 83.28 359.679 84.62C359.679 85.94 359.939 86.9 360.459 87.5C360.979 88.1 361.649 88.4 362.469 88.4ZM370.372 92L377.603 83.21V85.58L370.762 77.24H376.973L380.603 81.92H378.743L382.373 77.24H388.553L381.713 85.58V83.21L389.003 92H382.763L378.743 86.9H380.573L376.553 92H370.372Z" fill="black"/>
<line y1="7" x2="-2.18557e-06" y2="57" stroke="black" stroke-width="2"/>
<line x1="-1" y1="31" x2="489" y2="31" stroke="black" stroke-width="2"/>
<rect x="6.5" y="177.5" width="475" height="89" fill="#D9D9D9" stroke="#DA08FF" stroke-width="15"/>
<rect x="6.5" y="281.5" width="476" height="805" fill="white" stroke="#FFF2AF" stroke-width="15"/>
<path d="M23.95 333V320.85H25.925V323.55H25.65C25.85 322.933 26.1417 322.408 26.525 321.975C26.925 321.525 27.3917 321.192 27.925 320.975C28.475 320.742 29.075 320.625 29.725 320.625C30.7583 320.625 31.5917 320.875 32.225 321.375C32.875 321.858 33.3083 322.617 33.525 323.65H33.15C33.45 322.717 33.9833 321.983 34.75 321.45C35.5333 320.9 36.4417 320.625 37.475 320.625C38.3917 320.625 39.1417 320.8 39.725 321.15C40.325 321.5 40.775 322.033 41.075 322.75C41.375 323.45 41.525 324.342 41.525 325.425V333H39.5V325.525C39.5 324.408 39.3083 323.592 38.925 323.075C38.5417 322.542 37.8917 322.275 36.975 322.275C36.325 322.275 35.75 322.433 35.25 322.75C34.7667 323.067 34.3917 323.517 34.125 324.1C33.875 324.667 33.75 325.342 33.75 326.125V333H31.725V325.525C31.725 324.408 31.525 323.592 31.125 323.075C30.7417 322.542 30.1 322.275 29.2 322.275C28.5333 322.275 27.9583 322.433 27.475 322.75C26.9917 323.067 26.6167 323.517 26.35 324.1C26.1 324.667 25.975 325.342 25.975 326.125V333H23.95ZM49.1361 333.225C48.3028 333.225 47.5528 333.067 46.8861 332.75C46.2361 332.417 45.7195 331.967 45.3361 331.4C44.9528 330.833 44.7611 330.2 44.7611 329.5C44.7611 328.6 44.9861 327.892 45.4361 327.375C45.9028 326.858 46.6611 326.492 47.7111 326.275C48.7778 326.058 50.2278 325.95 52.0611 325.95H53.1861V327.275H52.0861C51.0695 327.275 50.2195 327.308 49.5361 327.375C48.8528 327.442 48.3111 327.558 47.9111 327.725C47.5111 327.892 47.2278 328.108 47.0611 328.375C46.8945 328.642 46.8111 328.975 46.8111 329.375C46.8111 330.058 47.0445 330.617 47.5111 331.05C47.9945 331.483 48.6445 331.7 49.4611 331.7C50.1278 331.7 50.7111 331.542 51.2111 331.225C51.7278 330.908 52.1278 330.475 52.4111 329.925C52.7111 329.375 52.8611 328.742 52.8611 328.025V325.175C52.8611 324.142 52.6528 323.4 52.2361 322.95C51.8195 322.483 51.1361 322.25 50.1861 322.25C49.4528 322.25 48.7445 322.358 48.0611 322.575C47.3778 322.775 46.6778 323.108 45.9611 323.575L45.2611 322.1C45.6945 321.8 46.1861 321.542 46.7361 321.325C47.2861 321.092 47.8611 320.917 48.4611 320.8C49.0611 320.683 49.6361 320.625 50.1861 320.625C51.2361 320.625 52.1028 320.8 52.7861 321.15C53.4695 321.483 53.9778 322 54.3111 322.7C54.6445 323.383 54.8111 324.267 54.8111 325.35V333H52.9111V330.175H53.1361C53.0028 330.808 52.7445 331.35 52.3611 331.8C51.9945 332.25 51.5361 332.6 50.9861 332.85C50.4361 333.1 49.8195 333.225 49.1361 333.225ZM58.568 333V320.85H60.543V323.725H60.293C60.5763 322.742 61.068 322 61.768 321.5C62.468 320.983 63.393 320.683 64.543 320.6L65.268 320.525L65.418 322.275L64.143 322.425C63.0096 322.525 62.1346 322.892 61.518 323.525C60.918 324.142 60.618 324.992 60.618 326.075V333H58.568ZM72.7564 337.725C71.7064 337.725 70.7148 337.583 69.7814 337.3C68.8648 337.033 68.0481 336.625 67.3314 336.075L68.0064 334.6C68.5064 334.95 68.9981 335.233 69.4814 335.45C69.9814 335.683 70.4898 335.85 71.0064 335.95C71.5398 336.05 72.0898 336.1 72.6564 336.1C73.8398 336.1 74.7314 335.783 75.3314 335.15C75.9481 334.517 76.2564 333.6 76.2564 332.4V329.575H76.5064C76.2564 330.542 75.7231 331.308 74.9064 331.875C74.1064 332.442 73.1648 332.725 72.0814 332.725C70.9648 332.725 69.9981 332.475 69.1814 331.975C68.3648 331.458 67.7314 330.742 67.2814 329.825C66.8481 328.908 66.6314 327.85 66.6314 326.65C66.6314 325.45 66.8481 324.4 67.2814 323.5C67.7314 322.583 68.3648 321.875 69.1814 321.375C69.9981 320.875 70.9648 320.625 72.0814 320.625C73.1814 320.625 74.1314 320.908 74.9314 321.475C75.7314 322.025 76.2481 322.775 76.4814 323.725H76.2564V320.85H78.2314V332.125C78.2314 333.358 78.0231 334.392 77.6064 335.225C77.2064 336.058 76.5981 336.683 75.7814 337.1C74.9648 337.517 73.9564 337.725 72.7564 337.725ZM72.4564 331.075C73.6231 331.075 74.5481 330.675 75.2314 329.875C75.9148 329.075 76.2564 328 76.2564 326.65C76.2564 325.3 75.9148 324.233 75.2314 323.45C74.5481 322.65 73.6231 322.25 72.4564 322.25C71.3064 322.25 70.3898 322.65 69.7064 323.45C69.0231 324.233 68.6814 325.3 68.6814 326.65C68.6814 328 69.0231 329.075 69.7064 329.875C70.3898 330.675 71.3064 331.075 72.4564 331.075ZM81.7799 317.825V315.55H84.2799V317.825H81.7799ZM82.0299 333V320.85H84.0549V333H82.0299ZM87.8404 333V320.85H89.8154V323.55H89.5404C89.8904 322.583 90.4571 321.858 91.2404 321.375C92.0404 320.875 92.9571 320.625 93.9904 320.625C94.9571 320.625 95.7571 320.8 96.3904 321.15C97.0404 321.483 97.5238 322.008 97.8404 322.725C98.1571 323.442 98.3154 324.342 98.3154 325.425V333H96.2904V325.55C96.2904 324.8 96.1904 324.183 95.9904 323.7C95.8071 323.217 95.5071 322.858 95.0904 322.625C94.6904 322.392 94.1654 322.275 93.5154 322.275C92.7821 322.275 92.1404 322.433 91.5904 322.75C91.0404 323.067 90.6154 323.508 90.3154 324.075C90.0154 324.642 89.8654 325.308 89.8654 326.075V333H87.8404ZM101.724 323.4V320.85H104.274V323.4H101.724ZM101.724 333V330.45H104.274V333H101.724ZM25.1 367V365.25H29.125V351.15H30.2L25.95 353.85L25.075 352.325L29.7 349.375H31.175V365.25H34.95V367H25.1ZM44.8652 367.225C44.1152 367.225 43.3819 367.142 42.6652 366.975C41.9486 366.808 41.2736 366.567 40.6402 366.25C40.0236 365.933 39.4736 365.558 38.9902 365.125L39.7652 363.5C40.5652 364.15 41.3736 364.633 42.1902 364.95C43.0236 365.25 43.9069 365.4 44.8402 365.4C46.0736 365.4 47.0319 365.058 47.7152 364.375C48.4152 363.692 48.7652 362.792 48.7652 361.675C48.7652 360.525 48.4319 359.583 47.7652 358.85C47.0986 358.117 46.1819 357.75 45.0152 357.75C44.1652 357.75 43.4152 357.925 42.7652 358.275C42.1319 358.608 41.5569 359.133 41.0402 359.85H39.5402V349.375H49.7652V351.125H41.5652V358.15H41.0152C41.4486 357.45 42.0486 356.917 42.8152 356.55C43.5819 356.167 44.4402 355.975 45.3902 355.975C46.5069 355.975 47.4652 356.208 48.2652 356.675C49.0819 357.142 49.7069 357.8 50.1402 358.65C50.5902 359.483 50.8152 360.458 50.8152 361.575C50.8152 362.675 50.5736 363.65 50.0902 364.5C49.6069 365.35 48.9236 366.017 48.0402 366.5C47.1569 366.983 46.0986 367.225 44.8652 367.225ZM53.8805 371.5V354.85H55.8555V357.725H55.6055C55.8721 356.775 56.3971 356.025 57.1805 355.475C57.9805 354.908 58.9305 354.625 60.0305 354.625C61.1138 354.625 62.0555 354.883 62.8555 355.4C63.6721 355.9 64.2971 356.625 64.7305 357.575C65.1805 358.508 65.4055 359.625 65.4055 360.925C65.4055 362.208 65.1805 363.325 64.7305 364.275C64.2971 365.208 63.6805 365.933 62.8805 366.45C62.0805 366.967 61.1305 367.225 60.0305 367.225C58.9305 367.225 57.9888 366.95 57.2055 366.4C56.4221 365.833 55.8888 365.083 55.6055 364.15H55.9055V371.5H53.8805ZM59.6055 365.6C60.7555 365.6 61.6638 365.2 62.3305 364.4C63.0138 363.583 63.3555 362.425 63.3555 360.925C63.3555 359.408 63.0138 358.25 62.3305 357.45C61.6638 356.65 60.7555 356.25 59.6055 356.25C58.4721 356.25 57.5638 356.65 56.8805 357.45C56.1971 358.25 55.8555 359.408 55.8555 360.925C55.8555 362.425 56.1971 363.583 56.8805 364.4C57.5638 365.2 58.4721 365.6 59.6055 365.6ZM66.6371 367L72.0871 360.2V361.25L66.9371 354.85H69.3371L73.2121 359.775H72.5121L76.4121 354.85H78.7871L73.6621 361.2V360.275L79.0871 367H76.6871L72.4871 361.725H73.2121L69.0371 367H66.6371ZM82.0469 369.85L81.0969 369.125C81.3969 368.808 81.6219 368.508 81.7719 368.225C81.9385 367.958 82.0469 367.683 82.0969 367.4C82.1635 367.133 82.1969 366.858 82.1969 366.575L82.8469 367H80.9969V364.45H83.5469V366.25C83.5469 366.7 83.4969 367.125 83.3969 367.525C83.3135 367.942 83.1635 368.342 82.9469 368.725C82.7302 369.108 82.4302 369.483 82.0469 369.85ZM80.9969 357.4V354.85H83.5469V357.4H80.9969Z" fill="black"/>
<path d="M189.707 236.5L165.307 226.95V220.3L189.707 210.75V217.3L167.507 225.85V221.5L189.707 230V236.5ZM203.637 238.55C201.737 238.55 200.054 238.2 198.587 237.5C197.154 236.8 196.021 235.85 195.187 234.65C194.387 233.417 193.987 232.017 193.987 230.45C193.987 228.65 194.454 227.233 195.387 226.2C196.321 225.167 197.821 224.433 199.887 224C201.954 223.533 204.704 223.3 208.137 223.3H210.887V227.5H208.137C207.171 227.5 206.321 227.55 205.587 227.65C204.887 227.75 204.304 227.917 203.837 228.15C203.371 228.35 203.021 228.617 202.787 228.95C202.554 229.283 202.437 229.667 202.437 230.1C202.437 230.867 202.704 231.5 203.237 232C203.804 232.5 204.604 232.75 205.637 232.75C206.471 232.75 207.204 232.567 207.837 232.2C208.504 231.833 209.037 231.333 209.437 230.7C209.837 230.033 210.037 229.267 210.037 228.4V222.6C210.037 221.4 209.721 220.55 209.087 220.05C208.487 219.55 207.437 219.3 205.937 219.3C204.671 219.3 203.271 219.5 201.737 219.9C200.204 220.3 198.704 220.917 197.237 221.75L194.987 215.9C195.854 215.3 196.921 214.767 198.187 214.3C199.487 213.833 200.854 213.483 202.287 213.25C203.754 212.983 205.104 212.85 206.337 212.85C209.071 212.85 211.321 213.25 213.087 214.05C214.887 214.817 216.221 216.017 217.087 217.65C217.987 219.25 218.437 221.317 218.437 223.85V238H210.137V233.35H210.437C210.271 234.417 209.887 235.333 209.287 236.1C208.687 236.867 207.904 237.467 206.937 237.9C205.971 238.333 204.871 238.55 203.637 238.55ZM233.305 238.55C231.805 238.55 230.355 238.45 228.955 238.25C227.589 238.05 226.339 237.75 225.205 237.35C224.072 236.95 223.055 236.467 222.155 235.9L224.205 230.15C225.039 230.617 225.955 231.033 226.955 231.4C227.989 231.767 229.055 232.05 230.155 232.25C231.255 232.45 232.322 232.55 233.355 232.55C234.589 232.55 235.472 232.383 236.005 232.05C236.539 231.683 236.805 231.217 236.805 230.65C236.805 230.15 236.622 229.767 236.255 229.5C235.922 229.233 235.439 229.05 234.805 228.95L229.255 228.05C227.189 227.683 225.589 226.933 224.455 225.8C223.322 224.633 222.755 223.117 222.755 221.25C222.755 219.517 223.239 218.033 224.205 216.8C225.205 215.533 226.555 214.567 228.255 213.9C229.989 213.2 231.972 212.85 234.205 212.85C235.405 212.85 236.589 212.95 237.755 213.15C238.922 213.317 240.039 213.6 241.105 214C242.172 214.367 243.139 214.867 244.005 215.5L241.805 221.15C241.172 220.683 240.422 220.283 239.555 219.95C238.689 219.617 237.789 219.35 236.855 219.15C235.955 218.917 235.122 218.8 234.355 218.8C232.989 218.8 232.022 218.983 231.455 219.35C230.889 219.717 230.605 220.183 230.605 220.75C230.605 221.183 230.755 221.55 231.055 221.85C231.355 222.117 231.822 222.3 232.455 222.4L238.005 223.35C240.139 223.683 241.772 224.417 242.905 225.55C244.072 226.65 244.655 228.15 244.655 230.05C244.655 231.85 244.189 233.383 243.255 234.65C242.322 235.917 241.005 236.883 239.305 237.55C237.605 238.217 235.605 238.55 233.305 238.55ZM248.06 209.15V201.1H257.41V209.15H248.06ZM248.31 238V213.4H257.21V238H248.31ZM271.972 238.55C269.872 238.55 268.006 238.033 266.372 237C264.772 235.967 263.506 234.483 262.572 232.55C261.672 230.617 261.222 228.333 261.222 225.7C261.222 223 261.672 220.7 262.572 218.8C263.506 216.9 264.772 215.433 266.372 214.4C268.006 213.367 269.872 212.85 271.972 212.85C273.806 212.85 275.456 213.283 276.922 214.15C278.389 215.017 279.372 216.133 279.872 217.5H279.322V202.75H288.222V238H279.522V233.55H279.972C279.506 235.05 278.522 236.267 277.022 237.2C275.556 238.1 273.872 238.55 271.972 238.55ZM274.822 232C276.156 232 277.256 231.5 278.122 230.5C278.989 229.5 279.422 227.9 279.422 225.7C279.422 223.467 278.989 221.867 278.122 220.9C277.256 219.9 276.156 219.4 274.822 219.4C273.456 219.4 272.339 219.9 271.472 220.9C270.606 221.867 270.172 223.467 270.172 225.7C270.172 227.9 270.606 229.5 271.472 230.5C272.339 231.5 273.456 232 274.822 232ZM306.778 238.55C303.778 238.55 301.178 238.033 298.978 237C296.812 235.933 295.145 234.433 293.978 232.5C292.812 230.567 292.228 228.283 292.228 225.65C292.228 223.117 292.778 220.9 293.878 219C295.012 217.067 296.545 215.567 298.478 214.5C300.445 213.4 302.678 212.85 305.178 212.85C307.678 212.85 309.828 213.367 311.628 214.4C313.428 215.433 314.812 216.917 315.778 218.85C316.778 220.75 317.278 222.983 317.278 225.55V227.5H299.678V223.3H310.778L309.978 223.95C309.978 222.15 309.595 220.817 308.828 219.95C308.062 219.05 306.978 218.6 305.578 218.6C304.545 218.6 303.645 218.85 302.878 219.35C302.145 219.817 301.578 220.517 301.178 221.45C300.778 222.383 300.578 223.55 300.578 224.95V225.4C300.578 226.967 300.795 228.233 301.228 229.2C301.695 230.167 302.412 230.883 303.378 231.35C304.345 231.783 305.562 232 307.028 232C308.295 232 309.612 231.817 310.978 231.45C312.378 231.05 313.612 230.483 314.678 229.75L316.878 235.6C315.612 236.5 314.062 237.217 312.228 237.75C310.395 238.283 308.578 238.55 306.778 238.55ZM321.313 236.5V230L343.563 221.5V225.85L321.313 217.3V210.75L345.713 220.3V226.95L321.313 236.5Z" fill="#5A5A5A"/>
<path d="M193.76 347.5L169.36 337.95V331.3L193.76 321.75V328.3L171.56 336.85V332.5L193.76 341V347.5ZM199.24 349V324.4H207.89V328.7H207.34C207.807 327.7 208.423 326.85 209.19 326.15C209.957 325.417 210.857 324.85 211.89 324.45C212.957 324.05 214.123 323.85 215.39 323.85C217.19 323.85 218.723 324.283 219.99 325.15C221.29 326.017 222.223 327.333 222.79 329.1H222.09C222.857 327.467 224.007 326.183 225.54 325.25C227.073 324.317 228.773 323.85 230.64 323.85C232.573 323.85 234.157 324.233 235.39 325C236.623 325.733 237.54 326.9 238.14 328.5C238.773 330.067 239.09 332.05 239.09 334.45V349H230.19V334.7C230.19 333.267 229.973 332.233 229.54 331.6C229.107 330.967 228.39 330.65 227.39 330.65C226.59 330.65 225.89 330.85 225.29 331.25C224.723 331.617 224.29 332.183 223.99 332.95C223.723 333.683 223.59 334.583 223.59 335.65V349H214.69V334.7C214.69 333.267 214.473 332.233 214.04 331.6C213.607 330.967 212.89 330.65 211.89 330.65C211.09 330.65 210.407 330.85 209.84 331.25C209.273 331.617 208.84 332.183 208.54 332.95C208.273 333.683 208.14 334.583 208.14 335.65V349H199.24ZM252.807 349.55C250.907 349.55 249.224 349.2 247.757 348.5C246.324 347.8 245.191 346.85 244.357 345.65C243.557 344.417 243.157 343.017 243.157 341.45C243.157 339.65 243.624 338.233 244.557 337.2C245.491 336.167 246.991 335.433 249.057 335C251.124 334.533 253.874 334.3 257.307 334.3H260.057V338.5H257.307C256.341 338.5 255.491 338.55 254.757 338.65C254.057 338.75 253.474 338.917 253.007 339.15C252.541 339.35 252.191 339.617 251.957 339.95C251.724 340.283 251.607 340.667 251.607 341.1C251.607 341.867 251.874 342.5 252.407 343C252.974 343.5 253.774 343.75 254.807 343.75C255.641 343.75 256.374 343.567 257.007 343.2C257.674 342.833 258.207 342.333 258.607 341.7C259.007 341.033 259.207 340.267 259.207 339.4V333.6C259.207 332.4 258.891 331.55 258.257 331.05C257.657 330.55 256.607 330.3 255.107 330.3C253.841 330.3 252.441 330.5 250.907 330.9C249.374 331.3 247.874 331.917 246.407 332.75L244.157 326.9C245.024 326.3 246.091 325.767 247.357 325.3C248.657 324.833 250.024 324.483 251.457 324.25C252.924 323.983 254.274 323.85 255.507 323.85C258.241 323.85 260.491 324.25 262.257 325.05C264.057 325.817 265.391 327.017 266.257 328.65C267.157 330.25 267.607 332.317 267.607 334.85V349H259.307V344.35H259.607C259.441 345.417 259.057 346.333 258.457 347.1C257.857 347.867 257.074 348.467 256.107 348.9C255.141 349.333 254.041 349.55 252.807 349.55ZM272.425 320.15V312.1H281.775V320.15H272.425ZM272.675 349V324.4H281.575V349H272.675ZM286.738 349V324.4H295.388V328.7H294.838C295.638 327.133 296.771 325.933 298.238 325.1C299.738 324.267 301.438 323.85 303.338 323.85C305.304 323.85 306.921 324.233 308.188 325C309.454 325.733 310.404 326.9 311.038 328.5C311.671 330.067 311.988 332.05 311.988 334.45V349H303.088V334.8C303.088 333.8 302.971 333 302.738 332.4C302.504 331.767 302.154 331.317 301.688 331.05C301.254 330.783 300.704 330.65 300.038 330.65C299.138 330.65 298.354 330.85 297.688 331.25C297.021 331.617 296.504 332.15 296.138 332.85C295.804 333.55 295.638 334.383 295.638 335.35V349H286.738ZM317.26 347.5V341L339.51 332.5V336.85L317.26 328.3V321.75L341.66 331.3V337.95L317.26 347.5Z" fill="#5A5A5A"/>
<path d="M25.175 160V142.375H32.15C33.4167 142.375 34.4833 142.583 35.35 143C36.2333 143.4 36.9 144 37.35 144.8C37.8 145.583 38.025 146.542 38.025 147.675C38.025 148.775 37.8 149.725 37.35 150.525C36.9 151.325 36.2333 151.933 35.35 152.35C34.4833 152.767 33.4167 152.975 32.15 152.975H27.225V160H25.175ZM27.225 151.25H31.9C33.25 151.25 34.2667 150.95 34.95 150.35C35.65 149.733 36 148.842 36 147.675C36 146.492 35.65 145.6 34.95 145C34.2667 144.383 33.25 144.075 31.9 144.075H27.225V151.25ZM43.935 160.225C43.1016 160.225 42.3516 160.067 41.685 159.75C41.035 159.417 40.5183 158.967 40.135 158.4C39.7516 157.833 39.56 157.2 39.56 156.5C39.56 155.6 39.785 154.892 40.235 154.375C40.7016 153.858 41.46 153.492 42.51 153.275C43.5766 153.058 45.0266 152.95 46.86 152.95H47.985V154.275H46.885C45.8683 154.275 45.0183 154.308 44.335 154.375C43.6516 154.442 43.11 154.558 42.71 154.725C42.31 154.892 42.0266 155.108 41.86 155.375C41.6933 155.642 41.61 155.975 41.61 156.375C41.61 157.058 41.8433 157.617 42.31 158.05C42.7933 158.483 43.4433 158.7 44.26 158.7C44.9266 158.7 45.51 158.542 46.01 158.225C46.5266 157.908 46.9266 157.475 47.21 156.925C47.51 156.375 47.66 155.742 47.66 155.025V152.175C47.66 151.142 47.4516 150.4 47.035 149.95C46.6183 149.483 45.935 149.25 44.985 149.25C44.2516 149.25 43.5433 149.358 42.86 149.575C42.1766 149.775 41.4766 150.108 40.76 150.575L40.06 149.1C40.4933 148.8 40.985 148.542 41.535 148.325C42.085 148.092 42.66 147.917 43.26 147.8C43.86 147.683 44.435 147.625 44.985 147.625C46.035 147.625 46.9016 147.8 47.585 148.15C48.2683 148.483 48.7766 149 49.11 149.7C49.4433 150.383 49.61 151.267 49.61 152.35V160H47.71V157.175H47.935C47.8016 157.808 47.5433 158.35 47.16 158.8C46.7933 159.25 46.335 159.6 45.785 159.85C45.235 160.1 44.6183 160.225 43.935 160.225ZM57.9918 160.225C56.9085 160.225 55.9585 159.967 55.1418 159.45C54.3418 158.933 53.7168 158.208 53.2668 157.275C52.8335 156.325 52.6168 155.208 52.6168 153.925C52.6168 152.625 52.8335 151.508 53.2668 150.575C53.7168 149.625 54.3418 148.9 55.1418 148.4C55.9585 147.883 56.9085 147.625 57.9918 147.625C59.0918 147.625 60.0335 147.9 60.8168 148.45C61.6001 149 62.1251 149.742 62.3918 150.675H62.1168V142.375H64.1418V160H62.1668V157.1H62.4168C62.1501 158.05 61.6168 158.808 60.8168 159.375C60.0335 159.942 59.0918 160.225 57.9918 160.225ZM58.4168 158.6C59.5668 158.6 60.4751 158.2 61.1418 157.4C61.8251 156.583 62.1668 155.425 62.1668 153.925C62.1668 152.408 61.8251 151.25 61.1418 150.45C60.4751 149.65 59.5668 149.25 58.4168 149.25C57.2835 149.25 56.3751 149.65 55.6918 150.45C55.0085 151.25 54.6668 152.408 54.6668 153.925C54.6668 155.425 55.0085 156.583 55.6918 157.4C56.3751 158.2 57.2835 158.6 58.4168 158.6ZM72.567 160.225C71.4837 160.225 70.5337 159.967 69.717 159.45C68.917 158.933 68.292 158.208 67.842 157.275C67.4087 156.325 67.192 155.208 67.192 153.925C67.192 152.625 67.4087 151.508 67.842 150.575C68.292 149.625 68.917 148.9 69.717 148.4C70.5337 147.883 71.4837 147.625 72.567 147.625C73.667 147.625 74.6087 147.9 75.392 148.45C76.1753 149 76.7003 149.742 76.967 150.675H76.692V142.375H78.717V160H76.742V157.1H76.992C76.7253 158.05 76.192 158.808 75.392 159.375C74.6087 159.942 73.667 160.225 72.567 160.225ZM72.992 158.6C74.142 158.6 75.0503 158.2 75.717 157.4C76.4003 156.583 76.742 155.425 76.742 153.925C76.742 152.408 76.4003 151.25 75.717 150.45C75.0503 149.65 74.142 149.25 72.992 149.25C71.8587 149.25 70.9503 149.65 70.267 150.45C69.5837 151.25 69.242 152.408 69.242 153.925C69.242 155.425 69.5837 156.583 70.267 157.4C70.9503 158.2 71.8587 158.6 72.992 158.6ZM82.2672 144.825V142.55H84.7672V144.825H82.2672ZM82.5172 160V147.85H84.5422V160H82.5172ZM88.3277 160V147.85H90.3027V150.55H90.0277C90.3777 149.583 90.9444 148.858 91.7277 148.375C92.5277 147.875 93.4444 147.625 94.4777 147.625C95.4444 147.625 96.2444 147.8 96.8777 148.15C97.5277 148.483 98.0111 149.008 98.3277 149.725C98.6444 150.442 98.8027 151.342 98.8027 152.425V160H96.7777V152.55C96.7777 151.8 96.6777 151.183 96.4777 150.7C96.2944 150.217 95.9944 149.858 95.5777 149.625C95.1777 149.392 94.6527 149.275 94.0027 149.275C93.2694 149.275 92.6277 149.433 92.0777 149.75C91.5277 150.067 91.1027 150.508 90.8027 151.075C90.5027 151.642 90.3527 152.308 90.3527 153.075V160H88.3277ZM107.912 164.725C106.862 164.725 105.87 164.583 104.937 164.3C104.02 164.033 103.203 163.625 102.487 163.075L103.162 161.6C103.662 161.95 104.153 162.233 104.637 162.45C105.137 162.683 105.645 162.85 106.162 162.95C106.695 163.05 107.245 163.1 107.812 163.1C108.995 163.1 109.887 162.783 110.487 162.15C111.103 161.517 111.412 160.6 111.412 159.4V156.575H111.662C111.412 157.542 110.878 158.308 110.062 158.875C109.262 159.442 108.32 159.725 107.237 159.725C106.12 159.725 105.153 159.475 104.337 158.975C103.52 158.458 102.887 157.742 102.437 156.825C102.003 155.908 101.787 154.85 101.787 153.65C101.787 152.45 102.003 151.4 102.437 150.5C102.887 149.583 103.52 148.875 104.337 148.375C105.153 147.875 106.12 147.625 107.237 147.625C108.337 147.625 109.287 147.908 110.087 148.475C110.887 149.025 111.403 149.775 111.637 150.725H111.412V147.85H113.387V159.125C113.387 160.358 113.178 161.392 112.762 162.225C112.362 163.058 111.753 163.683 110.937 164.1C110.12 164.517 109.112 164.725 107.912 164.725ZM107.612 158.075C108.778 158.075 109.703 157.675 110.387 156.875C111.07 156.075 111.412 155 111.412 153.65C111.412 152.3 111.07 151.233 110.387 150.45C109.703 149.65 108.778 149.25 107.612 149.25C106.462 149.25 105.545 149.65 104.862 150.45C104.178 151.233 103.837 152.3 103.837 153.65C103.837 155 104.178 156.075 104.862 156.875C105.545 157.675 106.462 158.075 107.612 158.075ZM116.86 150.4V147.85H119.41V150.4H116.86ZM116.86 160V157.45H119.41V160H116.86ZM134.895 160.225C132.911 160.225 131.37 159.8 130.27 158.95C129.17 158.083 128.62 156.875 128.62 155.325C128.62 154.508 128.786 153.783 129.12 153.15C129.453 152.5 129.92 151.975 130.52 151.575C131.12 151.175 131.811 150.925 132.595 150.825V151.2C131.878 151.033 131.253 150.75 130.72 150.35C130.186 149.933 129.77 149.425 129.47 148.825C129.186 148.225 129.045 147.567 129.045 146.85C129.045 145.367 129.57 144.217 130.62 143.4C131.686 142.567 133.111 142.15 134.895 142.15C136.695 142.15 138.12 142.567 139.17 143.4C140.236 144.217 140.77 145.367 140.77 146.85C140.77 147.567 140.62 148.233 140.32 148.85C140.036 149.45 139.628 149.95 139.095 150.35C138.561 150.75 137.936 151.025 137.22 151.175V150.825C138.003 150.925 138.686 151.183 139.27 151.6C139.87 152 140.336 152.517 140.67 153.15C141.003 153.783 141.17 154.508 141.17 155.325C141.17 156.875 140.62 158.083 139.52 158.95C138.42 159.8 136.878 160.225 134.895 160.225ZM134.895 158.525C136.311 158.525 137.378 158.25 138.095 157.7C138.828 157.15 139.195 156.317 139.195 155.2C139.195 154.1 138.828 153.283 138.095 152.75C137.378 152.2 136.311 151.925 134.895 151.925C133.495 151.925 132.428 152.2 131.695 152.75C130.961 153.283 130.595 154.1 130.595 155.2C130.595 156.317 130.961 157.15 131.695 157.7C132.428 158.25 133.495 158.525 134.895 158.525ZM134.895 150.225C136.128 150.225 137.086 149.942 137.77 149.375C138.453 148.808 138.795 148.025 138.795 147.025C138.795 146.025 138.453 145.25 137.77 144.7C137.086 144.133 136.128 143.85 134.895 143.85C133.678 143.85 132.728 144.133 132.045 144.7C131.361 145.25 131.02 146.025 131.02 147.025C131.02 148.025 131.361 148.808 132.045 149.375C132.728 149.942 133.678 150.225 134.895 150.225ZM144.285 164.5V147.85H146.26V150.725H146.01C146.276 149.775 146.801 149.025 147.585 148.475C148.385 147.908 149.335 147.625 150.435 147.625C151.518 147.625 152.46 147.883 153.26 148.4C154.076 148.9 154.701 149.625 155.135 150.575C155.585 151.508 155.81 152.625 155.81 153.925C155.81 155.208 155.585 156.325 155.135 157.275C154.701 158.208 154.085 158.933 153.285 159.45C152.485 159.967 151.535 160.225 150.435 160.225C149.335 160.225 148.393 159.95 147.61 159.4C146.826 158.833 146.293 158.083 146.01 157.15H146.31V164.5H144.285ZM150.01 158.6C151.16 158.6 152.068 158.2 152.735 157.4C153.418 156.583 153.76 155.425 153.76 153.925C153.76 152.408 153.418 151.25 152.735 150.45C152.068 149.65 151.16 149.25 150.01 149.25C148.876 149.25 147.968 149.65 147.285 150.45C146.601 151.25 146.26 152.408 146.26 153.925C146.26 155.425 146.601 156.583 147.285 157.4C147.968 158.2 148.876 158.6 150.01 158.6ZM157.041 160L162.491 153.2V154.25L157.341 147.85H159.741L163.616 152.775H162.916L166.816 147.85H169.191L164.066 154.2V153.275L169.491 160H167.091L162.891 154.725H163.616L159.441 160H157.041ZM181.847 164.8C180.78 162.95 180.005 161.083 179.522 159.2C179.039 157.317 178.797 155.392 178.797 153.425C178.797 151.458 179.039 149.533 179.522 147.65C180.005 145.767 180.78 143.9 181.847 142.05L183.297 142.6C182.78 143.833 182.347 145.05 181.997 146.25C181.647 147.433 181.38 148.617 181.197 149.8C181.03 150.983 180.947 152.192 180.947 153.425C180.947 154.642 181.03 155.85 181.197 157.05C181.38 158.233 181.647 159.417 181.997 160.6C182.347 161.783 182.78 163 183.297 164.25L181.847 164.8ZM191.682 160.225C190.348 160.225 189.215 159.883 188.282 159.2C187.365 158.5 186.673 157.475 186.207 156.125C185.74 154.775 185.507 153.125 185.507 151.175C185.507 149.208 185.74 147.558 186.207 146.225C186.673 144.875 187.365 143.858 188.282 143.175C189.215 142.492 190.348 142.15 191.682 142.15C193.032 142.15 194.165 142.492 195.082 143.175C195.998 143.858 196.69 144.867 197.157 146.2C197.623 147.533 197.857 149.183 197.857 151.15C197.857 153.117 197.623 154.775 197.157 156.125C196.69 157.475 195.998 158.5 195.082 159.2C194.165 159.883 193.032 160.225 191.682 160.225ZM191.682 158.45C193.082 158.45 194.115 157.858 194.782 156.675C195.465 155.492 195.807 153.65 195.807 151.15C195.807 148.65 195.473 146.825 194.807 145.675C194.14 144.508 193.098 143.925 191.682 143.925C190.298 143.925 189.265 144.508 188.582 145.675C187.898 146.842 187.557 148.667 187.557 151.15C187.557 153.65 187.89 155.492 188.557 156.675C189.24 157.858 190.282 158.45 191.682 158.45ZM201.797 162.85L200.847 162.125C201.147 161.808 201.372 161.508 201.522 161.225C201.689 160.958 201.797 160.683 201.847 160.4C201.914 160.133 201.947 159.858 201.947 159.575L202.397 160H200.747V157.45H203.297V159.25C203.297 159.7 203.247 160.125 203.147 160.525C203.064 160.942 202.914 161.342 202.697 161.725C202.48 162.108 202.18 162.483 201.797 162.85ZM212.735 160.225C211.985 160.225 211.252 160.142 210.535 159.975C209.819 159.808 209.144 159.567 208.51 159.25C207.894 158.933 207.344 158.558 206.86 158.125L207.635 156.5C208.435 157.15 209.244 157.633 210.06 157.95C210.894 158.25 211.777 158.4 212.71 158.4C213.944 158.4 214.902 158.058 215.585 157.375C216.285 156.692 216.635 155.792 216.635 154.675C216.635 153.525 216.302 152.583 215.635 151.85C214.969 151.117 214.052 150.75 212.885 150.75C212.035 150.75 211.285 150.925 210.635 151.275C210.002 151.608 209.427 152.133 208.91 152.85H207.41V142.375H217.635V144.125H209.435V151.15H208.885C209.319 150.45 209.919 149.917 210.685 149.55C211.452 149.167 212.31 148.975 213.26 148.975C214.377 148.975 215.335 149.208 216.135 149.675C216.952 150.142 217.577 150.8 218.01 151.65C218.46 152.483 218.685 153.458 218.685 154.575C218.685 155.675 218.444 156.65 217.96 157.5C217.477 158.35 216.794 159.017 215.91 159.5C215.027 159.983 213.969 160.225 212.735 160.225ZM227.226 160.225C225.942 160.225 224.834 159.975 223.901 159.475C222.984 158.958 222.267 158.233 221.751 157.3C221.251 156.367 221.001 155.25 221.001 153.95C221.001 152.683 221.251 151.583 221.751 150.65C222.251 149.7 222.934 148.958 223.801 148.425C224.684 147.892 225.701 147.625 226.851 147.625C227.951 147.625 228.892 147.867 229.676 148.35C230.459 148.833 231.059 149.517 231.476 150.4C231.909 151.283 232.126 152.342 232.126 153.575V154.35H222.551V153.025H230.776L230.376 153.35C230.376 152.017 230.076 150.983 229.476 150.25C228.892 149.5 228.034 149.125 226.901 149.125C226.051 149.125 225.326 149.325 224.726 149.725C224.142 150.108 223.701 150.65 223.401 151.35C223.101 152.033 222.951 152.833 222.951 153.75V153.9C222.951 154.917 223.109 155.775 223.426 156.475C223.759 157.175 224.251 157.708 224.901 158.075C225.551 158.425 226.326 158.6 227.226 158.6C227.942 158.6 228.634 158.492 229.301 158.275C229.984 158.042 230.626 157.667 231.226 157.15L231.926 158.575C231.376 159.075 230.676 159.475 229.826 159.775C228.976 160.075 228.109 160.225 227.226 160.225ZM235.106 160V147.85H237.081V150.55H236.806C237.006 149.933 237.298 149.408 237.681 148.975C238.081 148.525 238.548 148.192 239.081 147.975C239.631 147.742 240.231 147.625 240.881 147.625C241.915 147.625 242.748 147.875 243.381 148.375C244.031 148.858 244.465 149.617 244.681 150.65H244.306C244.606 149.717 245.14 148.983 245.906 148.45C246.69 147.9 247.598 147.625 248.631 147.625C249.548 147.625 250.298 147.8 250.881 148.15C251.481 148.5 251.931 149.033 252.231 149.75C252.531 150.45 252.681 151.342 252.681 152.425V160H250.656V152.525C250.656 151.408 250.465 150.592 250.081 150.075C249.698 149.542 249.048 149.275 248.131 149.275C247.481 149.275 246.906 149.433 246.406 149.75C245.923 150.067 245.548 150.517 245.281 151.1C245.031 151.667 244.906 152.342 244.906 153.125V160H242.881V152.525C242.881 151.408 242.681 150.592 242.281 150.075C241.898 149.542 241.256 149.275 240.356 149.275C239.69 149.275 239.115 149.433 238.631 149.75C238.148 150.067 237.773 150.517 237.506 151.1C237.256 151.667 237.131 152.342 237.131 153.125V160H235.106ZM256.892 164.8L255.442 164.25C255.976 162.983 256.409 161.75 256.742 160.55C257.092 159.367 257.351 158.192 257.517 157.025C257.684 155.842 257.767 154.642 257.767 153.425C257.767 152.208 257.684 151.017 257.517 149.85C257.351 148.667 257.092 147.475 256.742 146.275C256.409 145.075 255.976 143.85 255.442 142.6L256.892 142.05C257.959 143.9 258.734 145.775 259.217 147.675C259.701 149.558 259.942 151.475 259.942 153.425C259.942 155.392 259.701 157.317 259.217 159.2C258.734 161.083 257.959 162.95 256.892 164.8Z" fill="black"/>
</g>
<defs>
<clipPath id="clip0_228_307">
<rect width="490" height="1094" fill="white"/>
</clipPath>
</defs>
</svg>
