<svg width="125" height="35" viewBox="0 0 125 35" fill="none" xmlns="http://www.w3.org/2000/svg">
<rect x="0.5" y="0.5" width="124" height="34" fill="white"/>
<rect x="0.5" y="0.5" width="124" height="34" stroke="black"/>
<path d="M25.1662 11.6806L26.5228 10.324C27.2388 9.608 28.3996 9.608 29.1156 10.324L30.412 11.6203C31.1279 12.3363 31.1279 13.4971 30.412 14.213L29.0553 15.5697M25.1662 11.6806L16.3518 20.495C16.0474 20.7994 15.8599 21.2012 15.822 21.63L15.6001 24.1421C15.5499 24.7104 16.0255 25.1861 16.5939 25.1359L19.1059 24.9139C19.5347 24.8761 19.9365 24.6884 20.2409 24.3841L29.0553 15.5697M25.1662 11.6806L29.0553 15.5697" stroke="#222120" stroke-width="1.2" stroke-linecap="round" stroke-linejoin="round"/>
<path d="M42.472 22.5V11.22H49.416V12.068H43.432V16.356H49.08V17.204H43.432V21.652H49.416V22.5H42.472ZM54.3806 22.628C53.6873 22.628 53.0793 22.468 52.5566 22.148C52.0446 21.8173 51.6446 21.3533 51.3566 20.756C51.0793 20.148 50.9406 19.4333 50.9406 18.612C50.9406 17.7907 51.0793 17.0813 51.3566 16.484C51.634 15.8867 52.0286 15.4227 52.5406 15.092C53.0633 14.7613 53.6766 14.596 54.3806 14.596C55.106 14.596 55.7246 14.7827 56.2366 15.156C56.7486 15.5293 57.09 16.0307 57.2606 16.66H57.0846V11.22H58.0606V22.5H57.1006V20.564H57.2606C57.09 21.1933 56.7486 21.6947 56.2366 22.068C55.7246 22.4413 55.106 22.628 54.3806 22.628ZM54.5086 21.812C55.3086 21.812 55.938 21.5347 56.3966 20.98C56.866 20.4253 57.1006 19.636 57.1006 18.612C57.1006 17.5987 56.866 16.8147 56.3966 16.26C55.938 15.7053 55.3086 15.428 54.5086 15.428C53.73 15.428 53.106 15.7053 52.6366 16.26C52.1673 16.8147 51.9326 17.5987 51.9326 18.612C51.9326 19.636 52.1673 20.4253 52.6366 20.98C53.106 21.5347 53.73 21.812 54.5086 21.812ZM60.4638 12.692V11.46H61.7758V12.692H60.4638ZM60.6238 22.5V14.74H61.5998V22.5H60.6238ZM67.0986 22.628C66.2346 22.628 65.584 22.3933 65.1466 21.924C64.72 21.4547 64.5066 20.7827 64.5066 19.908V15.524H62.9706V14.74H64.5066V12.34H65.4826V14.74H67.9946V15.524H65.4826V19.78C65.4826 20.4307 65.616 20.9267 65.8826 21.268C66.1493 21.6093 66.592 21.78 67.2106 21.78C67.392 21.78 67.568 21.7587 67.7386 21.716C67.9093 21.6627 68.0586 21.6147 68.1866 21.572L68.3786 22.34C68.2613 22.4147 68.0746 22.4787 67.8186 22.532C67.5626 22.596 67.3226 22.628 67.0986 22.628ZM73.5776 22.5V14.74H74.5376V16.548H74.3616C74.4896 16.132 74.6763 15.78 74.9216 15.492C75.1776 15.204 75.4816 14.9853 75.8336 14.836C76.1856 14.676 76.5696 14.596 76.9856 14.596C77.6683 14.596 78.2123 14.7613 78.6176 15.092C79.0336 15.4227 79.3056 15.9187 79.4336 16.58H79.1936C79.375 15.9827 79.711 15.5027 80.2016 15.14C80.703 14.7773 81.2896 14.596 81.9616 14.596C82.5376 14.596 83.0123 14.708 83.3856 14.932C83.7696 15.156 84.0576 15.492 84.2496 15.94C84.4416 16.3773 84.5376 16.932 84.5376 17.604V22.5H83.5616V17.684C83.5616 16.9053 83.423 16.34 83.1456 15.988C82.879 15.6253 82.4256 15.444 81.7856 15.444C81.3376 15.444 80.943 15.5507 80.6016 15.764C80.2603 15.9773 79.999 16.2813 79.8176 16.676C79.6363 17.0707 79.5456 17.54 79.5456 18.084V22.5H78.5696V17.684C78.5696 16.9053 78.431 16.34 78.1536 15.988C77.887 15.6253 77.439 15.444 76.8096 15.444C76.351 15.444 75.951 15.5507 75.6096 15.764C75.279 15.9773 75.0176 16.2813 74.8256 16.676C74.6443 17.0707 74.5536 17.54 74.5536 18.084V22.5H73.5776ZM90.1805 22.628C89.4552 22.628 88.8258 22.4627 88.2925 22.132C87.7592 21.8013 87.3432 21.3373 87.0445 20.74C86.7565 20.1427 86.6125 19.4333 86.6125 18.612C86.6125 17.8013 86.7565 17.0973 87.0445 16.5C87.3432 15.892 87.7592 15.4227 88.2925 15.092C88.8258 14.7613 89.4552 14.596 90.1805 14.596C90.9165 14.596 91.5512 14.7613 92.0845 15.092C92.6178 15.4227 93.0285 15.892 93.3165 16.5C93.6152 17.0973 93.7645 17.8013 93.7645 18.612C93.7645 19.4333 93.6152 20.1427 93.3165 20.74C93.0285 21.3373 92.6178 21.8013 92.0845 22.132C91.5512 22.4627 90.9165 22.628 90.1805 22.628ZM90.1805 21.812C90.9805 21.812 91.6098 21.5347 92.0685 20.98C92.5378 20.4253 92.7725 19.636 92.7725 18.612C92.7725 17.5987 92.5378 16.8147 92.0685 16.26C91.6098 15.7053 90.9805 15.428 90.1805 15.428C89.4018 15.428 88.7778 15.7053 88.3085 16.26C87.8392 16.8147 87.6045 17.5987 87.6045 18.612C87.6045 19.636 87.8392 20.4253 88.3085 20.98C88.7778 21.5347 89.4018 21.812 90.1805 21.812ZM98.8025 22.628C98.1092 22.628 97.5012 22.468 96.9785 22.148C96.4665 21.8173 96.0665 21.3533 95.7785 20.756C95.5012 20.148 95.3625 19.4333 95.3625 18.612C95.3625 17.7907 95.5012 17.0813 95.7785 16.484C96.0558 15.8867 96.4505 15.4227 96.9625 15.092C97.4852 14.7613 98.0985 14.596 98.8025 14.596C99.5278 14.596 100.147 14.7827 100.659 15.156C101.171 15.5293 101.512 16.0307 101.683 16.66H101.507V11.22H102.483V22.5H101.523V20.564H101.683C101.512 21.1933 101.171 21.6947 100.659 22.068C100.147 22.4413 99.5278 22.628 98.8025 22.628ZM98.9305 21.812C99.7305 21.812 100.36 21.5347 100.819 20.98C101.288 20.4253 101.523 19.636 101.523 18.612C101.523 17.5987 101.288 16.8147 100.819 16.26C100.36 15.7053 99.7305 15.428 98.9305 15.428C98.1518 15.428 97.5278 15.7053 97.0585 16.26C96.5892 16.8147 96.3545 17.5987 96.3545 18.612C96.3545 19.636 96.5892 20.4253 97.0585 20.98C97.5278 21.5347 98.1518 21.812 98.9305 21.812ZM108.422 22.628C107.622 22.628 106.934 22.468 106.358 22.148C105.782 21.828 105.339 21.3693 105.03 20.772C104.72 20.1747 104.566 19.4653 104.566 18.644C104.566 17.8333 104.72 17.1293 105.03 16.532C105.339 15.924 105.766 15.4493 106.31 15.108C106.864 14.7667 107.499 14.596 108.214 14.596C108.907 14.596 109.494 14.7507 109.974 15.06C110.464 15.3587 110.838 15.7907 111.094 16.356C111.36 16.9107 111.494 17.5827 111.494 18.372V18.82H105.27V18.1H110.886L110.63 18.308C110.63 17.3907 110.427 16.676 110.022 16.164C109.616 15.6413 109.019 15.38 108.23 15.38C107.643 15.38 107.147 15.5187 106.742 15.796C106.336 16.0627 106.032 16.436 105.83 16.916C105.627 17.3853 105.526 17.9293 105.526 18.548V18.628C105.526 19.3107 105.632 19.892 105.846 20.372C106.07 20.8413 106.4 21.1987 106.838 21.444C107.275 21.6893 107.792 21.812 108.39 21.812C108.87 21.812 109.318 21.7373 109.734 21.588C110.16 21.4387 110.576 21.188 110.982 20.836L111.366 21.572C111.024 21.892 110.587 22.148 110.054 22.34C109.52 22.532 108.976 22.628 108.422 22.628Z" fill="black"/>
</svg>
