<svg width="129" height="35" viewBox="0 0 129 35" fill="none" xmlns="http://www.w3.org/2000/svg">
<rect x="0.5" y="0.5" width="128" height="34" stroke="#B1B1B1"/>
<path d="M17.112 22.644C16.4293 22.644 15.8267 22.484 15.304 22.164C14.792 21.8333 14.392 21.364 14.104 20.756C13.816 20.1373 13.672 19.4173 13.672 18.596C13.672 17.7533 13.816 17.0333 14.104 16.436C14.392 15.8387 14.792 15.3747 15.304 15.044C15.8267 14.7133 16.4293 14.548 17.112 14.548C17.7947 14.548 18.3813 14.7187 18.872 15.06C19.3733 15.3907 19.7093 15.8387 19.88 16.404H19.704V11.22H21.32V22.5H19.736V20.74H19.896C19.7253 21.316 19.3893 21.78 18.888 22.132C18.3973 22.4733 17.8053 22.644 17.112 22.644ZM17.528 21.396C18.1893 21.396 18.7227 21.156 19.128 20.676C19.5333 20.196 19.736 19.5027 19.736 18.596C19.736 17.6787 19.5333 16.9853 19.128 16.516C18.7227 16.0467 18.1893 15.812 17.528 15.812C16.856 15.812 16.3173 16.0467 15.912 16.516C15.5067 16.9853 15.304 17.6787 15.304 18.596C15.304 19.5027 15.5067 20.196 15.912 20.676C16.3173 21.156 16.856 21.396 17.528 21.396ZM23.4451 12.884V11.204H25.3331V12.884H23.4451ZM23.5891 22.5V14.692H25.2051V22.5H23.5891ZM30.2158 22.644C29.7998 22.644 29.3944 22.6067 28.9998 22.532C28.6051 22.4573 28.2424 22.3507 27.9118 22.212C27.5811 22.0733 27.2878 21.9027 27.0318 21.7L27.4958 20.612C27.7624 20.7933 28.0451 20.9533 28.3438 21.092C28.6424 21.22 28.9518 21.316 29.2718 21.38C29.6024 21.444 29.9224 21.476 30.2318 21.476C30.7971 21.476 31.2238 21.3747 31.5118 21.172C31.7998 20.9693 31.9438 20.6973 31.9438 20.356C31.9438 20.0787 31.8478 19.8653 31.6558 19.716C31.4638 19.556 31.1758 19.4333 30.7918 19.348L29.2718 19.044C28.6104 18.9053 28.1091 18.66 27.7678 18.308C27.4264 17.956 27.2558 17.508 27.2558 16.964C27.2558 16.4733 27.3891 16.0467 27.6558 15.684C27.9224 15.3213 28.2958 15.044 28.7758 14.852C29.2558 14.6493 29.8104 14.548 30.4398 14.548C30.8024 14.548 31.1544 14.5853 31.4958 14.66C31.8371 14.7347 32.1571 14.8413 32.4558 14.98C32.7651 15.1187 33.0264 15.2947 33.2398 15.508L32.7758 16.596C32.5731 16.4147 32.3384 16.26 32.0718 16.132C31.8158 16.004 31.5491 15.908 31.2718 15.844C30.9944 15.7693 30.7171 15.732 30.4398 15.732C29.8744 15.732 29.4478 15.8387 29.1598 16.052C28.8824 16.2547 28.7438 16.532 28.7438 16.884C28.7438 17.1507 28.8291 17.3693 28.9998 17.54C29.1704 17.7107 29.4371 17.8333 29.7998 17.908L31.3198 18.212C32.0131 18.3507 32.5358 18.5853 32.8878 18.916C33.2504 19.2467 33.4318 19.6947 33.4318 20.26C33.4318 20.7507 33.2984 21.1773 33.0318 21.54C32.7651 21.9027 32.3864 22.18 31.8958 22.372C31.4158 22.5533 30.8558 22.644 30.2158 22.644ZM37.7258 22.644C37.1818 22.644 36.6911 22.5373 36.2538 22.324C35.8271 22.1107 35.4911 21.8227 35.2458 21.46C35.0004 21.0973 34.8778 20.6867 34.8778 20.228C34.8778 19.652 35.0218 19.1987 35.3098 18.868C35.6084 18.5267 36.0938 18.2867 36.7658 18.148C37.4484 17.9987 38.3658 17.924 39.5178 17.924H40.2698V18.916H39.5338C38.9578 18.916 38.4724 18.9373 38.0778 18.98C37.6831 19.0227 37.3684 19.092 37.1338 19.188C36.8991 19.2733 36.7284 19.396 36.6218 19.556C36.5258 19.716 36.4778 19.908 36.4778 20.132C36.4778 20.5373 36.6164 20.868 36.8938 21.124C37.1711 21.3693 37.5551 21.492 38.0458 21.492C38.4404 21.492 38.7871 21.4013 39.0858 21.22C39.3844 21.028 39.6191 20.772 39.7898 20.452C39.9711 20.132 40.0618 19.764 40.0618 19.348V17.508C40.0618 16.9 39.9338 16.4627 39.6778 16.196C39.4218 15.9293 39.0004 15.796 38.4138 15.796C37.9658 15.796 37.5178 15.8653 37.0698 16.004C36.6218 16.132 36.1631 16.34 35.6938 16.628L35.1978 15.492C35.4751 15.3 35.7951 15.1347 36.1578 14.996C36.5204 14.8573 36.8991 14.7507 37.2938 14.676C37.6991 14.5907 38.0884 14.548 38.4618 14.548C39.1764 14.548 39.7631 14.66 40.2218 14.884C40.6911 15.108 41.0378 15.4493 41.2618 15.908C41.4858 16.3667 41.5978 16.9587 41.5978 17.684V22.5H40.0778V20.756H40.2218C40.1364 21.1507 39.9764 21.492 39.7418 21.78C39.5178 22.0573 39.2351 22.2707 38.8938 22.42C38.5524 22.5693 38.1631 22.644 37.7258 22.644ZM48.0155 22.644C47.3328 22.644 46.7408 22.4733 46.2395 22.132C45.7382 21.78 45.4022 21.316 45.2315 20.74H45.4075V22.5H43.8235V11.22H45.4395V16.404H45.2475C45.4182 15.8387 45.7542 15.3907 46.2555 15.06C46.7568 14.7187 47.3435 14.548 48.0155 14.548C48.7195 14.548 49.3275 14.7133 49.8395 15.044C50.3515 15.3747 50.7462 15.8387 51.0235 16.436C51.3115 17.0333 51.4555 17.7533 51.4555 18.596C51.4555 19.4173 51.3115 20.1373 51.0235 20.756C50.7462 21.364 50.3462 21.8333 49.8235 22.164C49.3115 22.484 48.7088 22.644 48.0155 22.644ZM47.6155 21.396C48.2875 21.396 48.8208 21.156 49.2155 20.676C49.6208 20.196 49.8235 19.5027 49.8235 18.596C49.8235 17.6787 49.6208 16.9853 49.2155 16.516C48.8208 16.0467 48.2875 15.812 47.6155 15.812C46.9542 15.812 46.4208 16.0467 46.0155 16.516C45.6102 16.9853 45.4075 17.6787 45.4075 18.596C45.4075 19.5027 45.6102 20.196 46.0155 20.676C46.4208 21.156 46.9542 21.396 47.6155 21.396ZM55.8206 22.644C54.9673 22.644 54.3273 22.404 53.9006 21.924C53.4846 21.4333 53.2766 20.7293 53.2766 19.812V11.22H54.8926V19.716C54.8926 20.0573 54.9406 20.3507 55.0366 20.596C55.1326 20.8307 55.2766 21.0067 55.4686 21.124C55.6606 21.2413 55.9006 21.3 56.1886 21.3C56.3166 21.3 56.4393 21.2947 56.5566 21.284C56.674 21.2733 56.786 21.252 56.8926 21.22L56.8606 22.516C56.6793 22.5587 56.5033 22.5907 56.3326 22.612C56.162 22.6333 55.9913 22.644 55.8206 22.644ZM61.7531 22.644C60.8998 22.644 60.1638 22.484 59.5451 22.164C58.9371 21.8333 58.4625 21.3693 58.1211 20.772C57.7905 20.164 57.6251 19.444 57.6251 18.612C57.6251 17.8013 57.7905 17.092 58.1211 16.484C58.4518 15.876 58.9051 15.4013 59.4811 15.06C60.0571 14.7187 60.7131 14.548 61.4491 14.548C62.1745 14.548 62.7931 14.708 63.3051 15.028C63.8278 15.3373 64.2278 15.78 64.5051 16.356C64.7825 16.932 64.9211 17.62 64.9211 18.42V18.964H58.9051V17.972H63.8331L63.5611 18.196C63.5611 17.396 63.3851 16.7773 63.0331 16.34C62.6811 15.9027 62.1745 15.684 61.5131 15.684C61.0118 15.684 60.5851 15.8013 60.2331 16.036C59.8918 16.2707 59.6305 16.596 59.4491 17.012C59.2678 17.428 59.1771 17.9133 59.1771 18.468V18.564C59.1771 19.1827 59.2731 19.7053 59.4651 20.132C59.6678 20.548 59.9611 20.8627 60.3451 21.076C60.7291 21.2893 61.2038 21.396 61.7691 21.396C62.2171 21.396 62.6545 21.3267 63.0811 21.188C63.5185 21.0387 63.9291 20.8093 64.3131 20.5L64.7931 21.62C64.4411 21.94 63.9878 22.1907 63.4331 22.372C62.8785 22.5533 62.3185 22.644 61.7531 22.644ZM69.6589 22.644C68.9762 22.644 68.3735 22.484 67.8509 22.164C67.3389 21.8333 66.9389 21.364 66.6509 20.756C66.3629 20.1373 66.2189 19.4173 66.2189 18.596C66.2189 17.7533 66.3629 17.0333 66.6509 16.436C66.9389 15.8387 67.3389 15.3747 67.8509 15.044C68.3735 14.7133 68.9762 14.548 69.6589 14.548C70.3415 14.548 70.9282 14.7187 71.4189 15.06C71.9202 15.3907 72.2562 15.8387 72.4269 16.404H72.2509V11.22H73.8669V22.5H72.2829V20.74H72.4429C72.2722 21.316 71.9362 21.78 71.4349 22.132C70.9442 22.4733 70.3522 22.644 69.6589 22.644ZM70.0749 21.396C70.7362 21.396 71.2695 21.156 71.6749 20.676C72.0802 20.196 72.2829 19.5027 72.2829 18.596C72.2829 17.6787 72.0802 16.9853 71.6749 16.516C71.2695 16.0467 70.7362 15.812 70.0749 15.812C69.4029 15.812 68.8642 16.0467 68.4589 16.516C68.0535 16.9853 67.8509 17.6787 67.8509 18.596C67.8509 19.5027 68.0535 20.196 68.4589 20.676C68.8642 21.156 69.4029 21.396 70.0749 21.396ZM83.0751 22.644C82.6591 22.644 82.2538 22.6067 81.8591 22.532C81.4645 22.4573 81.1018 22.3507 80.7711 22.212C80.4405 22.0733 80.1471 21.9027 79.8911 21.7L80.3551 20.612C80.6218 20.7933 80.9045 20.9533 81.2031 21.092C81.5018 21.22 81.8111 21.316 82.1311 21.38C82.4618 21.444 82.7818 21.476 83.0911 21.476C83.6565 21.476 84.0831 21.3747 84.3711 21.172C84.6591 20.9693 84.8031 20.6973 84.8031 20.356C84.8031 20.0787 84.7071 19.8653 84.5151 19.716C84.3231 19.556 84.0351 19.4333 83.6511 19.348L82.1311 19.044C81.4698 18.9053 80.9685 18.66 80.6271 18.308C80.2858 17.956 80.1151 17.508 80.1151 16.964C80.1151 16.4733 80.2485 16.0467 80.5151 15.684C80.7818 15.3213 81.1551 15.044 81.6351 14.852C82.1151 14.6493 82.6698 14.548 83.2991 14.548C83.6618 14.548 84.0138 14.5853 84.3551 14.66C84.6965 14.7347 85.0165 14.8413 85.3151 14.98C85.6245 15.1187 85.8858 15.2947 86.0991 15.508L85.6351 16.596C85.4325 16.4147 85.1978 16.26 84.9311 16.132C84.6751 16.004 84.4085 15.908 84.1311 15.844C83.8538 15.7693 83.5765 15.732 83.2991 15.732C82.7338 15.732 82.3071 15.8387 82.0191 16.052C81.7418 16.2547 81.6031 16.532 81.6031 16.884C81.6031 17.1507 81.6885 17.3693 81.8591 17.54C82.0298 17.7107 82.2965 17.8333 82.6591 17.908L84.1791 18.212C84.8725 18.3507 85.3951 18.5853 85.7471 18.916C86.1098 19.2467 86.2911 19.6947 86.2911 20.26C86.2911 20.7507 86.1578 21.1773 85.8911 21.54C85.6245 21.9027 85.2458 22.18 84.7551 22.372C84.2751 22.5533 83.7151 22.644 83.0751 22.644ZM91.339 22.644C90.3683 22.644 89.6377 22.3933 89.147 21.892C88.667 21.3907 88.427 20.6653 88.427 19.716V15.94H86.907V14.692H88.427V12.34H90.043V14.692H92.459V15.94H90.043V19.588C90.043 20.1533 90.1603 20.58 90.395 20.868C90.6403 21.156 91.035 21.3 91.579 21.3C91.739 21.3 91.899 21.2787 92.059 21.236C92.2297 21.1933 92.395 21.1507 92.555 21.108L92.811 22.324C92.651 22.42 92.427 22.4947 92.139 22.548C91.8617 22.612 91.595 22.644 91.339 22.644ZM96.3508 22.644C95.8068 22.644 95.3161 22.5373 94.8788 22.324C94.4521 22.1107 94.1161 21.8227 93.8708 21.46C93.6254 21.0973 93.5028 20.6867 93.5028 20.228C93.5028 19.652 93.6468 19.1987 93.9348 18.868C94.2334 18.5267 94.7188 18.2867 95.3908 18.148C96.0734 17.9987 96.9908 17.924 98.1428 17.924H98.8948V18.916H98.1588C97.5828 18.916 97.0974 18.9373 96.7028 18.98C96.3081 19.0227 95.9934 19.092 95.7588 19.188C95.5241 19.2733 95.3534 19.396 95.2468 19.556C95.1508 19.716 95.1028 19.908 95.1028 20.132C95.1028 20.5373 95.2414 20.868 95.5188 21.124C95.7961 21.3693 96.1801 21.492 96.6708 21.492C97.0654 21.492 97.4121 21.4013 97.7108 21.22C98.0094 21.028 98.2441 20.772 98.4148 20.452C98.5961 20.132 98.6868 19.764 98.6868 19.348V17.508C98.6868 16.9 98.5588 16.4627 98.3028 16.196C98.0468 15.9293 97.6254 15.796 97.0388 15.796C96.5908 15.796 96.1428 15.8653 95.6948 16.004C95.2468 16.132 94.7881 16.34 94.3188 16.628L93.8228 15.492C94.1001 15.3 94.4201 15.1347 94.7828 14.996C95.1454 14.8573 95.5241 14.7507 95.9188 14.676C96.3241 14.5907 96.7134 14.548 97.0868 14.548C97.8014 14.548 98.3881 14.66 98.8468 14.884C99.3161 15.108 99.6628 15.4493 99.8868 15.908C100.111 16.3667 100.223 16.9587 100.223 17.684V22.5H98.7028V20.756H98.8468C98.7614 21.1507 98.6014 21.492 98.3668 21.78C98.1428 22.0573 97.8601 22.2707 97.5188 22.42C97.1774 22.5693 96.7881 22.644 96.3508 22.644ZM105.777 22.644C104.806 22.644 104.075 22.3933 103.585 21.892C103.105 21.3907 102.865 20.6653 102.865 19.716V15.94H101.345V14.692H102.865V12.34H104.481V14.692H106.897V15.94H104.481V19.588C104.481 20.1533 104.598 20.58 104.833 20.868C105.078 21.156 105.473 21.3 106.016 21.3C106.177 21.3 106.337 21.2787 106.497 21.236C106.667 21.1933 106.833 21.1507 106.993 21.108L107.249 22.324C107.089 22.42 106.865 22.4947 106.577 22.548C106.299 22.612 106.033 22.644 105.777 22.644ZM111.878 22.644C111.025 22.644 110.289 22.484 109.67 22.164C109.062 21.8333 108.587 21.3693 108.246 20.772C107.915 20.164 107.75 19.444 107.75 18.612C107.75 17.8013 107.915 17.092 108.246 16.484C108.577 15.876 109.03 15.4013 109.606 15.06C110.182 14.7187 110.838 14.548 111.574 14.548C112.299 14.548 112.918 14.708 113.43 15.028C113.953 15.3373 114.353 15.78 114.63 16.356C114.907 16.932 115.046 17.62 115.046 18.42V18.964H109.03V17.972H113.958L113.686 18.196C113.686 17.396 113.51 16.7773 113.158 16.34C112.806 15.9027 112.299 15.684 111.638 15.684C111.137 15.684 110.71 15.8013 110.358 16.036C110.017 16.2707 109.755 16.596 109.574 17.012C109.393 17.428 109.302 17.9133 109.302 18.468V18.564C109.302 19.1827 109.398 19.7053 109.59 20.132C109.793 20.548 110.086 20.8627 110.47 21.076C110.854 21.2893 111.329 21.396 111.894 21.396C112.342 21.396 112.779 21.3267 113.206 21.188C113.643 21.0387 114.054 20.8093 114.438 20.5L114.918 21.62C114.566 21.94 114.113 22.1907 113.558 22.372C113.003 22.5533 112.443 22.644 111.878 22.644Z" fill="#B1B1B1"/>
</svg>
