<svg width="135" height="35" viewBox="0 0 135 35" fill="none" xmlns="http://www.w3.org/2000/svg">
<rect width="135" height="35" fill="#4874BD"/>
<path d="M14.136 25.38V14.692H15.72V16.452H15.544C15.7147 15.876 16.0507 15.4173 16.552 15.076C17.0533 14.724 17.6453 14.548 18.328 14.548C19.0213 14.548 19.624 14.7133 20.136 15.044C20.6587 15.3747 21.0587 15.8387 21.336 16.436C21.624 17.0333 21.768 17.7533 21.768 18.596C21.768 19.4173 21.624 20.1373 21.336 20.756C21.0587 21.364 20.664 21.8333 20.152 22.164C19.64 22.484 19.032 22.644 18.328 22.644C17.656 22.644 17.0693 22.4733 16.568 22.132C16.0667 21.7907 15.7307 21.3373 15.56 20.772H15.752V25.38H14.136ZM17.928 21.396C18.6 21.396 19.1333 21.156 19.528 20.676C19.9333 20.196 20.136 19.5027 20.136 18.596C20.136 17.6787 19.9333 16.9853 19.528 16.516C19.1333 16.0467 18.6 15.812 17.928 15.812C17.2667 15.812 16.7333 16.0467 16.328 16.516C15.9227 16.9853 15.72 17.6787 15.72 18.596C15.72 19.5027 15.9227 20.196 16.328 20.676C16.7333 21.156 17.2667 21.396 17.928 21.396ZM23.5891 22.5V14.692H25.1571V16.564H24.9971C25.1678 15.924 25.4718 15.4387 25.9091 15.108C26.3571 14.7773 26.9491 14.5853 27.6851 14.532L28.2131 14.5L28.3251 15.876L27.3491 15.972C26.6558 16.036 26.1278 16.2547 25.7651 16.628C25.4025 17.0013 25.2211 17.5133 25.2211 18.164V22.5H23.5891ZM29.4139 12.884V11.204H31.3019V12.884H29.4139ZM29.5579 22.5V14.692H31.1739V22.5H29.5579ZM33.4805 22.5V14.692H35.0485V16.356H34.8725C35.0112 15.972 35.2032 15.6467 35.4485 15.38C35.6938 15.1133 35.9872 14.9107 36.3285 14.772C36.6805 14.6227 37.0645 14.548 37.4805 14.548C38.1312 14.548 38.6592 14.7027 39.0645 15.012C39.4698 15.3213 39.7472 15.796 39.8965 16.436H39.6725C39.8752 15.8493 40.2218 15.3907 40.7125 15.06C41.2032 14.7187 41.7738 14.548 42.4245 14.548C43.0218 14.548 43.5125 14.6653 43.8965 14.9C44.2805 15.124 44.5685 15.4707 44.7605 15.94C44.9525 16.3987 45.0485 16.98 45.0485 17.684V22.5H43.4325V17.764C43.4325 17.1027 43.3152 16.6173 43.0805 16.308C42.8565 15.9987 42.4832 15.844 41.9605 15.844C41.5765 15.844 41.2405 15.9347 40.9525 16.116C40.6645 16.2973 40.4405 16.564 40.2805 16.916C40.1312 17.2573 40.0565 17.6627 40.0565 18.132V22.5H38.4405V17.764C38.4405 17.1027 38.3285 16.6173 38.1045 16.308C37.8805 15.9987 37.5072 15.844 36.9845 15.844C36.5898 15.844 36.2485 15.9347 35.9605 16.116C35.6832 16.2973 35.4698 16.564 35.3205 16.916C35.1712 17.2573 35.0965 17.6627 35.0965 18.132V22.5H33.4805ZM49.8039 22.644C49.2599 22.644 48.7692 22.5373 48.3319 22.324C47.9052 22.1107 47.5692 21.8227 47.3239 21.46C47.0785 21.0973 46.9559 20.6867 46.9559 20.228C46.9559 19.652 47.0999 19.1987 47.3879 18.868C47.6865 18.5267 48.1719 18.2867 48.8439 18.148C49.5265 17.9987 50.4439 17.924 51.5959 17.924H52.3479V18.916H51.6119C51.0359 18.916 50.5505 18.9373 50.1559 18.98C49.7612 19.0227 49.4465 19.092 49.2119 19.188C48.9772 19.2733 48.8065 19.396 48.6999 19.556C48.6039 19.716 48.5559 19.908 48.5559 20.132C48.5559 20.5373 48.6945 20.868 48.9719 21.124C49.2492 21.3693 49.6332 21.492 50.1239 21.492C50.5185 21.492 50.8652 21.4013 51.1639 21.22C51.4625 21.028 51.6972 20.772 51.8679 20.452C52.0492 20.132 52.1399 19.764 52.1399 19.348V17.508C52.1399 16.9 52.0119 16.4627 51.7559 16.196C51.4999 15.9293 51.0785 15.796 50.4919 15.796C50.0439 15.796 49.5959 15.8653 49.1479 16.004C48.6999 16.132 48.2412 16.34 47.7719 16.628L47.2759 15.492C47.5532 15.3 47.8732 15.1347 48.2359 14.996C48.5985 14.8573 48.9772 14.7507 49.3719 14.676C49.7772 14.5907 50.1665 14.548 50.5399 14.548C51.2545 14.548 51.8412 14.66 52.2999 14.884C52.7692 15.108 53.1159 15.4493 53.3399 15.908C53.5639 16.3667 53.6759 16.9587 53.6759 17.684V22.5H52.1559V20.756H52.2999C52.2145 21.1507 52.0545 21.492 51.8199 21.78C51.5959 22.0573 51.3132 22.2707 50.9719 22.42C50.6305 22.5693 50.2412 22.644 49.8039 22.644ZM55.9016 22.5V14.692H57.4696V16.564H57.3096C57.4803 15.924 57.7843 15.4387 58.2216 15.108C58.6696 14.7773 59.2616 14.5853 59.9976 14.532L60.5256 14.5L60.6376 15.876L59.6616 15.972C58.9683 16.036 58.4403 16.2547 58.0776 16.628C57.715 17.0013 57.5336 17.5133 57.5336 18.164V22.5H55.9016ZM63.1548 25.38L64.6908 21.956V22.644L61.2828 14.692H63.0108L65.6348 21.172H65.1868L67.8428 14.692H69.5068L64.8508 25.38H63.1548ZM79.0624 22.644C78.3797 22.644 77.7877 22.4733 77.2864 22.132C76.785 21.78 76.449 21.316 76.2784 20.74H76.4544V22.5H74.8704V11.22H76.4864V16.404H76.2944C76.465 15.8387 76.801 15.3907 77.3024 15.06C77.8037 14.7187 78.3904 14.548 79.0624 14.548C79.7664 14.548 80.3744 14.7133 80.8864 15.044C81.3984 15.3747 81.793 15.8387 82.0704 16.436C82.3584 17.0333 82.5024 17.7533 82.5024 18.596C82.5024 19.4173 82.3584 20.1373 82.0704 20.756C81.793 21.364 81.393 21.8333 80.8704 22.164C80.3584 22.484 79.7557 22.644 79.0624 22.644ZM78.6624 21.396C79.3344 21.396 79.8677 21.156 80.2624 20.676C80.6677 20.196 80.8704 19.5027 80.8704 18.596C80.8704 17.6787 80.6677 16.9853 80.2624 16.516C79.8677 16.0467 79.3344 15.812 78.6624 15.812C78.001 15.812 77.4677 16.0467 77.0624 16.516C76.657 16.9853 76.4544 17.6787 76.4544 18.596C76.4544 19.5027 76.657 20.196 77.0624 20.676C77.4677 21.156 78.001 21.396 78.6624 21.396ZM87.1075 22.644C86.4782 22.644 85.9502 22.5267 85.5235 22.292C85.1075 22.0573 84.7928 21.7107 84.5795 21.252C84.3768 20.7827 84.2755 20.196 84.2755 19.492V14.692H85.8915V19.508C85.8915 19.924 85.9448 20.2707 86.0515 20.548C86.1688 20.8253 86.3448 21.028 86.5795 21.156C86.8248 21.284 87.1288 21.348 87.4915 21.348C87.8968 21.348 88.2542 21.2573 88.5635 21.076C88.8728 20.8947 89.1128 20.6333 89.2835 20.292C89.4542 19.9507 89.5395 19.556 89.5395 19.108V14.692H91.1555V22.5H89.5875V20.788H89.7955C89.5822 21.3853 89.2408 21.844 88.7715 22.164C88.3022 22.484 87.7475 22.644 87.1075 22.644ZM96.7609 22.644C95.7902 22.644 95.0595 22.3933 94.5689 21.892C94.0889 21.3907 93.8489 20.6653 93.8489 19.716V15.94H92.3289V14.692H93.8489V12.34H95.4649V14.692H97.8809V15.94H95.4649V19.588C95.4649 20.1533 95.5822 20.58 95.8169 20.868C96.0622 21.156 96.4569 21.3 97.0009 21.3C97.1609 21.3 97.3209 21.2787 97.4809 21.236C97.6515 21.1933 97.8169 21.1507 97.9769 21.108L98.2329 22.324C98.0729 22.42 97.8489 22.4947 97.5609 22.548C97.2835 22.612 97.0169 22.644 96.7609 22.644ZM102.292 22.644C101.321 22.644 100.591 22.3933 100.1 21.892C99.6201 21.3907 99.3801 20.6653 99.3801 19.716V15.94H97.8601V14.692H99.3801V12.34H100.996V14.692H103.412V15.94H100.996V19.588C100.996 20.1533 101.113 20.58 101.348 20.868C101.593 21.156 101.988 21.3 102.532 21.3C102.692 21.3 102.852 21.2787 103.012 21.236C103.183 21.1933 103.348 21.1507 103.508 21.108L103.764 22.324C103.604 22.42 103.38 22.4947 103.092 22.548C102.815 22.612 102.548 22.644 102.292 22.644ZM108.122 22.644C107.332 22.644 106.65 22.4787 106.074 22.148C105.508 21.8173 105.066 21.348 104.746 20.74C104.426 20.132 104.266 19.4173 104.266 18.596C104.266 17.764 104.426 17.0493 104.746 16.452C105.066 15.844 105.508 15.3747 106.074 15.044C106.65 14.7133 107.332 14.548 108.122 14.548C108.9 14.548 109.572 14.7133 110.138 15.044C110.714 15.3747 111.162 15.844 111.482 16.452C111.802 17.06 111.962 17.7747 111.962 18.596C111.962 19.4173 111.802 20.132 111.482 20.74C111.162 21.348 110.714 21.8173 110.138 22.148C109.572 22.4787 108.9 22.644 108.122 22.644ZM108.106 21.396C108.778 21.396 109.316 21.156 109.722 20.676C110.127 20.196 110.33 19.5027 110.33 18.596C110.33 17.6787 110.127 16.9853 109.722 16.516C109.316 16.0467 108.778 15.812 108.106 15.812C107.444 15.812 106.911 16.0467 106.506 16.516C106.1 16.9853 105.898 17.6787 105.898 18.596C105.898 19.5027 106.1 20.196 106.506 20.676C106.911 21.156 107.444 21.396 108.106 21.396ZM113.777 22.5V14.692H115.345V16.356H115.169C115.403 15.7587 115.771 15.3107 116.273 15.012C116.774 14.7027 117.35 14.548 118.001 14.548C118.619 14.548 119.131 14.6653 119.537 14.9C119.953 15.124 120.262 15.4707 120.465 15.94C120.667 16.3987 120.769 16.98 120.769 17.684V22.5H119.153V17.78C119.153 17.332 119.094 16.9693 118.977 16.692C118.859 16.404 118.683 16.1907 118.449 16.052C118.214 15.9133 117.91 15.844 117.537 15.844C117.11 15.844 116.731 15.9347 116.401 16.116C116.081 16.2973 115.83 16.5587 115.649 16.9C115.478 17.2413 115.393 17.636 115.393 18.084V22.5H113.777Z" fill="white"/>
</svg>
