<svg width="70" height="22" viewBox="0 0 70 22" fill="none" xmlns="http://www.w3.org/2000/svg">
<g clip-path="url(#clip0_1203_6619)">
<path d="M10.56 3.85996L3.92999 10.52C3.79499 10.655 3.73499 10.835 3.73499 11.015C3.73499 11.195 3.80999 11.375 3.92999 11.51L10.56 18.14C10.725 18.305 10.98 18.305 11.145 18.14C11.22 18.065 11.265 17.96 11.265 17.855C11.265 17.75 11.22 17.645 11.145 17.57L4.60499 11.015L11.145 4.44496C11.31 4.27996 11.31 4.02496 11.145 3.85996C10.98 3.69496 10.725 3.69496 10.56 3.85996Z" fill="black"/>
</g>
<path d="M31.504 16V4.72H32.336L37.04 13.648H36.592L41.264 4.72H42.096V16H41.184V5.904H41.568L37.168 14.256H36.464L32.016 5.888H32.4V16H31.504ZM48.2341 16.128C47.4341 16.128 46.7461 15.968 46.1701 15.648C45.5941 15.328 45.1515 14.8693 44.8421 14.272C44.5328 13.6747 44.3781 12.9653 44.3781 12.144C44.3781 11.3333 44.5328 10.6293 44.8421 10.032C45.1515 9.424 45.5781 8.94933 46.1221 8.608C46.6768 8.26667 47.3115 8.096 48.0261 8.096C48.7195 8.096 49.3061 8.25067 49.7861 8.56C50.2768 8.85867 50.6501 9.29067 50.9061 9.856C51.1728 10.4107 51.3061 11.0827 51.3061 11.872V12.32H45.0821V11.6H50.6981L50.4421 11.808C50.4421 10.8907 50.2395 10.176 49.8341 9.664C49.4288 9.14133 48.8315 8.88 48.0421 8.88C47.4555 8.88 46.9595 9.01867 46.5541 9.296C46.1488 9.56267 45.8448 9.936 45.6421 10.416C45.4395 10.8853 45.3381 11.4293 45.3381 12.048V12.128C45.3381 12.8107 45.4448 13.392 45.6581 13.872C45.8821 14.3413 46.2128 14.6987 46.6501 14.944C47.0875 15.1893 47.6048 15.312 48.2021 15.312C48.6821 15.312 49.1301 15.2373 49.5461 15.088C49.9728 14.9387 50.3888 14.688 50.7941 14.336L51.1781 15.072C50.8368 15.392 50.3995 15.648 49.8661 15.84C49.3328 16.032 48.7888 16.128 48.2341 16.128ZM53.2956 16V8.24H54.2556V10.048H54.0796C54.293 9.408 54.6556 8.92267 55.1676 8.592C55.6903 8.26133 56.2876 8.096 56.9596 8.096C57.5783 8.096 58.0903 8.208 58.4956 8.432C58.9116 8.64533 59.221 8.976 59.4236 9.424C59.6263 9.872 59.7276 10.432 59.7276 11.104V16H58.7516V11.184C58.7516 10.672 58.6823 10.2507 58.5436 9.92C58.4156 9.58933 58.2076 9.344 57.9196 9.184C57.6316 9.024 57.2636 8.944 56.8156 8.944C56.3036 8.944 55.8556 9.05067 55.4716 9.264C55.0983 9.47733 54.805 9.78133 54.5916 10.176C54.3783 10.5707 54.2716 11.0347 54.2716 11.568V16H53.2956ZM64.9848 16.128C64.3661 16.128 63.8488 16.016 63.4328 15.792C63.0274 15.568 62.7234 15.232 62.5208 14.784C62.3181 14.336 62.2168 13.7813 62.2168 13.12V8.24H63.1928V13.072C63.1928 13.5733 63.2568 13.9893 63.3848 14.32C63.5234 14.6507 63.7368 14.896 64.0248 15.056C64.3128 15.216 64.6754 15.296 65.1128 15.296C65.5928 15.296 66.0141 15.1893 66.3768 14.976C66.7394 14.752 67.0221 14.4427 67.2248 14.048C67.4381 13.6533 67.5448 13.1893 67.5448 12.656V8.24H68.5208V16H67.5768V14.128H67.7688C67.5661 14.7787 67.2141 15.2747 66.7128 15.616C66.2114 15.9573 65.6354 16.128 64.9848 16.128Z" fill="black"/>
<defs>
<clipPath id="clip0_1203_6619">
<rect width="15" height="15" fill="white" transform="translate(0 3.5)"/>
</clipPath>
</defs>
</svg>
