<svg width="818" height="30" viewBox="0 0 818 30" fill="none" xmlns="http://www.w3.org/2000/svg">
<rect width="818" height="30" fill="white"/>
<path d="M3.824 20V10.096H0.464V9.456H7.92V10.096H4.56V20H3.824ZM9.86263 20V8.496H10.5666V13.52C10.972 13.1147 11.3826 12.784 11.7986 12.528C12.2253 12.2613 12.7 12.128 13.2226 12.128C14.012 12.128 14.5933 12.3733 14.9666 12.864C15.3506 13.344 15.5426 14.08 15.5426 15.072V20H14.8386V15.168C14.8386 14.3467 14.7 13.744 14.4226 13.36C14.156 12.9653 13.708 12.768 13.0786 12.768C12.62 12.768 12.204 12.8907 11.8306 13.136C11.4573 13.3707 11.036 13.728 10.5666 14.208V20H9.86263ZM18.3158 20V12.32H19.0198V20H18.3158ZM18.6838 10.464C18.5131 10.464 18.3691 10.4053 18.2518 10.288C18.1344 10.1707 18.0758 10.0107 18.0758 9.808C18.0758 9.62667 18.1344 9.47733 18.2518 9.36C18.3691 9.24267 18.5131 9.184 18.6838 9.184C18.8651 9.184 19.0091 9.24267 19.1158 9.36C19.2331 9.47733 19.2918 9.62667 19.2918 9.808C19.2918 10.0107 19.2331 10.1707 19.1158 10.288C19.0091 10.4053 18.8651 10.464 18.6838 10.464ZM23.828 20.192C23.2627 20.192 22.7347 20.0907 22.244 19.888C21.764 19.6747 21.3533 19.424 21.012 19.136L21.428 18.608C21.7587 18.8747 22.1107 19.104 22.484 19.296C22.8573 19.488 23.3213 19.584 23.876 19.584C24.4733 19.584 24.9267 19.4347 25.236 19.136C25.5453 18.8267 25.7 18.4693 25.7 18.064C25.7 17.744 25.604 17.4773 25.412 17.264C25.22 17.0507 24.98 16.8747 24.692 16.736C24.4147 16.5973 24.1267 16.4747 23.828 16.368C23.444 16.2293 23.0653 16.0747 22.692 15.904C22.3293 15.7333 22.0307 15.5147 21.796 15.248C21.5613 14.9707 21.444 14.6133 21.444 14.176C21.444 13.6107 21.652 13.1307 22.068 12.736C22.4947 12.3307 23.108 12.128 23.908 12.128C24.324 12.128 24.724 12.2027 25.108 12.352C25.5027 12.5013 25.8387 12.6933 26.116 12.928L25.732 13.424C25.4653 13.232 25.188 13.072 24.9 12.944C24.612 12.8053 24.276 12.736 23.892 12.736C23.2947 12.736 22.852 12.88 22.564 13.168C22.2867 13.456 22.148 13.776 22.148 14.128C22.148 14.416 22.228 14.656 22.388 14.848C22.5587 15.04 22.7773 15.2 23.044 15.328C23.3213 15.4453 23.6093 15.5627 23.908 15.68C24.3133 15.8293 24.708 15.9893 25.092 16.16C25.476 16.3307 25.7907 16.56 26.036 16.848C26.292 17.136 26.42 17.5307 26.42 18.032C26.42 18.416 26.3187 18.7733 26.116 19.104C25.9133 19.424 25.62 19.6853 25.236 19.888C24.852 20.0907 24.3827 20.192 23.828 20.192ZM31.6595 20V12.32H32.3635V20H31.6595ZM32.0275 10.464C31.8568 10.464 31.7128 10.4053 31.5955 10.288C31.4782 10.1707 31.4195 10.0107 31.4195 9.808C31.4195 9.62667 31.4782 9.47733 31.5955 9.36C31.7128 9.24267 31.8568 9.184 32.0275 9.184C32.2088 9.184 32.3528 9.24267 32.4595 9.36C32.5768 9.47733 32.6355 9.62667 32.6355 9.808C32.6355 10.0107 32.5768 10.1707 32.4595 10.288C32.3528 10.4053 32.2088 10.464 32.0275 10.464ZM37.1718 20.192C36.6064 20.192 36.0784 20.0907 35.5878 19.888C35.1078 19.6747 34.6971 19.424 34.3558 19.136L34.7718 18.608C35.1024 18.8747 35.4544 19.104 35.8278 19.296C36.2011 19.488 36.6651 19.584 37.2198 19.584C37.8171 19.584 38.2704 19.4347 38.5798 19.136C38.8891 18.8267 39.0438 18.4693 39.0438 18.064C39.0438 17.744 38.9478 17.4773 38.7558 17.264C38.5638 17.0507 38.3238 16.8747 38.0358 16.736C37.7584 16.5973 37.4704 16.4747 37.1718 16.368C36.7878 16.2293 36.4091 16.0747 36.0358 15.904C35.6731 15.7333 35.3744 15.5147 35.1398 15.248C34.9051 14.9707 34.7878 14.6133 34.7878 14.176C34.7878 13.6107 34.9958 13.1307 35.4118 12.736C35.8384 12.3307 36.4518 12.128 37.2518 12.128C37.6678 12.128 38.0678 12.2027 38.4518 12.352C38.8464 12.5013 39.1824 12.6933 39.4598 12.928L39.0758 13.424C38.8091 13.232 38.5318 13.072 38.2438 12.944C37.9558 12.8053 37.6198 12.736 37.2358 12.736C36.6384 12.736 36.1958 12.88 35.9078 13.168C35.6304 13.456 35.4918 13.776 35.4918 14.128C35.4918 14.416 35.5718 14.656 35.7318 14.848C35.9024 15.04 36.1211 15.2 36.3878 15.328C36.6651 15.4453 36.9531 15.5627 37.2518 15.68C37.6571 15.8293 38.0518 15.9893 38.4358 16.16C38.8198 16.3307 39.1344 16.56 39.3798 16.848C39.6358 17.136 39.7638 17.5307 39.7638 18.032C39.7638 18.416 39.6624 18.7733 39.4598 19.104C39.2571 19.424 38.9638 19.6853 38.5798 19.888C38.1958 20.0907 37.7264 20.192 37.1718 20.192ZM46.6833 20.192C46.0753 20.192 45.5526 20.0213 45.1153 19.68C44.6779 19.3387 44.4593 18.8053 44.4593 18.08C44.4593 17.2267 44.8593 16.5813 45.6593 16.144C46.4593 15.696 47.7126 15.376 49.4193 15.184C49.4299 14.7893 49.3873 14.4107 49.2913 14.048C49.1953 13.6747 49.0139 13.3653 48.7473 13.12C48.4913 12.8747 48.1073 12.752 47.5953 12.752C47.0833 12.752 46.6139 12.8533 46.1873 13.056C45.7606 13.2587 45.4139 13.456 45.1473 13.648L44.8273 13.12C45.0086 12.992 45.2433 12.8533 45.5312 12.704C45.8193 12.544 46.1446 12.4107 46.5073 12.304C46.8806 12.1867 47.2753 12.128 47.6913 12.128C48.2993 12.128 48.7793 12.2613 49.1313 12.528C49.4833 12.7947 49.7339 13.152 49.8833 13.6C50.0433 14.0373 50.1233 14.5333 50.1233 15.088V20H49.5153L49.4513 19.008H49.4033C49.0086 19.3173 48.5819 19.5947 48.1233 19.84C47.6646 20.0747 47.1846 20.192 46.6833 20.192ZM46.8113 19.584C47.2486 19.584 47.6699 19.4773 48.0753 19.264C48.4913 19.0507 48.9393 18.7413 49.4193 18.336V15.728C48.3633 15.856 47.5259 16.0213 46.9073 16.224C46.2886 16.4267 45.8459 16.6827 45.5793 16.992C45.3126 17.2907 45.1793 17.6427 45.1793 18.048C45.1793 18.6027 45.3393 18.9973 45.6593 19.232C45.9899 19.4667 46.3739 19.584 46.8113 19.584ZM56.0658 20V8.496H56.7698V13.52C57.1751 13.1147 57.5858 12.784 58.0018 12.528C58.4284 12.2613 58.9031 12.128 59.4258 12.128C60.2151 12.128 60.7964 12.3733 61.1698 12.864C61.5538 13.344 61.7458 14.08 61.7458 15.072V20H61.0418V15.168C61.0418 14.3467 60.9031 13.744 60.6258 13.36C60.3591 12.9653 59.9111 12.768 59.2818 12.768C58.8231 12.768 58.4071 12.8907 58.0338 13.136C57.6604 13.3707 57.2391 13.728 56.7698 14.208V20H56.0658ZM63.7029 20V19.552C64.8229 18.4107 65.7562 17.424 66.5029 16.592C67.2495 15.7493 67.8095 14.9973 68.1829 14.336C68.5562 13.6747 68.7429 13.0507 68.7429 12.464C68.7429 11.824 68.5615 11.2853 68.1989 10.848C67.8469 10.4107 67.2869 10.192 66.5189 10.192C66.0602 10.192 65.6229 10.32 65.2069 10.576C64.8015 10.832 64.4442 11.152 64.1349 11.536L63.6709 11.088C64.0549 10.6613 64.4815 10.304 64.9509 10.016C65.4202 9.728 65.9642 9.584 66.5829 9.584C67.5002 9.584 68.2095 9.84533 68.7109 10.368C69.2122 10.8907 69.4629 11.584 69.4629 12.448C69.4629 13.12 69.2655 13.8027 68.8709 14.496C68.4869 15.1893 67.9429 15.936 67.2389 16.736C66.5455 17.536 65.7242 18.4373 64.7749 19.44C65.0522 19.4187 65.3349 19.4027 65.6229 19.392C65.9215 19.3707 66.2095 19.36 66.4869 19.36H69.9749V20H63.7029ZM77.4743 20.192C76.7276 20.192 76.2209 19.9787 75.9543 19.552C75.6876 19.1147 75.5543 18.5547 75.5543 17.872V12.928H74.3543V12.384L75.5703 12.32L75.6663 10.096H76.2743V12.32H78.4983V12.928H76.2743V17.936C76.2743 18.4267 76.3596 18.8213 76.5303 19.12C76.7009 19.4187 77.0476 19.568 77.5703 19.568C77.7196 19.568 77.8796 19.5467 78.0503 19.504C78.2316 19.4507 78.3916 19.392 78.5303 19.328L78.7223 19.904C78.4983 19.9787 78.2689 20.0427 78.0343 20.096C77.8103 20.16 77.6236 20.192 77.4743 20.192ZM80.3626 20V12.32H81.0666V20H80.3626ZM80.7306 10.464C80.56 10.464 80.416 10.4053 80.2986 10.288C80.1813 10.1707 80.1226 10.0107 80.1226 9.808C80.1226 9.62667 80.1813 9.47733 80.2986 9.36C80.416 9.24267 80.56 9.184 80.7306 9.184C80.912 9.184 81.056 9.24267 81.1626 9.36C81.28 9.47733 81.3386 9.62667 81.3386 9.808C81.3386 10.0107 81.28 10.1707 81.1626 10.288C81.056 10.4053 80.912 10.464 80.7306 10.464ZM86.1149 20.192C85.3682 20.192 84.8615 19.9787 84.5949 19.552C84.3282 19.1147 84.1949 18.5547 84.1949 17.872V12.928H82.9949V12.384L84.2109 12.32L84.3069 10.096H84.9149V12.32H87.1389V12.928H84.9149V17.936C84.9149 18.4267 85.0002 18.8213 85.1709 19.12C85.3415 19.4187 85.6882 19.568 86.2109 19.568C86.3602 19.568 86.5202 19.5467 86.6909 19.504C86.8722 19.4507 87.0322 19.392 87.1709 19.328L87.3629 19.904C87.1389 19.9787 86.9095 20.0427 86.6749 20.096C86.4509 20.16 86.2642 20.192 86.1149 20.192ZM89.9473 20.192C89.3179 20.192 89.0033 19.7867 89.0033 18.976V8.496H89.7073V19.072C89.7073 19.4027 89.8193 19.568 90.0433 19.568C90.0753 19.568 90.1126 19.568 90.1553 19.568C90.1979 19.5573 90.2566 19.5467 90.3313 19.536L90.4593 20.112C90.3846 20.1333 90.3099 20.1493 90.2353 20.16C90.1606 20.1813 90.0646 20.192 89.9473 20.192ZM95.7121 20.192C95.0615 20.192 94.4641 20.032 93.9201 19.712C93.3868 19.392 92.9601 18.9333 92.6401 18.336C92.3201 17.728 92.1601 17.008 92.1601 16.176C92.1601 15.3333 92.3201 14.6133 92.6401 14.016C92.9601 13.408 93.3761 12.944 93.8881 12.624C94.4001 12.2933 94.9388 12.128 95.5041 12.128C96.4215 12.128 97.1415 12.4373 97.6641 13.056C98.1868 13.6747 98.4481 14.5493 98.4481 15.68C98.4481 15.776 98.4428 15.872 98.4321 15.968C98.4321 16.064 98.4215 16.16 98.4001 16.256H92.8801C92.8908 16.896 93.0135 17.4667 93.2481 17.968C93.4935 18.4693 93.8295 18.864 94.2561 19.152C94.6935 19.44 95.2001 19.584 95.7761 19.584C96.1921 19.584 96.5655 19.52 96.8961 19.392C97.2375 19.264 97.5521 19.0987 97.8401 18.896L98.1281 19.44C97.8295 19.6213 97.4935 19.792 97.1201 19.952C96.7468 20.112 96.2775 20.192 95.7121 20.192ZM92.8801 15.68H97.7761C97.7761 14.6987 97.5735 13.9627 97.1681 13.472C96.7628 12.9813 96.2135 12.736 95.5201 12.736C95.0828 12.736 94.6721 12.8533 94.2881 13.088C93.9148 13.3227 93.6001 13.6587 93.3441 14.096C93.0881 14.5333 92.9335 15.0613 92.8801 15.68ZM100.055 22.48L99.8305 22C100.204 21.808 100.503 21.5413 100.727 21.2C100.951 20.8693 101.062 20.4907 101.062 20.064C101.031 20.0747 100.999 20.08 100.967 20.08C100.935 20.08 100.903 20.08 100.871 20.08C100.689 20.08 100.529 20.0213 100.391 19.904C100.263 19.7867 100.199 19.6213 100.199 19.408C100.199 19.1947 100.268 19.0293 100.407 18.912C100.556 18.7947 100.716 18.736 100.887 18.736C101.132 18.736 101.329 18.8373 101.479 19.04C101.628 19.2427 101.703 19.52 101.703 19.872C101.703 20.4587 101.548 20.976 101.239 21.424C100.929 21.872 100.535 22.224 100.055 22.48ZM109.094 20.192C108.528 20.192 108 20.0907 107.51 19.888C107.03 19.6747 106.619 19.424 106.278 19.136L106.694 18.608C107.024 18.8747 107.376 19.104 107.75 19.296C108.123 19.488 108.587 19.584 109.142 19.584C109.739 19.584 110.192 19.4347 110.502 19.136C110.811 18.8267 110.966 18.4693 110.966 18.064C110.966 17.744 110.87 17.4773 110.678 17.264C110.486 17.0507 110.246 16.8747 109.958 16.736C109.68 16.5973 109.392 16.4747 109.094 16.368C108.71 16.2293 108.331 16.0747 107.958 15.904C107.595 15.7333 107.296 15.5147 107.062 15.248C106.827 14.9707 106.71 14.6133 106.71 14.176C106.71 13.6107 106.918 13.1307 107.334 12.736C107.76 12.3307 108.374 12.128 109.174 12.128C109.59 12.128 109.99 12.2027 110.374 12.352C110.768 12.5013 111.104 12.6933 111.382 12.928L110.998 13.424C110.731 13.232 110.454 13.072 110.166 12.944C109.878 12.8053 109.542 12.736 109.158 12.736C108.56 12.736 108.118 12.88 107.83 13.168C107.552 13.456 107.414 13.776 107.414 14.128C107.414 14.416 107.494 14.656 107.654 14.848C107.824 15.04 108.043 15.2 108.31 15.328C108.587 15.4453 108.875 15.5627 109.174 15.68C109.579 15.8293 109.974 15.9893 110.358 16.16C110.742 16.3307 111.056 16.56 111.302 16.848C111.558 17.136 111.686 17.5307 111.686 18.032C111.686 18.416 111.584 18.7733 111.382 19.104C111.179 19.424 110.886 19.6853 110.502 19.888C110.118 20.0907 109.648 20.192 109.094 20.192ZM113.722 20V12.32H114.33L114.394 13.504H114.442C114.783 13.1093 115.162 12.784 115.578 12.528C116.005 12.2613 116.431 12.128 116.858 12.128C117.477 12.128 117.951 12.272 118.282 12.56C118.613 12.848 118.847 13.2267 118.986 13.696C119.423 13.216 119.855 12.8373 120.282 12.56C120.719 12.272 121.157 12.128 121.594 12.128C123.13 12.128 123.898 13.1093 123.898 15.072V20H123.178V15.168C123.178 13.568 122.607 12.768 121.466 12.768C120.783 12.768 120.015 13.248 119.162 14.208V20H118.458V15.168C118.458 14.3467 118.319 13.744 118.042 13.36C117.765 12.9653 117.327 12.768 116.73 12.768C116.047 12.768 115.279 13.248 114.426 14.208V20H113.722ZM128.386 20.192C127.778 20.192 127.256 20.0213 126.818 19.68C126.381 19.3387 126.162 18.8053 126.162 18.08C126.162 17.2267 126.562 16.5813 127.362 16.144C128.162 15.696 129.416 15.376 131.122 15.184C131.133 14.7893 131.09 14.4107 130.994 14.048C130.898 13.6747 130.717 13.3653 130.45 13.12C130.194 12.8747 129.81 12.752 129.298 12.752C128.786 12.752 128.317 12.8533 127.89 13.056C127.464 13.2587 127.117 13.456 126.85 13.648L126.53 13.12C126.712 12.992 126.946 12.8533 127.234 12.704C127.522 12.544 127.848 12.4107 128.21 12.304C128.584 12.1867 128.978 12.128 129.394 12.128C130.002 12.128 130.482 12.2613 130.834 12.528C131.186 12.7947 131.437 13.152 131.586 13.6C131.746 14.0373 131.826 14.5333 131.826 15.088V20H131.218L131.154 19.008H131.106C130.712 19.3173 130.285 19.5947 129.826 19.84C129.368 20.0747 128.888 20.192 128.386 20.192ZM128.514 19.584C128.952 19.584 129.373 19.4773 129.778 19.264C130.194 19.0507 130.642 18.7413 131.122 18.336V15.728C130.066 15.856 129.229 16.0213 128.61 16.224C127.992 16.4267 127.549 16.6827 127.282 16.992C127.016 17.2907 126.882 17.6427 126.882 18.048C126.882 18.6027 127.042 18.9973 127.362 19.232C127.693 19.4667 128.077 19.584 128.514 19.584ZM135.51 20.192C134.88 20.192 134.566 19.7867 134.566 18.976V8.496H135.27V19.072C135.27 19.4027 135.382 19.568 135.606 19.568C135.638 19.568 135.675 19.568 135.718 19.568C135.76 19.5573 135.819 19.5467 135.894 19.536L136.022 20.112C135.947 20.1333 135.872 20.1493 135.798 20.16C135.723 20.1813 135.627 20.192 135.51 20.192ZM139.307 20.192C138.677 20.192 138.363 19.7867 138.363 18.976V8.496H139.067V19.072C139.067 19.4027 139.179 19.568 139.403 19.568C139.435 19.568 139.472 19.568 139.515 19.568C139.557 19.5573 139.616 19.5467 139.691 19.536L139.819 20.112C139.744 20.1333 139.669 20.1493 139.595 20.16C139.52 20.1813 139.424 20.192 139.307 20.192ZM147.043 20.192C146.435 20.192 145.912 20.0213 145.475 19.68C145.037 19.3387 144.819 18.8053 144.819 18.08C144.819 17.2267 145.219 16.5813 146.019 16.144C146.819 15.696 148.072 15.376 149.779 15.184C149.789 14.7893 149.747 14.4107 149.651 14.048C149.555 13.6747 149.373 13.3653 149.107 13.12C148.851 12.8747 148.467 12.752 147.955 12.752C147.443 12.752 146.973 12.8533 146.547 13.056C146.12 13.2587 145.773 13.456 145.507 13.648L145.187 13.12C145.368 12.992 145.603 12.8533 145.891 12.704C146.179 12.544 146.504 12.4107 146.867 12.304C147.24 12.1867 147.635 12.128 148.051 12.128C148.659 12.128 149.139 12.2613 149.491 12.528C149.843 12.7947 150.093 13.152 150.243 13.6C150.403 14.0373 150.483 14.5333 150.483 15.088V20H149.875L149.811 19.008H149.763C149.368 19.3173 148.941 19.5947 148.483 19.84C148.024 20.0747 147.544 20.192 147.043 20.192ZM147.171 19.584C147.608 19.584 148.029 19.4773 148.435 19.264C148.851 19.0507 149.299 18.7413 149.779 18.336V15.728C148.723 15.856 147.885 16.0213 147.267 16.224C146.648 16.4267 146.205 16.6827 145.939 16.992C145.672 17.2907 145.539 17.6427 145.539 18.048C145.539 18.6027 145.699 18.9973 146.019 19.232C146.349 19.4667 146.733 19.584 147.171 19.584ZM153.222 20V12.32H153.83L153.894 13.504H153.942C154.337 13.1093 154.742 12.784 155.158 12.528C155.585 12.2613 156.059 12.128 156.582 12.128C157.371 12.128 157.953 12.3733 158.326 12.864C158.71 13.344 158.902 14.08 158.902 15.072V20H158.198V15.168C158.198 14.3467 158.059 13.744 157.782 13.36C157.515 12.9653 157.067 12.768 156.438 12.768C155.979 12.768 155.563 12.8907 155.19 13.136C154.817 13.3707 154.395 13.728 153.926 14.208V20H153.222ZM164.282 20.192C163.311 20.192 162.538 19.8453 161.962 19.152C161.386 18.4587 161.098 17.4667 161.098 16.176C161.098 15.344 161.252 14.6293 161.562 14.032C161.882 13.424 162.298 12.9547 162.81 12.624C163.332 12.2933 163.898 12.128 164.506 12.128C164.975 12.128 165.38 12.2133 165.722 12.384C166.074 12.544 166.442 12.7733 166.826 13.072L166.794 11.664V8.496H167.498V20H166.89L166.826 19.008H166.778C166.468 19.3173 166.1 19.5947 165.674 19.84C165.258 20.0747 164.794 20.192 164.282 20.192ZM164.378 19.568C164.804 19.568 165.21 19.4613 165.594 19.248C165.988 19.024 166.388 18.7093 166.794 18.304V13.744C166.388 13.3813 166.004 13.1253 165.642 12.976C165.29 12.8267 164.927 12.752 164.554 12.752C164.042 12.752 163.583 12.9067 163.178 13.216C162.772 13.5147 162.447 13.92 162.202 14.432C161.967 14.944 161.85 15.5253 161.85 16.176C161.85 17.1893 162.068 18.0107 162.506 18.64C162.943 19.2587 163.567 19.568 164.378 19.568ZM174.588 20.192C173.959 20.192 173.644 19.7867 173.644 18.976V8.496H174.348V19.072C174.348 19.4027 174.46 19.568 174.684 19.568C174.716 19.568 174.753 19.568 174.796 19.568C174.839 19.5573 174.897 19.5467 174.972 19.536L175.1 20.112C175.025 20.1333 174.951 20.1493 174.876 20.16C174.801 20.1813 174.705 20.192 174.588 20.192ZM177.441 20V12.32H178.145V20H177.441ZM177.809 10.464C177.638 10.464 177.494 10.4053 177.377 10.288C177.259 10.1707 177.201 10.0107 177.201 9.808C177.201 9.62667 177.259 9.47733 177.377 9.36C177.494 9.24267 177.638 9.184 177.809 9.184C177.99 9.184 178.134 9.24267 178.241 9.36C178.358 9.47733 178.417 9.62667 178.417 9.808C178.417 10.0107 178.358 10.1707 178.241 10.288C178.134 10.4053 177.99 10.464 177.809 10.464ZM183.609 23.696C182.638 23.696 181.87 23.504 181.305 23.12C180.74 22.736 180.457 22.2187 180.457 21.568C180.457 21.2267 180.558 20.896 180.761 20.576C180.964 20.256 181.241 19.968 181.593 19.712V19.648C181.401 19.5307 181.241 19.3707 181.113 19.168C180.985 18.9653 180.921 18.7147 180.921 18.416C180.921 18.0747 181.017 17.7867 181.209 17.552C181.401 17.3067 181.582 17.1253 181.753 17.008V16.944C181.518 16.7307 181.3 16.4427 181.097 16.08C180.894 15.7067 180.793 15.2907 180.793 14.832C180.793 14.2987 180.91 13.8293 181.145 13.424C181.39 13.0187 181.716 12.704 182.121 12.48C182.537 12.2453 182.996 12.128 183.497 12.128C183.71 12.128 183.902 12.1493 184.073 12.192C184.244 12.224 184.388 12.2667 184.505 12.32H187.113V12.912H185.321C185.566 13.1253 185.769 13.4027 185.929 13.744C186.089 14.0747 186.169 14.4427 186.169 14.848C186.169 15.3707 186.052 15.8347 185.817 16.24C185.582 16.6453 185.262 16.9653 184.857 17.2C184.452 17.4347 183.998 17.552 183.497 17.552C183.284 17.552 183.06 17.5253 182.825 17.472C182.601 17.4187 182.398 17.3387 182.217 17.232C182.046 17.3707 181.897 17.5253 181.769 17.696C181.652 17.8667 181.593 18.08 181.593 18.336C181.593 18.6133 181.694 18.8533 181.897 19.056C182.1 19.248 182.489 19.344 183.065 19.344H184.713C185.577 19.344 186.212 19.488 186.617 19.776C187.033 20.0533 187.241 20.496 187.241 21.104C187.241 21.5413 187.092 21.9573 186.793 22.352C186.494 22.7573 186.073 23.0827 185.529 23.328C184.985 23.5733 184.345 23.696 183.609 23.696ZM183.497 16.992C183.849 16.992 184.174 16.9013 184.473 16.72C184.782 16.5387 185.028 16.288 185.209 15.968C185.39 15.6373 185.481 15.2587 185.481 14.832C185.481 14.1813 185.284 13.664 184.889 13.28C184.505 12.896 184.041 12.704 183.497 12.704C182.953 12.704 182.484 12.896 182.089 13.28C181.694 13.6533 181.497 14.1707 181.497 14.832C181.497 15.2587 181.588 15.6373 181.769 15.968C181.961 16.288 182.206 16.5387 182.505 16.72C182.814 16.9013 183.145 16.992 183.497 16.992ZM183.689 23.12C184.265 23.12 184.761 23.024 185.177 22.832C185.604 22.64 185.934 22.3947 186.169 22.096C186.404 21.808 186.521 21.504 186.521 21.184C186.521 20.7573 186.366 20.4533 186.057 20.272C185.758 20.1013 185.321 20.016 184.745 20.016H183.097C183.022 20.016 182.894 20.0053 182.713 19.984C182.532 19.9627 182.34 19.9307 182.137 19.888C181.785 20.1227 181.529 20.3787 181.369 20.656C181.209 20.944 181.129 21.2267 181.129 21.504C181.129 21.984 181.353 22.3733 181.801 22.672C182.249 22.9707 182.878 23.12 183.689 23.12ZM188.894 20V8.496H189.598V13.52C190.003 13.1147 190.414 12.784 190.83 12.528C191.257 12.2613 191.731 12.128 192.254 12.128C193.043 12.128 193.625 12.3733 193.998 12.864C194.382 13.344 194.574 14.08 194.574 15.072V20H193.87V15.168C193.87 14.3467 193.731 13.744 193.454 13.36C193.187 12.9653 192.739 12.768 192.11 12.768C191.651 12.768 191.235 12.8907 190.862 13.136C190.489 13.3707 190.067 13.728 189.598 14.208V20H188.894ZM199.443 20.192C198.696 20.192 198.19 19.9787 197.923 19.552C197.656 19.1147 197.523 18.5547 197.523 17.872V12.928H196.323V12.384L197.539 12.32L197.635 10.096H198.243V12.32H200.467V12.928H198.243V17.936C198.243 18.4267 198.328 18.8213 198.499 19.12C198.67 19.4187 199.016 19.568 199.539 19.568C199.688 19.568 199.848 19.5467 200.019 19.504C200.2 19.4507 200.36 19.392 200.499 19.328L200.691 19.904C200.467 19.9787 200.238 20.0427 200.003 20.096C199.779 20.16 199.592 20.192 199.443 20.192Z" fill="#222120"/>
<g clip-path="url(#clip0_948_14898)">
<path d="M803.858 15L813.318 5.51802C813.56 5.27602 813.56 4.90202 813.318 4.66002C813.076 4.41802 812.702 4.41802 812.46 4.66002L803 14.142L793.518 4.68202C793.298 4.44002 792.902 4.44002 792.682 4.68202C792.44 4.90202 792.44 5.29802 792.682 5.51802L802.142 15L792.682 24.482C792.44 24.724 792.44 25.098 792.682 25.34C792.792 25.45 792.946 25.516 793.1 25.516C793.254 25.516 793.408 25.45 793.518 25.34L803 15.858L812.482 25.34C812.592 25.45 812.746 25.516 812.9 25.516C813.054 25.516 813.208 25.45 813.318 25.34C813.56 25.098 813.56 24.724 813.318 24.482L803.858 15Z" fill="#CC3232"/>
</g>
<defs>
<clipPath id="clip0_948_14898">
<rect width="22" height="22" fill="white" transform="translate(792 4)"/>
</clipPath>
</defs>
</svg>
