<svg width="818" height="36" viewBox="0 0 818 36" fill="none" xmlns="http://www.w3.org/2000/svg">
<rect width="818" height="30" transform="translate(0 4)" fill="white"/>
<rect x="0.5" y="8.5" width="19" height="19" stroke="#222120"/>
<g clip-path="url(#clip0_948_14886)">
<path d="M10.7801 18.0001L19.3801 9.38006C19.6001 9.16006 19.6001 8.82006 19.3801 8.60006C19.1601 8.38006 18.8201 8.38006 18.6001 8.60006L10.0001 17.2201L1.38008 8.62006C1.18008 8.40006 0.820078 8.40006 0.620078 8.62006C0.400078 8.82006 0.400078 9.18006 0.620078 9.38006L9.22008 18.0001L0.620078 26.6201C0.400078 26.8401 0.400078 27.1801 0.620078 27.4001C0.720078 27.5001 0.860078 27.5601 1.00008 27.5601C1.14008 27.5601 1.28008 27.5001 1.38008 27.4001L10.0001 18.7801L18.6201 27.4001C18.7201 27.5001 18.8601 27.5601 19.0001 27.5601C19.1401 27.5601 19.2801 27.5001 19.3801 27.4001C19.6001 27.1801 19.6001 26.8401 19.3801 26.6201L10.7801 18.0001Z" fill="#222120"/>
</g>
<rect x="0.5" y="8.5" width="19" height="19" stroke="#222120"/>
<path d="M35.16 27V13.656H30.624V11.304H42.48V13.656H37.944V27H35.16ZM44.8536 27V10.056H47.6136V14.424L47.5176 16.704C48.0136 16.24 48.5656 15.832 49.1736 15.48C49.7816 15.112 50.4856 14.928 51.2856 14.928C52.5496 14.928 53.4696 15.336 54.0456 16.152C54.6216 16.968 54.9096 18.12 54.9096 19.608V27H52.1496V19.968C52.1496 18.992 52.0056 18.304 51.7176 17.904C51.4296 17.504 50.9576 17.304 50.3016 17.304C49.7896 17.304 49.3336 17.432 48.9336 17.688C48.5496 17.928 48.1096 18.288 47.6136 18.768V27H44.8536ZM58.2364 27V15.216H60.9964V27H58.2364ZM59.6284 13.152C59.1324 13.152 58.7324 13.008 58.4284 12.72C58.1244 12.432 57.9724 12.048 57.9724 11.568C57.9724 11.104 58.1244 10.728 58.4284 10.44C58.7324 10.152 59.1324 10.008 59.6284 10.008C60.1244 10.008 60.5244 10.152 60.8284 10.44C61.1324 10.728 61.2844 11.104 61.2844 11.568C61.2844 12.048 61.1324 12.432 60.8284 12.72C60.5244 13.008 60.1244 13.152 59.6284 13.152ZM67.8056 27.288C67.0056 27.288 66.2056 27.136 65.4056 26.832C64.6056 26.512 63.9176 26.12 63.3416 25.656L64.6376 23.88C65.1656 24.28 65.6936 24.6 66.2216 24.84C66.7496 25.08 67.3096 25.2 67.9016 25.2C68.5416 25.2 69.0136 25.064 69.3176 24.792C69.6216 24.52 69.7736 24.184 69.7736 23.784C69.7736 23.448 69.6456 23.176 69.3896 22.968C69.1496 22.744 68.8376 22.552 68.4536 22.392C68.0696 22.216 67.6696 22.048 67.2536 21.888C66.7416 21.696 66.2296 21.464 65.7176 21.192C65.2216 20.904 64.8136 20.544 64.4936 20.112C64.1736 19.664 64.0136 19.112 64.0136 18.456C64.0136 17.416 64.3976 16.568 65.1656 15.912C65.9336 15.256 66.9736 14.928 68.2856 14.928C69.1176 14.928 69.8616 15.072 70.5176 15.36C71.1736 15.648 71.7416 15.976 72.2216 16.344L70.9496 18.024C70.5336 17.72 70.1096 17.48 69.6776 17.304C69.2616 17.112 68.8216 17.016 68.3576 17.016C67.7656 17.016 67.3256 17.144 67.0376 17.4C66.7496 17.64 66.6056 17.944 66.6056 18.312C66.6056 18.776 66.8456 19.128 67.3256 19.368C67.8056 19.608 68.3656 19.84 69.0056 20.064C69.5496 20.256 70.0776 20.496 70.5896 20.784C71.1016 21.056 71.5256 21.416 71.8616 21.864C72.2136 22.312 72.3896 22.904 72.3896 23.64C72.3896 24.648 71.9976 25.512 71.2136 26.232C70.4296 26.936 69.2936 27.288 67.8056 27.288ZM79.6583 27V15.216H82.4183V27H79.6583ZM81.0503 13.152C80.5543 13.152 80.1543 13.008 79.8503 12.72C79.5463 12.432 79.3943 12.048 79.3943 11.568C79.3943 11.104 79.5463 10.728 79.8503 10.44C80.1543 10.152 80.5543 10.008 81.0503 10.008C81.5463 10.008 81.9463 10.152 82.2503 10.44C82.5543 10.728 82.7063 11.104 82.7063 11.568C82.7063 12.048 82.5543 12.432 82.2503 12.72C81.9463 13.008 81.5463 13.152 81.0503 13.152ZM89.2275 27.288C88.4275 27.288 87.6275 27.136 86.8275 26.832C86.0275 26.512 85.3395 26.12 84.7635 25.656L86.0595 23.88C86.5875 24.28 87.1155 24.6 87.6435 24.84C88.1715 25.08 88.7315 25.2 89.3235 25.2C89.9635 25.2 90.4355 25.064 90.7395 24.792C91.0435 24.52 91.1955 24.184 91.1955 23.784C91.1955 23.448 91.0675 23.176 90.8115 22.968C90.5715 22.744 90.2595 22.552 89.8755 22.392C89.4915 22.216 89.0915 22.048 88.6755 21.888C88.1635 21.696 87.6515 21.464 87.1395 21.192C86.6435 20.904 86.2355 20.544 85.9155 20.112C85.5955 19.664 85.4355 19.112 85.4355 18.456C85.4355 17.416 85.8195 16.568 86.5875 15.912C87.3555 15.256 88.3955 14.928 89.7075 14.928C90.5395 14.928 91.2835 15.072 91.9395 15.36C92.5955 15.648 93.1635 15.976 93.6435 16.344L92.3715 18.024C91.9555 17.72 91.5315 17.48 91.0995 17.304C90.6835 17.112 90.2435 17.016 89.7795 17.016C89.1875 17.016 88.7475 17.144 88.4595 17.4C88.1715 17.64 88.0275 17.944 88.0275 18.312C88.0275 18.776 88.2675 19.128 88.7475 19.368C89.2275 19.608 89.7875 19.84 90.4275 20.064C90.9715 20.256 91.4995 20.496 92.0115 20.784C92.5235 21.056 92.9475 21.416 93.2835 21.864C93.6355 22.312 93.8115 22.904 93.8115 23.64C93.8115 24.648 93.4195 25.512 92.6355 26.232C91.8515 26.936 90.7155 27.288 89.2275 27.288ZM103.936 27.288C102.912 27.288 102.072 26.968 101.416 26.328C100.776 25.688 100.456 24.856 100.456 23.832C100.456 22.568 101.008 21.592 102.112 20.904C103.216 20.2 104.976 19.72 107.392 19.464C107.376 18.84 107.208 18.304 106.888 17.856C106.584 17.392 106.032 17.16 105.232 17.16C104.656 17.16 104.088 17.272 103.528 17.496C102.984 17.72 102.448 17.992 101.92 18.312L100.912 16.464C101.568 16.048 102.304 15.688 103.12 15.384C103.952 15.08 104.832 14.928 105.76 14.928C107.232 14.928 108.328 15.368 109.048 16.248C109.784 17.112 110.152 18.368 110.152 20.016V27H107.872L107.68 25.704H107.584C107.056 26.152 106.488 26.528 105.88 26.832C105.288 27.136 104.64 27.288 103.936 27.288ZM104.824 25.128C105.304 25.128 105.736 25.016 106.12 24.792C106.52 24.552 106.944 24.232 107.392 23.832V21.192C105.792 21.4 104.68 21.712 104.056 22.128C103.432 22.528 103.12 23.024 103.12 23.616C103.12 24.144 103.28 24.528 103.6 24.768C103.92 25.008 104.328 25.128 104.824 25.128ZM118.26 27V10.056H121.02V14.424L120.924 16.704C121.42 16.24 121.972 15.832 122.58 15.48C123.188 15.112 123.892 14.928 124.692 14.928C125.956 14.928 126.876 15.336 127.452 16.152C128.028 16.968 128.316 18.12 128.316 19.608V27H125.556V19.968C125.556 18.992 125.412 18.304 125.124 17.904C124.836 17.504 124.364 17.304 123.708 17.304C123.196 17.304 122.74 17.432 122.34 17.688C121.956 17.928 121.516 18.288 121.02 18.768V27H118.26ZM130.803 27V25.392C132.227 24.016 133.451 22.792 134.475 21.72C135.515 20.632 136.315 19.648 136.875 18.768C137.435 17.872 137.715 17.04 137.715 16.272C137.715 15.472 137.499 14.832 137.067 14.352C136.635 13.872 136.011 13.632 135.195 13.632C134.603 13.632 134.059 13.8 133.563 14.136C133.083 14.472 132.635 14.872 132.219 15.336L130.683 13.8C131.387 13.048 132.115 12.472 132.867 12.072C133.619 11.656 134.515 11.448 135.555 11.448C137.027 11.448 138.195 11.872 139.059 12.72C139.939 13.568 140.379 14.704 140.379 16.128C140.379 17.024 140.123 17.944 139.611 18.888C139.115 19.816 138.443 20.768 137.595 21.744C136.763 22.72 135.843 23.744 134.835 24.816C135.235 24.784 135.667 24.752 136.131 24.72C136.595 24.672 137.011 24.648 137.379 24.648H141.123V27H130.803ZM152.904 27.288C151.544 27.288 150.576 26.896 150 26.112C149.44 25.312 149.16 24.28 149.16 23.016V17.4H147.48V15.336L149.304 15.216L149.64 12H151.944V15.216H154.944V17.4H151.944V23.016C151.944 24.392 152.496 25.08 153.6 25.08C153.808 25.08 154.024 25.056 154.248 25.008C154.472 24.944 154.664 24.88 154.824 24.816L155.304 26.856C154.984 26.968 154.616 27.064 154.2 27.144C153.8 27.24 153.368 27.288 152.904 27.288ZM157.424 27V15.216H160.184V27H157.424ZM158.816 13.152C158.32 13.152 157.92 13.008 157.616 12.72C157.312 12.432 157.16 12.048 157.16 11.568C157.16 11.104 157.312 10.728 157.616 10.44C157.92 10.152 158.32 10.008 158.816 10.008C159.312 10.008 159.712 10.152 160.016 10.44C160.32 10.728 160.472 11.104 160.472 11.568C160.472 12.048 160.32 12.432 160.016 12.72C159.712 13.008 159.312 13.152 158.816 13.152ZM167.857 27.288C166.497 27.288 165.529 26.896 164.953 26.112C164.393 25.312 164.113 24.28 164.113 23.016V17.4H162.433V15.336L164.257 15.216L164.593 12H166.897V15.216H169.897V17.4H166.897V23.016C166.897 24.392 167.449 25.08 168.553 25.08C168.761 25.08 168.977 25.056 169.201 25.008C169.425 24.944 169.617 24.88 169.777 24.816L170.257 26.856C169.937 26.968 169.569 27.064 169.153 27.144C168.753 27.24 168.321 27.288 167.857 27.288ZM175.065 27.288C174.089 27.288 173.393 26.992 172.977 26.4C172.577 25.808 172.377 25 172.377 23.976V10.056H175.137V24.12C175.137 24.456 175.201 24.696 175.329 24.84C175.457 24.968 175.593 25.032 175.737 25.032C175.801 25.032 175.857 25.032 175.905 25.032C175.969 25.016 176.057 25 176.169 24.984L176.529 27.048C176.369 27.112 176.161 27.168 175.905 27.216C175.665 27.264 175.385 27.288 175.065 27.288ZM183.933 27.288C182.845 27.288 181.861 27.048 180.981 26.568C180.101 26.072 179.405 25.368 178.893 24.456C178.381 23.528 178.125 22.416 178.125 21.12C178.125 19.84 178.381 18.736 178.893 17.808C179.421 16.88 180.101 16.168 180.933 15.672C181.765 15.176 182.637 14.928 183.549 14.928C184.621 14.928 185.517 15.168 186.237 15.648C186.957 16.112 187.501 16.768 187.869 17.616C188.237 18.448 188.421 19.416 188.421 20.52C188.421 21.096 188.381 21.544 188.301 21.864H180.813C180.941 22.904 181.317 23.712 181.941 24.288C182.565 24.864 183.349 25.152 184.293 25.152C184.805 25.152 185.277 25.08 185.709 24.936C186.157 24.776 186.597 24.56 187.029 24.288L187.965 26.016C187.405 26.384 186.781 26.688 186.093 26.928C185.405 27.168 184.685 27.288 183.933 27.288ZM180.789 19.992H186.021C186.021 19.08 185.821 18.368 185.421 17.856C185.021 17.328 184.421 17.064 183.621 17.064C182.933 17.064 182.317 17.32 181.773 17.832C181.245 18.328 180.917 19.048 180.789 19.992ZM191.033 31.368L190.433 29.856C191.217 29.552 191.817 29.136 192.233 28.608C192.665 28.096 192.873 27.544 192.857 26.952C192.825 26.952 192.785 26.952 192.737 26.952C192.705 26.952 192.673 26.952 192.641 26.952C192.177 26.952 191.761 26.808 191.393 26.52C191.041 26.216 190.865 25.792 190.865 25.248C190.865 24.736 191.049 24.328 191.417 24.024C191.785 23.704 192.217 23.544 192.713 23.544C193.369 23.544 193.873 23.792 194.225 24.288C194.593 24.784 194.777 25.48 194.777 26.376C194.777 27.544 194.449 28.56 193.793 29.424C193.137 30.304 192.217 30.952 191.033 31.368ZM204.415 27L201.295 15.216H204.079L205.495 21.336C205.623 21.896 205.727 22.456 205.807 23.016C205.903 23.576 206.007 24.144 206.119 24.72H206.215C206.327 24.144 206.439 23.576 206.551 23.016C206.679 22.44 206.815 21.88 206.959 21.336L208.495 15.216H211.015L212.575 21.336C212.719 21.896 212.855 22.456 212.983 23.016C213.111 23.576 213.239 24.144 213.367 24.72H213.463C213.575 24.144 213.679 23.576 213.775 23.016C213.871 22.456 213.975 21.896 214.087 21.336L215.503 15.216H218.095L215.095 27H211.807L210.439 21.504C210.311 20.944 210.191 20.392 210.079 19.848C209.967 19.288 209.847 18.696 209.719 18.072H209.623C209.511 18.696 209.399 19.288 209.287 19.848C209.175 20.408 209.055 20.968 208.927 21.528L207.583 27H204.415ZM220.424 27V15.216H223.184V27H220.424ZM221.816 13.152C221.32 13.152 220.92 13.008 220.616 12.72C220.312 12.432 220.16 12.048 220.16 11.568C220.16 11.104 220.312 10.728 220.616 10.44C220.92 10.152 221.32 10.008 221.816 10.008C222.312 10.008 222.712 10.152 223.016 10.44C223.32 10.728 223.472 11.104 223.472 11.568C223.472 12.048 223.32 12.432 223.016 12.72C222.712 13.008 222.312 13.152 221.816 13.152ZM230.857 27.288C229.497 27.288 228.529 26.896 227.953 26.112C227.393 25.312 227.113 24.28 227.113 23.016V17.4H225.433V15.336L227.257 15.216L227.593 12H229.897V15.216H232.897V17.4H229.897V23.016C229.897 24.392 230.449 25.08 231.553 25.08C231.761 25.08 231.977 25.056 232.201 25.008C232.425 24.944 232.617 24.88 232.777 24.816L233.257 26.856C232.937 26.968 232.569 27.064 232.153 27.144C231.753 27.24 231.321 27.288 230.857 27.288ZM235.377 27V10.056H238.137V14.424L238.041 16.704C238.537 16.24 239.089 15.832 239.697 15.48C240.305 15.112 241.009 14.928 241.809 14.928C243.073 14.928 243.993 15.336 244.569 16.152C245.145 16.968 245.433 18.12 245.433 19.608V27H242.673V19.968C242.673 18.992 242.529 18.304 242.241 17.904C241.953 17.504 241.481 17.304 240.825 17.304C240.313 17.304 239.857 17.432 239.457 17.688C239.073 17.928 238.633 18.288 238.137 18.768V27H235.377ZM256.421 27.288C255.397 27.288 254.557 26.968 253.901 26.328C253.261 25.688 252.941 24.856 252.941 23.832C252.941 22.568 253.493 21.592 254.597 20.904C255.701 20.2 257.461 19.72 259.877 19.464C259.861 18.84 259.693 18.304 259.373 17.856C259.069 17.392 258.517 17.16 257.717 17.16C257.141 17.16 256.573 17.272 256.013 17.496C255.469 17.72 254.933 17.992 254.405 18.312L253.396 16.464C254.053 16.048 254.789 15.688 255.605 15.384C256.437 15.08 257.317 14.928 258.245 14.928C259.717 14.928 260.813 15.368 261.533 16.248C262.269 17.112 262.637 18.368 262.637 20.016V27H260.357L260.165 25.704H260.069C259.541 26.152 258.973 26.528 258.365 26.832C257.773 27.136 257.125 27.288 256.421 27.288ZM257.309 25.128C257.789 25.128 258.221 25.016 258.605 24.792C259.005 24.552 259.429 24.232 259.877 23.832V21.192C258.277 21.4 257.165 21.712 256.541 22.128C255.917 22.528 255.605 23.024 255.605 23.616C255.605 24.144 255.765 24.528 256.085 24.768C256.405 25.008 256.813 25.128 257.309 25.128ZM265.94 27V15.216H268.22L268.412 16.8H268.508C269.036 16.288 269.612 15.848 270.236 15.48C270.86 15.112 271.572 14.928 272.372 14.928C273.636 14.928 274.556 15.336 275.132 16.152C275.708 16.968 275.996 18.12 275.996 19.608V27H273.236V19.968C273.236 18.992 273.092 18.304 272.804 17.904C272.516 17.504 272.044 17.304 271.388 17.304C270.876 17.304 270.42 17.432 270.02 17.688C269.636 17.928 269.196 18.288 268.7 18.768V27H265.94ZM284.174 27V15.216H286.934V27H284.174ZM285.566 13.152C285.07 13.152 284.67 13.008 284.366 12.72C284.062 12.432 283.91 12.048 283.91 11.568C283.91 11.104 284.062 10.728 284.366 10.44C284.67 10.152 285.07 10.008 285.566 10.008C286.062 10.008 286.462 10.152 286.766 10.44C287.07 10.728 287.222 11.104 287.222 11.568C287.222 12.048 287.07 12.432 286.766 12.72C286.462 13.008 286.062 13.152 285.566 13.152ZM295.375 27.288C294.303 27.288 293.335 27.048 292.471 26.568C291.623 26.072 290.943 25.368 290.431 24.456C289.935 23.528 289.687 22.416 289.687 21.12C289.687 19.808 289.959 18.696 290.503 17.784C291.047 16.856 291.767 16.152 292.663 15.672C293.575 15.176 294.551 14.928 295.591 14.928C296.343 14.928 296.999 15.056 297.559 15.312C298.119 15.568 298.615 15.88 299.047 16.248L297.703 18.048C297.399 17.776 297.087 17.568 296.767 17.424C296.447 17.264 296.103 17.184 295.735 17.184C294.791 17.184 294.015 17.544 293.407 18.264C292.815 18.984 292.519 19.936 292.519 21.12C292.519 22.288 292.807 23.232 293.383 23.952C293.975 24.672 294.735 25.032 295.663 25.032C296.127 25.032 296.559 24.936 296.959 24.744C297.375 24.536 297.751 24.296 298.087 24.024L299.215 25.848C298.671 26.328 298.063 26.688 297.391 26.928C296.719 27.168 296.047 27.288 295.375 27.288ZM305.779 27.288C304.803 27.288 303.891 27.048 303.043 26.568C302.195 26.072 301.507 25.368 300.979 24.456C300.451 23.528 300.187 22.416 300.187 21.12C300.187 19.808 300.451 18.696 300.979 17.784C301.507 16.856 302.195 16.152 303.043 15.672C303.891 15.176 304.803 14.928 305.779 14.928C306.771 14.928 307.691 15.176 308.539 15.672C309.387 16.152 310.075 16.856 310.603 17.784C311.131 18.696 311.395 19.808 311.395 21.12C311.395 22.416 311.131 23.528 310.603 24.456C310.075 25.368 309.387 26.072 308.539 26.568C307.691 27.048 306.771 27.288 305.779 27.288ZM305.779 25.032C306.643 25.032 307.323 24.672 307.819 23.952C308.315 23.232 308.563 22.288 308.563 21.12C308.563 19.936 308.315 18.984 307.819 18.264C307.323 17.544 306.643 17.184 305.779 17.184C304.915 17.184 304.235 17.544 303.739 18.264C303.259 18.984 303.019 19.936 303.019 21.12C303.019 22.288 303.259 23.232 303.739 23.952C304.235 24.672 304.915 25.032 305.779 25.032ZM314.127 27V15.216H316.407L316.599 16.8H316.695C317.223 16.288 317.799 15.848 318.423 15.48C319.047 15.112 319.759 14.928 320.559 14.928C321.823 14.928 322.743 15.336 323.319 16.152C323.895 16.968 324.183 18.12 324.183 19.608V27H321.423V19.968C321.423 18.992 321.279 18.304 320.991 17.904C320.703 17.504 320.231 17.304 319.575 17.304C319.063 17.304 318.607 17.432 318.207 17.688C317.823 17.928 317.383 18.288 316.887 18.768V27H314.127ZM327.533 31.368L326.933 29.856C327.717 29.552 328.317 29.136 328.733 28.608C329.165 28.096 329.373 27.544 329.357 26.952C329.325 26.952 329.285 26.952 329.237 26.952C329.205 26.952 329.173 26.952 329.141 26.952C328.677 26.952 328.261 26.808 327.893 26.52C327.541 26.216 327.365 25.792 327.365 25.248C327.365 24.736 327.549 24.328 327.917 24.024C328.285 23.704 328.717 23.544 329.213 23.544C329.869 23.544 330.373 23.792 330.725 24.288C331.093 24.784 331.277 25.48 331.277 26.376C331.277 27.544 330.949 28.56 330.293 29.424C329.637 30.304 328.717 30.952 327.533 31.368ZM344.683 27.288C343.563 27.288 342.491 26.776 341.467 25.752H341.395L341.155 27H338.971V10.056H341.731V14.424L341.659 16.392C342.155 15.96 342.699 15.608 343.291 15.336C343.883 15.064 344.475 14.928 345.067 14.928C346.539 14.928 347.683 15.472 348.499 16.56C349.315 17.648 349.723 19.096 349.723 20.904C349.723 22.248 349.483 23.4 349.003 24.36C348.523 25.304 347.899 26.032 347.131 26.544C346.379 27.04 345.563 27.288 344.683 27.288ZM344.107 25.008C344.891 25.008 345.547 24.664 346.075 23.976C346.603 23.288 346.867 22.28 346.867 20.952C346.867 19.768 346.667 18.848 346.267 18.192C345.867 17.536 345.219 17.208 344.323 17.208C343.491 17.208 342.627 17.648 341.731 18.528V24.024C342.147 24.376 342.555 24.632 342.955 24.792C343.371 24.936 343.755 25.008 344.107 25.008ZM352.494 27V15.216H355.254V27H352.494ZM353.886 13.152C353.39 13.152 352.99 13.008 352.686 12.72C352.382 12.432 352.23 12.048 352.23 11.568C352.23 11.104 352.382 10.728 352.686 10.44C352.99 10.152 353.39 10.008 353.886 10.008C354.382 10.008 354.782 10.152 355.086 10.44C355.39 10.728 355.542 11.104 355.542 11.568C355.542 12.048 355.39 12.432 355.086 12.72C354.782 13.008 354.382 13.152 353.886 13.152ZM362.879 32.208C361.951 32.208 361.111 32.096 360.359 31.872C359.623 31.648 359.039 31.304 358.607 30.84C358.191 30.392 357.983 29.824 357.983 29.136C357.983 28.16 358.543 27.32 359.663 26.616V26.52C359.359 26.328 359.103 26.072 358.895 25.752C358.703 25.432 358.607 25.032 358.607 24.552C358.607 24.088 358.735 23.672 358.991 23.304C359.263 22.92 359.567 22.608 359.903 22.368V22.272C359.503 21.968 359.143 21.544 358.823 21C358.519 20.456 358.367 19.84 358.367 19.152C358.367 18.24 358.583 17.472 359.015 16.848C359.447 16.224 360.015 15.752 360.719 15.432C361.439 15.096 362.207 14.928 363.023 14.928C363.343 14.928 363.647 14.96 363.935 15.024C364.239 15.072 364.511 15.136 364.751 15.216H368.975V17.256H366.815C367.007 17.48 367.167 17.768 367.295 18.12C367.423 18.456 367.487 18.832 367.487 19.248C367.487 20.112 367.287 20.848 366.887 21.456C366.487 22.048 365.951 22.496 365.279 22.8C364.607 23.104 363.855 23.256 363.023 23.256C362.767 23.256 362.503 23.232 362.231 23.184C361.959 23.136 361.687 23.056 361.415 22.944C361.239 23.104 361.095 23.264 360.983 23.424C360.887 23.584 360.839 23.8 360.839 24.072C360.839 24.408 360.975 24.672 361.247 24.864C361.535 25.056 362.039 25.152 362.759 25.152H364.847C366.271 25.152 367.343 25.384 368.063 25.848C368.799 26.296 369.167 27.032 369.167 28.056C369.167 28.824 368.911 29.52 368.399 30.144C367.887 30.784 367.159 31.288 366.215 31.656C365.271 32.024 364.159 32.208 362.879 32.208ZM363.023 21.528C363.583 21.528 364.063 21.32 364.463 20.904C364.863 20.488 365.063 19.904 365.063 19.152C365.063 18.416 364.863 17.848 364.463 17.448C364.079 17.032 363.599 16.824 363.023 16.824C362.447 16.824 361.959 17.024 361.559 17.424C361.159 17.824 360.959 18.4 360.959 19.152C360.959 19.904 361.159 20.488 361.559 20.904C361.959 21.32 362.447 21.528 363.023 21.528ZM363.311 30.408C364.255 30.408 365.023 30.216 365.615 29.832C366.207 29.448 366.503 29.008 366.503 28.512C366.503 28.048 366.319 27.736 365.951 27.576C365.599 27.416 365.087 27.336 364.415 27.336H362.807C362.167 27.336 361.631 27.28 361.199 27.168C360.591 27.632 360.287 28.152 360.287 28.728C360.287 29.256 360.559 29.664 361.103 29.952C361.647 30.256 362.383 30.408 363.311 30.408ZM378.905 27.288C377.881 27.288 377.041 26.968 376.385 26.328C375.745 25.688 375.425 24.856 375.425 23.832C375.425 22.568 375.977 21.592 377.081 20.904C378.185 20.2 379.945 19.72 382.361 19.464C382.345 18.84 382.177 18.304 381.857 17.856C381.553 17.392 381.001 17.16 380.201 17.16C379.625 17.16 379.057 17.272 378.497 17.496C377.953 17.72 377.417 17.992 376.889 18.312L375.881 16.464C376.537 16.048 377.273 15.688 378.089 15.384C378.921 15.08 379.801 14.928 380.729 14.928C382.201 14.928 383.297 15.368 384.017 16.248C384.753 17.112 385.121 18.368 385.121 20.016V27H382.841L382.649 25.704H382.553C382.025 26.152 381.457 26.528 380.849 26.832C380.257 27.136 379.609 27.288 378.905 27.288ZM379.793 25.128C380.273 25.128 380.705 25.016 381.089 24.792C381.489 24.552 381.913 24.232 382.361 23.832V21.192C380.761 21.4 379.649 21.712 379.025 22.128C378.401 22.528 378.089 23.024 378.089 23.616C378.089 24.144 378.249 24.528 378.569 24.768C378.889 25.008 379.297 25.128 379.793 25.128ZM388.424 27V15.216H390.704L390.896 16.8H390.992C391.52 16.288 392.096 15.848 392.72 15.48C393.344 15.112 394.056 14.928 394.856 14.928C396.12 14.928 397.04 15.336 397.616 16.152C398.192 16.968 398.48 18.12 398.48 19.608V27H395.72V19.968C395.72 18.992 395.576 18.304 395.288 17.904C395 17.504 394.528 17.304 393.872 17.304C393.36 17.304 392.904 17.432 392.504 17.688C392.12 17.928 391.68 18.288 391.184 18.768V27H388.424ZM405.982 27.288C404.51 27.288 403.334 26.744 402.454 25.656C401.574 24.568 401.134 23.056 401.134 21.12C401.134 19.84 401.366 18.736 401.83 17.808C402.31 16.88 402.934 16.168 403.702 15.672C404.47 15.176 405.278 14.928 406.126 14.928C406.798 14.928 407.366 15.048 407.83 15.288C408.31 15.512 408.774 15.824 409.222 16.224L409.126 14.328V10.056H411.886V27H409.606L409.414 25.728H409.318C408.886 26.16 408.382 26.528 407.806 26.832C407.23 27.136 406.622 27.288 405.982 27.288ZM406.654 25.008C407.534 25.008 408.358 24.568 409.126 23.688V18.192C408.726 17.824 408.326 17.568 407.926 17.424C407.526 17.28 407.126 17.208 406.726 17.208C405.974 17.208 405.326 17.552 404.782 18.24C404.254 18.912 403.99 19.864 403.99 21.096C403.99 22.36 404.222 23.328 404.686 24C405.15 24.672 405.806 25.008 406.654 25.008ZM425.917 27.288C424.797 27.288 423.725 26.776 422.701 25.752H422.629L422.389 27H420.205V10.056H422.965V14.424L422.893 16.392C423.389 15.96 423.933 15.608 424.525 15.336C425.117 15.064 425.709 14.928 426.301 14.928C427.773 14.928 428.917 15.472 429.733 16.56C430.549 17.648 430.957 19.096 430.957 20.904C430.957 22.248 430.717 23.4 430.237 24.36C429.757 25.304 429.133 26.032 428.365 26.544C427.613 27.04 426.797 27.288 425.917 27.288ZM425.341 25.008C426.125 25.008 426.781 24.664 427.309 23.976C427.837 23.288 428.101 22.28 428.101 20.952C428.101 19.768 427.901 18.848 427.501 18.192C427.101 17.536 426.453 17.208 425.557 17.208C424.725 17.208 423.861 17.648 422.965 18.528V24.024C423.381 24.376 423.789 24.632 424.189 24.792C424.605 24.936 424.989 25.008 425.341 25.008ZM438.553 27.288C437.577 27.288 436.665 27.048 435.817 26.568C434.969 26.072 434.281 25.368 433.753 24.456C433.225 23.528 432.961 22.416 432.961 21.12C432.961 19.808 433.225 18.696 433.753 17.784C434.281 16.856 434.969 16.152 435.817 15.672C436.665 15.176 437.577 14.928 438.553 14.928C439.545 14.928 440.465 15.176 441.313 15.672C442.161 16.152 442.849 16.856 443.377 17.784C443.905 18.696 444.169 19.808 444.169 21.12C444.169 22.416 443.905 23.528 443.377 24.456C442.849 25.368 442.161 26.072 441.313 26.568C440.465 27.048 439.545 27.288 438.553 27.288ZM438.553 25.032C439.417 25.032 440.097 24.672 440.593 23.952C441.089 23.232 441.337 22.288 441.337 21.12C441.337 19.936 441.089 18.984 440.593 18.264C440.097 17.544 439.417 17.184 438.553 17.184C437.689 17.184 437.009 17.544 436.513 18.264C436.033 18.984 435.793 19.936 435.793 21.12C435.793 22.288 436.033 23.232 436.513 23.952C437.009 24.672 437.689 25.032 438.553 25.032ZM449.588 27.288C448.612 27.288 447.916 26.992 447.5 26.4C447.1 25.808 446.9 25 446.9 23.976V10.056H449.66V24.12C449.66 24.456 449.724 24.696 449.852 24.84C449.98 24.968 450.116 25.032 450.26 25.032C450.324 25.032 450.38 25.032 450.428 25.032C450.492 25.016 450.58 25 450.692 24.984L451.052 27.048C450.892 27.112 450.684 27.168 450.428 27.216C450.188 27.264 449.908 27.288 449.588 27.288ZM457.544 27.288C456.072 27.288 454.896 26.744 454.016 25.656C453.136 24.568 452.696 23.056 452.696 21.12C452.696 19.84 452.928 18.736 453.392 17.808C453.872 16.88 454.496 16.168 455.264 15.672C456.032 15.176 456.84 14.928 457.688 14.928C458.36 14.928 458.928 15.048 459.392 15.288C459.872 15.512 460.336 15.824 460.784 16.224L460.688 14.328V10.056H463.448V27H461.168L460.976 25.728H460.88C460.448 26.16 459.944 26.528 459.368 26.832C458.792 27.136 458.184 27.288 457.544 27.288ZM458.216 25.008C459.096 25.008 459.92 24.568 460.688 23.688V18.192C460.288 17.824 459.888 17.568 459.488 17.424C459.088 17.28 458.688 17.208 458.288 17.208C457.536 17.208 456.888 17.552 456.344 18.24C455.816 18.912 455.552 19.864 455.552 21.096C455.552 22.36 455.784 23.328 456.248 24C456.712 24.672 457.368 25.008 458.216 25.008Z" fill="#222120"/>
<g clip-path="url(#clip1_948_14886)">
<path d="M803.858 19L813.318 9.51802C813.56 9.27602 813.56 8.90202 813.318 8.66002C813.076 8.41802 812.702 8.41802 812.46 8.66002L803 18.142L793.518 8.68202C793.298 8.44002 792.902 8.44002 792.682 8.68202C792.44 8.90202 792.44 9.29802 792.682 9.51802L802.142 19L792.682 28.482C792.44 28.724 792.44 29.098 792.682 29.34C792.792 29.45 792.946 29.516 793.1 29.516C793.254 29.516 793.408 29.45 793.518 29.34L803 19.858L812.482 29.34C812.592 29.45 812.746 29.516 812.9 29.516C813.054 29.516 813.208 29.45 813.318 29.34C813.56 29.098 813.56 28.724 813.318 28.482L803.858 19Z" fill="#CC3232"/>
</g>
<defs>
<clipPath id="clip0_948_14886">
<rect y="8" width="20" height="20" fill="white"/>
</clipPath>
<clipPath id="clip1_948_14886">
<rect width="22" height="22" fill="white" transform="translate(792 8)"/>
</clipPath>
</defs>
</svg>
