<svg width="154" height="35" viewBox="0 0 154 35" fill="none" xmlns="http://www.w3.org/2000/svg">
<rect x="0.5" y="0.5" width="153" height="34" stroke="black"/>
<path d="M16.872 22.644C16.456 22.644 16.0507 22.6067 15.656 22.532C15.2613 22.4573 14.8987 22.3507 14.568 22.212C14.2373 22.0733 13.944 21.9027 13.688 21.7L14.152 20.612C14.4187 20.7933 14.7013 20.9533 15 21.092C15.2987 21.22 15.608 21.316 15.928 21.38C16.2587 21.444 16.5787 21.476 16.888 21.476C17.4533 21.476 17.88 21.3747 18.168 21.172C18.456 20.9693 18.6 20.6973 18.6 20.356C18.6 20.0787 18.504 19.8653 18.312 19.716C18.12 19.556 17.832 19.4333 17.448 19.348L15.928 19.044C15.2667 18.9053 14.7653 18.66 14.424 18.308C14.0827 17.956 13.912 17.508 13.912 16.964C13.912 16.4733 14.0453 16.0467 14.312 15.684C14.5787 15.3213 14.952 15.044 15.432 14.852C15.912 14.6493 16.4667 14.548 17.096 14.548C17.4587 14.548 17.8107 14.5853 18.152 14.66C18.4933 14.7347 18.8133 14.8413 19.112 14.98C19.4213 15.1187 19.6827 15.2947 19.896 15.508L19.432 16.596C19.2293 16.4147 18.9947 16.26 18.728 16.132C18.472 16.004 18.2053 15.908 17.928 15.844C17.6507 15.7693 17.3733 15.732 17.096 15.732C16.5307 15.732 16.104 15.8387 15.816 16.052C15.5387 16.2547 15.4 16.532 15.4 16.884C15.4 17.1507 15.4853 17.3693 15.656 17.54C15.8267 17.7107 16.0933 17.8333 16.456 17.908L17.976 18.212C18.6693 18.3507 19.192 18.5853 19.544 18.916C19.9067 19.2467 20.088 19.6947 20.088 20.26C20.088 20.7507 19.9547 21.1773 19.688 21.54C19.4213 21.9027 19.0427 22.18 18.552 22.372C18.072 22.5533 17.512 22.644 16.872 22.644ZM25.55 22.644C24.6967 22.644 23.9607 22.484 23.342 22.164C22.734 21.8333 22.2593 21.3693 21.918 20.772C21.5873 20.164 21.422 19.444 21.422 18.612C21.422 17.8013 21.5873 17.092 21.918 16.484C22.2487 15.876 22.702 15.4013 23.278 15.06C23.854 14.7187 24.51 14.548 25.246 14.548C25.9713 14.548 26.59 14.708 27.102 15.028C27.6247 15.3373 28.0247 15.78 28.302 16.356C28.5793 16.932 28.718 17.62 28.718 18.42V18.964H22.702V17.972H27.63L27.358 18.196C27.358 17.396 27.182 16.7773 26.83 16.34C26.478 15.9027 25.9713 15.684 25.31 15.684C24.8087 15.684 24.382 15.8013 24.03 16.036C23.6887 16.2707 23.4273 16.596 23.246 17.012C23.0647 17.428 22.974 17.9133 22.974 18.468V18.564C22.974 19.1827 23.07 19.7053 23.262 20.132C23.4647 20.548 23.758 20.8627 24.142 21.076C24.526 21.2893 25.0007 21.396 25.566 21.396C26.014 21.396 26.4513 21.3267 26.878 21.188C27.3153 21.0387 27.726 20.8093 28.11 20.5L28.59 21.62C28.238 21.94 27.7847 22.1907 27.23 22.372C26.6753 22.5533 26.1153 22.644 25.55 22.644ZM33.9198 22.644C33.1198 22.644 32.4264 22.4787 31.8398 22.148C31.2638 21.8067 30.8158 21.332 30.4958 20.724C30.1758 20.1053 30.0158 19.38 30.0158 18.548C30.0158 17.7267 30.1758 17.0173 30.4958 16.42C30.8158 15.8227 31.2638 15.364 31.8398 15.044C32.4264 14.7133 33.1198 14.548 33.9198 14.548C34.4104 14.548 34.8958 14.6333 35.3758 14.804C35.8558 14.964 36.2504 15.1987 36.5598 15.508L36.0478 16.644C35.7598 16.3667 35.4344 16.164 35.0718 16.036C34.7091 15.8973 34.3678 15.828 34.0477 15.828C33.2904 15.828 32.7038 16.068 32.2878 16.548C31.8824 17.0173 31.6798 17.6893 31.6798 18.564C31.6798 19.4387 31.8824 20.1267 32.2878 20.628C32.7038 21.1187 33.2904 21.364 34.0477 21.364C34.3678 21.364 34.7091 21.3 35.0718 21.172C35.4344 21.0333 35.7598 20.8253 36.0478 20.548L36.5598 21.7C36.2504 21.988 35.8504 22.2173 35.3598 22.388C34.8798 22.5587 34.3998 22.644 33.9198 22.644ZM41.1843 22.644C40.3949 22.644 39.7123 22.4787 39.1363 22.148C38.5709 21.8173 38.1283 21.348 37.8083 20.74C37.4883 20.132 37.3283 19.4173 37.3283 18.596C37.3283 17.764 37.4883 17.0493 37.8083 16.452C38.1283 15.844 38.5709 15.3747 39.1363 15.044C39.7123 14.7133 40.3949 14.548 41.1843 14.548C41.9629 14.548 42.6349 14.7133 43.2003 15.044C43.7763 15.3747 44.2243 15.844 44.5443 16.452C44.8643 17.06 45.0243 17.7747 45.0243 18.596C45.0243 19.4173 44.8643 20.132 44.5443 20.74C44.2243 21.348 43.7763 21.8173 43.2003 22.148C42.6349 22.4787 41.9629 22.644 41.1843 22.644ZM41.1683 21.396C41.8403 21.396 42.3789 21.156 42.7843 20.676C43.1896 20.196 43.3923 19.5027 43.3923 18.596C43.3923 17.6787 43.1896 16.9853 42.7843 16.516C42.3789 16.0467 41.8403 15.812 41.1683 15.812C40.5069 15.812 39.9736 16.0467 39.5683 16.516C39.1629 16.9853 38.9603 17.6787 38.9603 18.596C38.9603 19.5027 39.1629 20.196 39.5683 20.676C39.9736 21.156 40.5069 21.396 41.1683 21.396ZM46.8391 22.5V14.692H48.4071V16.356H48.2311C48.4658 15.7587 48.8338 15.3107 49.3351 15.012C49.8365 14.7027 50.4125 14.548 51.0631 14.548C51.6818 14.548 52.1938 14.6653 52.5991 14.9C53.0151 15.124 53.3245 15.4707 53.5271 15.94C53.7298 16.3987 53.8311 16.98 53.8311 17.684V22.5H52.2151V17.78C52.2151 17.332 52.1565 16.9693 52.0391 16.692C51.9218 16.404 51.7458 16.1907 51.5111 16.052C51.2765 15.9133 50.9725 15.844 50.5991 15.844C50.1725 15.844 49.7938 15.9347 49.4631 16.116C49.1431 16.2973 48.8925 16.5587 48.7111 16.9C48.5405 17.2413 48.4551 17.636 48.4551 18.084V22.5H46.8391ZM59.0339 22.644C58.3512 22.644 57.7485 22.484 57.2259 22.164C56.7139 21.8333 56.3139 21.364 56.0259 20.756C55.7379 20.1373 55.5939 19.4173 55.5939 18.596C55.5939 17.7533 55.7379 17.0333 56.0259 16.436C56.3139 15.8387 56.7139 15.3747 57.2259 15.044C57.7485 14.7133 58.3512 14.548 59.0339 14.548C59.7165 14.548 60.3032 14.7187 60.7939 15.06C61.2952 15.3907 61.6312 15.8387 61.8019 16.404H61.6259V11.22H63.2419V22.5H61.6579V20.74H61.8179C61.6472 21.316 61.3112 21.78 60.8099 22.132C60.3192 22.4733 59.7272 22.644 59.0339 22.644ZM59.4499 21.396C60.1112 21.396 60.6445 21.156 61.0499 20.676C61.4552 20.196 61.6579 19.5027 61.6579 18.596C61.6579 17.6787 61.4552 16.9853 61.0499 16.516C60.6445 16.0467 60.1112 15.812 59.4499 15.812C58.7779 15.812 58.2392 16.0467 57.8339 16.516C57.4285 16.9853 57.2259 17.6787 57.2259 18.596C57.2259 19.5027 57.4285 20.196 57.8339 20.676C58.2392 21.156 58.7779 21.396 59.4499 21.396ZM68.007 22.644C67.463 22.644 66.9723 22.5373 66.535 22.324C66.1083 22.1107 65.7723 21.8227 65.527 21.46C65.2817 21.0973 65.159 20.6867 65.159 20.228C65.159 19.652 65.303 19.1987 65.591 18.868C65.8897 18.5267 66.375 18.2867 67.047 18.148C67.7297 17.9987 68.647 17.924 69.799 17.924H70.551V18.916H69.815C69.239 18.916 68.7537 18.9373 68.359 18.98C67.9643 19.0227 67.6497 19.092 67.415 19.188C67.1803 19.2733 67.0097 19.396 66.903 19.556C66.807 19.716 66.759 19.908 66.759 20.132C66.759 20.5373 66.8977 20.868 67.175 21.124C67.4523 21.3693 67.8363 21.492 68.327 21.492C68.7217 21.492 69.0683 21.4013 69.367 21.22C69.6657 21.028 69.9003 20.772 70.071 20.452C70.2523 20.132 70.343 19.764 70.343 19.348V17.508C70.343 16.9 70.215 16.4627 69.959 16.196C69.703 15.9293 69.2817 15.796 68.695 15.796C68.247 15.796 67.799 15.8653 67.351 16.004C66.903 16.132 66.4443 16.34 65.975 16.628L65.479 15.492C65.7563 15.3 66.0763 15.1347 66.439 14.996C66.8017 14.8573 67.1803 14.7507 67.575 14.676C67.9803 14.5907 68.3697 14.548 68.743 14.548C69.4577 14.548 70.0443 14.66 70.503 14.884C70.9723 15.108 71.319 15.4493 71.543 15.908C71.767 16.3667 71.879 16.9587 71.879 17.684V22.5H70.359V20.756H70.503C70.4177 21.1507 70.2577 21.492 70.023 21.78C69.799 22.0573 69.5163 22.2707 69.175 22.42C68.8337 22.5693 68.4443 22.644 68.007 22.644ZM74.1048 22.5V14.692H75.6728V16.564H75.5128C75.6834 15.924 75.9874 15.4387 76.4248 15.108C76.8728 14.7773 77.4648 14.5853 78.2008 14.532L78.7288 14.5L78.8408 15.876L77.8648 15.972C77.1714 16.036 76.6434 16.2547 76.2808 16.628C75.9181 17.0013 75.7368 17.5133 75.7368 18.164V22.5H74.1048ZM81.3579 25.38L82.8939 21.956V22.644L79.4859 14.692H81.2139L83.8379 21.172H83.3899L86.0459 14.692H87.7099L83.0539 25.38H81.3579ZM97.2655 22.644C96.5828 22.644 95.9908 22.4733 95.4895 22.132C94.9882 21.78 94.6522 21.316 94.4815 20.74H94.6575V22.5H93.0735V11.22H94.6895V16.404H94.4975C94.6682 15.8387 95.0042 15.3907 95.5055 15.06C96.0068 14.7187 96.5935 14.548 97.2655 14.548C97.9695 14.548 98.5775 14.7133 99.0895 15.044C99.6015 15.3747 99.9962 15.8387 100.274 16.436C100.562 17.0333 100.706 17.7533 100.706 18.596C100.706 19.4173 100.562 20.1373 100.274 20.756C99.9962 21.364 99.5962 21.8333 99.0735 22.164C98.5615 22.484 97.9588 22.644 97.2655 22.644ZM96.8655 21.396C97.5375 21.396 98.0708 21.156 98.4655 20.676C98.8708 20.196 99.0735 19.5027 99.0735 18.596C99.0735 17.6787 98.8708 16.9853 98.4655 16.516C98.0708 16.0467 97.5375 15.812 96.8655 15.812C96.2042 15.812 95.6708 16.0467 95.2655 16.516C94.8602 16.9853 94.6575 17.6787 94.6575 18.596C94.6575 19.5027 94.8602 20.196 95.2655 20.676C95.6708 21.156 96.2042 21.396 96.8655 21.396ZM105.311 22.644C104.681 22.644 104.153 22.5267 103.727 22.292C103.311 22.0573 102.996 21.7107 102.783 21.252C102.58 20.7827 102.479 20.196 102.479 19.492V14.692H104.095V19.508C104.095 19.924 104.148 20.2707 104.255 20.548C104.372 20.8253 104.548 21.028 104.783 21.156C105.028 21.284 105.332 21.348 105.695 21.348C106.1 21.348 106.457 21.2573 106.767 21.076C107.076 20.8947 107.316 20.6333 107.487 20.292C107.657 19.9507 107.743 19.556 107.743 19.108V14.692H109.359V22.5H107.791V20.788H107.999C107.785 21.3853 107.444 21.844 106.975 22.164C106.505 22.484 105.951 22.644 105.311 22.644ZM114.964 22.644C113.993 22.644 113.263 22.3933 112.772 21.892C112.292 21.3907 112.052 20.6653 112.052 19.716V15.94H110.532V14.692H112.052V12.34H113.668V14.692H116.084V15.94H113.668V19.588C113.668 20.1533 113.785 20.58 114.02 20.868C114.265 21.156 114.66 21.3 115.204 21.3C115.364 21.3 115.524 21.2787 115.684 21.236C115.855 21.1933 116.02 21.1507 116.18 21.108L116.436 22.324C116.276 22.42 116.052 22.4947 115.764 22.548C115.487 22.612 115.22 22.644 114.964 22.644ZM120.495 22.644C119.525 22.644 118.794 22.3933 118.303 21.892C117.823 21.3907 117.583 20.6653 117.583 19.716V15.94H116.063V14.692H117.583V12.34H119.199V14.692H121.615V15.94H119.199V19.588C119.199 20.1533 119.317 20.58 119.551 20.868C119.797 21.156 120.191 21.3 120.735 21.3C120.895 21.3 121.055 21.2787 121.215 21.236C121.386 21.1933 121.551 21.1507 121.711 21.108L121.967 22.324C121.807 22.42 121.583 22.4947 121.295 22.548C121.018 22.612 120.751 22.644 120.495 22.644ZM126.325 22.644C125.536 22.644 124.853 22.4787 124.277 22.148C123.712 21.8173 123.269 21.348 122.949 20.74C122.629 20.132 122.469 19.4173 122.469 18.596C122.469 17.764 122.629 17.0493 122.949 16.452C123.269 15.844 123.712 15.3747 124.277 15.044C124.853 14.7133 125.536 14.548 126.325 14.548C127.104 14.548 127.776 14.7133 128.341 15.044C128.917 15.3747 129.365 15.844 129.685 16.452C130.005 17.06 130.165 17.7747 130.165 18.596C130.165 19.4173 130.005 20.132 129.685 20.74C129.365 21.348 128.917 21.8173 128.341 22.148C127.776 22.4787 127.104 22.644 126.325 22.644ZM126.309 21.396C126.981 21.396 127.52 21.156 127.925 20.676C128.33 20.196 128.533 19.5027 128.533 18.596C128.533 17.6787 128.33 16.9853 127.925 16.516C127.52 16.0467 126.981 15.812 126.309 15.812C125.648 15.812 125.114 16.0467 124.709 16.516C124.304 16.9853 124.101 17.6787 124.101 18.596C124.101 19.5027 124.304 20.196 124.709 20.676C125.114 21.156 125.648 21.396 126.309 21.396ZM131.98 22.5V14.692H133.548V16.356H133.372C133.606 15.7587 133.974 15.3107 134.476 15.012C134.977 14.7027 135.553 14.548 136.204 14.548C136.822 14.548 137.334 14.6653 137.74 14.9C138.156 15.124 138.465 15.4707 138.668 15.94C138.87 16.3987 138.972 16.98 138.972 17.684V22.5H137.356V17.78C137.356 17.332 137.297 16.9693 137.18 16.692C137.062 16.404 136.886 16.1907 136.652 16.052C136.417 15.9133 136.113 15.844 135.74 15.844C135.313 15.844 134.934 15.9347 134.604 16.116C134.284 16.2973 134.033 16.5587 133.852 16.9C133.681 17.2413 133.596 17.636 133.596 18.084V22.5H131.98Z" fill="black"/>
</svg>
