<svg width="99" height="27" viewBox="0 0 99 27" fill="none" xmlns="http://www.w3.org/2000/svg">
<mask id="path-1-inside-1_1042_2861" fill="white">
<path d="M0 0H99V27H0V0Z"/>
</mask>
<path d="M0 27H3V0H0H-3V27H0Z" fill="#3775C1" mask="url(#path-1-inside-1_1042_2861)"/>
<path d="M14.788 19V7.3H10.054V6.31H20.638V7.3H15.904V19H14.788ZM23.4564 19.144C22.8684 19.144 22.3404 19.03 21.8724 18.802C21.4164 18.574 21.0504 18.262 20.7744 17.866C20.5104 17.47 20.3784 17.026 20.3784 16.534C20.3784 15.886 20.5404 15.376 20.8644 15.004C21.1884 14.632 21.7344 14.374 22.5024 14.23C23.2704 14.074 24.3264 13.996 25.6704 13.996H26.4444V14.806H25.6884C24.8844 14.806 24.2064 14.83 23.6544 14.878C23.1144 14.926 22.6884 15.016 22.3764 15.148C22.0644 15.268 21.8424 15.436 21.7104 15.652C21.5904 15.868 21.5304 16.132 21.5304 16.444C21.5304 16.984 21.7164 17.422 22.0884 17.758C22.4604 18.094 22.9644 18.262 23.6004 18.262C24.1164 18.262 24.5664 18.142 24.9504 17.902C25.3464 17.65 25.6584 17.308 25.8864 16.876C26.1144 16.444 26.2284 15.952 26.2284 15.4V13.348C26.2284 12.544 26.0664 11.962 25.7424 11.602C25.4184 11.23 24.9024 11.044 24.1944 11.044C23.6664 11.044 23.1564 11.122 22.6644 11.278C22.1844 11.434 21.6864 11.68 21.1704 12.016L20.7384 11.17C21.0504 10.954 21.3924 10.768 21.7644 10.612C22.1484 10.456 22.5444 10.336 22.9524 10.252C23.3724 10.156 23.7804 10.108 24.1764 10.108C24.8844 10.108 25.4664 10.228 25.9224 10.468C26.3904 10.708 26.7324 11.068 26.9484 11.548C27.1764 12.028 27.2904 12.646 27.2904 13.402V19H26.2464V16.894H26.4264C26.3184 17.362 26.1264 17.764 25.8504 18.1C25.5744 18.436 25.2324 18.694 24.8244 18.874C24.4164 19.054 23.9604 19.144 23.4564 19.144ZM34.3187 19.144C33.5027 19.144 32.8067 18.934 32.2307 18.514C31.6547 18.094 31.2647 17.53 31.0607 16.822H31.2587V19H30.1607V6.31H31.2587V12.43H31.0607C31.2647 11.722 31.6547 11.158 32.2307 10.738C32.8067 10.318 33.5027 10.108 34.3187 10.108C35.1107 10.108 35.7947 10.294 36.3707 10.666C36.9467 11.038 37.3907 11.56 37.7027 12.232C38.0267 12.904 38.1887 13.702 38.1887 14.626C38.1887 15.55 38.0267 16.354 37.7027 17.038C37.3907 17.71 36.9407 18.232 36.3527 18.604C35.7767 18.964 35.0987 19.144 34.3187 19.144ZM34.1567 18.226C35.0447 18.226 35.7527 17.914 36.2807 17.29C36.8087 16.666 37.0727 15.778 37.0727 14.626C37.0727 13.486 36.8087 12.604 36.2807 11.98C35.7527 11.356 35.0447 11.044 34.1567 11.044C33.2687 11.044 32.5607 11.356 32.0327 11.98C31.5047 12.604 31.2407 13.486 31.2407 14.626C31.2407 15.778 31.5047 16.666 32.0327 17.29C32.5607 17.914 33.2687 18.226 34.1567 18.226ZM43.0522 19.144C42.2362 19.144 41.6062 18.892 41.1622 18.388C40.7302 17.884 40.5142 17.17 40.5142 16.246V6.31H41.6122V16.12C41.6122 16.576 41.6722 16.96 41.7922 17.272C41.9242 17.572 42.1102 17.8 42.3502 17.956C42.5902 18.112 42.8842 18.19 43.2322 18.19C43.3882 18.19 43.5322 18.184 43.6642 18.172C43.8082 18.148 43.9402 18.118 44.0602 18.082L44.0242 19.036C43.8442 19.072 43.6762 19.096 43.5202 19.108C43.3642 19.132 43.2082 19.144 43.0522 19.144ZM49.3571 19.144C48.4571 19.144 47.6831 18.964 47.0351 18.604C46.3871 18.244 45.8891 17.728 45.5411 17.056C45.1931 16.384 45.0191 15.586 45.0191 14.662C45.0191 13.75 45.1931 12.958 45.5411 12.286C45.8891 11.602 46.3691 11.068 46.9811 10.684C47.6051 10.3 48.3191 10.108 49.1231 10.108C49.9031 10.108 50.5631 10.282 51.1031 10.63C51.6551 10.966 52.0751 11.452 52.3631 12.088C52.6631 12.712 52.8131 13.468 52.8131 14.356V14.86H45.8111V14.05H52.1291L51.8411 14.284C51.8411 13.252 51.6131 12.448 51.1571 11.872C50.7011 11.284 50.0291 10.99 49.1411 10.99C48.4811 10.99 47.9231 11.146 47.4671 11.458C47.0111 11.758 46.6691 12.178 46.4411 12.718C46.2131 13.246 46.0991 13.858 46.0991 14.554V14.644C46.0991 15.412 46.2191 16.066 46.4591 16.606C46.7111 17.134 47.0831 17.536 47.5751 17.812C48.0671 18.088 48.6491 18.226 49.3211 18.226C49.8611 18.226 50.3651 18.142 50.8331 17.974C51.3131 17.806 51.7811 17.524 52.2371 17.128L52.6691 17.956C52.2851 18.316 51.7931 18.604 51.1931 18.82C50.5931 19.036 49.9811 19.144 49.3571 19.144ZM62.8629 19.144C61.8909 19.144 61.1589 18.88 60.6669 18.352C60.1869 17.824 59.9469 17.068 59.9469 16.084V11.152H58.2189V10.27H59.9469V7.57H61.0449V10.27H63.8709V11.152H61.0449V15.94C61.0449 16.672 61.1949 17.23 61.4949 17.614C61.7949 17.998 62.2929 18.19 62.9889 18.19C63.1929 18.19 63.3909 18.166 63.5829 18.118C63.7749 18.058 63.9429 18.004 64.0869 17.956L64.3029 18.82C64.1709 18.904 63.9609 18.976 63.6729 19.036C63.3849 19.108 63.1149 19.144 62.8629 19.144ZM65.4182 7.966V6.58H66.8942V7.966H65.4182ZM65.5982 19V10.27H66.6962V19H65.5982ZM72.8824 19.144C71.9104 19.144 71.1784 18.88 70.6864 18.352C70.2064 17.824 69.9664 17.068 69.9664 16.084V11.152H68.2384V10.27H69.9664V7.57H71.0644V10.27H73.8904V11.152H71.0644V15.94C71.0644 16.672 71.2144 17.23 71.5144 17.614C71.8144 17.998 72.3124 18.19 73.0084 18.19C73.2124 18.19 73.4104 18.166 73.6024 18.118C73.7944 18.058 73.9624 18.004 74.1064 17.956L74.3224 18.82C74.1904 18.904 73.9804 18.976 73.6924 19.036C73.4044 19.108 73.1344 19.144 72.8824 19.144ZM78.1557 19.144C77.3397 19.144 76.7097 18.892 76.2657 18.388C75.8337 17.884 75.6177 17.17 75.6177 16.246V6.31H76.7157V16.12C76.7157 16.576 76.7757 16.96 76.8957 17.272C77.0277 17.572 77.2137 17.8 77.4537 17.956C77.6937 18.112 77.9877 18.19 78.3357 18.19C78.4917 18.19 78.6357 18.184 78.7677 18.172C78.9117 18.148 79.0437 18.118 79.1637 18.082L79.1277 19.036C78.9477 19.072 78.7797 19.096 78.6237 19.108C78.4677 19.132 78.3117 19.144 78.1557 19.144ZM84.4607 19.144C83.5607 19.144 82.7867 18.964 82.1387 18.604C81.4907 18.244 80.9927 17.728 80.6447 17.056C80.2967 16.384 80.1227 15.586 80.1227 14.662C80.1227 13.75 80.2967 12.958 80.6447 12.286C80.9927 11.602 81.4727 11.068 82.0847 10.684C82.7087 10.3 83.4227 10.108 84.2267 10.108C85.0067 10.108 85.6667 10.282 86.2067 10.63C86.7587 10.966 87.1787 11.452 87.4667 12.088C87.7667 12.712 87.9167 13.468 87.9167 14.356V14.86H80.9147V14.05H87.2327L86.9447 14.284C86.9447 13.252 86.7167 12.448 86.2607 11.872C85.8047 11.284 85.1327 10.99 84.2447 10.99C83.5847 10.99 83.0267 11.146 82.5707 11.458C82.1147 11.758 81.7727 12.178 81.5447 12.718C81.3167 13.246 81.2027 13.858 81.2027 14.554V14.644C81.2027 15.412 81.3227 16.066 81.5627 16.606C81.8147 17.134 82.1867 17.536 82.6787 17.812C83.1707 18.088 83.7527 18.226 84.4247 18.226C84.9647 18.226 85.4687 18.142 85.9367 17.974C86.4167 17.806 86.8847 17.524 87.3407 17.128L87.7727 17.956C87.3887 18.316 86.8967 18.604 86.2967 18.82C85.6967 19.036 85.0847 19.144 84.4607 19.144Z" fill="#222120"/>
</svg>
