<svg width="1486" height="1129" viewBox="0 0 1486 1129" fill="none" xmlns="http://www.w3.org/2000/svg">
<g clip-path="url(#clip0_1230_6350)">
<rect width="1486" height="1129" fill="white"/>
<rect width="1486" height="1129" fill="#F0F0F0"/>
<rect width="1379" height="58" transform="translate(54 5)" fill="white"/>
<path d="M638.071 46.385C637.021 46.385 636.006 46.315 635.026 46.175C634.069 46.035 633.194 45.825 632.401 45.545C631.608 45.265 630.896 44.9267 630.266 44.53L631.701 40.505C632.284 40.8317 632.926 41.1233 633.626 41.38C634.349 41.6367 635.096 41.835 635.866 41.975C636.636 42.115 637.383 42.185 638.106 42.185C638.969 42.185 639.588 42.0683 639.961 41.835C640.334 41.5783 640.521 41.2517 640.521 40.855C640.521 40.505 640.393 40.2367 640.136 40.05C639.903 39.8633 639.564 39.735 639.121 39.665L635.236 39.035C633.789 38.7783 632.669 38.2533 631.876 37.46C631.083 36.6433 630.686 35.5817 630.686 34.275C630.686 33.0617 631.024 32.0233 631.701 31.16C632.401 30.2733 633.346 29.5967 634.536 29.13C635.749 28.64 637.138 28.395 638.701 28.395C639.541 28.395 640.369 28.465 641.186 28.605C642.003 28.7217 642.784 28.92 643.531 29.2C644.278 29.4567 644.954 29.8067 645.561 30.25L644.021 34.205C643.578 33.8783 643.053 33.5983 642.446 33.365C641.839 33.1317 641.209 32.945 640.556 32.805C639.926 32.6417 639.343 32.56 638.806 32.56C637.849 32.56 637.173 32.6883 636.776 32.945C636.379 33.2017 636.181 33.5283 636.181 33.925C636.181 34.2283 636.286 34.485 636.496 34.695C636.706 34.8817 637.033 35.01 637.476 35.08L641.361 35.745C642.854 35.9783 643.998 36.4917 644.791 37.285C645.608 38.055 646.016 39.105 646.016 40.435C646.016 41.695 645.689 42.7683 645.036 43.655C644.383 44.5417 643.461 45.2183 642.271 45.685C641.081 46.1517 639.681 46.385 638.071 46.385ZM655.364 46.385C652.984 46.385 651.258 45.79 650.184 44.6C649.111 43.3867 648.574 41.5667 648.574 39.14V21.325H654.804V38.93C654.804 39.4433 654.874 39.8867 655.014 40.26C655.178 40.6333 655.423 40.9133 655.749 41.1C656.099 41.2867 656.531 41.38 657.044 41.38C657.278 41.38 657.511 41.3683 657.744 41.345C658.001 41.3217 658.246 41.2867 658.479 41.24L658.409 46C657.943 46.14 657.453 46.2333 656.939 46.28C656.449 46.35 655.924 46.385 655.364 46.385ZM669.286 46.385C667.373 46.385 665.705 46.0233 664.281 45.3C662.858 44.5767 661.75 43.5383 660.956 42.185C660.163 40.8317 659.766 39.2333 659.766 37.39C659.766 35.5233 660.163 33.925 660.956 32.595C661.75 31.2417 662.858 30.2033 664.281 29.48C665.705 28.7567 667.373 28.395 669.286 28.395C671.2 28.395 672.868 28.7567 674.291 29.48C675.715 30.2033 676.811 31.2417 677.581 32.595C678.375 33.925 678.771 35.5233 678.771 37.39C678.771 39.2333 678.375 40.8317 677.581 42.185C676.811 43.5383 675.715 44.5767 674.291 45.3C672.868 46.0233 671.2 46.385 669.286 46.385ZM669.286 41.8C670.22 41.8 670.99 41.45 671.596 40.75C672.203 40.05 672.506 38.93 672.506 37.39C672.506 35.8267 672.203 34.7067 671.596 34.03C670.99 33.33 670.22 32.98 669.286 32.98C668.33 32.98 667.548 33.33 666.941 34.03C666.335 34.7067 666.031 35.8267 666.031 37.39C666.031 38.93 666.335 40.05 666.941 40.75C667.548 41.45 668.33 41.8 669.286 41.8ZM690.485 46.385C687.872 46.385 685.935 45.7783 684.675 44.565C683.415 43.3517 682.785 41.52 682.785 39.07V33.365H679.565V28.78H682.785V23.775H689.015V28.78H693.915V33.365H689.015V38.86C689.015 39.7233 689.214 40.365 689.61 40.785C690.03 41.1817 690.684 41.38 691.57 41.38C691.85 41.38 692.154 41.345 692.48 41.275C692.83 41.205 693.215 41.1233 693.635 41.03L694.475 45.51C693.939 45.79 693.309 46 692.585 46.14C691.885 46.3033 691.185 46.385 690.485 46.385ZM706.057 32.805V28.815C706.057 27.835 706.174 26.925 706.407 26.085C706.641 25.2217 707.014 24.3817 707.527 23.565C708.041 22.725 708.729 21.8733 709.592 21.01L711.972 22.865C711.366 23.4717 710.876 24.0433 710.502 24.58C710.129 25.1167 709.849 25.665 709.662 26.225C709.499 26.7617 709.417 27.345 709.417 27.975L708.052 26.435H712.532V32.805H706.057ZM714.107 32.805V28.815C714.107 27.835 714.224 26.925 714.457 26.085C714.691 25.2217 715.064 24.3817 715.577 23.565C716.091 22.725 716.779 21.8733 717.642 21.01L720.022 22.865C719.416 23.4717 718.926 24.0433 718.552 24.58C718.179 25.1167 717.899 25.665 717.712 26.225C717.549 26.7617 717.467 27.345 717.467 27.975L716.102 26.435H720.582V32.805H714.107ZM723.941 46V21.325H730.171V31.79H729.611C730.171 30.6933 730.964 29.8533 731.991 29.27C733.041 28.6867 734.231 28.395 735.561 28.395C736.937 28.395 738.069 28.6633 738.956 29.2C739.842 29.7133 740.507 30.53 740.951 31.65C741.394 32.7467 741.616 34.135 741.616 35.815V46H735.386V36.06C735.386 35.36 735.304 34.8 735.141 34.38C734.977 33.9367 734.732 33.6217 734.406 33.435C734.102 33.2483 733.717 33.155 733.251 33.155C732.621 33.155 732.072 33.295 731.606 33.575C731.139 33.8317 730.777 34.205 730.521 34.695C730.287 35.185 730.171 35.7683 730.171 36.445V46H723.941ZM754.546 46.385C752.446 46.385 750.626 46.0233 749.086 45.3C747.57 44.5533 746.403 43.5033 745.586 42.15C744.77 40.7967 744.361 39.1983 744.361 37.355C744.361 35.5817 744.746 34.03 745.516 32.7C746.31 31.3467 747.383 30.2967 748.736 29.55C750.113 28.78 751.676 28.395 753.426 28.395C755.176 28.395 756.681 28.7567 757.941 29.48C759.201 30.2033 760.17 31.2417 760.846 32.595C761.546 33.925 761.896 35.4883 761.896 37.285V38.65H749.576V35.71H757.346L756.786 36.165C756.786 34.905 756.518 33.9717 755.981 33.365C755.445 32.735 754.686 32.42 753.706 32.42C752.983 32.42 752.353 32.595 751.816 32.945C751.303 33.2717 750.906 33.7617 750.626 34.415C750.346 35.0683 750.206 35.885 750.206 36.865V37.18C750.206 38.2767 750.358 39.1633 750.661 39.84C750.988 40.5167 751.49 41.0183 752.166 41.345C752.843 41.6483 753.695 41.8 754.721 41.8C755.608 41.8 756.53 41.6717 757.486 41.415C758.466 41.135 759.33 40.7383 760.076 40.225L761.616 44.32C760.73 44.95 759.645 45.4517 758.361 45.825C757.078 46.1983 755.806 46.385 754.546 46.385ZM770.565 46.385C769.235 46.385 768.057 46.14 767.03 45.65C766.027 45.16 765.234 44.495 764.65 43.655C764.09 42.7917 763.81 41.8117 763.81 40.715C763.81 39.455 764.137 38.4633 764.79 37.74C765.444 37.0167 766.494 36.5033 767.94 36.2C769.387 35.8733 771.312 35.71 773.715 35.71H775.64V38.65H773.715C773.039 38.65 772.444 38.685 771.93 38.755C771.44 38.825 771.032 38.9417 770.705 39.105C770.379 39.245 770.134 39.4317 769.97 39.665C769.807 39.8983 769.725 40.1667 769.725 40.47C769.725 41.0067 769.912 41.45 770.285 41.8C770.682 42.15 771.242 42.325 771.965 42.325C772.549 42.325 773.062 42.1967 773.505 41.94C773.972 41.6833 774.345 41.3333 774.625 40.89C774.905 40.4233 775.045 39.8867 775.045 39.28V35.22C775.045 34.38 774.824 33.785 774.38 33.435C773.96 33.085 773.225 32.91 772.175 32.91C771.289 32.91 770.309 33.05 769.235 33.33C768.162 33.61 767.112 34.0417 766.085 34.625L764.51 30.53C765.117 30.11 765.864 29.7367 766.75 29.41C767.66 29.0833 768.617 28.8383 769.62 28.675C770.647 28.4883 771.592 28.395 772.455 28.395C774.369 28.395 775.944 28.675 777.18 29.235C778.44 29.7717 779.374 30.6117 779.98 31.755C780.61 32.875 780.925 34.3217 780.925 36.095V46H775.115V42.745H775.325C775.209 43.4917 774.94 44.1333 774.52 44.67C774.1 45.2067 773.552 45.6267 772.875 45.93C772.199 46.2333 771.429 46.385 770.565 46.385ZM791.193 46.385C789.723 46.385 788.416 46.0233 787.273 45.3C786.153 44.5767 785.266 43.5383 784.613 42.185C783.983 40.8317 783.668 39.2333 783.668 37.39C783.668 35.5 783.983 33.89 784.613 32.56C785.266 31.23 786.153 30.2033 787.273 29.48C788.416 28.7567 789.723 28.395 791.193 28.395C792.476 28.395 793.631 28.6983 794.658 29.305C795.684 29.9117 796.373 30.6933 796.723 31.65H796.338V21.325H802.568V46H796.478V42.885H796.793C796.466 43.935 795.778 44.7867 794.728 45.44C793.701 46.07 792.523 46.385 791.193 46.385ZM793.188 41.8C794.121 41.8 794.891 41.45 795.498 40.75C796.104 40.05 796.408 38.93 796.408 37.39C796.408 35.8267 796.104 34.7067 795.498 34.03C794.891 33.33 794.121 32.98 793.188 32.98C792.231 32.98 791.449 33.33 790.843 34.03C790.236 34.7067 789.933 35.8267 789.933 37.39C789.933 38.93 790.236 40.05 790.843 40.75C791.449 41.45 792.231 41.8 793.188 41.8ZM815.557 46.385C813.457 46.385 811.637 46.0233 810.097 45.3C808.58 44.5533 807.414 43.5033 806.597 42.15C805.78 40.7967 805.372 39.1983 805.372 37.355C805.372 35.5817 805.757 34.03 806.527 32.7C807.32 31.3467 808.394 30.2967 809.747 29.55C811.124 28.78 812.687 28.395 814.437 28.395C816.187 28.395 817.692 28.7567 818.952 29.48C820.212 30.2033 821.18 31.2417 821.857 32.595C822.557 33.925 822.907 35.4883 822.907 37.285V38.65H810.587V35.71H818.357L817.797 36.165C817.797 34.905 817.529 33.9717 816.992 33.365C816.455 32.735 815.697 32.42 814.717 32.42C813.994 32.42 813.364 32.595 812.827 32.945C812.314 33.2717 811.917 33.7617 811.637 34.415C811.357 35.0683 811.217 35.885 811.217 36.865V37.18C811.217 38.2767 811.369 39.1633 811.672 39.84C811.999 40.5167 812.5 41.0183 813.177 41.345C813.854 41.6483 814.705 41.8 815.732 41.8C816.619 41.8 817.54 41.6717 818.497 41.415C819.477 41.135 820.34 40.7383 821.087 40.225L822.627 44.32C821.74 44.95 820.655 45.4517 819.372 45.825C818.089 46.1983 816.817 46.385 815.557 46.385ZM825.591 46V28.78H831.646V33.015H831.296C831.529 31.615 832.113 30.53 833.046 29.76C834.003 28.9667 835.251 28.5233 836.791 28.43L838.506 28.29L838.856 33.54L835.461 33.855C834.224 33.9717 833.326 34.3217 832.766 34.905C832.206 35.465 831.926 36.305 831.926 37.425V46H825.591ZM844.486 33.155L842.141 31.265C842.747 30.6817 843.237 30.1217 843.611 29.585C843.984 29.0483 844.252 28.5117 844.416 27.975C844.579 27.415 844.661 26.8317 844.661 26.225L846.061 27.695H841.546V21.325H848.021V25.35C848.021 26.3067 847.904 27.2167 847.671 28.08C847.461 28.9433 847.099 29.7833 846.586 30.6C846.072 31.4167 845.372 32.2683 844.486 33.155ZM852.536 33.155L850.191 31.265C850.797 30.6817 851.287 30.1217 851.661 29.585C852.034 29.0483 852.302 28.5117 852.466 27.975C852.629 27.415 852.711 26.8317 852.711 26.225L854.111 27.695H849.596V21.325H856.071V25.35C856.071 26.3067 855.954 27.2167 855.721 28.08C855.511 28.9433 855.149 29.7833 854.636 30.6C854.122 31.4167 853.422 32.2683 852.536 33.155Z" fill="#222120"/>
<rect width="1379" height="79" transform="translate(54 68)" fill="white"/>
<path d="M132.049 119.385C130.999 119.385 129.984 119.315 129.004 119.175C128.047 119.035 127.172 118.825 126.379 118.545C125.585 118.265 124.874 117.927 124.244 117.53L125.679 113.505C126.262 113.832 126.904 114.123 127.604 114.38C128.327 114.637 129.074 114.835 129.844 114.975C130.614 115.115 131.36 115.185 132.084 115.185C132.947 115.185 133.565 115.068 133.939 114.835C134.312 114.578 134.499 114.252 134.499 113.855C134.499 113.505 134.37 113.237 134.114 113.05C133.88 112.863 133.542 112.735 133.099 112.665L129.214 112.035C127.767 111.778 126.647 111.253 125.854 110.46C125.06 109.643 124.664 108.582 124.664 107.275C124.664 106.062 125.002 105.023 125.679 104.16C126.379 103.273 127.324 102.597 128.514 102.13C129.727 101.64 131.115 101.395 132.679 101.395C133.519 101.395 134.347 101.465 135.164 101.605C135.98 101.722 136.762 101.92 137.509 102.2C138.255 102.457 138.932 102.807 139.539 103.25L137.999 107.205C137.555 106.878 137.03 106.598 136.424 106.365C135.817 106.132 135.187 105.945 134.534 105.805C133.904 105.642 133.32 105.56 132.784 105.56C131.827 105.56 131.15 105.688 130.754 105.945C130.357 106.202 130.159 106.528 130.159 106.925C130.159 107.228 130.264 107.485 130.474 107.695C130.684 107.882 131.01 108.01 131.454 108.08L135.339 108.745C136.832 108.978 137.975 109.492 138.769 110.285C139.585 111.055 139.994 112.105 139.994 113.435C139.994 114.695 139.667 115.768 139.014 116.655C138.36 117.542 137.439 118.218 136.249 118.685C135.059 119.152 133.659 119.385 132.049 119.385ZM149.342 119.385C146.962 119.385 145.235 118.79 144.162 117.6C143.089 116.387 142.552 114.567 142.552 112.14V94.325H148.782V111.93C148.782 112.443 148.852 112.887 148.992 113.26C149.155 113.633 149.4 113.913 149.727 114.1C150.077 114.287 150.509 114.38 151.022 114.38C151.255 114.38 151.489 114.368 151.722 114.345C151.979 114.322 152.224 114.287 152.457 114.24L152.387 119C151.92 119.14 151.43 119.233 150.917 119.28C150.427 119.35 149.902 119.385 149.342 119.385ZM163.264 119.385C161.351 119.385 159.682 119.023 158.259 118.3C156.836 117.577 155.727 116.538 154.934 115.185C154.141 113.832 153.744 112.233 153.744 110.39C153.744 108.523 154.141 106.925 154.934 105.595C155.727 104.242 156.836 103.203 158.259 102.48C159.682 101.757 161.351 101.395 163.264 101.395C165.177 101.395 166.846 101.757 168.269 102.48C169.692 103.203 170.789 104.242 171.559 105.595C172.352 106.925 172.749 108.523 172.749 110.39C172.749 112.233 172.352 113.832 171.559 115.185C170.789 116.538 169.692 117.577 168.269 118.3C166.846 119.023 165.177 119.385 163.264 119.385ZM163.264 114.8C164.197 114.8 164.967 114.45 165.574 113.75C166.181 113.05 166.484 111.93 166.484 110.39C166.484 108.827 166.181 107.707 165.574 107.03C164.967 106.33 164.197 105.98 163.264 105.98C162.307 105.98 161.526 106.33 160.919 107.03C160.312 107.707 160.009 108.827 160.009 110.39C160.009 111.93 160.312 113.05 160.919 113.75C161.526 114.45 162.307 114.8 163.264 114.8ZM184.463 119.385C181.849 119.385 179.913 118.778 178.653 117.565C177.393 116.352 176.763 114.52 176.763 112.07V106.365H173.543V101.78H176.763V96.775H182.993V101.78H187.893V106.365H182.993V111.86C182.993 112.723 183.191 113.365 183.588 113.785C184.008 114.182 184.661 114.38 185.548 114.38C185.828 114.38 186.131 114.345 186.458 114.275C186.808 114.205 187.193 114.123 187.613 114.03L188.453 118.51C187.916 118.79 187.286 119 186.563 119.14C185.863 119.303 185.163 119.385 184.463 119.385ZM200.035 105.805V101.815C200.035 100.835 200.151 99.925 200.385 99.085C200.618 98.2217 200.991 97.3817 201.505 96.565C202.018 95.725 202.706 94.8733 203.57 94.01L205.95 95.865C205.343 96.4717 204.853 97.0433 204.48 97.58C204.106 98.1167 203.826 98.665 203.64 99.225C203.476 99.7617 203.395 100.345 203.395 100.975L202.03 99.435H206.51V105.805H200.035ZM208.085 105.805V101.815C208.085 100.835 208.201 99.925 208.435 99.085C208.668 98.2217 209.041 97.3817 209.555 96.565C210.068 95.725 210.756 94.8733 211.62 94.01L214 95.865C213.393 96.4717 212.903 97.0433 212.53 97.58C212.156 98.1167 211.876 98.665 211.69 99.225C211.526 99.7617 211.445 100.345 211.445 100.975L210.08 99.435H214.56V105.805H208.085ZM217.918 119V94.325H224.148V104.79H223.588C224.148 103.693 224.941 102.853 225.968 102.27C227.018 101.687 228.208 101.395 229.538 101.395C230.915 101.395 232.046 101.663 232.933 102.2C233.82 102.713 234.485 103.53 234.928 104.65C235.371 105.747 235.593 107.135 235.593 108.815V119H229.363V109.06C229.363 108.36 229.281 107.8 229.118 107.38C228.955 106.937 228.71 106.622 228.383 106.435C228.08 106.248 227.695 106.155 227.228 106.155C226.598 106.155 226.05 106.295 225.583 106.575C225.116 106.832 224.755 107.205 224.498 107.695C224.265 108.185 224.148 108.768 224.148 109.445V119H217.918ZM248.524 119.385C246.424 119.385 244.604 119.023 243.064 118.3C241.547 117.553 240.38 116.503 239.564 115.15C238.747 113.797 238.339 112.198 238.339 110.355C238.339 108.582 238.724 107.03 239.494 105.7C240.287 104.347 241.36 103.297 242.714 102.55C244.09 101.78 245.654 101.395 247.404 101.395C249.154 101.395 250.659 101.757 251.919 102.48C253.179 103.203 254.147 104.242 254.824 105.595C255.524 106.925 255.874 108.488 255.874 110.285V111.65H243.554V108.71H251.324L250.764 109.165C250.764 107.905 250.495 106.972 249.959 106.365C249.422 105.735 248.664 105.42 247.684 105.42C246.96 105.42 246.33 105.595 245.794 105.945C245.28 106.272 244.884 106.762 244.604 107.415C244.324 108.068 244.184 108.885 244.184 109.865V110.18C244.184 111.277 244.335 112.163 244.639 112.84C244.965 113.517 245.467 114.018 246.144 114.345C246.82 114.648 247.672 114.8 248.699 114.8C249.585 114.8 250.507 114.672 251.464 114.415C252.444 114.135 253.307 113.738 254.054 113.225L255.594 117.32C254.707 117.95 253.622 118.452 252.339 118.825C251.055 119.198 249.784 119.385 248.524 119.385ZM264.543 119.385C263.213 119.385 262.034 119.14 261.008 118.65C260.004 118.16 259.211 117.495 258.628 116.655C258.068 115.792 257.788 114.812 257.788 113.715C257.788 112.455 258.114 111.463 258.768 110.74C259.421 110.017 260.471 109.503 261.918 109.2C263.364 108.873 265.289 108.71 267.693 108.71H269.618V111.65H267.693C267.016 111.65 266.421 111.685 265.908 111.755C265.418 111.825 265.009 111.942 264.683 112.105C264.356 112.245 264.111 112.432 263.948 112.665C263.784 112.898 263.703 113.167 263.703 113.47C263.703 114.007 263.889 114.45 264.263 114.8C264.659 115.15 265.219 115.325 265.943 115.325C266.526 115.325 267.039 115.197 267.483 114.94C267.949 114.683 268.323 114.333 268.603 113.89C268.883 113.423 269.023 112.887 269.023 112.28V108.22C269.023 107.38 268.801 106.785 268.358 106.435C267.938 106.085 267.203 105.91 266.153 105.91C265.266 105.91 264.286 106.05 263.213 106.33C262.139 106.61 261.089 107.042 260.063 107.625L258.488 103.53C259.094 103.11 259.841 102.737 260.728 102.41C261.638 102.083 262.594 101.838 263.598 101.675C264.624 101.488 265.569 101.395 266.433 101.395C268.346 101.395 269.921 101.675 271.158 102.235C272.418 102.772 273.351 103.612 273.958 104.755C274.588 105.875 274.903 107.322 274.903 109.095V119H269.093V115.745H269.303C269.186 116.492 268.918 117.133 268.498 117.67C268.078 118.207 267.529 118.627 266.853 118.93C266.176 119.233 265.406 119.385 264.543 119.385ZM285.17 119.385C283.7 119.385 282.394 119.023 281.25 118.3C280.13 117.577 279.244 116.538 278.59 115.185C277.96 113.832 277.645 112.233 277.645 110.39C277.645 108.5 277.96 106.89 278.59 105.56C279.244 104.23 280.13 103.203 281.25 102.48C282.394 101.757 283.7 101.395 285.17 101.395C286.454 101.395 287.609 101.698 288.635 102.305C289.662 102.912 290.35 103.693 290.7 104.65H290.315V94.325H296.545V119H290.455V115.885H290.77C290.444 116.935 289.755 117.787 288.705 118.44C287.679 119.07 286.5 119.385 285.17 119.385ZM287.165 114.8C288.099 114.8 288.869 114.45 289.475 113.75C290.082 113.05 290.385 111.93 290.385 110.39C290.385 108.827 290.082 107.707 289.475 107.03C288.869 106.33 288.099 105.98 287.165 105.98C286.209 105.98 285.427 106.33 284.82 107.03C284.214 107.707 283.91 108.827 283.91 110.39C283.91 111.93 284.214 113.05 284.82 113.75C285.427 114.45 286.209 114.8 287.165 114.8ZM306.944 119.385C304.564 119.385 302.838 118.79 301.764 117.6C300.691 116.387 300.154 114.567 300.154 112.14V94.325H306.384V111.93C306.384 112.443 306.454 112.887 306.594 113.26C306.758 113.633 307.003 113.913 307.329 114.1C307.679 114.287 308.111 114.38 308.624 114.38C308.858 114.38 309.091 114.368 309.324 114.345C309.581 114.322 309.826 114.287 310.059 114.24L309.989 119C309.523 119.14 309.033 119.233 308.519 119.28C308.029 119.35 307.504 119.385 306.944 119.385ZM312.147 98.805V93.17H318.692V98.805H312.147ZM312.322 119V101.78H318.552V119H312.322ZM322.166 119V101.78H328.221V104.79H327.836C328.396 103.693 329.19 102.853 330.216 102.27C331.266 101.687 332.456 101.395 333.786 101.395C335.163 101.395 336.295 101.663 337.181 102.2C338.068 102.713 338.733 103.53 339.176 104.65C339.62 105.747 339.841 107.135 339.841 108.815V119H333.611V109.06C333.611 108.36 333.53 107.8 333.366 107.38C333.203 106.937 332.958 106.622 332.631 106.435C332.328 106.248 331.943 106.155 331.476 106.155C330.846 106.155 330.298 106.295 329.831 106.575C329.365 106.832 329.003 107.205 328.746 107.695C328.513 108.185 328.396 108.768 328.396 109.445V119H322.166ZM352.772 119.385C350.672 119.385 348.852 119.023 347.312 118.3C345.795 117.553 344.628 116.503 343.812 115.15C342.995 113.797 342.587 112.198 342.587 110.355C342.587 108.582 342.972 107.03 343.742 105.7C344.535 104.347 345.608 103.297 346.962 102.55C348.338 101.78 349.902 101.395 351.652 101.395C353.402 101.395 354.907 101.757 356.167 102.48C357.427 103.203 358.395 104.242 359.072 105.595C359.772 106.925 360.122 108.488 360.122 110.285V111.65H347.802V108.71H355.572L355.012 109.165C355.012 107.905 354.743 106.972 354.207 106.365C353.67 105.735 352.912 105.42 351.932 105.42C351.208 105.42 350.578 105.595 350.042 105.945C349.528 106.272 349.132 106.762 348.852 107.415C348.572 108.068 348.432 108.885 348.432 109.865V110.18C348.432 111.277 348.583 112.163 348.887 112.84C349.213 113.517 349.715 114.018 350.392 114.345C351.068 114.648 351.92 114.8 352.947 114.8C353.833 114.8 354.755 114.672 355.712 114.415C356.692 114.135 357.555 113.738 358.302 113.225L359.842 117.32C358.955 117.95 357.87 118.452 356.587 118.825C355.303 119.198 354.032 119.385 352.772 119.385ZM364.508 106.155L362.163 104.265C362.77 103.682 363.26 103.122 363.633 102.585C364.006 102.048 364.275 101.512 364.438 100.975C364.601 100.415 364.683 99.8317 364.683 99.225L366.083 100.695H361.568V94.325H368.043V98.35C368.043 99.3067 367.926 100.217 367.693 101.08C367.483 101.943 367.121 102.783 366.608 103.6C366.095 104.417 365.395 105.268 364.508 106.155ZM372.558 106.155L370.213 104.265C370.82 103.682 371.31 103.122 371.683 102.585C372.056 102.048 372.325 101.512 372.488 100.975C372.651 100.415 372.733 99.8317 372.733 99.225L374.133 100.695H369.618V94.325H376.093V98.35C376.093 99.3067 375.976 100.217 375.743 101.08C375.533 101.943 375.171 102.783 374.658 103.6C374.145 104.417 373.445 105.268 372.558 106.155Z" fill="#222120"/>
<path d="M625.382 89.144C624.838 89.144 624.347 89.0373 623.91 88.824C623.483 88.6107 623.147 88.3227 622.902 87.96C622.657 87.5973 622.534 87.1867 622.534 86.728C622.534 86.152 622.678 85.6987 622.966 85.368C623.265 85.0267 623.75 84.7867 624.422 84.648C625.105 84.4987 626.022 84.424 627.174 84.424H627.926V85.416H627.19C626.614 85.416 626.129 85.4373 625.734 85.48C625.339 85.5227 625.025 85.592 624.79 85.688C624.555 85.7733 624.385 85.896 624.278 86.056C624.182 86.216 624.134 86.408 624.134 86.632C624.134 87.0373 624.273 87.368 624.55 87.624C624.827 87.8693 625.211 87.992 625.702 87.992C626.097 87.992 626.443 87.9013 626.742 87.72C627.041 87.528 627.275 87.272 627.446 86.952C627.627 86.632 627.718 86.264 627.718 85.848V84.008C627.718 83.4 627.59 82.9627 627.334 82.696C627.078 82.4293 626.657 82.296 626.07 82.296C625.622 82.296 625.174 82.3653 624.726 82.504C624.278 82.632 623.819 82.84 623.35 83.128L622.854 81.992C623.131 81.8 623.451 81.6347 623.814 81.496C624.177 81.3573 624.555 81.2507 624.95 81.176C625.355 81.0907 625.745 81.048 626.118 81.048C626.833 81.048 627.419 81.16 627.878 81.384C628.347 81.608 628.694 81.9493 628.918 82.408C629.142 82.8667 629.254 83.4587 629.254 84.184V89H627.734V87.256H627.878C627.793 87.6507 627.633 87.992 627.398 88.28C627.174 88.5573 626.891 88.7707 626.55 88.92C626.209 89.0693 625.819 89.144 625.382 89.144ZM631.48 91.88V81.192H633.064V82.952H632.888C633.058 82.376 633.394 81.9173 633.896 81.576C634.397 81.224 634.989 81.048 635.672 81.048C636.365 81.048 636.968 81.2133 637.48 81.544C638.002 81.8747 638.402 82.3387 638.68 82.936C638.968 83.5333 639.112 84.2533 639.112 85.096C639.112 85.9173 638.968 86.6373 638.68 87.256C638.402 87.864 638.008 88.3333 637.496 88.664C636.984 88.984 636.376 89.144 635.672 89.144C635 89.144 634.413 88.9733 633.912 88.632C633.41 88.2907 633.074 87.8373 632.904 87.272H633.096V91.88H631.48ZM635.272 87.896C635.944 87.896 636.477 87.656 636.872 87.176C637.277 86.696 637.48 86.0027 637.48 85.096C637.48 84.1787 637.277 83.4853 636.872 83.016C636.477 82.5467 635.944 82.312 635.272 82.312C634.61 82.312 634.077 82.5467 633.672 83.016C633.266 83.4853 633.064 84.1787 633.064 85.096C633.064 86.0027 633.266 86.696 633.672 87.176C634.077 87.656 634.61 87.896 635.272 87.896ZM640.933 91.88V81.192H642.517V82.952H642.341C642.512 82.376 642.848 81.9173 643.349 81.576C643.85 81.224 644.442 81.048 645.125 81.048C645.818 81.048 646.421 81.2133 646.933 81.544C647.456 81.8747 647.856 82.3387 648.133 82.936C648.421 83.5333 648.565 84.2533 648.565 85.096C648.565 85.9173 648.421 86.6373 648.133 87.256C647.856 87.864 647.461 88.3333 646.949 88.664C646.437 88.984 645.829 89.144 645.125 89.144C644.453 89.144 643.866 88.9733 643.365 88.632C642.864 88.2907 642.528 87.8373 642.357 87.272H642.549V91.88H640.933ZM644.725 87.896C645.397 87.896 645.93 87.656 646.325 87.176C646.73 86.696 646.933 86.0027 646.933 85.096C646.933 84.1787 646.73 83.4853 646.325 83.016C645.93 82.5467 645.397 82.312 644.725 82.312C644.064 82.312 643.53 82.5467 643.125 83.016C642.72 83.4853 642.517 84.1787 642.517 85.096C642.517 86.0027 642.72 86.696 643.125 87.176C643.53 87.656 644.064 87.896 644.725 87.896ZM653.122 89.144C652.706 89.144 652.301 89.1067 651.906 89.032C651.511 88.9573 651.149 88.8507 650.818 88.712C650.487 88.5733 650.194 88.4027 649.938 88.2L650.402 87.112C650.669 87.2933 650.951 87.4533 651.25 87.592C651.549 87.72 651.858 87.816 652.178 87.88C652.509 87.944 652.829 87.976 653.138 87.976C653.703 87.976 654.13 87.8747 654.418 87.672C654.706 87.4693 654.85 87.1973 654.85 86.856C654.85 86.5787 654.754 86.3653 654.562 86.216C654.37 86.056 654.082 85.9333 653.698 85.848L652.178 85.544C651.517 85.4053 651.015 85.16 650.674 84.808C650.333 84.456 650.162 84.008 650.162 83.464C650.162 82.9733 650.295 82.5467 650.562 82.184C650.829 81.8213 651.202 81.544 651.682 81.352C652.162 81.1493 652.717 81.048 653.346 81.048C653.709 81.048 654.061 81.0853 654.402 81.16C654.743 81.2347 655.063 81.3413 655.362 81.48C655.671 81.6187 655.933 81.7947 656.146 82.008L655.682 83.096C655.479 82.9147 655.245 82.76 654.978 82.632C654.722 82.504 654.455 82.408 654.178 82.344C653.901 82.2693 653.623 82.232 653.346 82.232C652.781 82.232 652.354 82.3387 652.066 82.552C651.789 82.7547 651.65 83.032 651.65 83.384C651.65 83.6507 651.735 83.8693 651.906 84.04C652.077 84.2107 652.343 84.3333 652.706 84.408L654.226 84.712C654.919 84.8507 655.442 85.0853 655.794 85.416C656.157 85.7467 656.338 86.1947 656.338 86.76C656.338 87.2507 656.205 87.6773 655.938 88.04C655.671 88.4027 655.293 88.68 654.802 88.872C654.322 89.0533 653.762 89.144 653.122 89.144ZM658.136 89V77.72H659.752V82.856H659.528C659.763 82.2587 660.131 81.8107 660.632 81.512C661.133 81.2027 661.709 81.048 662.36 81.048C662.979 81.048 663.491 81.1653 663.896 81.4C664.312 81.624 664.621 81.9707 664.824 82.44C665.027 82.8987 665.128 83.48 665.128 84.184V89H663.512V84.28C663.512 83.832 663.453 83.4693 663.336 83.192C663.219 82.904 663.043 82.6907 662.808 82.552C662.573 82.4133 662.269 82.344 661.896 82.344C661.469 82.344 661.091 82.4347 660.76 82.616C660.44 82.7973 660.189 83.0587 660.008 83.4C659.837 83.7413 659.752 84.136 659.752 84.584V89H658.136ZM671.019 89.144C670.165 89.144 669.429 88.984 668.811 88.664C668.203 88.3333 667.728 87.8693 667.387 87.272C667.056 86.664 666.891 85.944 666.891 85.112C666.891 84.3013 667.056 83.592 667.387 82.984C667.717 82.376 668.171 81.9013 668.747 81.56C669.323 81.2187 669.979 81.048 670.715 81.048C671.44 81.048 672.059 81.208 672.571 81.528C673.093 81.8373 673.493 82.28 673.771 82.856C674.048 83.432 674.187 84.12 674.187 84.92V85.464H668.171V84.472H673.099L672.827 84.696C672.827 83.896 672.651 83.2773 672.299 82.84C671.947 82.4027 671.44 82.184 670.779 82.184C670.277 82.184 669.851 82.3013 669.499 82.536C669.157 82.7707 668.896 83.096 668.715 83.512C668.533 83.928 668.443 84.4133 668.443 84.968V85.064C668.443 85.6827 668.539 86.2053 668.731 86.632C668.933 87.048 669.227 87.3627 669.611 87.576C669.995 87.7893 670.469 87.896 671.035 87.896C671.483 87.896 671.92 87.8267 672.347 87.688C672.784 87.5387 673.195 87.3093 673.579 87L674.059 88.12C673.707 88.44 673.253 88.6907 672.699 88.872C672.144 89.0533 671.584 89.144 671.019 89.144ZM678.493 89.144C677.639 89.144 676.999 88.904 676.573 88.424C676.157 87.9333 675.949 87.2293 675.949 86.312V77.72H677.565V86.216C677.565 86.5573 677.613 86.8507 677.709 87.096C677.805 87.3307 677.949 87.5067 678.141 87.624C678.333 87.7413 678.573 87.8 678.861 87.8C678.989 87.8 679.111 87.7947 679.229 87.784C679.346 87.7733 679.458 87.752 679.565 87.72L679.533 89.016C679.351 89.0587 679.175 89.0907 679.005 89.112C678.834 89.1333 678.663 89.144 678.493 89.144ZM683.383 89.144C682.53 89.144 681.89 88.904 681.463 88.424C681.047 87.9333 680.839 87.2293 680.839 86.312V77.72H682.455V86.216C682.455 86.5573 682.503 86.8507 682.599 87.096C682.695 87.3307 682.839 87.5067 683.031 87.624C683.223 87.7413 683.463 87.8 683.751 87.8C683.879 87.8 684.002 87.7947 684.119 87.784C684.236 87.7733 684.348 87.752 684.455 87.72L684.423 89.016C684.242 89.0587 684.066 89.0907 683.895 89.112C683.724 89.1333 683.554 89.144 683.383 89.144ZM693.261 89.144C692.29 89.144 691.56 88.8933 691.069 88.392C690.589 87.8907 690.349 87.1653 690.349 86.216V82.44H688.829V81.192H690.349V78.84H691.965V81.192H694.381V82.44H691.965V86.088C691.965 86.6533 692.082 87.08 692.317 87.368C692.562 87.656 692.957 87.8 693.501 87.8C693.661 87.8 693.821 87.7787 693.981 87.736C694.152 87.6933 694.317 87.6507 694.477 87.608L694.733 88.824C694.573 88.92 694.349 88.9947 694.061 89.048C693.784 89.112 693.517 89.144 693.261 89.144ZM695.633 79.384V77.704H697.521V79.384H695.633ZM695.777 89V81.192H697.393V89H695.777ZM702.995 89.144C702.025 89.144 701.294 88.8933 700.803 88.392C700.323 87.8907 700.083 87.1653 700.083 86.216V82.44H698.563V81.192H700.083V78.84H701.699V81.192H704.115V82.44H701.699V86.088C701.699 86.6533 701.817 87.08 702.051 87.368C702.297 87.656 702.691 87.8 703.235 87.8C703.395 87.8 703.555 87.7787 703.715 87.736C703.886 87.6933 704.051 87.6507 704.211 87.608L704.467 88.824C704.307 88.92 704.083 88.9947 703.795 89.048C703.518 89.112 703.251 89.144 702.995 89.144ZM708.055 89.144C707.202 89.144 706.562 88.904 706.135 88.424C705.719 87.9333 705.511 87.2293 705.511 86.312V77.72H707.127V86.216C707.127 86.5573 707.175 86.8507 707.271 87.096C707.367 87.3307 707.511 87.5067 707.703 87.624C707.895 87.7413 708.135 87.8 708.423 87.8C708.551 87.8 708.674 87.7947 708.791 87.784C708.908 87.7733 709.02 87.752 709.127 87.72L709.095 89.016C708.914 89.0587 708.738 89.0907 708.567 89.112C708.396 89.1333 708.226 89.144 708.055 89.144ZM713.988 89.144C713.134 89.144 712.398 88.984 711.78 88.664C711.172 88.3333 710.697 87.8693 710.356 87.272C710.025 86.664 709.86 85.944 709.86 85.112C709.86 84.3013 710.025 83.592 710.356 82.984C710.686 82.376 711.14 81.9013 711.716 81.56C712.292 81.2187 712.948 81.048 713.684 81.048C714.409 81.048 715.028 81.208 715.54 81.528C716.062 81.8373 716.462 82.28 716.74 82.856C717.017 83.432 717.156 84.12 717.156 84.92V85.464H711.14V84.472H716.068L715.796 84.696C715.796 83.896 715.62 83.2773 715.268 82.84C714.916 82.4027 714.409 82.184 713.748 82.184C713.246 82.184 712.82 82.3013 712.468 82.536C712.126 82.7707 711.865 83.096 711.684 83.512C711.502 83.928 711.412 84.4133 711.412 84.968V85.064C711.412 85.6827 711.508 86.2053 711.7 86.632C711.902 87.048 712.196 87.3627 712.58 87.576C712.964 87.7893 713.438 87.896 714.004 87.896C714.452 87.896 714.889 87.8267 715.316 87.688C715.753 87.5387 716.164 87.3093 716.548 87L717.028 88.12C716.676 88.44 716.222 88.6907 715.668 88.872C715.113 89.0533 714.553 89.144 713.988 89.144ZM725.856 89.144C725.44 89.144 725.035 89.1067 724.64 89.032C724.246 88.9573 723.883 88.8507 723.552 88.712C723.222 88.5733 722.928 88.4027 722.672 88.2L723.136 87.112C723.403 87.2933 723.686 87.4533 723.984 87.592C724.283 87.72 724.592 87.816 724.912 87.88C725.243 87.944 725.563 87.976 725.872 87.976C726.438 87.976 726.864 87.8747 727.152 87.672C727.44 87.4693 727.584 87.1973 727.584 86.856C727.584 86.5787 727.488 86.3653 727.296 86.216C727.104 86.056 726.816 85.9333 726.432 85.848L724.912 85.544C724.251 85.4053 723.75 85.16 723.408 84.808C723.067 84.456 722.896 84.008 722.896 83.464C722.896 82.9733 723.03 82.5467 723.296 82.184C723.563 81.8213 723.936 81.544 724.416 81.352C724.896 81.1493 725.451 81.048 726.08 81.048C726.443 81.048 726.795 81.0853 727.136 81.16C727.478 81.2347 727.798 81.3413 728.096 81.48C728.406 81.6187 728.667 81.7947 728.88 82.008L728.416 83.096C728.214 82.9147 727.979 82.76 727.712 82.632C727.456 82.504 727.19 82.408 726.912 82.344C726.635 82.2693 726.358 82.232 726.08 82.232C725.515 82.232 725.088 82.3387 724.8 82.552C724.523 82.7547 724.384 83.032 724.384 83.384C724.384 83.6507 724.47 83.8693 724.64 84.04C724.811 84.2107 725.078 84.3333 725.44 84.408L726.96 84.712C727.654 84.8507 728.176 85.0853 728.528 85.416C728.891 85.7467 729.072 86.1947 729.072 86.76C729.072 87.2507 728.939 87.6773 728.672 88.04C728.406 88.4027 728.027 88.68 727.536 88.872C727.056 89.0533 726.496 89.144 725.856 89.144ZM733.414 89.144C732.561 89.144 731.921 88.904 731.494 88.424C731.078 87.9333 730.87 87.2293 730.87 86.312V77.72H732.486V86.216C732.486 86.5573 732.534 86.8507 732.63 87.096C732.726 87.3307 732.87 87.5067 733.062 87.624C733.254 87.7413 733.494 87.8 733.782 87.8C733.91 87.8 734.033 87.7947 734.15 87.784C734.268 87.7733 734.38 87.752 734.486 87.72L734.454 89.016C734.273 89.0587 734.097 89.0907 733.926 89.112C733.756 89.1333 733.585 89.144 733.414 89.144ZM739.075 89.144C738.286 89.144 737.603 88.9787 737.027 88.648C736.462 88.3173 736.019 87.848 735.699 87.24C735.379 86.632 735.219 85.9173 735.219 85.096C735.219 84.264 735.379 83.5493 735.699 82.952C736.019 82.344 736.462 81.8747 737.027 81.544C737.603 81.2133 738.286 81.048 739.075 81.048C739.854 81.048 740.526 81.2133 741.091 81.544C741.667 81.8747 742.115 82.344 742.435 82.952C742.755 83.56 742.915 84.2747 742.915 85.096C742.915 85.9173 742.755 86.632 742.435 87.24C742.115 87.848 741.667 88.3173 741.091 88.648C740.526 88.9787 739.854 89.144 739.075 89.144ZM739.059 87.896C739.731 87.896 740.27 87.656 740.675 87.176C741.08 86.696 741.283 86.0027 741.283 85.096C741.283 84.1787 741.08 83.4853 740.675 83.016C740.27 82.5467 739.731 82.312 739.059 82.312C738.398 82.312 737.864 82.5467 737.459 83.016C737.054 83.4853 736.851 84.1787 736.851 85.096C736.851 86.0027 737.054 86.696 737.459 87.176C737.864 87.656 738.398 87.896 739.059 87.896ZM747.98 89.144C747.009 89.144 746.278 88.8933 745.788 88.392C745.308 87.8907 745.068 87.1653 745.068 86.216V82.44H743.548V81.192H745.068V78.84H746.684V81.192H749.1V82.44H746.684V86.088C746.684 86.6533 746.801 87.08 747.036 87.368C747.281 87.656 747.676 87.8 748.22 87.8C748.38 87.8 748.54 87.7787 748.7 87.736C748.87 87.6933 749.036 87.6507 749.196 87.608L749.452 88.824C749.292 88.92 749.068 88.9947 748.78 89.048C748.502 89.112 748.236 89.144 747.98 89.144ZM754.507 81.48V80.184C754.507 79.864 754.539 79.56 754.603 79.272C754.677 78.984 754.795 78.7013 754.955 78.424C755.125 78.1467 755.344 77.8747 755.611 77.608L756.331 78.168C756.128 78.3813 755.963 78.584 755.835 78.776C755.717 78.968 755.632 79.16 755.579 79.352C755.536 79.5333 755.515 79.7253 755.515 79.928L755.067 79.576H756.411V81.48H754.507ZM757.371 81.48V80.184C757.371 79.864 757.403 79.56 757.467 79.272C757.541 78.984 757.659 78.7013 757.819 78.424C757.989 78.1467 758.208 77.8747 758.475 77.608L759.195 78.168C758.992 78.3813 758.827 78.584 758.699 78.776C758.581 78.968 758.496 79.16 758.443 79.352C758.4 79.5333 758.379 79.7253 758.379 79.928L757.931 79.576H759.275V81.48H757.371ZM761.355 89V81.192H762.923V82.856H762.747C762.981 82.2587 763.349 81.8107 763.851 81.512C764.352 81.2027 764.928 81.048 765.579 81.048C766.197 81.048 766.709 81.1653 767.115 81.4C767.531 81.624 767.84 81.9707 768.043 82.44C768.245 82.8987 768.347 83.48 768.347 84.184V89H766.731V84.28C766.731 83.832 766.672 83.4693 766.555 83.192C766.437 82.904 766.261 82.6907 766.027 82.552C765.792 82.4133 765.488 82.344 765.115 82.344C764.688 82.344 764.309 82.4347 763.979 82.616C763.659 82.7973 763.408 83.0587 763.227 83.4C763.056 83.7413 762.971 84.136 762.971 84.584V89H761.355ZM773.07 89.144C772.526 89.144 772.035 89.0373 771.598 88.824C771.171 88.6107 770.835 88.3227 770.59 87.96C770.344 87.5973 770.222 87.1867 770.222 86.728C770.222 86.152 770.366 85.6987 770.654 85.368C770.952 85.0267 771.438 84.7867 772.11 84.648C772.792 84.4987 773.71 84.424 774.862 84.424H775.614V85.416H774.878C774.302 85.416 773.816 85.4373 773.422 85.48C773.027 85.5227 772.712 85.592 772.478 85.688C772.243 85.7733 772.072 85.896 771.966 86.056C771.87 86.216 771.822 86.408 771.822 86.632C771.822 87.0373 771.96 87.368 772.238 87.624C772.515 87.8693 772.899 87.992 773.39 87.992C773.784 87.992 774.131 87.9013 774.43 87.72C774.728 87.528 774.963 87.272 775.134 86.952C775.315 86.632 775.406 86.264 775.406 85.848V84.008C775.406 83.4 775.278 82.9627 775.022 82.696C774.766 82.4293 774.344 82.296 773.758 82.296C773.31 82.296 772.862 82.3653 772.414 82.504C771.966 82.632 771.507 82.84 771.038 83.128L770.542 81.992C770.819 81.8 771.139 81.6347 771.502 81.496C771.864 81.3573 772.243 81.2507 772.638 81.176C773.043 81.0907 773.432 81.048 773.806 81.048C774.52 81.048 775.107 81.16 775.566 81.384C776.035 81.608 776.382 81.9493 776.606 82.408C776.83 82.8667 776.942 83.4587 776.942 84.184V89H775.422V87.256H775.566C775.48 87.6507 775.32 87.992 775.086 88.28C774.862 88.5573 774.579 88.7707 774.238 88.92C773.896 89.0693 773.507 89.144 773.07 89.144ZM779.199 89V81.192H780.767V82.856H780.591C780.73 82.472 780.922 82.1467 781.167 81.88C781.413 81.6133 781.706 81.4107 782.047 81.272C782.399 81.1227 782.783 81.048 783.199 81.048C783.85 81.048 784.378 81.2027 784.783 81.512C785.189 81.8213 785.466 82.296 785.615 82.936H785.391C785.594 82.3493 785.941 81.8907 786.431 81.56C786.922 81.2187 787.493 81.048 788.143 81.048C788.741 81.048 789.231 81.1653 789.615 81.4C789.999 81.624 790.287 81.9707 790.479 82.44C790.671 82.8987 790.767 83.48 790.767 84.184V89H789.151V84.264C789.151 83.6027 789.034 83.1173 788.799 82.808C788.575 82.4987 788.202 82.344 787.679 82.344C787.295 82.344 786.959 82.4347 786.671 82.616C786.383 82.7973 786.159 83.064 785.999 83.416C785.85 83.7573 785.775 84.1627 785.775 84.632V89H784.159V84.264C784.159 83.6027 784.047 83.1173 783.823 82.808C783.599 82.4987 783.226 82.344 782.703 82.344C782.309 82.344 781.967 82.4347 781.679 82.616C781.402 82.7973 781.189 83.064 781.039 83.416C780.89 83.7573 780.815 84.1627 780.815 84.632V89H779.199ZM796.691 89.144C795.837 89.144 795.101 88.984 794.483 88.664C793.875 88.3333 793.4 87.8693 793.059 87.272C792.728 86.664 792.563 85.944 792.563 85.112C792.563 84.3013 792.728 83.592 793.059 82.984C793.389 82.376 793.843 81.9013 794.419 81.56C794.995 81.2187 795.651 81.048 796.387 81.048C797.112 81.048 797.731 81.208 798.243 81.528C798.765 81.8373 799.165 82.28 799.443 82.856C799.72 83.432 799.859 84.12 799.859 84.92V85.464H793.843V84.472H798.771L798.499 84.696C798.499 83.896 798.323 83.2773 797.971 82.84C797.619 82.4027 797.112 82.184 796.451 82.184C795.949 82.184 795.523 82.3013 795.171 82.536C794.829 82.7707 794.568 83.096 794.387 83.512C794.205 83.928 794.115 84.4133 794.115 84.968V85.064C794.115 85.6827 794.211 86.2053 794.403 86.632C794.605 87.048 794.899 87.3627 795.283 87.576C795.667 87.7893 796.141 87.896 796.707 87.896C797.155 87.896 797.592 87.8267 798.019 87.688C798.456 87.5387 798.867 87.3093 799.251 87L799.731 88.12C799.379 88.44 798.925 88.6907 798.371 88.872C797.816 89.0533 797.256 89.144 796.691 89.144ZM801.38 83.4V82.216H809.188V83.4H801.38ZM801.38 86.584V85.416H809.188V86.584H801.38ZM814.542 89.144C813.571 89.144 812.841 88.8933 812.35 88.392C811.87 87.8907 811.63 87.1653 811.63 86.216V82.44H810.11V81.192H811.63V78.84H813.246V81.192H815.662V82.44H813.246V86.088C813.246 86.6533 813.363 87.08 813.598 87.368C813.843 87.656 814.238 87.8 814.782 87.8C814.942 87.8 815.102 87.7787 815.262 87.736C815.433 87.6933 815.598 87.6507 815.758 87.608L816.014 88.824C815.854 88.92 815.63 88.9947 815.342 89.048C815.065 89.112 814.798 89.144 814.542 89.144ZM816.914 79.384V77.704H818.802V79.384H816.914ZM817.058 89V81.192H818.674V89H817.058ZM824.277 89.144C823.306 89.144 822.575 88.8933 822.085 88.392C821.605 87.8907 821.365 87.1653 821.365 86.216V82.44H819.845V81.192H821.365V78.84H822.981V81.192H825.397V82.44H822.981V86.088C822.981 86.6533 823.098 87.08 823.333 87.368C823.578 87.656 823.973 87.8 824.516 87.8C824.677 87.8 824.837 87.7787 824.997 87.736C825.167 87.6933 825.333 87.6507 825.493 87.608L825.749 88.824C825.589 88.92 825.365 88.9947 825.077 89.048C824.799 89.112 824.533 89.144 824.277 89.144ZM829.336 89.144C828.483 89.144 827.843 88.904 827.416 88.424C827 87.9333 826.792 87.2293 826.792 86.312V77.72H828.408V86.216C828.408 86.5573 828.456 86.8507 828.552 87.096C828.648 87.3307 828.792 87.5067 828.984 87.624C829.176 87.7413 829.416 87.8 829.704 87.8C829.832 87.8 829.955 87.7947 830.072 87.784C830.19 87.7733 830.302 87.752 830.408 87.72L830.376 89.016C830.195 89.0587 830.019 89.0907 829.848 89.112C829.678 89.1333 829.507 89.144 829.336 89.144ZM835.269 89.144C834.415 89.144 833.679 88.984 833.061 88.664C832.453 88.3333 831.978 87.8693 831.637 87.272C831.306 86.664 831.141 85.944 831.141 85.112C831.141 84.3013 831.306 83.592 831.637 82.984C831.967 82.376 832.421 81.9013 832.997 81.56C833.573 81.2187 834.229 81.048 834.965 81.048C835.69 81.048 836.309 81.208 836.821 81.528C837.343 81.8373 837.743 82.28 838.021 82.856C838.298 83.432 838.437 84.12 838.437 84.92V85.464H832.421V84.472H837.349L837.077 84.696C837.077 83.896 836.901 83.2773 836.549 82.84C836.197 82.4027 835.69 82.184 835.029 82.184C834.527 82.184 834.101 82.3013 833.749 82.536C833.407 82.7707 833.146 83.096 832.965 83.512C832.783 83.928 832.693 84.4133 832.693 84.968V85.064C832.693 85.6827 832.789 86.2053 832.981 86.632C833.183 87.048 833.477 87.3627 833.861 87.576C834.245 87.7893 834.719 87.896 835.285 87.896C835.733 87.896 836.17 87.8267 836.597 87.688C837.034 87.5387 837.445 87.3093 837.829 87L838.309 88.12C837.957 88.44 837.503 88.6907 836.949 88.872C836.394 89.0533 835.834 89.144 835.269 89.144ZM840.354 81.592L839.65 81.048C839.852 80.824 840.012 80.6213 840.13 80.44C840.247 80.248 840.327 80.056 840.37 79.864C840.423 79.672 840.45 79.4747 840.45 79.272L840.898 79.624H839.538V77.72H841.458V79.016C841.458 79.336 841.42 79.64 841.346 79.928C841.282 80.216 841.17 80.4987 841.01 80.776C840.85 81.0427 840.631 81.3147 840.354 81.592ZM843.218 81.592L842.514 81.048C842.716 80.824 842.876 80.6213 842.994 80.44C843.111 80.248 843.191 80.056 843.234 79.864C843.287 79.672 843.314 79.4747 843.314 79.272L843.762 79.624H842.402V77.72H844.322V79.016C844.322 79.336 844.284 79.64 844.21 79.928C844.146 80.216 844.034 80.4987 843.874 80.776C843.714 81.0427 843.495 81.3147 843.218 81.592Z" fill="#222120"/>
<path d="M631.399 133V111.85H634.519V120.97H646.369V111.85H649.459V133H646.369V123.58H634.519V133H631.399ZM655.448 133V130.39H660.248V114.49H661.808L656.498 117.79L655.238 115.48L661.148 111.85H663.338V130.39H667.838V133H655.448ZM684.617 133.27C683.597 133.27 682.677 133.07 681.857 132.67C681.057 132.27 680.427 131.73 679.967 131.05C679.507 130.37 679.277 129.6 679.277 128.74C679.277 127.66 679.547 126.81 680.087 126.19C680.647 125.55 681.557 125.1 682.817 124.84C684.097 124.56 685.817 124.42 687.977 124.42H689.387V126.28H688.007C686.927 126.28 686.017 126.32 685.277 126.4C684.537 126.48 683.947 126.61 683.507 126.79C683.067 126.95 682.747 127.18 682.547 127.48C682.367 127.78 682.277 128.14 682.277 128.56C682.277 129.32 682.537 129.94 683.057 130.42C683.577 130.88 684.297 131.11 685.217 131.11C685.957 131.11 686.607 130.94 687.167 130.6C687.727 130.24 688.167 129.76 688.487 129.16C688.827 128.56 688.997 127.87 688.997 127.09V123.64C688.997 122.5 688.757 121.68 688.277 121.18C687.797 120.68 687.007 120.43 685.907 120.43C685.067 120.43 684.227 120.56 683.387 120.82C682.547 121.06 681.687 121.45 680.807 121.99L679.877 119.86C680.397 119.5 680.997 119.19 681.677 118.93C682.357 118.67 683.067 118.47 683.807 118.33C684.567 118.17 685.297 118.09 685.997 118.09C687.337 118.09 688.437 118.3 689.297 118.72C690.177 119.14 690.827 119.78 691.247 120.64C691.667 121.5 691.877 122.61 691.877 123.97V133H689.027V129.73H689.297C689.137 130.47 688.837 131.11 688.397 131.65C687.977 132.17 687.447 132.57 686.807 132.85C686.167 133.13 685.437 133.27 684.617 133.27ZM702.5 133.27C701 133.27 699.7 132.96 698.6 132.34C697.52 131.7 696.68 130.81 696.08 129.67C695.48 128.51 695.18 127.15 695.18 125.59C695.18 124.05 695.48 122.72 696.08 121.6C696.68 120.48 697.52 119.62 698.6 119.02C699.7 118.4 701 118.09 702.5 118.09C703.42 118.09 704.33 118.25 705.23 118.57C706.13 118.87 706.87 119.31 707.45 119.89L706.49 122.02C705.95 121.5 705.34 121.12 704.66 120.88C703.98 120.62 703.34 120.49 702.74 120.49C701.32 120.49 700.22 120.94 699.44 121.84C698.68 122.72 698.3 123.98 698.3 125.62C698.3 127.26 698.68 128.55 699.44 129.49C700.22 130.41 701.32 130.87 702.74 130.87C703.34 130.87 703.98 130.75 704.66 130.51C705.34 130.25 705.95 129.86 706.49 129.34L707.45 131.5C706.87 132.04 706.12 132.47 705.2 132.79C704.3 133.11 703.4 133.27 702.5 133.27ZM716.323 133.27C714.503 133.27 713.133 132.8 712.213 131.86C711.313 130.92 710.863 129.56 710.863 127.78V120.7H708.013V118.36H710.863V113.95H713.893V118.36H718.423V120.7H713.893V127.54C713.893 128.6 714.113 129.4 714.553 129.94C715.013 130.48 715.753 130.75 716.773 130.75C717.073 130.75 717.373 130.71 717.673 130.63C717.993 130.55 718.303 130.47 718.603 130.39L719.083 132.67C718.783 132.85 718.363 132.99 717.823 133.09C717.303 133.21 716.803 133.27 716.323 133.27ZM720.77 114.97V111.82H724.31V114.97H720.77ZM721.04 133V118.36H724.07V133H721.04ZM732.625 133L726.325 118.36H729.595L734.485 130.51H733.645L738.655 118.36H741.745L735.355 133H732.625ZM743.651 114.97V111.82H747.191V114.97H743.651ZM743.921 133V118.36H746.951V133H743.921ZM757.456 133.27C755.636 133.27 754.266 132.8 753.346 131.86C752.446 130.92 751.996 129.56 751.996 127.78V120.7H749.146V118.36H751.996V113.95H755.026V118.36H759.556V120.7H755.026V127.54C755.026 128.6 755.246 129.4 755.686 129.94C756.146 130.48 756.886 130.75 757.906 130.75C758.206 130.75 758.506 130.71 758.806 130.63C759.126 130.55 759.436 130.47 759.736 130.39L760.216 132.67C759.916 132.85 759.496 132.99 758.956 133.09C758.436 133.21 757.936 133.27 757.456 133.27ZM763.878 138.4L766.758 131.98V133.27L760.368 118.36H763.608L768.528 130.51H767.688L772.668 118.36H775.788L767.058 138.4H763.878ZM792.085 133.27C790.265 133.27 788.895 132.8 787.975 131.86C787.075 130.92 786.625 129.56 786.625 127.78V120.7H783.775V118.36H786.625V113.95H789.655V118.36H794.185V120.7H789.655V127.54C789.655 128.6 789.875 129.4 790.315 129.94C790.775 130.48 791.515 130.75 792.535 130.75C792.835 130.75 793.135 130.71 793.435 130.63C793.755 130.55 794.065 130.47 794.365 130.39L794.845 132.67C794.545 132.85 794.125 132.99 793.585 133.09C793.065 133.21 792.565 133.27 792.085 133.27ZM796.532 114.97V111.82H800.072V114.97H796.532ZM796.802 133V118.36H799.832V133H796.802ZM810.337 133.27C808.517 133.27 807.147 132.8 806.227 131.86C805.327 130.92 804.877 129.56 804.877 127.78V120.7H802.027V118.36H804.877V113.95H807.907V118.36H812.437V120.7H807.907V127.54C807.907 128.6 808.127 129.4 808.567 129.94C809.027 130.48 809.767 130.75 810.787 130.75C811.087 130.75 811.387 130.71 811.687 130.63C812.007 130.55 812.317 130.47 812.617 130.39L813.097 132.67C812.797 132.85 812.377 132.99 811.837 133.09C811.317 133.21 810.817 133.27 810.337 133.27ZM819.824 133.27C818.224 133.27 817.024 132.82 816.224 131.92C815.444 131 815.054 129.68 815.054 127.96V111.85H818.084V127.78C818.084 128.42 818.174 128.97 818.354 129.43C818.534 129.87 818.804 130.2 819.164 130.42C819.524 130.64 819.974 130.75 820.514 130.75C820.754 130.75 820.984 130.74 821.204 130.72C821.424 130.7 821.634 130.66 821.834 130.6L821.774 133.03C821.434 133.11 821.104 133.17 820.784 133.21C820.464 133.25 820.144 133.27 819.824 133.27ZM830.947 133.27C829.347 133.27 827.967 132.97 826.807 132.37C825.667 131.75 824.777 130.88 824.137 129.76C823.517 128.62 823.207 127.27 823.207 125.71C823.207 124.19 823.517 122.86 824.137 121.72C824.757 120.58 825.607 119.69 826.687 119.05C827.767 118.41 828.997 118.09 830.377 118.09C831.737 118.09 832.897 118.39 833.857 118.99C834.837 119.57 835.587 120.4 836.107 121.48C836.627 122.56 836.887 123.85 836.887 125.35V126.37H825.607V124.51H834.847L834.337 124.93C834.337 123.43 834.007 122.27 833.347 121.45C832.687 120.63 831.737 120.22 830.497 120.22C829.557 120.22 828.757 120.44 828.097 120.88C827.457 121.32 826.967 121.93 826.627 122.71C826.287 123.49 826.117 124.4 826.117 125.44V125.62C826.117 126.78 826.297 127.76 826.657 128.56C827.037 129.34 827.587 129.93 828.307 130.33C829.027 130.73 829.917 130.93 830.977 130.93C831.817 130.93 832.637 130.8 833.437 130.54C834.257 130.26 835.027 129.83 835.747 129.25L836.647 131.35C835.987 131.95 835.137 132.42 834.097 132.76C833.057 133.1 832.007 133.27 830.947 133.27Z" fill="#222120"/>
<rect width="1378" height="771" transform="translate(54 172)" fill="#FFF2AF"/>
<rect x="64" y="182" width="259" height="751" fill="#D5D5D5"/>
<rect x="64" y="182" width="259" height="751" stroke="#FFF2AF" stroke-width="20"/>
<path d="M154.024 231.1L139.384 225.37V221.38L154.024 215.65V219.58L140.704 224.71V222.1L154.024 227.2V231.1ZM162.382 232.33C161.242 232.33 160.232 232.12 159.352 231.7C158.492 231.28 157.812 230.71 157.312 229.99C156.832 229.25 156.592 228.41 156.592 227.47C156.592 226.39 156.872 225.54 157.432 224.92C157.992 224.3 158.892 223.86 160.132 223.6C161.372 223.32 163.022 223.18 165.082 223.18H166.732V225.7H165.082C164.502 225.7 163.992 225.73 163.552 225.79C163.132 225.85 162.782 225.95 162.502 226.09C162.222 226.21 162.012 226.37 161.872 226.57C161.732 226.77 161.662 227 161.662 227.26C161.662 227.72 161.822 228.1 162.142 228.4C162.482 228.7 162.962 228.85 163.582 228.85C164.082 228.85 164.522 228.74 164.902 228.52C165.302 228.3 165.622 228 165.862 227.62C166.102 227.22 166.222 226.76 166.222 226.24V222.76C166.222 222.04 166.032 221.53 165.652 221.23C165.292 220.93 164.662 220.78 163.762 220.78C163.002 220.78 162.162 220.9 161.242 221.14C160.322 221.38 159.422 221.75 158.542 222.25L157.192 218.74C157.712 218.38 158.352 218.06 159.112 217.78C159.892 217.5 160.712 217.29 161.572 217.15C162.452 216.99 163.262 216.91 164.002 216.91C165.642 216.91 166.992 217.15 168.052 217.63C169.132 218.09 169.932 218.81 170.452 219.79C170.992 220.75 171.262 221.99 171.262 223.51V232H166.282V229.21H166.462C166.362 229.85 166.132 230.4 165.772 230.86C165.412 231.32 164.942 231.68 164.362 231.94C163.782 232.2 163.122 232.33 162.382 232.33ZM180.183 232.33C179.283 232.33 178.413 232.27 177.573 232.15C176.753 232.03 176.003 231.85 175.323 231.61C174.643 231.37 174.033 231.08 173.493 230.74L174.723 227.29C175.223 227.57 175.773 227.82 176.373 228.04C176.993 228.26 177.633 228.43 178.293 228.55C178.953 228.67 179.593 228.73 180.213 228.73C180.953 228.73 181.483 228.63 181.803 228.43C182.123 228.21 182.283 227.93 182.283 227.59C182.283 227.29 182.173 227.06 181.953 226.9C181.753 226.74 181.463 226.63 181.083 226.57L177.753 226.03C176.513 225.81 175.553 225.36 174.873 224.68C174.193 223.98 173.853 223.07 173.853 221.95C173.853 220.91 174.143 220.02 174.723 219.28C175.323 218.52 176.133 217.94 177.153 217.54C178.193 217.12 179.383 216.91 180.723 216.91C181.443 216.91 182.153 216.97 182.853 217.09C183.553 217.19 184.223 217.36 184.863 217.6C185.503 217.82 186.083 218.12 186.603 218.5L185.283 221.89C184.903 221.61 184.453 221.37 183.933 221.17C183.413 220.97 182.873 220.81 182.313 220.69C181.773 220.55 181.273 220.48 180.813 220.48C179.993 220.48 179.413 220.59 179.073 220.81C178.733 221.03 178.563 221.31 178.563 221.65C178.563 221.91 178.653 222.13 178.833 222.31C179.013 222.47 179.293 222.58 179.673 222.64L183.003 223.21C184.283 223.41 185.263 223.85 185.943 224.53C186.643 225.19 186.993 226.09 186.993 227.23C186.993 228.31 186.713 229.23 186.153 229.99C185.593 230.75 184.803 231.33 183.783 231.73C182.763 232.13 181.563 232.33 180.183 232.33ZM189.036 214.69V209.86H194.646V214.69H189.036ZM189.186 232V217.24H194.526V232H189.186ZM203.383 232.33C202.123 232.33 201.003 232.02 200.023 231.4C199.063 230.78 198.303 229.89 197.743 228.73C197.203 227.57 196.933 226.2 196.933 224.62C196.933 223 197.203 221.62 197.743 220.48C198.303 219.34 199.063 218.46 200.023 217.84C201.003 217.22 202.123 216.91 203.383 216.91C204.483 216.91 205.473 217.17 206.353 217.69C207.233 218.21 207.823 218.88 208.123 219.7H207.793V210.85H213.133V232H207.913V229.33H208.183C207.903 230.23 207.313 230.96 206.413 231.52C205.533 232.06 204.523 232.33 203.383 232.33ZM205.093 228.4C205.893 228.4 206.553 228.1 207.073 227.5C207.593 226.9 207.853 225.94 207.853 224.62C207.853 223.28 207.593 222.32 207.073 221.74C206.553 221.14 205.893 220.84 205.093 220.84C204.273 220.84 203.603 221.14 203.083 221.74C202.563 222.32 202.303 223.28 202.303 224.62C202.303 225.94 202.563 226.9 203.083 227.5C203.603 228.1 204.273 228.4 205.093 228.4ZM224.267 232.33C222.467 232.33 220.907 232.02 219.587 231.4C218.287 230.76 217.287 229.86 216.587 228.7C215.887 227.54 215.537 226.17 215.537 224.59C215.537 223.07 215.867 221.74 216.527 220.6C217.207 219.44 218.127 218.54 219.287 217.9C220.467 217.24 221.807 216.91 223.307 216.91C224.807 216.91 226.097 217.22 227.177 217.84C228.257 218.46 229.087 219.35 229.667 220.51C230.267 221.65 230.567 222.99 230.567 224.53V225.7H220.007V223.18H226.667L226.187 223.57C226.187 222.49 225.957 221.69 225.497 221.17C225.037 220.63 224.387 220.36 223.547 220.36C222.927 220.36 222.387 220.51 221.927 220.81C221.487 221.09 221.147 221.51 220.907 222.07C220.667 222.63 220.547 223.33 220.547 224.17V224.44C220.547 225.38 220.677 226.14 220.937 226.72C221.217 227.3 221.647 227.73 222.227 228.01C222.807 228.27 223.537 228.4 224.417 228.4C225.177 228.4 225.967 228.29 226.787 228.07C227.627 227.83 228.367 227.49 229.007 227.05L230.327 230.56C229.567 231.1 228.637 231.53 227.537 231.85C226.437 232.17 225.347 232.33 224.267 232.33ZM232.988 231.1V227.2L246.338 222.1V224.71L232.988 219.58V215.65L247.628 221.38V225.37L232.988 231.1Z" fill="#222120"/>
<rect x="343" y="182" width="1080" height="751" fill="white"/>
<rect x="343" y="182" width="1080" height="751" stroke="#FFF2AF" stroke-width="20"/>
<path d="M369.32 221.1L354.68 215.37V211.38L369.32 205.65V209.58L356 214.71V212.1L369.32 217.2V221.1ZM372.608 222V207.24H377.798V209.82H377.468C377.748 209.22 378.118 208.71 378.578 208.29C379.038 207.85 379.578 207.51 380.198 207.27C380.838 207.03 381.538 206.91 382.298 206.91C383.378 206.91 384.298 207.17 385.058 207.69C385.838 208.21 386.398 209 386.738 210.06H386.318C386.778 209.08 387.468 208.31 388.388 207.75C389.308 207.19 390.328 206.91 391.448 206.91C392.608 206.91 393.558 207.14 394.298 207.6C395.038 208.04 395.588 208.74 395.948 209.7C396.328 210.64 396.518 211.83 396.518 213.27V222H391.178V213.42C391.178 212.56 391.048 211.94 390.788 211.56C390.528 211.18 390.098 210.99 389.498 210.99C389.018 210.99 388.598 211.11 388.238 211.35C387.898 211.57 387.638 211.91 387.458 212.37C387.298 212.81 387.218 213.35 387.218 213.99V222H381.878V213.42C381.878 212.56 381.748 211.94 381.488 211.56C381.228 211.18 380.798 210.99 380.198 210.99C379.718 210.99 379.308 211.11 378.968 211.35C378.628 211.57 378.368 211.91 378.188 212.37C378.028 212.81 377.948 213.35 377.948 213.99V222H372.608ZM404.749 222.33C403.609 222.33 402.599 222.12 401.719 221.7C400.859 221.28 400.179 220.71 399.679 219.99C399.199 219.25 398.959 218.41 398.959 217.47C398.959 216.39 399.239 215.54 399.799 214.92C400.359 214.3 401.259 213.86 402.499 213.6C403.739 213.32 405.389 213.18 407.449 213.18H409.099V215.7H407.449C406.869 215.7 406.359 215.73 405.919 215.79C405.499 215.85 405.149 215.95 404.869 216.09C404.589 216.21 404.379 216.37 404.239 216.57C404.099 216.77 404.029 217 404.029 217.26C404.029 217.72 404.189 218.1 404.509 218.4C404.849 218.7 405.329 218.85 405.949 218.85C406.449 218.85 406.889 218.74 407.269 218.52C407.669 218.3 407.989 218 408.229 217.62C408.469 217.22 408.589 216.76 408.589 216.24V212.76C408.589 212.04 408.399 211.53 408.019 211.23C407.659 210.93 407.029 210.78 406.129 210.78C405.369 210.78 404.529 210.9 403.609 211.14C402.689 211.38 401.789 211.75 400.909 212.25L399.559 208.74C400.079 208.38 400.719 208.06 401.479 207.78C402.259 207.5 403.079 207.29 403.939 207.15C404.819 206.99 405.629 206.91 406.369 206.91C408.009 206.91 409.359 207.15 410.419 207.63C411.499 208.09 412.299 208.81 412.819 209.79C413.359 210.75 413.629 211.99 413.629 213.51V222H408.649V219.21H408.829C408.729 219.85 408.499 220.4 408.139 220.86C407.779 221.32 407.309 221.68 406.729 221.94C406.149 222.2 405.489 222.33 404.749 222.33ZM416.519 204.69V199.86H422.129V204.69H416.519ZM416.669 222V207.24H422.009V222H416.669ZM425.107 222V207.24H430.297V209.82H429.967C430.447 208.88 431.127 208.16 432.007 207.66C432.907 207.16 433.927 206.91 435.067 206.91C436.247 206.91 437.217 207.14 437.977 207.6C438.737 208.04 439.307 208.74 439.687 209.7C440.067 210.64 440.257 211.83 440.257 213.27V222H434.917V213.48C434.917 212.88 434.847 212.4 434.707 212.04C434.567 211.66 434.357 211.39 434.077 211.23C433.817 211.07 433.487 210.99 433.087 210.99C432.547 210.99 432.077 211.11 431.677 211.35C431.277 211.57 430.967 211.89 430.747 212.31C430.547 212.73 430.447 213.23 430.447 213.81V222H425.107ZM443.42 221.1V217.2L456.77 212.1V214.71L443.42 209.58V205.65L458.06 211.38V215.37L443.42 221.1ZM471.013 222V217.53H475.723V205.44H478.243L472.153 208.92L470.143 204.93L477.343 200.85H481.213V217.53H485.623V222H471.013ZM489.001 222V217.53H493.711V205.44H496.231L490.141 208.92L488.131 204.93L495.331 200.85H499.201V217.53H503.611V222H489.001ZM513.289 222.33C511.549 222.33 510.079 221.9 508.879 221.04C507.679 220.18 506.769 218.94 506.149 217.32C505.529 215.68 505.219 213.69 505.219 211.35C505.219 208.99 505.529 207.01 506.149 205.41C506.769 203.79 507.679 202.57 508.879 201.75C510.079 200.93 511.549 200.52 513.289 200.52C515.029 200.52 516.499 200.93 517.699 201.75C518.899 202.57 519.809 203.79 520.429 205.41C521.049 207.01 521.359 208.98 521.359 211.32C521.359 213.66 521.049 215.65 520.429 217.29C519.809 218.93 518.899 220.18 517.699 221.04C516.499 221.9 515.029 222.33 513.289 222.33ZM513.289 217.95C514.249 217.95 514.959 217.43 515.419 216.39C515.899 215.33 516.139 213.64 516.139 211.32C516.139 209.02 515.899 207.38 515.419 206.4C514.959 205.4 514.249 204.9 513.289 204.9C512.329 204.9 511.609 205.4 511.129 206.4C510.669 207.38 510.439 209.03 510.439 211.35C510.439 213.65 510.669 215.33 511.129 216.39C511.609 217.43 512.329 217.95 513.289 217.95ZM531.277 222.33C529.537 222.33 528.067 221.9 526.867 221.04C525.667 220.18 524.757 218.94 524.137 217.32C523.517 215.68 523.207 213.69 523.207 211.35C523.207 208.99 523.517 207.01 524.137 205.41C524.757 203.79 525.667 202.57 526.867 201.75C528.067 200.93 529.537 200.52 531.277 200.52C533.017 200.52 534.487 200.93 535.687 201.75C536.887 202.57 537.797 203.79 538.417 205.41C539.037 207.01 539.347 208.98 539.347 211.32C539.347 213.66 539.037 215.65 538.417 217.29C537.797 218.93 536.887 220.18 535.687 221.04C534.487 221.9 533.017 222.33 531.277 222.33ZM531.277 217.95C532.237 217.95 532.947 217.43 533.407 216.39C533.887 215.33 534.127 213.64 534.127 211.32C534.127 209.02 533.887 207.38 533.407 206.4C532.947 205.4 532.237 204.9 531.277 204.9C530.317 204.9 529.597 205.4 529.117 206.4C528.657 207.38 528.427 209.03 528.427 211.35C528.427 213.65 528.657 215.33 529.117 216.39C529.597 217.43 530.317 217.95 531.277 217.95ZM541.826 227.4V207.24H547.016V209.91H546.746C547.026 209.01 547.606 208.29 548.486 207.75C549.386 207.19 550.406 206.91 551.546 206.91C552.826 206.91 553.946 207.22 554.906 207.84C555.886 208.46 556.646 209.34 557.186 210.48C557.726 211.62 557.996 213 557.996 214.62C557.996 216.2 557.726 217.57 557.186 218.73C556.646 219.89 555.886 220.78 554.906 221.4C553.946 222.02 552.826 222.33 551.546 222.33C550.446 222.33 549.456 222.07 548.576 221.55C547.696 221.03 547.106 220.35 546.806 219.51H547.166V227.4H541.826ZM549.866 218.4C550.666 218.4 551.326 218.1 551.846 217.5C552.366 216.9 552.626 215.94 552.626 214.62C552.626 213.28 552.366 212.32 551.846 211.74C551.326 211.14 550.666 210.84 549.866 210.84C549.046 210.84 548.376 211.14 547.856 211.74C547.336 212.32 547.076 213.28 547.076 214.62C547.076 215.94 547.336 216.9 547.856 217.5C548.376 218.1 549.046 218.4 549.866 218.4ZM557.769 222L564.999 213.21V215.58L558.159 207.24H564.369L567.999 211.92H566.139L569.769 207.24H575.949L569.109 215.58V213.21L576.399 222H570.159L566.139 216.9H567.969L563.949 222H557.769Z" fill="#222120"/>
<path d="M13.8646 1112.39C12.8146 1112.39 11.7996 1112.32 10.8196 1112.18C9.8629 1112.04 8.9879 1111.82 8.19457 1111.54C7.40124 1111.26 6.68957 1110.93 6.05957 1110.53L7.49457 1106.5C8.0779 1106.83 8.71957 1107.12 9.41957 1107.38C10.1429 1107.64 10.8896 1107.83 11.6596 1107.97C12.4296 1108.11 13.1762 1108.18 13.8996 1108.18C14.7629 1108.18 15.3812 1108.07 15.7546 1107.83C16.1279 1107.58 16.3146 1107.25 16.3146 1106.86C16.3146 1106.5 16.1862 1106.24 15.9296 1106.05C15.6962 1105.86 15.3579 1105.73 14.9146 1105.66L11.0296 1105.03C9.5829 1104.78 8.4629 1104.25 7.66957 1103.46C6.87624 1102.64 6.47957 1101.58 6.47957 1100.27C6.47957 1099.06 6.8179 1098.02 7.49457 1097.16C8.19457 1096.27 9.13957 1095.6 10.3296 1095.13C11.5429 1094.64 12.9312 1094.39 14.4946 1094.39C15.3346 1094.39 16.1629 1094.46 16.9796 1094.6C17.7962 1094.72 18.5779 1094.92 19.3246 1095.2C20.0712 1095.46 20.7479 1095.81 21.3546 1096.25L19.8146 1100.2C19.3712 1099.88 18.8462 1099.6 18.2396 1099.36C17.6329 1099.13 17.0029 1098.94 16.3496 1098.8C15.7196 1098.64 15.1362 1098.56 14.5996 1098.56C13.6429 1098.56 12.9662 1098.69 12.5696 1098.94C12.1729 1099.2 11.9746 1099.53 11.9746 1099.92C11.9746 1100.23 12.0796 1100.48 12.2896 1100.69C12.4996 1100.88 12.8262 1101.01 13.2696 1101.08L17.1546 1101.74C18.6479 1101.98 19.7912 1102.49 20.5846 1103.28C21.4012 1104.05 21.8096 1105.1 21.8096 1106.43C21.8096 1107.69 21.4829 1108.77 20.8296 1109.65C20.1762 1110.54 19.2546 1111.22 18.0646 1111.68C16.8746 1112.15 15.4746 1112.39 13.8646 1112.39ZM31.1579 1112.39C28.7779 1112.39 27.0512 1111.79 25.9779 1110.6C24.9045 1109.39 24.3679 1107.57 24.3679 1105.14V1087.32H30.5979V1104.93C30.5979 1105.44 30.6679 1105.89 30.8079 1106.26C30.9712 1106.63 31.2162 1106.91 31.5429 1107.1C31.8929 1107.29 32.3245 1107.38 32.8379 1107.38C33.0712 1107.38 33.3045 1107.37 33.5379 1107.34C33.7945 1107.32 34.0395 1107.29 34.2729 1107.24L34.2029 1112C33.7362 1112.14 33.2462 1112.23 32.7329 1112.28C32.2429 1112.35 31.7179 1112.39 31.1579 1112.39ZM45.0799 1112.39C43.1666 1112.39 41.4983 1112.02 40.0749 1111.3C38.6516 1110.58 37.5433 1109.54 36.7499 1108.18C35.9566 1106.83 35.5599 1105.23 35.5599 1103.39C35.5599 1101.52 35.9566 1099.92 36.7499 1098.59C37.5433 1097.24 38.6516 1096.2 40.0749 1095.48C41.4983 1094.76 43.1666 1094.39 45.0799 1094.39C46.9933 1094.39 48.6616 1094.76 50.0849 1095.48C51.5083 1096.2 52.6049 1097.24 53.3749 1098.59C54.1683 1099.92 54.5649 1101.52 54.5649 1103.39C54.5649 1105.23 54.1683 1106.83 53.3749 1108.18C52.6049 1109.54 51.5083 1110.58 50.0849 1111.3C48.6616 1112.02 46.9933 1112.39 45.0799 1112.39ZM45.0799 1107.8C46.0133 1107.8 46.7833 1107.45 47.3899 1106.75C47.9966 1106.05 48.2999 1104.93 48.2999 1103.39C48.2999 1101.83 47.9966 1100.71 47.3899 1100.03C46.7833 1099.33 46.0133 1098.98 45.0799 1098.98C44.1233 1098.98 43.3416 1099.33 42.7349 1100.03C42.1283 1100.71 41.8249 1101.83 41.8249 1103.39C41.8249 1104.93 42.1283 1106.05 42.7349 1106.75C43.3416 1107.45 44.1233 1107.8 45.0799 1107.8ZM66.2787 1112.39C63.6654 1112.39 61.7287 1111.78 60.4687 1110.56C59.2087 1109.35 58.5787 1107.52 58.5787 1105.07V1099.36H55.3587V1094.78H58.5787V1089.77H64.8087V1094.78H69.7087V1099.36H64.8087V1104.86C64.8087 1105.72 65.007 1106.36 65.4037 1106.78C65.8237 1107.18 66.477 1107.38 67.3637 1107.38C67.6437 1107.38 67.947 1107.34 68.2737 1107.27C68.6237 1107.2 69.0087 1107.12 69.4287 1107.03L70.2687 1111.51C69.732 1111.79 69.102 1112 68.3787 1112.14C67.6787 1112.3 66.9787 1112.39 66.2787 1112.39ZM81.8507 1098.8V1094.81C81.8507 1093.83 81.9674 1092.92 82.2007 1092.08C82.434 1091.22 82.8074 1090.38 83.3207 1089.56C83.834 1088.72 84.5224 1087.87 85.3857 1087.01L87.7657 1088.86C87.159 1089.47 86.669 1090.04 86.2957 1090.58C85.9224 1091.12 85.6424 1091.66 85.4557 1092.23C85.2924 1092.76 85.2107 1093.34 85.2107 1093.97L83.8457 1092.43H88.3257V1098.8H81.8507ZM89.9007 1098.8V1094.81C89.9007 1093.83 90.0174 1092.92 90.2507 1092.08C90.484 1091.22 90.8574 1090.38 91.3707 1089.56C91.884 1088.72 92.5724 1087.87 93.4357 1087.01L95.8157 1088.86C95.209 1089.47 94.719 1090.04 94.3457 1090.58C93.9724 1091.12 93.6924 1091.66 93.5057 1092.23C93.3424 1092.76 93.2607 1093.34 93.2607 1093.97L91.8957 1092.43H96.3757V1098.8H89.9007ZM101.478 1112V1099.36H98.2225V1094.78H103.263L101.478 1096.42V1095.44C101.478 1092.78 102.189 1090.79 103.613 1089.46C105.059 1088.13 107.323 1087.38 110.403 1087.22L112.503 1087.11L112.853 1091.56L111.243 1091.66C110.356 1091.71 109.644 1091.84 109.108 1092.05C108.594 1092.24 108.233 1092.52 108.023 1092.89C107.813 1093.24 107.708 1093.69 107.708 1094.25V1095.41L106.938 1094.78H112.048V1099.36H107.708V1112H101.478ZM122.429 1112.39C120.515 1112.39 118.847 1112.02 117.424 1111.3C116 1110.58 114.892 1109.54 114.099 1108.18C113.305 1106.83 112.909 1105.23 112.909 1103.39C112.909 1101.52 113.305 1099.92 114.099 1098.59C114.892 1097.24 116 1096.2 117.424 1095.48C118.847 1094.76 120.515 1094.39 122.429 1094.39C124.342 1094.39 126.01 1094.76 127.434 1095.48C128.857 1096.2 129.954 1097.24 130.724 1098.59C131.517 1099.92 131.914 1101.52 131.914 1103.39C131.914 1105.23 131.517 1106.83 130.724 1108.18C129.954 1109.54 128.857 1110.58 127.434 1111.3C126.01 1112.02 124.342 1112.39 122.429 1112.39ZM122.429 1107.8C123.362 1107.8 124.132 1107.45 124.739 1106.75C125.345 1106.05 125.649 1104.93 125.649 1103.39C125.649 1101.83 125.345 1100.71 124.739 1100.03C124.132 1099.33 123.362 1098.98 122.429 1098.98C121.472 1098.98 120.69 1099.33 120.084 1100.03C119.477 1100.71 119.174 1101.83 119.174 1103.39C119.174 1104.93 119.477 1106.05 120.084 1106.75C120.69 1107.45 121.472 1107.8 122.429 1107.8ZM143.483 1112.39C141.57 1112.39 139.902 1112.02 138.478 1111.3C137.055 1110.58 135.947 1109.54 135.153 1108.18C134.36 1106.83 133.963 1105.23 133.963 1103.39C133.963 1101.52 134.36 1099.92 135.153 1098.59C135.947 1097.24 137.055 1096.2 138.478 1095.48C139.902 1094.76 141.57 1094.39 143.483 1094.39C145.397 1094.39 147.065 1094.76 148.488 1095.48C149.912 1096.2 151.008 1097.24 151.778 1098.59C152.572 1099.92 152.968 1101.52 152.968 1103.39C152.968 1105.23 152.572 1106.83 151.778 1108.18C151.008 1109.54 149.912 1110.58 148.488 1111.3C147.065 1112.02 145.397 1112.39 143.483 1112.39ZM143.483 1107.8C144.417 1107.8 145.187 1107.45 145.793 1106.75C146.4 1106.05 146.703 1104.93 146.703 1103.39C146.703 1101.83 146.4 1100.71 145.793 1100.03C145.187 1099.33 144.417 1098.98 143.483 1098.98C142.527 1098.98 141.745 1099.33 141.138 1100.03C140.532 1100.71 140.228 1101.83 140.228 1103.39C140.228 1104.93 140.532 1106.05 141.138 1106.75C141.745 1107.45 142.527 1107.8 143.483 1107.8ZM164.682 1112.39C162.069 1112.39 160.132 1111.78 158.872 1110.56C157.612 1109.35 156.982 1107.52 156.982 1105.07V1099.36H153.762V1094.78H156.982V1089.77H163.212V1094.78H168.112V1099.36H163.212V1104.86C163.212 1105.72 163.41 1106.36 163.807 1106.78C164.227 1107.18 164.88 1107.38 165.767 1107.38C166.047 1107.38 166.35 1107.34 166.677 1107.27C167.027 1107.2 167.412 1107.12 167.832 1107.03L168.672 1111.51C168.135 1111.79 167.505 1112 166.782 1112.14C166.082 1112.3 165.382 1112.39 164.682 1112.39ZM179.763 1112.39C177.663 1112.39 175.843 1112.02 174.303 1111.3C172.787 1110.55 171.62 1109.5 170.803 1108.15C169.987 1106.8 169.578 1105.2 169.578 1103.35C169.578 1101.58 169.963 1100.03 170.733 1098.7C171.527 1097.35 172.6 1096.3 173.953 1095.55C175.33 1094.78 176.893 1094.39 178.643 1094.39C180.393 1094.39 181.898 1094.76 183.158 1095.48C184.418 1096.2 185.387 1097.24 186.063 1098.59C186.763 1099.92 187.113 1101.49 187.113 1103.28V1104.65H174.793V1101.71H182.563L182.003 1102.16C182.003 1100.9 181.735 1099.97 181.198 1099.36C180.662 1098.73 179.903 1098.42 178.923 1098.42C178.2 1098.42 177.57 1098.59 177.033 1098.94C176.52 1099.27 176.123 1099.76 175.843 1100.41C175.563 1101.07 175.423 1101.88 175.423 1102.86V1103.18C175.423 1104.28 175.575 1105.16 175.878 1105.84C176.205 1106.52 176.707 1107.02 177.383 1107.34C178.06 1107.65 178.912 1107.8 179.938 1107.8C180.825 1107.8 181.747 1107.67 182.703 1107.41C183.683 1107.13 184.547 1106.74 185.293 1106.22L186.833 1110.32C185.947 1110.95 184.862 1111.45 183.578 1111.82C182.295 1112.2 181.023 1112.39 179.763 1112.39ZM189.798 1112V1094.78H195.853V1099.01H195.503C195.736 1097.61 196.319 1096.53 197.253 1095.76C198.209 1094.97 199.458 1094.52 200.998 1094.43L202.713 1094.29L203.063 1099.54L199.668 1099.85C198.431 1099.97 197.533 1100.32 196.973 1100.9C196.413 1101.46 196.133 1102.3 196.133 1103.42V1112H189.798ZM208.692 1099.15L206.347 1097.26C206.954 1096.68 207.444 1096.12 207.817 1095.58C208.19 1095.05 208.459 1094.51 208.622 1093.97C208.785 1093.41 208.867 1092.83 208.867 1092.23L210.267 1093.69H205.752V1087.32H212.227V1091.35C212.227 1092.31 212.11 1093.22 211.877 1094.08C211.667 1094.94 211.305 1095.78 210.792 1096.6C210.279 1097.42 209.579 1098.27 208.692 1099.15ZM216.742 1099.15L214.397 1097.26C215.004 1096.68 215.494 1096.12 215.867 1095.58C216.24 1095.05 216.509 1094.51 216.672 1093.97C216.835 1093.41 216.917 1092.83 216.917 1092.23L218.317 1093.69H213.802V1087.32H220.277V1091.35C220.277 1092.31 220.16 1093.22 219.927 1094.08C219.717 1094.94 219.355 1095.78 218.842 1096.6C218.329 1097.42 217.629 1098.27 216.742 1099.15Z" fill="#222120"/>
<rect width="261" height="61" transform="translate(1220 1063)" fill="white"/>
<path d="M1237.26 1103.27C1236.48 1103.27 1235.72 1103.2 1234.98 1103.06C1234.24 1102.92 1233.56 1102.72 1232.94 1102.46C1232.32 1102.2 1231.77 1101.88 1231.29 1101.5L1232.16 1099.46C1232.66 1099.8 1233.19 1100.1 1233.75 1100.36C1234.31 1100.6 1234.89 1100.78 1235.49 1100.9C1236.11 1101.02 1236.71 1101.08 1237.29 1101.08C1238.35 1101.08 1239.15 1100.89 1239.69 1100.51C1240.23 1100.13 1240.5 1099.62 1240.5 1098.98C1240.5 1098.46 1240.32 1098.06 1239.96 1097.78C1239.6 1097.48 1239.06 1097.25 1238.34 1097.09L1235.49 1096.52C1234.25 1096.26 1233.31 1095.8 1232.67 1095.14C1232.03 1094.48 1231.71 1093.64 1231.71 1092.62C1231.71 1091.7 1231.96 1090.9 1232.46 1090.22C1232.96 1089.54 1233.66 1089.02 1234.56 1088.66C1235.46 1088.28 1236.5 1088.09 1237.68 1088.09C1238.36 1088.09 1239.02 1088.16 1239.66 1088.3C1240.3 1088.44 1240.9 1088.64 1241.46 1088.9C1242.04 1089.16 1242.53 1089.49 1242.93 1089.89L1242.06 1091.93C1241.68 1091.59 1241.24 1091.3 1240.74 1091.06C1240.26 1090.82 1239.76 1090.64 1239.24 1090.52C1238.72 1090.38 1238.2 1090.31 1237.68 1090.31C1236.62 1090.31 1235.82 1090.51 1235.28 1090.91C1234.76 1091.29 1234.5 1091.81 1234.5 1092.47C1234.5 1092.97 1234.66 1093.38 1234.98 1093.7C1235.3 1094.02 1235.8 1094.25 1236.48 1094.39L1239.33 1094.96C1240.63 1095.22 1241.61 1095.66 1242.27 1096.28C1242.95 1096.9 1243.29 1097.74 1243.29 1098.8C1243.29 1099.72 1243.04 1100.52 1242.54 1101.2C1242.04 1101.88 1241.33 1102.4 1240.41 1102.76C1239.51 1103.1 1238.46 1103.27 1237.26 1103.27ZM1251.43 1103.27C1249.83 1103.27 1248.63 1102.82 1247.83 1101.92C1247.05 1101 1246.66 1099.68 1246.66 1097.96V1081.85H1249.69V1097.78C1249.69 1098.42 1249.78 1098.97 1249.96 1099.43C1250.14 1099.87 1250.41 1100.2 1250.77 1100.42C1251.13 1100.64 1251.58 1100.75 1252.12 1100.75C1252.36 1100.75 1252.59 1100.74 1252.81 1100.72C1253.03 1100.7 1253.24 1100.66 1253.44 1100.6L1253.38 1103.03C1253.04 1103.11 1252.71 1103.17 1252.39 1103.21C1252.07 1103.25 1251.75 1103.27 1251.43 1103.27ZM1262.04 1103.27C1260.56 1103.27 1259.28 1102.96 1258.2 1102.34C1257.14 1101.72 1256.31 1100.84 1255.71 1099.7C1255.11 1098.56 1254.81 1097.22 1254.81 1095.68C1254.81 1094.12 1255.11 1092.78 1255.71 1091.66C1256.31 1090.52 1257.14 1089.64 1258.2 1089.02C1259.28 1088.4 1260.56 1088.09 1262.04 1088.09C1263.5 1088.09 1264.76 1088.4 1265.82 1089.02C1266.9 1089.64 1267.74 1090.52 1268.34 1091.66C1268.94 1092.8 1269.24 1094.14 1269.24 1095.68C1269.24 1097.22 1268.94 1098.56 1268.34 1099.7C1267.74 1100.84 1266.9 1101.72 1265.82 1102.34C1264.76 1102.96 1263.5 1103.27 1262.04 1103.27ZM1262.01 1100.93C1263.27 1100.93 1264.28 1100.48 1265.04 1099.58C1265.8 1098.68 1266.18 1097.38 1266.18 1095.68C1266.18 1093.96 1265.8 1092.66 1265.04 1091.78C1264.28 1090.9 1263.27 1090.46 1262.01 1090.46C1260.77 1090.46 1259.77 1090.9 1259.01 1091.78C1258.25 1092.66 1257.87 1093.96 1257.87 1095.68C1257.87 1097.38 1258.25 1098.68 1259.01 1099.58C1259.77 1100.48 1260.77 1100.93 1262.01 1100.93ZM1278.74 1103.27C1276.92 1103.27 1275.55 1102.8 1274.63 1101.86C1273.73 1100.92 1273.28 1099.56 1273.28 1097.78V1090.7H1270.43V1088.36H1273.28V1083.95H1276.31V1088.36H1280.84V1090.7H1276.31V1097.54C1276.31 1098.6 1276.53 1099.4 1276.97 1099.94C1277.43 1100.48 1278.17 1100.75 1279.19 1100.75C1279.49 1100.75 1279.79 1100.71 1280.09 1100.63C1280.41 1100.55 1280.72 1100.47 1281.02 1100.39L1281.5 1102.67C1281.2 1102.85 1280.78 1102.99 1280.24 1103.09C1279.72 1103.21 1279.22 1103.27 1278.74 1103.27ZM1290.98 1088.9V1086.47C1290.98 1085.87 1291.04 1085.3 1291.16 1084.76C1291.3 1084.22 1291.52 1083.69 1291.82 1083.17C1292.14 1082.65 1292.55 1082.14 1293.05 1081.64L1294.4 1082.69C1294.02 1083.09 1293.71 1083.47 1293.47 1083.83C1293.25 1084.19 1293.09 1084.55 1292.99 1084.91C1292.91 1085.25 1292.87 1085.61 1292.87 1085.99L1292.03 1085.33H1294.55V1088.9H1290.98ZM1296.35 1088.9V1086.47C1296.35 1085.87 1296.41 1085.3 1296.53 1084.76C1296.67 1084.22 1296.89 1083.69 1297.19 1083.17C1297.51 1082.65 1297.92 1082.14 1298.42 1081.64L1299.77 1082.69C1299.39 1083.09 1299.08 1083.47 1298.84 1083.83C1298.62 1084.19 1298.46 1084.55 1298.36 1084.91C1298.28 1085.25 1298.24 1085.61 1298.24 1085.99L1297.4 1085.33H1299.92V1088.9H1296.35ZM1304.78 1103V1090.7H1301.93V1088.36H1305.65L1304.78 1089.17V1088.09C1304.78 1086.09 1305.29 1084.58 1306.31 1083.56C1307.35 1082.52 1308.94 1081.94 1311.08 1081.82L1312.4 1081.73L1312.61 1084.01L1311.23 1084.1C1310.41 1084.14 1309.75 1084.3 1309.25 1084.58C1308.75 1084.86 1308.38 1085.26 1308.14 1085.78C1307.92 1086.28 1307.81 1086.91 1307.81 1087.67V1088.84L1307.39 1088.36H1311.92V1090.7H1307.81V1103H1304.78ZM1320.26 1103.27C1318.78 1103.27 1317.5 1102.96 1316.42 1102.34C1315.36 1101.72 1314.53 1100.84 1313.93 1099.7C1313.33 1098.56 1313.03 1097.22 1313.03 1095.68C1313.03 1094.12 1313.33 1092.78 1313.93 1091.66C1314.53 1090.52 1315.36 1089.64 1316.42 1089.02C1317.5 1088.4 1318.78 1088.09 1320.26 1088.09C1321.72 1088.09 1322.98 1088.4 1324.04 1089.02C1325.12 1089.64 1325.96 1090.52 1326.56 1091.66C1327.16 1092.8 1327.46 1094.14 1327.46 1095.68C1327.46 1097.22 1327.16 1098.56 1326.56 1099.7C1325.96 1100.84 1325.12 1101.72 1324.04 1102.34C1322.98 1102.96 1321.72 1103.27 1320.26 1103.27ZM1320.23 1100.93C1321.49 1100.93 1322.5 1100.48 1323.26 1099.58C1324.02 1098.68 1324.4 1097.38 1324.4 1095.68C1324.4 1093.96 1324.02 1092.66 1323.26 1091.78C1322.5 1090.9 1321.49 1090.46 1320.23 1090.46C1318.99 1090.46 1317.99 1090.9 1317.23 1091.78C1316.47 1092.66 1316.09 1093.96 1316.09 1095.68C1316.09 1097.38 1316.47 1098.68 1317.23 1099.58C1317.99 1100.48 1318.99 1100.93 1320.23 1100.93ZM1337.22 1103.27C1335.74 1103.27 1334.46 1102.96 1333.38 1102.34C1332.32 1101.72 1331.49 1100.84 1330.89 1099.7C1330.29 1098.56 1329.99 1097.22 1329.99 1095.68C1329.99 1094.12 1330.29 1092.78 1330.89 1091.66C1331.49 1090.52 1332.32 1089.64 1333.38 1089.02C1334.46 1088.4 1335.74 1088.09 1337.22 1088.09C1338.68 1088.09 1339.94 1088.4 1341 1089.02C1342.08 1089.64 1342.92 1090.52 1343.52 1091.66C1344.12 1092.8 1344.42 1094.14 1344.42 1095.68C1344.42 1097.22 1344.12 1098.56 1343.52 1099.7C1342.92 1100.84 1342.08 1101.72 1341 1102.34C1339.94 1102.96 1338.68 1103.27 1337.22 1103.27ZM1337.19 1100.93C1338.45 1100.93 1339.46 1100.48 1340.22 1099.58C1340.98 1098.68 1341.36 1097.38 1341.36 1095.68C1341.36 1093.96 1340.98 1092.66 1340.22 1091.78C1339.46 1090.9 1338.45 1090.46 1337.19 1090.46C1335.95 1090.46 1334.95 1090.9 1334.19 1091.78C1333.43 1092.66 1333.05 1093.96 1333.05 1095.68C1333.05 1097.38 1333.43 1098.68 1334.19 1099.58C1334.95 1100.48 1335.95 1100.93 1337.19 1100.93ZM1353.92 1103.27C1352.1 1103.27 1350.73 1102.8 1349.81 1101.86C1348.91 1100.92 1348.46 1099.56 1348.46 1097.78V1090.7H1345.61V1088.36H1348.46V1083.95H1351.49V1088.36H1356.02V1090.7H1351.49V1097.54C1351.49 1098.6 1351.71 1099.4 1352.15 1099.94C1352.61 1100.48 1353.35 1100.75 1354.37 1100.75C1354.67 1100.75 1354.97 1100.71 1355.27 1100.63C1355.59 1100.55 1355.9 1100.47 1356.2 1100.39L1356.68 1102.67C1356.38 1102.85 1355.96 1102.99 1355.42 1103.09C1354.9 1103.21 1354.4 1103.27 1353.92 1103.27ZM1365.36 1103.27C1363.76 1103.27 1362.38 1102.97 1361.22 1102.37C1360.08 1101.75 1359.19 1100.88 1358.55 1099.76C1357.93 1098.62 1357.62 1097.27 1357.62 1095.71C1357.62 1094.19 1357.93 1092.86 1358.55 1091.72C1359.17 1090.58 1360.02 1089.69 1361.1 1089.05C1362.18 1088.41 1363.41 1088.09 1364.79 1088.09C1366.15 1088.09 1367.31 1088.39 1368.27 1088.99C1369.25 1089.57 1370 1090.4 1370.52 1091.48C1371.04 1092.56 1371.3 1093.85 1371.3 1095.35V1096.37H1360.02V1094.51H1369.26L1368.75 1094.93C1368.75 1093.43 1368.42 1092.27 1367.76 1091.45C1367.1 1090.63 1366.15 1090.22 1364.91 1090.22C1363.97 1090.22 1363.17 1090.44 1362.51 1090.88C1361.87 1091.32 1361.38 1091.93 1361.04 1092.71C1360.7 1093.49 1360.53 1094.4 1360.53 1095.44V1095.62C1360.53 1096.78 1360.71 1097.76 1361.07 1098.56C1361.45 1099.34 1362 1099.93 1362.72 1100.33C1363.44 1100.73 1364.33 1100.93 1365.39 1100.93C1366.23 1100.93 1367.05 1100.8 1367.85 1100.54C1368.67 1100.26 1369.44 1099.83 1370.16 1099.25L1371.06 1101.35C1370.4 1101.95 1369.55 1102.42 1368.51 1102.76C1367.47 1103.1 1366.42 1103.27 1365.36 1103.27ZM1374.6 1103V1088.36H1377.54V1091.87H1377.24C1377.56 1090.67 1378.13 1089.76 1378.95 1089.14C1379.79 1088.52 1380.9 1088.16 1382.28 1088.06L1383.27 1088L1383.48 1090.58L1381.65 1090.76C1380.35 1090.88 1379.36 1091.29 1378.68 1091.99C1378 1092.69 1377.66 1093.65 1377.66 1094.87V1103H1374.6ZM1385.12 1096.22V1093.76H1393.76V1096.22H1385.12ZM1402.78 1103.27C1401.18 1103.27 1399.98 1102.82 1399.18 1101.92C1398.4 1101 1398.01 1099.68 1398.01 1097.96V1081.85H1401.04V1097.78C1401.04 1098.42 1401.13 1098.97 1401.31 1099.43C1401.49 1099.87 1401.76 1100.2 1402.12 1100.42C1402.48 1100.64 1402.93 1100.75 1403.47 1100.75C1403.71 1100.75 1403.94 1100.74 1404.16 1100.72C1404.38 1100.7 1404.59 1100.66 1404.79 1100.6L1404.73 1103.03C1404.39 1103.11 1404.06 1103.17 1403.74 1103.21C1403.42 1103.25 1403.1 1103.27 1402.78 1103.27ZM1406.91 1084.97V1081.82H1410.45V1084.97H1406.91ZM1407.18 1103V1088.36H1410.21V1103H1407.18ZM1414.47 1103V1088.36H1417.41V1091.48H1417.08C1417.52 1090.36 1418.21 1089.52 1419.15 1088.96C1420.09 1088.38 1421.17 1088.09 1422.39 1088.09C1423.55 1088.09 1424.51 1088.31 1425.27 1088.75C1426.05 1089.17 1426.63 1089.82 1427.01 1090.7C1427.39 1091.56 1427.58 1092.65 1427.58 1093.97V1103H1424.55V1094.15C1424.55 1093.31 1424.44 1092.63 1424.22 1092.11C1424 1091.57 1423.67 1091.17 1423.23 1090.91C1422.79 1090.65 1422.22 1090.52 1421.52 1090.52C1420.72 1090.52 1420.01 1090.69 1419.39 1091.03C1418.79 1091.37 1418.32 1091.86 1417.98 1092.5C1417.66 1093.14 1417.5 1093.88 1417.5 1094.72V1103H1414.47ZM1431.76 1103V1081.85H1434.79V1094.75H1434.85L1441.21 1088.36H1444.96L1437.25 1096.1V1094.69L1445.5 1103H1441.72L1434.85 1096.31H1434.79V1103H1431.76ZM1452.09 1103.27C1451.31 1103.27 1450.55 1103.2 1449.81 1103.06C1449.07 1102.92 1448.39 1102.72 1447.77 1102.46C1447.15 1102.2 1446.6 1101.88 1446.12 1101.5L1446.99 1099.46C1447.49 1099.8 1448.02 1100.1 1448.58 1100.36C1449.14 1100.6 1449.72 1100.78 1450.32 1100.9C1450.94 1101.02 1451.54 1101.08 1452.12 1101.08C1453.18 1101.08 1453.98 1100.89 1454.52 1100.51C1455.06 1100.13 1455.33 1099.62 1455.33 1098.98C1455.33 1098.46 1455.15 1098.06 1454.79 1097.78C1454.43 1097.48 1453.89 1097.25 1453.17 1097.09L1450.32 1096.52C1449.08 1096.26 1448.14 1095.8 1447.5 1095.14C1446.86 1094.48 1446.54 1093.64 1446.54 1092.62C1446.54 1091.7 1446.79 1090.9 1447.29 1090.22C1447.79 1089.54 1448.49 1089.02 1449.39 1088.66C1450.29 1088.28 1451.33 1088.09 1452.51 1088.09C1453.19 1088.09 1453.85 1088.16 1454.49 1088.3C1455.13 1088.44 1455.73 1088.64 1456.29 1088.9C1456.87 1089.16 1457.36 1089.49 1457.76 1089.89L1456.89 1091.93C1456.51 1091.59 1456.07 1091.3 1455.57 1091.06C1455.09 1090.82 1454.59 1090.64 1454.07 1090.52C1453.55 1090.38 1453.03 1090.31 1452.51 1090.31C1451.45 1090.31 1450.65 1090.51 1450.11 1090.91C1449.59 1091.29 1449.33 1091.81 1449.33 1092.47C1449.33 1092.97 1449.49 1093.38 1449.81 1093.7C1450.13 1094.02 1450.63 1094.25 1451.31 1094.39L1454.16 1094.96C1455.46 1095.22 1456.44 1095.66 1457.1 1096.28C1457.78 1096.9 1458.12 1097.74 1458.12 1098.8C1458.12 1099.72 1457.87 1100.52 1457.37 1101.2C1456.87 1101.88 1456.16 1102.4 1455.24 1102.76C1454.34 1103.1 1453.29 1103.27 1452.09 1103.27ZM1461.79 1089.11L1460.47 1088.09C1460.85 1087.67 1461.15 1087.29 1461.37 1086.95C1461.59 1086.59 1461.74 1086.23 1461.82 1085.87C1461.92 1085.51 1461.97 1085.14 1461.97 1084.76L1462.81 1085.42H1460.26V1081.85H1463.86V1084.28C1463.86 1084.88 1463.79 1085.45 1463.65 1085.99C1463.53 1086.53 1463.32 1087.06 1463.02 1087.58C1462.72 1088.08 1462.31 1088.59 1461.79 1089.11ZM1467.16 1089.11L1465.84 1088.09C1466.22 1087.67 1466.52 1087.29 1466.74 1086.95C1466.96 1086.59 1467.11 1086.23 1467.19 1085.87C1467.29 1085.51 1467.34 1085.14 1467.34 1084.76L1468.18 1085.42H1465.63V1081.85H1469.23V1084.28C1469.23 1084.88 1469.16 1085.45 1469.02 1085.99C1468.9 1086.53 1468.69 1087.06 1468.39 1087.58C1468.09 1088.08 1467.68 1088.59 1467.16 1089.11Z" fill="#222120"/>
</g>
<defs>
<clipPath id="clip0_1230_6350">
<rect width="1486" height="1129" fill="white"/>
</clipPath>
</defs>
</svg>
