<svg width="1486" height="1129" viewBox="0 0 1486 1129" fill="none" xmlns="http://www.w3.org/2000/svg">
<g clip-path="url(#clip0_1232_6654)">
<rect width="1486" height="1129" fill="white"/>
<rect width="1486" height="1129" fill="#F0F0F0"/>
<rect width="1100" height="58" transform="translate(193 5)" fill="white"/>
<rect width="20" height="20" transform="translate(213 24)" fill="#D5D5D5"/>
<rect x="213.5" y="24.5" width="19" height="19" stroke="#222120"/>
<g clip-path="url(#clip1_1232_6654)">
<path d="M223.78 34.0001L232.38 25.3801C232.6 25.1601 232.6 24.8201 232.38 24.6001C232.16 24.3801 231.82 24.3801 231.6 24.6001L223 33.2201L214.38 24.6201C214.18 24.4001 213.82 24.4001 213.62 24.6201C213.4 24.8201 213.4 25.1801 213.62 25.3801L222.22 34.0001L213.62 42.6201C213.4 42.8401 213.4 43.1801 213.62 43.4001C213.72 43.5001 213.86 43.5601 214 43.5601C214.14 43.5601 214.28 43.5001 214.38 43.4001L223 34.7801L231.62 43.4001C231.72 43.5001 231.86 43.5601 232 43.5601C232.14 43.5601 232.28 43.5001 232.38 43.4001C232.6 43.1801 232.6 42.8401 232.38 42.6201L223.78 34.0001Z" fill="#222120"/>
</g>
<rect x="213.5" y="24.5" width="19" height="19" stroke="#222120"/>
<path d="M1053.07 46.385C1052.02 46.385 1051.01 46.315 1050.03 46.175C1049.07 46.035 1048.19 45.825 1047.4 45.545C1046.61 45.265 1045.9 44.9267 1045.27 44.53L1046.7 40.505C1047.28 40.8317 1047.93 41.1233 1048.63 41.38C1049.35 41.6367 1050.1 41.835 1050.87 41.975C1051.64 42.115 1052.38 42.185 1053.11 42.185C1053.97 42.185 1054.59 42.0683 1054.96 41.835C1055.33 41.5783 1055.52 41.2517 1055.52 40.855C1055.52 40.505 1055.39 40.2367 1055.14 40.05C1054.9 39.8633 1054.56 39.735 1054.12 39.665L1050.24 39.035C1048.79 38.7783 1047.67 38.2533 1046.88 37.46C1046.08 36.6433 1045.69 35.5817 1045.69 34.275C1045.69 33.0617 1046.02 32.0233 1046.7 31.16C1047.4 30.2733 1048.35 29.5967 1049.54 29.13C1050.75 28.64 1052.14 28.395 1053.7 28.395C1054.54 28.395 1055.37 28.465 1056.19 28.605C1057 28.7217 1057.78 28.92 1058.53 29.2C1059.28 29.4567 1059.95 29.8067 1060.56 30.25L1059.02 34.205C1058.58 33.8783 1058.05 33.5983 1057.45 33.365C1056.84 33.1317 1056.21 32.945 1055.56 32.805C1054.93 32.6417 1054.34 32.56 1053.81 32.56C1052.85 32.56 1052.17 32.6883 1051.78 32.945C1051.38 33.2017 1051.18 33.5283 1051.18 33.925C1051.18 34.2283 1051.29 34.485 1051.5 34.695C1051.71 34.8817 1052.03 35.01 1052.48 35.08L1056.36 35.745C1057.85 35.9783 1059 36.4917 1059.79 37.285C1060.61 38.055 1061.02 39.105 1061.02 40.435C1061.02 41.695 1060.69 42.7683 1060.04 43.655C1059.38 44.5417 1058.46 45.2183 1057.27 45.685C1056.08 46.1517 1054.68 46.385 1053.07 46.385ZM1070.36 46.385C1067.98 46.385 1066.26 45.79 1065.18 44.6C1064.11 43.3867 1063.57 41.5667 1063.57 39.14V21.325H1069.8V38.93C1069.8 39.4433 1069.87 39.8867 1070.01 40.26C1070.18 40.6333 1070.42 40.9133 1070.75 41.1C1071.1 41.2867 1071.53 41.38 1072.04 41.38C1072.28 41.38 1072.51 41.3683 1072.74 41.345C1073 41.3217 1073.25 41.2867 1073.48 41.24L1073.41 46C1072.94 46.14 1072.45 46.2333 1071.94 46.28C1071.45 46.35 1070.92 46.385 1070.36 46.385ZM1084.29 46.385C1082.37 46.385 1080.7 46.0233 1079.28 45.3C1077.86 44.5767 1076.75 43.5383 1075.96 42.185C1075.16 40.8317 1074.77 39.2333 1074.77 37.39C1074.77 35.5233 1075.16 33.925 1075.96 32.595C1076.75 31.2417 1077.86 30.2033 1079.28 29.48C1080.7 28.7567 1082.37 28.395 1084.29 28.395C1086.2 28.395 1087.87 28.7567 1089.29 29.48C1090.71 30.2033 1091.81 31.2417 1092.58 32.595C1093.37 33.925 1093.77 35.5233 1093.77 37.39C1093.77 39.2333 1093.37 40.8317 1092.58 42.185C1091.81 43.5383 1090.71 44.5767 1089.29 45.3C1087.87 46.0233 1086.2 46.385 1084.29 46.385ZM1084.29 41.8C1085.22 41.8 1085.99 41.45 1086.6 40.75C1087.2 40.05 1087.51 38.93 1087.51 37.39C1087.51 35.8267 1087.2 34.7067 1086.6 34.03C1085.99 33.33 1085.22 32.98 1084.29 32.98C1083.33 32.98 1082.55 33.33 1081.94 34.03C1081.33 34.7067 1081.03 35.8267 1081.03 37.39C1081.03 38.93 1081.33 40.05 1081.94 40.75C1082.55 41.45 1083.33 41.8 1084.29 41.8ZM1105.49 46.385C1102.87 46.385 1100.94 45.7783 1099.68 44.565C1098.42 43.3517 1097.79 41.52 1097.79 39.07V33.365H1094.57V28.78H1097.79V23.775H1104.02V28.78H1108.92V33.365H1104.02V38.86C1104.02 39.7233 1104.21 40.365 1104.61 40.785C1105.03 41.1817 1105.68 41.38 1106.57 41.38C1106.85 41.38 1107.15 41.345 1107.48 41.275C1107.83 41.205 1108.22 41.1233 1108.64 41.03L1109.48 45.51C1108.94 45.79 1108.31 46 1107.59 46.14C1106.89 46.3033 1106.19 46.385 1105.49 46.385ZM1121.06 32.805V28.815C1121.06 27.835 1121.17 26.925 1121.41 26.085C1121.64 25.2217 1122.01 24.3817 1122.53 23.565C1123.04 22.725 1123.73 21.8733 1124.59 21.01L1126.97 22.865C1126.37 23.4717 1125.88 24.0433 1125.5 24.58C1125.13 25.1167 1124.85 25.665 1124.66 26.225C1124.5 26.7617 1124.42 27.345 1124.42 27.975L1123.05 26.435H1127.53V32.805H1121.06ZM1129.11 32.805V28.815C1129.11 27.835 1129.22 26.925 1129.46 26.085C1129.69 25.2217 1130.06 24.3817 1130.58 23.565C1131.09 22.725 1131.78 21.8733 1132.64 21.01L1135.02 22.865C1134.42 23.4717 1133.93 24.0433 1133.55 24.58C1133.18 25.1167 1132.9 25.665 1132.71 26.225C1132.55 26.7617 1132.47 27.345 1132.47 27.975L1131.1 26.435H1135.58V32.805H1129.11ZM1138.94 46V21.325H1145.17V31.79H1144.61C1145.17 30.6933 1145.96 29.8533 1146.99 29.27C1148.04 28.6867 1149.23 28.395 1150.56 28.395C1151.94 28.395 1153.07 28.6633 1153.96 29.2C1154.84 29.7133 1155.51 30.53 1155.95 31.65C1156.39 32.7467 1156.62 34.135 1156.62 35.815V46H1150.39V36.06C1150.39 35.36 1150.3 34.8 1150.14 34.38C1149.98 33.9367 1149.73 33.6217 1149.41 33.435C1149.1 33.2483 1148.72 33.155 1148.25 33.155C1147.62 33.155 1147.07 33.295 1146.61 33.575C1146.14 33.8317 1145.78 34.205 1145.52 34.695C1145.29 35.185 1145.17 35.7683 1145.17 36.445V46H1138.94ZM1169.55 46.385C1167.45 46.385 1165.63 46.0233 1164.09 45.3C1162.57 44.5533 1161.4 43.5033 1160.59 42.15C1159.77 40.7967 1159.36 39.1983 1159.36 37.355C1159.36 35.5817 1159.75 34.03 1160.52 32.7C1161.31 31.3467 1162.38 30.2967 1163.74 29.55C1165.11 28.78 1166.68 28.395 1168.43 28.395C1170.18 28.395 1171.68 28.7567 1172.94 29.48C1174.2 30.2033 1175.17 31.2417 1175.85 32.595C1176.55 33.925 1176.9 35.4883 1176.9 37.285V38.65H1164.58V35.71H1172.35L1171.79 36.165C1171.79 34.905 1171.52 33.9717 1170.98 33.365C1170.44 32.735 1169.69 32.42 1168.71 32.42C1167.98 32.42 1167.35 32.595 1166.82 32.945C1166.3 33.2717 1165.91 33.7617 1165.63 34.415C1165.35 35.0683 1165.21 35.885 1165.21 36.865V37.18C1165.21 38.2767 1165.36 39.1633 1165.66 39.84C1165.99 40.5167 1166.49 41.0183 1167.17 41.345C1167.84 41.6483 1168.69 41.8 1169.72 41.8C1170.61 41.8 1171.53 41.6717 1172.49 41.415C1173.47 41.135 1174.33 40.7383 1175.08 40.225L1176.62 44.32C1175.73 44.95 1174.64 45.4517 1173.36 45.825C1172.08 46.1983 1170.81 46.385 1169.55 46.385ZM1185.57 46.385C1184.24 46.385 1183.06 46.14 1182.03 45.65C1181.03 45.16 1180.23 44.495 1179.65 43.655C1179.09 42.7917 1178.81 41.8117 1178.81 40.715C1178.81 39.455 1179.14 38.4633 1179.79 37.74C1180.44 37.0167 1181.49 36.5033 1182.94 36.2C1184.39 35.8733 1186.31 35.71 1188.72 35.71H1190.64V38.65H1188.72C1188.04 38.65 1187.44 38.685 1186.93 38.755C1186.44 38.825 1186.03 38.9417 1185.71 39.105C1185.38 39.245 1185.13 39.4317 1184.97 39.665C1184.81 39.8983 1184.73 40.1667 1184.73 40.47C1184.73 41.0067 1184.91 41.45 1185.29 41.8C1185.68 42.15 1186.24 42.325 1186.97 42.325C1187.55 42.325 1188.06 42.1967 1188.51 41.94C1188.97 41.6833 1189.35 41.3333 1189.63 40.89C1189.91 40.4233 1190.05 39.8867 1190.05 39.28V35.22C1190.05 34.38 1189.82 33.785 1189.38 33.435C1188.96 33.085 1188.23 32.91 1187.18 32.91C1186.29 32.91 1185.31 33.05 1184.24 33.33C1183.16 33.61 1182.11 34.0417 1181.09 34.625L1179.51 30.53C1180.12 30.11 1180.86 29.7367 1181.75 29.41C1182.66 29.0833 1183.62 28.8383 1184.62 28.675C1185.65 28.4883 1186.59 28.395 1187.46 28.395C1189.37 28.395 1190.94 28.675 1192.18 29.235C1193.44 29.7717 1194.37 30.6117 1194.98 31.755C1195.61 32.875 1195.93 34.3217 1195.93 36.095V46H1190.12V42.745H1190.33C1190.21 43.4917 1189.94 44.1333 1189.52 44.67C1189.1 45.2067 1188.55 45.6267 1187.88 45.93C1187.2 46.2333 1186.43 46.385 1185.57 46.385ZM1206.19 46.385C1204.72 46.385 1203.42 46.0233 1202.27 45.3C1201.15 44.5767 1200.27 43.5383 1199.61 42.185C1198.98 40.8317 1198.67 39.2333 1198.67 37.39C1198.67 35.5 1198.98 33.89 1199.61 32.56C1200.27 31.23 1201.15 30.2033 1202.27 29.48C1203.42 28.7567 1204.72 28.395 1206.19 28.395C1207.48 28.395 1208.63 28.6983 1209.66 29.305C1210.68 29.9117 1211.37 30.6933 1211.72 31.65H1211.34V21.325H1217.57V46H1211.48V42.885H1211.79C1211.47 43.935 1210.78 44.7867 1209.73 45.44C1208.7 46.07 1207.52 46.385 1206.19 46.385ZM1208.19 41.8C1209.12 41.8 1209.89 41.45 1210.5 40.75C1211.1 40.05 1211.41 38.93 1211.41 37.39C1211.41 35.8267 1211.1 34.7067 1210.5 34.03C1209.89 33.33 1209.12 32.98 1208.19 32.98C1207.23 32.98 1206.45 33.33 1205.84 34.03C1205.24 34.7067 1204.93 35.8267 1204.93 37.39C1204.93 38.93 1205.24 40.05 1205.84 40.75C1206.45 41.45 1207.23 41.8 1208.19 41.8ZM1230.56 46.385C1228.46 46.385 1226.64 46.0233 1225.1 45.3C1223.58 44.5533 1222.41 43.5033 1221.6 42.15C1220.78 40.7967 1220.37 39.1983 1220.37 37.355C1220.37 35.5817 1220.76 34.03 1221.53 32.7C1222.32 31.3467 1223.39 30.2967 1224.75 29.55C1226.12 28.78 1227.69 28.395 1229.44 28.395C1231.19 28.395 1232.69 28.7567 1233.95 29.48C1235.21 30.2033 1236.18 31.2417 1236.86 32.595C1237.56 33.925 1237.91 35.4883 1237.91 37.285V38.65H1225.59V35.71H1233.36L1232.8 36.165C1232.8 34.905 1232.53 33.9717 1231.99 33.365C1231.46 32.735 1230.7 32.42 1229.72 32.42C1228.99 32.42 1228.36 32.595 1227.83 32.945C1227.31 33.2717 1226.92 33.7617 1226.64 34.415C1226.36 35.0683 1226.22 35.885 1226.22 36.865V37.18C1226.22 38.2767 1226.37 39.1633 1226.67 39.84C1227 40.5167 1227.5 41.0183 1228.18 41.345C1228.85 41.6483 1229.71 41.8 1230.73 41.8C1231.62 41.8 1232.54 41.6717 1233.5 41.415C1234.48 41.135 1235.34 40.7383 1236.09 40.225L1237.63 44.32C1236.74 44.95 1235.66 45.4517 1234.37 45.825C1233.09 46.1983 1231.82 46.385 1230.56 46.385ZM1240.59 46V28.78H1246.65V33.015H1246.3C1246.53 31.615 1247.11 30.53 1248.05 29.76C1249 28.9667 1250.25 28.5233 1251.79 28.43L1253.51 28.29L1253.86 33.54L1250.46 33.855C1249.22 33.9717 1248.33 34.3217 1247.77 34.905C1247.21 35.465 1246.93 36.305 1246.93 37.425V46H1240.59ZM1259.49 33.155L1257.14 31.265C1257.75 30.6817 1258.24 30.1217 1258.61 29.585C1258.98 29.0483 1259.25 28.5117 1259.42 27.975C1259.58 27.415 1259.66 26.8317 1259.66 26.225L1261.06 27.695H1256.55V21.325H1263.02V25.35C1263.02 26.3067 1262.9 27.2167 1262.67 28.08C1262.46 28.9433 1262.1 29.7833 1261.59 30.6C1261.07 31.4167 1260.37 32.2683 1259.49 33.155ZM1267.54 33.155L1265.19 31.265C1265.8 30.6817 1266.29 30.1217 1266.66 29.585C1267.03 29.0483 1267.3 28.5117 1267.47 27.975C1267.63 27.415 1267.71 26.8317 1267.71 26.225L1269.11 27.695H1264.6V21.325H1271.07V25.35C1271.07 26.3067 1270.95 27.2167 1270.72 28.08C1270.51 28.9433 1270.15 29.7833 1269.64 30.6C1269.12 31.4167 1268.42 32.2683 1267.54 33.155Z" fill="#222120"/>
<rect width="1100" height="79" transform="translate(193 68)" fill="white"/>
<path d="M271.049 119.385C269.999 119.385 268.984 119.315 268.004 119.175C267.047 119.035 266.172 118.825 265.379 118.545C264.585 118.265 263.874 117.927 263.244 117.53L264.679 113.505C265.262 113.832 265.904 114.123 266.604 114.38C267.327 114.637 268.074 114.835 268.844 114.975C269.614 115.115 270.36 115.185 271.084 115.185C271.947 115.185 272.565 115.068 272.939 114.835C273.312 114.578 273.499 114.252 273.499 113.855C273.499 113.505 273.37 113.237 273.114 113.05C272.88 112.863 272.542 112.735 272.099 112.665L268.214 112.035C266.767 111.778 265.647 111.253 264.854 110.46C264.06 109.643 263.664 108.582 263.664 107.275C263.664 106.062 264.002 105.023 264.679 104.16C265.379 103.273 266.324 102.597 267.514 102.13C268.727 101.64 270.115 101.395 271.679 101.395C272.519 101.395 273.347 101.465 274.164 101.605C274.98 101.722 275.762 101.92 276.509 102.2C277.255 102.457 277.932 102.807 278.539 103.25L276.999 107.205C276.555 106.878 276.03 106.598 275.424 106.365C274.817 106.132 274.187 105.945 273.534 105.805C272.904 105.642 272.32 105.56 271.784 105.56C270.827 105.56 270.15 105.688 269.754 105.945C269.357 106.202 269.159 106.528 269.159 106.925C269.159 107.228 269.264 107.485 269.474 107.695C269.684 107.882 270.01 108.01 270.454 108.08L274.339 108.745C275.832 108.978 276.975 109.492 277.769 110.285C278.585 111.055 278.994 112.105 278.994 113.435C278.994 114.695 278.667 115.768 278.014 116.655C277.36 117.542 276.439 118.218 275.249 118.685C274.059 119.152 272.659 119.385 271.049 119.385ZM288.342 119.385C285.962 119.385 284.235 118.79 283.162 117.6C282.089 116.387 281.552 114.567 281.552 112.14V94.325H287.782V111.93C287.782 112.443 287.852 112.887 287.992 113.26C288.155 113.633 288.4 113.913 288.727 114.1C289.077 114.287 289.509 114.38 290.022 114.38C290.255 114.38 290.489 114.368 290.722 114.345C290.979 114.322 291.224 114.287 291.457 114.24L291.387 119C290.92 119.14 290.43 119.233 289.917 119.28C289.427 119.35 288.902 119.385 288.342 119.385ZM302.264 119.385C300.351 119.385 298.682 119.023 297.259 118.3C295.836 117.577 294.727 116.538 293.934 115.185C293.141 113.832 292.744 112.233 292.744 110.39C292.744 108.523 293.141 106.925 293.934 105.595C294.727 104.242 295.836 103.203 297.259 102.48C298.682 101.757 300.351 101.395 302.264 101.395C304.177 101.395 305.846 101.757 307.269 102.48C308.692 103.203 309.789 104.242 310.559 105.595C311.352 106.925 311.749 108.523 311.749 110.39C311.749 112.233 311.352 113.832 310.559 115.185C309.789 116.538 308.692 117.577 307.269 118.3C305.846 119.023 304.177 119.385 302.264 119.385ZM302.264 114.8C303.197 114.8 303.967 114.45 304.574 113.75C305.181 113.05 305.484 111.93 305.484 110.39C305.484 108.827 305.181 107.707 304.574 107.03C303.967 106.33 303.197 105.98 302.264 105.98C301.307 105.98 300.526 106.33 299.919 107.03C299.312 107.707 299.009 108.827 299.009 110.39C299.009 111.93 299.312 113.05 299.919 113.75C300.526 114.45 301.307 114.8 302.264 114.8ZM323.463 119.385C320.849 119.385 318.913 118.778 317.653 117.565C316.393 116.352 315.763 114.52 315.763 112.07V106.365H312.543V101.78H315.763V96.775H321.993V101.78H326.893V106.365H321.993V111.86C321.993 112.723 322.191 113.365 322.588 113.785C323.008 114.182 323.661 114.38 324.548 114.38C324.828 114.38 325.131 114.345 325.458 114.275C325.808 114.205 326.193 114.123 326.613 114.03L327.453 118.51C326.916 118.79 326.286 119 325.563 119.14C324.863 119.303 324.163 119.385 323.463 119.385ZM339.035 105.805V101.815C339.035 100.835 339.151 99.925 339.385 99.085C339.618 98.2217 339.991 97.3817 340.505 96.565C341.018 95.725 341.706 94.8733 342.57 94.01L344.95 95.865C344.343 96.4717 343.853 97.0433 343.48 97.58C343.106 98.1167 342.826 98.665 342.64 99.225C342.476 99.7617 342.395 100.345 342.395 100.975L341.03 99.435H345.51V105.805H339.035ZM347.085 105.805V101.815C347.085 100.835 347.201 99.925 347.435 99.085C347.668 98.2217 348.041 97.3817 348.555 96.565C349.068 95.725 349.756 94.8733 350.62 94.01L353 95.865C352.393 96.4717 351.903 97.0433 351.53 97.58C351.156 98.1167 350.876 98.665 350.69 99.225C350.526 99.7617 350.445 100.345 350.445 100.975L349.08 99.435H353.56V105.805H347.085ZM356.918 119V94.325H363.148V104.79H362.588C363.148 103.693 363.941 102.853 364.968 102.27C366.018 101.687 367.208 101.395 368.538 101.395C369.915 101.395 371.046 101.663 371.933 102.2C372.82 102.713 373.485 103.53 373.928 104.65C374.371 105.747 374.593 107.135 374.593 108.815V119H368.363V109.06C368.363 108.36 368.281 107.8 368.118 107.38C367.955 106.937 367.71 106.622 367.383 106.435C367.08 106.248 366.695 106.155 366.228 106.155C365.598 106.155 365.05 106.295 364.583 106.575C364.116 106.832 363.755 107.205 363.498 107.695C363.265 108.185 363.148 108.768 363.148 109.445V119H356.918ZM387.524 119.385C385.424 119.385 383.604 119.023 382.064 118.3C380.547 117.553 379.38 116.503 378.564 115.15C377.747 113.797 377.339 112.198 377.339 110.355C377.339 108.582 377.724 107.03 378.494 105.7C379.287 104.347 380.36 103.297 381.714 102.55C383.09 101.78 384.654 101.395 386.404 101.395C388.154 101.395 389.659 101.757 390.919 102.48C392.179 103.203 393.147 104.242 393.824 105.595C394.524 106.925 394.874 108.488 394.874 110.285V111.65H382.554V108.71H390.324L389.764 109.165C389.764 107.905 389.495 106.972 388.959 106.365C388.422 105.735 387.664 105.42 386.684 105.42C385.96 105.42 385.33 105.595 384.794 105.945C384.28 106.272 383.884 106.762 383.604 107.415C383.324 108.068 383.184 108.885 383.184 109.865V110.18C383.184 111.277 383.335 112.163 383.639 112.84C383.965 113.517 384.467 114.018 385.144 114.345C385.82 114.648 386.672 114.8 387.699 114.8C388.585 114.8 389.507 114.672 390.464 114.415C391.444 114.135 392.307 113.738 393.054 113.225L394.594 117.32C393.707 117.95 392.622 118.452 391.339 118.825C390.055 119.198 388.784 119.385 387.524 119.385ZM403.543 119.385C402.213 119.385 401.034 119.14 400.008 118.65C399.004 118.16 398.211 117.495 397.628 116.655C397.068 115.792 396.788 114.812 396.788 113.715C396.788 112.455 397.114 111.463 397.768 110.74C398.421 110.017 399.471 109.503 400.918 109.2C402.364 108.873 404.289 108.71 406.693 108.71H408.618V111.65H406.693C406.016 111.65 405.421 111.685 404.908 111.755C404.418 111.825 404.009 111.942 403.683 112.105C403.356 112.245 403.111 112.432 402.948 112.665C402.784 112.898 402.703 113.167 402.703 113.47C402.703 114.007 402.889 114.45 403.263 114.8C403.659 115.15 404.219 115.325 404.943 115.325C405.526 115.325 406.039 115.197 406.483 114.94C406.949 114.683 407.323 114.333 407.603 113.89C407.883 113.423 408.023 112.887 408.023 112.28V108.22C408.023 107.38 407.801 106.785 407.358 106.435C406.938 106.085 406.203 105.91 405.153 105.91C404.266 105.91 403.286 106.05 402.213 106.33C401.139 106.61 400.089 107.042 399.063 107.625L397.488 103.53C398.094 103.11 398.841 102.737 399.728 102.41C400.638 102.083 401.594 101.838 402.598 101.675C403.624 101.488 404.569 101.395 405.433 101.395C407.346 101.395 408.921 101.675 410.158 102.235C411.418 102.772 412.351 103.612 412.958 104.755C413.588 105.875 413.903 107.322 413.903 109.095V119H408.093V115.745H408.303C408.186 116.492 407.918 117.133 407.498 117.67C407.078 118.207 406.529 118.627 405.853 118.93C405.176 119.233 404.406 119.385 403.543 119.385ZM424.17 119.385C422.7 119.385 421.394 119.023 420.25 118.3C419.13 117.577 418.244 116.538 417.59 115.185C416.96 113.832 416.645 112.233 416.645 110.39C416.645 108.5 416.96 106.89 417.59 105.56C418.244 104.23 419.13 103.203 420.25 102.48C421.394 101.757 422.7 101.395 424.17 101.395C425.454 101.395 426.609 101.698 427.635 102.305C428.662 102.912 429.35 103.693 429.7 104.65H429.315V94.325H435.545V119H429.455V115.885H429.77C429.444 116.935 428.755 117.787 427.705 118.44C426.679 119.07 425.5 119.385 424.17 119.385ZM426.165 114.8C427.099 114.8 427.869 114.45 428.475 113.75C429.082 113.05 429.385 111.93 429.385 110.39C429.385 108.827 429.082 107.707 428.475 107.03C427.869 106.33 427.099 105.98 426.165 105.98C425.209 105.98 424.427 106.33 423.82 107.03C423.214 107.707 422.91 108.827 422.91 110.39C422.91 111.93 423.214 113.05 423.82 113.75C424.427 114.45 425.209 114.8 426.165 114.8ZM445.944 119.385C443.564 119.385 441.838 118.79 440.764 117.6C439.691 116.387 439.154 114.567 439.154 112.14V94.325H445.384V111.93C445.384 112.443 445.454 112.887 445.594 113.26C445.758 113.633 446.003 113.913 446.329 114.1C446.679 114.287 447.111 114.38 447.624 114.38C447.858 114.38 448.091 114.368 448.324 114.345C448.581 114.322 448.826 114.287 449.059 114.24L448.989 119C448.523 119.14 448.033 119.233 447.519 119.28C447.029 119.35 446.504 119.385 445.944 119.385ZM451.147 98.805V93.17H457.692V98.805H451.147ZM451.322 119V101.78H457.552V119H451.322ZM461.166 119V101.78H467.221V104.79H466.836C467.396 103.693 468.19 102.853 469.216 102.27C470.266 101.687 471.456 101.395 472.786 101.395C474.163 101.395 475.295 101.663 476.181 102.2C477.068 102.713 477.733 103.53 478.176 104.65C478.62 105.747 478.841 107.135 478.841 108.815V119H472.611V109.06C472.611 108.36 472.53 107.8 472.366 107.38C472.203 106.937 471.958 106.622 471.631 106.435C471.328 106.248 470.943 106.155 470.476 106.155C469.846 106.155 469.298 106.295 468.831 106.575C468.365 106.832 468.003 107.205 467.746 107.695C467.513 108.185 467.396 108.768 467.396 109.445V119H461.166ZM491.772 119.385C489.672 119.385 487.852 119.023 486.312 118.3C484.795 117.553 483.628 116.503 482.812 115.15C481.995 113.797 481.587 112.198 481.587 110.355C481.587 108.582 481.972 107.03 482.742 105.7C483.535 104.347 484.608 103.297 485.962 102.55C487.338 101.78 488.902 101.395 490.652 101.395C492.402 101.395 493.907 101.757 495.167 102.48C496.427 103.203 497.395 104.242 498.072 105.595C498.772 106.925 499.122 108.488 499.122 110.285V111.65H486.802V108.71H494.572L494.012 109.165C494.012 107.905 493.743 106.972 493.207 106.365C492.67 105.735 491.912 105.42 490.932 105.42C490.208 105.42 489.578 105.595 489.042 105.945C488.528 106.272 488.132 106.762 487.852 107.415C487.572 108.068 487.432 108.885 487.432 109.865V110.18C487.432 111.277 487.583 112.163 487.887 112.84C488.213 113.517 488.715 114.018 489.392 114.345C490.068 114.648 490.92 114.8 491.947 114.8C492.833 114.8 493.755 114.672 494.712 114.415C495.692 114.135 496.555 113.738 497.302 113.225L498.842 117.32C497.955 117.95 496.87 118.452 495.587 118.825C494.303 119.198 493.032 119.385 491.772 119.385ZM503.508 106.155L501.163 104.265C501.77 103.682 502.26 103.122 502.633 102.585C503.006 102.048 503.275 101.512 503.438 100.975C503.601 100.415 503.683 99.8317 503.683 99.225L505.083 100.695H500.568V94.325H507.043V98.35C507.043 99.3067 506.926 100.217 506.693 101.08C506.483 101.943 506.121 102.783 505.608 103.6C505.095 104.417 504.395 105.268 503.508 106.155ZM511.558 106.155L509.213 104.265C509.82 103.682 510.31 103.122 510.683 102.585C511.056 102.048 511.325 101.512 511.488 100.975C511.651 100.415 511.733 99.8317 511.733 99.225L513.133 100.695H508.618V94.325H515.093V98.35C515.093 99.3067 514.976 100.217 514.743 101.08C514.533 101.943 514.171 102.783 513.658 103.6C513.145 104.417 512.445 105.268 511.558 106.155Z" fill="#222120"/>
<path d="M634.382 89.144C633.838 89.144 633.347 89.0373 632.91 88.824C632.483 88.6107 632.147 88.3227 631.902 87.96C631.657 87.5973 631.534 87.1867 631.534 86.728C631.534 86.152 631.678 85.6987 631.966 85.368C632.265 85.0267 632.75 84.7867 633.422 84.648C634.105 84.4987 635.022 84.424 636.174 84.424H636.926V85.416H636.19C635.614 85.416 635.129 85.4373 634.734 85.48C634.339 85.5227 634.025 85.592 633.79 85.688C633.555 85.7733 633.385 85.896 633.278 86.056C633.182 86.216 633.134 86.408 633.134 86.632C633.134 87.0373 633.273 87.368 633.55 87.624C633.827 87.8693 634.211 87.992 634.702 87.992C635.097 87.992 635.443 87.9013 635.742 87.72C636.041 87.528 636.275 87.272 636.446 86.952C636.627 86.632 636.718 86.264 636.718 85.848V84.008C636.718 83.4 636.59 82.9627 636.334 82.696C636.078 82.4293 635.657 82.296 635.07 82.296C634.622 82.296 634.174 82.3653 633.726 82.504C633.278 82.632 632.819 82.84 632.35 83.128L631.854 81.992C632.131 81.8 632.451 81.6347 632.814 81.496C633.177 81.3573 633.555 81.2507 633.95 81.176C634.355 81.0907 634.745 81.048 635.118 81.048C635.833 81.048 636.419 81.16 636.878 81.384C637.347 81.608 637.694 81.9493 637.918 82.408C638.142 82.8667 638.254 83.4587 638.254 84.184V89H636.734V87.256H636.878C636.793 87.6507 636.633 87.992 636.398 88.28C636.174 88.5573 635.891 88.7707 635.55 88.92C635.209 89.0693 634.819 89.144 634.382 89.144ZM640.48 91.88V81.192H642.064V82.952H641.888C642.058 82.376 642.394 81.9173 642.896 81.576C643.397 81.224 643.989 81.048 644.672 81.048C645.365 81.048 645.968 81.2133 646.48 81.544C647.002 81.8747 647.402 82.3387 647.68 82.936C647.968 83.5333 648.112 84.2533 648.112 85.096C648.112 85.9173 647.968 86.6373 647.68 87.256C647.402 87.864 647.008 88.3333 646.496 88.664C645.984 88.984 645.376 89.144 644.672 89.144C644 89.144 643.413 88.9733 642.912 88.632C642.41 88.2907 642.074 87.8373 641.904 87.272H642.096V91.88H640.48ZM644.272 87.896C644.944 87.896 645.477 87.656 645.872 87.176C646.277 86.696 646.48 86.0027 646.48 85.096C646.48 84.1787 646.277 83.4853 645.872 83.016C645.477 82.5467 644.944 82.312 644.272 82.312C643.61 82.312 643.077 82.5467 642.672 83.016C642.266 83.4853 642.064 84.1787 642.064 85.096C642.064 86.0027 642.266 86.696 642.672 87.176C643.077 87.656 643.61 87.896 644.272 87.896ZM649.933 91.88V81.192H651.517V82.952H651.341C651.512 82.376 651.848 81.9173 652.349 81.576C652.85 81.224 653.442 81.048 654.125 81.048C654.818 81.048 655.421 81.2133 655.933 81.544C656.456 81.8747 656.856 82.3387 657.133 82.936C657.421 83.5333 657.565 84.2533 657.565 85.096C657.565 85.9173 657.421 86.6373 657.133 87.256C656.856 87.864 656.461 88.3333 655.949 88.664C655.437 88.984 654.829 89.144 654.125 89.144C653.453 89.144 652.866 88.9733 652.365 88.632C651.864 88.2907 651.528 87.8373 651.357 87.272H651.549V91.88H649.933ZM653.725 87.896C654.397 87.896 654.93 87.656 655.325 87.176C655.73 86.696 655.933 86.0027 655.933 85.096C655.933 84.1787 655.73 83.4853 655.325 83.016C654.93 82.5467 654.397 82.312 653.725 82.312C653.064 82.312 652.53 82.5467 652.125 83.016C651.72 83.4853 651.517 84.1787 651.517 85.096C651.517 86.0027 651.72 86.696 652.125 87.176C652.53 87.656 653.064 87.896 653.725 87.896ZM662.122 89.144C661.706 89.144 661.301 89.1067 660.906 89.032C660.511 88.9573 660.149 88.8507 659.818 88.712C659.487 88.5733 659.194 88.4027 658.938 88.2L659.402 87.112C659.669 87.2933 659.951 87.4533 660.25 87.592C660.549 87.72 660.858 87.816 661.178 87.88C661.509 87.944 661.829 87.976 662.138 87.976C662.703 87.976 663.13 87.8747 663.418 87.672C663.706 87.4693 663.85 87.1973 663.85 86.856C663.85 86.5787 663.754 86.3653 663.562 86.216C663.37 86.056 663.082 85.9333 662.698 85.848L661.178 85.544C660.517 85.4053 660.015 85.16 659.674 84.808C659.333 84.456 659.162 84.008 659.162 83.464C659.162 82.9733 659.295 82.5467 659.562 82.184C659.829 81.8213 660.202 81.544 660.682 81.352C661.162 81.1493 661.717 81.048 662.346 81.048C662.709 81.048 663.061 81.0853 663.402 81.16C663.743 81.2347 664.063 81.3413 664.362 81.48C664.671 81.6187 664.933 81.7947 665.146 82.008L664.682 83.096C664.479 82.9147 664.245 82.76 663.978 82.632C663.722 82.504 663.455 82.408 663.178 82.344C662.901 82.2693 662.623 82.232 662.346 82.232C661.781 82.232 661.354 82.3387 661.066 82.552C660.789 82.7547 660.65 83.032 660.65 83.384C660.65 83.6507 660.735 83.8693 660.906 84.04C661.077 84.2107 661.343 84.3333 661.706 84.408L663.226 84.712C663.919 84.8507 664.442 85.0853 664.794 85.416C665.157 85.7467 665.338 86.1947 665.338 86.76C665.338 87.2507 665.205 87.6773 664.938 88.04C664.671 88.4027 664.293 88.68 663.802 88.872C663.322 89.0533 662.762 89.144 662.122 89.144ZM667.136 89V77.72H668.752V82.856H668.528C668.763 82.2587 669.131 81.8107 669.632 81.512C670.133 81.2027 670.709 81.048 671.36 81.048C671.979 81.048 672.491 81.1653 672.896 81.4C673.312 81.624 673.621 81.9707 673.824 82.44C674.027 82.8987 674.128 83.48 674.128 84.184V89H672.512V84.28C672.512 83.832 672.453 83.4693 672.336 83.192C672.219 82.904 672.043 82.6907 671.808 82.552C671.573 82.4133 671.269 82.344 670.896 82.344C670.469 82.344 670.091 82.4347 669.76 82.616C669.44 82.7973 669.189 83.0587 669.008 83.4C668.837 83.7413 668.752 84.136 668.752 84.584V89H667.136ZM680.019 89.144C679.165 89.144 678.429 88.984 677.811 88.664C677.203 88.3333 676.728 87.8693 676.387 87.272C676.056 86.664 675.891 85.944 675.891 85.112C675.891 84.3013 676.056 83.592 676.387 82.984C676.717 82.376 677.171 81.9013 677.747 81.56C678.323 81.2187 678.979 81.048 679.715 81.048C680.44 81.048 681.059 81.208 681.571 81.528C682.093 81.8373 682.493 82.28 682.771 82.856C683.048 83.432 683.187 84.12 683.187 84.92V85.464H677.171V84.472H682.099L681.827 84.696C681.827 83.896 681.651 83.2773 681.299 82.84C680.947 82.4027 680.44 82.184 679.779 82.184C679.277 82.184 678.851 82.3013 678.499 82.536C678.157 82.7707 677.896 83.096 677.715 83.512C677.533 83.928 677.443 84.4133 677.443 84.968V85.064C677.443 85.6827 677.539 86.2053 677.731 86.632C677.933 87.048 678.227 87.3627 678.611 87.576C678.995 87.7893 679.469 87.896 680.035 87.896C680.483 87.896 680.92 87.8267 681.347 87.688C681.784 87.5387 682.195 87.3093 682.579 87L683.059 88.12C682.707 88.44 682.253 88.6907 681.699 88.872C681.144 89.0533 680.584 89.144 680.019 89.144ZM687.493 89.144C686.639 89.144 685.999 88.904 685.573 88.424C685.157 87.9333 684.949 87.2293 684.949 86.312V77.72H686.565V86.216C686.565 86.5573 686.613 86.8507 686.709 87.096C686.805 87.3307 686.949 87.5067 687.141 87.624C687.333 87.7413 687.573 87.8 687.861 87.8C687.989 87.8 688.111 87.7947 688.229 87.784C688.346 87.7733 688.458 87.752 688.565 87.72L688.533 89.016C688.351 89.0587 688.175 89.0907 688.005 89.112C687.834 89.1333 687.663 89.144 687.493 89.144ZM692.383 89.144C691.53 89.144 690.89 88.904 690.463 88.424C690.047 87.9333 689.839 87.2293 689.839 86.312V77.72H691.455V86.216C691.455 86.5573 691.503 86.8507 691.599 87.096C691.695 87.3307 691.839 87.5067 692.031 87.624C692.223 87.7413 692.463 87.8 692.751 87.8C692.879 87.8 693.002 87.7947 693.119 87.784C693.236 87.7733 693.348 87.752 693.455 87.72L693.423 89.016C693.242 89.0587 693.066 89.0907 692.895 89.112C692.724 89.1333 692.554 89.144 692.383 89.144ZM702.261 89.144C701.29 89.144 700.56 88.8933 700.069 88.392C699.589 87.8907 699.349 87.1653 699.349 86.216V82.44H697.829V81.192H699.349V78.84H700.965V81.192H703.381V82.44H700.965V86.088C700.965 86.6533 701.082 87.08 701.317 87.368C701.562 87.656 701.957 87.8 702.501 87.8C702.661 87.8 702.821 87.7787 702.981 87.736C703.152 87.6933 703.317 87.6507 703.477 87.608L703.733 88.824C703.573 88.92 703.349 88.9947 703.061 89.048C702.784 89.112 702.517 89.144 702.261 89.144ZM704.633 79.384V77.704H706.521V79.384H704.633ZM704.777 89V81.192H706.393V89H704.777ZM711.995 89.144C711.025 89.144 710.294 88.8933 709.803 88.392C709.323 87.8907 709.083 87.1653 709.083 86.216V82.44H707.563V81.192H709.083V78.84H710.699V81.192H713.115V82.44H710.699V86.088C710.699 86.6533 710.817 87.08 711.051 87.368C711.297 87.656 711.691 87.8 712.235 87.8C712.395 87.8 712.555 87.7787 712.715 87.736C712.886 87.6933 713.051 87.6507 713.211 87.608L713.467 88.824C713.307 88.92 713.083 88.9947 712.795 89.048C712.518 89.112 712.251 89.144 711.995 89.144ZM717.055 89.144C716.202 89.144 715.562 88.904 715.135 88.424C714.719 87.9333 714.511 87.2293 714.511 86.312V77.72H716.127V86.216C716.127 86.5573 716.175 86.8507 716.271 87.096C716.367 87.3307 716.511 87.5067 716.703 87.624C716.895 87.7413 717.135 87.8 717.423 87.8C717.551 87.8 717.674 87.7947 717.791 87.784C717.908 87.7733 718.02 87.752 718.127 87.72L718.095 89.016C717.914 89.0587 717.738 89.0907 717.567 89.112C717.396 89.1333 717.226 89.144 717.055 89.144ZM722.988 89.144C722.134 89.144 721.398 88.984 720.78 88.664C720.172 88.3333 719.697 87.8693 719.356 87.272C719.025 86.664 718.86 85.944 718.86 85.112C718.86 84.3013 719.025 83.592 719.356 82.984C719.686 82.376 720.14 81.9013 720.716 81.56C721.292 81.2187 721.948 81.048 722.684 81.048C723.409 81.048 724.028 81.208 724.54 81.528C725.062 81.8373 725.462 82.28 725.74 82.856C726.017 83.432 726.156 84.12 726.156 84.92V85.464H720.14V84.472H725.068L724.796 84.696C724.796 83.896 724.62 83.2773 724.268 82.84C723.916 82.4027 723.409 82.184 722.748 82.184C722.246 82.184 721.82 82.3013 721.468 82.536C721.126 82.7707 720.865 83.096 720.684 83.512C720.502 83.928 720.412 84.4133 720.412 84.968V85.064C720.412 85.6827 720.508 86.2053 720.7 86.632C720.902 87.048 721.196 87.3627 721.58 87.576C721.964 87.7893 722.438 87.896 723.004 87.896C723.452 87.896 723.889 87.8267 724.316 87.688C724.753 87.5387 725.164 87.3093 725.548 87L726.028 88.12C725.676 88.44 725.222 88.6907 724.668 88.872C724.113 89.0533 723.553 89.144 722.988 89.144ZM734.856 89.144C734.44 89.144 734.035 89.1067 733.64 89.032C733.246 88.9573 732.883 88.8507 732.552 88.712C732.222 88.5733 731.928 88.4027 731.672 88.2L732.136 87.112C732.403 87.2933 732.686 87.4533 732.984 87.592C733.283 87.72 733.592 87.816 733.912 87.88C734.243 87.944 734.563 87.976 734.872 87.976C735.438 87.976 735.864 87.8747 736.152 87.672C736.44 87.4693 736.584 87.1973 736.584 86.856C736.584 86.5787 736.488 86.3653 736.296 86.216C736.104 86.056 735.816 85.9333 735.432 85.848L733.912 85.544C733.251 85.4053 732.75 85.16 732.408 84.808C732.067 84.456 731.896 84.008 731.896 83.464C731.896 82.9733 732.03 82.5467 732.296 82.184C732.563 81.8213 732.936 81.544 733.416 81.352C733.896 81.1493 734.451 81.048 735.08 81.048C735.443 81.048 735.795 81.0853 736.136 81.16C736.478 81.2347 736.798 81.3413 737.096 81.48C737.406 81.6187 737.667 81.7947 737.88 82.008L737.416 83.096C737.214 82.9147 736.979 82.76 736.712 82.632C736.456 82.504 736.19 82.408 735.912 82.344C735.635 82.2693 735.358 82.232 735.08 82.232C734.515 82.232 734.088 82.3387 733.8 82.552C733.523 82.7547 733.384 83.032 733.384 83.384C733.384 83.6507 733.47 83.8693 733.64 84.04C733.811 84.2107 734.078 84.3333 734.44 84.408L735.96 84.712C736.654 84.8507 737.176 85.0853 737.528 85.416C737.891 85.7467 738.072 86.1947 738.072 86.76C738.072 87.2507 737.939 87.6773 737.672 88.04C737.406 88.4027 737.027 88.68 736.536 88.872C736.056 89.0533 735.496 89.144 734.856 89.144ZM742.414 89.144C741.561 89.144 740.921 88.904 740.494 88.424C740.078 87.9333 739.87 87.2293 739.87 86.312V77.72H741.486V86.216C741.486 86.5573 741.534 86.8507 741.63 87.096C741.726 87.3307 741.87 87.5067 742.062 87.624C742.254 87.7413 742.494 87.8 742.782 87.8C742.91 87.8 743.033 87.7947 743.15 87.784C743.268 87.7733 743.38 87.752 743.486 87.72L743.454 89.016C743.273 89.0587 743.097 89.0907 742.926 89.112C742.756 89.1333 742.585 89.144 742.414 89.144ZM748.075 89.144C747.286 89.144 746.603 88.9787 746.027 88.648C745.462 88.3173 745.019 87.848 744.699 87.24C744.379 86.632 744.219 85.9173 744.219 85.096C744.219 84.264 744.379 83.5493 744.699 82.952C745.019 82.344 745.462 81.8747 746.027 81.544C746.603 81.2133 747.286 81.048 748.075 81.048C748.854 81.048 749.526 81.2133 750.091 81.544C750.667 81.8747 751.115 82.344 751.435 82.952C751.755 83.56 751.915 84.2747 751.915 85.096C751.915 85.9173 751.755 86.632 751.435 87.24C751.115 87.848 750.667 88.3173 750.091 88.648C749.526 88.9787 748.854 89.144 748.075 89.144ZM748.059 87.896C748.731 87.896 749.27 87.656 749.675 87.176C750.08 86.696 750.283 86.0027 750.283 85.096C750.283 84.1787 750.08 83.4853 749.675 83.016C749.27 82.5467 748.731 82.312 748.059 82.312C747.398 82.312 746.864 82.5467 746.459 83.016C746.054 83.4853 745.851 84.1787 745.851 85.096C745.851 86.0027 746.054 86.696 746.459 87.176C746.864 87.656 747.398 87.896 748.059 87.896ZM756.98 89.144C756.009 89.144 755.278 88.8933 754.788 88.392C754.308 87.8907 754.068 87.1653 754.068 86.216V82.44H752.548V81.192H754.068V78.84H755.684V81.192H758.1V82.44H755.684V86.088C755.684 86.6533 755.801 87.08 756.036 87.368C756.281 87.656 756.676 87.8 757.22 87.8C757.38 87.8 757.54 87.7787 757.7 87.736C757.87 87.6933 758.036 87.6507 758.196 87.608L758.452 88.824C758.292 88.92 758.068 88.9947 757.78 89.048C757.502 89.112 757.236 89.144 756.98 89.144ZM763.507 81.48V80.184C763.507 79.864 763.539 79.56 763.603 79.272C763.677 78.984 763.795 78.7013 763.955 78.424C764.125 78.1467 764.344 77.8747 764.611 77.608L765.331 78.168C765.128 78.3813 764.963 78.584 764.835 78.776C764.717 78.968 764.632 79.16 764.579 79.352C764.536 79.5333 764.515 79.7253 764.515 79.928L764.067 79.576H765.411V81.48H763.507ZM766.371 81.48V80.184C766.371 79.864 766.403 79.56 766.467 79.272C766.541 78.984 766.659 78.7013 766.819 78.424C766.989 78.1467 767.208 77.8747 767.475 77.608L768.195 78.168C767.992 78.3813 767.827 78.584 767.699 78.776C767.581 78.968 767.496 79.16 767.443 79.352C767.4 79.5333 767.379 79.7253 767.379 79.928L766.931 79.576H768.275V81.48H766.371ZM770.355 89V81.192H771.923V82.856H771.747C771.981 82.2587 772.349 81.8107 772.851 81.512C773.352 81.2027 773.928 81.048 774.579 81.048C775.197 81.048 775.709 81.1653 776.115 81.4C776.531 81.624 776.84 81.9707 777.043 82.44C777.245 82.8987 777.347 83.48 777.347 84.184V89H775.731V84.28C775.731 83.832 775.672 83.4693 775.555 83.192C775.437 82.904 775.261 82.6907 775.027 82.552C774.792 82.4133 774.488 82.344 774.115 82.344C773.688 82.344 773.309 82.4347 772.979 82.616C772.659 82.7973 772.408 83.0587 772.227 83.4C772.056 83.7413 771.971 84.136 771.971 84.584V89H770.355ZM782.07 89.144C781.526 89.144 781.035 89.0373 780.598 88.824C780.171 88.6107 779.835 88.3227 779.59 87.96C779.344 87.5973 779.222 87.1867 779.222 86.728C779.222 86.152 779.366 85.6987 779.654 85.368C779.952 85.0267 780.438 84.7867 781.11 84.648C781.792 84.4987 782.71 84.424 783.862 84.424H784.614V85.416H783.878C783.302 85.416 782.816 85.4373 782.422 85.48C782.027 85.5227 781.712 85.592 781.478 85.688C781.243 85.7733 781.072 85.896 780.966 86.056C780.87 86.216 780.822 86.408 780.822 86.632C780.822 87.0373 780.96 87.368 781.238 87.624C781.515 87.8693 781.899 87.992 782.39 87.992C782.784 87.992 783.131 87.9013 783.43 87.72C783.728 87.528 783.963 87.272 784.134 86.952C784.315 86.632 784.406 86.264 784.406 85.848V84.008C784.406 83.4 784.278 82.9627 784.022 82.696C783.766 82.4293 783.344 82.296 782.758 82.296C782.31 82.296 781.862 82.3653 781.414 82.504C780.966 82.632 780.507 82.84 780.038 83.128L779.542 81.992C779.819 81.8 780.139 81.6347 780.502 81.496C780.864 81.3573 781.243 81.2507 781.638 81.176C782.043 81.0907 782.432 81.048 782.806 81.048C783.52 81.048 784.107 81.16 784.566 81.384C785.035 81.608 785.382 81.9493 785.606 82.408C785.83 82.8667 785.942 83.4587 785.942 84.184V89H784.422V87.256H784.566C784.48 87.6507 784.32 87.992 784.086 88.28C783.862 88.5573 783.579 88.7707 783.238 88.92C782.896 89.0693 782.507 89.144 782.07 89.144ZM788.199 89V81.192H789.767V82.856H789.591C789.73 82.472 789.922 82.1467 790.167 81.88C790.413 81.6133 790.706 81.4107 791.047 81.272C791.399 81.1227 791.783 81.048 792.199 81.048C792.85 81.048 793.378 81.2027 793.783 81.512C794.189 81.8213 794.466 82.296 794.615 82.936H794.391C794.594 82.3493 794.941 81.8907 795.431 81.56C795.922 81.2187 796.493 81.048 797.143 81.048C797.741 81.048 798.231 81.1653 798.615 81.4C798.999 81.624 799.287 81.9707 799.479 82.44C799.671 82.8987 799.767 83.48 799.767 84.184V89H798.151V84.264C798.151 83.6027 798.034 83.1173 797.799 82.808C797.575 82.4987 797.202 82.344 796.679 82.344C796.295 82.344 795.959 82.4347 795.671 82.616C795.383 82.7973 795.159 83.064 794.999 83.416C794.85 83.7573 794.775 84.1627 794.775 84.632V89H793.159V84.264C793.159 83.6027 793.047 83.1173 792.823 82.808C792.599 82.4987 792.226 82.344 791.703 82.344C791.309 82.344 790.967 82.4347 790.679 82.616C790.402 82.7973 790.189 83.064 790.039 83.416C789.89 83.7573 789.815 84.1627 789.815 84.632V89H788.199ZM805.691 89.144C804.837 89.144 804.101 88.984 803.483 88.664C802.875 88.3333 802.4 87.8693 802.059 87.272C801.728 86.664 801.563 85.944 801.563 85.112C801.563 84.3013 801.728 83.592 802.059 82.984C802.389 82.376 802.843 81.9013 803.419 81.56C803.995 81.2187 804.651 81.048 805.387 81.048C806.112 81.048 806.731 81.208 807.243 81.528C807.765 81.8373 808.165 82.28 808.443 82.856C808.72 83.432 808.859 84.12 808.859 84.92V85.464H802.843V84.472H807.771L807.499 84.696C807.499 83.896 807.323 83.2773 806.971 82.84C806.619 82.4027 806.112 82.184 805.451 82.184C804.949 82.184 804.523 82.3013 804.171 82.536C803.829 82.7707 803.568 83.096 803.387 83.512C803.205 83.928 803.115 84.4133 803.115 84.968V85.064C803.115 85.6827 803.211 86.2053 803.403 86.632C803.605 87.048 803.899 87.3627 804.283 87.576C804.667 87.7893 805.141 87.896 805.707 87.896C806.155 87.896 806.592 87.8267 807.019 87.688C807.456 87.5387 807.867 87.3093 808.251 87L808.731 88.12C808.379 88.44 807.925 88.6907 807.371 88.872C806.816 89.0533 806.256 89.144 805.691 89.144ZM810.38 83.4V82.216H818.188V83.4H810.38ZM810.38 86.584V85.416H818.188V86.584H810.38ZM823.542 89.144C822.571 89.144 821.841 88.8933 821.35 88.392C820.87 87.8907 820.63 87.1653 820.63 86.216V82.44H819.11V81.192H820.63V78.84H822.246V81.192H824.662V82.44H822.246V86.088C822.246 86.6533 822.363 87.08 822.598 87.368C822.843 87.656 823.238 87.8 823.782 87.8C823.942 87.8 824.102 87.7787 824.262 87.736C824.433 87.6933 824.598 87.6507 824.758 87.608L825.014 88.824C824.854 88.92 824.63 88.9947 824.342 89.048C824.065 89.112 823.798 89.144 823.542 89.144ZM825.914 79.384V77.704H827.802V79.384H825.914ZM826.058 89V81.192H827.674V89H826.058ZM833.277 89.144C832.306 89.144 831.575 88.8933 831.085 88.392C830.605 87.8907 830.365 87.1653 830.365 86.216V82.44H828.845V81.192H830.365V78.84H831.981V81.192H834.397V82.44H831.981V86.088C831.981 86.6533 832.098 87.08 832.333 87.368C832.578 87.656 832.973 87.8 833.516 87.8C833.677 87.8 833.837 87.7787 833.997 87.736C834.167 87.6933 834.333 87.6507 834.493 87.608L834.749 88.824C834.589 88.92 834.365 88.9947 834.077 89.048C833.799 89.112 833.533 89.144 833.277 89.144ZM838.336 89.144C837.483 89.144 836.843 88.904 836.416 88.424C836 87.9333 835.792 87.2293 835.792 86.312V77.72H837.408V86.216C837.408 86.5573 837.456 86.8507 837.552 87.096C837.648 87.3307 837.792 87.5067 837.984 87.624C838.176 87.7413 838.416 87.8 838.704 87.8C838.832 87.8 838.955 87.7947 839.072 87.784C839.19 87.7733 839.302 87.752 839.408 87.72L839.376 89.016C839.195 89.0587 839.019 89.0907 838.848 89.112C838.678 89.1333 838.507 89.144 838.336 89.144ZM844.269 89.144C843.415 89.144 842.679 88.984 842.061 88.664C841.453 88.3333 840.978 87.8693 840.637 87.272C840.306 86.664 840.141 85.944 840.141 85.112C840.141 84.3013 840.306 83.592 840.637 82.984C840.967 82.376 841.421 81.9013 841.997 81.56C842.573 81.2187 843.229 81.048 843.965 81.048C844.69 81.048 845.309 81.208 845.821 81.528C846.343 81.8373 846.743 82.28 847.021 82.856C847.298 83.432 847.437 84.12 847.437 84.92V85.464H841.421V84.472H846.349L846.077 84.696C846.077 83.896 845.901 83.2773 845.549 82.84C845.197 82.4027 844.69 82.184 844.029 82.184C843.527 82.184 843.101 82.3013 842.749 82.536C842.407 82.7707 842.146 83.096 841.965 83.512C841.783 83.928 841.693 84.4133 841.693 84.968V85.064C841.693 85.6827 841.789 86.2053 841.981 86.632C842.183 87.048 842.477 87.3627 842.861 87.576C843.245 87.7893 843.719 87.896 844.285 87.896C844.733 87.896 845.17 87.8267 845.597 87.688C846.034 87.5387 846.445 87.3093 846.829 87L847.309 88.12C846.957 88.44 846.503 88.6907 845.949 88.872C845.394 89.0533 844.834 89.144 844.269 89.144ZM849.354 81.592L848.65 81.048C848.852 80.824 849.012 80.6213 849.13 80.44C849.247 80.248 849.327 80.056 849.37 79.864C849.423 79.672 849.45 79.4747 849.45 79.272L849.898 79.624H848.538V77.72H850.458V79.016C850.458 79.336 850.42 79.64 850.346 79.928C850.282 80.216 850.17 80.4987 850.01 80.776C849.85 81.0427 849.631 81.3147 849.354 81.592ZM852.218 81.592L851.514 81.048C851.716 80.824 851.876 80.6213 851.994 80.44C852.111 80.248 852.191 80.056 852.234 79.864C852.287 79.672 852.314 79.4747 852.314 79.272L852.762 79.624H851.402V77.72H853.322V79.016C853.322 79.336 853.284 79.64 853.21 79.928C853.146 80.216 853.034 80.4987 852.874 80.776C852.714 81.0427 852.495 81.3147 852.218 81.592Z" fill="#222120"/>
<path d="M640.399 133V111.85H643.519V120.97H655.369V111.85H658.459V133H655.369V123.58H643.519V133H640.399ZM664.448 133V130.39H669.248V114.49H670.808L665.498 117.79L664.238 115.48L670.148 111.85H672.338V130.39H676.838V133H664.448ZM693.617 133.27C692.597 133.27 691.677 133.07 690.857 132.67C690.057 132.27 689.427 131.73 688.967 131.05C688.507 130.37 688.277 129.6 688.277 128.74C688.277 127.66 688.547 126.81 689.087 126.19C689.647 125.55 690.557 125.1 691.817 124.84C693.097 124.56 694.817 124.42 696.977 124.42H698.387V126.28H697.007C695.927 126.28 695.017 126.32 694.277 126.4C693.537 126.48 692.947 126.61 692.507 126.79C692.067 126.95 691.747 127.18 691.547 127.48C691.367 127.78 691.277 128.14 691.277 128.56C691.277 129.32 691.537 129.94 692.057 130.42C692.577 130.88 693.297 131.11 694.217 131.11C694.957 131.11 695.607 130.94 696.167 130.6C696.727 130.24 697.167 129.76 697.487 129.16C697.827 128.56 697.997 127.87 697.997 127.09V123.64C697.997 122.5 697.757 121.68 697.277 121.18C696.797 120.68 696.007 120.43 694.907 120.43C694.067 120.43 693.227 120.56 692.387 120.82C691.547 121.06 690.687 121.45 689.807 121.99L688.877 119.86C689.397 119.5 689.997 119.19 690.677 118.93C691.357 118.67 692.067 118.47 692.807 118.33C693.567 118.17 694.297 118.09 694.997 118.09C696.337 118.09 697.437 118.3 698.297 118.72C699.177 119.14 699.827 119.78 700.247 120.64C700.667 121.5 700.877 122.61 700.877 123.97V133H698.027V129.73H698.297C698.137 130.47 697.837 131.11 697.397 131.65C696.977 132.17 696.447 132.57 695.807 132.85C695.167 133.13 694.437 133.27 693.617 133.27ZM711.5 133.27C710 133.27 708.7 132.96 707.6 132.34C706.52 131.7 705.68 130.81 705.08 129.67C704.48 128.51 704.18 127.15 704.18 125.59C704.18 124.05 704.48 122.72 705.08 121.6C705.68 120.48 706.52 119.62 707.6 119.02C708.7 118.4 710 118.09 711.5 118.09C712.42 118.09 713.33 118.25 714.23 118.57C715.13 118.87 715.87 119.31 716.45 119.89L715.49 122.02C714.95 121.5 714.34 121.12 713.66 120.88C712.98 120.62 712.34 120.49 711.74 120.49C710.32 120.49 709.22 120.94 708.44 121.84C707.68 122.72 707.3 123.98 707.3 125.62C707.3 127.26 707.68 128.55 708.44 129.49C709.22 130.41 710.32 130.87 711.74 130.87C712.34 130.87 712.98 130.75 713.66 130.51C714.34 130.25 714.95 129.86 715.49 129.34L716.45 131.5C715.87 132.04 715.12 132.47 714.2 132.79C713.3 133.11 712.4 133.27 711.5 133.27ZM725.323 133.27C723.503 133.27 722.133 132.8 721.213 131.86C720.313 130.92 719.863 129.56 719.863 127.78V120.7H717.013V118.36H719.863V113.95H722.893V118.36H727.423V120.7H722.893V127.54C722.893 128.6 723.113 129.4 723.553 129.94C724.013 130.48 724.753 130.75 725.773 130.75C726.073 130.75 726.373 130.71 726.673 130.63C726.993 130.55 727.303 130.47 727.603 130.39L728.083 132.67C727.783 132.85 727.363 132.99 726.823 133.09C726.303 133.21 725.803 133.27 725.323 133.27ZM729.77 114.97V111.82H733.31V114.97H729.77ZM730.04 133V118.36H733.07V133H730.04ZM741.625 133L735.325 118.36H738.595L743.485 130.51H742.645L747.655 118.36H750.745L744.355 133H741.625ZM752.651 114.97V111.82H756.191V114.97H752.651ZM752.921 133V118.36H755.951V133H752.921ZM766.456 133.27C764.636 133.27 763.266 132.8 762.346 131.86C761.446 130.92 760.996 129.56 760.996 127.78V120.7H758.146V118.36H760.996V113.95H764.026V118.36H768.556V120.7H764.026V127.54C764.026 128.6 764.246 129.4 764.686 129.94C765.146 130.48 765.886 130.75 766.906 130.75C767.206 130.75 767.506 130.71 767.806 130.63C768.126 130.55 768.436 130.47 768.736 130.39L769.216 132.67C768.916 132.85 768.496 132.99 767.956 133.09C767.436 133.21 766.936 133.27 766.456 133.27ZM772.878 138.4L775.758 131.98V133.27L769.368 118.36H772.608L777.528 130.51H776.688L781.668 118.36H784.788L776.058 138.4H772.878ZM801.085 133.27C799.265 133.27 797.895 132.8 796.975 131.86C796.075 130.92 795.625 129.56 795.625 127.78V120.7H792.775V118.36H795.625V113.95H798.655V118.36H803.185V120.7H798.655V127.54C798.655 128.6 798.875 129.4 799.315 129.94C799.775 130.48 800.515 130.75 801.535 130.75C801.835 130.75 802.135 130.71 802.435 130.63C802.755 130.55 803.065 130.47 803.365 130.39L803.845 132.67C803.545 132.85 803.125 132.99 802.585 133.09C802.065 133.21 801.565 133.27 801.085 133.27ZM805.532 114.97V111.82H809.072V114.97H805.532ZM805.802 133V118.36H808.832V133H805.802ZM819.337 133.27C817.517 133.27 816.147 132.8 815.227 131.86C814.327 130.92 813.877 129.56 813.877 127.78V120.7H811.027V118.36H813.877V113.95H816.907V118.36H821.437V120.7H816.907V127.54C816.907 128.6 817.127 129.4 817.567 129.94C818.027 130.48 818.767 130.75 819.787 130.75C820.087 130.75 820.387 130.71 820.687 130.63C821.007 130.55 821.317 130.47 821.617 130.39L822.097 132.67C821.797 132.85 821.377 132.99 820.837 133.09C820.317 133.21 819.817 133.27 819.337 133.27ZM828.824 133.27C827.224 133.27 826.024 132.82 825.224 131.92C824.444 131 824.054 129.68 824.054 127.96V111.85H827.084V127.78C827.084 128.42 827.174 128.97 827.354 129.43C827.534 129.87 827.804 130.2 828.164 130.42C828.524 130.64 828.974 130.75 829.514 130.75C829.754 130.75 829.984 130.74 830.204 130.72C830.424 130.7 830.634 130.66 830.834 130.6L830.774 133.03C830.434 133.11 830.104 133.17 829.784 133.21C829.464 133.25 829.144 133.27 828.824 133.27ZM839.947 133.27C838.347 133.27 836.967 132.97 835.807 132.37C834.667 131.75 833.777 130.88 833.137 129.76C832.517 128.62 832.207 127.27 832.207 125.71C832.207 124.19 832.517 122.86 833.137 121.72C833.757 120.58 834.607 119.69 835.687 119.05C836.767 118.41 837.997 118.09 839.377 118.09C840.737 118.09 841.897 118.39 842.857 118.99C843.837 119.57 844.587 120.4 845.107 121.48C845.627 122.56 845.887 123.85 845.887 125.35V126.37H834.607V124.51H843.847L843.337 124.93C843.337 123.43 843.007 122.27 842.347 121.45C841.687 120.63 840.737 120.22 839.497 120.22C838.557 120.22 837.757 120.44 837.097 120.88C836.457 121.32 835.967 121.93 835.627 122.71C835.287 123.49 835.117 124.4 835.117 125.44V125.62C835.117 126.78 835.297 127.76 835.657 128.56C836.037 129.34 836.587 129.93 837.307 130.33C838.027 130.73 838.917 130.93 839.977 130.93C840.817 130.93 841.637 130.8 842.437 130.54C843.257 130.26 844.027 129.83 844.747 129.25L845.647 131.35C844.987 131.95 844.137 132.42 843.097 132.76C842.057 133.1 841.007 133.27 839.947 133.27Z" fill="#222120"/>
<rect width="1100" height="771" transform="translate(193 172)" fill="#FFF2AF"/>
<rect x="203" y="182" width="1080" height="751" fill="white"/>
<rect x="203" y="182" width="1080" height="751" stroke="#FFF2AF" stroke-width="20"/>
<path d="M229.32 221.1L214.68 215.37V211.38L229.32 205.65V209.58L216 214.71V212.1L229.32 217.2V221.1ZM232.608 222V207.24H237.798V209.82H237.468C237.748 209.22 238.118 208.71 238.578 208.29C239.038 207.85 239.578 207.51 240.198 207.27C240.838 207.03 241.538 206.91 242.298 206.91C243.378 206.91 244.298 207.17 245.058 207.69C245.838 208.21 246.398 209 246.738 210.06H246.318C246.778 209.08 247.468 208.31 248.388 207.75C249.308 207.19 250.328 206.91 251.448 206.91C252.608 206.91 253.558 207.14 254.298 207.6C255.038 208.04 255.588 208.74 255.948 209.7C256.328 210.64 256.518 211.83 256.518 213.27V222H251.178V213.42C251.178 212.56 251.048 211.94 250.788 211.56C250.528 211.18 250.098 210.99 249.498 210.99C249.018 210.99 248.598 211.11 248.238 211.35C247.898 211.57 247.638 211.91 247.458 212.37C247.298 212.81 247.218 213.35 247.218 213.99V222H241.878V213.42C241.878 212.56 241.748 211.94 241.488 211.56C241.228 211.18 240.798 210.99 240.198 210.99C239.718 210.99 239.308 211.11 238.968 211.35C238.628 211.57 238.368 211.91 238.188 212.37C238.028 212.81 237.948 213.35 237.948 213.99V222H232.608ZM264.749 222.33C263.609 222.33 262.599 222.12 261.719 221.7C260.859 221.28 260.179 220.71 259.679 219.99C259.199 219.25 258.959 218.41 258.959 217.47C258.959 216.39 259.239 215.54 259.799 214.92C260.359 214.3 261.259 213.86 262.499 213.6C263.739 213.32 265.389 213.18 267.449 213.18H269.099V215.7H267.449C266.869 215.7 266.359 215.73 265.919 215.79C265.499 215.85 265.149 215.95 264.869 216.09C264.589 216.21 264.379 216.37 264.239 216.57C264.099 216.77 264.029 217 264.029 217.26C264.029 217.72 264.189 218.1 264.509 218.4C264.849 218.7 265.329 218.85 265.949 218.85C266.449 218.85 266.889 218.74 267.269 218.52C267.669 218.3 267.989 218 268.229 217.62C268.469 217.22 268.589 216.76 268.589 216.24V212.76C268.589 212.04 268.399 211.53 268.019 211.23C267.659 210.93 267.029 210.78 266.129 210.78C265.369 210.78 264.529 210.9 263.609 211.14C262.689 211.38 261.789 211.75 260.909 212.25L259.559 208.74C260.079 208.38 260.719 208.06 261.479 207.78C262.259 207.5 263.079 207.29 263.939 207.15C264.819 206.99 265.629 206.91 266.369 206.91C268.009 206.91 269.359 207.15 270.419 207.63C271.499 208.09 272.299 208.81 272.819 209.79C273.359 210.75 273.629 211.99 273.629 213.51V222H268.649V219.21H268.829C268.729 219.85 268.499 220.4 268.139 220.86C267.779 221.32 267.309 221.68 266.729 221.94C266.149 222.2 265.489 222.33 264.749 222.33ZM276.519 204.69V199.86H282.129V204.69H276.519ZM276.669 222V207.24H282.009V222H276.669ZM285.107 222V207.24H290.297V209.82H289.967C290.447 208.88 291.127 208.16 292.007 207.66C292.907 207.16 293.927 206.91 295.067 206.91C296.247 206.91 297.217 207.14 297.977 207.6C298.737 208.04 299.307 208.74 299.687 209.7C300.067 210.64 300.257 211.83 300.257 213.27V222H294.917V213.48C294.917 212.88 294.847 212.4 294.707 212.04C294.567 211.66 294.357 211.39 294.077 211.23C293.817 211.07 293.487 210.99 293.087 210.99C292.547 210.99 292.077 211.11 291.677 211.35C291.277 211.57 290.967 211.89 290.747 212.31C290.547 212.73 290.447 213.23 290.447 213.81V222H285.107ZM303.42 221.1V217.2L316.77 212.1V214.71L303.42 209.58V205.65L318.06 211.38V215.37L303.42 221.1ZM331.013 222V217.53H335.723V205.44H338.243L332.153 208.92L330.143 204.93L337.343 200.85H341.213V217.53H345.623V222H331.013ZM349.001 222V217.53H353.711V205.44H356.231L350.141 208.92L348.131 204.93L355.331 200.85H359.201V217.53H363.611V222H349.001ZM373.289 222.33C371.549 222.33 370.079 221.9 368.879 221.04C367.679 220.18 366.769 218.94 366.149 217.32C365.529 215.68 365.219 213.69 365.219 211.35C365.219 208.99 365.529 207.01 366.149 205.41C366.769 203.79 367.679 202.57 368.879 201.75C370.079 200.93 371.549 200.52 373.289 200.52C375.029 200.52 376.499 200.93 377.699 201.75C378.899 202.57 379.809 203.79 380.429 205.41C381.049 207.01 381.359 208.98 381.359 211.32C381.359 213.66 381.049 215.65 380.429 217.29C379.809 218.93 378.899 220.18 377.699 221.04C376.499 221.9 375.029 222.33 373.289 222.33ZM373.289 217.95C374.249 217.95 374.959 217.43 375.419 216.39C375.899 215.33 376.139 213.64 376.139 211.32C376.139 209.02 375.899 207.38 375.419 206.4C374.959 205.4 374.249 204.9 373.289 204.9C372.329 204.9 371.609 205.4 371.129 206.4C370.669 207.38 370.439 209.03 370.439 211.35C370.439 213.65 370.669 215.33 371.129 216.39C371.609 217.43 372.329 217.95 373.289 217.95ZM391.277 222.33C389.537 222.33 388.067 221.9 386.867 221.04C385.667 220.18 384.757 218.94 384.137 217.32C383.517 215.68 383.207 213.69 383.207 211.35C383.207 208.99 383.517 207.01 384.137 205.41C384.757 203.79 385.667 202.57 386.867 201.75C388.067 200.93 389.537 200.52 391.277 200.52C393.017 200.52 394.487 200.93 395.687 201.75C396.887 202.57 397.797 203.79 398.417 205.41C399.037 207.01 399.347 208.98 399.347 211.32C399.347 213.66 399.037 215.65 398.417 217.29C397.797 218.93 396.887 220.18 395.687 221.04C394.487 221.9 393.017 222.33 391.277 222.33ZM391.277 217.95C392.237 217.95 392.947 217.43 393.407 216.39C393.887 215.33 394.127 213.64 394.127 211.32C394.127 209.02 393.887 207.38 393.407 206.4C392.947 205.4 392.237 204.9 391.277 204.9C390.317 204.9 389.597 205.4 389.117 206.4C388.657 207.38 388.427 209.03 388.427 211.35C388.427 213.65 388.657 215.33 389.117 216.39C389.597 217.43 390.317 217.95 391.277 217.95ZM401.826 227.4V207.24H407.016V209.91H406.746C407.026 209.01 407.606 208.29 408.486 207.75C409.386 207.19 410.406 206.91 411.546 206.91C412.826 206.91 413.946 207.22 414.906 207.84C415.886 208.46 416.646 209.34 417.186 210.48C417.726 211.62 417.996 213 417.996 214.62C417.996 216.2 417.726 217.57 417.186 218.73C416.646 219.89 415.886 220.78 414.906 221.4C413.946 222.02 412.826 222.33 411.546 222.33C410.446 222.33 409.456 222.07 408.576 221.55C407.696 221.03 407.106 220.35 406.806 219.51H407.166V227.4H401.826ZM409.866 218.4C410.666 218.4 411.326 218.1 411.846 217.5C412.366 216.9 412.626 215.94 412.626 214.62C412.626 213.28 412.366 212.32 411.846 211.74C411.326 211.14 410.666 210.84 409.866 210.84C409.046 210.84 408.376 211.14 407.856 211.74C407.336 212.32 407.076 213.28 407.076 214.62C407.076 215.94 407.336 216.9 407.856 217.5C408.376 218.1 409.046 218.4 409.866 218.4ZM417.769 222L424.999 213.21V215.58L418.159 207.24H424.369L427.999 211.92H426.139L429.769 207.24H435.949L429.109 215.58V213.21L436.399 222H430.159L426.139 216.9H427.969L423.949 222H417.769Z" fill="#222120"/>
<path d="M201.865 1112.39C200.815 1112.39 199.8 1112.32 198.82 1112.18C197.863 1112.04 196.988 1111.82 196.195 1111.54C195.401 1111.26 194.69 1110.93 194.06 1110.53L195.495 1106.5C196.078 1106.83 196.72 1107.12 197.42 1107.38C198.143 1107.64 198.89 1107.83 199.66 1107.97C200.43 1108.11 201.176 1108.18 201.9 1108.18C202.763 1108.18 203.381 1108.07 203.755 1107.83C204.128 1107.58 204.315 1107.25 204.315 1106.86C204.315 1106.5 204.186 1106.24 203.93 1106.05C203.696 1105.86 203.358 1105.73 202.915 1105.66L199.03 1105.03C197.583 1104.78 196.463 1104.25 195.67 1103.46C194.876 1102.64 194.48 1101.58 194.48 1100.27C194.48 1099.06 194.818 1098.02 195.495 1097.16C196.195 1096.27 197.14 1095.6 198.33 1095.13C199.543 1094.64 200.931 1094.39 202.495 1094.39C203.335 1094.39 204.163 1094.46 204.98 1094.6C205.796 1094.72 206.578 1094.92 207.325 1095.2C208.071 1095.46 208.748 1095.81 209.355 1096.25L207.815 1100.2C207.371 1099.88 206.846 1099.6 206.24 1099.36C205.633 1099.13 205.003 1098.94 204.35 1098.8C203.72 1098.64 203.136 1098.56 202.6 1098.56C201.643 1098.56 200.966 1098.69 200.57 1098.94C200.173 1099.2 199.975 1099.53 199.975 1099.92C199.975 1100.23 200.08 1100.48 200.29 1100.69C200.5 1100.88 200.826 1101.01 201.27 1101.08L205.155 1101.74C206.648 1101.98 207.791 1102.49 208.585 1103.28C209.401 1104.05 209.81 1105.1 209.81 1106.43C209.81 1107.69 209.483 1108.77 208.83 1109.65C208.176 1110.54 207.255 1111.22 206.065 1111.68C204.875 1112.15 203.475 1112.39 201.865 1112.39ZM219.158 1112.39C216.778 1112.39 215.051 1111.79 213.978 1110.6C212.905 1109.39 212.368 1107.57 212.368 1105.14V1087.32H218.598V1104.93C218.598 1105.44 218.668 1105.89 218.808 1106.26C218.971 1106.63 219.216 1106.91 219.543 1107.1C219.893 1107.29 220.325 1107.38 220.838 1107.38C221.071 1107.38 221.305 1107.37 221.538 1107.34C221.795 1107.32 222.04 1107.29 222.273 1107.24L222.203 1112C221.736 1112.14 221.246 1112.23 220.733 1112.28C220.243 1112.35 219.718 1112.39 219.158 1112.39ZM233.08 1112.39C231.167 1112.39 229.498 1112.02 228.075 1111.3C226.652 1110.58 225.543 1109.54 224.75 1108.18C223.957 1106.83 223.56 1105.23 223.56 1103.39C223.56 1101.52 223.957 1099.92 224.75 1098.59C225.543 1097.24 226.652 1096.2 228.075 1095.48C229.498 1094.76 231.167 1094.39 233.08 1094.39C234.993 1094.39 236.662 1094.76 238.085 1095.48C239.508 1096.2 240.605 1097.24 241.375 1098.59C242.168 1099.92 242.565 1101.52 242.565 1103.39C242.565 1105.23 242.168 1106.83 241.375 1108.18C240.605 1109.54 239.508 1110.58 238.085 1111.3C236.662 1112.02 234.993 1112.39 233.08 1112.39ZM233.08 1107.8C234.013 1107.8 234.783 1107.45 235.39 1106.75C235.997 1106.05 236.3 1104.93 236.3 1103.39C236.3 1101.83 235.997 1100.71 235.39 1100.03C234.783 1099.33 234.013 1098.98 233.08 1098.98C232.123 1098.98 231.342 1099.33 230.735 1100.03C230.128 1100.71 229.825 1101.83 229.825 1103.39C229.825 1104.93 230.128 1106.05 230.735 1106.75C231.342 1107.45 232.123 1107.8 233.08 1107.8ZM254.279 1112.39C251.665 1112.39 249.729 1111.78 248.469 1110.56C247.209 1109.35 246.579 1107.52 246.579 1105.07V1099.36H243.359V1094.78H246.579V1089.77H252.809V1094.78H257.709V1099.36H252.809V1104.86C252.809 1105.72 253.007 1106.36 253.404 1106.78C253.824 1107.18 254.477 1107.38 255.364 1107.38C255.644 1107.38 255.947 1107.34 256.274 1107.27C256.624 1107.2 257.009 1107.12 257.429 1107.03L258.269 1111.51C257.732 1111.79 257.102 1112 256.379 1112.14C255.679 1112.3 254.979 1112.39 254.279 1112.39ZM269.851 1098.8V1094.81C269.851 1093.83 269.967 1092.92 270.201 1092.08C270.434 1091.22 270.807 1090.38 271.321 1089.56C271.834 1088.72 272.522 1087.87 273.386 1087.01L275.766 1088.86C275.159 1089.47 274.669 1090.04 274.296 1090.58C273.922 1091.12 273.642 1091.66 273.456 1092.23C273.292 1092.76 273.211 1093.34 273.211 1093.97L271.846 1092.43H276.326V1098.8H269.851ZM277.901 1098.8V1094.81C277.901 1093.83 278.017 1092.92 278.251 1092.08C278.484 1091.22 278.857 1090.38 279.371 1089.56C279.884 1088.72 280.572 1087.87 281.436 1087.01L283.816 1088.86C283.209 1089.47 282.719 1090.04 282.346 1090.58C281.972 1091.12 281.692 1091.66 281.506 1092.23C281.342 1092.76 281.261 1093.34 281.261 1093.97L279.896 1092.43H284.376V1098.8H277.901ZM289.478 1112V1099.36H286.223V1094.78H291.263L289.478 1096.42V1095.44C289.478 1092.78 290.189 1090.79 291.613 1089.46C293.059 1088.13 295.323 1087.38 298.403 1087.22L300.503 1087.11L300.853 1091.56L299.243 1091.66C298.356 1091.71 297.644 1091.84 297.108 1092.05C296.594 1092.24 296.233 1092.52 296.023 1092.89C295.813 1093.24 295.708 1093.69 295.708 1094.25V1095.41L294.938 1094.78H300.048V1099.36H295.708V1112H289.478ZM310.429 1112.39C308.515 1112.39 306.847 1112.02 305.424 1111.3C304 1110.58 302.892 1109.54 302.099 1108.18C301.305 1106.83 300.909 1105.23 300.909 1103.39C300.909 1101.52 301.305 1099.92 302.099 1098.59C302.892 1097.24 304 1096.2 305.424 1095.48C306.847 1094.76 308.515 1094.39 310.429 1094.39C312.342 1094.39 314.01 1094.76 315.434 1095.48C316.857 1096.2 317.954 1097.24 318.724 1098.59C319.517 1099.92 319.914 1101.52 319.914 1103.39C319.914 1105.23 319.517 1106.83 318.724 1108.18C317.954 1109.54 316.857 1110.58 315.434 1111.3C314.01 1112.02 312.342 1112.39 310.429 1112.39ZM310.429 1107.8C311.362 1107.8 312.132 1107.45 312.739 1106.75C313.345 1106.05 313.649 1104.93 313.649 1103.39C313.649 1101.83 313.345 1100.71 312.739 1100.03C312.132 1099.33 311.362 1098.98 310.429 1098.98C309.472 1098.98 308.69 1099.33 308.084 1100.03C307.477 1100.71 307.174 1101.83 307.174 1103.39C307.174 1104.93 307.477 1106.05 308.084 1106.75C308.69 1107.45 309.472 1107.8 310.429 1107.8ZM331.483 1112.39C329.57 1112.39 327.902 1112.02 326.478 1111.3C325.055 1110.58 323.947 1109.54 323.153 1108.18C322.36 1106.83 321.963 1105.23 321.963 1103.39C321.963 1101.52 322.36 1099.92 323.153 1098.59C323.947 1097.24 325.055 1096.2 326.478 1095.48C327.902 1094.76 329.57 1094.39 331.483 1094.39C333.397 1094.39 335.065 1094.76 336.488 1095.48C337.912 1096.2 339.008 1097.24 339.778 1098.59C340.572 1099.92 340.968 1101.52 340.968 1103.39C340.968 1105.23 340.572 1106.83 339.778 1108.18C339.008 1109.54 337.912 1110.58 336.488 1111.3C335.065 1112.02 333.397 1112.39 331.483 1112.39ZM331.483 1107.8C332.417 1107.8 333.187 1107.45 333.793 1106.75C334.4 1106.05 334.703 1104.93 334.703 1103.39C334.703 1101.83 334.4 1100.71 333.793 1100.03C333.187 1099.33 332.417 1098.98 331.483 1098.98C330.527 1098.98 329.745 1099.33 329.138 1100.03C328.532 1100.71 328.228 1101.83 328.228 1103.39C328.228 1104.93 328.532 1106.05 329.138 1106.75C329.745 1107.45 330.527 1107.8 331.483 1107.8ZM352.682 1112.39C350.069 1112.39 348.132 1111.78 346.872 1110.56C345.612 1109.35 344.982 1107.52 344.982 1105.07V1099.36H341.762V1094.78H344.982V1089.77H351.212V1094.78H356.112V1099.36H351.212V1104.86C351.212 1105.72 351.41 1106.36 351.807 1106.78C352.227 1107.18 352.88 1107.38 353.767 1107.38C354.047 1107.38 354.35 1107.34 354.677 1107.27C355.027 1107.2 355.412 1107.12 355.832 1107.03L356.672 1111.51C356.135 1111.79 355.505 1112 354.782 1112.14C354.082 1112.3 353.382 1112.39 352.682 1112.39ZM367.763 1112.39C365.663 1112.39 363.843 1112.02 362.303 1111.3C360.787 1110.55 359.62 1109.5 358.803 1108.15C357.987 1106.8 357.578 1105.2 357.578 1103.35C357.578 1101.58 357.963 1100.03 358.733 1098.7C359.527 1097.35 360.6 1096.3 361.953 1095.55C363.33 1094.78 364.893 1094.39 366.643 1094.39C368.393 1094.39 369.898 1094.76 371.158 1095.48C372.418 1096.2 373.387 1097.24 374.063 1098.59C374.763 1099.92 375.113 1101.49 375.113 1103.28V1104.65H362.793V1101.71H370.563L370.003 1102.16C370.003 1100.9 369.735 1099.97 369.198 1099.36C368.662 1098.73 367.903 1098.42 366.923 1098.42C366.2 1098.42 365.57 1098.59 365.033 1098.94C364.52 1099.27 364.123 1099.76 363.843 1100.41C363.563 1101.07 363.423 1101.88 363.423 1102.86V1103.18C363.423 1104.28 363.575 1105.16 363.878 1105.84C364.205 1106.52 364.707 1107.02 365.383 1107.34C366.06 1107.65 366.912 1107.8 367.938 1107.8C368.825 1107.8 369.747 1107.67 370.703 1107.41C371.683 1107.13 372.547 1106.74 373.293 1106.22L374.833 1110.32C373.947 1110.95 372.862 1111.45 371.578 1111.82C370.295 1112.2 369.023 1112.39 367.763 1112.39ZM377.798 1112V1094.78H383.853V1099.01H383.503C383.736 1097.61 384.319 1096.53 385.253 1095.76C386.209 1094.97 387.458 1094.52 388.998 1094.43L390.713 1094.29L391.063 1099.54L387.668 1099.85C386.431 1099.97 385.533 1100.32 384.973 1100.9C384.413 1101.46 384.133 1102.3 384.133 1103.42V1112H377.798ZM396.692 1099.15L394.347 1097.26C394.954 1096.68 395.444 1096.12 395.817 1095.58C396.19 1095.05 396.459 1094.51 396.622 1093.97C396.785 1093.41 396.867 1092.83 396.867 1092.23L398.267 1093.69H393.752V1087.32H400.227V1091.35C400.227 1092.31 400.11 1093.22 399.877 1094.08C399.667 1094.94 399.305 1095.78 398.792 1096.6C398.279 1097.42 397.579 1098.27 396.692 1099.15ZM404.742 1099.15L402.397 1097.26C403.004 1096.68 403.494 1096.12 403.867 1095.58C404.24 1095.05 404.509 1094.51 404.672 1093.97C404.835 1093.41 404.917 1092.83 404.917 1092.23L406.317 1093.69H401.802V1087.32H408.277V1091.35C408.277 1092.31 408.16 1093.22 407.927 1094.08C407.717 1094.94 407.355 1095.78 406.842 1096.6C406.329 1097.42 405.629 1098.27 404.742 1099.15Z" fill="#222120"/>
<rect width="261" height="61" transform="translate(1032 1063)" fill="white"/>
<path d="M1049.26 1103.27C1048.48 1103.27 1047.72 1103.2 1046.98 1103.06C1046.24 1102.92 1045.56 1102.72 1044.94 1102.46C1044.32 1102.2 1043.77 1101.88 1043.29 1101.5L1044.16 1099.46C1044.66 1099.8 1045.19 1100.1 1045.75 1100.36C1046.31 1100.6 1046.89 1100.78 1047.49 1100.9C1048.11 1101.02 1048.71 1101.08 1049.29 1101.08C1050.35 1101.08 1051.15 1100.89 1051.69 1100.51C1052.23 1100.13 1052.5 1099.62 1052.5 1098.98C1052.5 1098.46 1052.32 1098.06 1051.96 1097.78C1051.6 1097.48 1051.06 1097.25 1050.34 1097.09L1047.49 1096.52C1046.25 1096.26 1045.31 1095.8 1044.67 1095.14C1044.03 1094.48 1043.71 1093.64 1043.71 1092.62C1043.71 1091.7 1043.96 1090.9 1044.46 1090.22C1044.96 1089.54 1045.66 1089.02 1046.56 1088.66C1047.46 1088.28 1048.5 1088.09 1049.68 1088.09C1050.36 1088.09 1051.02 1088.16 1051.66 1088.3C1052.3 1088.44 1052.9 1088.64 1053.46 1088.9C1054.04 1089.16 1054.53 1089.49 1054.93 1089.89L1054.06 1091.93C1053.68 1091.59 1053.24 1091.3 1052.74 1091.06C1052.26 1090.82 1051.76 1090.64 1051.24 1090.52C1050.72 1090.38 1050.2 1090.31 1049.68 1090.31C1048.62 1090.31 1047.82 1090.51 1047.28 1090.91C1046.76 1091.29 1046.5 1091.81 1046.5 1092.47C1046.5 1092.97 1046.66 1093.38 1046.98 1093.7C1047.3 1094.02 1047.8 1094.25 1048.48 1094.39L1051.33 1094.96C1052.63 1095.22 1053.61 1095.66 1054.27 1096.28C1054.95 1096.9 1055.29 1097.74 1055.29 1098.8C1055.29 1099.72 1055.04 1100.52 1054.54 1101.2C1054.04 1101.88 1053.33 1102.4 1052.41 1102.76C1051.51 1103.1 1050.46 1103.27 1049.26 1103.27ZM1063.43 1103.27C1061.83 1103.27 1060.63 1102.82 1059.83 1101.92C1059.05 1101 1058.66 1099.68 1058.66 1097.96V1081.85H1061.69V1097.78C1061.69 1098.42 1061.78 1098.97 1061.96 1099.43C1062.14 1099.87 1062.41 1100.2 1062.77 1100.42C1063.13 1100.64 1063.58 1100.75 1064.12 1100.75C1064.36 1100.75 1064.59 1100.74 1064.81 1100.72C1065.03 1100.7 1065.24 1100.66 1065.44 1100.6L1065.38 1103.03C1065.04 1103.11 1064.71 1103.17 1064.39 1103.21C1064.07 1103.25 1063.75 1103.27 1063.43 1103.27ZM1074.04 1103.27C1072.56 1103.27 1071.28 1102.96 1070.2 1102.34C1069.14 1101.72 1068.31 1100.84 1067.71 1099.7C1067.11 1098.56 1066.81 1097.22 1066.81 1095.68C1066.81 1094.12 1067.11 1092.78 1067.71 1091.66C1068.31 1090.52 1069.14 1089.64 1070.2 1089.02C1071.28 1088.4 1072.56 1088.09 1074.04 1088.09C1075.5 1088.09 1076.76 1088.4 1077.82 1089.02C1078.9 1089.64 1079.74 1090.52 1080.34 1091.66C1080.94 1092.8 1081.24 1094.14 1081.24 1095.68C1081.24 1097.22 1080.94 1098.56 1080.34 1099.7C1079.74 1100.84 1078.9 1101.72 1077.82 1102.34C1076.76 1102.96 1075.5 1103.27 1074.04 1103.27ZM1074.01 1100.93C1075.27 1100.93 1076.28 1100.48 1077.04 1099.58C1077.8 1098.68 1078.18 1097.38 1078.18 1095.68C1078.18 1093.96 1077.8 1092.66 1077.04 1091.78C1076.28 1090.9 1075.27 1090.46 1074.01 1090.46C1072.77 1090.46 1071.77 1090.9 1071.01 1091.78C1070.25 1092.66 1069.87 1093.96 1069.87 1095.68C1069.87 1097.38 1070.25 1098.68 1071.01 1099.58C1071.77 1100.48 1072.77 1100.93 1074.01 1100.93ZM1090.74 1103.27C1088.92 1103.27 1087.55 1102.8 1086.63 1101.86C1085.73 1100.92 1085.28 1099.56 1085.28 1097.78V1090.7H1082.43V1088.36H1085.28V1083.95H1088.31V1088.36H1092.84V1090.7H1088.31V1097.54C1088.31 1098.6 1088.53 1099.4 1088.97 1099.94C1089.43 1100.48 1090.17 1100.75 1091.19 1100.75C1091.49 1100.75 1091.79 1100.71 1092.09 1100.63C1092.41 1100.55 1092.72 1100.47 1093.02 1100.39L1093.5 1102.67C1093.2 1102.85 1092.78 1102.99 1092.24 1103.09C1091.72 1103.21 1091.22 1103.27 1090.74 1103.27ZM1102.98 1088.9V1086.47C1102.98 1085.87 1103.04 1085.3 1103.16 1084.76C1103.3 1084.22 1103.52 1083.69 1103.82 1083.17C1104.14 1082.65 1104.55 1082.14 1105.05 1081.64L1106.4 1082.69C1106.02 1083.09 1105.71 1083.47 1105.47 1083.83C1105.25 1084.19 1105.09 1084.55 1104.99 1084.91C1104.91 1085.25 1104.87 1085.61 1104.87 1085.99L1104.03 1085.33H1106.55V1088.9H1102.98ZM1108.35 1088.9V1086.47C1108.35 1085.87 1108.41 1085.3 1108.53 1084.76C1108.67 1084.22 1108.89 1083.69 1109.19 1083.17C1109.51 1082.65 1109.92 1082.14 1110.42 1081.64L1111.77 1082.69C1111.39 1083.09 1111.08 1083.47 1110.84 1083.83C1110.62 1084.19 1110.46 1084.55 1110.36 1084.91C1110.28 1085.25 1110.24 1085.61 1110.24 1085.99L1109.4 1085.33H1111.92V1088.9H1108.35ZM1116.78 1103V1090.7H1113.93V1088.36H1117.65L1116.78 1089.17V1088.09C1116.78 1086.09 1117.29 1084.58 1118.31 1083.56C1119.35 1082.52 1120.94 1081.94 1123.08 1081.82L1124.4 1081.73L1124.61 1084.01L1123.23 1084.1C1122.41 1084.14 1121.75 1084.3 1121.25 1084.58C1120.75 1084.86 1120.38 1085.26 1120.14 1085.78C1119.92 1086.28 1119.81 1086.91 1119.81 1087.67V1088.84L1119.39 1088.36H1123.92V1090.7H1119.81V1103H1116.78ZM1132.26 1103.27C1130.78 1103.27 1129.5 1102.96 1128.42 1102.34C1127.36 1101.72 1126.53 1100.84 1125.93 1099.7C1125.33 1098.56 1125.03 1097.22 1125.03 1095.68C1125.03 1094.12 1125.33 1092.78 1125.93 1091.66C1126.53 1090.52 1127.36 1089.64 1128.42 1089.02C1129.5 1088.4 1130.78 1088.09 1132.26 1088.09C1133.72 1088.09 1134.98 1088.4 1136.04 1089.02C1137.12 1089.64 1137.96 1090.52 1138.56 1091.66C1139.16 1092.8 1139.46 1094.14 1139.46 1095.68C1139.46 1097.22 1139.16 1098.56 1138.56 1099.7C1137.96 1100.84 1137.12 1101.72 1136.04 1102.34C1134.98 1102.96 1133.72 1103.27 1132.26 1103.27ZM1132.23 1100.93C1133.49 1100.93 1134.5 1100.48 1135.26 1099.58C1136.02 1098.68 1136.4 1097.38 1136.4 1095.68C1136.4 1093.96 1136.02 1092.66 1135.26 1091.78C1134.5 1090.9 1133.49 1090.46 1132.23 1090.46C1130.99 1090.46 1129.99 1090.9 1129.23 1091.78C1128.47 1092.66 1128.09 1093.96 1128.09 1095.68C1128.09 1097.38 1128.47 1098.68 1129.23 1099.58C1129.99 1100.48 1130.99 1100.93 1132.23 1100.93ZM1149.22 1103.27C1147.74 1103.27 1146.46 1102.96 1145.38 1102.34C1144.32 1101.72 1143.49 1100.84 1142.89 1099.7C1142.29 1098.56 1141.99 1097.22 1141.99 1095.68C1141.99 1094.12 1142.29 1092.78 1142.89 1091.66C1143.49 1090.52 1144.32 1089.64 1145.38 1089.02C1146.46 1088.4 1147.74 1088.09 1149.22 1088.09C1150.68 1088.09 1151.94 1088.4 1153 1089.02C1154.08 1089.64 1154.92 1090.52 1155.52 1091.66C1156.12 1092.8 1156.42 1094.14 1156.42 1095.68C1156.42 1097.22 1156.12 1098.56 1155.52 1099.7C1154.92 1100.84 1154.08 1101.72 1153 1102.34C1151.94 1102.96 1150.68 1103.27 1149.22 1103.27ZM1149.19 1100.93C1150.45 1100.93 1151.46 1100.48 1152.22 1099.58C1152.98 1098.68 1153.36 1097.38 1153.36 1095.68C1153.36 1093.96 1152.98 1092.66 1152.22 1091.78C1151.46 1090.9 1150.45 1090.46 1149.19 1090.46C1147.95 1090.46 1146.95 1090.9 1146.19 1091.78C1145.43 1092.66 1145.05 1093.96 1145.05 1095.68C1145.05 1097.38 1145.43 1098.68 1146.19 1099.58C1146.95 1100.48 1147.95 1100.93 1149.19 1100.93ZM1165.92 1103.27C1164.1 1103.27 1162.73 1102.8 1161.81 1101.86C1160.91 1100.92 1160.46 1099.56 1160.46 1097.78V1090.7H1157.61V1088.36H1160.46V1083.95H1163.49V1088.36H1168.02V1090.7H1163.49V1097.54C1163.49 1098.6 1163.71 1099.4 1164.15 1099.94C1164.61 1100.48 1165.35 1100.75 1166.37 1100.75C1166.67 1100.75 1166.97 1100.71 1167.27 1100.63C1167.59 1100.55 1167.9 1100.47 1168.2 1100.39L1168.68 1102.67C1168.38 1102.85 1167.96 1102.99 1167.42 1103.09C1166.9 1103.21 1166.4 1103.27 1165.92 1103.27ZM1177.36 1103.27C1175.76 1103.27 1174.38 1102.97 1173.22 1102.37C1172.08 1101.75 1171.19 1100.88 1170.55 1099.76C1169.93 1098.62 1169.62 1097.27 1169.62 1095.71C1169.62 1094.19 1169.93 1092.86 1170.55 1091.72C1171.17 1090.58 1172.02 1089.69 1173.1 1089.05C1174.18 1088.41 1175.41 1088.09 1176.79 1088.09C1178.15 1088.09 1179.31 1088.39 1180.27 1088.99C1181.25 1089.57 1182 1090.4 1182.52 1091.48C1183.04 1092.56 1183.3 1093.85 1183.3 1095.35V1096.37H1172.02V1094.51H1181.26L1180.75 1094.93C1180.75 1093.43 1180.42 1092.27 1179.76 1091.45C1179.1 1090.63 1178.15 1090.22 1176.91 1090.22C1175.97 1090.22 1175.17 1090.44 1174.51 1090.88C1173.87 1091.32 1173.38 1091.93 1173.04 1092.71C1172.7 1093.49 1172.53 1094.4 1172.53 1095.44V1095.62C1172.53 1096.78 1172.71 1097.76 1173.07 1098.56C1173.45 1099.34 1174 1099.93 1174.72 1100.33C1175.44 1100.73 1176.33 1100.93 1177.39 1100.93C1178.23 1100.93 1179.05 1100.8 1179.85 1100.54C1180.67 1100.26 1181.44 1099.83 1182.16 1099.25L1183.06 1101.35C1182.4 1101.95 1181.55 1102.42 1180.51 1102.76C1179.47 1103.1 1178.42 1103.27 1177.36 1103.27ZM1186.6 1103V1088.36H1189.54V1091.87H1189.24C1189.56 1090.67 1190.13 1089.76 1190.95 1089.14C1191.79 1088.52 1192.9 1088.16 1194.28 1088.06L1195.27 1088L1195.48 1090.58L1193.65 1090.76C1192.35 1090.88 1191.36 1091.29 1190.68 1091.99C1190 1092.69 1189.66 1093.65 1189.66 1094.87V1103H1186.6ZM1197.12 1096.22V1093.76H1205.76V1096.22H1197.12ZM1214.78 1103.27C1213.18 1103.27 1211.98 1102.82 1211.18 1101.92C1210.4 1101 1210.01 1099.68 1210.01 1097.96V1081.85H1213.04V1097.78C1213.04 1098.42 1213.13 1098.97 1213.31 1099.43C1213.49 1099.87 1213.76 1100.2 1214.12 1100.42C1214.48 1100.64 1214.93 1100.75 1215.47 1100.75C1215.71 1100.75 1215.94 1100.74 1216.16 1100.72C1216.38 1100.7 1216.59 1100.66 1216.79 1100.6L1216.73 1103.03C1216.39 1103.11 1216.06 1103.17 1215.74 1103.21C1215.42 1103.25 1215.1 1103.27 1214.78 1103.27ZM1218.91 1084.97V1081.82H1222.45V1084.97H1218.91ZM1219.18 1103V1088.36H1222.21V1103H1219.18ZM1226.47 1103V1088.36H1229.41V1091.48H1229.08C1229.52 1090.36 1230.21 1089.52 1231.15 1088.96C1232.09 1088.38 1233.17 1088.09 1234.39 1088.09C1235.55 1088.09 1236.51 1088.31 1237.27 1088.75C1238.05 1089.17 1238.63 1089.82 1239.01 1090.7C1239.39 1091.56 1239.58 1092.65 1239.58 1093.97V1103H1236.55V1094.15C1236.55 1093.31 1236.44 1092.63 1236.22 1092.11C1236 1091.57 1235.67 1091.17 1235.23 1090.91C1234.79 1090.65 1234.22 1090.52 1233.52 1090.52C1232.72 1090.52 1232.01 1090.69 1231.39 1091.03C1230.79 1091.37 1230.32 1091.86 1229.98 1092.5C1229.66 1093.14 1229.5 1093.88 1229.5 1094.72V1103H1226.47ZM1243.76 1103V1081.85H1246.79V1094.75H1246.85L1253.21 1088.36H1256.96L1249.25 1096.1V1094.69L1257.5 1103H1253.72L1246.85 1096.31H1246.79V1103H1243.76ZM1264.09 1103.27C1263.31 1103.27 1262.55 1103.2 1261.81 1103.06C1261.07 1102.92 1260.39 1102.72 1259.77 1102.46C1259.15 1102.2 1258.6 1101.88 1258.12 1101.5L1258.99 1099.46C1259.49 1099.8 1260.02 1100.1 1260.58 1100.36C1261.14 1100.6 1261.72 1100.78 1262.32 1100.9C1262.94 1101.02 1263.54 1101.08 1264.12 1101.08C1265.18 1101.08 1265.98 1100.89 1266.52 1100.51C1267.06 1100.13 1267.33 1099.62 1267.33 1098.98C1267.33 1098.46 1267.15 1098.06 1266.79 1097.78C1266.43 1097.48 1265.89 1097.25 1265.17 1097.09L1262.32 1096.52C1261.08 1096.26 1260.14 1095.8 1259.5 1095.14C1258.86 1094.48 1258.54 1093.64 1258.54 1092.62C1258.54 1091.7 1258.79 1090.9 1259.29 1090.22C1259.79 1089.54 1260.49 1089.02 1261.39 1088.66C1262.29 1088.28 1263.33 1088.09 1264.51 1088.09C1265.19 1088.09 1265.85 1088.16 1266.49 1088.3C1267.13 1088.44 1267.73 1088.64 1268.29 1088.9C1268.87 1089.16 1269.36 1089.49 1269.76 1089.89L1268.89 1091.93C1268.51 1091.59 1268.07 1091.3 1267.57 1091.06C1267.09 1090.82 1266.59 1090.64 1266.07 1090.52C1265.55 1090.38 1265.03 1090.31 1264.51 1090.31C1263.45 1090.31 1262.65 1090.51 1262.11 1090.91C1261.59 1091.29 1261.33 1091.81 1261.33 1092.47C1261.33 1092.97 1261.49 1093.38 1261.81 1093.7C1262.13 1094.02 1262.63 1094.25 1263.31 1094.39L1266.16 1094.96C1267.46 1095.22 1268.44 1095.66 1269.1 1096.28C1269.78 1096.9 1270.12 1097.74 1270.12 1098.8C1270.12 1099.72 1269.87 1100.52 1269.37 1101.2C1268.87 1101.88 1268.16 1102.4 1267.24 1102.76C1266.34 1103.1 1265.29 1103.27 1264.09 1103.27ZM1273.79 1089.11L1272.47 1088.09C1272.85 1087.67 1273.15 1087.29 1273.37 1086.95C1273.59 1086.59 1273.74 1086.23 1273.82 1085.87C1273.92 1085.51 1273.97 1085.14 1273.97 1084.76L1274.81 1085.42H1272.26V1081.85H1275.86V1084.28C1275.86 1084.88 1275.79 1085.45 1275.65 1085.99C1275.53 1086.53 1275.32 1087.06 1275.02 1087.58C1274.72 1088.08 1274.31 1088.59 1273.79 1089.11ZM1279.16 1089.11L1277.84 1088.09C1278.22 1087.67 1278.52 1087.29 1278.74 1086.95C1278.96 1086.59 1279.11 1086.23 1279.19 1085.87C1279.29 1085.51 1279.34 1085.14 1279.34 1084.76L1280.18 1085.42H1277.63V1081.85H1281.23V1084.28C1281.23 1084.88 1281.16 1085.45 1281.02 1085.99C1280.9 1086.53 1280.69 1087.06 1280.39 1087.58C1280.09 1088.08 1279.68 1088.59 1279.16 1089.11Z" fill="#222120"/>
</g>
<defs>
<clipPath id="clip0_1232_6654">
<rect width="1486" height="1129" fill="white"/>
</clipPath>
<clipPath id="clip1_1232_6654">
<rect x="213" y="24" width="20" height="20" fill="white"/>
</clipPath>
</defs>
</svg>
