<svg width="165" height="22" viewBox="0 0 165 22" fill="none" xmlns="http://www.w3.org/2000/svg">
<mask id="path-1-inside-1_1047_2864" fill="white">
<path d="M0 0H165V22H0V0Z"/>
</mask>
<path d="M165 22V21.3H0V22V22.7H165V22Z" fill="black" mask="url(#path-1-inside-1_1047_2864)"/>
<g clip-path="url(#clip0_1047_2864)">
<path d="M11.5461 10.9999L17.5661 4.96594C17.7201 4.81194 17.7201 4.57394 17.5661 4.41994C17.4121 4.26594 17.1741 4.26594 17.0201 4.41994L11.0001 10.4539L4.9661 4.43394C4.8261 4.27994 4.5741 4.27994 4.4341 4.43394C4.2801 4.57394 4.2801 4.82594 4.4341 4.96594L10.4541 10.9999L4.4341 17.0339C4.2801 17.1879 4.2801 17.4259 4.4341 17.5799C4.5041 17.6499 4.6021 17.6919 4.7001 17.6919C4.7981 17.6919 4.8961 17.6499 4.9661 17.5799L11.0001 11.5459L17.0341 17.5799C17.1041 17.6499 17.2021 17.6919 17.3001 17.6919C17.3981 17.6919 17.4961 17.6499 17.5661 17.5799C17.7201 17.4259 17.7201 17.1879 17.5661 17.0339L11.5461 10.9999Z" fill="#222120"/>
</g>
<path d="M30.218 15.5V5.63H36.448V6.596H31.338V10.012H36.154V10.978H31.338V14.534H36.448V15.5H30.218ZM38.2541 15.5V8.696H39.3601V10.208H39.2061C39.3181 9.86267 39.4814 9.56867 39.6961 9.326C39.9201 9.074 40.1814 8.88733 40.4801 8.766C40.7881 8.63533 41.1241 8.57 41.4881 8.57C42.0668 8.57 42.5334 8.71 42.8881 8.99C43.2521 9.26067 43.4948 9.68533 43.6161 10.264H43.4061C43.5741 9.74133 43.8728 9.33067 44.3021 9.032C44.7408 8.724 45.2494 8.57 45.8281 8.57C46.3414 8.57 46.7614 8.668 47.0881 8.864C47.4241 9.06 47.6761 9.35867 47.8441 9.76C48.0121 10.152 48.0961 10.6513 48.0961 11.258V15.5H46.9621V11.314C46.9621 10.6887 46.8548 10.2313 46.6401 9.942C46.4254 9.64333 46.0614 9.494 45.5481 9.494C45.1841 9.494 44.8621 9.58267 44.5821 9.76C44.3114 9.93733 44.1014 10.1893 43.9521 10.516C43.8121 10.8333 43.7421 11.2113 43.7421 11.65V15.5H42.6081V11.314C42.6081 10.6887 42.4961 10.2313 42.2721 9.942C42.0574 9.64333 41.6981 9.494 41.1941 9.494C40.8208 9.494 40.4988 9.58267 40.2281 9.76C39.9574 9.93733 39.7474 10.1893 39.5981 10.516C39.4581 10.8333 39.3881 11.2113 39.3881 11.65V15.5H38.2541ZM50.2163 18.02V8.696H51.3223V10.306H51.1823C51.3317 9.774 51.6257 9.354 52.0643 9.046C52.5123 8.72867 53.0443 8.57 53.6603 8.57C54.267 8.57 54.7943 8.71467 55.2423 9.004C55.6997 9.284 56.0497 9.69 56.2923 10.222C56.5443 10.7447 56.6703 11.37 56.6703 12.098C56.6703 12.8167 56.5443 13.442 56.2923 13.974C56.0497 14.4967 55.7043 14.9027 55.2563 15.192C54.8083 15.4813 54.2763 15.626 53.6603 15.626C53.0443 15.626 52.517 15.472 52.0783 15.164C51.6397 14.8467 51.341 14.4267 51.1823 13.904H51.3503V18.02H50.2163ZM53.4223 14.716C54.0663 14.716 54.575 14.492 54.9483 14.044C55.331 13.5867 55.5223 12.938 55.5223 12.098C55.5223 11.2487 55.331 10.6 54.9483 10.152C54.575 9.704 54.0663 9.48 53.4223 9.48C52.7877 9.48 52.279 9.704 51.8963 10.152C51.5137 10.6 51.3223 11.2487 51.3223 12.098C51.3223 12.938 51.5137 13.5867 51.8963 14.044C52.279 14.492 52.7877 14.716 53.4223 14.716ZM61.0401 15.626C60.2374 15.626 59.6354 15.4113 59.2341 14.982C58.8328 14.5527 58.6321 13.9413 58.6321 13.148V9.578H57.3021V8.696H58.6321V6.61H59.7661V8.696H61.9221V9.578H59.7661V13.036C59.7661 13.568 59.8781 13.974 60.1021 14.254C60.3261 14.5247 60.6901 14.66 61.1941 14.66C61.3434 14.66 61.4928 14.6413 61.6421 14.604C61.7914 14.5667 61.9268 14.5293 62.0481 14.492L62.2441 15.36C62.1228 15.4253 61.9454 15.486 61.7121 15.542C61.4788 15.598 61.2548 15.626 61.0401 15.626ZM64.0707 18.02L65.3447 15.15V15.64L62.3627 8.696H63.5947L66.0307 14.66H65.6527L68.1167 8.696H69.3067L65.2607 18.02H64.0707ZM74.4378 15.5V9.578H73.0938V8.696H74.7458L74.4378 8.99V8.458C74.4378 7.55267 74.6618 6.86667 75.1098 6.4C75.5671 5.93333 76.2671 5.672 77.2098 5.616L77.7278 5.588L77.7978 6.47L77.2098 6.498C76.8271 6.51667 76.5144 6.60067 76.2718 6.75C76.0291 6.89 75.8518 7.09067 75.7398 7.352C75.6278 7.61333 75.5718 7.93533 75.5718 8.318V8.85V8.696H79.7718V15.5H78.6378V9.578H75.5718V15.5H74.4378ZM78.5118 7.002V5.728H79.8978V7.002H78.5118ZM83.9801 15.626C83.2894 15.626 82.7667 15.4207 82.4121 15.01C82.0667 14.5993 81.8941 14.0113 81.8941 13.246V5.63H83.0281V13.162C83.0281 13.4887 83.0701 13.764 83.1541 13.988C83.2474 14.212 83.3827 14.38 83.5601 14.492C83.7374 14.604 83.9567 14.66 84.2181 14.66C84.3301 14.66 84.4374 14.6553 84.5401 14.646C84.6521 14.6273 84.7547 14.604 84.8481 14.576L84.8201 15.528C84.6707 15.556 84.5261 15.5793 84.3861 15.598C84.2554 15.6167 84.1201 15.626 83.9801 15.626ZM88.6436 15.626C87.8409 15.626 87.2389 15.4113 86.8376 14.982C86.4363 14.5527 86.2356 13.9413 86.2356 13.148V9.578H84.9056V8.696H86.2356V6.61H87.3696V8.696H89.5256V9.578H87.3696V13.036C87.3696 13.568 87.4816 13.974 87.7056 14.254C87.9296 14.5247 88.2936 14.66 88.7976 14.66C88.9469 14.66 89.0963 14.6413 89.2456 14.604C89.3949 14.5667 89.5303 14.5293 89.6516 14.492L89.8476 15.36C89.7263 15.4253 89.5489 15.486 89.3156 15.542C89.0823 15.598 88.8583 15.626 88.6436 15.626ZM93.8058 15.626C93.0871 15.626 92.4664 15.486 91.9438 15.206C91.4304 14.9167 91.0291 14.5107 90.7398 13.988C90.4598 13.4653 90.3198 12.84 90.3198 12.112C90.3198 11.4027 90.4598 10.7867 90.7398 10.264C91.0198 9.732 91.4024 9.31667 91.8878 9.018C92.3824 8.71933 92.9518 8.57 93.5958 8.57C94.2118 8.57 94.7391 8.70533 95.1778 8.976C95.6164 9.24667 95.9524 9.62933 96.1858 10.124C96.4284 10.6187 96.5498 11.2113 96.5498 11.902V12.336H91.1878V11.594H95.7938L95.5698 11.776C95.5698 11.0293 95.4018 10.4507 95.0658 10.04C94.7391 9.62 94.2584 9.41 93.6238 9.41C93.1478 9.41 92.7418 9.522 92.4058 9.746C92.0791 9.96067 91.8318 10.264 91.6638 10.656C91.4958 11.0387 91.4118 11.4867 91.4118 12V12.084C91.4118 12.6533 91.5004 13.134 91.6778 13.526C91.8644 13.918 92.1398 14.2167 92.5038 14.422C92.8678 14.618 93.3018 14.716 93.8058 14.716C94.2071 14.716 94.5944 14.6553 94.9678 14.534C95.3504 14.4033 95.7098 14.1933 96.0458 13.904L96.4378 14.702C96.1298 14.982 95.7378 15.206 95.2618 15.374C94.7858 15.542 94.3004 15.626 93.8058 15.626ZM98.191 15.5V8.696H99.297V10.306H99.157C99.3156 9.75533 99.591 9.34 99.983 9.06C100.375 8.77067 100.893 8.60267 101.537 8.556L101.943 8.514L102.027 9.494L101.313 9.578C100.678 9.634 100.188 9.83933 99.843 10.194C99.507 10.5393 99.339 11.0153 99.339 11.622V15.5H98.191ZM109.1 15.626C108.746 15.626 108.4 15.5887 108.064 15.514C107.738 15.4487 107.43 15.3553 107.14 15.234C106.86 15.1033 106.618 14.9493 106.412 14.772L106.776 13.974C107 14.1513 107.243 14.3007 107.504 14.422C107.766 14.534 108.032 14.618 108.302 14.674C108.573 14.73 108.848 14.758 109.128 14.758C109.66 14.758 110.062 14.66 110.332 14.464C110.603 14.268 110.738 14.002 110.738 13.666C110.738 13.4047 110.65 13.1993 110.472 13.05C110.295 12.8913 110.015 12.77 109.632 12.686L108.358 12.406C107.77 12.2847 107.332 12.0747 107.042 11.776C106.762 11.4773 106.622 11.09 106.622 10.614C106.622 10.194 106.73 9.83467 106.944 9.536C107.168 9.228 107.481 8.99 107.882 8.822C108.284 8.654 108.75 8.57 109.282 8.57C109.6 8.57 109.903 8.60267 110.192 8.668C110.482 8.73333 110.752 8.83133 111.004 8.962C111.266 9.08333 111.49 9.23733 111.676 9.424L111.298 10.222C111.121 10.054 110.92 9.914 110.696 9.802C110.472 9.68067 110.239 9.592 109.996 9.536C109.763 9.47067 109.525 9.438 109.282 9.438C108.76 9.438 108.363 9.54067 108.092 9.746C107.822 9.95133 107.686 10.222 107.686 10.558C107.686 10.8193 107.77 11.034 107.938 11.202C108.106 11.37 108.368 11.4913 108.722 11.566L109.996 11.832C110.603 11.9627 111.056 12.1727 111.354 12.462C111.662 12.742 111.816 13.1247 111.816 13.61C111.816 14.0207 111.704 14.38 111.48 14.688C111.256 14.9867 110.939 15.22 110.528 15.388C110.127 15.5467 109.651 15.626 109.1 15.626ZM116.61 15.626C115.892 15.626 115.271 15.486 114.748 15.206C114.235 14.9167 113.834 14.5107 113.544 13.988C113.264 13.4653 113.124 12.84 113.124 12.112C113.124 11.4027 113.264 10.7867 113.544 10.264C113.824 9.732 114.207 9.31667 114.692 9.018C115.187 8.71933 115.756 8.57 116.4 8.57C117.016 8.57 117.544 8.70533 117.982 8.976C118.421 9.24667 118.757 9.62933 118.99 10.124C119.233 10.6187 119.354 11.2113 119.354 11.902V12.336H113.992V11.594H118.598L118.374 11.776C118.374 11.0293 118.206 10.4507 117.87 10.04C117.544 9.62 117.063 9.41 116.428 9.41C115.952 9.41 115.546 9.522 115.21 9.746C114.884 9.96067 114.636 10.264 114.468 10.656C114.3 11.0387 114.216 11.4867 114.216 12V12.084C114.216 12.6533 114.305 13.134 114.482 13.526C114.669 13.918 114.944 14.2167 115.308 14.422C115.672 14.618 116.106 14.716 116.61 14.716C117.012 14.716 117.399 14.6553 117.772 14.534C118.155 14.4033 118.514 14.1933 118.85 13.904L119.242 14.702C118.934 14.982 118.542 15.206 118.066 15.374C117.59 15.542 117.105 15.626 116.61 15.626ZM123.082 15.626C122.391 15.626 121.868 15.4207 121.514 15.01C121.168 14.5993 120.996 14.0113 120.996 13.246V5.63H122.13V13.162C122.13 13.4887 122.172 13.764 122.256 13.988C122.349 14.212 122.484 14.38 122.662 14.492C122.839 14.604 123.058 14.66 123.32 14.66C123.432 14.66 123.539 14.6553 123.642 14.646C123.754 14.6273 123.856 14.604 123.95 14.576L123.922 15.528C123.772 15.556 123.628 15.5793 123.488 15.598C123.357 15.6167 123.222 15.626 123.082 15.626ZM128.136 15.626C127.417 15.626 126.797 15.486 126.274 15.206C125.761 14.9167 125.359 14.5107 125.07 13.988C124.79 13.4653 124.65 12.84 124.65 12.112C124.65 11.4027 124.79 10.7867 125.07 10.264C125.35 9.732 125.733 9.31667 126.218 9.018C126.713 8.71933 127.282 8.57 127.926 8.57C128.542 8.57 129.069 8.70533 129.508 8.976C129.947 9.24667 130.283 9.62933 130.516 10.124C130.759 10.6187 130.88 11.2113 130.88 11.902V12.336H125.518V11.594H130.124L129.9 11.776C129.9 11.0293 129.732 10.4507 129.396 10.04C129.069 9.62 128.589 9.41 127.954 9.41C127.478 9.41 127.072 9.522 126.736 9.746C126.409 9.96067 126.162 10.264 125.994 10.656C125.826 11.0387 125.742 11.4867 125.742 12V12.084C125.742 12.6533 125.831 13.134 126.008 13.526C126.195 13.918 126.47 14.2167 126.834 14.422C127.198 14.618 127.632 14.716 128.136 14.716C128.537 14.716 128.925 14.6553 129.298 14.534C129.681 14.4033 130.04 14.1933 130.376 13.904L130.768 14.702C130.46 14.982 130.068 15.206 129.592 15.374C129.116 15.542 128.631 15.626 128.136 15.626ZM135.405 15.626C134.724 15.626 134.136 15.4767 133.641 15.178C133.146 14.8793 132.764 14.464 132.493 13.932C132.232 13.3907 132.101 12.7653 132.101 12.056C132.101 11.3373 132.232 10.7167 132.493 10.194C132.764 9.67133 133.146 9.27 133.641 8.99C134.136 8.71 134.724 8.57 135.405 8.57C135.825 8.57 136.24 8.64467 136.651 8.794C137.062 8.94333 137.402 9.15333 137.673 9.424L137.281 10.25C137.01 9.98867 136.712 9.79733 136.385 9.676C136.068 9.55467 135.764 9.494 135.475 9.494C134.766 9.494 134.22 9.718 133.837 10.166C133.454 10.6047 133.263 11.2393 133.263 12.07C133.263 12.882 133.454 13.526 133.837 14.002C134.22 14.4687 134.766 14.702 135.475 14.702C135.764 14.702 136.068 14.6413 136.385 14.52C136.712 14.3987 137.01 14.2027 137.281 13.932L137.673 14.758C137.402 15.0287 137.057 15.2433 136.637 15.402C136.226 15.5513 135.816 15.626 135.405 15.626ZM141.732 15.626C140.929 15.626 140.327 15.4113 139.926 14.982C139.524 14.5527 139.324 13.9413 139.324 13.148V9.578H137.994V8.696H139.324V6.61H140.458V8.696H142.614V9.578H140.458V13.036C140.458 13.568 140.57 13.974 140.794 14.254C141.018 14.5247 141.382 14.66 141.886 14.66C142.035 14.66 142.184 14.6413 142.334 14.604C142.483 14.5667 142.618 14.5293 142.74 14.492L142.936 15.36C142.814 15.4253 142.637 15.486 142.404 15.542C142.17 15.598 141.946 15.626 141.732 15.626ZM143.756 7.002V5.728H145.156V7.002H143.756ZM143.896 15.5V8.696H145.03V15.5H143.896ZM149.978 15.626C149.315 15.626 148.741 15.4813 148.256 15.192C147.771 14.9027 147.393 14.4967 147.122 13.974C146.861 13.442 146.73 12.8167 146.73 12.098C146.73 11.3793 146.861 10.7587 147.122 10.236C147.393 9.704 147.771 9.29333 148.256 9.004C148.741 8.71467 149.315 8.57 149.978 8.57C150.641 8.57 151.215 8.71467 151.7 9.004C152.185 9.29333 152.559 9.704 152.82 10.236C153.091 10.7587 153.226 11.3793 153.226 12.098C153.226 12.8167 153.091 13.442 152.82 13.974C152.559 14.4967 152.185 14.9027 151.7 15.192C151.215 15.4813 150.641 15.626 149.978 15.626ZM149.978 14.716C150.622 14.716 151.131 14.492 151.504 14.044C151.887 13.5867 152.078 12.9333 152.078 12.084C152.078 11.244 151.887 10.6 151.504 10.152C151.131 9.704 150.622 9.48 149.978 9.48C149.343 9.48 148.835 9.704 148.452 10.152C148.069 10.6 147.878 11.244 147.878 12.084C147.878 12.9333 148.069 13.5867 148.452 14.044C148.835 14.492 149.343 14.716 149.978 14.716ZM154.929 15.5V8.696H156.035V10.208H155.881C156.077 9.66667 156.395 9.26067 156.833 8.99C157.281 8.71 157.795 8.57 158.373 8.57C158.915 8.57 159.363 8.668 159.717 8.864C160.081 9.05067 160.352 9.34467 160.529 9.746C160.707 10.1473 160.795 10.6513 160.795 11.258V15.5H159.661V11.328C159.661 10.908 159.605 10.5627 159.493 10.292C159.391 10.0213 159.223 9.82067 158.989 9.69C158.765 9.55933 158.471 9.494 158.107 9.494C157.697 9.494 157.337 9.58267 157.029 9.76C156.721 9.93733 156.483 10.1847 156.315 10.502C156.147 10.8193 156.063 11.1927 156.063 11.622V15.5H154.929Z" fill="black"/>
<defs>
<clipPath id="clip0_1047_2864">
<rect width="14" height="14" fill="white" transform="translate(4 4)"/>
</clipPath>
</defs>
</svg>
