<svg width="1060" height="79" viewBox="0 0 1060 79" fill="none" xmlns="http://www.w3.org/2000/svg">
<path d="M21.595 29.193H47.405C47.84 29.193 48.217 28.845 48.217 28.381C48.217 27.917 47.869 27.569 47.405 27.569H21.595C21.16 27.569 20.783 27.917 20.783 28.381C20.783 28.845 21.16 29.193 21.595 29.193Z" fill="black"/>
<path d="M47.405 33.717H21.595C21.16 33.717 20.783 34.065 20.783 34.529C20.783 34.993 21.131 35.341 21.595 35.341H47.405C47.84 35.341 48.217 34.993 48.217 34.529C48.217 34.065 47.84 33.717 47.405 33.717Z" fill="black"/>
<path d="M47.405 39.8069H21.595C21.16 39.8069 20.783 40.1549 20.783 40.6189C20.783 41.0829 21.131 41.4309 21.595 41.4309H47.405C47.84 41.4309 48.217 41.0829 48.217 40.6189C48.217 40.1549 47.84 39.8069 47.405 39.8069Z" fill="black"/>
<path d="M65.504 39.5V28.22H66.336L71.04 37.148H70.592L75.264 28.22H76.096V39.5H75.184V29.404H75.568L71.168 37.756H70.464L66.016 29.388H66.4V39.5H65.504ZM82.2341 39.628C81.4341 39.628 80.7461 39.468 80.1701 39.148C79.5941 38.828 79.1515 38.3693 78.8421 37.772C78.5328 37.1747 78.3781 36.4653 78.3781 35.644C78.3781 34.8333 78.5328 34.1293 78.8421 33.532C79.1515 32.924 79.5781 32.4493 80.1221 32.108C80.6768 31.7667 81.3115 31.596 82.0261 31.596C82.7195 31.596 83.3061 31.7507 83.7861 32.06C84.2768 32.3587 84.6501 32.7907 84.9061 33.356C85.1728 33.9107 85.3061 34.5827 85.3061 35.372V35.82H79.0821V35.1H84.6981L84.4421 35.308C84.4421 34.3907 84.2395 33.676 83.8341 33.164C83.4288 32.6413 82.8315 32.38 82.0421 32.38C81.4555 32.38 80.9595 32.5187 80.5541 32.796C80.1488 33.0627 79.8448 33.436 79.6421 33.916C79.4395 34.3853 79.3381 34.9293 79.3381 35.548V35.628C79.3381 36.3107 79.4448 36.892 79.6581 37.372C79.8821 37.8413 80.2128 38.1987 80.6501 38.444C81.0875 38.6893 81.6048 38.812 82.2021 38.812C82.6821 38.812 83.1301 38.7373 83.5461 38.588C83.9728 38.4387 84.3888 38.188 84.7941 37.836L85.1781 38.572C84.8368 38.892 84.3995 39.148 83.8661 39.34C83.3328 39.532 82.7888 39.628 82.2341 39.628ZM87.2956 39.5V31.74H88.2556V33.548H88.0796C88.293 32.908 88.6556 32.4227 89.1676 32.092C89.6903 31.7613 90.2876 31.596 90.9596 31.596C91.5783 31.596 92.0903 31.708 92.4956 31.932C92.9116 32.1453 93.221 32.476 93.4236 32.924C93.6263 33.372 93.7276 33.932 93.7276 34.604V39.5H92.7516V34.684C92.7516 34.172 92.6823 33.7507 92.5436 33.42C92.4156 33.0893 92.2076 32.844 91.9196 32.684C91.6316 32.524 91.2636 32.444 90.8156 32.444C90.3036 32.444 89.8556 32.5507 89.4716 32.764C89.0983 32.9773 88.805 33.2813 88.5916 33.676C88.3783 34.0707 88.2716 34.5347 88.2716 35.068V39.5H87.2956ZM98.9848 39.628C98.3661 39.628 97.8488 39.516 97.4328 39.292C97.0274 39.068 96.7234 38.732 96.5208 38.284C96.3181 37.836 96.2168 37.2813 96.2168 36.62V31.74H97.1928V36.572C97.1928 37.0733 97.2568 37.4893 97.3848 37.82C97.5234 38.1507 97.7368 38.396 98.0248 38.556C98.3128 38.716 98.6754 38.796 99.1128 38.796C99.5928 38.796 100.014 38.6893 100.377 38.476C100.739 38.252 101.022 37.9427 101.225 37.548C101.438 37.1533 101.545 36.6893 101.545 36.156V31.74H102.521V39.5H101.577V37.628H101.769C101.566 38.2787 101.214 38.7747 100.713 39.116C100.211 39.4573 99.6354 39.628 98.9848 39.628Z" fill="black"/>
<path d="M473.5 29.004C468.82 29.004 465.004 32.82 465.004 37.5C465.004 42.18 468.82 45.996 473.5 45.996C478.18 45.996 481.996 42.18 481.996 37.5C481.996 32.802 478.18 29.004 473.5 29.004ZM473.5 45.006C469.36 45.006 465.994 41.64 465.994 37.5C465.994 33.36 469.36 29.994 473.5 29.994C477.64 29.994 481.006 33.36 481.006 37.5C481.006 41.64 477.64 45.006 473.5 45.006Z" fill="black"/>
<path d="M473.5 29.994C477.64 29.994 481.006 33.36 481.006 37.5C481.006 41.64 477.64 45.006 473.5 45.006V29.994Z" fill="black"/>
<path d="M501.972 42.5V31.22H508.916V32.068H502.932V36.356H508.58V37.204H502.932V41.652H508.916V42.5H501.972ZM511.191 42.5V31.22H511.975L519.479 41.332H519.111V31.22H520.023V42.5H519.255L511.751 32.388H512.103V42.5H511.191Z" fill="black"/>
<line x1="550.1" y1="-2.62268e-08" x2="550.1" y2="65" stroke="black" stroke-width="1.2"/>
<g clip-path="url(#clip0_390_6720)">
<path d="M588.992 36.208L589.808 37.024H581.07C580.815 37.024 580.594 37.228 580.594 37.5C580.594 37.772 580.798 37.976 581.07 37.976H589.808L588.992 38.792C588.805 38.979 588.805 39.268 588.992 39.455C589.179 39.642 589.468 39.642 589.655 39.455L591.593 37.5L589.655 35.562C589.468 35.375 589.179 35.375 588.992 35.562C588.805 35.749 588.805 36.038 588.992 36.208Z" fill="black"/>
<path d="M577.891 37.5C577.891 41.971 581.529 45.626 586.017 45.626C590.488 45.626 594.143 41.988 594.143 37.5C594.126 33.029 590.471 29.391 586 29.391C581.529 29.391 577.891 33.029 577.891 37.5ZM593.191 37.5C593.191 41.461 589.961 44.691 586 44.691C582.039 44.691 578.826 41.461 578.826 37.5C578.826 33.539 582.039 30.326 586 30.326C589.961 30.326 593.191 33.539 593.191 37.5Z" fill="black"/>
</g>
<path d="M605.972 42.5V31.22H606.948V41.62H612.836V42.5H605.972ZM617.352 42.628C616.627 42.628 615.998 42.4627 615.464 42.132C614.931 41.8013 614.515 41.3373 614.216 40.74C613.928 40.1427 613.784 39.4333 613.784 38.612C613.784 37.8013 613.928 37.0973 614.216 36.5C614.515 35.892 614.931 35.4227 615.464 35.092C615.998 34.7613 616.627 34.596 617.352 34.596C618.088 34.596 618.723 34.7613 619.256 35.092C619.79 35.4227 620.2 35.892 620.488 36.5C620.787 37.0973 620.936 37.8013 620.936 38.612C620.936 39.4333 620.787 40.1427 620.488 40.74C620.2 41.3373 619.79 41.8013 619.256 42.132C618.723 42.4627 618.088 42.628 617.352 42.628ZM617.352 41.812C618.152 41.812 618.782 41.5347 619.24 40.98C619.71 40.4253 619.944 39.636 619.944 38.612C619.944 37.5987 619.71 36.8147 619.24 36.26C618.782 35.7053 618.152 35.428 617.352 35.428C616.574 35.428 615.95 35.7053 615.48 36.26C615.011 36.8147 614.776 37.5987 614.776 38.612C614.776 39.636 615.011 40.4253 615.48 40.98C615.95 41.5347 616.574 41.812 617.352 41.812ZM626.39 45.508C625.729 45.508 625.11 45.4173 624.534 45.236C623.969 45.0547 623.462 44.788 623.014 44.436L623.382 43.7C623.713 43.9347 624.033 44.1267 624.342 44.276C624.652 44.4253 624.966 44.532 625.286 44.596C625.617 44.66 625.974 44.692 626.358 44.692C627.137 44.692 627.729 44.4733 628.134 44.036C628.54 43.6093 628.742 42.996 628.742 42.196V40.212H628.902C628.742 40.8733 628.401 41.3907 627.878 41.764C627.356 42.1373 626.737 42.324 626.022 42.324C625.308 42.324 624.689 42.164 624.166 41.844C623.644 41.5133 623.238 41.06 622.95 40.484C622.673 39.8973 622.534 39.22 622.534 38.452C622.534 37.684 622.673 37.012 622.95 36.436C623.238 35.86 623.644 35.412 624.166 35.092C624.689 34.7613 625.308 34.596 626.022 34.596C626.737 34.596 627.356 34.788 627.878 35.172C628.401 35.5453 628.737 36.052 628.886 36.692H628.726V34.74H629.686V42.052C629.686 42.8093 629.564 43.444 629.318 43.956C629.073 44.4787 628.705 44.868 628.214 45.124C627.724 45.38 627.116 45.508 626.39 45.508ZM626.134 41.492C626.934 41.492 627.569 41.22 628.038 40.676C628.508 40.1213 628.742 39.38 628.742 38.452C628.742 37.524 628.508 36.788 628.038 36.244C627.569 35.7 626.934 35.428 626.134 35.428C625.334 35.428 624.7 35.7 624.23 36.244C623.761 36.788 623.526 37.524 623.526 38.452C623.526 39.38 623.761 40.1213 624.23 40.676C624.7 41.22 625.334 41.492 626.134 41.492ZM632.104 32.692V31.46H633.416V32.692H632.104ZM632.264 42.5V34.74H633.24V42.5H632.264ZM635.811 42.5V34.74H636.771V36.548H636.595C636.809 35.908 637.171 35.4227 637.683 35.092C638.206 34.7613 638.803 34.596 639.475 34.596C640.094 34.596 640.606 34.708 641.011 34.932C641.427 35.1453 641.737 35.476 641.939 35.924C642.142 36.372 642.243 36.932 642.243 37.604V42.5H641.267V37.684C641.267 37.172 641.198 36.7507 641.059 36.42C640.931 36.0893 640.723 35.844 640.435 35.684C640.147 35.524 639.779 35.444 639.331 35.444C638.819 35.444 638.371 35.5507 637.987 35.764C637.614 35.9773 637.321 36.2813 637.107 36.676C636.894 37.0707 636.787 37.5347 636.787 38.068V42.5H635.811Z" fill="black"/>
<path d="M994.456 12.123L967.078 39.5L994.456 66.877L1021.83 39.5L994.456 12.123Z" fill="white"/>
<path d="M1000.5 12.1202L973.115 39.5L1000.5 66.8798L1027.88 39.5L1000.5 12.1202Z" fill="white"/>
<path d="M1006.54 12.1224L979.163 39.4994L1006.54 66.8764L1033.92 39.4994L1006.54 12.1224Z" fill="white"/>
<g opacity="0.23">
<mask id="mask0_390_6720" style="mask-type:luminance" maskUnits="userSpaceOnUse" x="967" y="12" width="55" height="55">
<path d="M994.455 12.1224L967.078 39.5L994.455 66.8776L1021.83 39.5L994.455 12.1224Z" fill="white"/>
</mask>
<g mask="url(#mask0_390_6720)">
<path d="M1021.96 3.22498H967.145V72.946H1021.96V3.22498Z" fill="#002A60"/>
<path d="M1021.96 7.77728H967.145V72.946H1021.96V7.77728Z" fill="url(#paint0_linear_390_6720)"/>
<path d="M994.536 12.1805H939.72V66.9939H994.536V12.1805Z" fill="url(#paint1_linear_390_6720)"/>
<path d="M1000.15 80.4331L984.502 21.8419L1038.9 7.30481L1054.57 65.8843L1000.15 80.4331Z" fill="url(#paint2_radial_390_6720)"/>
<path d="M963.32 42.0427L1030.84 31.1443L1035.62 60.7439L968.104 71.6403L963.32 42.0427Z" fill="url(#paint3_linear_390_6720)"/>
<path d="M960.789 2.43884L1027.6 10.0612L1023.98 64.6492L957.172 57.0092L960.789 2.43884Z" fill="url(#paint4_linear_390_6720)"/>
<path d="M1031.5 35.3986H959.495V72.4951H1031.5V35.3986Z" fill="url(#paint5_linear_390_6720)"/>
</g>
</g>
<g opacity="0.43">
<mask id="mask1_390_6720" style="mask-type:luminance" maskUnits="userSpaceOnUse" x="973" y="12" width="55" height="55">
<path d="M1000.49 12.1196L973.115 39.5L1000.49 66.8804L1027.88 39.5L1000.49 12.1196Z" fill="white"/>
</mask>
<g mask="url(#mask1_390_6720)">
<path d="M1028.01 3.21918H973.185V72.948H1028.01V3.21918Z" fill="#002A60"/>
<path d="M1028.01 7.77338H973.185V72.948H1028.01V7.77338Z" fill="url(#paint6_linear_390_6720)"/>
<path d="M1027.95 3.26624H956.287V74.9242H1027.95V3.26624Z" fill="#002A60"/>
<path d="M1053.07 -2.05066H962.759V68.2212H1053.07V-2.05066Z" fill="url(#paint7_linear_390_6720)"/>
<path d="M1077.26 87.3027H923.797V-51.1022H1077.26V87.3027Z" fill="url(#paint8_radial_390_6720)"/>
<path opacity="0.29" d="M1033.6 -9.18292L1045.4 59.1481L974.548 71.3874L962.747 3.04663L1033.6 -9.18292Z" fill="url(#paint9_linear_390_6720)"/>
<path d="M972.18 0.872437L1039 6.68726L1033.89 68.2212L967.406 48.2713L972.18 0.872437Z" fill="url(#paint10_linear_390_6720)"/>
<path opacity="0.61" d="M952.403 55.0683L964.863 2.31732L1006.73 10.7082L994.262 63.4455L952.403 55.0683Z" fill="url(#paint11_linear_390_6720)"/>
</g>
</g>
<mask id="mask2_390_6720" style="mask-type:luminance" maskUnits="userSpaceOnUse" x="979" y="12" width="55" height="55">
<path d="M1006.54 12.1218L979.163 39.4994L1006.54 66.877L1033.92 39.4994L1006.54 12.1218Z" fill="white"/>
</mask>
<g mask="url(#mask2_390_6720)">
<path opacity="0.9" d="M1006.54 12.1218L979.163 39.4994L1006.54 66.877L1033.92 39.4994L1006.54 12.1218Z" fill="url(#paint12_linear_390_6720)"/>
<path opacity="0.5" d="M1006.54 12.1218L979.163 39.4994L1006.54 66.877L1033.92 39.4994L1006.54 12.1218Z" fill="url(#paint13_radial_390_6720)"/>
<path d="M1006.54 12.1218L979.163 39.4994L1006.54 66.877L1033.92 39.4994L1006.54 12.1218Z" fill="url(#paint14_radial_390_6720)"/>
</g>
<defs>
<linearGradient id="paint0_linear_390_6720" x1="994.552" y1="72.944" x2="994.552" y2="7.77728" gradientUnits="userSpaceOnUse">
<stop stop-color="#C2244E"/>
<stop offset="0.03" stop-color="#B42855"/>
<stop offset="0.15" stop-color="#8A346A"/>
<stop offset="0.25" stop-color="#693D7A"/>
<stop offset="0.36" stop-color="#524486"/>
<stop offset="0.45" stop-color="#44488D"/>
<stop offset="0.54" stop-color="#3F498F"/>
<stop offset="0.88" stop-color="#2C8AE1"/>
<stop offset="1" stop-color="#25A1FF"/>
</linearGradient>
<linearGradient id="paint1_linear_390_6720" x1="939.72" y1="39.5863" x2="994.534" y2="39.5863" gradientUnits="userSpaceOnUse">
<stop offset="0.22" stop-color="#0051B4"/>
<stop offset="1" stop-color="#37529C" stop-opacity="0"/>
</linearGradient>
<radialGradient id="paint2_radial_390_6720" cx="0" cy="0" r="1" gradientTransform="matrix(-7.90413 -29.0307 26.5584 -7.23038 1016.54 33.2318)" gradientUnits="userSpaceOnUse">
<stop offset="0.1" stop-color="#002A60"/>
<stop offset="0.32" stop-color="#042D65" stop-opacity="0.76"/>
<stop offset="0.57" stop-color="#113672" stop-opacity="0.48"/>
<stop offset="0.83" stop-color="#254589" stop-opacity="0.19"/>
<stop offset="1" stop-color="#37529C" stop-opacity="0"/>
</radialGradient>
<linearGradient id="paint3_linear_390_6720" x1="1001.86" y1="66.1932" x2="997.081" y2="36.5926" gradientUnits="userSpaceOnUse">
<stop stop-color="#C2244E"/>
<stop offset="0.54" stop-color="#6E407D" stop-opacity="0.6"/>
<stop offset="0.88" stop-color="#37529C" stop-opacity="0"/>
</linearGradient>
<linearGradient id="paint4_linear_390_6720" x1="994.753" y1="16.8266" x2="981.984" y2="70.7938" gradientUnits="userSpaceOnUse">
<stop offset="0.05" stop-color="#25A1FF"/>
<stop offset="0.47" stop-color="#108FFF" stop-opacity="0.74"/>
<stop offset="1" stop-color="#0037D3" stop-opacity="0"/>
</linearGradient>
<linearGradient id="paint5_linear_390_6720" x1="995.497" y1="72.4951" x2="995.497" y2="35.3986" gradientUnits="userSpaceOnUse">
<stop offset="0.15" stop-color="#C2244E"/>
<stop offset="0.61" stop-color="#703F7C" stop-opacity="0.61"/>
<stop offset="0.88" stop-color="#37529C" stop-opacity="0"/>
</linearGradient>
<linearGradient id="paint6_linear_390_6720" x1="1000.6" y1="72.948" x2="1000.6" y2="7.77338" gradientUnits="userSpaceOnUse">
<stop stop-color="#C2244E"/>
<stop offset="0.03" stop-color="#B42855"/>
<stop offset="0.15" stop-color="#8A346A"/>
<stop offset="0.25" stop-color="#693D7A"/>
<stop offset="0.36" stop-color="#524486"/>
<stop offset="0.45" stop-color="#44488D"/>
<stop offset="0.54" stop-color="#3F498F"/>
<stop offset="0.88" stop-color="#2C8AE1"/>
<stop offset="1" stop-color="#25A1FF"/>
</linearGradient>
<linearGradient id="paint7_linear_390_6720" x1="1014.88" y1="15.9565" x2="999.282" y2="54.2963" gradientUnits="userSpaceOnUse">
<stop offset="0.08" stop-color="#25A1FF"/>
<stop offset="0.23" stop-color="#1B81D5"/>
<stop offset="0.4" stop-color="#1162AB"/>
<stop offset="0.57" stop-color="#0A4A8A"/>
<stop offset="0.72" stop-color="#043873"/>
<stop offset="0.87" stop-color="#012E65"/>
<stop offset="1" stop-color="#002A60"/>
</linearGradient>
<radialGradient id="paint8_radial_390_6720" cx="0" cy="0" r="1" gradientUnits="userSpaceOnUse" gradientTransform="translate(1001.79 17.2051) scale(75.4928 55.8122)">
<stop stop-color="#002A60" stop-opacity="0"/>
<stop offset="0.1" stop-color="#082A5F" stop-opacity="0.1"/>
<stop offset="0.27" stop-color="#1E295D" stop-opacity="0.27"/>
<stop offset="0.47" stop-color="#43285A" stop-opacity="0.47"/>
<stop offset="0.7" stop-color="#752655" stop-opacity="0.7"/>
<stop offset="0.95" stop-color="#B5244F" stop-opacity="0.95"/>
<stop offset="1" stop-color="#C2244E"/>
</radialGradient>
<linearGradient id="paint9_linear_390_6720" x1="998.171" y1="-3.07207" x2="1009.97" y2="65.2685" gradientUnits="userSpaceOnUse">
<stop stop-color="#002A60" stop-opacity="0"/>
<stop offset="0.1" stop-color="#082A5F" stop-opacity="0.1"/>
<stop offset="0.27" stop-color="#1E295D" stop-opacity="0.27"/>
<stop offset="0.47" stop-color="#43285A" stop-opacity="0.47"/>
<stop offset="0.7" stop-color="#752655" stop-opacity="0.7"/>
<stop offset="0.89" stop-color="#B5244F" stop-opacity="0.95"/>
<stop offset="1" stop-color="#C2244E"/>
</linearGradient>
<linearGradient id="paint10_linear_390_6720" x1="1007.18" y1="9.31307" x2="996.173" y2="46.0694" gradientUnits="userSpaceOnUse">
<stop offset="0.18" stop-color="#25A1FF"/>
<stop offset="0.46" stop-color="#1A7CD5" stop-opacity="0.74"/>
<stop offset="1" stop-color="#37529C" stop-opacity="0"/>
</linearGradient>
<linearGradient id="paint11_linear_390_6720" x1="965.659" y1="30.5019" x2="999.624" y2="32.6664" gradientUnits="userSpaceOnUse">
<stop offset="0.05" stop-color="#25A1FF"/>
<stop offset="0.28" stop-color="#1A7CD5" stop-opacity="0.74"/>
<stop offset="1" stop-color="#37529C" stop-opacity="0"/>
</linearGradient>
<linearGradient id="paint12_linear_390_6720" x1="992.85" y1="53.1889" x2="1020.23" y2="25.8113" gradientUnits="userSpaceOnUse">
<stop stop-color="#073D84"/>
<stop offset="0.84" stop-color="#003C8B" stop-opacity="0.64"/>
<stop offset="1" stop-color="#004EB5" stop-opacity="0.6"/>
</linearGradient>
<radialGradient id="paint13_radial_390_6720" cx="0" cy="0" r="1" gradientUnits="userSpaceOnUse" gradientTransform="translate(1008.91 15.4527) rotate(-49.61) scale(13.3569 84.7876)">
<stop stop-color="#2295FF" stop-opacity="0.65"/>
<stop offset="1" stop-color="#2295FF" stop-opacity="0"/>
</radialGradient>
<radialGradient id="paint14_radial_390_6720" cx="0" cy="0" r="1" gradientUnits="userSpaceOnUse" gradientTransform="translate(1006.09 12.4519) rotate(-28.81) scale(190.869 116.341)">
<stop stop-color="#B34D4D" stop-opacity="0"/>
<stop offset="1" stop-color="#FF0000"/>
</radialGradient>
<clipPath id="clip0_390_6720">
<rect width="17" height="17" fill="white" transform="translate(577.5 29)"/>
</clipPath>
</defs>
</svg>
