<svg width="100" height="100" viewBox="0 0 100 100" fill="none" xmlns="http://www.w3.org/2000/svg">
<path d="M47.2998 37.3V61.5C47.2998 63 48.4998 64.3 50.0998 64.3C51.6998 64.3 52.8998 63.1 52.8998 61.5V37.3C52.8998 35.8 51.6998 34.5 50.0998 34.5C48.4998 34.5 47.2998 35.7 47.2998 37.3Z" fill="#CC3232"/>
<path d="M49.9998 70.7999C48.2998 70.7999 46.7998 72.1999 46.7998 73.9999C46.7998 75.7999 48.1998 77.1999 49.9998 77.1999C51.7998 77.1999 53.1998 75.7999 53.1998 73.9999C53.1998 72.1999 51.6998 70.7999 49.9998 70.7999Z" fill="#CC3232"/>
<path d="M49.6999 18.1L91.3999 83.2H8.5999L49.6999 18.1ZM49.6999 11.2C48.4999 11.2 47.1999 11.8 46.4999 13L2.4999 82.7C0.599899 85.2 2.3999 88.8 5.5999 88.8H94.5999C97.5999 88.8 99.4999 85.5 97.7999 82.9L52.8999 13C52.0999 11.8 50.8999 11.2 49.6999 11.2Z" fill="#CC3232"/>
</svg>
