<?xml version="1.0" encoding="UTF-8"?>
<svg id="svg7301" width="14mm" height="14mm" version="1.1" viewBox="0 0 14 14" xmlns="http://www.w3.org/2000/svg" xmlns:cc="http://creativecommons.org/ns#" xmlns:dc="http://purl.org/dc/elements/1.1/" xmlns:rdf="http://www.w3.org/1999/02/22-rdf-syntax-ns#">
 <metadata id="metadata7298">
  <rdf:RDF>
   <cc:Work rdf:about="">
    <dc:format>image/svg+xml</dc:format>
    <dc:type rdf:resource="http://purl.org/dc/dcmitype/StillImage"/>
    <dc:title/>
   </cc:Work>
  </rdf:RDF>
 </metadata>
 <g id="layer1" transform="translate(-105.64 -28.394)">
  <g id="g169" transform="translate(.40147 -1.1483)">
   <g id="g5421" transform="matrix(.35278 0 0 -.35278 105.64 35.582)">
    <path id="path5423" d="m0 0v-0.876l16.627-9.241 16.802 9.241v0.876l-16.714-9.241z" fill="#656263"/>
   </g>
   <g id="g5425" transform="matrix(.35278 0 0 -.35278 111.51 39.151)">
    <path id="path5427" d="m0 0 16.802 9.241v0.876l-16.715-9.241z" fill="#fff"/>
   </g>
   <g id="g5429" transform="matrix(.35278 0 0 -.35278 105.64 37.203)">
    <path id="path5431" d="m0 0v-0.876l16.627-9.241 16.802 9.241v0.876l-16.714-9.241z" fill="#656263"/>
   </g>
   <g id="g5433" transform="matrix(.35278 0 0 -.35278 111.51 40.772)">
    <path id="path5435" d="m0 0 16.802 9.241v0.876l-16.715-9.241z" fill="#fff"/>
   </g>
   <g id="g5437" transform="matrix(.35278 0 0 -.35278 105.64 38.825)">
    <path id="path5439" d="m0 0v-0.876l16.627-9.242 16.802 9.242v0.876l-16.714-9.242z" fill="#656263"/>
   </g>
   <g id="g5441" transform="matrix(.35278 0 0 -.35278 111.51 42.394)">
    <path id="path5443" d="m0 0 16.802 9.242v0.876l-16.715-9.242z" fill="#fff"/>
   </g>
   <g id="g5445" transform="matrix(.35278 0 0 -.35278 114.48 35.63)">
    <path id="path5447" d="M 0,0 -4.179,2.31 0,4.621 4.179,2.31 Z" fill="#656263"/>
   </g>
   <g id="g5449" transform="matrix(.35278 0 0 -.35278 113.01 36.397)">
    <path id="path5451" d="M 0,0 -4.179,2.31 0,4.621 4.179,2.31 Z" fill="#fff"/>
   </g>
   <g id="g5453" transform="matrix(.35278 0 0 -.35278 114.41 33.951)">
    <path id="path5455" d="M 0,0 -4.179,2.31 0,4.621 4.179,2.31 Z" fill="#a7a5a6"/>
   </g>
   <g id="g5457" transform="matrix(.35278 0 0 -.35278 111.54 37.212)">
    <path id="path5459" d="M 0,0 -4.179,2.31 0,4.621 4.179,2.31 Z" fill="#a7a5a6"/>
   </g>
   <g id="g5461" transform="matrix(.35278 0 0 -.35278 110.06 36.397)">
    <path id="path5463" d="m0 0-4.179 2.311 4.179 2.31 4.179-2.31z" fill="#656263"/>
   </g>
   <g id="g5465" transform="matrix(.35278 0 0 -.35278 111.54 35.582)">
    <path id="path5467" d="M 0,0 -4.179,2.311 0,4.621 4.179,2.31 Z" fill="#656263"/>
   </g>
   <g id="g5469" transform="matrix(.35278 0 0 -.35278 111.54 33.951)">
    <path id="path5471" d="M 0,0 -4.179,2.31 0,4.621 4.179,2.31 Z" fill="#656263"/>
   </g>
   <g id="g5473" transform="matrix(.35278 0 0 -.35278 110.06 33.136)">
    <path id="path5475" d="m0 0-4.179 2.31 4.179 2.311 4.178-2.31z" fill="#656263"/>
   </g>
   <g id="g5477" transform="matrix(.35278 0 0 -.35278 108.59 35.581)">
    <path id="path5479" d="M 0,0 -4.179,2.31 0,4.621 4.179,2.31 Z" fill="#a7a5a6"/>
   </g>
   <g id="g5481" transform="matrix(.35278 0 0 -.35278 117.36 32.321)">
    <path id="path5483" d="M 0,0 -4.179,2.31 0,4.621 4.179,2.31 Z" fill="#fff"/>
   </g>
   <g id="g5485" transform="matrix(.35278 0 0 -.35278 114.48 37.212)">
    <path id="path5487" d="M 0,0 -4.179,2.31 0,4.621 4.179,2.31 Z" fill="#656263"/>
   </g>
   <g id="g5489" transform="matrix(.35278 0 0 -.35278 113.01 38.027)">
    <path id="path5491" d="M 0,0 -4.178,2.31 0,4.621 4.179,2.31 Z" fill="#656263"/>
   </g>
   <g id="g5493" transform="matrix(.35278 0 0 -.35278 108.59 37.212)">
    <path id="path5495" d="m0 0-4.179 2.311 4.179 2.31 4.179-2.31z" fill="#656263"/>
   </g>
  </g>
 </g>
</svg>
