<?xml version="1.0" encoding="UTF-8"?>
<svg id="Ebene_1" data-name="Ebene 1" xmlns="http://www.w3.org/2000/svg" xmlns:xlink="http://www.w3.org/1999/xlink" viewBox="0 0 1049.19 292">
  <defs>
    <style>
      .cls-1, .cls-2 {
        fill: none;
      }

      .cls-3 {
        clip-path: url(#clippath);
      }

      .cls-4 {
        fill: url(#Unbenannter_Verlauf_24-2);
      }

      .cls-5 {
        fill: #002a60;
      }

      .cls-6 {
        fill: #fff;
      }

      .cls-7 {
        fill: #222120;
      }

      .cls-8 {
        clip-path: url(#clippath-1);
      }

      .cls-9 {
        clip-path: url(#clippath-2);
      }

      .cls-2 {
        stroke: #9e1e4d;
        stroke-linecap: round;
        stroke-miterlimit: 10;
        stroke-width: 2px;
      }

      .cls-10 {
        opacity: .23;
      }

      .cls-11 {
        opacity: .43;
      }

      .cls-12 {
        fill: url(#Unbenannter_Verlauf_25);
      }

      .cls-13 {
        fill: url(#Unbenannter_Verlauf_23);
      }

      .cls-14 {
        fill: url(#Unbenannter_Verlauf_24);
      }

      .cls-15 {
        fill: url(#Unbenannter_Verlauf_26);
      }

      .cls-16 {
        fill: url(#Unbenannter_Verlauf_29);
      }

      .cls-17 {
        fill: url(#Unbenannter_Verlauf_27);
      }

      .cls-18 {
        fill: url(#Unbenannter_Verlauf_28);
      }

      .cls-19 {
        fill: url(#Unbenannter_Verlauf_22);
      }

      .cls-20 {
        fill: url(#Unbenannter_Verlauf_20);
      }

      .cls-21 {
        fill: url(#Unbenannter_Verlauf_7);
      }

      .cls-22 {
        fill: url(#Unbenannter_Verlauf_2);
        opacity: .5;
      }

      .cls-22, .cls-23, .cls-24, .cls-25 {
        isolation: isolate;
      }

      .cls-23 {
        fill: url(#Unbenannter_Verlauf_21);
        opacity: .29;
      }

      .cls-24 {
        fill: url(#Unbenannter_Verlauf_18);
        opacity: .9;
      }

      .cls-25 {
        fill: url(#Unbenannter_Verlauf_19);
        opacity: .61;
      }
    </style>
    <clipPath id="clippath">
      <rect class="cls-1" x="40.9" y="52.21" width="197.49" height="197.49" transform="translate(-65.84 142.96) rotate(-45)"/>
    </clipPath>
    <linearGradient id="Unbenannter_Verlauf_24" data-name="Unbenannter Verlauf 24" x1="82.83" y1="-845.08" x2="82.83" y2="-1177.48" gradientTransform="translate(57.31 1166.62)" gradientUnits="userSpaceOnUse">
      <stop offset="0" stop-color="#c2244e"/>
      <stop offset=".03" stop-color="#b42855"/>
      <stop offset=".15" stop-color="#8a346a"/>
      <stop offset=".25" stop-color="#693d7a"/>
      <stop offset=".36" stop-color="#524486"/>
      <stop offset=".45" stop-color="#44488d"/>
      <stop offset=".54" stop-color="#3f498f"/>
      <stop offset=".88" stop-color="#2c8ae1"/>
      <stop offset="1" stop-color="#25a1ff"/>
    </linearGradient>
    <linearGradient id="Unbenannter_Verlauf_29" data-name="Unbenannter Verlauf 29" x1="-196.84" y1="-1015.23" x2="82.75" y2="-1015.23" gradientTransform="translate(57.31 1166.62)" gradientUnits="userSpaceOnUse">
      <stop offset=".22" stop-color="#0051b4"/>
      <stop offset="1" stop-color="#37529c" stop-opacity="0"/>
    </linearGradient>
    <radialGradient id="Unbenannter_Verlauf_28" data-name="Unbenannter Verlauf 28" cx="8398.44" cy="-979.06" fx="8398.44" fy="-979.06" r="68.82" gradientTransform="translate(7095.53 17651.2) rotate(-105.23) scale(2.23 2.04) skewX(.89)" gradientUnits="userSpaceOnUse">
      <stop offset=".1" stop-color="#002a60"/>
      <stop offset=".32" stop-color="#042d65" stop-opacity=".76"/>
      <stop offset=".57" stop-color="#113672" stop-opacity=".48"/>
      <stop offset=".83" stop-color="#254589" stop-opacity=".19"/>
      <stop offset="1" stop-color="#37529c" stop-opacity="0"/>
    </radialGradient>
    <linearGradient id="Unbenannter_Verlauf_27" data-name="Unbenannter Verlauf 27" x1="1787.41" y1="-1749.1" x2="1787.41" y2="-1902.04" gradientTransform="translate(-1749.54 2369.91) rotate(-9.17) scale(1.25 1)" gradientUnits="userSpaceOnUse">
      <stop offset="0" stop-color="#c2244e"/>
      <stop offset=".54" stop-color="#703f7c" stop-opacity=".61"/>
      <stop offset=".54" stop-color="#6e407d" stop-opacity=".6"/>
      <stop offset=".88" stop-color="#37529c" stop-opacity="0"/>
    </linearGradient>
    <linearGradient id="Unbenannter_Verlauf_26" data-name="Unbenannter Verlauf 26" x1="1073.74" y1="463.34" x2="1061.17" y2="604.46" gradientTransform="translate(-1083.18 -1005.99) rotate(4.97) scale(1.22 2.01)" gradientUnits="userSpaceOnUse">
      <stop offset=".05" stop-color="#25a1ff"/>
      <stop offset=".47" stop-color="#108fff" stop-opacity=".74"/>
      <stop offset="1" stop-color="#0037d3" stop-opacity="0"/>
    </linearGradient>
    <linearGradient id="Unbenannter_Verlauf_25" data-name="Unbenannter Verlauf 25" x1="87.65" y1="-847.37" x2="87.65" y2="-1036.59" gradientTransform="translate(57.31 1166.62)" gradientUnits="userSpaceOnUse">
      <stop offset=".15" stop-color="#c2244e"/>
      <stop offset=".61" stop-color="#703f7c" stop-opacity=".61"/>
      <stop offset=".88" stop-color="#37529c" stop-opacity="0"/>
    </linearGradient>
    <clipPath id="clippath-1">
      <rect class="cls-1" x="71.71" y="52.19" width="197.51" height="197.51" transform="translate(-56.81 164.75) rotate(-45)"/>
    </clipPath>
    <linearGradient id="Unbenannter_Verlauf_24-2" data-name="Unbenannter Verlauf 24" x1="113.66" y1="350.68" x2="113.66" y2="683.12" gradientTransform="translate(57.31 672.24) scale(1 -1)" xlink:href="#Unbenannter_Verlauf_24"/>
    <linearGradient id="Unbenannter_Verlauf_23" data-name="Unbenannter Verlauf 23" x1="186.52" y1="641.38" x2="106.95" y2="445.82" gradientTransform="translate(57.31 672.24) scale(1 -1)" gradientUnits="userSpaceOnUse">
      <stop offset=".08" stop-color="#25a1ff"/>
      <stop offset=".23" stop-color="#1b81d5"/>
      <stop offset=".4" stop-color="#1162ab"/>
      <stop offset=".57" stop-color="#0a4a8a"/>
      <stop offset=".72" stop-color="#043873"/>
      <stop offset=".87" stop-color="#012e65"/>
      <stop offset="1" stop-color="#002a60"/>
    </linearGradient>
    <radialGradient id="Unbenannter_Verlauf_22" data-name="Unbenannter Verlauf 22" cx="4083.85" cy="-993.17" fx="4083.85" fy="-993.17" r="182.49" gradientTransform="translate(-8439.84 -1512.12) scale(2.11 -1.56)" gradientUnits="userSpaceOnUse">
      <stop offset="0" stop-color="#002a60" stop-opacity="0"/>
      <stop offset=".1" stop-color="#082a5f" stop-opacity=".1"/>
      <stop offset=".27" stop-color="#1e295d" stop-opacity=".27"/>
      <stop offset=".47" stop-color="#43285a" stop-opacity=".47"/>
      <stop offset=".7" stop-color="#752655" stop-opacity=".7"/>
      <stop offset=".95" stop-color="#b5244f" stop-opacity=".95"/>
      <stop offset="1" stop-color="#c2244e"/>
    </radialGradient>
    <linearGradient id="Unbenannter_Verlauf_21" data-name="Unbenannter Verlauf 21" x1="2491.66" y1="-9677.31" x2="2845.41" y2="-9677.31" gradientTransform="translate(9270.59 -4168.67) rotate(80.2) scale(1 -1)" gradientUnits="userSpaceOnUse">
      <stop offset="0" stop-color="#002a60" stop-opacity="0"/>
      <stop offset=".1" stop-color="#082a5f" stop-opacity=".1"/>
      <stop offset=".27" stop-color="#1e295d" stop-opacity=".27"/>
      <stop offset=".47" stop-color="#43285a" stop-opacity=".47"/>
      <stop offset=".7" stop-color="#752655" stop-opacity=".7"/>
      <stop offset=".89" stop-color="#b5244f" stop-opacity=".95"/>
      <stop offset="1" stop-color="#c2244e"/>
    </linearGradient>
    <linearGradient id="Unbenannter_Verlauf_20" data-name="Unbenannter Verlauf 20" x1="1388.54" y1="-840.84" x2="1376.23" y2="-938.73" gradientTransform="translate(-1336.67 -1833.53) rotate(4.97) scale(1.22 -2.01)" gradientUnits="userSpaceOnUse">
      <stop offset=".18" stop-color="#25a1ff"/>
      <stop offset=".46" stop-color="#1a7cd5" stop-opacity=".74"/>
      <stop offset="1" stop-color="#37529c" stop-opacity="0"/>
    </linearGradient>
    <linearGradient id="Unbenannter_Verlauf_19" data-name="Unbenannter Verlauf 19" x1="3487.79" y1="551.86" x2="3496.73" y2="465.19" gradientTransform="translate(94.16 4501.2) rotate(-76.71) scale(1.22 -2.01)" gradientUnits="userSpaceOnUse">
      <stop offset=".05" stop-color="#25a1ff"/>
      <stop offset=".28" stop-color="#1a7cd5" stop-opacity=".74"/>
      <stop offset="1" stop-color="#37529c" stop-opacity="0"/>
    </linearGradient>
    <clipPath id="clippath-2">
      <rect id="rect62862-7" class="cls-1" x="102.55" y="52.21" width="197.49" height="197.49" transform="translate(-47.78 186.55) rotate(-45)"/>
    </clipPath>
    <linearGradient id="Unbenannter_Verlauf_18" data-name="Unbenannter Verlauf 18" x1="-1795.52" y1="-661.41" x2="-1598.03" y2="-661.41" gradientTransform="translate(1898.07 -510.46) scale(1 -1)" gradientUnits="userSpaceOnUse">
      <stop offset="0" stop-color="#073d84"/>
      <stop offset=".84" stop-color="#003c8b" stop-opacity=".64"/>
      <stop offset="1" stop-color="#004eb5" stop-opacity=".6"/>
    </linearGradient>
    <radialGradient id="Unbenannter_Verlauf_2" data-name="Unbenannter Verlauf 2" cx="-301.47" cy="-235.26" fx="-301.47" fy="-235.26" r="98.74" gradientTransform="translate(422.87 -969.22) rotate(-4.61) scale(.69 -4.38)" gradientUnits="userSpaceOnUse">
      <stop offset="0" stop-color="#2295ff" stop-opacity=".65"/>
      <stop offset="1" stop-color="#2295ff" stop-opacity="0"/>
    </radialGradient>
    <radialGradient id="Unbenannter_Verlauf_7" data-name="Unbenannter Verlauf 7" cx="305.18" cy="-238.48" fx="305.18" fy="-238.48" r="98.74" gradientTransform="translate(-2190.82 -2164.07) rotate(16.19) scale(9.86 -6.01)" gradientUnits="userSpaceOnUse">
      <stop offset="0" stop-color="#b34d4d" stop-opacity="0"/>
      <stop offset="1" stop-color="red"/>
    </radialGradient>
  </defs>
  <g id="Ebene_1-2" data-name="Ebene 1">
    <g>
      <path class="cls-7" d="M432.62,95.34v39.12h-6.33v-3.64c-1.09,1.34-2.43,2.34-4.03,3s-3.37,1-5.3,1c-2.71,0-5.14-.6-7.3-1.79-2.16-1.19-3.86-2.89-5.09-5.09s-1.84-4.72-1.84-7.57,.61-5.36,1.84-7.54,2.93-3.87,5.09-5.06,4.6-1.79,7.3-1.79c1.86,0,3.57,.32,5.11,.95,1.55,.63,2.87,1.58,3.96,2.85v-14.45h6.59Zm-10.6,32.78c1.27-.72,2.27-1.75,3.01-3.08s1.11-2.88,1.11-4.64-.37-3.3-1.11-4.64c-.74-1.33-1.74-2.36-3.01-3.08-1.26-.72-2.69-1.08-4.27-1.08s-3,.36-4.27,1.08-2.27,1.75-3.01,3.08c-.74,1.34-1.11,2.88-1.11,4.64s.37,3.3,1.11,4.64,1.74,2.36,3.01,3.08c1.27,.72,2.69,1.08,4.27,1.08s3.01-.36,4.27-1.08Z"/>
      <path class="cls-7" d="M450.55,100.53c-.81-.76-1.21-1.7-1.21-2.82s.4-2.06,1.21-2.82c.81-.75,1.81-1.13,3.01-1.13s2.2,.36,3,1.08c.81,.72,1.21,1.63,1.21,2.72,0,1.16-.4,2.14-1.19,2.93s-1.8,1.19-3.03,1.19-2.2-.38-3.01-1.13v-.02Zm-.31,5.77h6.59v28.16h-6.59v-28.16Z"/>
      <path class="cls-7" d="M502.37,106.31v23.88c0,9.91-5.06,14.87-15.18,14.87-2.71,0-5.27-.34-7.7-1.03-2.42-.68-4.43-1.68-6.01-2.98l2.95-4.96c1.23,1.02,2.79,1.84,4.67,2.45,1.88,.62,3.79,.92,5.72,.92,3.09,0,5.36-.7,6.8-2.11s2.16-3.55,2.16-6.43v-1.48c-1.13,1.23-2.5,2.16-4.11,2.79-1.62,.63-3.39,.95-5.33,.95-2.67,0-5.09-.57-7.25-1.71-2.16-1.14-3.87-2.75-5.11-4.82-1.25-2.07-1.87-4.45-1.87-7.12s.62-5.04,1.87-7.09c1.25-2.06,2.95-3.65,5.11-4.77s4.58-1.69,7.25-1.69c2.04,0,3.89,.33,5.56,1s3.07,1.69,4.19,3.06v-3.74h6.28Zm-8.88,19.07c1.6-1.49,2.4-3.43,2.4-5.83s-.8-4.27-2.4-5.75c-1.6-1.48-3.65-2.21-6.14-2.21s-4.6,.74-6.2,2.21c-1.6,1.48-2.4,3.39-2.4,5.75s.8,4.33,2.4,5.83c1.6,1.5,3.66,2.24,6.2,2.24s4.54-.75,6.14-2.24Z"/>
      <path class="cls-7" d="M520.3,100.53c-.81-.76-1.21-1.7-1.21-2.82s.4-2.06,1.21-2.82c.81-.75,1.81-1.13,3.01-1.13s2.2,.36,3,1.08c.81,.72,1.21,1.63,1.21,2.72,0,1.16-.4,2.14-1.19,2.93s-1.8,1.19-3.03,1.19-2.2-.38-3.01-1.13v-.02Zm-.31,5.77h6.59v28.16h-6.59v-28.16Z"/>
      <path class="cls-7" d="M561.11,132.93c-.77,.63-1.71,1.11-2.82,1.42s-2.28,.47-3.51,.47c-3.09,0-5.48-.81-7.17-2.43s-2.53-3.97-2.53-7.07v-13.55h-4.64v-5.27h4.64v-6.43h6.59v6.43h7.54v5.27h-7.54v13.39c0,1.37,.33,2.42,1,3.14s1.63,1.08,2.9,1.08c1.48,0,2.71-.39,3.69-1.16l1.84,4.69v.02Z"/>
      <path class="cls-7" d="M595.78,108.97c2.2,1.99,3.29,4.98,3.29,8.99v16.5h-6.22v-3.43c-.81,1.23-1.96,2.17-3.45,2.82-1.49,.65-3.3,.98-5.4,.98s-3.96-.36-5.54-1.08c-1.58-.72-2.8-1.72-3.67-3s-1.29-2.73-1.29-4.35c0-2.53,.94-4.56,2.82-6.09s4.84-2.29,8.88-2.29h7.28v-.42c0-1.97-.59-3.48-1.77-4.54-1.18-1.05-2.93-1.58-5.25-1.58-1.58,0-3.14,.25-4.67,.74-1.53,.49-2.82,1.18-3.88,2.06l-2.58-4.8c1.48-1.12,3.25-1.99,5.33-2.58,2.07-.6,4.27-.9,6.59-.9,4.15,0,7.32,.99,9.52,2.98h0Zm-6.01,19.92c1.28-.76,2.19-1.84,2.71-3.24v-3.27h-6.8c-3.8,0-5.69,1.25-5.69,3.74,0,1.2,.47,2.14,1.42,2.85s2.27,1.05,3.96,1.05,3.12-.38,4.4-1.13h0Z"/>
      <path class="cls-7" d="M616.47,95.34h6.59v39.12h-6.59v-39.12Z"/>
      <path class="cls-7" d="M687.15,107.78c2.16,1.2,3.86,2.88,5.09,5.06s1.85,4.69,1.85,7.54-.62,5.37-1.85,7.57c-1.23,2.2-2.93,3.89-5.09,5.09-2.16,1.2-4.61,1.79-7.35,1.79-1.93,0-3.7-.33-5.3-1s-2.94-1.67-4.03-3v3.64h-6.27v-39.12h6.59v14.39c1.12-1.23,2.45-2.16,3.98-2.79,1.53-.63,3.21-.95,5.04-.95,2.74,0,5.19,.6,7.35,1.79h0Zm-2.11,18.97c1.56-1.62,2.35-3.74,2.35-6.38s-.78-4.76-2.35-6.38c-1.56-1.62-3.56-2.42-5.98-2.42-1.58,0-3.01,.36-4.27,1.08s-2.27,1.75-3,3.08c-.74,1.34-1.11,2.88-1.11,4.64s.37,3.3,1.11,4.64,1.74,2.36,3,3.08c1.27,.72,2.69,1.08,4.27,1.08,2.42,0,4.42-.81,5.98-2.43h0Z"/>
      <path class="cls-7" d="M709.32,95.34h6.59v39.12h-6.59v-39.12Z"/>
      <path class="cls-7" d="M760.78,106.31v28.16h-6.27v-3.58c-1.05,1.26-2.37,2.24-3.96,2.93-1.58,.69-3.29,1.03-5.11,1.03-3.76,0-6.72-1.05-8.88-3.14-2.16-2.09-3.24-5.19-3.24-9.31v-16.08h6.59v15.18c0,2.53,.57,4.42,1.71,5.67s2.77,1.87,4.88,1.87c2.35,0,4.23-.73,5.62-2.19s2.08-3.56,2.08-6.3v-14.24h6.58Z"/>
      <path class="cls-7" d="M804.75,122.49h-22.09c.39,2.07,1.4,3.72,3.03,4.93s3.66,1.82,6.09,1.82c3.09,0,5.64-1.02,7.65-3.06l3.53,4.06c-1.27,1.51-2.87,2.65-4.8,3.43-1.93,.77-4.11,1.16-6.54,1.16-3.09,0-5.82-.61-8.17-1.85-2.35-1.23-4.17-2.94-5.46-5.14-1.28-2.2-1.92-4.68-1.92-7.46s.62-5.21,1.87-7.41,2.98-3.91,5.19-5.14c2.21-1.23,4.71-1.84,7.49-1.84s5.19,.61,7.36,1.82c2.16,1.21,3.85,2.92,5.06,5.12s1.82,4.74,1.82,7.62c0,.46-.04,1.11-.11,1.95h0Zm-19.48-9.37c-1.46,1.25-2.35,2.91-2.66,4.98h15.98c-.28-2.04-1.14-3.69-2.58-4.96-1.44-1.26-3.23-1.9-5.38-1.9s-3.89,.62-5.35,1.87h-.01Z"/>
      <path class="cls-7" d="M843.11,107.78c2.16,1.2,3.86,2.88,5.09,5.06s1.85,4.69,1.85,7.54-.62,5.37-1.85,7.57c-1.23,2.2-2.93,3.89-5.09,5.09-2.16,1.2-4.61,1.79-7.35,1.79-3.8,0-6.8-1.27-9.02-3.8v13.66h-6.59v-38.38h6.27v3.69c1.09-1.34,2.43-2.34,4.03-3.01,1.6-.67,3.37-1,5.3-1,2.74,0,5.19,.6,7.35,1.79h.01Zm-2.11,18.98c1.56-1.62,2.35-3.74,2.35-6.38s-.78-4.76-2.35-6.38c-1.56-1.62-3.56-2.42-5.98-2.42-1.58,0-3.01,.36-4.27,1.08s-2.27,1.75-3,3.08c-.74,1.34-1.11,2.88-1.11,4.64s.37,3.3,1.11,4.64,1.74,2.36,3,3.08c1.27,.72,2.69,1.08,4.27,1.08,2.42,0,4.42-.81,5.98-2.43h0Z"/>
      <path class="cls-7" d="M881.57,105.99v6.27c-.56-.11-1.07-.16-1.53-.16-2.57,0-4.57,.75-6.01,2.24-1.44,1.5-2.16,3.65-2.16,6.46v13.66h-6.59v-28.16h6.27v4.11c1.9-2.95,5.24-4.43,10.02-4.43h0Z"/>
      <path class="cls-7" d="M896.44,100.53c-.81-.76-1.21-1.7-1.21-2.82s.4-2.06,1.21-2.82c.81-.75,1.81-1.13,3.01-1.13s2.2,.36,3,1.08c.81,.72,1.21,1.63,1.21,2.72,0,1.16-.4,2.14-1.19,2.93s-1.8,1.19-3.03,1.19-2.2-.38-3.01-1.13v-.02Zm-.31,5.77h6.59v28.16h-6.59v-28.16Z"/>
      <path class="cls-7" d="M944.84,109.1c2.14,2.07,3.22,5.15,3.22,9.23v16.13h-6.59v-15.29c0-2.46-.58-4.31-1.74-5.56s-2.81-1.87-4.96-1.87c-2.43,0-4.34,.73-5.75,2.19s-2.11,3.56-2.11,6.3v14.24h-6.59v-28.16h6.27v3.64c1.09-1.3,2.46-2.28,4.11-2.95,1.65-.67,3.51-1,5.59-1,3.55,0,6.4,1.04,8.54,3.11h.01Z"/>
      <path class="cls-7" d="M982.33,132.93c-.77,.63-1.71,1.11-2.82,1.42s-2.28,.47-3.51,.47c-3.09,0-5.48-.81-7.17-2.43s-2.53-3.97-2.53-7.07v-13.55h-4.64v-5.27h4.64v-6.43h6.59v6.43h7.54v5.27h-7.54v13.39c0,1.37,.33,2.42,1,3.14s1.63,1.08,2.9,1.08c1.48,0,2.71-.39,3.69-1.16l1.84,4.69v.02Z"/>
    </g>
    <g>
      <path class="cls-7" d="M595.36,170.71c1.73,1.65,2.6,4.08,2.6,7.28v16.55h-2.4v-4.65c-.83,1.53-2.05,2.73-3.65,3.58-1.6,.85-3.52,1.28-5.75,1.28-2.9,0-5.19-.68-6.88-2.05s-2.52-3.17-2.52-5.4,.77-3.92,2.33-5.28c1.55-1.35,4.02-2.02,7.42-2.02h8.95v-2.1c0-2.43-.66-4.28-1.97-5.55-1.32-1.27-3.24-1.9-5.78-1.9-1.73,0-3.39,.3-4.97,.9-1.58,.6-2.92,1.4-4.02,2.4l-1.25-1.8c1.3-1.17,2.87-2.08,4.7-2.73s3.75-.97,5.75-.97c3.23,0,5.72,.83,7.45,2.47h0Zm-3.33,20.47c1.52-1,2.66-2.45,3.42-4.35v-4.9h-8.9c-2.57,0-4.42,.47-5.58,1.4-1.15,.93-1.72,2.22-1.72,3.85s.63,3.04,1.9,4.02c1.27,.98,3.05,1.48,5.35,1.48,2.17,0,4.01-.5,5.52-1.5h.01Z"/>
      <path class="cls-7" d="M643.95,168.43v26.1h-2.4v-5.6c-.87,1.83-2.15,3.26-3.85,4.27-1.7,1.02-3.7,1.53-6,1.53-3.4,0-6.07-.95-8-2.85-1.93-1.9-2.9-4.63-2.9-8.2v-15.25h2.5v15.05c0,2.93,.75,5.17,2.25,6.7s3.62,2.3,6.35,2.3c2.93,0,5.26-.92,6.98-2.75s2.57-4.3,2.57-7.4v-13.9h2.5Z"/>
      <path class="cls-7" d="M675.05,171.08c1.9,1.9,2.85,4.63,2.85,8.2v15.25h-2.5v-15.05c0-2.93-.74-5.17-2.22-6.7s-3.56-2.3-6.22-2.3c-3.07,0-5.48,.92-7.25,2.75s-2.65,4.3-2.65,7.4v13.9h-2.5v-26.1h2.4v5.65c.9-1.83,2.24-3.27,4.02-4.3s3.89-1.55,6.33-1.55c3.27,0,5.85,.95,7.75,2.85h-.01Z"/>
      <path class="cls-7" d="M688,161.51c-.4-.38-.6-.86-.6-1.42s.2-1.05,.6-1.45c.4-.4,.88-.6,1.45-.6s1.05,.19,1.45,.58c.4,.38,.6,.86,.6,1.42s-.2,1.05-.6,1.45c-.4,.4-.88,.6-1.45,.6s-1.05-.19-1.45-.58Zm.2,6.93h2.5v26.1h-2.5v-26.1Z"/>
      <path class="cls-7" d="M722.2,168.43l-11.8,26.1h-2.55l-11.75-26.1h2.65l10.4,23.35,10.5-23.35h2.55Z"/>
      <path class="cls-7" d="M748.95,182.08h-22.45c.07,2.03,.58,3.84,1.55,5.42s2.27,2.81,3.92,3.68c1.65,.87,3.51,1.3,5.58,1.3,1.7,0,3.27-.31,4.72-.92s2.66-1.53,3.62-2.73l1.45,1.65c-1.13,1.37-2.56,2.42-4.28,3.15-1.72,.73-3.58,1.1-5.58,1.1-2.6,0-4.92-.57-6.95-1.7-2.03-1.13-3.62-2.7-4.78-4.7-1.15-2-1.72-4.28-1.72-6.85s.54-4.81,1.62-6.83,2.58-3.59,4.47-4.72c1.9-1.13,4.03-1.7,6.4-1.7s4.49,.56,6.38,1.67c1.88,1.12,3.37,2.67,4.45,4.67s1.62,4.27,1.62,6.8l-.05,.7h.03Zm-17.35-10.41c-1.47,.82-2.64,1.97-3.53,3.45s-1.39,3.16-1.52,5.02h20c-.1-1.87-.6-3.53-1.5-5s-2.08-2.62-3.55-3.45-3.12-1.25-4.95-1.25-3.48,.41-4.95,1.22h0Z"/>
      <path class="cls-7" d="M762.9,169.76c1.7-1.02,3.77-1.52,6.2-1.52v2.45l-.6-.05c-2.9,0-5.17,.91-6.8,2.73-1.63,1.82-2.45,4.34-2.45,7.58v13.6h-2.5v-26.1h2.4v5.7c.8-1.9,2.05-3.36,3.75-4.38h0Z"/>
      <path class="cls-7" d="M776.85,193.78c-1.9-.63-3.38-1.43-4.45-2.4l1.15-2c1.07,.9,2.44,1.65,4.12,2.25s3.44,.9,5.28,.9c2.63,0,4.58-.43,5.83-1.3,1.25-.87,1.88-2.07,1.88-3.6,0-1.1-.34-1.97-1.03-2.6-.68-.63-1.53-1.1-2.53-1.4-1-.3-2.38-.62-4.15-.95-2.07-.37-3.73-.77-5-1.2s-2.35-1.13-3.25-2.1-1.35-2.3-1.35-4c0-2.07,.86-3.77,2.57-5.12,1.72-1.35,4.16-2.02,7.33-2.02,1.67,0,3.32,.23,4.95,.7s2.97,1.08,4,1.85l-1.15,2c-1.07-.77-2.28-1.35-3.65-1.75s-2.77-.6-4.2-.6c-2.43,0-4.27,.45-5.5,1.35-1.23,.9-1.85,2.08-1.85,3.55,0,1.17,.35,2.08,1.05,2.73s1.56,1.13,2.58,1.45c1.02,.32,2.44,.66,4.27,1.03,2.03,.37,3.67,.76,4.92,1.17,1.25,.42,2.31,1.09,3.17,2.03,.87,.93,1.3,2.22,1.3,3.85,0,2.17-.9,3.9-2.7,5.2s-4.33,1.95-7.6,1.95c-2.1,0-4.1-.32-6-.95v-.02Z"/>
      <path class="cls-7" d="M799.95,161.51c-.4-.38-.6-.86-.6-1.42s.2-1.05,.6-1.45c.4-.4,.88-.6,1.45-.6s1.05,.19,1.45,.58c.4,.38,.6,.86,.6,1.42s-.2,1.05-.6,1.45c-.4,.4-.88,.6-1.45,.6s-1.05-.19-1.45-.58Zm.2,6.93h2.5v26.1h-2.5v-26.1Z"/>
      <path class="cls-7" d="M826.15,192.88c-.63,.6-1.42,1.06-2.38,1.38s-1.94,.48-2.98,.48c-2.27,0-4.02-.62-5.25-1.88-1.23-1.25-1.85-2.99-1.85-5.23v-17.05h-4.8v-2.15h4.8v-5.7h2.5v5.7h8.3v2.15h-8.3v16.8c0,1.7,.41,2.99,1.23,3.88,.82,.88,2.02,1.33,3.62,1.33s2.98-.48,4.05-1.45l1.05,1.75h.01Z"/>
      <path class="cls-7" d="M853.55,168.43l-13.4,29.65c-1,2.3-2.16,3.93-3.47,4.9-1.32,.97-2.88,1.45-4.67,1.45-1.2,0-2.33-.2-3.38-.6-1.05-.4-1.94-.98-2.67-1.75l1.25-1.9c1.33,1.37,2.95,2.05,4.85,2.05,1.27,0,2.35-.35,3.25-1.05s1.73-1.9,2.5-3.6l1.4-3.15-11.75-26h2.65l10.45,23.35,10.45-23.35h2.54Z"/>
      <path class="cls-7" d="M884.8,192.88c-.63,.6-1.42,1.06-2.38,1.38s-1.94,.48-2.98,.48c-2.27,0-4.02-.62-5.25-1.88-1.23-1.25-1.85-2.99-1.85-5.23v-17.05h-4.8v-2.15h4.8v-5.7h2.5v5.7h8.3v2.15h-8.3v16.8c0,1.7,.41,2.99,1.23,3.88,.82,.88,2.02,1.33,3.62,1.33s2.98-.48,4.05-1.45l1.05,1.75h.01Z"/>
      <path class="cls-7" d="M894.32,193.03c-1.98-1.13-3.54-2.71-4.67-4.72-1.13-2.02-1.7-4.29-1.7-6.83s.57-4.81,1.7-6.83,2.69-3.59,4.67-4.72,4.21-1.7,6.67-1.7,4.69,.57,6.67,1.7c1.98,1.13,3.54,2.71,4.67,4.72,1.13,2.02,1.7,4.29,1.7,6.83s-.57,4.81-1.7,6.83-2.69,3.59-4.67,4.72-4.21,1.7-6.67,1.7-4.69-.57-6.67-1.7Zm12.05-1.95c1.58-.93,2.83-2.23,3.75-3.9s1.38-3.57,1.38-5.7-.46-4.03-1.38-5.7-2.17-2.97-3.75-3.9-3.38-1.4-5.38-1.4-3.79,.47-5.38,1.4c-1.58,.93-2.83,2.23-3.75,3.9s-1.38,3.57-1.38,5.7,.46,4.03,1.38,5.7,2.17,2.97,3.75,3.9,3.38,1.4,5.38,1.4,3.79-.47,5.38-1.4Z"/>
      <path class="cls-7" d="M925.32,193.03c-1.98-1.13-3.54-2.71-4.67-4.72-1.13-2.02-1.7-4.29-1.7-6.83s.57-4.81,1.7-6.83,2.69-3.59,4.67-4.72,4.21-1.7,6.67-1.7,4.69,.57,6.67,1.7c1.98,1.13,3.54,2.71,4.67,4.72,1.13,2.02,1.7,4.29,1.7,6.83s-.57,4.81-1.7,6.83-2.69,3.59-4.67,4.72-4.21,1.7-6.67,1.7-4.69-.57-6.67-1.7Zm12.05-1.95c1.58-.93,2.83-2.23,3.75-3.9s1.38-3.57,1.38-5.7-.46-4.03-1.38-5.7-2.17-2.97-3.75-3.9-3.38-1.4-5.38-1.4-3.79,.47-5.38,1.4c-1.58,.93-2.83,2.23-3.75,3.9s-1.38,3.57-1.38,5.7,.46,4.03,1.38,5.7,2.17,2.97,3.75,3.9,3.38,1.4,5.38,1.4,3.79-.47,5.38-1.4Z"/>
      <path class="cls-7" d="M952.8,157.43h2.5v37.1h-2.5v-37.1h0Z"/>
      <path class="cls-7" d="M985.55,169.91c1.97,1.12,3.51,2.68,4.62,4.7,1.12,2.02,1.67,4.31,1.67,6.88s-.56,4.85-1.67,6.85c-1.12,2-2.66,3.57-4.62,4.7-1.97,1.13-4.17,1.7-6.6,1.7s-4.44-.56-6.32-1.67c-1.88-1.12-3.34-2.68-4.38-4.68v6.15h-2.4v-37.1h2.5v16.95c1.03-1.93,2.48-3.44,4.35-4.52s3.95-1.62,6.25-1.62c2.43,0,4.63,.56,6.6,1.67h0Zm-1.35,21.16c1.6-.93,2.86-2.23,3.78-3.9,.92-1.67,1.38-3.57,1.38-5.7s-.46-4.03-1.38-5.7-2.17-2.97-3.78-3.9c-1.6-.93-3.4-1.4-5.4-1.4s-3.79,.47-5.38,1.4c-1.58,.93-2.83,2.23-3.75,3.9s-1.38,3.57-1.38,5.7,.46,4.03,1.38,5.7,2.17,2.97,3.75,3.9,3.38,1.4,5.38,1.4,3.8-.47,5.4-1.4Z"/>
      <path class="cls-7" d="M1003.12,193.03c-1.98-1.13-3.54-2.71-4.67-4.72-1.13-2.02-1.7-4.29-1.7-6.83s.57-4.81,1.7-6.83,2.69-3.59,4.67-4.72c1.98-1.13,4.21-1.7,6.67-1.7s4.69,.57,6.67,1.7c1.98,1.13,3.54,2.71,4.67,4.72,1.13,2.02,1.7,4.29,1.7,6.83s-.57,4.81-1.7,6.83-2.69,3.59-4.67,4.72c-1.98,1.13-4.21,1.7-6.67,1.7s-4.69-.57-6.67-1.7Zm12.05-1.95c1.58-.93,2.83-2.23,3.75-3.9s1.38-3.57,1.38-5.7-.46-4.03-1.38-5.7-2.17-2.97-3.75-3.9-3.38-1.4-5.38-1.4-3.79,.47-5.38,1.4c-1.58,.93-2.83,2.23-3.75,3.9s-1.38,3.57-1.38,5.7,.46,4.03,1.38,5.7,2.17,2.97,3.75,3.9,3.38,1.4,5.38,1.4,3.79-.47,5.38-1.4Z"/>
      <path class="cls-7" d="M1046.24,194.53l-8.95-11.65-8.95,11.65h-2.85l10.35-13.45-9.8-12.65h2.85l8.4,10.85,8.4-10.85h2.8l-9.8,12.65,10.5,13.45h-2.95Z"/>
    </g>
  </g>
  <g id="Ebene_3" data-name="Ebene 3">
    <line class="cls-2" x1="598.68" y1="1" x2="598.68" y2="291"/>
  </g>
  <g>
    <polygon id="background" class="cls-6" points="340.94 150.95 201.29 11.3 185.89 26.71 170.47 11.29 155.05 26.71 139.65 11.3 0 150.95 139.65 290.6 155.05 275.19 170.47 290.61 185.89 275.19 201.29 290.6 340.94 150.95"/>
    <g id="square_bottom" data-name="square bottom" class="cls-10">
      <g class="cls-3">
        <rect id="rect35896-3-4-6-6-2" class="cls-5" x=".35" y="-34.08" width="279.59" height="355.63"/>
        <rect id="rect35917-90-7-5-4-2" class="cls-14" x=".35" y="-10.86" width="279.59" height="332.41"/>
        <rect id="rect35924-9-9-9-42-2" class="cls-16" x="-139.53" y="11.6" width="279.59" height="279.59"/>
        <polygon id="polygon35937-3-9-0-7-2" class="cls-18" points="168.71 359.74 88.88 60.88 366.36 -13.27 446.24 285.53 168.71 359.74"/>
        <polygon id="polygon35948-65-4-8-5-2" class="cls-17" points="-19.16 163.92 325.21 108.33 349.62 259.31 5.25 314.89 -19.16 163.92"/>
        <polygon id="polygon35957-1-3-2-4-2" class="cls-15" points="-32.07 -38.09 308.71 .79 290.25 279.23 -50.52 240.26 -32.07 -38.09"/>
        <rect id="rect35968-1-9-3-10-2" class="cls-12" x="-38.67" y="130.03" width="367.25" height="189.22"/>
      </g>
    </g>
    <g id="square_middle" data-name="square middle" class="cls-11">
      <g class="cls-8">
        <rect id="rect35803-7-5-9-32-2" class="cls-5" x="31.16" y="-34.11" width="279.62" height="355.67"/>
        <rect id="rect35824-0-2-8-75-2" class="cls-4" x="31.16" y="-10.88" width="279.62" height="332.44"/>
        <rect id="rect35826-6-7-8-5-2" class="cls-5" x="-55.03" y="-33.87" width="365.51" height="365.51"/>
        <rect id="rect35843-7-8-8-7-2" class="cls-13" x="-22.02" y="-60.99" width="460.61" height="358.44"/>
        <path id="path35860-8-7-6-4-2" class="cls-19" d="M561.98,394.78H-220.75V-311.19H561.98V394.78Z"/>
        <polygon id="polygon35877-4-4-8-9-2" class="cls-23" points="339.31 -97.37 399.5 251.17 38.12 313.6 -22.08 -34.99 339.31 -97.37"/>
        <polygon id="polygon35886-19-00-4-03-3" class="cls-20" points="26.03 -46.08 366.84 -16.42 340.79 297.45 1.68 195.69 26.03 -46.08"/>
        <polygon id="polygon35886-19-00-4-03-4" class="cls-25" points="-74.84 230.36 -11.29 -38.71 202.27 4.09 138.66 273.09 -74.84 230.36"/>
      </g>
    </g>
    <g id="square_top" data-name="square top">
      <g class="cls-9">
        <rect id="rect62862-8" class="cls-24" x="102.55" y="52.21" width="197.49" height="197.49" transform="translate(-47.78 186.55) rotate(-45)"/>
        <rect id="rect62862" class="cls-22" x="102.55" y="52.21" width="197.49" height="197.49" transform="translate(-47.78 186.55) rotate(-45)"/>
        <rect id="rect62862-7-2" data-name="rect62862-7" class="cls-21" x="102.55" y="52.21" width="197.49" height="197.49" transform="translate(-47.78 186.55) rotate(-45)"/>
      </g>
    </g>
  </g>
</svg>