<?xml version="1.0" encoding="UTF-8"?>
<svg id="Ebene_1" data-name="Ebene 1" xmlns="http://www.w3.org/2000/svg" xmlns:xlink="http://www.w3.org/1999/xlink" viewBox="0 0 402.96 402.96">
  <defs>
    <clipPath id="clippath">
      <polygon points="232.13 61.8 216.78 77.15 341.13 201.49 216.96 325.96 232.13 341.13 371.79 201.47 232.13 61.8"/>
    </clipPath>
    <clipPath id="clippath-1">
      <polygon points="170.81 61.8 31.15 201.47 170.81 341.13 186.13 325.82 61.81 201.49 186.15 77.14 170.81 61.8"/>
    </clipPath>
    <clipPath id="clippath-2">
      <polygon points="170.81 61.8 31.15 201.47 170.81 341.13 186.13 325.82 61.81 201.49 186.15 77.14 170.81 61.8" style="fill: none;"/>
    </clipPath>
    <linearGradient id="Unbenannter_Verlauf_13" data-name="Unbenannter Verlauf 13" x1="160.21" y1="-224.03" x2="160.21" y2="-556.47" gradientTransform="translate(11.11 596.11)" gradientUnits="userSpaceOnUse">
      <stop offset="0" stop-color="#c2244e"/>
      <stop offset=".03" stop-color="#b42855"/>
      <stop offset=".15" stop-color="#8a346a"/>
      <stop offset=".25" stop-color="#693d7a"/>
      <stop offset=".36" stop-color="#524486"/>
      <stop offset=".45" stop-color="#44488d"/>
      <stop offset=".54" stop-color="#3f498f"/>
      <stop offset=".88" stop-color="#2c8ae1"/>
      <stop offset="1" stop-color="#25a1ff"/>
    </linearGradient>
    <linearGradient id="Unbenannter_Verlauf_8" data-name="Unbenannter Verlauf 8" x1="-119.5" y1="-394.2" x2="160.12" y2="-394.2" gradientTransform="translate(11.11 596.11)" gradientUnits="userSpaceOnUse">
      <stop offset=".22" stop-color="#0051b4"/>
      <stop offset="1" stop-color="#37529c" stop-opacity="0"/>
    </linearGradient>
    <radialGradient id="Unbenannter_Verlauf_9" data-name="Unbenannter Verlauf 9" cx="8125.82" cy="-1407.4" fx="8125.82" fy="-1407.4" r="68.83" gradientTransform="translate(7806.9 16869.02) rotate(-105.23) scale(2.23 2.04) skewX(.89)" gradientUnits="userSpaceOnUse">
      <stop offset=".1" stop-color="#002a60"/>
      <stop offset=".32" stop-color="#042d65" stop-opacity=".76"/>
      <stop offset=".57" stop-color="#113672" stop-opacity=".48"/>
      <stop offset=".83" stop-color="#254589" stop-opacity=".19"/>
      <stop offset="1" stop-color="#37529c" stop-opacity="0"/>
    </radialGradient>
    <linearGradient id="Unbenannter_Verlauf_10" data-name="Unbenannter Verlauf 10" x1="1758.49" y1="-1146.02" x2="1758.49" y2="-1298.97" gradientTransform="translate(-1774.79 1818.56) rotate(-9.17) scale(1.25 1)" gradientUnits="userSpaceOnUse">
      <stop offset="0" stop-color="#c2244e"/>
      <stop offset=".54" stop-color="#703f7c" stop-opacity=".61"/>
      <stop offset=".54" stop-color="#6e407d" stop-opacity=".6"/>
      <stop offset=".88" stop-color="#37529c" stop-opacity="0"/>
    </linearGradient>
    <linearGradient id="Unbenannter_Verlauf_11" data-name="Unbenannter Verlauf 11" x1="1222.03" y1="625.45" x2="1209.47" y2="766.58" gradientTransform="translate(-1207.98 -1297.15) rotate(4.97) scale(1.22 2.01)" gradientUnits="userSpaceOnUse">
      <stop offset=".05" stop-color="#25a1ff"/>
      <stop offset=".47" stop-color="#108fff" stop-opacity=".74"/>
      <stop offset="1" stop-color="#0037d3" stop-opacity="0"/>
    </linearGradient>
    <linearGradient id="Unbenannter_Verlauf_12" data-name="Unbenannter Verlauf 12" x1="165.01" y1="-226.33" x2="165.01" y2="-415.57" gradientTransform="translate(11.11 596.11)" gradientUnits="userSpaceOnUse">
      <stop offset=".15" stop-color="#c2244e"/>
      <stop offset=".54" stop-color="#703f7c" stop-opacity=".61"/>
      <stop offset=".54" stop-color="#6e407d" stop-opacity=".6"/>
      <stop offset=".88" stop-color="#37529c" stop-opacity="0"/>
    </linearGradient>
    <clipPath id="clippath-3">
      <polygon points="232.13 61.8 216.78 77.15 341.13 201.49 216.96 325.96 232.13 341.13 371.79 201.47 232.13 61.8" style="fill: none;"/>
    </clipPath>
    <linearGradient id="Unbenannter_Verlauf_13-2" data-name="Unbenannter Verlauf 13" x1="221.52" x2="221.52" xlink:href="#Unbenannter_Verlauf_13"/>
    <radialGradient id="Unbenannter_Verlauf_14" data-name="Unbenannter Verlauf 14" cx="3511.33" cy="896.76" fx="3511.33" fy="896.76" r="182.49" gradientTransform="translate(-7167.51 -1310.85) scale(2.11 1.56)" gradientUnits="userSpaceOnUse">
      <stop offset="0" stop-color="#002a60" stop-opacity="0"/>
      <stop offset=".28" stop-color="#32285b" stop-opacity=".28"/>
      <stop offset=".9" stop-color="#ae2550" stop-opacity=".9"/>
      <stop offset="1" stop-color="#c2244e"/>
    </radialGradient>
    <linearGradient id="Unbenannter_Verlauf_15" data-name="Unbenannter Verlauf 15" x1="2228.14" y1="8104.22" x2="2441.33" y2="7887.59" gradientTransform="translate(7757.5 -3475.78) rotate(80.2)" gradientUnits="userSpaceOnUse">
      <stop offset="0" stop-color="#38285b" stop-opacity=".27"/>
      <stop offset="1" stop-color="#952b67" stop-opacity=".3"/>
    </linearGradient>
    <linearGradient id="Unbenannter_Verlauf_16" data-name="Unbenannter Verlauf 16" x1="1307.15" y1="580.68" x2="1283.71" y2="671.62" gradientTransform="translate(-1207.98 -1297.15) rotate(4.97) scale(1.22 2.01)" gradientUnits="userSpaceOnUse">
      <stop offset=".42" stop-color="#3aa0ff" stop-opacity=".74"/>
      <stop offset="1" stop-color="#37529c" stop-opacity="0"/>
    </linearGradient>
  </defs>
  <g style="opacity: .78;">
    <polygon points="232.13 61.8 216.78 77.15 341.13 201.49 216.96 325.96 232.13 341.13 371.79 201.47 232.13 61.8"/>
    <g style="clip-path: url(#clippath);">
      <rect id="rect35978-8-1-3-0" x="92.82" y="16.41" width="279.62" height="355.67"/>
      <rect id="rect35999-7-1-7-4" x="92.82" y="39.64" width="279.62" height="332.44"/>
      <rect id="rect36001-3-8-9-0" x="6.63" y="16.65" width="365.52" height="365.52"/>
      <path id="path36012-4-5-3-8" d="M623.64,445.3H-159.09V-260.68H623.64V445.3h0Z"/>
      <polygon id="polygon36023-0-0-8-57" points="403.33 -35.65 463.52 312.89 102.13 375.32 41.94 26.73 403.33 -35.65" style="isolation: isolate; opacity: .3;"/>
      <polygon id="polygon36032-2-7-5-98" points="95 -4.22 435.81 25.43 417.3 237.72 76.49 208.07 95 -4.22"/>
    </g>
  </g>
  <g style="opacity: .23;">
    <polygon points="170.81 61.8 31.15 201.47 170.81 341.13 186.13 325.82 61.81 201.49 186.15 77.14 170.81 61.8"/>
    <g style="clip-path: url(#clippath-1);">
      <rect id="rect35896-3-4-6-6" x="31.5" y="16.41" width="279.62" height="355.67"/>
      <rect id="rect35917-90-7-5-4" x="31.5" y="39.64" width="279.62" height="332.44"/>
      <rect id="rect35924-9-9-9-42" x="-108.39" y="62.1" width="279.62" height="279.62"/>
      <polygon id="polygon35937-3-9-0-7" points="199.88 410.28 120.05 111.39 397.55 37.22 477.44 336.06 199.88 410.28"/>
      <polygon id="polygon35948-65-4-8-5" points="11.99 214.44 356.4 158.84 380.81 309.83 36.4 365.42 11.99 214.44"/>
      <polygon id="polygon35957-1-3-2-4" points="-.92 12.4 339.89 51.29 321.44 329.75 -19.37 290.78 -.92 12.4"/>
      <rect id="rect35968-1-9-3-10" x="-7.52" y="180.54" width="367.29" height="189.24"/>
    </g>
  </g>
  <g style="opacity: .23;">
    <g style="clip-path: url(#clippath-2);">
      <rect id="rect35896-3-4-6-6-2" data-name="rect35896-3-4-6-6" x="31.5" y="16.41" width="279.62" height="355.67" style="fill: #002a60;"/>
      <rect id="rect35917-90-7-5-4-2" data-name="rect35917-90-7-5-4" x="31.5" y="39.64" width="279.62" height="332.44" style="fill: url(#Unbenannter_Verlauf_13);"/>
      <rect id="rect35924-9-9-9-42-2" data-name="rect35924-9-9-9-42" x="-108.39" y="62.1" width="279.62" height="279.62" style="fill: url(#Unbenannter_Verlauf_8);"/>
      <polygon id="polygon35937-3-9-0-7-2" data-name="polygon35937-3-9-0-7" points="199.88 410.28 120.05 111.39 397.55 37.22 477.44 336.06 199.88 410.28" style="fill: url(#Unbenannter_Verlauf_9);"/>
      <polygon id="polygon35948-65-4-8-5-2" data-name="polygon35948-65-4-8-5" points="11.99 214.44 356.4 158.84 380.81 309.83 36.4 365.42 11.99 214.44" style="fill: url(#Unbenannter_Verlauf_10);"/>
      <polygon id="polygon35957-1-3-2-4-2" data-name="polygon35957-1-3-2-4" points="-.92 12.4 339.89 51.29 321.44 329.75 -19.37 290.78 -.92 12.4" style="fill: url(#Unbenannter_Verlauf_11);"/>
      <rect id="rect35968-1-9-3-10-2" data-name="rect35968-1-9-3-10" x="-7.52" y="180.54" width="367.29" height="189.24" style="fill: url(#Unbenannter_Verlauf_12);"/>
    </g>
  </g>
  <g style="opacity: .78;">
    <g style="clip-path: url(#clippath-3);">
      <rect id="rect35978-8-1-3-0-2" data-name="rect35978-8-1-3-0" x="92.82" y="16.41" width="279.62" height="355.67" style="fill: #002a60;"/>
      <rect id="rect35999-7-1-7-4-2" data-name="rect35999-7-1-7-4" x="92.82" y="39.64" width="279.62" height="332.44" style="fill: url(#Unbenannter_Verlauf_13-2);"/>
      <rect id="rect36001-3-8-9-0-2" data-name="rect36001-3-8-9-0" x="6.63" y="16.65" width="365.52" height="365.52" style="fill: #0051aa;"/>
      <path id="path36012-4-5-3-8-2" data-name="path36012-4-5-3-8" d="M623.64,445.3H-159.09V-260.68H623.64V445.3h0Z" style="fill: url(#Unbenannter_Verlauf_14);"/>
      <polygon id="polygon36023-0-0-8-57-2" data-name="polygon36023-0-0-8-57" points="403.33 -35.65 463.52 312.89 102.13 375.32 41.94 26.73 403.33 -35.65" style="fill: url(#Unbenannter_Verlauf_15); isolation: isolate; opacity: .3;"/>
      <polygon id="polygon36032-2-7-5-98-2" data-name="polygon36032-2-7-5-98" points="95 -4.22 435.81 25.43 417.3 237.72 76.49 208.07 95 -4.22" style="fill: url(#Unbenannter_Verlauf_16);"/>
    </g>
  </g>
</svg>