<?xml version="1.0" encoding="UTF-8"?>
<svg id="Ebene_1" data-name="Ebene 1" xmlns="http://www.w3.org/2000/svg" xmlns:xlink="http://www.w3.org/1999/xlink" viewBox="0 0 1584.4 705.97">
  <defs>
    <style>
      .cls-1, .cls-2, .cls-3 {
        fill: none;
      }

      .cls-4 {
        clip-path: url(#clippath);
      }

      .cls-5 {
        fill: url(#Unbenannter_Verlauf_24-2);
      }

      .cls-6 {
        fill: #002a60;
      }

      .cls-7 {
        fill: #fff;
      }

      .cls-8 {
        fill: #9e1e4d;
      }

      .cls-9 {
        fill: #222120;
      }

      .cls-10 {
        clip-path: url(#clippath-1);
      }

      .cls-11 {
        clip-path: url(#clippath-2);
      }

      .cls-2 {
        stroke-linecap: round;
      }

      .cls-2, .cls-3 {
        stroke: #9e1e4d;
        stroke-miterlimit: 10;
        stroke-width: 2px;
      }

      .cls-12 {
        opacity: .23;
      }

      .cls-13 {
        opacity: .43;
      }

      .cls-14 {
        fill: url(#Unbenannter_Verlauf_25);
      }

      .cls-15 {
        fill: url(#Unbenannter_Verlauf_23);
      }

      .cls-16 {
        fill: url(#Unbenannter_Verlauf_24);
      }

      .cls-17 {
        fill: url(#Unbenannter_Verlauf_26);
      }

      .cls-18 {
        fill: url(#Unbenannter_Verlauf_29);
      }

      .cls-19 {
        fill: url(#Unbenannter_Verlauf_27);
      }

      .cls-20 {
        fill: url(#Unbenannter_Verlauf_28);
      }

      .cls-21 {
        fill: url(#Unbenannter_Verlauf_22);
      }

      .cls-22 {
        fill: url(#Unbenannter_Verlauf_20);
      }

      .cls-23 {
        fill: url(#Unbenannter_Verlauf_7);
      }

      .cls-24 {
        fill: url(#Unbenannter_Verlauf_21);
        opacity: .29;
      }

      .cls-24, .cls-25, .cls-26, .cls-27 {
        isolation: isolate;
      }

      .cls-25 {
        fill: url(#Unbenannter_Verlauf_18);
        opacity: .9;
      }

      .cls-26 {
        fill: url(#Unbenannter_Verlauf_17);
        opacity: .5;
      }

      .cls-27 {
        fill: url(#Unbenannter_Verlauf_19);
        opacity: .61;
      }
    </style>
    <clipPath id="clippath">
      <rect class="cls-1" x="261.65" y="363.4" width="197.49" height="197.49" transform="translate(-221.23 390.2) rotate(-45)"/>
    </clipPath>
    <linearGradient id="Unbenannter_Verlauf_24" data-name="Unbenannter Verlauf 24" x1="303.58" y1="-533.88" x2="303.58" y2="-866.29" gradientTransform="translate(57.31 1166.62)" gradientUnits="userSpaceOnUse">
      <stop offset="0" stop-color="#c2244e"/>
      <stop offset=".03" stop-color="#b42855"/>
      <stop offset=".15" stop-color="#8a346a"/>
      <stop offset=".25" stop-color="#693d7a"/>
      <stop offset=".36" stop-color="#524486"/>
      <stop offset=".45" stop-color="#44488d"/>
      <stop offset=".54" stop-color="#3f498f"/>
      <stop offset=".88" stop-color="#2c8ae1"/>
      <stop offset="1" stop-color="#25a1ff"/>
    </linearGradient>
    <linearGradient id="Unbenannter_Verlauf_29" data-name="Unbenannter Verlauf 29" x1="23.91" y1="-704.04" x2="303.5" y2="-704.04" gradientTransform="translate(57.31 1166.62)" gradientUnits="userSpaceOnUse">
      <stop offset=".22" stop-color="#0051b4"/>
      <stop offset="1" stop-color="#37529c" stop-opacity="0"/>
    </linearGradient>
    <radialGradient id="Unbenannter_Verlauf_28" data-name="Unbenannter Verlauf 28" cx="8759.84" cy="-726.99" fx="8759.84" fy="-726.99" r="68.82" gradientTransform="translate(7034.12 18883.51) rotate(-105.23) scale(2.23 2.04) skewX(.89)" gradientUnits="userSpaceOnUse">
      <stop offset=".1" stop-color="#002a60"/>
      <stop offset=".32" stop-color="#042d65" stop-opacity=".76"/>
      <stop offset=".57" stop-color="#113672" stop-opacity=".48"/>
      <stop offset=".83" stop-color="#254589" stop-opacity=".19"/>
      <stop offset="1" stop-color="#37529c" stop-opacity="0"/>
    </radialGradient>
    <linearGradient id="Unbenannter_Verlauf_27" data-name="Unbenannter Verlauf 27" x1="2034.43" y1="-1457.83" x2="2034.43" y2="-1610.77" gradientTransform="translate(-1880.05 2442.77) rotate(-9.17) scale(1.25 1)" gradientUnits="userSpaceOnUse">
      <stop offset="0" stop-color="#c2244e"/>
      <stop offset=".54" stop-color="#703f7c" stop-opacity=".61"/>
      <stop offset=".54" stop-color="#6e407d" stop-opacity=".6"/>
      <stop offset=".88" stop-color="#37529c" stop-opacity="0"/>
    </linearGradient>
    <linearGradient id="Unbenannter_Verlauf_26" data-name="Unbenannter Verlauf 26" x1="1317.41" y1="779.92" x2="1304.85" y2="921.04" gradientTransform="translate(-1103.47 -1354.49) rotate(4.97) scale(1.22 2.01)" gradientUnits="userSpaceOnUse">
      <stop offset=".05" stop-color="#25a1ff"/>
      <stop offset=".47" stop-color="#108fff" stop-opacity=".74"/>
      <stop offset="1" stop-color="#0037d3" stop-opacity="0"/>
    </linearGradient>
    <linearGradient id="Unbenannter_Verlauf_25" data-name="Unbenannter Verlauf 25" x1="308.4" y1="-536.18" x2="308.4" y2="-725.4" gradientTransform="translate(57.31 1166.62)" gradientUnits="userSpaceOnUse">
      <stop offset=".15" stop-color="#c2244e"/>
      <stop offset=".61" stop-color="#703f7c" stop-opacity=".61"/>
      <stop offset=".88" stop-color="#37529c" stop-opacity="0"/>
    </linearGradient>
    <clipPath id="clippath-1">
      <rect class="cls-1" x="292.46" y="363.39" width="197.51" height="197.51" transform="translate(-212.2 411.99) rotate(-45)"/>
    </clipPath>
    <linearGradient id="Unbenannter_Verlauf_24-2" data-name="Unbenannter Verlauf 24" x1="334.41" y1="661.88" x2="334.41" y2="994.32" gradientTransform="translate(57.31 1294.63) scale(1 -1)" xlink:href="#Unbenannter_Verlauf_24"/>
    <linearGradient id="Unbenannter_Verlauf_23" data-name="Unbenannter Verlauf 23" x1="407.27" y1="952.57" x2="327.7" y2="757.01" gradientTransform="translate(57.31 1294.63) scale(1 -1)" gradientUnits="userSpaceOnUse">
      <stop offset=".08" stop-color="#25a1ff"/>
      <stop offset=".23" stop-color="#1b81d5"/>
      <stop offset=".4" stop-color="#1162ab"/>
      <stop offset=".57" stop-color="#0a4a8a"/>
      <stop offset=".72" stop-color="#043873"/>
      <stop offset=".87" stop-color="#012e65"/>
      <stop offset="1" stop-color="#002a60"/>
    </linearGradient>
    <radialGradient id="Unbenannter_Verlauf_22" data-name="Unbenannter Verlauf 22" cx="4370.36" cy="-681.98" fx="4370.36" fy="-681.98" r="182.49" gradientTransform="translate(-8823.63 -715.46) scale(2.11 -1.56)" gradientUnits="userSpaceOnUse">
      <stop offset="0" stop-color="#002a60" stop-opacity="0"/>
      <stop offset=".1" stop-color="#082a5f" stop-opacity=".1"/>
      <stop offset=".27" stop-color="#1e295d" stop-opacity=".27"/>
      <stop offset=".47" stop-color="#43285a" stop-opacity=".47"/>
      <stop offset=".7" stop-color="#752655" stop-opacity=".7"/>
      <stop offset=".95" stop-color="#b5244f" stop-opacity=".95"/>
      <stop offset="1" stop-color="#c2244e"/>
    </radialGradient>
    <linearGradient id="Unbenannter_Verlauf_21" data-name="Unbenannter Verlauf 21" x1="2816.13" y1="-9489.29" x2="3169.89" y2="-9489.29" gradientTransform="translate(9250.84 -4145.22) rotate(80.2) scale(1 -1)" gradientUnits="userSpaceOnUse">
      <stop offset="0" stop-color="#002a60" stop-opacity="0"/>
      <stop offset=".1" stop-color="#082a5f" stop-opacity=".1"/>
      <stop offset=".27" stop-color="#1e295d" stop-opacity=".27"/>
      <stop offset=".47" stop-color="#43285a" stop-opacity=".47"/>
      <stop offset=".7" stop-color="#752655" stop-opacity=".7"/>
      <stop offset=".89" stop-color="#b5244f" stop-opacity=".95"/>
      <stop offset="1" stop-color="#c2244e"/>
    </linearGradient>
    <linearGradient id="Unbenannter_Verlauf_20" data-name="Unbenannter Verlauf 20" x1="1632.22" y1="-535.04" x2="1619.91" y2="-632.93" gradientTransform="translate(-1465.34 -935.73) rotate(4.97) scale(1.22 -2.01)" gradientUnits="userSpaceOnUse">
      <stop offset=".18" stop-color="#25a1ff"/>
      <stop offset=".46" stop-color="#1a7cd5" stop-opacity=".74"/>
      <stop offset="1" stop-color="#37529c" stop-opacity="0"/>
    </linearGradient>
    <linearGradient id="Unbenannter_Verlauf_19" data-name="Unbenannter Verlauf 19" x1="3809.98" y1="923.58" x2="3818.92" y2="836.9" gradientTransform="translate(951.68 5366.7) rotate(-76.71) scale(1.22 -2.01)" gradientUnits="userSpaceOnUse">
      <stop offset=".05" stop-color="#25a1ff"/>
      <stop offset=".28" stop-color="#1a7cd5" stop-opacity=".74"/>
      <stop offset="1" stop-color="#37529c" stop-opacity="0"/>
    </linearGradient>
    <clipPath id="clippath-2">
      <rect id="rect62862-7" class="cls-1" x="323.3" y="363.4" width="197.49" height="197.49" transform="translate(-203.17 433.79) rotate(-45)"/>
    </clipPath>
    <linearGradient id="Unbenannter_Verlauf_18" data-name="Unbenannter Verlauf 18" x1="-1538.16" y1="-261.83" x2="-1340.67" y2="-261.83" gradientTransform="translate(1861.46 200.31) scale(1 -1)" gradientUnits="userSpaceOnUse">
      <stop offset="0" stop-color="#073d84"/>
      <stop offset=".84" stop-color="#003c8b" stop-opacity=".64"/>
      <stop offset="1" stop-color="#004eb5" stop-opacity=".6"/>
    </linearGradient>
    <radialGradient id="Unbenannter_Verlauf_17" data-name="Unbenannter Verlauf 17" cx="-72.59" cy="97.68" fx="-72.59" fy="97.68" r="98.74" gradientTransform="translate(602.76 807.37) rotate(-4.61) scale(.69 -4.38)" gradientUnits="userSpaceOnUse">
      <stop offset="0" stop-color="#2295ff" stop-opacity=".65"/>
      <stop offset="1" stop-color="#2295ff" stop-opacity="0"/>
    </radialGradient>
    <radialGradient id="Unbenannter_Verlauf_7" data-name="Unbenannter Verlauf 7" cx="639.82" cy="82.73" fx="639.82" fy="82.73" r="98.74" gradientTransform="translate(-5678.39 -918.94) rotate(16.19) scale(9.86 -6.01)" gradientUnits="userSpaceOnUse">
      <stop offset="0" stop-color="#b34d4d" stop-opacity="0"/>
      <stop offset="1" stop-color="red"/>
    </radialGradient>
  </defs>
  <g>
    <polygon id="background" class="cls-7" points="561.69 462.14 422.04 322.5 406.64 337.9 391.22 322.48 375.8 337.9 360.4 322.5 220.75 462.14 360.4 601.79 375.8 586.38 391.22 601.8 406.64 586.38 422.04 601.79 561.69 462.14"/>
    <g id="square_bottom" data-name="square bottom" class="cls-12">
      <g class="cls-4">
        <rect id="rect35896-3-4-6-6-2" class="cls-6" x="221.1" y="277.11" width="279.59" height="355.63"/>
        <rect id="rect35917-90-7-5-4-2" class="cls-16" x="221.1" y="300.34" width="279.59" height="332.41"/>
        <rect id="rect35924-9-9-9-42-2" class="cls-18" x="81.22" y="322.79" width="279.59" height="279.59"/>
        <polygon id="polygon35937-3-9-0-7-2" class="cls-20" points="389.46 670.94 309.63 372.08 587.11 297.92 666.99 596.73 389.46 670.94"/>
        <polygon id="polygon35948-65-4-8-5-2" class="cls-19" points="201.59 475.12 545.96 419.52 570.37 570.5 226 626.08 201.59 475.12"/>
        <polygon id="polygon35957-1-3-2-4-2" class="cls-17" points="188.68 273.1 529.46 311.98 511 590.42 170.23 551.45 188.68 273.1"/>
        <rect id="rect35968-1-9-3-10-2" class="cls-14" x="182.08" y="441.22" width="367.25" height="189.22"/>
      </g>
    </g>
    <g id="square_middle" data-name="square middle" class="cls-13">
      <g class="cls-10">
        <rect id="rect35803-7-5-9-32-2" class="cls-6" x="251.91" y="277.08" width="279.62" height="355.67"/>
        <rect id="rect35824-0-2-8-75-2" class="cls-5" x="251.91" y="300.31" width="279.62" height="332.44"/>
        <rect id="rect35826-6-7-8-5-2" class="cls-6" x="165.72" y="277.32" width="365.51" height="365.51"/>
        <rect id="rect35843-7-8-8-7-2" class="cls-15" x="198.73" y="250.2" width="460.61" height="358.44"/>
        <path id="path35860-8-7-6-4-2" class="cls-21" d="M782.73,705.97H0V0H782.73V705.97Z"/>
        <polygon id="polygon35877-4-4-8-9-2" class="cls-24" points="560.06 213.83 620.25 562.36 258.87 624.79 198.67 276.2 560.06 213.83"/>
        <polygon id="polygon35886-19-00-4-03-3" class="cls-22" points="246.78 265.12 587.59 294.77 561.54 608.64 222.43 506.89 246.78 265.12"/>
        <polygon id="polygon35886-19-00-4-03-4" class="cls-27" points="145.91 541.55 209.46 272.48 423.02 315.28 359.41 584.29 145.91 541.55"/>
      </g>
    </g>
    <g id="square_top" data-name="square top">
      <g class="cls-11">
        <rect id="rect62862-8" class="cls-25" x="323.3" y="363.4" width="197.49" height="197.49" transform="translate(-203.17 433.79) rotate(-45)"/>
        <rect id="rect62862" class="cls-26" x="323.3" y="363.4" width="197.49" height="197.49" transform="translate(-203.17 433.79) rotate(-45)"/>
        <rect id="rect62862-7-2" data-name="rect62862-7" class="cls-23" x="323.3" y="363.4" width="197.49" height="197.49" transform="translate(-203.17 433.79) rotate(-45)"/>
      </g>
    </g>
  </g>
  <g id="Ebene_1-2" data-name="Ebene 1">
    <g>
      <path class="cls-9" d="M653.4,406.54v39.1h-6.3v-3.6c-1.1,1.3-2.4,2.3-4,3s-3.4,1-5.3,1c-2.7,0-5.1-.6-7.3-1.8-2.2-1.2-3.9-2.9-5.1-5.1s-1.8-4.7-1.8-7.6,.6-5.4,1.8-7.5,2.9-3.9,5.1-5.1,4.6-1.8,7.3-1.8c1.9,0,3.6,.3,5.1,.9s2.9,1.6,4,2.8v-14.4l6.5,.1h0Zm-10.6,32.8c1.3-.7,2.3-1.8,3-3.1s1.1-2.9,1.1-4.6-.4-3.3-1.1-4.6-1.7-2.4-3-3.1c-1.3-.7-2.7-1.1-4.3-1.1s-3,.4-4.3,1.1-2.3,1.8-3,3.1-1.1,2.9-1.1,4.6,.4,3.3,1.1,4.6,1.7,2.4,3,3.1c1.3,.7,2.7,1.1,4.3,1.1s3-.4,4.3-1.1Z"/>
      <path class="cls-9" d="M671.3,411.74c-.8-.8-1.2-1.7-1.2-2.8s.4-2.1,1.2-2.8c.8-.8,1.8-1.1,3-1.1s2.2,.4,3,1.1,1.2,1.6,1.2,2.7c0,1.2-.4,2.1-1.2,2.9s-1.8,1.2-3,1.2-2.2-.4-3-1.2h0Zm-.3,5.7h6.6v28.2h-6.6v-28.2Z"/>
      <path class="cls-9" d="M723.1,417.44v23.9c0,9.9-5.1,14.9-15.2,14.9-2.7,0-5.3-.3-7.7-1-2.4-.7-4.4-1.7-6-3l3-5c1.2,1,2.8,1.8,4.7,2.4,1.9,.6,3.8,.9,5.7,.9,3.1,0,5.4-.7,6.8-2.1s2.2-3.6,2.2-6.4v-1.4c-1.1,1.2-2.5,2.2-4.1,2.8s-3.4,.9-5.3,.9c-2.7,0-5.1-.6-7.2-1.7-2.2-1.1-3.9-2.8-5.1-4.8-1.2-2.1-1.9-4.4-1.9-7.1s.6-5,1.9-7.1c1.2-2.1,3-3.6,5.1-4.8,2.1-1.2,4.6-1.7,7.2-1.7,2,0,3.9,.3,5.6,1s3.1,1.7,4.2,3.1v-3.7l6.1-.1h0Zm-8.9,19.1c1.6-1.5,2.4-3.4,2.4-5.8s-.8-4.3-2.4-5.8c-1.6-1.5-3.7-2.2-6.1-2.2s-4.6,.7-6.2,2.2c-1.6,1.5-2.4,3.4-2.4,5.8s.8,4.3,2.4,5.8c1.6,1.5,3.7,2.2,6.2,2.2s4.5-.7,6.1-2.2Z"/>
      <path class="cls-9" d="M741.1,411.74c-.8-.8-1.2-1.7-1.2-2.8s.4-2.1,1.2-2.8c.8-.8,1.8-1.1,3-1.1s2.2,.4,3,1.1,1.2,1.6,1.2,2.7c0,1.2-.4,2.1-1.2,2.9s-1.8,1.2-3,1.2-2.3-.4-3-1.2h0Zm-.4,5.7h6.6v28.2h-6.6v-28.2Z"/>
      <path class="cls-9" d="M781.9,444.14c-.8,.6-1.7,1.1-2.8,1.4s-2.3,.5-3.5,.5c-3.1,0-5.5-.8-7.2-2.4s-2.5-4-2.5-7.1v-13.6h-4.6v-5.3h4.6v-6.4h6.6v6.4h7.5v5.3h-7.5v13.4c0,1.4,.3,2.4,1,3.1s1.6,1.1,2.9,1.1c1.5,0,2.7-.4,3.7-1.2l1.8,4.8h0Z"/>
      <path class="cls-9" d="M816.5,420.14c2.2,2,3.3,5,3.3,9v16.5h-6.2v-3.4c-.8,1.2-2,2.2-3.5,2.8s-3.3,1-5.4,1-4-.4-5.5-1.1c-1.6-.7-2.8-1.7-3.7-3s-1.3-2.7-1.3-4.4c0-2.5,.9-4.6,2.8-6.1s4.8-2.3,8.9-2.3h7.3v-.4c0-2-.6-3.5-1.8-4.5-1.2-1.1-2.9-1.6-5.2-1.6-1.6,0-3.1,.2-4.7,.7-1.5,.5-2.8,1.2-3.9,2.1l-2.6-4.8c1.5-1.1,3.2-2,5.3-2.6s4.3-.9,6.6-.9c4.3,.1,7.4,1,9.6,3h0Zm-6,20c1.3-.8,2.2-1.8,2.7-3.2v-3.3h-6.8c-3.8,0-5.7,1.2-5.7,3.7,0,1.2,.5,2.1,1.4,2.9s2.3,1.1,4,1.1,3.1-.5,4.4-1.2h0Z"/>
      <path class="cls-9" d="M837.2,406.54h6.6v39.1h-6.6v-39.1Z"/>
      <path class="cls-9" d="M907.9,418.94c2.2,1.2,3.9,2.9,5.1,5.1s1.8,4.7,1.8,7.5-.6,5.4-1.8,7.6c-1.2,2.2-2.9,3.9-5.1,5.1-2.2,1.2-4.6,1.8-7.3,1.8-1.9,0-3.7-.3-5.3-1s-2.9-1.7-4-3v3.6h-6.3v-39.1h6.6v14.4c1.1-1.2,2.5-2.2,4-2.8,1.5-.6,3.2-.9,5-.9,2.7-.1,5.1,.5,7.3,1.7h0Zm-2.1,19c1.6-1.6,2.3-3.7,2.3-6.4s-.8-4.8-2.3-6.4c-1.6-1.6-3.6-2.4-6-2.4-1.6,0-3,.4-4.3,1.1s-2.3,1.8-3,3.1-1.1,2.9-1.1,4.6,.4,3.3,1.1,4.6,1.7,2.4,3,3.1c1.3,.7,2.7,1.1,4.3,1.1,2.4,0,4.4-.8,6-2.4h0Z"/>
      <path class="cls-9" d="M930.1,406.54h6.6v39.1h-6.6v-39.1Z"/>
      <path class="cls-9" d="M981.5,417.44v28.2h-6.3v-3.6c-1,1.3-2.4,2.2-4,2.9s-3.3,1-5.1,1c-3.8,0-6.7-1.1-8.9-3.1-2.2-2.1-3.2-5.2-3.2-9.3v-16.1h6.6v15.2c0,2.5,.6,4.4,1.7,5.7s2.8,1.9,4.9,1.9c2.3,0,4.2-.7,5.6-2.2s2.1-3.6,2.1-6.3v-14.2l6.6-.1h0Z"/>
      <path class="cls-9" d="M1025.5,433.64h-22.1c.4,2.1,1.4,3.7,3,4.9s3.7,1.8,6.1,1.8c3.1,0,5.6-1,7.7-3.1l3.5,4.1c-1.3,1.5-2.9,2.6-4.8,3.4-1.9,.8-4.1,1.2-6.5,1.2-3.1,0-5.8-.6-8.2-1.9-2.3-1.2-4.2-2.9-5.5-5.1-1.3-2.2-1.9-4.7-1.9-7.5s.6-5.2,1.9-7.4,3-3.9,5.2-5.1c2.2-1.2,4.7-1.8,7.5-1.8s5.2,.6,7.4,1.8,3.8,2.9,5.1,5.1,1.8,4.7,1.8,7.6c-.1,.6-.1,1.2-.2,2h0Zm-19.5-9.3c-1.5,1.2-2.3,2.9-2.7,5h16c-.3-2-1.1-3.7-2.6-5-1.4-1.3-3.2-1.9-5.4-1.9s-3.8,.6-5.3,1.9h0Z"/>
      <path class="cls-9" d="M1063.9,418.94c2.2,1.2,3.9,2.9,5.1,5.1s1.8,4.7,1.8,7.5-.6,5.4-1.8,7.6c-1.2,2.2-2.9,3.9-5.1,5.1-2.2,1.2-4.6,1.8-7.3,1.8-3.8,0-6.8-1.3-9-3.8v13.7h-6.6v-38.4h6.3v3.7c1.1-1.3,2.4-2.3,4-3s3.4-1,5.3-1c2.6-.1,5.1,.5,7.3,1.7h0Zm-2.1,19c1.6-1.6,2.3-3.7,2.3-6.4s-.8-4.8-2.3-6.4c-1.6-1.6-3.6-2.4-6-2.4-1.6,0-3,.4-4.3,1.1s-2.3,1.8-3,3.1-1.1,2.9-1.1,4.6,.4,3.3,1.1,4.6,1.7,2.4,3,3.1c1.3,.7,2.7,1.1,4.3,1.1,2.4,0,4.4-.8,6-2.4h0Z"/>
      <path class="cls-9" d="M1102.3,417.14v6.3c-.6-.1-1.1-.2-1.5-.2-2.6,0-4.6,.8-6,2.2-1.4,1.5-2.2,3.6-2.2,6.5v13.7h-6.6v-28.2h6.3v4.1c1.9-2.9,5.2-4.4,10-4.4h0Z"/>
      <path class="cls-9" d="M1117.2,411.74c-.8-.8-1.2-1.7-1.2-2.8s.4-2.1,1.2-2.8c.8-.8,1.8-1.1,3-1.1s2.2,.4,3,1.1,1.2,1.6,1.2,2.7c0,1.2-.4,2.1-1.2,2.9s-1.8,1.2-3,1.2-2.2-.4-3-1.2h0Zm-.3,5.7h6.6v28.2h-6.6v-28.2Z"/>
      <path class="cls-9" d="M1165.6,420.24c2.1,2.1,3.2,5.1,3.2,9.2v16.2h-6.6v-15.3c0-2.5-.6-4.3-1.7-5.6s-2.8-1.9-5-1.9c-2.4,0-4.3,.7-5.8,2.2s-2.1,3.6-2.1,6.3v14.3h-6.6v-28.2h6.3v3.6c1.1-1.3,2.5-2.3,4.1-2.9,1.7-.7,3.5-1,5.6-1,3.6,.1,6.4,1.1,8.6,3.1h0Z"/>
      <path class="cls-9" d="M1203.1,444.14c-.8,.6-1.7,1.1-2.8,1.4s-2.3,.5-3.5,.5c-3.1,0-5.5-.8-7.2-2.4s-2.5-4-2.5-7.1v-13.6h-4.6v-5.3h4.6v-6.4h6.6v6.4h7.5v5.3h-7.5v13.4c0,1.4,.3,2.4,1,3.1s1.6,1.1,2.9,1.1c1.5,0,2.7-.4,3.7-1.2l1.8,4.8h0Z"/>
    </g>
    <g>
      <path class="cls-9" d="M799.7,472.74c-.4-.4-.6-.9-.6-1.4s.2-1.1,.6-1.4c.4-.4,.9-.6,1.5-.6s1,.2,1.5,.6c.4,.4,.6,.9,.6,1.4s-.2,1.1-.6,1.4c-.4,.4-.9,.6-1.5,.6s-1.1-.3-1.5-.6Zm.2,6.9h2.5v26.1h-2.5v-26.1Z"/>
      <path class="cls-9" d="M842,481.94c1.7,1.6,2.6,4.1,2.6,7.3v16.6h-2.4v-4.6c-.8,1.5-2,2.7-3.7,3.6-1.6,.9-3.5,1.3-5.8,1.3-2.9,0-5.2-.7-6.9-2.1s-2.5-3.2-2.5-5.4,.8-3.9,2.3-5.3c1.5-1.4,4-2,7.4-2h9v-2.1c0-2.4-.7-4.3-2-5.6s-3.2-1.9-5.8-1.9c-1.7,0-3.4,.3-5,.9-1.6,.6-2.9,1.4-4,2.4l-1.2-1.8c1.3-1.2,2.9-2.1,4.7-2.7s3.8-1,5.8-1c3.3-.1,5.8,.7,7.5,2.4h0Zm-3.3,20.4c1.5-1,2.7-2.4,3.4-4.4v-4.9h-8.9c-2.6,0-4.4,.5-5.6,1.4-1.2,.9-1.7,2.2-1.7,3.9s.6,3,1.9,4c1.3,1,3,1.5,5.3,1.5s4-.5,5.6-1.5h0Z"/>
      <path class="cls-9" d="M895,482.24c1.8,1.9,2.8,4.6,2.8,8.2v15.2h-2.5v-15c0-2.9-.7-5.2-2.2-6.7-1.4-1.5-3.4-2.3-6-2.3-2.9,0-5.3,.9-7,2.8s-2.6,4.3-2.6,7.4v13.9h-2.5v-15.1c0-2.9-.7-5.2-2.2-6.7-1.4-1.5-3.4-2.3-6-2.3-2.9,0-5.3,.9-7,2.8-1.7,1.8-2.6,4.3-2.6,7.4v13.9h-2.5v-26.1h2.4v5.6c.9-1.8,2.2-3.3,3.9-4.3s3.8-1.5,6.1-1.5,4.4,.5,6,1.6c1.7,1.1,2.8,2.6,3.5,4.7,.9-1.9,2.2-3.5,4.1-4.6,1.8-1.1,4-1.7,6.5-1.7,3.4,0,6,.9,7.8,2.8h0Z"/>
      <path class="cls-9" d="M937.2,481.94c1.7,1.6,2.6,4.1,2.6,7.3v16.6h-2.4v-4.6c-.8,1.5-2,2.7-3.7,3.6-1.6,.9-3.5,1.3-5.8,1.3-2.9,0-5.2-.7-6.9-2.1s-2.5-3.2-2.5-5.4,.8-3.9,2.3-5.3c1.5-1.4,4-2,7.4-2h9v-2.1c0-2.4-.7-4.3-2-5.6s-3.2-1.9-5.8-1.9c-1.7,0-3.4,.3-5,.9-1.6,.6-2.9,1.4-4,2.4l-1.2-1.8c1.3-1.2,2.9-2.1,4.7-2.7s3.8-1,5.8-1c3.3-.1,5.8,.7,7.5,2.4h0Zm-3.3,20.4c1.5-1,2.7-2.4,3.4-4.4v-4.9h-8.9c-2.6,0-4.4,.5-5.6,1.4-1.2,.9-1.7,2.2-1.7,3.9s.6,3,1.9,4c1.3,1,3,1.5,5.3,1.5s4-.5,5.6-1.5h0Z"/>
      <path class="cls-9" d="M1003.1,482.24c1.8,1.9,2.8,4.6,2.8,8.2v15.2h-2.5v-15c0-2.9-.7-5.2-2.2-6.7-1.4-1.5-3.4-2.3-6-2.3-2.9,0-5.3,.9-7,2.8s-2.6,4.3-2.6,7.4v13.9h-2.5v-15.1c0-2.9-.7-5.2-2.2-6.7-1.4-1.5-3.4-2.3-6-2.3-2.9,0-5.3,.9-7,2.8-1.7,1.8-2.6,4.3-2.6,7.4v13.9h-2.5v-26.1h2.4v5.6c.9-1.8,2.2-3.3,3.9-4.3s3.8-1.5,6.1-1.5,4.4,.5,6,1.6c1.7,1.1,2.8,2.6,3.5,4.7,.9-1.9,2.2-3.5,4.1-4.6,1.8-1.1,4-1.7,6.5-1.7,3.4,0,5.9,.9,7.8,2.8h0Z"/>
      <path class="cls-9" d="M1032.4,481.94c1.7,1.6,2.6,4.1,2.6,7.3v16.6h-2.4v-4.6c-.8,1.5-2,2.7-3.7,3.6-1.6,.9-3.5,1.3-5.8,1.3-2.9,0-5.2-.7-6.9-2.1s-2.5-3.2-2.5-5.4,.8-3.9,2.3-5.3c1.5-1.4,4-2,7.4-2h9v-2.1c0-2.4-.7-4.3-2-5.6s-3.2-1.9-5.8-1.9c-1.7,0-3.4,.3-5,.9-1.6,.6-2.9,1.4-4,2.4l-1.2-1.8c1.3-1.2,2.9-2.1,4.7-2.7s3.8-1,5.8-1c3.3-.1,5.8,.7,7.5,2.4h0Zm-3.3,20.4c1.5-1,2.7-2.4,3.4-4.4v-4.9h-8.9c-2.6,0-4.4,.5-5.6,1.4-1.2,.9-1.7,2.2-1.7,3.9s.6,3,1.9,4c1.3,1,3,1.5,5.3,1.5s4-.5,5.6-1.5h0Z"/>
      <path class="cls-9" d="M1061.9,505.74l-9-11.6-9,11.6h-2.8l10.3-13.4-9.8-12.6h2.8l8.4,10.9,8.4-10.9h2.8l-9.8,12.6,10.5,13.4h-2.8Z"/>
      <path class="cls-9" d="M1084.7,504.94c-1.9-.6-3.4-1.4-4.5-2.4l1.2-2c1.1,.9,2.4,1.6,4.1,2.2s3.4,.9,5.3,.9c2.6,0,4.6-.4,5.8-1.3,1.2-.9,1.9-2.1,1.9-3.6,0-1.1-.3-2-1-2.6s-1.5-1.1-2.5-1.4c-1-.3-2.4-.6-4.2-.9-2.1-.4-3.7-.8-5-1.2s-2.3-1.1-3.2-2.1-1.3-2.3-1.3-4c0-2.1,.9-3.8,2.6-5.1,1.7-1.4,4.2-2,7.3-2,1.7,0,3.3,.2,5,.7s3,1.1,4,1.9l-1.2,2c-1.1-.8-2.3-1.4-3.7-1.8s-2.8-.6-4.2-.6c-2.4,0-4.3,.4-5.5,1.4-1.2,.9-1.8,2.1-1.8,3.6,0,1.2,.3,2.1,1,2.7s1.6,1.1,2.6,1.4c1,.3,2.4,.7,4.3,1,2,.4,3.7,.8,4.9,1.2s2.3,1.1,3.2,2,1.3,2.2,1.3,3.9c0,2.2-.9,3.9-2.7,5.2s-4.3,1.9-7.6,1.9c-2.2,0-4.2-.3-6.1-1h0Z"/>
      <path class="cls-9" d="M1107.8,472.74c-.4-.4-.6-.9-.6-1.4s.2-1.1,.6-1.4c.4-.4,.9-.6,1.5-.6s1,.2,1.5,.6c.4,.4,.6,.9,.6,1.4s-.2,1.1-.6,1.4c-.4,.4-.9,.6-1.5,.6s-1.1-.3-1.5-.6Zm.2,6.9h2.5v26.1h-2.5v-26.1Z"/>
      <path class="cls-9" d="M1138.7,503.54v2.1h-20.8v-1.7l17.2-22.2h-17v-2.1h20.2v1.7l-17.2,22.2h17.6Z"/>
      <path class="cls-9" d="M1167.8,493.24h-22.5c.1,2,.6,3.8,1.5,5.4s2.3,2.8,3.9,3.7c1.7,.9,3.5,1.3,5.6,1.3,1.7,0,3.3-.3,4.7-.9s2.7-1.5,3.6-2.7l1.5,1.6c-1.1,1.4-2.6,2.4-4.3,3.1-1.7,.7-3.6,1.1-5.6,1.1-2.6,0-4.9-.6-7-1.7-2-1.1-3.6-2.7-4.8-4.7s-1.7-4.3-1.7-6.9,.5-4.8,1.6-6.8,2.6-3.6,4.5-4.7c1.9-1.1,4-1.7,6.4-1.7s4.5,.6,6.4,1.7c1.9,1.1,3.4,2.7,4.5,4.7s1.6,4.3,1.6,6.8l.1,.7h0Zm-17.3-10.4c-1.5,.8-2.6,2-3.5,3.4s-1.4,3.2-1.5,5h20c-.1-1.9-.6-3.5-1.5-5s-2.1-2.6-3.5-3.4-3.1-1.2-5-1.2-3.6,.4-5,1.2h0Z"/>
      <path class="cls-9" d="M1189.1,504.94c-1.9-.6-3.4-1.4-4.5-2.4l1.2-2c1.1,.9,2.4,1.6,4.1,2.2s3.4,.9,5.3,.9c2.6,0,4.6-.4,5.8-1.3,1.2-.9,1.9-2.1,1.9-3.6,0-1.1-.3-2-1-2.6s-1.5-1.1-2.5-1.4c-1-.3-2.4-.6-4.2-.9-2.1-.4-3.7-.8-5-1.2s-2.3-1.1-3.2-2.1-1.3-2.3-1.3-4c0-2.1,.9-3.8,2.6-5.1,1.7-1.4,4.2-2,7.3-2,1.7,0,3.3,.2,5,.7s3,1.1,4,1.9l-1.2,2c-1.1-.8-2.3-1.4-3.7-1.8s-2.8-.6-4.2-.6c-2.4,0-4.3,.4-5.5,1.4-1.2,.9-1.8,2.1-1.8,3.6,0,1.2,.3,2.1,1,2.7s1.6,1.1,2.6,1.4c1,.3,2.4,.7,4.3,1,2,.4,3.7,.8,4.9,1.2s2.3,1.1,3.2,2,1.3,2.2,1.3,3.9c0,2.2-.9,3.9-2.7,5.2s-4.3,1.9-7.6,1.9c-2.3,0-4.3-.3-6.1-1h0Z"/>
      <path class="cls-9" d="M1235.2,479.64v26.1h-2.4v-5.6c-.9,1.8-2.2,3.3-3.8,4.3-1.7,1-3.7,1.5-6,1.5-3.4,0-6.1-.9-8-2.9-1.9-1.9-2.9-4.6-2.9-8.2v-15.2h2.5v15c0,2.9,.8,5.2,2.2,6.7s3.6,2.3,6.3,2.3c2.9,0,5.3-.9,7-2.8s2.6-4.3,2.6-7.4v-13.8h2.5Z"/>
      <path class="cls-9" d="M1265.5,481.14c2,1.1,3.5,2.7,4.6,4.7s1.7,4.3,1.7,6.9-.6,4.9-1.7,6.9-2.7,3.6-4.6,4.7c-2,1.1-4.2,1.7-6.6,1.7s-4.4-.6-6.3-1.7c-1.9-1.1-3.3-2.7-4.4-4.7v6.1h-2.4v-37.1h2.5v16.9c1-1.9,2.5-3.4,4.3-4.5s3.9-1.6,6.2-1.6c2.5,0,4.7,.6,6.7,1.7h0Zm-1.4,21.1c1.6-.9,2.9-2.2,3.8-3.9s1.4-3.6,1.4-5.7-.5-4-1.4-5.7-2.2-3-3.8-3.9c-1.6-.9-3.4-1.4-5.4-1.4s-3.8,.5-5.4,1.4-2.8,2.2-3.8,3.9-1.4,3.6-1.4,5.7,.5,4,1.4,5.7,2.2,3,3.8,3.9,3.4,1.4,5.4,1.4,3.8-.4,5.4-1.4Z"/>
      <path class="cls-9" d="M1300,482.24c1.9,1.9,2.8,4.6,2.8,8.2v15.2h-2.5v-15c0-2.9-.7-5.2-2.2-6.7s-3.6-2.3-6.2-2.3c-3.1,0-5.5,.9-7.2,2.8s-2.7,4.3-2.7,7.4v13.9h-2.5v-37.1h2.5v16.4c.9-1.8,2.2-3.2,4-4.2s3.8-1.5,6.2-1.5c3.4,.1,5.9,1,7.8,2.9h0Z"/>
      <path class="cls-9" d="M1335.3,493.24h-22.4c.1,2,.6,3.8,1.6,5.4,1,1.6,2.3,2.8,3.9,3.7s3.5,1.3,5.6,1.3c1.7,0,3.3-.3,4.7-.9s2.7-1.5,3.6-2.7l1.4,1.6c-1.1,1.4-2.6,2.4-4.3,3.1s-3.6,1.1-5.6,1.1c-2.6,0-4.9-.6-6.9-1.7-2-1.1-3.6-2.7-4.8-4.7-1.2-2-1.7-4.3-1.7-6.9s.5-4.8,1.6-6.8,2.6-3.6,4.5-4.7c1.9-1.1,4-1.7,6.4-1.7s4.5,.6,6.4,1.7c1.9,1.1,3.4,2.7,4.4,4.7s1.6,4.3,1.6,6.8v.7h0Zm-17.4-10.4c-1.5,.8-2.6,2-3.5,3.4s-1.4,3.2-1.5,5h20c-.1-1.9-.6-3.5-1.5-5s-2.1-2.6-3.6-3.4-3.1-1.2-4.9-1.2-3.5,.4-5,1.2h0Z"/>
      <path class="cls-9" d="M1358.6,481.94c1.7,1.6,2.6,4.1,2.6,7.3v16.6h-2.4v-4.6c-.8,1.5-2.1,2.7-3.7,3.6s-3.5,1.3-5.8,1.3c-2.9,0-5.2-.7-6.9-2.1s-2.5-3.2-2.5-5.4,.8-3.9,2.3-5.3c1.6-1.4,4-2,7.4-2h8.9v-2.1c0-2.4-.7-4.3-2-5.6s-3.2-1.9-5.8-1.9c-1.7,0-3.4,.3-5,.9-1.6,.6-2.9,1.4-4,2.4l-1.2-1.8c1.3-1.2,2.9-2.1,4.7-2.7s3.8-1,5.8-1c3.4-.1,5.9,.7,7.6,2.4h0Zm-3.3,20.4c1.5-1,2.7-2.4,3.4-4.4v-4.9h-8.9c-2.6,0-4.4,.5-5.6,1.4s-1.7,2.2-1.7,3.9,.6,3,1.9,4,3.1,1.5,5.3,1.5,4-.5,5.6-1.5h0Z"/>
      <path class="cls-9" d="M1394.7,468.64v37.1h-2.4v-6.1c-1,2-2.5,3.6-4.3,4.7-1.9,1.1-4,1.6-6.3,1.6s-4.6-.6-6.6-1.7c-2-1.1-3.5-2.7-4.6-4.7s-1.7-4.3-1.7-6.9,.6-4.9,1.7-6.9,2.7-3.6,4.6-4.7c2-1.1,4.2-1.7,6.6-1.7s4.4,.6,6.3,1.6c1.8,1.1,3.3,2.6,4.4,4.6v-16.9h2.3Zm-7.6,33.6c1.6-.9,2.8-2.2,3.8-3.9s1.4-3.6,1.4-5.7-.5-4-1.4-5.7-2.2-3-3.8-3.9-3.4-1.4-5.4-1.4-3.8,.5-5.4,1.4-2.8,2.2-3.8,3.9-1.4,3.6-1.4,5.7,.5,4,1.4,5.7,2.2,3,3.8,3.9,3.4,1.4,5.4,1.4,3.8-.4,5.4-1.4Z"/>
      <path class="cls-9" d="M1405.1,472.74c-.4-.4-.6-.9-.6-1.4s.2-1.1,.6-1.4,.9-.6,1.4-.6,1.1,.2,1.4,.6c.4,.4,.6,.9,.6,1.4s-.2,1.1-.6,1.4-.9,.6-1.4,.6-1-.3-1.4-.6Zm.2,6.9h2.5v26.1h-2.5v-26.1Z"/>
      <path class="cls-9" d="M1438.8,482.24c1.9,1.9,2.8,4.6,2.8,8.2v15.2h-2.5v-15c0-2.9-.7-5.2-2.2-6.7s-3.6-2.3-6.2-2.3c-3.1,0-5.5,.9-7.2,2.8s-2.7,4.3-2.7,7.4v13.9h-2.5v-26.1h2.4v5.6c.9-1.8,2.2-3.3,4-4.3s3.9-1.6,6.3-1.6c3.4,.1,5.9,1,7.8,2.9h0Z"/>
      <path class="cls-9" d="M1475.5,479.64v23.3c0,4.3-1.1,7.5-3.2,9.6s-5.3,3.1-9.5,3.1c-2.4,0-4.7-.4-6.8-1.1s-3.8-1.8-5.2-3.1l1.3-1.9c1.3,1.2,2.9,2.1,4.7,2.8s3.8,1,5.8,1c3.5,0,6-.8,7.7-2.5,1.7-1.6,2.5-4.2,2.5-7.7v-4.4c-1.1,1.9-2.6,3.4-4.4,4.4-1.9,1-4,1.6-6.4,1.6s-4.6-.5-6.6-1.6-3.5-2.6-4.7-4.5c-1.1-1.9-1.7-4.1-1.7-6.6s.6-4.6,1.7-6.6c1.1-1.9,2.7-3.4,4.7-4.5s4.2-1.6,6.6-1.6,4.6,.5,6.5,1.6,3.4,2.6,4.4,4.5v-5.8h2.6Zm-7.6,21.5c1.6-.9,2.9-2.1,3.8-3.7s1.4-3.4,1.4-5.4-.5-3.8-1.4-5.4c-.9-1.6-2.2-2.8-3.8-3.7s-3.5-1.3-5.5-1.3-3.9,.4-5.5,1.3c-1.6,.9-2.9,2.1-3.8,3.7-.9,1.6-1.4,3.4-1.4,5.4s.5,3.8,1.4,5.4c.9,1.6,2.2,2.8,3.8,3.7,1.6,.9,3.4,1.3,5.5,1.3s3.9-.4,5.5-1.3Z"/>
      <path class="cls-9" d="M1498.5,505.34c-.4-.4-.6-.9-.6-1.4s.2-1.1,.6-1.4,.9-.6,1.4-.6c.6,0,1.1,.2,1.5,.6,.4,.4,.6,.9,.6,1.4s-.2,1.1-.6,1.4-.9,.6-1.5,.6c-.5,0-1-.2-1.4-.6Zm0-34.6h2.9l-.5,24.9h-1.9l-.5-24.9Z"/>
      <path class="cls-9" d="M1511.1,505.34c-.4-.4-.6-.9-.6-1.4s.2-1.1,.6-1.4,.9-.6,1.4-.6c.6,0,1.1,.2,1.5,.6,.4,.4,.6,.9,.6,1.4s-.2,1.1-.6,1.4-.9,.6-1.5,.6c-.5,0-1-.2-1.4-.6Zm0-34.6h2.9l-.5,24.9h-1.9l-.5-24.9Z"/>
    </g>
  </g>
  <g id="Ebene_4" data-name="Ebene 4">
    <line class="cls-2" x1="1203.1" y1="390.54" x2="885.7" y2="390.54"/>
    <line class="cls-2" x1="1520.4" y1="524.94" x2="1203.1" y2="524.94"/>
    <line class="cls-2" x1="1203.1" y1="514.94" x2="1203.1" y2="534.94"/>
    <line class="cls-2" x1="1522.1" y1="514.94" x2="1522.1" y2="534.94"/>
    <line class="cls-2" x1="885.5" y1="380.54" x2="885.5" y2="400.54"/>
    <line class="cls-2" x1="1203.1" y1="380.54" x2="1203.1" y2="400.54"/>
    <path class="cls-8" d="M1378.2,540.24l-5.3,11.8c-.4,1-.9,1.7-1.5,2.1s-1.2,.6-2,.6c-.5,0-1-.1-1.4-.2-.4-.2-.8-.4-1.1-.7l.7-1.1c.5,.5,1.2,.8,1.9,.8,.5,0,.9-.1,1.2-.4s.7-.7,.9-1.4l.5-1-4.7-10.5h1.5l4,8.9,4-8.9h1.3Z"/>
    <path class="cls-8" d="M1042.4,363.84l-5.3,11.8c-.4,1-.9,1.7-1.5,2.1s-1.2,.6-2,.6c-.5,0-1-.1-1.4-.2-.4-.2-.8-.4-1.1-.7l.7-1.1c.5,.5,1.2,.8,1.9,.8,.5,0,.9-.1,1.2-.4s.7-.7,1-1.4l.5-1-4.8-10.5h1.5l4,8.9,4-8.9c-.1,0,1.3,0,1.3,0Z"/>
    <line class="cls-3" x1="1522.1" y1="479.54" x2="1552.8" y2="479.54"/>
    <line class="cls-2" x1="1522.1" y1="469.64" x2="1522.1" y2="489.64"/>
    <line class="cls-2" x1="1583.4" y1="469.64" x2="1583.4" y2="489.64"/>
    <line class="cls-3" x1="1552.8" y1="479.54" x2="1583.4" y2="479.54"/>
    <g>
      <path class="cls-8" d="M1553,473.34v1.3h-9.8v-1l5.8-5.7c.7-.7,1.2-1.3,1.5-1.9s.4-1.1,.4-1.6c0-.8-.3-1.5-.8-1.9s-1.4-.7-2.4-.7c-1.6,0-2.9,.5-3.8,1.6l-1-.9c.6-.6,1.2-1.1,2.1-1.5,.8-.4,1.8-.5,2.9-.5,1.4,0,2.6,.3,3.4,1s1.2,1.6,1.2,2.8c0,.7-.2,1.4-.5,2.1s-.9,1.4-1.8,2.3l-4.8,4.7h7.6v-.1Z"/>
      <path class="cls-8" d="M1565.7,474.64l-3.3-4.4-3.4,4.4h-1.6l4.2-5.4-4-5.1h1.6l3.2,4.1,3.2-4.1h1.6l-4,5.1,4.2,5.4h-1.7Z"/>
    </g>
    <line class="cls-3" x1="360.4" y1="322.64" x2="391.1" y2="322.64"/>
    <path class="cls-8" d="M379.1,319.24l-3.3-4.4-3.4,4.4h-1.6l4.2-5.4-4-5.1h1.6l3.2,4.1,3.2-4.1h1.6l-4,5.1,4.2,5.4h-1.7Z"/>
    <line class="cls-2" x1="360.5" y1="312.64" x2="360.5" y2="332.64"/>
    <line class="cls-2" x1="391.1" y1="312.64" x2="391.1" y2="332.64"/>
  </g>
</svg>